#VRML V2.0 utf8
# 3D model generated by easyeda2kicad.py (https://github.com/uPesy/easyeda2kicad.py)

Shape{
    appearance Appearance {
        material  Material 	{
            diffuseColor 0.25098039215686274 0.25098039215686274 0.25098039215686274
            specularColor 0.12549019607843137 0.12549019607843137 0.12549019607843137
            ambientIntensity 0.251
            transparency 0.0
            shininess 0.5
        }
    }
    geometry IndexedFaceSet {
        ccw TRUE
        solid FALSE
        coord DEF co Coordinate {
            point [
                0.0061 0.0173 0.0079, 0.01 0.0169 0.0079, -0.0024 -0.0123 0.0079, 0.0027 0.0214 0.0079, 0.0015 0.0213 0.0079, -0.0069 0.0214 0.0079, -0.0031 0.0201 0.0079, -0.0031 0.0148 0.0079, 0.0014 0.0167 0.0079, -0.0031 -0.0119 0.0079, 0.123 -0.1762 0.0079, 0.123 -0.1959 0.0079, 0.1033 -0.1762 0.0079, 0.0246 -0.1959 0.0079, 0.1033 -0.0463 0.0079, 0.0497 0.0211 0.0079, 0.1811 -0.0069 0.0079, 0.0497 -0.0182 0.0079, 0.17 -0.0082 0.0079, 0.1594 -0.0119 0.0079, 0.2411 -0.1959 0.0079, 0.2411 -0.1762 0.0079, 0.3002 -0.1959 0.0079, 0.2608 -0.1762 0.0079, 0.3002 0.0214 0.0079, 0.2608 -0.0463 0.0079, 0.0246 -0.0856 0.0079, 0.0235 -0.0762 0.0079, 0.0201 -0.0673 0.0079, 0.013 0.0158 0.0079, 0.0157 0.014 0.0079, 0.0181 0.0114 0.0079, 0.0209 0.001 0.0079, 0.0205 -0.0032 0.0079, 0.0195 -0.0066 0.0079, 0.0107 -0.014 0.0079, 0.007 -0.0144 0.0079, 0.0136 -0.0129 0.0079, 0.016 -0.0113 0.0079, 0.0178 -0.0093 0.0079, 0.0018 -0.0138 0.0079, 0.15 -0.018 0.0079, 0.1421 -0.026 0.0079, 0.1363 -0.0356 0.0079, -0.0031 -0.0162 0.0079, -0.0069 -0.0473 0.0079, 0.0011 -0.0179 0.0079, 0.0067 -0.0187 0.0079, 0.1329 -0.0463 0.0079, 0.0296 -0.0182 0.0079, 0.0147 -0.0595 0.0079, 0.0076 -0.0532 0.0079, -0.0008 -0.0488 0.0079, 0.0197 0.0083 0.0079, 0.0207 0.0041 0.0079, 0.222 -0.026 0.0079, 0.2142 -0.018 0.0079, 0.2048 -0.0119 0.0079, 0.1942 -0.0082 0.0079, 0.1831 -0.0069 0.0079, 0.0196 -0.0149 0.0079, 0.0296 -0.0139 0.0079, 0.0164 -0.0169 0.0079, 0.0126 -0.0182 0.0079, 0.0078 -0.0187 0.0079, 0.2313 -0.0463 0.0079, 0.2278 -0.0356 0.0079, 0.0226 -0.0118 0.0079, 0.0246 -0.008 0.0079, 0.0445 -0.0139 0.0079, 0.0241 0.0108 0.0079, 0.0218 0.0145 0.0079, 0.0445 0.0211 0.0079, 0.0183 0.0179 0.0079, 0.0145 0.02 0.0079, 0.0091 0.0214 0.0079, 0.0101 0.0213 0.0079, 0.0258 -0.0038 0.0079, 0.0262 0.0007 0.0079, 0.0256 0.0063 0.0079, 0.123 0.1978 0.0079, 0.123 0.1782 0.0079, 0.1033 0.1782 0.0079, 0.0049 0.0535 0.0079, 0.0131 0.0598 0.0079, 0.1033 0.0482 0.0079, 0.0193 0.0679 0.0079, 0.0233 0.0774 0.0079, 0.0246 0.0876 0.0079, 0.0246 0.1978 0.0079, 0.2411 0.1782 0.0079, 0.2411 0.1978 0.0079, 0.2608 0.1782 0.0079, 0.3002 0.1978 0.0079, 0.2608 0.0482 0.0079, 0.0062 0.0216 0.0079, -0.0046 0.0496 0.0079, -0.0069 0.0493 0.0079, -0.0148 0.0482 0.0079, -0.3297 0.1978 0.0079, -0.251 0.1978 0.0079, -0.3297 0.0214 0.0079, -0.251 0.0876 0.0079, -0.2496 0.0774 0.0079, -0.2457 0.0679 0.0079, -0.2395 0.0598 0.0079, -0.2313 0.0535 0.0079, -0.2218 0.0496 0.0079, -0.2116 0.0482 0.0079, -0.2014 0.0496 0.0079, -0.1919 0.0535 0.0079, -0.1838 0.0598 0.0079, -0.1775 0.0679 0.0079, -0.1736 0.0774 0.0079, -0.0489 0.0679 0.0079, -0.0426 0.0598 0.0079, -0.0345 0.0535 0.0079, -0.025 0.0496 0.0079, -0.1723 0.1978 0.0079, -0.0541 0.1978 0.0079, -0.1723 0.0876 0.0079, -0.0541 0.0876 0.0079, -0.0528 0.0774 0.0079, -0.251 -0.1959 0.0079, -0.3297 -0.1959 0.0079, -0.251 -0.0463 0.0079, -0.1723 -0.0463 0.0079, -0.1039 -0.0182 0.0079, -0.0999 -0.0072 0.0079, -0.0837 -0.0072 0.0079, -0.0108 -0.0182 0.0079, -0.0108 0.0211 0.0079, -0.0309 0.0211 0.0079, -0.0799 -0.0182 0.0079, -0.1723 -0.1959 0.0079, -0.0741 -0.0182 0.0079, -0.0693 -0.0074 0.0079, -0.067 -0.011 0.0079, -0.0638 -0.0141 0.0079, -0.0597 -0.0165 0.0079, -0.01 -0.0465 0.0079, -0.0319 -0.0182 0.0079, -0.0195 -0.0465 0.0079, -0.0287 -0.0488 0.0079, -0.0541 -0.1959 0.0079, -0.0541 -0.0856 0.0079, -0.053 -0.0762 0.0079, -0.0396 -0.0182 0.0079, -0.0503 -0.0182 0.0079, -0.0551 -0.0178 0.0079, -0.0371 -0.0532 0.0079, -0.0442 -0.0595 0.0079, -0.0496 -0.0673 0.0079, -0.016 0.0168 0.0079, -0.016 0.0039 0.0079, -0.0309 0.0168 0.0079, -0.03 0.0039 0.0079, -0.0396 0.0211 0.0079, -0.03 -0.0005 0.0079, -0.1097 -0.0182 0.0079, -0.0943 0.0211 0.0079, -0.089 0.0211 0.0079, -0.016 -0.0005 0.0079, -0.016 -0.0139 0.0079, -0.0319 -0.0139 0.0079, -0.061 0.0189 0.0079, -0.0653 0.016 0.0079, -0.0653 0.016 0.0079, -0.0681 0.0129 0.0079, -0.0699 0.0095 0.0079, -0.0507 0.0211 0.0079, -0.0564 0.0205 0.0079, -0.071 0.0057 0.0079, -0.0713 0.0019 0.0079, -0.0707 -0.0033 0.0079
            ]
        }
        coordIndex [
            0,1,2,-1,3,4,5,-1,5,4,6,-1,5,6,7,-1,0,2,8,-1,8,2,9,-1,8,9,7,-1,10,11,12,-1,12,11,13,-1,12,13,14,-1,15,16,17,-1,17,16,18,-1,17,18,19,-1,20,21,22,-1,22,21,23,-1,22,23,24,-1,24,23,25,-1,13,26,14,-1,14,26,27,-1,14,27,28,-1,1,29,2,-1,2,29,30,-1,2,30,31,-1,32,33,2,-1,2,33,34,-1,35,36,37,-1,37,36,38,-1,34,39,2,-1,2,39,38,-1,2,38,40,-1,40,38,36,-1,19,41,17,-1,17,41,42,-1,17,42,43,-1,9,44,45,-1,45,44,46,-1,45,46,47,-1,43,48,17,-1,17,48,14,-1,17,14,49,-1,49,14,28,-1,49,28,50,-1,50,51,49,-1,49,51,52,-1,49,52,45,-1,31,53,2,-1,2,53,54,-1,2,54,32,-1,24,55,56,-1,56,57,24,-1,24,57,58,-1,24,58,59,-1,60,61,62,-1,62,61,63,-1,61,49,63,-1,63,49,45,-1,63,45,64,-1,64,45,47,-1,25,65,24,-1,24,65,66,-1,24,66,55,-1,60,67,61,-1,61,67,68,-1,61,68,69,-1,70,71,72,-1,72,71,73,-1,72,73,74,-1,59,16,24,-1,24,16,15,-1,24,15,75,-1,75,15,72,-1,75,72,76,-1,76,72,74,-1,68,77,69,-1,69,77,78,-1,69,78,72,-1,72,78,79,-1,72,79,70,-1,80,81,82,-1,83,84,85,-1,85,84,86,-1,86,87,85,-1,85,87,88,-1,85,88,82,-1,82,88,89,-1,82,89,80,-1,90,91,92,-1,92,91,93,-1,92,93,94,-1,94,93,24,-1,94,24,85,-1,85,24,75,-1,85,75,83,-1,83,75,95,-1,83,95,96,-1,96,95,3,-1,96,3,97,-1,97,3,5,-1,97,5,98,-1,99,100,101,-1,101,100,102,-1,101,102,103,-1,103,104,101,-1,101,104,105,-1,101,105,106,-1,106,107,101,-1,101,107,108,-1,101,108,5,-1,5,108,109,-1,5,109,110,-1,110,111,5,-1,5,111,112,-1,5,112,113,-1,114,115,113,-1,113,115,116,-1,113,116,5,-1,5,116,117,-1,5,117,98,-1,118,119,120,-1,120,119,121,-1,120,121,113,-1,113,121,122,-1,113,122,114,-1,123,124,125,-1,125,124,101,-1,125,101,126,-1,127,128,129,-1,130,131,5,-1,5,131,132,-1,126,133,134,-1,134,133,135,-1,136,137,135,-1,135,137,138,-1,135,138,139,-1,7,9,5,-1,5,9,45,-1,5,45,130,-1,130,45,140,-1,130,140,141,-1,141,140,142,-1,141,142,143,-1,144,134,145,-1,145,134,146,-1,147,134,148,-1,148,134,135,-1,148,135,149,-1,149,135,139,-1,143,150,141,-1,141,150,151,-1,141,151,152,-1,153,154,155,-1,155,154,156,-1,132,155,157,-1,157,155,156,-1,157,156,147,-1,147,156,158,-1,129,133,127,-1,127,133,126,-1,127,126,159,-1,159,126,101,-1,159,101,160,-1,160,101,5,-1,160,5,161,-1,162,163,158,-1,158,163,164,-1,158,164,147,-1,147,164,141,-1,147,141,134,-1,134,141,152,-1,134,152,146,-1,161,165,166,-1,166,167,161,-1,161,167,168,-1,161,168,169,-1,132,157,5,-1,5,157,170,-1,5,170,161,-1,161,170,171,-1,161,171,165,-1,169,172,161,-1,161,172,173,-1,161,173,135,-1,135,173,174,-1,135,174,136,-1,
        ]
    }
}
Shape{
    appearance Appearance {
        material  Material 	{
            diffuseColor 1.0 1.0 1.0
            specularColor 0.5019607843137255 0.5019607843137255 0.5019607843137255
            ambientIntensity 1.0
            transparency 0.0
            shininess 0.5
        }
    }
    geometry IndexedFaceSet {
        ccw TRUE
        solid FALSE
        coord DEF co Coordinate {
            point [
                0.1329 -0.0463 0.0, 0.1033 -0.0463 0.0, 0.1329 -0.0463 0.0079, 0.1033 -0.0463 0.0079, 0.2313 -0.0463 0.0079, 0.2608 -0.0463 0.0079, 0.2313 -0.0463 0.0, 0.2608 -0.0463 0.0
            ]
        }
        coordIndex [
            0,1,2,-1,2,1,3,-1,4,5,6,-1,6,5,7,-1,
        ]
    }
}
Shape{
    appearance Appearance {
        material  Material 	{
            diffuseColor 0.25098039215686274 0.25098039215686274 0.25098039215686274
            specularColor 0.12549019607843137 0.12549019607843137 0.12549019607843137
            ambientIntensity 0.251
            transparency 0.0
            shininess 0.5
        }
    }
    geometry IndexedFaceSet {
        ccw TRUE
        solid FALSE
        coord DEF co Coordinate {
            point [
                -0.3297 -0.1959 0.0079, -0.3297 -0.1959 0.2047, -0.3297 0.0214 0.0079, -0.3297 0.1978 0.2047, -0.3297 0.1978 0.0079, -0.0541 -0.1959 0.0669, 0.0246 -0.1959 0.0669, 0.3002 -0.1959 0.2047, -0.251 -0.1959 0.0079, -0.251 -0.1959 0.0669, -0.1723 -0.1959 0.0669, -0.1723 -0.1959 0.0079, -0.0541 -0.1959 0.0079, 0.2411 -0.1959 0.0079, 0.3002 -0.1959 0.0079, 0.2411 -0.1959 0.0669, 0.123 -0.1959 0.0669, 0.123 -0.1959 0.0079, 0.0246 -0.1959 0.0079, 0.3002 0.1978 0.2047, 0.3002 0.0214 0.0079, 0.3002 0.1978 0.0079, 0.123 0.1978 0.0669, 0.123 0.1978 0.0079, 0.0246 0.1978 0.0079, 0.2411 0.1978 0.0079, -0.0541 0.1978 0.0079, -0.1723 0.1978 0.0079, -0.0541 0.1978 0.0669, -0.1723 0.1978 0.0669, 0.2411 0.1978 0.0669, 0.0246 0.1978 0.0669, -0.251 0.1978 0.0079, -0.251 0.1978 0.0669, -0.2896 -0.1637 0.2047, -0.2945 -0.1616 0.2047, -0.3039 -0.1493 0.2047, -0.3046 -0.1441 0.2047, -0.3039 -0.1389 0.2047, -0.3019 -0.134 0.2047, -0.2701 -0.1584 0.2047, -0.2669 -0.1542 0.2047, -0.2649 -0.1493 0.2047, -0.2987 -0.1584 0.2047, -0.3019 -0.1542 0.2047, -0.2987 -0.1298 0.2047, -0.2945 -0.1266 0.2047, -0.2896 -0.1246 0.2047, -0.2743 -0.1616 0.2047, -0.2792 -0.1637 0.2047, -0.2844 -0.1643 0.2047, -0.2701 -0.1298 0.2047, -0.2669 -0.134 0.2047, -0.2649 -0.1389 0.2047, -0.2642 -0.1441 0.2047, -0.2844 -0.1239 0.2047, -0.2792 -0.1246 0.2047, -0.2743 -0.1266 0.2047
            ]
        }
        coordIndex [
            0,1,2,-1,2,1,3,-1,2,3,4,-1,5,6,7,-1,0,8,1,-1,1,8,9,-1,1,9,10,-1,11,12,10,-1,10,12,5,-1,10,5,1,-1,1,5,7,-1,13,14,15,-1,15,14,7,-1,15,7,16,-1,16,7,6,-1,16,6,17,-1,17,6,18,-1,7,14,19,-1,19,14,20,-1,19,20,21,-1,22,23,24,-1,19,21,25,-1,26,27,28,-1,28,27,29,-1,25,30,19,-1,19,30,22,-1,19,22,31,-1,31,22,24,-1,32,4,33,-1,33,4,3,-1,33,3,29,-1,29,3,19,-1,29,19,28,-1,28,19,31,-1,34,35,1,-1,36,37,1,-1,1,37,38,-1,1,38,3,-1,3,38,39,-1,40,7,41,-1,41,7,42,-1,35,43,1,-1,1,43,44,-1,1,44,36,-1,39,45,3,-1,3,45,46,-1,3,46,47,-1,40,48,7,-1,7,48,49,-1,7,49,1,-1,1,49,50,-1,1,50,34,-1,51,52,19,-1,19,52,53,-1,19,53,7,-1,7,53,54,-1,7,54,42,-1,47,55,3,-1,3,55,56,-1,3,56,19,-1,19,56,57,-1,19,57,51,-1,
        ]
    }
}
Shape{
    appearance Appearance {
        material  Material 	{
            diffuseColor 1.0 1.0 1.0
            specularColor 0.5019607843137255 0.5019607843137255 0.5019607843137255
            ambientIntensity 1.0
            transparency 0.0
            shininess 0.5
        }
    }
    geometry IndexedFaceSet {
        ccw TRUE
        solid FALSE
        coord DEF co Coordinate {
            point [
                -0.3046 -0.1441 0.2043, -0.3046 -0.1441 0.2047, -0.3039 -0.1493 0.2043, -0.3039 -0.1493 0.2047, -0.3019 -0.1542 0.2043, -0.3019 -0.1542 0.2047, -0.2987 -0.1584 0.2043, -0.2987 -0.1584 0.2047, -0.2945 -0.1616 0.2043, -0.2945 -0.1616 0.2047, -0.2896 -0.1637 0.2043, -0.2896 -0.1637 0.2047, -0.2844 -0.1643 0.2043, -0.2844 -0.1643 0.2047, -0.2792 -0.1637 0.2043, -0.2792 -0.1637 0.2047, -0.2743 -0.1616 0.2043, -0.2743 -0.1616 0.2047, -0.2701 -0.1584 0.2043, -0.2701 -0.1584 0.2047, -0.2669 -0.1542 0.2043, -0.2669 -0.1542 0.2047, -0.2649 -0.1493 0.2043, -0.2649 -0.1493 0.2047, -0.2642 -0.1441 0.2043, -0.2642 -0.1441 0.2047, -0.2649 -0.1389 0.2043, -0.2649 -0.1389 0.2047, -0.2669 -0.134 0.2043, -0.2669 -0.134 0.2047, -0.2701 -0.1298 0.2043, -0.2701 -0.1298 0.2047, -0.2743 -0.1266 0.2043, -0.2743 -0.1266 0.2047, -0.2792 -0.1246 0.2043, -0.2792 -0.1246 0.2047, -0.2844 -0.1239 0.2043, -0.2844 -0.1239 0.2047, -0.2896 -0.1246 0.2043, -0.2896 -0.1246 0.2047, -0.2945 -0.1266 0.2043, -0.2945 -0.1266 0.2047, -0.2987 -0.1298 0.2043, -0.2987 -0.1298 0.2047, -0.3019 -0.134 0.2043, -0.3019 -0.134 0.2047, -0.3039 -0.1389 0.2043, -0.3039 -0.1389 0.2047, -0.2844 -0.1441 0.2043, 0.0246 0.1978 0.0669, 0.0246 0.2018 0.0669, -0.0541 0.1978 0.0669, -0.0541 0.2018 0.0669, -0.0541 0.0876 0.0079, -0.0541 0.0876 0.0, -0.0528 0.0774 0.0, -0.0528 0.0774 0.0079, -0.0489 0.0679 0.0, -0.0489 0.0679 0.0079, -0.0426 0.0598 0.0, -0.0426 0.0598 0.0079, -0.0345 0.0535 0.0, -0.0345 0.0535 0.0079, -0.025 0.0496 0.0, -0.025 0.0496 0.0079, -0.0148 0.0482 0.0, -0.0148 0.0482 0.0079, -0.0069 0.0493 0.0079, -0.0046 0.0496 0.0, -0.0046 0.0496 0.0079, 0.0049 0.0535 0.0, 0.0049 0.0535 0.0079, 0.0131 0.0598 0.0, 0.0131 0.0598 0.0079, 0.0193 0.0679 0.0, 0.0193 0.0679 0.0079, 0.0233 0.0774 0.0, 0.0233 0.0774 0.0079, 0.0246 0.0876 0.0, 0.0246 0.0876 0.0079, 0.0246 0.1978 0.0079, 0.0246 0.2018 0.0, -0.0541 0.1978 0.0079, -0.0541 0.2018 0.0, -0.1723 0.1978 0.0669, -0.1723 0.2018 0.0669, -0.251 0.1978 0.0669, -0.251 0.2018 0.0669, -0.251 0.0876 0.0079, -0.251 0.0876 0.0, -0.2496 0.0774 0.0, -0.2496 0.0774 0.0079, -0.2457 0.0679 0.0, -0.2457 0.0679 0.0079, -0.2395 0.0598 0.0, -0.2395 0.0598 0.0079, -0.2313 0.0535 0.0, -0.2313 0.0535 0.0079, -0.2218 0.0496 0.0, -0.2218 0.0496 0.0079, -0.2116 0.0482 0.0, -0.2116 0.0482 0.0079, -0.2014 0.0496 0.0, -0.2014 0.0496 0.0079, -0.1919 0.0535 0.0, -0.1919 0.0535 0.0079, -0.1838 0.0598 0.0, -0.1838 0.0598 0.0079, -0.1775 0.0679 0.0, -0.1775 0.0679 0.0079, -0.1736 0.0774 0.0, -0.1736 0.0774 0.0079, -0.1723 0.0876 0.0, -0.1723 0.0876 0.0079, -0.1723 0.1978 0.0079, -0.1723 0.2018 0.0, -0.251 0.1978 0.0079, -0.251 0.2018 0.0, -0.0541 -0.1998 0.0669, 0.0246 -0.1998 0.0669, -0.0541 -0.1959 0.0669, 0.0246 -0.1959 0.0669, 0.0246 -0.1959 0.0079, 0.0246 -0.1998 0.0, 0.0246 -0.0856 0.0079, 0.0246 -0.0856 0.0, 0.0235 -0.0762 0.0, 0.0235 -0.0762 0.0079, 0.0201 -0.0673 0.0, 0.0201 -0.0673 0.0079, 0.0147 -0.0595 0.0, 0.0147 -0.0595 0.0079, 0.0076 -0.0532 0.0, 0.0076 -0.0532 0.0079, -0.0008 -0.0488 0.0, -0.0008 -0.0488 0.0079, -0.0069 -0.0473 0.0079, -0.01 -0.0465 0.0, -0.01 -0.0465 0.0079, -0.0195 -0.0465 0.0, -0.0195 -0.0465 0.0079, -0.0287 -0.0488 0.0, -0.0287 -0.0488 0.0079, -0.0371 -0.0532 0.0, -0.0371 -0.0532 0.0079, -0.0442 -0.0595 0.0, -0.0442 -0.0595 0.0079, -0.0496 -0.0673 0.0, -0.0496 -0.0673 0.0079, -0.053 -0.0762 0.0, -0.053 -0.0762 0.0079, -0.0541 -0.0856 0.0, -0.0541 -0.0856 0.0079, -0.0541 -0.1959 0.0079, -0.0541 -0.1998 0.0, -0.251 -0.1959 0.0669, -0.251 -0.1998 0.0669, -0.1723 -0.1959 0.0669, -0.1723 -0.1998 0.0669, -0.251 -0.0463 0.0079, -0.251 -0.0463 0.0, -0.251 -0.1959 0.0079, -0.251 -0.1998 0.0, -0.1723 -0.1959 0.0079, -0.1723 -0.1998 0.0, -0.1723 -0.0463 0.0079, -0.1723 -0.0463 0.0, 0.2411 0.1978 0.0669, 0.2411 0.2018 0.0669, 0.123 0.1978 0.0669, 0.123 0.2018 0.0669, 0.123 0.1782 0.0, 0.1033 0.1782 0.0, 0.123 0.1782 0.0079, 0.1033 0.1782 0.0079, 0.1033 0.0482 0.0, 0.1033 0.0482 0.0079, 0.2608 0.0482 0.0, 0.2608 0.0482 0.0079, 0.2608 0.1782 0.0, 0.2608 0.1782 0.0079, 0.2411 0.1782 0.0, 0.2411 0.1782 0.0079, 0.2411 0.1978 0.0079, 0.2411 0.2018 0.0, 0.123 0.1978 0.0079, 0.123 0.2018 0.0, 0.123 -0.1959 0.0669, 0.123 -0.1998 0.0669, 0.2411 -0.1959 0.0669, 0.2411 -0.1998 0.0669, 0.2608 -0.1762 0.0, 0.2608 -0.0463 0.0, 0.2608 -0.1762 0.0079, 0.2608 -0.0463 0.0079, 0.1033 -0.0463 0.0, 0.1033 -0.1762 0.0, 0.1033 -0.0463 0.0079, 0.1033 -0.1762 0.0079, 0.123 -0.1762 0.0, 0.123 -0.1762 0.0079, 0.123 -0.1959 0.0079, 0.123 -0.1998 0.0, 0.2411 -0.1959 0.0079, 0.2411 -0.1998 0.0, 0.2411 -0.1762 0.0079, 0.2411 -0.1762 0.0, 0.1329 -0.0463 0.0, 0.1363 -0.0356 0.0, 0.1421 -0.026 0.0, 0.17 -0.0082 0.0, 0.1811 -0.0069 0.0, 0.1831 -0.0069 0.0, 0.1942 -0.0082 0.0, 0.15 -0.018 0.0, 0.1594 -0.0119 0.0, 0.2048 -0.0119 0.0, 0.2142 -0.018 0.0, 0.222 -0.026 0.0, 0.2313 -0.0463 0.0, 0.2278 -0.0356 0.0, 0.1831 -0.0069 0.0079, 0.1811 -0.0069 0.0079, 0.2313 -0.0463 0.0079, 0.2278 -0.0356 0.0079, 0.222 -0.026 0.0079, 0.2142 -0.018 0.0079, 0.2048 -0.0119 0.0079, 0.1942 -0.0082 0.0079, 0.1329 -0.0463 0.0079, 0.1363 -0.0356 0.0079, 0.1421 -0.026 0.0079, 0.15 -0.018 0.0079, 0.1594 -0.0119 0.0079, 0.17 -0.0082 0.0079
            ]
        }
        coordIndex [
            0,1,2,-1,2,1,3,-1,2,3,4,-1,4,3,5,-1,4,5,6,-1,6,5,7,-1,6,7,8,-1,8,7,9,-1,8,9,10,-1,10,9,11,-1,10,11,12,-1,12,11,13,-1,12,13,14,-1,14,13,15,-1,14,15,16,-1,16,15,17,-1,16,17,18,-1,18,17,19,-1,18,19,20,-1,20,19,21,-1,20,21,22,-1,22,21,23,-1,22,23,24,-1,24,23,25,-1,24,25,26,-1,26,25,27,-1,26,27,28,-1,28,27,29,-1,28,29,30,-1,30,29,31,-1,30,31,32,-1,32,31,33,-1,32,33,34,-1,34,33,35,-1,34,35,36,-1,36,35,37,-1,36,37,38,-1,38,37,39,-1,38,39,40,-1,40,39,41,-1,40,41,42,-1,42,41,43,-1,42,43,44,-1,44,43,45,-1,44,45,46,-1,46,45,47,-1,46,47,0,-1,0,47,1,-1,44,46,48,-1,48,46,0,-1,48,0,2,-1,38,40,48,-1,48,40,42,-1,48,42,44,-1,32,34,48,-1,48,34,36,-1,48,36,38,-1,26,28,48,-1,48,28,30,-1,48,30,32,-1,20,22,48,-1,48,22,24,-1,48,24,26,-1,14,16,48,-1,48,16,18,-1,48,18,20,-1,8,10,48,-1,48,10,12,-1,48,12,14,-1,2,4,48,-1,48,4,6,-1,48,6,8,-1,49,50,51,-1,51,50,52,-1,53,54,55,-1,53,55,56,-1,56,55,57,-1,56,57,58,-1,58,57,59,-1,58,59,60,-1,60,59,61,-1,60,61,62,-1,62,61,63,-1,62,63,64,-1,64,63,65,-1,64,65,66,-1,66,65,67,-1,67,65,68,-1,67,68,69,-1,69,68,70,-1,69,70,71,-1,71,70,72,-1,71,72,73,-1,73,72,74,-1,73,74,75,-1,75,74,76,-1,75,76,77,-1,77,76,78,-1,77,78,79,-1,79,78,80,-1,80,78,81,-1,80,81,49,-1,49,81,50,-1,51,52,82,-1,82,52,83,-1,82,83,53,-1,53,83,54,-1,83,52,81,-1,81,52,50,-1,83,81,54,-1,54,81,78,-1,76,74,63,-1,63,74,72,-1,72,70,63,-1,63,70,68,-1,63,68,65,-1,76,63,78,-1,78,63,61,-1,78,61,59,-1,59,57,78,-1,78,57,55,-1,78,55,54,-1,84,85,86,-1,86,85,87,-1,88,89,90,-1,88,90,91,-1,91,90,92,-1,91,92,93,-1,93,92,94,-1,93,94,95,-1,95,94,96,-1,95,96,97,-1,97,96,98,-1,97,98,99,-1,99,98,100,-1,99,100,101,-1,101,100,102,-1,101,102,103,-1,103,102,104,-1,103,104,105,-1,105,104,106,-1,105,106,107,-1,107,106,108,-1,107,108,109,-1,109,108,110,-1,109,110,111,-1,111,110,112,-1,111,112,113,-1,113,112,114,-1,114,112,115,-1,114,115,84,-1,84,115,85,-1,86,87,116,-1,116,87,117,-1,116,117,88,-1,88,117,89,-1,117,87,115,-1,115,87,85,-1,117,115,89,-1,89,115,112,-1,89,112,90,-1,90,112,92,-1,92,112,94,-1,94,112,110,-1,94,110,108,-1,108,106,94,-1,94,106,104,-1,94,104,102,-1,102,100,94,-1,94,100,98,-1,94,98,96,-1,118,119,120,-1,120,119,121,-1,121,119,122,-1,122,119,123,-1,122,123,124,-1,124,123,125,-1,124,125,126,-1,124,126,127,-1,127,126,128,-1,127,128,129,-1,129,128,130,-1,129,130,131,-1,131,130,132,-1,131,132,133,-1,133,132,134,-1,133,134,135,-1,135,134,136,-1,136,134,137,-1,136,137,138,-1,138,137,139,-1,138,139,140,-1,140,139,141,-1,140,141,142,-1,142,141,143,-1,142,143,144,-1,144,143,145,-1,144,145,146,-1,146,145,147,-1,146,147,148,-1,148,147,149,-1,148,149,150,-1,150,149,151,-1,150,151,152,-1,152,151,153,-1,153,151,154,-1,153,154,120,-1,120,154,118,-1,123,119,154,-1,154,119,118,-1,123,154,125,-1,125,154,151,-1,151,149,125,-1,125,149,147,-1,125,147,145,-1,145,143,125,-1,125,143,141,-1,125,141,139,-1,139,137,125,-1,125,137,134,-1,125,134,132,-1,132,130,125,-1,125,130,128,-1,125,128,126,-1,155,156,157,-1,157,156,158,-1,159,160,161,-1,161,160,162,-1,161,162,155,-1,155,162,156,-1,157,158,163,-1,163,158,164,-1,163,164,165,-1,165,164,166,-1,166,160,165,-1,165,160,159,-1,164,158,162,-1,162,158,156,-1,166,164,160,-1,160,164,162,-1,167,168,169,-1,169,168,170,-1,171,172,173,-1,173,172,174,-1,172,175,174,-1,174,175,176,-1,175,177,176,-1,176,177,178,-1,177,179,178,-1,178,179,180,-1,179,181,180,-1,180,181,182,-1,182,181,183,-1,183,181,184,-1,183,184,167,-1,167,184,168,-1,169,170,185,-1,185,170,186,-1,185,186,173,-1,173,186,171,-1,186,170,184,-1,184,170,168,-1,175,172,177,-1,177,172,171,-1,179,177,181,-1,181,177,171,-1,181,171,184,-1,184,171,186,-1,187,188,189,-1,189,188,190,-1,191,192,193,-1,193,192,194,-1,195,196,197,-1,197,196,198,-1,196,199,198,-1,198,199,200,-1,200,199,201,-1,201,199,202,-1,201,202,187,-1,187,202,188,-1,189,190,203,-1,203,190,204,-1,203,204,205,-1,205,204,206,-1,206,191,205,-1,205,191,193,-1,204,190,202,-1,202,190,188,-1,196,195,199,-1,199,195,206,-1,199,206,202,-1,202,206,204,-1,195,207,206,-1,206,207,208,-1,206,208,209,-1,210,211,206,-1,206,211,212,-1,206,212,213,-1,209,214,206,-1,206,214,215,-1,206,215,210,-1,213,216,206,-1,206,216,217,-1,206,217,218,-1,192,191,219,-1,219,191,206,-1,219,206,220,-1,220,206,218,-1,212,211,221,-1,221,211,222,-1,223,219,220,-1,223,220,224,-1,224,220,218,-1,224,218,225,-1,225,218,217,-1,225,217,226,-1,226,217,216,-1,226,216,227,-1,227,216,213,-1,227,213,228,-1,228,213,212,-1,228,212,221,-1,207,229,230,-1,207,230,208,-1,208,230,231,-1,208,231,209,-1,209,231,232,-1,209,232,214,-1,214,232,233,-1,214,233,215,-1,215,233,234,-1,215,234,210,-1,210,234,222,-1,210,222,211,-1,
        ]
    }
}
Shape{
    appearance Appearance {
        material  Material 	{
            diffuseColor 0.7529411764705882 0.7529411764705882 0.7529411764705882
            specularColor 0.3764705882352941 0.3764705882352941 0.3764705882352941
            ambientIntensity 0.7529
            transparency 0.0
            shininess 0.5
        }
    }
    geometry IndexedFaceSet {
        ccw TRUE
        solid FALSE
        coord DEF co Coordinate {
            point [
                -0.0943 0.0211 0.0083, -0.1097 -0.0182 0.0083, -0.0943 0.0211 0.0079, -0.1097 -0.0182 0.0079, -0.1039 -0.0182 0.0083, -0.1039 -0.0182 0.0079, -0.0999 -0.0072 0.0083, -0.0999 -0.0072 0.0079, -0.0837 -0.0072 0.0083, -0.0837 -0.0072 0.0079, -0.0799 -0.0182 0.0083, -0.0799 -0.0182 0.0079, -0.0741 -0.0182 0.0083, -0.0741 -0.0182 0.0079, -0.089 0.0211 0.0083, -0.089 0.0211 0.0079, -0.085 -0.0029 0.0083, -0.0981 -0.0029 0.0083, -0.0909 0.0136 0.0083, -0.0912 0.0149 0.0083, -0.0915 0.0163 0.0083, -0.0916 0.0163 0.0083, -0.0919 0.0149 0.0083, -0.0922 0.0136 0.0083, -0.085 -0.0029 0.0079, -0.0981 -0.0029 0.0079, -0.0909 0.0136 0.0079, -0.0912 0.0149 0.0079, -0.0915 0.0163 0.0079, -0.0916 0.0163 0.0079, -0.0919 0.0149 0.0079, -0.0922 0.0136 0.0079, -0.0503 -0.0182 0.0083, -0.0396 -0.0182 0.0083, -0.0503 -0.0182 0.0079, -0.0396 -0.0182 0.0079, -0.0396 0.0211 0.0083, -0.0396 0.0211 0.0079, -0.0507 0.0211 0.0083, -0.0507 0.0211 0.0079, -0.0713 0.0019 0.0083, -0.0713 0.0019 0.0079, -0.071 0.0057 0.0079, -0.071 0.0057 0.0083, -0.0699 0.0095 0.0079, -0.0699 0.0095 0.0083, -0.0681 0.0129 0.0079, -0.0681 0.0129 0.0083, -0.0653 0.016 0.0079, -0.0653 0.016 0.0083, -0.0653 0.016 0.0079, -0.0653 0.016 0.0083, -0.061 0.0189 0.0079, -0.061 0.0189 0.0083, -0.0564 0.0205 0.0079, -0.0564 0.0205 0.0083, -0.0551 -0.0178 0.0079, -0.0551 -0.0178 0.0083, -0.0597 -0.0165 0.0079, -0.0597 -0.0165 0.0083, -0.0638 -0.0141 0.0079, -0.0638 -0.0141 0.0083, -0.067 -0.011 0.0079, -0.067 -0.011 0.0083, -0.0693 -0.0074 0.0079, -0.0693 -0.0074 0.0083, -0.0707 -0.0033 0.0079, -0.0707 -0.0033 0.0083, -0.0633 0.0113 0.0083, -0.0614 0.0133 0.0083, -0.0586 0.0152 0.0083, -0.0553 0.0163 0.0083, -0.0507 0.0168 0.0083, -0.0448 0.0168 0.0083, -0.0448 -0.0139 0.0083, -0.0504 -0.0139 0.0083, -0.0546 -0.0135 0.0083, -0.0579 -0.0125 0.0083, -0.0606 -0.0109 0.0083, -0.0628 -0.0087 0.0083, -0.0645 -0.006 0.0083, -0.0656 -0.0023 0.0083, -0.066 0.0018 0.0083, -0.0656 0.0058 0.0083, -0.0647 0.0089 0.0083, -0.0507 0.0168 0.0079, -0.0448 0.0168 0.0079, -0.0553 0.0163 0.0079, -0.0586 0.0152 0.0079, -0.0614 0.0133 0.0079, -0.0633 0.0113 0.0079, -0.0647 0.0089 0.0079, -0.0656 0.0058 0.0079, -0.066 0.0018 0.0079, -0.0656 -0.0023 0.0079, -0.0645 -0.006 0.0079, -0.0628 -0.0087 0.0079, -0.0606 -0.0109 0.0079, -0.0579 -0.0125 0.0079, -0.0546 -0.0135 0.0079, -0.0504 -0.0139 0.0079, -0.0448 -0.0139 0.0079, -0.0319 -0.0139 0.0083, -0.0319 -0.0182 0.0083, -0.0319 -0.0139 0.0079, -0.0319 -0.0182 0.0079, -0.0108 -0.0182 0.0083, -0.0108 -0.0182 0.0079, -0.0108 0.0211 0.0083, -0.0108 0.0211 0.0079, -0.0309 0.0211 0.0083, -0.0309 0.0211 0.0079, -0.0309 0.0168 0.0083, -0.0309 0.0168 0.0079, -0.016 0.0168 0.0083, -0.016 0.0168 0.0079, -0.016 0.0039 0.0083, -0.016 0.0039 0.0079, -0.03 0.0039 0.0083, -0.03 0.0039 0.0079, -0.03 -0.0005 0.0083, -0.03 -0.0005 0.0079, -0.016 -0.0005 0.0083, -0.016 -0.0005 0.0079, -0.016 -0.0139 0.0083, -0.016 -0.0139 0.0079, -0.0031 -0.0119 0.0083, -0.0031 -0.0162 0.0083, -0.0031 -0.0119 0.0079, -0.0031 -0.0162 0.0079, 0.0078 -0.0187 0.0083, 0.0078 -0.0187 0.0079, 0.0067 -0.0187 0.0079, 0.0067 -0.0187 0.0083, 0.0011 -0.0179 0.0079, 0.0011 -0.0179 0.0083, 0.0262 0.0007 0.0083, 0.0262 0.0007 0.0079, 0.0258 -0.0038 0.0079, 0.0258 -0.0038 0.0083, 0.0246 -0.008 0.0079, 0.0246 -0.008 0.0083, 0.0226 -0.0118 0.0079, 0.0226 -0.0118 0.0083, 0.0196 -0.0149 0.0079, 0.0196 -0.0149 0.0083, 0.0164 -0.0169 0.0079, 0.0164 -0.0169 0.0083, 0.0126 -0.0182 0.0079, 0.0126 -0.0182 0.0083, 0.0062 0.0216 0.0083, 0.0062 0.0216 0.0079, 0.0101 0.0213 0.0083, 0.0091 0.0214 0.0079, 0.0101 0.0213 0.0079, 0.0145 0.02 0.0079, 0.0145 0.02 0.0083, 0.0183 0.0179 0.0079, 0.0183 0.0179 0.0083, 0.0218 0.0145 0.0079, 0.0218 0.0145 0.0083, 0.0241 0.0108 0.0079, 0.0241 0.0108 0.0083, 0.0256 0.0063 0.0079, 0.0256 0.0063 0.0083, 0.0027 0.0214 0.0079, 0.0015 0.0213 0.0083, 0.0015 0.0213 0.0079, -0.0031 0.0201 0.0083, -0.0031 0.0201 0.0079, -0.0031 0.0148 0.0083, -0.0031 0.0148 0.0079, 0.0061 0.0173 0.0083, 0.0061 0.0173 0.0079, 0.0014 0.0167 0.0079, 0.0014 0.0167 0.0083, 0.0209 0.001 0.0083, 0.0209 0.001 0.0079, 0.0207 0.0041 0.0079, 0.0207 0.0041 0.0083, 0.0197 0.0083 0.0079, 0.0197 0.0083 0.0083, 0.0181 0.0114 0.0079, 0.0181 0.0114 0.0083, 0.0157 0.014 0.0079, 0.0157 0.014 0.0083, 0.013 0.0158 0.0079, 0.013 0.0158 0.0083, 0.01 0.0169 0.0079, 0.01 0.0169 0.0083, 0.007 -0.0144 0.0083, 0.007 -0.0144 0.0079, 0.0107 -0.014 0.0079, 0.0107 -0.014 0.0083, 0.0136 -0.0129 0.0079, 0.0136 -0.0129 0.0083, 0.016 -0.0113 0.0079, 0.016 -0.0113 0.0083, 0.0178 -0.0093 0.0079, 0.0178 -0.0093 0.0083, 0.0195 -0.0066 0.0079, 0.0195 -0.0066 0.0083, 0.0205 -0.0032 0.0079, 0.0205 -0.0032 0.0083, -0.0024 -0.0123 0.0079, -0.0024 -0.0123 0.0083, 0.0018 -0.0138 0.0079, 0.0018 -0.0138 0.0083, 0.0296 -0.0139 0.0083, 0.0296 -0.0182 0.0083, 0.0296 -0.0139 0.0079, 0.0296 -0.0182 0.0079, 0.0497 -0.0182 0.0083, 0.0497 -0.0182 0.0079, 0.0497 0.0211 0.0083, 0.0497 0.0211 0.0079, 0.0445 0.0211 0.0083, 0.0445 0.0211 0.0079, 0.0445 -0.0139 0.0083, 0.0445 -0.0139 0.0079
            ]
        }
        coordIndex [
            0,1,2,-1,2,1,3,-1,1,4,3,-1,3,4,5,-1,4,6,5,-1,5,6,7,-1,6,8,7,-1,7,8,9,-1,8,10,9,-1,9,10,11,-1,10,12,11,-1,11,12,13,-1,12,14,13,-1,13,14,15,-1,14,0,15,-1,15,0,2,-1,16,8,17,-1,17,8,6,-1,18,14,16,-1,16,14,12,-1,16,12,8,-1,8,12,10,-1,18,19,14,-1,14,19,20,-1,14,20,0,-1,0,20,21,-1,0,21,22,-1,22,23,0,-1,0,23,17,-1,0,17,1,-1,1,17,6,-1,1,6,4,-1,16,17,24,-1,24,17,25,-1,18,16,26,-1,26,16,24,-1,18,26,27,-1,18,27,19,-1,19,27,28,-1,19,28,20,-1,21,20,29,-1,29,20,28,-1,21,29,30,-1,21,30,22,-1,22,30,31,-1,22,31,23,-1,17,23,25,-1,25,23,31,-1,32,33,34,-1,34,33,35,-1,33,36,35,-1,35,36,37,-1,36,38,37,-1,37,38,39,-1,40,41,42,-1,40,42,43,-1,43,42,44,-1,43,44,45,-1,45,44,46,-1,45,46,47,-1,47,46,48,-1,47,48,49,-1,49,48,50,-1,49,50,51,-1,51,50,52,-1,51,52,53,-1,53,52,54,-1,53,54,55,-1,55,54,39,-1,55,39,38,-1,32,34,56,-1,32,56,57,-1,57,56,58,-1,57,58,59,-1,59,58,60,-1,59,60,61,-1,61,60,62,-1,61,62,63,-1,63,62,64,-1,63,64,65,-1,65,64,66,-1,65,66,67,-1,67,66,41,-1,67,41,40,-1,45,47,68,-1,68,47,49,-1,68,49,69,-1,69,49,51,-1,69,51,70,-1,70,51,53,-1,70,53,71,-1,71,53,55,-1,71,55,72,-1,72,55,38,-1,72,38,73,-1,73,38,36,-1,73,36,74,-1,74,36,33,-1,74,33,75,-1,75,33,32,-1,75,32,76,-1,76,32,57,-1,76,57,77,-1,77,57,59,-1,77,59,78,-1,78,59,61,-1,78,61,79,-1,79,61,63,-1,79,63,80,-1,80,63,65,-1,80,65,81,-1,81,65,67,-1,81,67,82,-1,82,67,40,-1,82,40,83,-1,83,40,43,-1,83,43,84,-1,84,43,45,-1,84,45,68,-1,72,73,85,-1,85,73,86,-1,72,85,87,-1,72,87,71,-1,71,87,88,-1,71,88,70,-1,70,88,89,-1,70,89,69,-1,69,89,90,-1,69,90,68,-1,68,90,91,-1,68,91,84,-1,84,91,92,-1,84,92,83,-1,83,92,93,-1,83,93,82,-1,82,93,94,-1,82,94,81,-1,81,94,95,-1,81,95,80,-1,80,95,96,-1,80,96,79,-1,79,96,97,-1,79,97,78,-1,78,97,98,-1,78,98,77,-1,77,98,99,-1,77,99,76,-1,76,99,100,-1,76,100,75,-1,74,75,101,-1,101,75,100,-1,73,74,86,-1,86,74,101,-1,102,103,104,-1,104,103,105,-1,103,106,105,-1,105,106,107,-1,106,108,107,-1,107,108,109,-1,108,110,109,-1,109,110,111,-1,110,112,111,-1,111,112,113,-1,112,114,113,-1,113,114,115,-1,114,116,115,-1,115,116,117,-1,116,118,117,-1,117,118,119,-1,118,120,119,-1,119,120,121,-1,120,122,121,-1,121,122,123,-1,122,124,123,-1,123,124,125,-1,124,102,125,-1,125,102,104,-1,106,103,102,-1,102,124,106,-1,106,124,122,-1,106,122,108,-1,112,110,114,-1,114,110,108,-1,114,108,116,-1,116,108,122,-1,116,122,118,-1,118,122,120,-1,126,127,128,-1,128,127,129,-1,130,131,132,-1,130,132,133,-1,133,132,134,-1,133,134,135,-1,135,134,129,-1,135,129,127,-1,136,137,138,-1,136,138,139,-1,139,138,140,-1,139,140,141,-1,141,140,142,-1,141,142,143,-1,143,142,144,-1,143,144,145,-1,145,144,146,-1,145,146,147,-1,147,146,148,-1,147,148,149,-1,149,148,131,-1,149,131,130,-1,150,151,152,-1,152,151,153,-1,153,154,152,-1,152,154,155,-1,152,155,156,-1,156,155,157,-1,156,157,158,-1,158,157,159,-1,158,159,160,-1,160,159,161,-1,160,161,162,-1,162,161,163,-1,162,163,164,-1,164,163,137,-1,164,137,136,-1,151,150,165,-1,165,150,166,-1,165,166,167,-1,167,166,168,-1,167,168,169,-1,168,170,169,-1,169,170,171,-1,172,173,174,-1,172,174,175,-1,175,174,171,-1,175,171,170,-1,176,177,178,-1,176,178,179,-1,179,178,180,-1,179,180,181,-1,181,180,182,-1,181,182,183,-1,183,182,184,-1,183,184,185,-1,185,184,186,-1,185,186,187,-1,187,186,188,-1,187,188,189,-1,189,188,173,-1,189,173,172,-1,190,191,192,-1,190,192,193,-1,193,192,194,-1,193,194,195,-1,195,194,196,-1,195,196,197,-1,197,196,198,-1,197,198,199,-1,199,198,200,-1,199,200,201,-1,201,200,202,-1,201,202,203,-1,203,202,177,-1,203,177,176,-1,126,128,204,-1,126,204,205,-1,205,204,206,-1,205,206,207,-1,207,206,191,-1,207,191,190,-1,193,130,190,-1,190,130,133,-1,190,133,207,-1,207,133,135,-1,207,135,205,-1,205,135,127,-1,205,127,126,-1,170,168,175,-1,175,168,166,-1,175,166,172,-1,172,166,150,-1,172,150,189,-1,189,150,152,-1,189,152,187,-1,187,152,156,-1,187,156,185,-1,185,156,158,-1,185,158,183,-1,183,158,160,-1,183,160,181,-1,181,160,162,-1,181,162,179,-1,179,162,164,-1,179,164,176,-1,176,164,136,-1,176,136,203,-1,203,136,139,-1,203,139,201,-1,201,139,141,-1,201,141,199,-1,199,141,143,-1,199,143,197,-1,197,143,145,-1,197,145,195,-1,195,145,147,-1,195,147,193,-1,193,147,149,-1,193,149,130,-1,208,209,210,-1,210,209,211,-1,209,212,211,-1,211,212,213,-1,212,214,213,-1,213,214,215,-1,214,216,215,-1,215,216,217,-1,216,218,217,-1,217,218,219,-1,218,208,219,-1,219,208,210,-1,216,214,218,-1,218,214,212,-1,218,212,208,-1,208,212,209,-1,
        ]
    }
}
Shape{
    appearance Appearance {
        material  Material 	{
            diffuseColor 0.25098039215686274 0.25098039215686274 0.25098039215686274
            specularColor 0.12549019607843137 0.12549019607843137 0.12549019607843137
            ambientIntensity 0.251
            transparency 0.0
            shininess 0.5
        }
    }
    geometry IndexedFaceSet {
        ccw TRUE
        solid FALSE
        coord DEF co Coordinate {
            point [
                -0.085 -0.0029 0.0079, -0.0981 -0.0029 0.0079, -0.0909 0.0136 0.0079, -0.0922 0.0136 0.0079, -0.0912 0.0149 0.0079, -0.0919 0.0149 0.0079, -0.0915 0.0163 0.0079, -0.0916 0.0163 0.0079, -0.0448 0.0168 0.0079, -0.0448 -0.0139 0.0079, -0.0507 0.0168 0.0079, -0.0504 -0.0139 0.0079, -0.0546 -0.0135 0.0079, -0.066 0.0018 0.0079, -0.0656 0.0058 0.0079, -0.0647 0.0089 0.0079, -0.0553 0.0163 0.0079, -0.0579 -0.0125 0.0079, -0.0606 -0.0109 0.0079, -0.0628 -0.0087 0.0079, -0.0645 -0.006 0.0079, -0.0656 -0.0023 0.0079, -0.0633 0.0113 0.0079, -0.0614 0.0133 0.0079, -0.0586 0.0152 0.0079
            ]
        }
        coordIndex [
            0,1,2,-1,2,1,3,-1,2,3,4,-1,4,3,5,-1,4,5,6,-1,6,5,7,-1,8,9,10,-1,10,9,11,-1,10,11,12,-1,13,14,10,-1,10,14,15,-1,10,15,16,-1,12,17,10,-1,10,17,18,-1,10,18,19,-1,19,20,10,-1,10,20,21,-1,10,21,13,-1,22,23,15,-1,15,23,24,-1,15,24,16,-1,
        ]
    }
}