#VRML V2.0 utf8
# 3D model generated by easyeda2kicad.py (https://github.com/uPesy/easyeda2kicad.py)

Shape{
    appearance Appearance {
        material  Material 	{
            diffuseColor 0.25098039215686274 0.25098039215686274 0.25098039215686274
            specularColor 0.12549019607843137 0.12549019607843137 0.12549019607843137
            ambientIntensity 0.251
            transparency 0.0
            shininess 0.5
        }
    }
    geometry IndexedFaceSet {
        ccw TRUE
        solid FALSE
        coord DEF co Coordinate {
            point [
                -0.1664 -0.0935 0.1614, -0.1664 -0.1053 0.1614, -0.161 -0.1053 0.1614, 0.259 -0.1969 0.1614, 0.2756 -0.1969 0.1614, 0.2756 -0.1334 0.1614, 0.0403 -0.1969 0.1614, 0.259 -0.1334 0.1614, -0.1453 -0.1281 0.1614, -0.1458 -0.1281 0.1614, -0.1425 -0.1281 0.1614, -0.2395 -0.1119 0.1614, -0.2393 -0.1109 0.1614, -0.2756 -0.1109 0.1614, -0.1978 -0.092 0.1614, -0.1957 -0.0934 0.1614, -0.1735 -0.0934 0.1614, -0.1851 -0.1039 0.1614, -0.1825 -0.1061 0.1614, -0.1735 -0.107 0.1614, -0.1935 -0.0949 0.1614, -0.1931 -0.0953 0.1614, -0.1901 -0.0989 0.1614, -0.1884 -0.1024 0.1614, -0.1879 -0.1025 0.1614, -0.2149 -0.0919 0.1614, -0.2104 -0.0904 0.1614, -0.2756 0.0076 0.1614, -0.1735 0.0076 0.1614, -0.2064 -0.0899 0.1614, -0.2025 -0.0903 0.1614, -0.2174 -0.0934 0.1614, -0.2756 -0.0934 0.1614, -0.2178 -0.0936 0.1614, -0.2351 -0.1022 0.1614, -0.2343 -0.1015 0.1614, -0.2313 -0.0994 0.1614, -0.2277 -0.098 0.1614, -0.2242 -0.0976 0.1614, -0.22 -0.0955 0.1614, -0.2231 -0.0977 0.1614, -0.222 -0.0978 0.1614, -0.2756 -0.107 0.1614, -0.2388 -0.1084 0.1614, -0.2382 -0.107 0.1614, -0.2373 -0.105 0.1614, -0.2328 -0.1257 0.1614, -0.2356 -0.1233 0.1614, -0.2756 -0.1281 0.1614, -0.2294 -0.1275 0.1614, -0.2378 -0.1201 0.1614, -0.2391 -0.1166 0.1614, -0.2395 -0.113 0.1614, -0.228 -0.1279 0.1614, -0.2278 -0.1281 0.1614, -0.227 -0.1299 0.1614, -0.2756 -0.1334 0.1614, -0.2256 -0.1317 0.1614, -0.2237 -0.1331 0.1614, -0.1735 -0.1969 0.1614, -0.1735 -0.1334 0.1614, -0.215 -0.1334 0.1614, -0.2756 -0.1969 0.1614, -0.2216 -0.134 0.1614, -0.2229 -0.1334 0.1614, -0.2167 -0.1341 0.1614, -0.219 -0.1343 0.1614, -0.2193 -0.1343 0.1614, -0.1735 -0.1281 0.1614, -0.2101 -0.1281 0.1614, -0.2101 -0.1282 0.1614, -0.2112 -0.1303 0.1614, -0.2127 -0.1319 0.1614, -0.2145 -0.1332 0.1614, -0.1794 -0.1117 0.1614, -0.179 -0.1148 0.1614, -0.1735 -0.1109 0.1614, -0.1979 -0.1225 0.1614, -0.1973 -0.1223 0.1614, -0.1962 -0.1169 0.1614, -0.1825 -0.1238 0.1614, -0.1851 -0.126 0.1614, -0.2118 -0.1185 0.1614, -0.1991 -0.1119 0.1614, -0.2135 -0.117 0.1614, -0.2155 -0.1159 0.1614, -0.1985 -0.123 0.1614, -0.1806 -0.1212 0.1614, -0.1849 -0.1141 0.1614, -0.1854 -0.1122 0.1614, -0.1861 -0.1109 0.1614, -0.2333 -0.1109 0.1614, -0.1794 -0.1182 0.1614, -0.1966 -0.1222 0.1614, -0.1965 -0.1222 0.1614, -0.1962 -0.1223 0.1614, -0.2328 -0.1166 0.1614, -0.2316 -0.1185 0.1614, -0.2268 -0.1195 0.1614, -0.2299 -0.1203 0.1614, -0.2279 -0.1215 0.1614, -0.2233 -0.1164 0.1614, -0.2253 -0.1177 0.1614, -0.2336 -0.1128 0.1614, -0.2335 -0.1143 0.1614, -0.2212 -0.1156 0.1614, -0.219 -0.1153 0.1614, -0.2178 -0.1153 0.1614, -0.1995 -0.1251 0.1614, -0.1995 -0.1248 0.1614, -0.2095 -0.1239 0.1614, -0.1993 -0.124 0.1614, -0.1989 -0.1234 0.1614, -0.1868 -0.1199 0.1614, -0.1858 -0.1184 0.1614, -0.1851 -0.1167 0.1614, -0.1849 -0.1149 0.1614, -0.1973 -0.128 0.1614, -0.1979 -0.1277 0.1614, -0.1985 -0.1273 0.1614, -0.1987 -0.1271 0.1614, -0.1992 -0.1265 0.1614, -0.1994 -0.1258 0.1614, -0.2095 -0.1258 0.1614, -0.2095 -0.1249 0.1614, -0.188 -0.1274 0.1614, -0.1912 -0.1281 0.1614, -0.1967 -0.1281 0.1614, -0.196 -0.1223 0.1614, -0.1917 -0.1223 0.1614, -0.19 -0.122 0.1614, -0.1883 -0.1212 0.1614, -0.1869 -0.12 0.1614, -0.193 -0.1075 0.1614, -0.2325 -0.1084 0.1614, -0.2333 -0.1105 0.1614, -0.1923 -0.1075 0.1614, -0.1863 -0.1106 0.1614, -0.1874 -0.1094 0.1614, -0.1888 -0.1084 0.1614, -0.1905 -0.1077 0.1614, -0.1951 -0.1018 0.1614, -0.1972 -0.0992 0.1614, -0.219 -0.1047 0.1614, -0.1975 -0.099 0.1614, -0.2001 -0.0972 0.1614, -0.2176 -0.1017 0.1614, -0.2315 -0.107 0.1614, -0.2197 -0.1044 0.1614, -0.1932 -0.107 0.1614, -0.1936 -0.1049 0.1614, -0.2219 -0.1036 0.1614, -0.2241 -0.1033 0.1614, -0.2251 -0.1034 0.1614, -0.2155 -0.0992 0.1614, -0.2031 -0.096 0.1614, -0.2129 -0.0973 0.1614, -0.2063 -0.0956 0.1614, -0.2098 -0.0961 0.1614, -0.2274 -0.1039 0.1614, -0.2295 -0.105 0.1614, -0.2312 -0.1065 0.1614, -0.1819 -0.107 0.1614, -0.1806 -0.1088 0.1614, -0.1798 -0.1109 0.1614, -0.1156 -0.1149 0.1614, -0.114 -0.1155 0.1614, -0.1125 -0.1109 0.1614, -0.1125 -0.1281 0.1614, -0.1126 -0.1262 0.1614, -0.114 -0.1272 0.1614, -0.1155 -0.1278 0.1614, -0.1178 -0.128 0.1614, -0.1227 -0.1281 0.1614, -0.1214 -0.128 0.1614, -0.1227 -0.1109 0.1614, -0.1214 -0.1147 0.1614, -0.1176 -0.1147 0.1614, -0.1079 -0.128 0.1614, -0.1098 -0.128 0.1614, -0.1011 -0.1244 0.1614, -0.1066 -0.1244 0.1614, -0.1047 -0.1147 0.1614, -0.1029 -0.1147 0.1614, -0.1113 -0.1181 0.1614, -0.1108 -0.1193 0.1614, -0.1116 -0.125 0.1614, -0.1125 -0.1261 0.1614, -0.1126 -0.1165 0.1614, -0.1125 -0.1165 0.1614, -0.1121 -0.1169 0.1614, -0.1106 -0.1212 0.1614, -0.1106 -0.122 0.1614, -0.1109 -0.1236 0.1614, -0.1242 -0.1147 0.1614, -0.1269 -0.1147 0.1614, -0.1269 -0.1109 0.1614, -0.1311 -0.1147 0.1614, -0.1294 -0.122 0.1614, -0.1294 -0.1265 0.1614, -0.1269 -0.122 0.1614, -0.1269 -0.1265 0.1614, -0.1246 -0.122 0.1614, -0.1239 -0.1265 0.1614, -0.1246 -0.1205 0.1614, -0.1242 -0.1162 0.1614, -0.1269 -0.1205 0.1614, -0.1269 -0.1162 0.1614, -0.1294 -0.1205 0.1614, -0.1294 -0.1162 0.1614, -0.1239 -0.128 0.1614, -0.1269 -0.1281 0.1614, -0.1269 -0.128 0.1614, -0.1311 -0.128 0.1614, -0.1377 -0.1257 0.1614, -0.1375 -0.1265 0.1614, -0.1375 -0.1265 0.1614, -0.1329 -0.1185 0.1614, -0.1394 -0.1109 0.1614, -0.1347 -0.1185 0.1614, -0.1394 -0.1208 0.1614, -0.1373 -0.1257 0.1614, -0.1374 -0.1261 0.1614, -0.1494 -0.1211 0.1614, -0.1493 -0.1205 0.1614, -0.1511 -0.1109 0.1614, -0.1491 -0.1222 0.1614, -0.1493 -0.1217 0.1614, -0.1494 -0.126 0.1614, -0.1486 -0.1264 0.1614, -0.1486 -0.1264 0.1614, -0.1486 -0.1229 0.1614, -0.1489 -0.1226 0.1614, -0.1486 -0.1229 0.1614, -0.1479 -0.1281 0.1614, -0.1482 -0.1281 0.1614, -0.1486 -0.1281 0.1614, -0.1486 -0.128 0.1614, -0.1511 -0.1281 0.1614, -0.1494 -0.1277 0.1614, -0.1434 -0.1187 0.1614, -0.1434 -0.1203 0.1614, -0.1483 -0.119 0.1614, -0.1479 -0.1188 0.1614, -0.1486 -0.1109 0.1614, -0.1491 -0.1199 0.1614, -0.1488 -0.1195 0.1614, -0.1486 -0.1193 0.1614, -0.143 -0.1261 0.1614, -0.1432 -0.1266 0.1614, -0.1435 -0.1271 0.1614, -0.147 -0.1184 0.1614, -0.1457 -0.1183 0.1614, -0.1425 -0.1109 0.1614, -0.1445 -0.1184 0.1614, -0.1435 -0.1239 0.1614, -0.1432 -0.1243 0.1614, -0.143 -0.1248 0.1614, -0.1429 -0.1254 0.1614, -0.144 -0.1275 0.1614, -0.1444 -0.1277 0.1614, -0.1458 -0.1196 0.1614, -0.1463 -0.1197 0.1614, -0.1476 -0.1209 0.1614, -0.1468 -0.1198 0.1614, -0.1471 -0.12 0.1614, -0.1476 -0.1211 0.1614, -0.1476 -0.1214 0.1614, -0.1474 -0.1216 0.1614, -0.1473 -0.1218 0.1614, -0.1467 -0.1222 0.1614, -0.1448 -0.1197 0.1614, -0.1457 -0.1226 0.1614, -0.1439 -0.1201 0.1614, -0.145 -0.1229 0.1614, -0.1439 -0.1235 0.1614, -0.1474 -0.1202 0.1614, -0.1475 -0.1204 0.1614, -0.1476 -0.1207 0.1614, -0.1476 -0.1268 0.1614, -0.1468 -0.1238 0.1614, -0.1478 -0.1234 0.1614, -0.1466 -0.1269 0.1614, -0.1466 -0.1269 0.1614, -0.1457 -0.1243 0.1614, -0.1457 -0.1268 0.1614, -0.1447 -0.1256 0.1614, -0.1447 -0.1254 0.1614, -0.1453 -0.1266 0.1614, -0.1451 -0.1265 0.1614, -0.1449 -0.1264 0.1614, -0.1448 -0.1262 0.1614, -0.1447 -0.1259 0.1614, -0.1447 -0.1251 0.1614, -0.1449 -0.1249 0.1614, -0.1451 -0.1247 0.1614, -0.1125 -0.107 0.1614, -0.1145 -0.1069 0.1614, -0.1164 -0.1069 0.1614, -0.1178 -0.1032 0.1614, -0.1227 -0.1032 0.1614, -0.1227 -0.107 0.1614, -0.1196 -0.0935 0.1614, -0.1125 -0.0934 0.1614, -0.1227 -0.0934 0.1614, -0.1233 -0.1032 0.1614, -0.1246 -0.1069 0.1614, -0.1269 -0.107 0.1614, -0.1265 -0.1069 0.1614, -0.1269 -0.0934 0.1614, -0.1227 -0.0968 0.1614, -0.1214 -0.0935 0.1614, -0.1394 -0.0934 0.1614, -0.1425 -0.0934 0.1614, -0.141 -0.0935 0.1614, -0.1425 -0.0935 0.1614, -0.1461 -0.1009 0.1614, -0.1461 -0.1053 0.1614, -0.1425 -0.1009 0.1614, -0.1425 -0.1053 0.1614, -0.1413 -0.1009 0.1614, -0.1407 -0.1053 0.1614, -0.1413 -0.0993 0.1614, -0.141 -0.0951 0.1614, -0.1425 -0.0993 0.1614, -0.1425 -0.0951 0.1614, -0.1461 -0.0993 0.1614, -0.1461 -0.0951 0.1614, -0.1478 -0.1069 0.1614, -0.1486 -0.107 0.1614, -0.1425 -0.107 0.1614, -0.1394 -0.107 0.1614, -0.1407 -0.1069 0.1614, -0.1425 -0.1069 0.1614, -0.1478 -0.0935 0.1614, -0.1486 -0.0934 0.1614, -0.152 -0.095 0.1614, -0.1536 -0.0948 0.1614, -0.1511 -0.1049 0.1614, -0.1505 -0.0956 0.1614, -0.1505 -0.1047 0.1614, -0.1507 -0.0956 0.1614, -0.1511 -0.0954 0.1614, -0.1544 -0.0949 0.1614, -0.1555 -0.0951 0.1614, -0.1565 -0.0957 0.1614, -0.1573 -0.0963 0.1614, -0.1574 -0.0964 0.1614, -0.158 -0.0973 0.1614, -0.1585 -0.0985 0.1614, -0.1587 -0.1003 0.1614, -0.1587 -0.101 0.1614, -0.1584 -0.1023 0.1614, -0.1533 -0.1055 0.1614, -0.1518 -0.1052 0.1614, -0.1562 -0.105 0.1614, -0.1553 -0.1054 0.1614, -0.1539 -0.1056 0.1614, -0.158 -0.1034 0.1614, -0.1574 -0.1041 0.1614, -0.1571 -0.1044 0.1614, -0.1522 -0.0934 0.1614, -0.1519 -0.0934 0.1614, -0.1511 -0.0934 0.1614, -0.1511 -0.0937 0.1614, -0.1505 -0.0938 0.1614, -0.1599 -0.0934 0.1614, -0.1595 -0.0965 0.1614, -0.1586 -0.0953 0.1614, -0.1582 -0.0949 0.1614, -0.157 -0.0941 0.1614, -0.1556 -0.0935 0.1614, -0.1607 -0.0934 0.1614, -0.1602 -0.098 0.1614, -0.1599 -0.0974 0.1614, -0.1599 -0.1035 0.1614, -0.1602 -0.1026 0.1614, -0.1607 -0.107 0.1614, -0.1605 -0.1004 0.1614, -0.1605 -0.0997 0.1614, -0.1564 -0.1068 0.1614, -0.1577 -0.1062 0.1614, -0.1599 -0.107 0.1614, -0.1588 -0.1053 0.1614, -0.1597 -0.104 0.1614, -0.1554 -0.107 0.1614, -0.1599 -0.1109 0.1614, -0.155 -0.1071 0.1614, -0.1542 -0.1071 0.1614, -0.153 -0.107 0.1614, -0.1505 -0.1063 0.1614, -0.1507 -0.1064 0.1614, -0.1511 -0.107 0.1614, -0.1511 -0.1065 0.1614, -0.1522 -0.1069 0.1614, -0.1587 -0.1236 0.1614, -0.1584 -0.1208 0.1614, -0.159 -0.1241 0.1614, -0.1592 -0.1247 0.1614, -0.1516 -0.128 0.1614, -0.1533 -0.128 0.1614, -0.1547 -0.1197 0.1614, -0.1552 -0.1196 0.1614, -0.1561 -0.1224 0.1614, -0.1518 -0.1205 0.1614, -0.1516 -0.1219 0.1614, -0.1582 -0.1231 0.1614, -0.1575 -0.1227 0.1614, -0.1572 -0.1201 0.1614, -0.1562 -0.1197 0.1614, -0.1584 -0.1192 0.1614, -0.1593 -0.1255 0.1614, -0.1599 -0.1281 0.1614, -0.1592 -0.1263 0.1614, -0.1533 -0.1266 0.1614, -0.1534 -0.1266 0.1614, -0.1537 -0.127 0.1614, -0.1542 -0.1276 0.1614, -0.1585 -0.1275 0.1614, -0.1586 -0.1274 0.1614, -0.159 -0.1269 0.1614, -0.1539 -0.1184 0.1614, -0.1533 -0.1186 0.1614, -0.1527 -0.119 0.1614, -0.1533 -0.122 0.1614, -0.1534 -0.1212 0.1614, -0.1535 -0.1206 0.1614, -0.1537 -0.1203 0.1614, -0.1524 -0.1193 0.1614, -0.1521 -0.1198 0.1614, -0.158 -0.119 0.1614, -0.1568 -0.1185 0.1614, -0.1551 -0.1183 0.1614, -0.154 -0.12 0.1614, -0.1543 -0.1198 0.1614, -0.1554 -0.1281 0.1614, -0.1554 -0.1282 0.1614, -0.1511 -0.1334 0.1614, -0.1599 -0.1334 0.1614, -0.1563 -0.1283 0.1614, -0.1573 -0.1281 0.1614, -0.1579 -0.1279 0.1614, -0.1394 -0.1281 0.1614, -0.1394 -0.1253 0.1614, -0.1421 -0.1185 0.1614, -0.1402 -0.1185 0.1614, -0.1383 -0.128 0.1614, -0.1384 -0.1281 0.1614, -0.1391 -0.1297 0.1614, -0.1425 -0.1334 0.1614, -0.1417 -0.1324 0.1614, -0.1417 -0.1309 0.1614, -0.1397 -0.1307 0.1614, -0.1394 -0.1304 0.1614, -0.1394 -0.1303 0.1614, -0.1468 -0.1283 0.1614, -0.1486 -0.1334 0.1614, -0.1414 -0.131 0.1614, -0.1408 -0.1311 0.1614, -0.1394 -0.1322 0.1614, -0.14 -0.1324 0.1614, -0.1394 -0.1334 0.1614, -0.1406 -0.1325 0.1614, -0.141 -0.1325 0.1614, -0.1403 -0.131 0.1614, -0.14 -0.1309 0.1614, -0.1372 -0.1295 0.1614, -0.138 -0.1309 0.1614, -0.1269 -0.1334 0.1614, -0.1367 -0.1281 0.1614, -0.1386 -0.1317 0.1614, -0.1387 -0.1318 0.1614, -0.1393 -0.1322 0.1614, 0.0403 -0.1334 0.1614, -0.1125 -0.1969 0.1614, -0.1125 -0.1334 0.1614, -0.1227 -0.1969 0.1614, -0.1227 -0.1334 0.1614, -0.1269 -0.1969 0.1614, -0.1394 -0.1969 0.1614, -0.1425 -0.1969 0.1614, -0.1486 -0.1969 0.1614, -0.1511 -0.1969 0.1614, -0.1599 -0.1969 0.1614, -0.1547 -0.1279 0.1614, 0.0403 -0.1281 0.1614, -0.1681 -0.1147 0.1614, -0.1681 -0.128 0.1614, -0.1607 -0.1281 0.1614, -0.1607 -0.1334 0.1614, -0.1607 -0.1969 0.1614, -0.1612 -0.1147 0.1614, -0.1607 -0.1109 0.1614, -0.1612 -0.1162 0.1614, -0.1609 -0.1265 0.1614, -0.1609 -0.128 0.1614, -0.1664 -0.122 0.1614, -0.1664 -0.1265 0.1614, -0.1616 -0.122 0.1614, -0.1616 -0.1205 0.1614, -0.1664 -0.1205 0.1614, -0.1664 -0.1162 0.1614, -0.1681 -0.1069 0.1614, -0.1681 -0.0935 0.1614, -0.161 -0.1069 0.1614, -0.1343 -0.0935 0.1614, -0.1323 -0.0937 0.1614, -0.1307 -0.0943 0.1614, -0.128 -0.0969 0.1614, -0.1275 -0.0982 0.1614, -0.1273 -0.1 0.1614, -0.1273 -0.1009 0.1614, -0.1276 -0.1024 0.1614, -0.1283 -0.1038 0.1614, -0.1293 -0.105 0.1614, -0.1307 -0.106 0.1614, -0.1322 -0.1066 0.1614, -0.1345 -0.1069 0.1614, -0.1381 -0.1069 0.1614, -0.1381 -0.0935 0.1614, -0.1293 -0.0953 0.1614, -0.1288 -0.0957 0.1614, -0.0997 -0.128 0.1614, -0.0978 -0.128 0.1614, 0.0403 -0.1109 0.1614, 0.0403 -0.107 0.1614, 0.0403 -0.0934 0.1614, -0.1546 -0.0934 0.1614, -0.1599 0.0076 0.1614, -0.1607 0.0076 0.1614, 0.0403 0.0076 0.1614, -0.1125 0.0076 0.1614, -0.1227 0.0076 0.1614, -0.1269 0.0076 0.1614, -0.1394 0.0076 0.1614, -0.1425 0.0076 0.1614, -0.1486 0.0076 0.1614, -0.1511 0.0076 0.1614, -0.1537 -0.0933 0.1614, 0.2187 0.168 0.1614, 0.2264 0.1648 0.1614, 0.259 0.1969 0.1614, 0.233 0.1597 0.1614, 0.2381 0.1531 0.1614, 0.2413 0.1454 0.1614, 0.2424 0.1371 0.1614, 0.259 0.0076 0.1614, 0.1794 0.1288 0.1614, 0.1784 0.1371 0.1614, 0.0403 0.1969 0.1614, 0.2413 0.1288 0.1614, 0.2381 0.1211 0.1614, 0.233 0.1144 0.1614, 0.2021 0.1061 0.1614, 0.1944 0.1093 0.1614, 0.1877 0.1144 0.1614, 0.1826 0.1211 0.1614, -0.1125 0.1969 0.1614, -0.1227 0.1969 0.1614, -0.1269 0.1969 0.1614, -0.1394 0.1969 0.1614, -0.1425 0.1969 0.1614, -0.1486 0.1969 0.1614, -0.1511 0.1969 0.1614, -0.1599 0.1969 0.1614, -0.1607 0.1969 0.1614, -0.1735 0.1969 0.1614, -0.2756 0.1969 0.1614, 0.2264 0.1093 0.1614, 0.2187 0.1061 0.1614, 0.2104 0.105 0.1614, 0.1794 0.1454 0.1614, 0.1826 0.1531 0.1614, 0.1877 0.1597 0.1614, 0.1944 0.1648 0.1614, 0.2021 0.168 0.1614, 0.2104 0.1691 0.1614, 0.259 -0.1281 0.1614, 0.259 -0.1109 0.1614, 0.259 -0.107 0.1614, 0.259 -0.0934 0.1614, 0.2756 -0.1281 0.1614, 0.2756 -0.1109 0.1614, 0.2756 -0.107 0.1614, 0.2756 -0.0934 0.1614, 0.2756 0.0076 0.1614, 0.2756 0.1969 0.1614, 0.1575 0.0492 0.0079, 0.1969 0.0492 0.0079, 0.2559 -0.0 0.0079, 0.2362 0.0886 0.0079, 0.2559 0.1083 0.0079, 0.2362 0.1083 0.0079, 0.2559 0.1969 0.0079, 0.2362 0.1673 0.0079, 0.0984 0.1969 0.0079, 0.1575 0.1673 0.0079, 0.0984 0.1083 0.0079, 0.1575 0.1083 0.0079, 0.0984 -0.0 0.0079, -0.0394 0.1673 0.0079, -0.0984 0.1969 0.0079, 0.0394 0.1673 0.0079, 0.0394 0.1083 0.0079, 0.0394 0.0492 0.0079, -0.0394 0.0492 0.0079, -0.0984 -0.0 0.0079, -0.0394 0.1083 0.0079, -0.0984 0.1083 0.0079, -0.1575 0.0492 0.0079, -0.2362 0.0492 0.0079, -0.2756 -0.0 0.0079, -0.2362 0.1083 0.0079, -0.2756 0.1083 0.0079, -0.2362 0.1673 0.0079, -0.2756 0.1969 0.0079, -0.1575 0.1673 0.0079, -0.1575 0.1083 0.0079, -0.2756 -0.1969 0.0079, -0.2756 -0.1821 0.0079, -0.0984 -0.1821 0.0079, -0.1575 -0.1673 0.0079, -0.1575 -0.0492 0.0079, -0.2362 -0.0492 0.0079, -0.2362 -0.1673 0.0079, -0.0394 -0.1673 0.0079, 0.0394 -0.1673 0.0079, -0.0394 -0.0492 0.0079, 0.0394 -0.0492 0.0079, 0.0984 -0.1821 0.0079, 0.2362 -0.1673 0.0079, 0.2559 -0.1821 0.0079, 0.1575 -0.1673 0.0079, 0.1575 -0.0492 0.0079, 0.2362 -0.0492 0.0079, -0.0984 -0.1969 0.0079, 0.0984 -0.1969 0.0079, 0.2559 -0.1969 0.0079, 0.2756 0.1969 0.0079, 0.2756 0.1083 0.0079, 0.2756 -0.0 0.0079, 0.2756 -0.1821 0.0079, 0.2756 -0.1969 0.0079
            ]
        }
        coordIndex [
            0,1,2,-1,3,4,5,-1,6,3,7,-1,8,9,10,-1,11,12,13,-1,14,15,16,-1,17,18,16,-1,16,18,19,-1,15,20,16,-1,16,20,21,-1,16,21,22,-1,22,23,16,-1,16,23,24,-1,16,24,17,-1,25,26,27,-1,27,26,28,-1,28,26,29,-1,28,29,30,-1,25,27,31,-1,31,27,32,-1,31,32,33,-1,32,34,35,-1,35,36,32,-1,32,36,37,-1,32,37,33,-1,33,37,38,-1,33,38,39,-1,39,38,40,-1,39,40,41,-1,13,12,42,-1,12,43,42,-1,42,43,44,-1,42,44,32,-1,32,44,45,-1,32,45,34,-1,46,47,48,-1,46,48,49,-1,47,50,48,-1,48,50,51,-1,48,51,13,-1,13,51,52,-1,13,52,11,-1,53,49,54,-1,54,49,48,-1,54,48,55,-1,55,48,56,-1,55,56,57,-1,57,56,58,-1,59,60,61,-1,62,63,56,-1,56,63,64,-1,56,64,58,-1,61,65,59,-1,59,65,66,-1,59,66,62,-1,62,66,67,-1,62,67,63,-1,68,69,60,-1,60,69,70,-1,60,70,71,-1,71,72,60,-1,60,72,73,-1,60,73,61,-1,74,75,76,-1,77,78,79,-1,80,81,68,-1,82,83,84,-1,84,83,85,-1,77,79,86,-1,80,68,87,-1,88,89,83,-1,83,89,90,-1,83,90,91,-1,76,75,68,-1,68,75,92,-1,68,92,87,-1,78,93,79,-1,79,93,94,-1,79,94,95,-1,96,97,98,-1,98,97,99,-1,98,99,100,-1,101,91,102,-1,102,91,103,-1,102,103,98,-1,98,103,104,-1,98,104,96,-1,101,105,91,-1,91,105,106,-1,91,106,83,-1,83,106,107,-1,83,107,85,-1,108,109,110,-1,110,109,111,-1,110,111,79,-1,79,111,112,-1,79,112,86,-1,113,114,79,-1,79,114,115,-1,79,115,83,-1,83,115,116,-1,83,116,88,-1,117,118,69,-1,69,118,119,-1,69,119,120,-1,120,121,69,-1,69,121,122,-1,69,122,123,-1,123,122,108,-1,123,108,124,-1,124,108,110,-1,81,125,68,-1,68,125,126,-1,68,126,69,-1,69,126,127,-1,69,127,117,-1,95,128,79,-1,79,128,129,-1,79,129,130,-1,130,131,79,-1,79,131,132,-1,79,132,113,-1,133,134,135,-1,135,91,133,-1,133,91,90,-1,133,90,136,-1,136,90,137,-1,137,138,136,-1,136,138,139,-1,136,139,140,-1,141,142,143,-1,142,144,143,-1,143,144,145,-1,143,145,146,-1,147,143,148,-1,134,133,147,-1,147,133,149,-1,147,149,143,-1,143,149,150,-1,143,150,141,-1,148,151,147,-1,147,151,152,-1,147,152,153,-1,146,145,154,-1,154,145,155,-1,154,155,156,-1,156,155,157,-1,156,157,158,-1,159,160,153,-1,153,160,161,-1,153,161,147,-1,18,162,19,-1,19,162,163,-1,19,163,76,-1,76,163,164,-1,76,164,74,-1,165,166,167,-1,168,169,170,-1,170,171,168,-1,168,171,172,-1,168,172,173,-1,173,172,174,-1,173,174,175,-1,175,174,176,-1,175,176,167,-1,167,176,177,-1,167,177,165,-1,178,179,168,-1,180,181,178,-1,167,182,183,-1,184,185,182,-1,179,186,168,-1,168,186,187,-1,168,187,169,-1,166,188,167,-1,167,188,189,-1,167,189,182,-1,182,189,190,-1,182,190,184,-1,185,191,182,-1,182,191,192,-1,182,192,179,-1,179,192,193,-1,179,193,186,-1,194,175,195,-1,195,175,196,-1,195,196,197,-1,198,199,200,-1,200,199,201,-1,200,201,202,-1,202,201,203,-1,202,203,204,-1,204,203,205,-1,204,205,206,-1,206,205,207,-1,206,207,208,-1,208,207,209,-1,194,205,175,-1,175,205,203,-1,175,203,173,-1,173,203,210,-1,173,210,211,-1,211,210,212,-1,211,212,213,-1,214,215,216,-1,217,218,219,-1,219,218,220,-1,219,220,221,-1,221,220,214,-1,221,214,222,-1,222,214,216,-1,223,224,225,-1,226,227,228,-1,229,230,231,-1,226,228,232,-1,229,231,228,-1,228,231,233,-1,228,233,232,-1,234,235,236,-1,236,235,237,-1,236,237,238,-1,238,237,239,-1,238,239,228,-1,240,241,10,-1,242,243,244,-1,224,245,225,-1,225,245,246,-1,225,246,244,-1,244,246,247,-1,244,247,242,-1,248,249,10,-1,10,249,250,-1,243,251,244,-1,244,251,252,-1,244,252,253,-1,253,252,254,-1,253,254,240,-1,255,256,241,-1,241,256,257,-1,241,257,10,-1,10,257,258,-1,10,258,248,-1,250,259,10,-1,10,259,260,-1,10,260,8,-1,261,262,263,-1,263,262,264,-1,263,264,265,-1,263,266,261,-1,261,266,267,-1,261,267,268,-1,268,269,261,-1,261,269,270,-1,261,270,271,-1,271,270,272,-1,271,272,273,-1,273,272,274,-1,273,274,241,-1,241,274,275,-1,241,275,255,-1,276,277,265,-1,265,277,278,-1,265,278,263,-1,279,280,230,-1,230,280,281,-1,230,281,231,-1,279,282,280,-1,280,282,283,-1,280,283,284,-1,284,283,285,-1,284,286,287,-1,285,288,284,-1,284,288,289,-1,284,289,290,-1,290,291,284,-1,284,291,292,-1,284,292,286,-1,287,293,284,-1,284,293,294,-1,284,294,295,-1,296,297,298,-1,299,300,298,-1,298,300,301,-1,298,301,296,-1,297,296,302,-1,302,296,303,-1,302,303,304,-1,300,305,301,-1,301,305,306,-1,301,306,307,-1,307,306,308,-1,307,308,309,-1,309,308,310,-1,309,310,304,-1,304,310,311,-1,304,311,302,-1,312,313,314,-1,314,313,315,-1,316,317,318,-1,318,317,319,-1,318,319,320,-1,320,319,321,-1,320,321,322,-1,322,321,323,-1,322,323,324,-1,324,323,325,-1,324,325,326,-1,326,325,327,-1,328,329,330,-1,314,323,312,-1,312,323,321,-1,312,321,331,-1,331,321,332,-1,331,332,330,-1,330,332,333,-1,330,333,328,-1,315,313,334,-1,334,313,335,-1,334,335,328,-1,336,337,338,-1,328,335,329,-1,329,335,339,-1,329,339,340,-1,340,339,341,-1,340,341,338,-1,338,341,342,-1,338,342,336,-1,337,343,338,-1,338,343,344,-1,338,344,345,-1,345,346,338,-1,338,346,347,-1,338,347,348,-1,348,349,338,-1,338,349,350,-1,338,350,351,-1,352,353,351,-1,351,353,354,-1,351,354,338,-1,355,356,357,-1,352,358,353,-1,353,358,359,-1,353,359,357,-1,357,359,360,-1,357,360,355,-1,361,362,363,-1,363,362,364,-1,363,364,335,-1,335,364,365,-1,335,365,339,-1,366,367,368,-1,368,369,366,-1,366,369,370,-1,366,370,371,-1,372,373,366,-1,366,373,374,-1,366,374,367,-1,375,376,377,-1,377,376,378,-1,377,378,372,-1,372,378,379,-1,372,379,373,-1,380,381,382,-1,381,383,382,-1,382,383,384,-1,382,384,375,-1,380,382,385,-1,385,382,386,-1,385,386,387,-1,387,386,388,-1,388,386,225,-1,388,225,389,-1,340,390,329,-1,329,390,391,-1,329,391,392,-1,392,391,393,-1,392,393,394,-1,395,396,397,-1,397,396,398,-1,238,399,400,-1,401,402,403,-1,225,404,405,-1,395,406,396,-1,396,406,407,-1,396,407,408,-1,408,407,403,-1,408,403,409,-1,409,403,402,-1,227,223,228,-1,228,223,225,-1,228,225,238,-1,238,225,405,-1,238,405,399,-1,396,410,398,-1,398,410,386,-1,398,386,411,-1,411,386,412,-1,411,412,413,-1,414,415,400,-1,400,415,416,-1,400,416,417,-1,418,419,412,-1,412,419,420,-1,412,420,413,-1,421,422,225,-1,225,422,423,-1,424,425,403,-1,403,425,426,-1,403,426,427,-1,423,428,225,-1,225,428,429,-1,225,429,404,-1,410,430,386,-1,386,430,431,-1,386,431,225,-1,225,431,432,-1,225,432,421,-1,427,433,403,-1,403,433,434,-1,403,434,401,-1,435,436,437,-1,437,436,438,-1,436,439,438,-1,438,439,440,-1,438,440,412,-1,412,440,441,-1,412,441,418,-1,442,443,10,-1,10,443,444,-1,240,10,253,-1,253,10,444,-1,253,444,218,-1,218,444,445,-1,218,445,220,-1,446,443,447,-1,447,443,442,-1,447,442,448,-1,449,450,451,-1,452,453,442,-1,442,453,454,-1,442,454,448,-1,455,456,9,-1,9,456,449,-1,9,449,10,-1,10,449,451,-1,10,451,442,-1,442,451,457,-1,442,457,458,-1,459,460,461,-1,461,460,462,-1,461,462,449,-1,449,462,463,-1,449,463,450,-1,458,464,442,-1,442,464,465,-1,442,465,452,-1,466,467,468,-1,466,468,469,-1,467,470,468,-1,468,470,471,-1,468,471,461,-1,461,471,472,-1,461,472,459,-1,6,473,474,-1,474,473,475,-1,474,475,476,-1,476,475,477,-1,476,477,478,-1,478,477,468,-1,478,468,479,-1,479,468,461,-1,479,461,480,-1,480,461,449,-1,480,449,481,-1,481,449,456,-1,481,456,482,-1,482,456,437,-1,482,437,483,-1,483,437,438,-1,455,234,456,-1,456,234,236,-1,456,236,437,-1,437,236,238,-1,437,238,435,-1,435,238,400,-1,435,400,484,-1,484,400,417,-1,473,485,475,-1,475,485,168,-1,475,168,477,-1,477,168,173,-1,477,173,468,-1,468,173,211,-1,468,211,469,-1,469,211,213,-1,469,213,217,-1,217,213,197,-1,217,197,218,-1,218,197,196,-1,486,76,487,-1,487,76,68,-1,487,68,488,-1,488,68,60,-1,488,60,489,-1,489,60,59,-1,489,59,490,-1,486,491,492,-1,491,493,492,-1,492,493,494,-1,492,494,488,-1,488,494,495,-1,488,495,487,-1,496,497,498,-1,498,497,494,-1,498,494,499,-1,499,494,493,-1,499,493,500,-1,500,493,501,-1,375,377,382,-1,382,377,492,-1,382,492,386,-1,386,492,488,-1,386,488,412,-1,412,488,489,-1,412,489,438,-1,438,489,490,-1,438,490,483,-1,167,296,175,-1,175,296,301,-1,175,301,196,-1,196,301,307,-1,196,307,218,-1,218,307,331,-1,218,331,253,-1,253,331,330,-1,253,330,244,-1,244,330,329,-1,244,329,225,-1,225,329,392,-1,225,392,389,-1,389,392,394,-1,486,492,76,-1,76,492,377,-1,76,377,19,-1,19,377,502,-1,19,502,16,-1,502,503,16,-1,16,503,0,-1,16,0,372,-1,372,0,2,-1,372,2,377,-1,377,2,504,-1,377,504,502,-1,312,505,309,-1,309,505,506,-1,309,506,507,-1,508,509,309,-1,309,509,510,-1,309,510,307,-1,307,510,511,-1,307,511,512,-1,512,513,307,-1,307,513,514,-1,307,514,515,-1,515,516,307,-1,307,516,517,-1,307,517,331,-1,331,517,518,-1,331,518,312,-1,312,518,519,-1,312,519,505,-1,507,520,309,-1,309,520,521,-1,309,521,508,-1,180,178,522,-1,522,178,168,-1,522,168,523,-1,523,168,485,-1,523,485,183,-1,183,485,524,-1,183,524,167,-1,167,524,525,-1,167,525,296,-1,296,525,526,-1,296,526,303,-1,371,527,366,-1,366,527,528,-1,366,528,372,-1,372,528,529,-1,372,529,16,-1,16,529,28,-1,16,28,14,-1,14,28,30,-1,526,530,303,-1,303,530,531,-1,303,531,304,-1,304,531,532,-1,304,532,309,-1,309,532,533,-1,309,533,312,-1,312,533,534,-1,312,534,313,-1,313,534,535,-1,313,535,335,-1,335,535,536,-1,335,536,363,-1,363,536,537,-1,363,537,361,-1,361,537,528,-1,361,528,538,-1,538,528,527,-1,539,540,541,-1,541,540,542,-1,541,542,543,-1,543,544,541,-1,541,544,545,-1,541,545,546,-1,547,548,549,-1,545,550,546,-1,546,550,551,-1,546,551,552,-1,553,554,530,-1,530,554,555,-1,530,555,556,-1,556,547,530,-1,530,547,549,-1,530,549,531,-1,531,549,557,-1,531,557,532,-1,532,557,558,-1,532,558,533,-1,533,558,559,-1,533,559,534,-1,534,559,560,-1,534,560,535,-1,535,560,561,-1,535,561,536,-1,536,561,562,-1,536,562,537,-1,537,562,563,-1,537,563,528,-1,528,563,564,-1,528,564,529,-1,529,564,565,-1,529,565,28,-1,28,565,566,-1,28,566,27,-1,27,566,567,-1,552,568,546,-1,546,568,569,-1,546,569,570,-1,548,571,549,-1,549,571,572,-1,549,572,573,-1,573,574,549,-1,549,574,575,-1,549,575,541,-1,541,575,576,-1,541,576,539,-1,6,7,473,-1,473,7,577,-1,473,577,485,-1,485,577,578,-1,485,578,524,-1,524,578,579,-1,524,579,525,-1,525,579,580,-1,525,580,526,-1,526,580,546,-1,526,546,530,-1,530,546,570,-1,530,570,553,-1,3,5,7,-1,7,5,581,-1,7,581,577,-1,577,581,582,-1,577,582,578,-1,578,582,583,-1,578,583,579,-1,579,583,584,-1,579,584,580,-1,580,584,585,-1,580,585,546,-1,546,585,586,-1,546,586,541,-1,587,588,589,-1,589,588,590,-1,589,590,591,-1,591,590,592,-1,591,592,593,-1,593,592,594,-1,593,594,595,-1,595,594,596,-1,595,596,597,-1,597,596,598,-1,597,598,599,-1,599,598,587,-1,599,587,589,-1,600,601,602,-1,602,601,595,-1,602,595,603,-1,603,595,597,-1,603,597,604,-1,604,597,599,-1,604,599,605,-1,605,599,606,-1,605,606,607,-1,607,606,608,-1,607,608,600,-1,600,608,601,-1,609,606,610,-1,610,606,611,-1,610,611,612,-1,612,611,613,-1,612,613,614,-1,614,613,615,-1,614,615,616,-1,616,615,601,-1,616,601,617,-1,617,601,608,-1,617,608,609,-1,609,608,606,-1,618,619,620,-1,620,619,621,-1,620,621,606,-1,606,621,622,-1,606,622,611,-1,611,622,623,-1,611,623,619,-1,619,623,624,-1,619,624,621,-1,620,625,626,-1,625,620,627,-1,627,620,606,-1,627,606,628,-1,628,606,599,-1,628,599,626,-1,626,599,629,-1,626,629,620,-1,630,631,632,-1,632,631,629,-1,632,629,633,-1,633,629,599,-1,633,599,634,-1,634,599,589,-1,634,589,630,-1,630,589,631,-1,618,620,635,-1,635,620,629,-1,635,629,636,-1,636,629,631,-1,636,631,637,-1,593,638,591,-1,591,638,639,-1,591,639,589,-1,589,639,640,-1,589,640,631,-1,631,640,641,-1,631,641,637,-1,637,641,642,-1,642,641,4,-1,4,641,640,-1,4,640,586,-1,586,640,639,-1,586,639,638,-1,637,642,4,-1,62,618,635,-1,62,635,4,-1,4,635,636,-1,4,636,637,-1,615,613,567,-1,567,613,611,-1,567,611,62,-1,62,611,619,-1,62,619,618,-1,638,593,586,-1,586,593,595,-1,586,595,567,-1,567,595,601,-1,567,601,615,-1,
        ]
    }
}
Shape{
    appearance Appearance {
        material  Material 	{
            diffuseColor 1.0 1.0 1.0
            specularColor 0.5019607843137255 0.5019607843137255 0.5019607843137255
            ambientIntensity 1.0
            transparency 0.0
            shininess 0.5
        }
    }
    geometry IndexedFaceSet {
        ccw TRUE
        solid FALSE
        coord DEF co Coordinate {
            point [
                -0.2362 0.1673 0.0079, -0.2362 0.1673 0.0, -0.2362 0.1083 0.0079, -0.2362 0.0492 0.0, -0.2362 0.0492 0.0079, -0.1575 0.1673 0.0, -0.1575 0.1673 0.0079, -0.1575 0.0492 0.0079, -0.1575 0.0492 0.0, -0.1575 0.1083 0.0079, 0.0394 0.1673 0.0, -0.0394 0.1673 0.0, 0.0394 0.1673 0.0079, -0.0394 0.1673 0.0079, 0.0394 0.0492 0.0079, 0.0394 0.0492 0.0, 0.0394 0.1083 0.0079, -0.0394 0.0492 0.0, -0.0394 0.0492 0.0079, -0.0394 0.1083 0.0079, 0.1969 0.0492 0.0, 0.2362 0.0886 0.0, 0.1969 0.0492 0.0079, 0.2362 0.0886 0.0079, 0.1575 0.0492 0.0, 0.1575 0.0492 0.0079, 0.1575 0.1673 0.0079, 0.1575 0.1673 0.0, 0.1575 0.1083 0.0079, 0.2362 0.1673 0.0, 0.2362 0.1673 0.0079, 0.2362 0.1083 0.0079, 0.0394 -0.0492 0.0, -0.0394 -0.0492 0.0, 0.0394 -0.0492 0.0079, -0.0394 -0.0492 0.0079, 0.0394 -0.1673 0.0, 0.0394 -0.1673 0.0079, -0.0394 -0.1673 0.0, -0.0394 -0.1673 0.0079, 0.2362 -0.0492 0.0, 0.1575 -0.0492 0.0, 0.2362 -0.0492 0.0079, 0.1575 -0.0492 0.0079, 0.2362 -0.1673 0.0, 0.2362 -0.1673 0.0079, 0.1575 -0.1673 0.0, 0.1575 -0.1673 0.0079, -0.1575 -0.0492 0.0, -0.2362 -0.0492 0.0, -0.1575 -0.0492 0.0079, -0.2362 -0.0492 0.0079, -0.1575 -0.1673 0.0, -0.1575 -0.1673 0.0079, -0.2362 -0.1673 0.0, -0.2362 -0.1673 0.0079
            ]
        }
        coordIndex [
            0,1,2,-1,2,1,3,-1,2,3,4,-1,5,1,6,-1,6,1,0,-1,7,8,9,-1,9,8,5,-1,9,5,6,-1,3,8,4,-1,4,8,7,-1,5,8,1,-1,1,8,3,-1,10,11,12,-1,12,11,13,-1,14,15,16,-1,16,15,10,-1,16,10,12,-1,17,15,18,-1,18,15,14,-1,13,11,19,-1,19,11,17,-1,19,17,18,-1,15,17,10,-1,10,17,11,-1,20,21,22,-1,22,21,23,-1,24,20,25,-1,25,20,22,-1,26,27,28,-1,28,27,24,-1,28,24,25,-1,29,27,30,-1,30,27,26,-1,29,30,21,-1,21,30,31,-1,21,31,23,-1,29,21,27,-1,27,21,20,-1,27,20,24,-1,32,33,34,-1,34,33,35,-1,36,32,37,-1,37,32,34,-1,38,36,39,-1,39,36,37,-1,33,38,35,-1,35,38,39,-1,36,38,32,-1,32,38,33,-1,40,41,42,-1,42,41,43,-1,44,40,45,-1,45,40,42,-1,46,44,47,-1,47,44,45,-1,41,46,43,-1,43,46,47,-1,44,46,40,-1,40,46,41,-1,48,49,50,-1,50,49,51,-1,52,48,53,-1,53,48,50,-1,54,52,55,-1,55,52,53,-1,49,54,51,-1,51,54,55,-1,52,54,48,-1,48,54,49,-1,
        ]
    }
}
Shape{
    appearance Appearance {
        material  Material 	{
            diffuseColor 0.7529411764705882 0.7529411764705882 0.7529411764705882
            specularColor 0.3764705882352941 0.3764705882352941 0.3764705882352941
            ambientIntensity 0.7529
            transparency 0.0
            shininess 0.5
        }
    }
    geometry IndexedFaceSet {
        ccw TRUE
        solid FALSE
        coord DEF co Coordinate {
            point [
                0.2424 0.1371 0.1575, 0.2424 0.1371 0.1614, 0.2413 0.1454 0.1575, 0.2413 0.1454 0.1614, 0.2381 0.1531 0.1575, 0.2381 0.1531 0.1614, 0.233 0.1597 0.1575, 0.233 0.1597 0.1614, 0.2264 0.1648 0.1575, 0.2264 0.1648 0.1614, 0.2187 0.168 0.1575, 0.2187 0.168 0.1614, 0.2104 0.1691 0.1575, 0.2104 0.1691 0.1614, 0.2021 0.168 0.1575, 0.2021 0.168 0.1614, 0.1944 0.1648 0.1575, 0.1944 0.1648 0.1614, 0.1877 0.1597 0.1575, 0.1877 0.1597 0.1614, 0.1826 0.1531 0.1575, 0.1826 0.1531 0.1614, 0.1794 0.1454 0.1575, 0.1794 0.1454 0.1614, 0.1784 0.1371 0.1575, 0.1784 0.1371 0.1614, 0.1794 0.1288 0.1575, 0.1794 0.1288 0.1614, 0.1826 0.1211 0.1575, 0.1826 0.1211 0.1614, 0.1877 0.1144 0.1575, 0.1877 0.1144 0.1614, 0.1944 0.1093 0.1575, 0.1944 0.1093 0.1614, 0.2021 0.1061 0.1575, 0.2021 0.1061 0.1614, 0.2104 0.105 0.1575, 0.2104 0.105 0.1614, 0.2187 0.1061 0.1575, 0.2187 0.1061 0.1614, 0.2264 0.1093 0.1575, 0.2264 0.1093 0.1614, 0.233 0.1144 0.1575, 0.233 0.1144 0.1614, 0.2381 0.1211 0.1575, 0.2381 0.1211 0.1614, 0.2413 0.1288 0.1575, 0.2413 0.1288 0.1614, 0.2104 0.1371 0.1575, -0.161 -0.1053 0.1654, -0.161 -0.1069 0.1654, -0.161 -0.1053 0.1614, -0.161 -0.1069 0.1614, -0.1664 -0.1053 0.1654, -0.1664 -0.1053 0.1614, -0.1664 -0.0935 0.1654, -0.1664 -0.0935 0.1614, -0.1681 -0.0935 0.1654, -0.1681 -0.0935 0.1614, -0.1681 -0.1069 0.1654, -0.1681 -0.1069 0.1614, -0.1505 -0.1063 0.1614, -0.1505 -0.1063 0.1654, -0.1507 -0.1064 0.1654, -0.1542 -0.1071 0.1614, -0.153 -0.107 0.1614, -0.1542 -0.1071 0.1654, -0.1522 -0.1069 0.1654, -0.1522 -0.1069 0.1614, -0.1511 -0.1065 0.1614, -0.1507 -0.1064 0.1614, -0.1505 -0.1047 0.1654, -0.1505 -0.1047 0.1614, -0.1511 -0.1049 0.1614, -0.1518 -0.1052 0.1654, -0.1518 -0.1052 0.1614, -0.1533 -0.1055 0.1614, -0.1533 -0.1055 0.1654, -0.1539 -0.1056 0.1614, -0.1539 -0.1056 0.1654, -0.1553 -0.1054 0.1614, -0.1553 -0.1054 0.1654, -0.1562 -0.105 0.1614, -0.1562 -0.105 0.1654, -0.1571 -0.1044 0.1614, -0.1571 -0.1044 0.1654, -0.1574 -0.1041 0.1614, -0.1574 -0.1041 0.1654, -0.158 -0.1034 0.1614, -0.158 -0.1034 0.1654, -0.1584 -0.1023 0.1614, -0.1584 -0.1023 0.1654, -0.1587 -0.101 0.1614, -0.1587 -0.101 0.1654, -0.1587 -0.1003 0.1614, -0.1587 -0.1003 0.1654, -0.1585 -0.0985 0.1614, -0.1585 -0.0985 0.1654, -0.158 -0.0973 0.1614, -0.158 -0.0973 0.1654, -0.1574 -0.0964 0.1614, -0.1574 -0.0964 0.1654, -0.1573 -0.0963 0.1614, -0.1573 -0.0963 0.1654, -0.1565 -0.0957 0.1614, -0.1565 -0.0957 0.1654, -0.1555 -0.0951 0.1614, -0.1555 -0.0951 0.1654, -0.1544 -0.0949 0.1614, -0.1544 -0.0949 0.1654, -0.1536 -0.0948 0.1614, -0.1536 -0.0948 0.1654, -0.1505 -0.0956 0.1614, -0.1505 -0.0956 0.1654, -0.1507 -0.0956 0.1654, -0.152 -0.095 0.1614, -0.152 -0.095 0.1654, -0.1511 -0.0954 0.1614, -0.1507 -0.0956 0.1614, -0.1505 -0.0938 0.1654, -0.1505 -0.0938 0.1614, -0.1511 -0.0937 0.1614, -0.1519 -0.0934 0.1654, -0.1537 -0.0933 0.1614, -0.1537 -0.0933 0.1654, -0.1522 -0.0934 0.1614, -0.1519 -0.0934 0.1614, -0.1546 -0.0934 0.1614, -0.1556 -0.0935 0.1654, -0.1556 -0.0935 0.1614, -0.157 -0.0941 0.1614, -0.157 -0.0941 0.1654, -0.1582 -0.0949 0.1614, -0.1582 -0.0949 0.1654, -0.1586 -0.0953 0.1614, -0.1586 -0.0953 0.1654, -0.1595 -0.0965 0.1614, -0.1595 -0.0965 0.1654, -0.1599 -0.0974 0.1614, -0.1602 -0.098 0.1654, -0.1602 -0.098 0.1614, -0.1605 -0.0997 0.1614, -0.1605 -0.0997 0.1654, -0.1605 -0.1004 0.1614, -0.1605 -0.1004 0.1654, -0.1588 -0.1053 0.1614, -0.1588 -0.1053 0.1654, -0.1597 -0.104 0.1654, -0.1602 -0.1026 0.1614, -0.1602 -0.1026 0.1654, -0.1599 -0.1035 0.1614, -0.1597 -0.104 0.1614, -0.155 -0.1071 0.1654, -0.1577 -0.1062 0.1614, -0.1577 -0.1062 0.1654, -0.1564 -0.1068 0.1614, -0.1564 -0.1068 0.1654, -0.1554 -0.107 0.1614, -0.155 -0.1071 0.1614, -0.1407 -0.1053 0.1654, -0.1407 -0.1069 0.1654, -0.1407 -0.1053 0.1614, -0.1407 -0.1069 0.1614, -0.1461 -0.1053 0.1614, -0.1461 -0.1053 0.1654, -0.1425 -0.1053 0.1614, -0.1461 -0.1009 0.1654, -0.1461 -0.1009 0.1614, -0.1413 -0.1009 0.1614, -0.1413 -0.1009 0.1654, -0.1425 -0.1009 0.1614, -0.1413 -0.0993 0.1654, -0.1413 -0.0993 0.1614, -0.1461 -0.0993 0.1614, -0.1461 -0.0993 0.1654, -0.1425 -0.0993 0.1614, -0.1461 -0.0951 0.1654, -0.1461 -0.0951 0.1614, -0.141 -0.0951 0.1614, -0.141 -0.0951 0.1654, -0.1425 -0.0951 0.1614, -0.141 -0.0935 0.1654, -0.141 -0.0935 0.1614, -0.1478 -0.0935 0.1614, -0.1478 -0.0935 0.1654, -0.1425 -0.0935 0.1614, -0.1478 -0.1069 0.1654, -0.1478 -0.1069 0.1614, -0.1425 -0.1069 0.1614, -0.1293 -0.105 0.1654, -0.1307 -0.1041 0.1654, -0.1307 -0.106 0.1654, -0.1315 -0.1047 0.1654, -0.1322 -0.1066 0.1654, -0.1326 -0.1051 0.1654, -0.1345 -0.1069 0.1654, -0.1345 -0.1053 0.1654, -0.1381 -0.1069 0.1654, -0.1364 -0.1053 0.1654, -0.1381 -0.0935 0.1654, -0.1364 -0.0951 0.1654, -0.1343 -0.0935 0.1654, -0.1344 -0.0951 0.1654, -0.1339 -0.0951 0.1654, -0.1323 -0.0937 0.1654, -0.1325 -0.0953 0.1654, -0.1307 -0.0943 0.1654, -0.1314 -0.0957 0.1654, -0.1293 -0.0953 0.1654, -0.1305 -0.0963 0.1654, -0.1288 -0.0957 0.1654, -0.1302 -0.0967 0.1654, -0.128 -0.0969 0.1654, -0.1297 -0.0974 0.1654, -0.1275 -0.0982 0.1654, -0.1293 -0.0984 0.1654, -0.1273 -0.1 0.1654, -0.1291 -0.1001 0.1654, -0.1273 -0.1009 0.1654, -0.1291 -0.1011 0.1654, -0.1276 -0.1024 0.1654, -0.1294 -0.1023 0.1654, -0.1283 -0.1038 0.1654, -0.1299 -0.1032 0.1654, -0.1305 -0.104 0.1654, -0.1345 -0.1069 0.1614, -0.1381 -0.1069 0.1614, -0.1322 -0.1066 0.1614, -0.1307 -0.106 0.1614, -0.1293 -0.105 0.1614, -0.1283 -0.1038 0.1614, -0.1276 -0.1024 0.1614, -0.1273 -0.1009 0.1614, -0.1273 -0.1 0.1614, -0.1275 -0.0982 0.1614, -0.128 -0.0969 0.1614, -0.1288 -0.0957 0.1614, -0.1293 -0.0953 0.1614, -0.1307 -0.0943 0.1614, -0.1323 -0.0937 0.1614, -0.1343 -0.0935 0.1614, -0.1381 -0.0935 0.1614, -0.1344 -0.0951 0.1614, -0.1364 -0.0951 0.1614, -0.1364 -0.1053 0.1614, -0.1345 -0.1053 0.1614, -0.1305 -0.104 0.1614, -0.1307 -0.1041 0.1614, -0.1315 -0.1047 0.1614, -0.1326 -0.1051 0.1614, -0.1291 -0.1001 0.1614, -0.1291 -0.1011 0.1614, -0.1294 -0.1023 0.1614, -0.1299 -0.1032 0.1614, -0.1305 -0.0963 0.1614, -0.1302 -0.0967 0.1614, -0.1297 -0.0974 0.1614, -0.1293 -0.0984 0.1614, -0.1339 -0.0951 0.1614, -0.1325 -0.0953 0.1614, -0.1314 -0.0957 0.1614
            ]
        }
        coordIndex [
            0,1,2,-1,2,1,3,-1,2,3,4,-1,4,3,5,-1,4,5,6,-1,6,5,7,-1,6,7,8,-1,8,7,9,-1,8,9,10,-1,10,9,11,-1,10,11,12,-1,12,11,13,-1,12,13,14,-1,14,13,15,-1,14,15,16,-1,16,15,17,-1,16,17,18,-1,18,17,19,-1,18,19,20,-1,20,19,21,-1,20,21,22,-1,22,21,23,-1,22,23,24,-1,24,23,25,-1,24,25,26,-1,26,25,27,-1,26,27,28,-1,28,27,29,-1,28,29,30,-1,30,29,31,-1,30,31,32,-1,32,31,33,-1,32,33,34,-1,34,33,35,-1,34,35,36,-1,36,35,37,-1,36,37,38,-1,38,37,39,-1,38,39,40,-1,40,39,41,-1,40,41,42,-1,42,41,43,-1,42,43,44,-1,44,43,45,-1,44,45,46,-1,46,45,47,-1,46,47,0,-1,0,47,1,-1,44,46,48,-1,48,46,0,-1,48,0,2,-1,38,40,48,-1,48,40,42,-1,48,42,44,-1,32,34,48,-1,48,34,36,-1,48,36,38,-1,26,28,48,-1,48,28,30,-1,48,30,32,-1,20,22,48,-1,48,22,24,-1,48,24,26,-1,14,16,48,-1,48,16,18,-1,48,18,20,-1,8,10,48,-1,48,10,12,-1,48,12,14,-1,2,4,48,-1,48,4,6,-1,48,6,8,-1,49,50,51,-1,51,50,52,-1,53,49,54,-1,54,49,51,-1,55,53,56,-1,56,53,54,-1,57,55,58,-1,58,55,56,-1,59,57,60,-1,60,57,58,-1,50,59,52,-1,52,59,60,-1,55,57,53,-1,53,57,59,-1,53,59,49,-1,49,59,50,-1,61,62,63,-1,64,65,66,-1,66,65,67,-1,65,68,67,-1,67,68,69,-1,67,69,63,-1,63,69,70,-1,63,70,61,-1,71,62,72,-1,72,62,61,-1,71,72,73,-1,71,73,74,-1,73,75,74,-1,74,75,76,-1,74,76,77,-1,77,76,78,-1,77,78,79,-1,79,78,80,-1,79,80,81,-1,81,80,82,-1,81,82,83,-1,83,82,84,-1,83,84,85,-1,85,84,86,-1,85,86,87,-1,87,86,88,-1,87,88,89,-1,89,88,90,-1,89,90,91,-1,91,90,92,-1,91,92,93,-1,93,92,94,-1,93,94,95,-1,95,94,96,-1,95,96,97,-1,97,96,98,-1,97,98,99,-1,99,98,100,-1,99,100,101,-1,101,100,102,-1,101,102,103,-1,103,102,104,-1,103,104,105,-1,105,104,106,-1,105,106,107,-1,107,106,108,-1,107,108,109,-1,109,108,110,-1,109,110,111,-1,112,113,114,-1,111,110,115,-1,111,115,116,-1,116,115,117,-1,116,117,114,-1,114,117,118,-1,114,118,112,-1,119,113,120,-1,120,113,112,-1,119,120,121,-1,119,121,122,-1,123,124,125,-1,125,124,122,-1,125,122,126,-1,126,122,121,-1,124,123,127,-1,124,127,128,-1,127,129,128,-1,128,129,130,-1,128,130,131,-1,131,130,132,-1,131,132,133,-1,133,132,134,-1,133,134,135,-1,135,134,136,-1,135,136,137,-1,137,136,138,-1,137,138,139,-1,138,140,139,-1,139,140,141,-1,139,141,142,-1,142,141,143,-1,142,143,144,-1,145,146,147,-1,144,143,148,-1,144,148,149,-1,149,148,150,-1,149,150,147,-1,147,150,151,-1,147,151,145,-1,64,66,152,-1,146,145,153,-1,146,153,154,-1,154,153,155,-1,154,155,156,-1,156,155,157,-1,156,157,152,-1,152,157,158,-1,152,158,64,-1,105,107,128,-1,97,99,137,-1,137,99,135,-1,128,107,124,-1,107,109,124,-1,124,109,111,-1,124,111,122,-1,122,111,116,-1,122,116,119,-1,119,116,114,-1,119,114,113,-1,144,95,142,-1,142,95,97,-1,142,97,139,-1,139,97,137,-1,99,101,135,-1,135,101,103,-1,135,103,133,-1,133,103,105,-1,133,105,131,-1,131,105,128,-1,62,71,63,-1,63,71,74,-1,63,74,67,-1,67,74,77,-1,67,77,66,-1,66,77,79,-1,66,79,152,-1,152,79,81,-1,152,81,156,-1,156,81,83,-1,156,83,154,-1,154,83,85,-1,154,85,146,-1,146,85,87,-1,146,87,147,-1,147,87,89,-1,147,89,149,-1,149,89,91,-1,149,91,144,-1,144,91,93,-1,144,93,95,-1,159,160,161,-1,161,160,162,-1,163,164,165,-1,165,164,159,-1,165,159,161,-1,166,164,167,-1,167,164,163,-1,168,169,170,-1,170,169,166,-1,170,166,167,-1,171,169,172,-1,172,169,168,-1,173,174,175,-1,175,174,171,-1,175,171,172,-1,176,174,177,-1,177,174,173,-1,178,179,180,-1,180,179,176,-1,180,176,177,-1,181,179,182,-1,182,179,178,-1,183,184,185,-1,185,184,181,-1,185,181,182,-1,186,184,187,-1,187,184,183,-1,162,160,188,-1,188,160,186,-1,188,186,187,-1,186,160,159,-1,159,164,186,-1,186,164,166,-1,186,166,184,-1,179,181,176,-1,176,181,184,-1,176,184,174,-1,174,184,166,-1,174,166,171,-1,171,166,169,-1,189,190,191,-1,191,190,192,-1,191,192,193,-1,193,192,194,-1,193,194,195,-1,195,194,196,-1,195,196,197,-1,197,196,198,-1,197,198,199,-1,199,198,200,-1,199,200,201,-1,200,202,201,-1,201,202,203,-1,201,203,204,-1,204,203,205,-1,204,205,206,-1,206,205,207,-1,206,207,208,-1,208,207,209,-1,208,209,210,-1,210,209,211,-1,210,211,212,-1,212,211,213,-1,212,213,214,-1,214,213,215,-1,214,215,216,-1,216,215,217,-1,216,217,218,-1,218,217,219,-1,218,219,220,-1,220,219,221,-1,220,221,222,-1,222,221,223,-1,222,223,189,-1,189,223,224,-1,189,224,190,-1,195,197,225,-1,225,197,226,-1,195,225,227,-1,195,227,193,-1,193,227,228,-1,193,228,191,-1,191,228,229,-1,191,229,189,-1,189,229,230,-1,189,230,222,-1,222,230,231,-1,222,231,220,-1,220,231,232,-1,220,232,218,-1,218,232,233,-1,218,233,216,-1,216,233,234,-1,216,234,214,-1,214,234,235,-1,214,235,212,-1,212,235,236,-1,212,236,210,-1,210,236,237,-1,210,237,208,-1,208,237,238,-1,208,238,206,-1,206,238,239,-1,206,239,204,-1,204,239,240,-1,204,240,201,-1,199,201,241,-1,241,201,240,-1,197,199,226,-1,226,199,241,-1,202,200,242,-1,242,200,243,-1,200,198,243,-1,243,198,244,-1,198,196,244,-1,244,196,245,-1,224,246,247,-1,224,247,190,-1,190,247,248,-1,190,248,192,-1,192,248,249,-1,192,249,194,-1,194,249,245,-1,194,245,196,-1,217,250,251,-1,217,251,219,-1,219,251,252,-1,219,252,221,-1,221,252,253,-1,221,253,223,-1,223,253,246,-1,223,246,224,-1,209,254,255,-1,209,255,211,-1,211,255,256,-1,211,256,213,-1,213,256,257,-1,213,257,215,-1,215,257,250,-1,215,250,217,-1,202,242,258,-1,202,258,203,-1,203,258,259,-1,203,259,205,-1,205,259,260,-1,205,260,207,-1,207,260,254,-1,207,254,209,-1,
        ]
    }
}
Shape{
    appearance Appearance {
        material  Material 	{
            diffuseColor 0.25098039215686274 0.25098039215686274 0.25098039215686274
            specularColor 0.12549019607843137 0.12549019607843137 0.12549019607843137
            ambientIntensity 0.251
            transparency 0.0
            shininess 0.5
        }
    }
    geometry IndexedFaceSet {
        ccw TRUE
        solid FALSE
        coord DEF co Coordinate {
            point [
                -0.1344 -0.0951 0.1614, -0.1364 -0.0951 0.1614, -0.1364 -0.1053 0.1614, -0.1294 -0.1023 0.1614, -0.1291 -0.1011 0.1614, -0.1339 -0.0951 0.1614, -0.1345 -0.1053 0.1614, -0.1326 -0.1051 0.1614, -0.1315 -0.1047 0.1614, -0.1307 -0.1041 0.1614, -0.1305 -0.104 0.1614, -0.1299 -0.1032 0.1614, -0.1305 -0.0963 0.1614, -0.1291 -0.1001 0.1614, -0.1314 -0.0957 0.1614, -0.1325 -0.0953 0.1614, -0.1293 -0.0984 0.1614, -0.1297 -0.0974 0.1614, -0.1302 -0.0967 0.1614
            ]
        }
        coordIndex [
            0,1,2,-1,3,4,5,-1,2,6,0,-1,0,6,7,-1,0,7,8,-1,8,9,0,-1,0,9,10,-1,0,10,5,-1,5,10,11,-1,5,11,3,-1,12,4,13,-1,12,14,4,-1,4,14,15,-1,4,15,5,-1,16,17,13,-1,13,17,18,-1,13,18,12,-1,
        ]
    }
}
Shape{
    appearance Appearance {
        material  Material 	{
            diffuseColor 0.7529411764705882 0.7529411764705882 0.7529411764705882
            specularColor 0.3764705882352941 0.3764705882352941 0.3764705882352941
            ambientIntensity 0.7529
            transparency 0.0
            shininess 0.5
        }
    }
    geometry IndexedFaceSet {
        ccw TRUE
        solid FALSE
        coord DEF co Coordinate {
            point [
                -0.1228 -0.1017 0.1654, -0.1233 -0.1032 0.1654, -0.1183 -0.1017 0.1654, -0.1178 -0.1032 0.1654, -0.1208 -0.0962 0.1654, -0.1214 -0.0935 0.1654, -0.1265 -0.1069 0.1654, -0.1246 -0.1069 0.1654, -0.1207 -0.0958 0.1654, -0.1206 -0.0952 0.1654, -0.1196 -0.0935 0.1654, -0.1205 -0.0952 0.1654, -0.1204 -0.0958 0.1654, -0.1203 -0.0962 0.1654, -0.1145 -0.1069 0.1654, -0.1164 -0.1069 0.1654, -0.1196 -0.0935 0.1614, -0.1145 -0.1069 0.1614, -0.1214 -0.0935 0.1614, -0.1265 -0.1069 0.1614, -0.1227 -0.0968 0.1614, -0.1246 -0.1069 0.1614, -0.1233 -0.1032 0.1614, -0.1178 -0.1032 0.1614, -0.1227 -0.1032 0.1614, -0.1164 -0.1069 0.1614, -0.1228 -0.1017 0.1614, -0.1183 -0.1017 0.1614, -0.1203 -0.0962 0.1614, -0.1205 -0.0952 0.1614, -0.1204 -0.0958 0.1614, -0.1206 -0.0952 0.1614, -0.1208 -0.0962 0.1614, -0.1207 -0.0958 0.1614
            ]
        }
        coordIndex [
            0,1,2,-1,2,1,3,-1,4,5,0,-1,0,5,6,-1,0,6,1,-1,1,6,7,-1,4,8,5,-1,5,8,9,-1,5,9,10,-1,10,9,11,-1,10,11,12,-1,12,13,10,-1,10,13,2,-1,10,2,14,-1,14,2,3,-1,14,3,15,-1,10,14,16,-1,16,14,17,-1,5,10,18,-1,18,10,16,-1,19,6,20,-1,20,6,5,-1,20,5,18,-1,7,6,21,-1,21,6,19,-1,1,7,22,-1,22,7,21,-1,23,3,24,-1,24,3,1,-1,24,1,22,-1,15,3,25,-1,25,3,23,-1,14,15,17,-1,17,15,25,-1,0,2,26,-1,26,2,27,-1,2,13,27,-1,27,13,28,-1,11,29,30,-1,11,30,12,-1,12,30,28,-1,12,28,13,-1,11,9,29,-1,29,9,31,-1,4,32,33,-1,4,33,8,-1,8,33,31,-1,8,31,9,-1,4,0,32,-1,32,0,26,-1,
        ]
    }
}
Shape{
    appearance Appearance {
        material  Material 	{
            diffuseColor 0.25098039215686274 0.25098039215686274 0.25098039215686274
            specularColor 0.12549019607843137 0.12549019607843137 0.12549019607843137
            ambientIntensity 0.251
            transparency 0.0
            shininess 0.5
        }
    }
    geometry IndexedFaceSet {
        ccw TRUE
        solid FALSE
        coord DEF co Coordinate {
            point [
                -0.1205 -0.0952 0.1614, -0.1206 -0.0952 0.1614, -0.1204 -0.0958 0.1614, -0.1207 -0.0958 0.1614, -0.1203 -0.0962 0.1614, -0.1208 -0.0962 0.1614, -0.1183 -0.1017 0.1614, -0.1228 -0.1017 0.1614
            ]
        }
        coordIndex [
            0,1,2,-1,2,1,3,-1,2,3,4,-1,4,3,5,-1,4,5,6,-1,6,5,7,-1,
        ]
    }
}
Shape{
    appearance Appearance {
        material  Material 	{
            diffuseColor 0.7529411764705882 0.7529411764705882 0.7529411764705882
            specularColor 0.3764705882352941 0.3764705882352941 0.3764705882352941
            ambientIntensity 0.7529
            transparency 0.0
            shininess 0.5
        }
    }
    geometry IndexedFaceSet {
        ccw TRUE
        solid FALSE
        coord DEF co Coordinate {
            point [
                -0.1609 -0.1265 0.1654, -0.1609 -0.128 0.1654, -0.1609 -0.1265 0.1614, -0.1609 -0.128 0.1614, -0.1664 -0.1265 0.1654, -0.1664 -0.1265 0.1614, -0.1664 -0.122 0.1654, -0.1664 -0.122 0.1614, -0.1616 -0.122 0.1654, -0.1616 -0.122 0.1614, -0.1616 -0.1205 0.1654, -0.1616 -0.1205 0.1614, -0.1664 -0.1205 0.1654, -0.1664 -0.1205 0.1614, -0.1664 -0.1162 0.1654, -0.1664 -0.1162 0.1614, -0.1612 -0.1162 0.1654, -0.1612 -0.1162 0.1614, -0.1612 -0.1147 0.1654, -0.1612 -0.1147 0.1614, -0.1681 -0.1147 0.1654, -0.1681 -0.1147 0.1614, -0.1681 -0.128 0.1654, -0.1681 -0.128 0.1614, -0.1533 -0.128 0.1654, -0.1516 -0.128 0.1654, -0.1533 -0.1266 0.1654, -0.1516 -0.1219 0.1654, -0.1534 -0.1266 0.1654, -0.1542 -0.1263 0.1654, -0.1537 -0.127 0.1654, -0.1547 -0.1266 0.1654, -0.1566 -0.1238 0.1654, -0.1555 -0.1236 0.1654, -0.1533 -0.1233 0.1654, -0.1533 -0.1242 0.1654, -0.1533 -0.1243 0.1654, -0.1534 -0.125 0.1654, -0.1537 -0.1256 0.1654, -0.154 -0.1261 0.1654, -0.1539 -0.1184 0.1654, -0.1543 -0.1198 0.1654, -0.1533 -0.1186 0.1654, -0.154 -0.12 0.1654, -0.157 -0.124 0.1654, -0.1533 -0.122 0.1654, -0.1534 -0.1212 0.1654, -0.1518 -0.1205 0.1654, -0.1535 -0.1206 0.1654, -0.1521 -0.1198 0.1654, -0.1537 -0.1203 0.1654, -0.1524 -0.1193 0.1654, -0.1527 -0.119 0.1654, -0.1584 -0.1192 0.1654, -0.1584 -0.1208 0.1654, -0.158 -0.119 0.1654, -0.1572 -0.1201 0.1654, -0.1568 -0.1185 0.1654, -0.1562 -0.1197 0.1654, -0.1551 -0.1183 0.1654, -0.1552 -0.1196 0.1654, -0.1547 -0.1197 0.1654, -0.1573 -0.1263 0.1654, -0.1585 -0.1275 0.1654, -0.1571 -0.1265 0.1654, -0.1579 -0.1279 0.1654, -0.1568 -0.1267 0.1654, -0.1573 -0.1281 0.1654, -0.1564 -0.1268 0.1654, -0.1563 -0.1283 0.1654, -0.1558 -0.1269 0.1654, -0.1554 -0.1282 0.1654, -0.1552 -0.1268 0.1654, -0.1547 -0.1279 0.1654, -0.1542 -0.1276 0.1654, -0.1561 -0.1224 0.1654, -0.1575 -0.1227 0.1654, -0.1572 -0.1241 0.1654, -0.1582 -0.1231 0.1654, -0.1574 -0.1244 0.1654, -0.1587 -0.1236 0.1654, -0.1575 -0.1247 0.1654, -0.159 -0.1241 0.1654, -0.1576 -0.1251 0.1654, -0.1592 -0.1247 0.1654, -0.1576 -0.1253 0.1654, -0.1593 -0.1255 0.1654, -0.1576 -0.1257 0.1654, -0.1592 -0.1263 0.1654, -0.1575 -0.126 0.1654, -0.159 -0.1269 0.1654, -0.1586 -0.1274 0.1654, -0.1551 -0.1183 0.1614, -0.1568 -0.1185 0.1614, -0.158 -0.119 0.1614, -0.1584 -0.1192 0.1614, -0.1584 -0.1208 0.1614, -0.1572 -0.1201 0.1614, -0.1562 -0.1197 0.1614, -0.1552 -0.1196 0.1614, -0.1547 -0.1197 0.1614, -0.1543 -0.1198 0.1614, -0.154 -0.12 0.1614, -0.1537 -0.1203 0.1614, -0.1535 -0.1206 0.1614, -0.1534 -0.1212 0.1614, -0.1533 -0.122 0.1614, -0.1561 -0.1224 0.1614, -0.1575 -0.1227 0.1614, -0.1582 -0.1231 0.1614, -0.1587 -0.1236 0.1614, -0.159 -0.1241 0.1614, -0.1592 -0.1247 0.1614, -0.1593 -0.1255 0.1614, -0.1592 -0.1263 0.1614, -0.159 -0.1269 0.1614, -0.1586 -0.1274 0.1614, -0.1585 -0.1275 0.1614, -0.1579 -0.1279 0.1614, -0.1573 -0.1281 0.1614, -0.1563 -0.1283 0.1614, -0.1554 -0.1282 0.1614, -0.1554 -0.1281 0.1614, -0.1547 -0.1279 0.1614, -0.1542 -0.1276 0.1614, -0.1537 -0.127 0.1614, -0.1534 -0.1266 0.1614, -0.1533 -0.1266 0.1614, -0.1533 -0.128 0.1614, -0.1516 -0.128 0.1614, -0.1516 -0.1219 0.1614, -0.1518 -0.1205 0.1614, -0.1521 -0.1198 0.1614, -0.1524 -0.1193 0.1614, -0.1527 -0.119 0.1614, -0.1533 -0.1186 0.1614, -0.1539 -0.1184 0.1614, -0.1572 -0.1241 0.1614, -0.157 -0.124 0.1614, -0.1566 -0.1238 0.1614, -0.1555 -0.1236 0.1614, -0.1576 -0.1253 0.1614, -0.1576 -0.1251 0.1614, -0.1575 -0.1247 0.1614, -0.1574 -0.1244 0.1614, -0.1571 -0.1265 0.1614, -0.1573 -0.1263 0.1614, -0.1575 -0.126 0.1614, -0.1576 -0.1257 0.1614, -0.1558 -0.1269 0.1614, -0.1564 -0.1268 0.1614, -0.1568 -0.1267 0.1614, -0.154 -0.1261 0.1614, -0.1542 -0.1263 0.1614, -0.1547 -0.1266 0.1614, -0.1552 -0.1268 0.1614, -0.1533 -0.1242 0.1614, -0.1533 -0.1243 0.1614, -0.1534 -0.125 0.1614, -0.1537 -0.1256 0.1614, -0.1533 -0.1233 0.1614
            ]
        }
        coordIndex [
            0,1,2,-1,2,1,3,-1,4,0,5,-1,5,0,2,-1,6,4,7,-1,7,4,5,-1,8,6,9,-1,9,6,7,-1,10,8,11,-1,11,8,9,-1,12,10,13,-1,13,10,11,-1,14,12,15,-1,15,12,13,-1,16,14,17,-1,17,14,15,-1,18,16,19,-1,19,16,17,-1,20,18,21,-1,21,18,19,-1,22,20,23,-1,23,20,21,-1,1,22,3,-1,3,22,23,-1,22,1,0,-1,0,4,22,-1,22,4,6,-1,22,6,20,-1,16,18,14,-1,14,18,20,-1,14,20,12,-1,12,20,6,-1,12,6,10,-1,10,6,8,-1,24,25,26,-1,26,25,27,-1,28,29,30,-1,30,29,31,-1,32,33,27,-1,27,33,34,-1,27,34,35,-1,35,36,27,-1,27,36,37,-1,27,37,26,-1,26,37,38,-1,26,38,28,-1,28,38,39,-1,28,39,29,-1,40,41,42,-1,42,41,43,-1,44,32,45,-1,45,32,27,-1,45,27,46,-1,46,27,47,-1,46,47,48,-1,48,47,49,-1,48,49,50,-1,50,49,51,-1,50,51,43,-1,43,51,52,-1,43,52,42,-1,53,54,55,-1,55,54,56,-1,55,56,57,-1,57,56,58,-1,57,58,59,-1,59,58,60,-1,59,60,40,-1,40,60,61,-1,40,61,41,-1,62,63,64,-1,64,63,65,-1,64,65,66,-1,66,65,67,-1,66,67,68,-1,68,67,69,-1,68,69,70,-1,70,69,71,-1,70,71,72,-1,72,71,73,-1,72,73,31,-1,31,73,74,-1,31,74,30,-1,45,75,44,-1,44,75,76,-1,44,76,77,-1,77,76,78,-1,77,78,79,-1,79,78,80,-1,79,80,81,-1,81,80,82,-1,81,82,83,-1,83,82,84,-1,83,84,85,-1,85,84,86,-1,85,86,87,-1,87,86,88,-1,87,88,89,-1,89,88,90,-1,89,90,62,-1,62,90,91,-1,62,91,63,-1,59,92,93,-1,59,93,57,-1,57,93,94,-1,57,94,55,-1,55,94,95,-1,55,95,53,-1,54,53,96,-1,96,53,95,-1,54,96,97,-1,54,97,56,-1,56,97,98,-1,56,98,58,-1,58,98,99,-1,58,99,60,-1,60,99,100,-1,60,100,61,-1,61,100,101,-1,61,101,41,-1,41,101,102,-1,41,102,43,-1,43,102,103,-1,43,103,50,-1,50,103,104,-1,50,104,48,-1,48,104,105,-1,48,105,46,-1,46,105,106,-1,46,106,45,-1,75,45,107,-1,107,45,106,-1,75,107,108,-1,75,108,76,-1,76,108,109,-1,76,109,78,-1,78,109,110,-1,78,110,80,-1,80,110,111,-1,80,111,82,-1,82,111,112,-1,82,112,84,-1,84,112,113,-1,84,113,86,-1,86,113,114,-1,86,114,88,-1,88,114,115,-1,88,115,90,-1,90,115,116,-1,90,116,91,-1,91,116,117,-1,91,117,63,-1,63,117,118,-1,63,118,65,-1,65,118,119,-1,65,119,67,-1,67,119,120,-1,67,120,69,-1,69,120,121,-1,69,121,71,-1,71,121,122,-1,71,122,73,-1,122,123,73,-1,73,123,124,-1,73,124,74,-1,74,124,125,-1,74,125,30,-1,30,125,126,-1,30,126,28,-1,26,28,127,-1,127,28,126,-1,24,26,128,-1,128,26,127,-1,25,24,129,-1,129,24,128,-1,27,25,130,-1,130,25,129,-1,27,130,131,-1,27,131,47,-1,47,131,132,-1,47,132,49,-1,49,132,133,-1,49,133,51,-1,51,133,134,-1,51,134,52,-1,52,134,135,-1,52,135,42,-1,42,135,136,-1,42,136,40,-1,40,136,92,-1,40,92,59,-1,77,137,138,-1,77,138,44,-1,44,138,139,-1,44,139,32,-1,32,139,140,-1,32,140,33,-1,85,141,142,-1,85,142,83,-1,83,142,143,-1,83,143,81,-1,81,143,144,-1,81,144,79,-1,79,144,137,-1,79,137,77,-1,64,145,146,-1,64,146,62,-1,62,146,147,-1,62,147,89,-1,89,147,148,-1,89,148,87,-1,87,148,141,-1,87,141,85,-1,70,149,150,-1,70,150,68,-1,68,150,151,-1,68,151,66,-1,66,151,145,-1,66,145,64,-1,39,152,153,-1,39,153,29,-1,29,153,154,-1,29,154,31,-1,31,154,155,-1,31,155,72,-1,72,155,149,-1,72,149,70,-1,35,156,157,-1,35,157,36,-1,36,157,158,-1,36,158,37,-1,37,158,159,-1,37,159,38,-1,38,159,152,-1,38,152,39,-1,35,34,156,-1,156,34,160,-1,34,33,160,-1,160,33,140,-1,
        ]
    }
}
Shape{
    appearance Appearance {
        material  Material 	{
            diffuseColor 0.25098039215686274 0.25098039215686274 0.25098039215686274
            specularColor 0.12549019607843137 0.12549019607843137 0.12549019607843137
            ambientIntensity 0.251
            transparency 0.0
            shininess 0.5
        }
    }
    geometry IndexedFaceSet {
        ccw TRUE
        solid FALSE
        coord DEF co Coordinate {
            point [
                -0.1533 -0.1243 0.1614, -0.1533 -0.1242 0.1614, -0.1572 -0.1241 0.1614, -0.1533 -0.1233 0.1614, -0.1555 -0.1236 0.1614, -0.1566 -0.1238 0.1614, -0.157 -0.124 0.1614, -0.1534 -0.125 0.1614, -0.1574 -0.1244 0.1614, -0.1537 -0.1256 0.1614, -0.1573 -0.1263 0.1614, -0.1571 -0.1265 0.1614, -0.1542 -0.1263 0.1614, -0.1575 -0.126 0.1614, -0.1547 -0.1266 0.1614, -0.1552 -0.1268 0.1614, -0.1558 -0.1269 0.1614, -0.1575 -0.1247 0.1614, -0.1576 -0.1251 0.1614, -0.154 -0.1261 0.1614, -0.1576 -0.1253 0.1614, -0.1576 -0.1257 0.1614, -0.1568 -0.1267 0.1614, -0.1564 -0.1268 0.1614
            ]
        }
        coordIndex [
            0,1,2,-1,1,3,4,-1,4,5,1,-1,1,5,6,-1,1,6,2,-1,0,2,7,-1,7,2,8,-1,7,8,9,-1,10,11,12,-1,10,12,13,-1,14,12,15,-1,15,12,16,-1,8,17,9,-1,9,17,18,-1,9,18,19,-1,19,18,20,-1,19,20,12,-1,12,20,21,-1,12,21,13,-1,11,22,12,-1,12,22,23,-1,12,23,16,-1,
        ]
    }
}
Shape{
    appearance Appearance {
        material  Material 	{
            diffuseColor 0.7529411764705882 0.7529411764705882 0.7529411764705882
            specularColor 0.3764705882352941 0.3764705882352941 0.3764705882352941
            ambientIntensity 0.7529
            transparency 0.0
            shininess 0.5
        }
    }
    geometry IndexedFaceSet {
        ccw TRUE
        solid FALSE
        coord DEF co Coordinate {
            point [
                -0.1494 -0.126 0.1614, -0.1494 -0.126 0.1654, -0.1486 -0.1264 0.1654, -0.1466 -0.1269 0.1654, -0.1466 -0.1269 0.1614, -0.1476 -0.1268 0.1614, -0.1476 -0.1268 0.1654, -0.1486 -0.1264 0.1614, -0.1486 -0.1264 0.1614, -0.1494 -0.1277 0.1654, -0.1494 -0.1277 0.1614, -0.1486 -0.128 0.1614, -0.1482 -0.1281 0.1654, -0.1468 -0.1283 0.1614, -0.1468 -0.1283 0.1654, -0.1479 -0.1281 0.1614, -0.1482 -0.1281 0.1614, -0.1458 -0.1281 0.1614, -0.1453 -0.1281 0.1654, -0.1453 -0.1281 0.1614, -0.1444 -0.1277 0.1614, -0.1444 -0.1277 0.1654, -0.144 -0.1275 0.1614, -0.144 -0.1275 0.1654, -0.1435 -0.1271 0.1614, -0.1435 -0.1271 0.1654, -0.1432 -0.1266 0.1614, -0.1432 -0.1266 0.1654, -0.143 -0.1261 0.1614, -0.143 -0.1261 0.1654, -0.1429 -0.1254 0.1614, -0.1429 -0.1254 0.1654, -0.143 -0.1248 0.1614, -0.143 -0.1248 0.1654, -0.1432 -0.1243 0.1614, -0.1432 -0.1243 0.1654, -0.1435 -0.1239 0.1614, -0.1435 -0.1239 0.1654, -0.1439 -0.1235 0.1614, -0.1439 -0.1235 0.1654, -0.145 -0.1229 0.1614, -0.145 -0.1229 0.1654, -0.1457 -0.1226 0.1614, -0.1457 -0.1226 0.1654, -0.1467 -0.1222 0.1614, -0.1467 -0.1222 0.1654, -0.1473 -0.1218 0.1614, -0.1473 -0.1218 0.1654, -0.1474 -0.1216 0.1614, -0.1474 -0.1216 0.1654, -0.1476 -0.1214 0.1614, -0.1476 -0.1214 0.1654, -0.1476 -0.1211 0.1614, -0.1476 -0.1211 0.1654, -0.1476 -0.1209 0.1614, -0.1476 -0.1209 0.1654, -0.1476 -0.1207 0.1614, -0.1476 -0.1207 0.1654, -0.1475 -0.1204 0.1614, -0.1475 -0.1204 0.1654, -0.1474 -0.1202 0.1614, -0.1474 -0.1202 0.1654, -0.1471 -0.12 0.1614, -0.1471 -0.12 0.1654, -0.1468 -0.1198 0.1614, -0.1468 -0.1198 0.1654, -0.1463 -0.1197 0.1614, -0.1463 -0.1197 0.1654, -0.1458 -0.1196 0.1614, -0.1458 -0.1196 0.1654, -0.1448 -0.1197 0.1614, -0.1448 -0.1197 0.1654, -0.1439 -0.1201 0.1614, -0.1439 -0.1201 0.1654, -0.1434 -0.1203 0.1614, -0.1434 -0.1203 0.1654, -0.1434 -0.1187 0.1654, -0.1434 -0.1187 0.1614, -0.1445 -0.1184 0.1614, -0.1445 -0.1184 0.1654, -0.1457 -0.1183 0.1614, -0.1457 -0.1183 0.1654, -0.147 -0.1184 0.1614, -0.147 -0.1184 0.1654, -0.1479 -0.1188 0.1614, -0.1479 -0.1188 0.1654, -0.1483 -0.119 0.1614, -0.1483 -0.119 0.1654, -0.1486 -0.1193 0.1614, -0.1488 -0.1195 0.1654, -0.1488 -0.1195 0.1614, -0.1491 -0.1199 0.1614, -0.1491 -0.1199 0.1654, -0.1493 -0.1205 0.1614, -0.1493 -0.1205 0.1654, -0.1494 -0.1211 0.1614, -0.1494 -0.1211 0.1654, -0.1493 -0.1217 0.1614, -0.1493 -0.1217 0.1654, -0.1491 -0.1222 0.1614, -0.1491 -0.1222 0.1654, -0.1489 -0.1226 0.1614, -0.1489 -0.1226 0.1654, -0.1486 -0.1229 0.1614, -0.1486 -0.1229 0.1614, -0.1478 -0.1234 0.1654, -0.1486 -0.1229 0.1654, -0.1478 -0.1234 0.1614, -0.1468 -0.1238 0.1614, -0.1468 -0.1238 0.1654, -0.1457 -0.1243 0.1614, -0.1457 -0.1243 0.1654, -0.1451 -0.1247 0.1614, -0.1451 -0.1247 0.1654, -0.1449 -0.1249 0.1614, -0.1449 -0.1249 0.1654, -0.1447 -0.1251 0.1614, -0.1447 -0.1251 0.1654, -0.1447 -0.1254 0.1614, -0.1447 -0.1254 0.1654, -0.1447 -0.1256 0.1614, -0.1447 -0.1256 0.1654, -0.1447 -0.1259 0.1614, -0.1447 -0.1259 0.1654, -0.1448 -0.1262 0.1614, -0.1448 -0.1262 0.1654, -0.1449 -0.1264 0.1614, -0.1449 -0.1264 0.1654, -0.1451 -0.1265 0.1614, -0.1451 -0.1265 0.1654, -0.1453 -0.1266 0.1614, -0.1453 -0.1266 0.1654, -0.1457 -0.1268 0.1614, -0.1457 -0.1268 0.1654, -0.1466 -0.1269 0.1614, -0.1466 -0.1269 0.1654, -0.1347 -0.1185 0.1654, -0.1329 -0.1185 0.1654, -0.1347 -0.1185 0.1614, -0.1329 -0.1185 0.1614, -0.1373 -0.1257 0.1654, -0.1373 -0.1257 0.1614, -0.1374 -0.1261 0.1614, -0.1374 -0.1261 0.1654, -0.1375 -0.1265 0.1614, -0.1375 -0.1265 0.1654, -0.1375 -0.1265 0.1654, -0.1375 -0.1265 0.1614, -0.1377 -0.1257 0.1654, -0.1377 -0.1257 0.1614, -0.1402 -0.1185 0.1654, -0.1394 -0.1208 0.1614, -0.1402 -0.1185 0.1614, -0.1421 -0.1185 0.1654, -0.1421 -0.1185 0.1614, -0.1383 -0.128 0.1654, -0.1394 -0.1253 0.1614, -0.1383 -0.128 0.1614, -0.1391 -0.1297 0.1614, -0.1391 -0.1297 0.1654, -0.1384 -0.1281 0.1614, -0.1394 -0.1303 0.1614, -0.1394 -0.1304 0.1654, -0.1394 -0.1304 0.1614, -0.1397 -0.1307 0.1614, -0.1397 -0.1307 0.1654, -0.14 -0.1309 0.1614, -0.14 -0.1309 0.1654, -0.1403 -0.131 0.1614, -0.1403 -0.131 0.1654, -0.1408 -0.1311 0.1614, -0.1408 -0.1311 0.1654, -0.1414 -0.131 0.1614, -0.1414 -0.131 0.1654, -0.1417 -0.1309 0.1614, -0.1417 -0.1309 0.1654, -0.1417 -0.1324 0.1654, -0.1417 -0.1324 0.1614, -0.141 -0.1325 0.1614, -0.141 -0.1325 0.1654, -0.1406 -0.1325 0.1614, -0.1406 -0.1325 0.1654, -0.14 -0.1324 0.1614, -0.14 -0.1324 0.1654, -0.1394 -0.1322 0.1614, -0.1393 -0.1322 0.1654, -0.1393 -0.1322 0.1614, -0.1387 -0.1318 0.1614, -0.1387 -0.1318 0.1654, -0.1386 -0.1317 0.1614, -0.1386 -0.1317 0.1654, -0.138 -0.1309 0.1614, -0.138 -0.1309 0.1654, -0.1372 -0.1295 0.1614, -0.1372 -0.1295 0.1654, -0.1367 -0.1281 0.1614, -0.1239 -0.1265 0.1654, -0.1239 -0.128 0.1654, -0.1239 -0.1265 0.1614, -0.1239 -0.128 0.1614, -0.1294 -0.1265 0.1654, -0.1269 -0.1265 0.1614, -0.1294 -0.1265 0.1614, -0.1294 -0.122 0.1654, -0.1294 -0.122 0.1614, -0.1246 -0.122 0.1654, -0.1269 -0.122 0.1614, -0.1246 -0.122 0.1614, -0.1246 -0.1205 0.1654, -0.1246 -0.1205 0.1614, -0.1294 -0.1205 0.1614, -0.1294 -0.1205 0.1654, -0.1269 -0.1205 0.1614, -0.1294 -0.1162 0.1654, -0.1294 -0.1162 0.1614, -0.1242 -0.1162 0.1614, -0.1242 -0.1162 0.1654, -0.1269 -0.1162 0.1614, -0.1242 -0.1147 0.1654, -0.1242 -0.1147 0.1614, -0.1311 -0.1147 0.1614, -0.1311 -0.1147 0.1654, -0.1269 -0.1147 0.1614, -0.1311 -0.128 0.1654, -0.1311 -0.128 0.1614, -0.1269 -0.128 0.1614, -0.1126 -0.1262 0.1654, -0.1139 -0.1253 0.1654, -0.114 -0.1272 0.1654, -0.1148 -0.1259 0.1654, -0.1155 -0.1278 0.1654, -0.1159 -0.1263 0.1654, -0.1178 -0.128 0.1654, -0.1178 -0.1265 0.1654, -0.1214 -0.128 0.1654, -0.1197 -0.1265 0.1654, -0.1214 -0.1147 0.1654, -0.1197 -0.1162 0.1654, -0.1176 -0.1147 0.1654, -0.1177 -0.1162 0.1654, -0.1172 -0.1162 0.1654, -0.1156 -0.1149 0.1654, -0.1158 -0.1165 0.1654, -0.114 -0.1155 0.1654, -0.1146 -0.1169 0.1654, -0.1126 -0.1165 0.1654, -0.1138 -0.1175 0.1654, -0.1121 -0.1169 0.1654, -0.1135 -0.1178 0.1654, -0.1113 -0.1181 0.1654, -0.1129 -0.1186 0.1654, -0.1108 -0.1193 0.1654, -0.1126 -0.1196 0.1654, -0.1106 -0.1212 0.1654, -0.1124 -0.1212 0.1654, -0.1106 -0.122 0.1654, -0.1124 -0.1222 0.1654, -0.1109 -0.1236 0.1654, -0.1127 -0.1234 0.1654, -0.1116 -0.125 0.1654, -0.1132 -0.1244 0.1654, -0.1138 -0.1251 0.1654, -0.1178 -0.128 0.1614, -0.1214 -0.128 0.1614, -0.1155 -0.1278 0.1614, -0.114 -0.1272 0.1614, -0.1126 -0.1262 0.1614, -0.1125 -0.1261 0.1614, -0.1116 -0.125 0.1614, -0.1109 -0.1236 0.1614, -0.1106 -0.122 0.1614, -0.1106 -0.1212 0.1614, -0.1126 -0.1165 0.1614, -0.1125 -0.1165 0.1614, -0.1121 -0.1169 0.1614, -0.1113 -0.1181 0.1614, -0.1108 -0.1193 0.1614, -0.114 -0.1155 0.1614, -0.1156 -0.1149 0.1614, -0.1176 -0.1147 0.1614, -0.1214 -0.1147 0.1614, -0.1177 -0.1162 0.1614, -0.1197 -0.1162 0.1614, -0.1197 -0.1265 0.1614, -0.1178 -0.1265 0.1614, -0.1138 -0.1251 0.1614, -0.1139 -0.1253 0.1614, -0.1148 -0.1259 0.1614, -0.1159 -0.1263 0.1614, -0.1124 -0.1212 0.1614, -0.1124 -0.1222 0.1614, -0.1127 -0.1234 0.1614, -0.1132 -0.1244 0.1614, -0.1138 -0.1175 0.1614, -0.1135 -0.1178 0.1614, -0.1129 -0.1186 0.1614, -0.1126 -0.1196 0.1614, -0.1172 -0.1162 0.1614, -0.1158 -0.1165 0.1614, -0.1146 -0.1169 0.1614
            ]
        }
        coordIndex [
            0,1,2,-1,3,4,5,-1,3,5,6,-1,6,5,7,-1,6,7,2,-1,2,7,8,-1,2,8,0,-1,9,1,10,-1,10,1,0,-1,10,11,9,-1,9,11,12,-1,13,14,15,-1,15,14,12,-1,15,12,16,-1,16,12,11,-1,13,17,14,-1,14,17,18,-1,17,19,18,-1,18,19,20,-1,18,20,21,-1,21,20,22,-1,21,22,23,-1,23,22,24,-1,23,24,25,-1,25,24,26,-1,25,26,27,-1,27,26,28,-1,27,28,29,-1,29,28,30,-1,29,30,31,-1,31,30,32,-1,31,32,33,-1,33,32,34,-1,33,34,35,-1,35,34,36,-1,35,36,37,-1,37,36,38,-1,37,38,39,-1,39,38,40,-1,39,40,41,-1,41,40,42,-1,41,42,43,-1,43,42,44,-1,43,44,45,-1,45,44,46,-1,45,46,47,-1,47,46,48,-1,47,48,49,-1,49,48,50,-1,49,50,51,-1,51,50,52,-1,51,52,53,-1,53,52,54,-1,53,54,55,-1,55,54,56,-1,55,56,57,-1,57,56,58,-1,57,58,59,-1,59,58,60,-1,59,60,61,-1,61,60,62,-1,61,62,63,-1,63,62,64,-1,63,64,65,-1,65,64,66,-1,65,66,67,-1,67,66,68,-1,67,68,69,-1,69,68,70,-1,69,70,71,-1,71,70,72,-1,71,72,73,-1,73,72,74,-1,73,74,75,-1,76,75,77,-1,77,75,74,-1,76,77,78,-1,76,78,79,-1,79,78,80,-1,79,80,81,-1,81,80,82,-1,81,82,83,-1,83,82,84,-1,83,84,85,-1,85,84,86,-1,85,86,87,-1,86,88,87,-1,87,88,89,-1,88,90,89,-1,89,90,91,-1,89,91,92,-1,92,91,93,-1,92,93,94,-1,94,93,95,-1,94,95,96,-1,96,95,97,-1,96,97,98,-1,98,97,99,-1,98,99,100,-1,100,99,101,-1,100,101,102,-1,102,101,103,-1,104,105,103,-1,103,105,106,-1,103,106,102,-1,104,107,105,-1,105,107,108,-1,105,108,109,-1,109,108,110,-1,109,110,111,-1,111,110,112,-1,111,112,113,-1,113,112,114,-1,113,114,115,-1,115,114,116,-1,115,116,117,-1,117,116,118,-1,117,118,119,-1,119,118,120,-1,119,120,121,-1,121,120,122,-1,121,122,123,-1,123,122,124,-1,123,124,125,-1,125,124,126,-1,125,126,127,-1,127,126,128,-1,127,128,129,-1,129,128,130,-1,129,130,131,-1,131,130,132,-1,131,132,133,-1,133,132,134,-1,133,134,135,-1,135,134,4,-1,135,4,3,-1,61,63,85,-1,85,63,83,-1,111,43,109,-1,109,43,45,-1,21,23,127,-1,127,23,25,-1,127,25,125,-1,125,25,27,-1,125,27,123,-1,123,27,29,-1,123,29,121,-1,121,29,31,-1,121,31,119,-1,119,31,33,-1,119,33,117,-1,117,33,35,-1,117,35,115,-1,115,35,37,-1,115,37,113,-1,113,37,39,-1,113,39,111,-1,111,39,41,-1,111,41,43,-1,14,3,12,-1,12,3,6,-1,12,6,9,-1,9,6,2,-1,9,2,1,-1,63,65,83,-1,83,65,67,-1,83,67,81,-1,81,67,69,-1,81,69,79,-1,79,69,71,-1,79,71,76,-1,76,71,73,-1,76,73,75,-1,127,129,21,-1,21,129,131,-1,21,131,18,-1,18,131,133,-1,18,133,14,-1,14,133,135,-1,14,135,3,-1,85,87,61,-1,61,87,89,-1,61,89,59,-1,59,89,92,-1,59,92,57,-1,57,92,94,-1,57,94,55,-1,55,94,96,-1,55,96,53,-1,53,96,98,-1,53,98,51,-1,51,98,100,-1,51,100,49,-1,49,100,102,-1,49,102,47,-1,47,102,106,-1,47,106,45,-1,45,106,105,-1,45,105,109,-1,136,137,138,-1,138,137,139,-1,140,136,141,-1,141,136,138,-1,140,141,142,-1,140,142,143,-1,143,142,144,-1,143,144,145,-1,146,145,147,-1,147,145,144,-1,148,146,149,-1,149,146,147,-1,148,149,150,-1,150,149,151,-1,150,151,152,-1,153,150,154,-1,154,150,152,-1,153,154,155,-1,155,154,156,-1,155,156,157,-1,158,159,160,-1,160,159,155,-1,160,155,157,-1,158,161,159,-1,159,161,162,-1,161,163,162,-1,162,163,164,-1,162,164,165,-1,165,164,166,-1,165,166,167,-1,167,166,168,-1,167,168,169,-1,169,168,170,-1,169,170,171,-1,171,170,172,-1,171,172,173,-1,173,172,174,-1,173,174,175,-1,176,175,177,-1,177,175,174,-1,176,177,178,-1,176,178,179,-1,179,178,180,-1,179,180,181,-1,181,180,182,-1,181,182,183,-1,183,182,184,-1,183,184,185,-1,184,186,185,-1,185,186,187,-1,185,187,188,-1,188,187,189,-1,188,189,190,-1,190,189,191,-1,190,191,192,-1,192,191,193,-1,192,193,194,-1,139,137,195,-1,195,137,194,-1,195,194,193,-1,143,145,194,-1,137,136,194,-1,194,136,140,-1,194,140,143,-1,150,153,148,-1,148,153,155,-1,148,155,146,-1,175,176,173,-1,173,176,179,-1,173,179,171,-1,171,179,181,-1,171,181,169,-1,169,181,183,-1,169,183,167,-1,167,183,185,-1,167,185,165,-1,145,146,194,-1,194,146,155,-1,194,155,192,-1,155,159,192,-1,192,159,162,-1,192,162,190,-1,190,162,165,-1,190,165,188,-1,188,165,185,-1,196,197,198,-1,198,197,199,-1,196,198,200,-1,200,198,201,-1,200,201,202,-1,203,200,204,-1,204,200,202,-1,203,204,205,-1,205,204,206,-1,205,206,207,-1,208,205,209,-1,209,205,207,-1,210,211,212,-1,212,211,208,-1,212,208,209,-1,213,211,214,-1,214,211,210,-1,215,216,217,-1,217,216,213,-1,217,213,214,-1,218,216,219,-1,219,216,215,-1,220,221,222,-1,222,221,218,-1,222,218,219,-1,223,221,224,-1,224,221,220,-1,223,224,197,-1,197,224,225,-1,197,225,199,-1,223,197,196,-1,196,200,223,-1,223,200,203,-1,223,203,221,-1,216,218,213,-1,213,218,221,-1,213,221,211,-1,211,221,203,-1,211,203,208,-1,208,203,205,-1,226,227,228,-1,228,227,229,-1,228,229,230,-1,230,229,231,-1,230,231,232,-1,232,231,233,-1,232,233,234,-1,234,233,235,-1,234,235,236,-1,236,235,237,-1,236,237,238,-1,237,239,238,-1,238,239,240,-1,238,240,241,-1,241,240,242,-1,241,242,243,-1,243,242,244,-1,243,244,245,-1,245,244,246,-1,245,246,247,-1,247,246,248,-1,247,248,249,-1,249,248,250,-1,249,250,251,-1,251,250,252,-1,251,252,253,-1,253,252,254,-1,253,254,255,-1,255,254,256,-1,255,256,257,-1,257,256,258,-1,257,258,259,-1,259,258,260,-1,259,260,226,-1,226,260,261,-1,226,261,227,-1,232,234,262,-1,262,234,263,-1,232,262,264,-1,232,264,230,-1,230,264,265,-1,230,265,228,-1,228,265,266,-1,228,266,226,-1,226,266,267,-1,226,267,259,-1,267,268,259,-1,259,268,269,-1,259,269,257,-1,257,269,270,-1,257,270,255,-1,255,270,271,-1,255,271,253,-1,272,245,273,-1,273,245,247,-1,273,247,274,-1,274,247,249,-1,274,249,275,-1,275,249,251,-1,275,251,276,-1,276,251,253,-1,276,253,271,-1,245,272,277,-1,245,277,243,-1,243,277,278,-1,243,278,241,-1,241,278,279,-1,241,279,238,-1,236,238,280,-1,280,238,279,-1,234,236,263,-1,263,236,280,-1,239,237,281,-1,281,237,282,-1,237,235,282,-1,282,235,283,-1,235,233,283,-1,283,233,284,-1,261,285,286,-1,261,286,227,-1,227,286,287,-1,227,287,229,-1,229,287,288,-1,229,288,231,-1,231,288,284,-1,231,284,233,-1,254,289,290,-1,254,290,256,-1,256,290,291,-1,256,291,258,-1,258,291,292,-1,258,292,260,-1,260,292,285,-1,260,285,261,-1,246,293,294,-1,246,294,248,-1,248,294,295,-1,248,295,250,-1,250,295,296,-1,250,296,252,-1,252,296,289,-1,252,289,254,-1,239,281,297,-1,239,297,240,-1,240,297,298,-1,240,298,242,-1,242,298,299,-1,242,299,244,-1,244,299,293,-1,244,293,246,-1,
        ]
    }
}
Shape{
    appearance Appearance {
        material  Material 	{
            diffuseColor 0.25098039215686274 0.25098039215686274 0.25098039215686274
            specularColor 0.12549019607843137 0.12549019607843137 0.12549019607843137
            ambientIntensity 0.251
            transparency 0.0
            shininess 0.5
        }
    }
    geometry IndexedFaceSet {
        ccw TRUE
        solid FALSE
        coord DEF co Coordinate {
            point [
                -0.1177 -0.1162 0.1614, -0.1197 -0.1162 0.1614, -0.1197 -0.1265 0.1614, -0.1127 -0.1234 0.1614, -0.1124 -0.1222 0.1614, -0.1172 -0.1162 0.1614, -0.1178 -0.1265 0.1614, -0.1159 -0.1263 0.1614, -0.1148 -0.1259 0.1614, -0.1139 -0.1253 0.1614, -0.1138 -0.1251 0.1614, -0.1132 -0.1244 0.1614, -0.1138 -0.1175 0.1614, -0.1124 -0.1212 0.1614, -0.1146 -0.1169 0.1614, -0.1158 -0.1165 0.1614, -0.1126 -0.1196 0.1614, -0.1129 -0.1186 0.1614, -0.1135 -0.1178 0.1614
            ]
        }
        coordIndex [
            0,1,2,-1,3,4,5,-1,2,6,0,-1,0,6,7,-1,0,7,8,-1,8,9,0,-1,0,9,10,-1,0,10,5,-1,5,10,11,-1,5,11,3,-1,12,4,13,-1,12,14,4,-1,4,14,15,-1,4,15,5,-1,16,17,13,-1,13,17,18,-1,13,18,12,-1,
        ]
    }
}
Shape{
    appearance Appearance {
        material  Material 	{
            diffuseColor 0.7529411764705882 0.7529411764705882 0.7529411764705882
            specularColor 0.3764705882352941 0.3764705882352941 0.3764705882352941
            ambientIntensity 0.7529
            transparency 0.0
            shininess 0.5
        }
    }
    geometry IndexedFaceSet {
        ccw TRUE
        solid FALSE
        coord DEF co Coordinate {
            point [
                -0.1061 -0.1229 0.1654, -0.1066 -0.1244 0.1654, -0.1016 -0.1229 0.1654, -0.1011 -0.1244 0.1654, -0.1041 -0.1173 0.1654, -0.1047 -0.1147 0.1654, -0.1098 -0.128 0.1654, -0.1079 -0.128 0.1654, -0.104 -0.1169 0.1654, -0.1039 -0.1164 0.1654, -0.1029 -0.1147 0.1654, -0.1038 -0.1164 0.1654, -0.1037 -0.117 0.1654, -0.1036 -0.1173 0.1654, -0.0978 -0.128 0.1654, -0.0997 -0.128 0.1654, -0.1029 -0.1147 0.1614, -0.0978 -0.128 0.1614, -0.1047 -0.1147 0.1614, -0.1098 -0.128 0.1614, -0.1079 -0.128 0.1614, -0.1066 -0.1244 0.1614, -0.1011 -0.1244 0.1614, -0.0997 -0.128 0.1614, -0.1061 -0.1229 0.1614, -0.1016 -0.1229 0.1614, -0.1036 -0.1173 0.1614, -0.1038 -0.1164 0.1614, -0.1037 -0.117 0.1614, -0.1039 -0.1164 0.1614, -0.1041 -0.1173 0.1614, -0.104 -0.1169 0.1614
            ]
        }
        coordIndex [
            0,1,2,-1,2,1,3,-1,4,5,0,-1,0,5,6,-1,0,6,1,-1,1,6,7,-1,4,8,5,-1,5,8,9,-1,5,9,10,-1,10,9,11,-1,10,11,12,-1,12,13,10,-1,10,13,2,-1,10,2,14,-1,14,2,3,-1,14,3,15,-1,10,14,16,-1,16,14,17,-1,5,10,18,-1,18,10,16,-1,6,5,19,-1,19,5,18,-1,7,6,20,-1,20,6,19,-1,1,7,21,-1,21,7,20,-1,3,1,22,-1,22,1,21,-1,15,3,23,-1,23,3,22,-1,14,15,17,-1,17,15,23,-1,0,2,24,-1,24,2,25,-1,2,13,25,-1,25,13,26,-1,11,27,28,-1,11,28,12,-1,12,28,26,-1,12,26,13,-1,11,9,27,-1,27,9,29,-1,4,30,31,-1,4,31,8,-1,8,31,29,-1,8,29,9,-1,4,0,30,-1,30,0,24,-1,
        ]
    }
}
Shape{
    appearance Appearance {
        material  Material 	{
            diffuseColor 0.25098039215686274 0.25098039215686274 0.25098039215686274
            specularColor 0.12549019607843137 0.12549019607843137 0.12549019607843137
            ambientIntensity 0.251
            transparency 0.0
            shininess 0.5
        }
    }
    geometry IndexedFaceSet {
        ccw TRUE
        solid FALSE
        coord DEF co Coordinate {
            point [
                -0.1038 -0.1164 0.1614, -0.1039 -0.1164 0.1614, -0.1037 -0.117 0.1614, -0.104 -0.1169 0.1614, -0.1036 -0.1173 0.1614, -0.1041 -0.1173 0.1614, -0.1016 -0.1229 0.1614, -0.1061 -0.1229 0.1614
            ]
        }
        coordIndex [
            0,1,2,-1,2,1,3,-1,2,3,4,-1,4,3,5,-1,4,5,6,-1,6,5,7,-1,
        ]
    }
}
Shape{
    appearance Appearance {
        material  Material 	{
            diffuseColor 0.7529411764705882 0.7529411764705882 0.7529411764705882
            specularColor 0.3764705882352941 0.3764705882352941 0.3764705882352941
            ambientIntensity 0.7529
            transparency 0.0
            shininess 0.5
        }
    }
    geometry IndexedFaceSet {
        ccw TRUE
        solid FALSE
        coord DEF co Coordinate {
            point [
                -0.227 -0.1299 0.1654, -0.2256 -0.1317 0.1654, -0.2279 -0.1215 0.1654, -0.1936 -0.1049 0.1654, -0.193 -0.1075 0.1654, -0.1884 -0.1024 0.1654, -0.2295 -0.105 0.1654, -0.2274 -0.1039 0.1654, -0.2277 -0.098 0.1654, -0.2095 -0.1249 0.1654, -0.2095 -0.1239 0.1654, -0.2175 -0.1216 0.1654, -0.2184 -0.1213 0.1654, -0.2242 -0.0976 0.1654, -0.2161 -0.1228 0.1654, -0.2156 -0.1235 0.1654, -0.2095 -0.1258 0.1654, -0.1962 -0.1169 0.1654, -0.1991 -0.1119 0.1654, -0.2118 -0.1185 0.1654, -0.219 -0.1212 0.1654, -0.2199 -0.1213 0.1654, -0.2212 -0.1156 0.1654, -0.2207 -0.1217 0.1654, -0.2233 -0.1164 0.1654, -0.2215 -0.1222 0.1654, -0.2253 -0.1177 0.1654, -0.2221 -0.1228 0.1654, -0.2268 -0.1195 0.1654, -0.2225 -0.1237 0.1654, -0.2227 -0.1246 0.1654, -0.2299 -0.1203 0.1654, -0.2294 -0.1275 0.1654, -0.228 -0.1279 0.1654, -0.2167 -0.1221 0.1654, -0.2214 -0.1278 0.1654, -0.2206 -0.1283 0.1654, -0.2237 -0.1331 0.1654, -0.2197 -0.1286 0.1654, -0.2155 -0.1159 0.1654, -0.2178 -0.1153 0.1654, -0.219 -0.1153 0.1654, -0.1923 -0.1075 0.1654, -0.1905 -0.1077 0.1654, -0.1879 -0.1025 0.1654, -0.1888 -0.1084 0.1654, -0.1851 -0.1039 0.1654, -0.1825 -0.1061 0.1654, -0.2129 -0.0973 0.1654, -0.2178 -0.0936 0.1654, -0.2155 -0.0992 0.1654, -0.22 -0.0955 0.1654, -0.2176 -0.1017 0.1654, -0.222 -0.0978 0.1654, -0.219 -0.1047 0.1654, -0.2251 -0.1034 0.1654, -0.2241 -0.1033 0.1654, -0.2231 -0.0977 0.1654, -0.2219 -0.1036 0.1654, -0.2197 -0.1044 0.1654, -0.1825 -0.1238 0.1654, -0.1869 -0.12 0.1654, -0.1851 -0.126 0.1654, -0.1883 -0.1212 0.1654, -0.188 -0.1274 0.1654, -0.19 -0.122 0.1654, -0.1912 -0.1281 0.1654, -0.1917 -0.1223 0.1654, -0.1967 -0.1281 0.1654, -0.196 -0.1223 0.1654, -0.1973 -0.128 0.1654, -0.2333 -0.1105 0.1654, -0.2395 -0.1119 0.1654, -0.2336 -0.1128 0.1654, -0.2395 -0.113 0.1654, -0.2335 -0.1143 0.1654, -0.2391 -0.1166 0.1654, -0.2328 -0.1166 0.1654, -0.2378 -0.1201 0.1654, -0.2316 -0.1185 0.1654, -0.2356 -0.1233 0.1654, -0.2328 -0.1257 0.1654, -0.222 -0.1271 0.1654, -0.2225 -0.1264 0.1654, -0.2227 -0.1255 0.1654, -0.2135 -0.117 0.1654, -0.1874 -0.1094 0.1654, -0.1863 -0.1106 0.1654, -0.1806 -0.1088 0.1654, -0.1854 -0.1122 0.1654, -0.1794 -0.1117 0.1654, -0.1849 -0.1141 0.1654, -0.179 -0.1148 0.1654, -0.1849 -0.1149 0.1654, -0.1794 -0.1182 0.1654, -0.1851 -0.1167 0.1654, -0.1806 -0.1212 0.1654, -0.1858 -0.1184 0.1654, -0.1868 -0.1199 0.1654, -0.2313 -0.0994 0.1654, -0.2343 -0.1015 0.1654, -0.2312 -0.1065 0.1654, -0.2351 -0.1022 0.1654, -0.2325 -0.1084 0.1654, -0.2373 -0.105 0.1654, -0.2388 -0.1084 0.1654, -0.1951 -0.1018 0.1654, -0.1901 -0.0989 0.1654, -0.1972 -0.0992 0.1654, -0.1931 -0.0953 0.1654, -0.1975 -0.099 0.1654, -0.1935 -0.0949 0.1654, -0.2001 -0.0972 0.1654, -0.1978 -0.092 0.1654, -0.2031 -0.096 0.1654, -0.2025 -0.0903 0.1654, -0.2063 -0.0956 0.1654, -0.2064 -0.0899 0.1654, -0.2098 -0.0961 0.1654, -0.2104 -0.0904 0.1654, -0.2149 -0.0919 0.1654, -0.1965 -0.1222 0.1654, -0.1987 -0.1271 0.1654, -0.1985 -0.1273 0.1654, -0.2154 -0.1244 0.1654, -0.2154 -0.1253 0.1654, -0.2101 -0.1282 0.1654, -0.2156 -0.1262 0.1654, -0.2112 -0.1303 0.1654, -0.216 -0.1271 0.1654, -0.2127 -0.1319 0.1654, -0.2166 -0.1277 0.1654, -0.2145 -0.1332 0.1654, -0.2174 -0.1282 0.1654, -0.2167 -0.1341 0.1654, -0.2182 -0.1286 0.1654, -0.219 -0.1343 0.1654, -0.219 -0.1286 0.1654, -0.2193 -0.1343 0.1654, -0.2216 -0.134 0.1654, -0.1962 -0.1223 0.1654, -0.1979 -0.1277 0.1654, -0.1995 -0.1251 0.1654, -0.1994 -0.1258 0.1654, -0.1992 -0.1265 0.1654, -0.1973 -0.1223 0.1654, -0.1979 -0.1225 0.1654, -0.1995 -0.1248 0.1654, -0.1985 -0.123 0.1654, -0.1989 -0.1234 0.1654, -0.1993 -0.124 0.1654, -0.1966 -0.1222 0.1654, -0.179 -0.1148 0.1614, -0.1794 -0.1117 0.1614, -0.1798 -0.1109 0.1614, -0.1806 -0.1088 0.1614, -0.1819 -0.107 0.1614, -0.1825 -0.1061 0.1614, -0.1851 -0.1039 0.1614, -0.1879 -0.1025 0.1614, -0.1884 -0.1024 0.1614, -0.1901 -0.0989 0.1614, -0.1931 -0.0953 0.1614, -0.1935 -0.0949 0.1614, -0.1957 -0.0934 0.1614, -0.1978 -0.092 0.1614, -0.2025 -0.0903 0.1614, -0.2064 -0.0899 0.1614, -0.2178 -0.0936 0.1614, -0.2174 -0.0934 0.1614, -0.2149 -0.0919 0.1614, -0.2104 -0.0904 0.1614, -0.22 -0.0955 0.1614, -0.222 -0.0978 0.1614, -0.2231 -0.0977 0.1614, -0.2242 -0.0976 0.1614, -0.2277 -0.098 0.1614, -0.2313 -0.0994 0.1614, -0.2343 -0.1015 0.1614, -0.2351 -0.1022 0.1614, -0.2395 -0.113 0.1614, -0.2373 -0.105 0.1614, -0.2382 -0.107 0.1614, -0.2388 -0.1084 0.1614, -0.2393 -0.1109 0.1614, -0.2395 -0.1119 0.1614, -0.2391 -0.1166 0.1614, -0.2378 -0.1201 0.1614, -0.2356 -0.1233 0.1614, -0.2328 -0.1257 0.1614, -0.2294 -0.1275 0.1614, -0.228 -0.1279 0.1614, -0.2278 -0.1281 0.1614, -0.227 -0.1299 0.1614, -0.2256 -0.1317 0.1614, -0.2237 -0.1331 0.1614, -0.2229 -0.1334 0.1614, -0.2216 -0.134 0.1614, -0.2193 -0.1343 0.1614, -0.219 -0.1343 0.1614, -0.2095 -0.1249 0.1614, -0.2167 -0.1341 0.1614, -0.215 -0.1334 0.1614, -0.2145 -0.1332 0.1614, -0.2127 -0.1319 0.1614, -0.2112 -0.1303 0.1614, -0.2101 -0.1282 0.1614, -0.2101 -0.1281 0.1614, -0.2095 -0.1258 0.1614, -0.2095 -0.1239 0.1614, -0.1962 -0.1169 0.1614, -0.1991 -0.1119 0.1614, -0.2118 -0.1185 0.1614, -0.2135 -0.117 0.1614, -0.2155 -0.1159 0.1614, -0.2178 -0.1153 0.1614, -0.219 -0.1153 0.1614, -0.2212 -0.1156 0.1614, -0.2233 -0.1164 0.1614, -0.2253 -0.1177 0.1614, -0.2268 -0.1195 0.1614, -0.2279 -0.1215 0.1614, -0.2299 -0.1203 0.1614, -0.2316 -0.1185 0.1614, -0.2328 -0.1166 0.1614, -0.2335 -0.1143 0.1614, -0.2336 -0.1128 0.1614, -0.2333 -0.1109 0.1614, -0.2333 -0.1105 0.1614, -0.2325 -0.1084 0.1614, -0.2315 -0.107 0.1614, -0.2312 -0.1065 0.1614, -0.2295 -0.105 0.1614, -0.2274 -0.1039 0.1614, -0.2251 -0.1034 0.1614, -0.2241 -0.1033 0.1614, -0.2219 -0.1036 0.1614, -0.2197 -0.1044 0.1614, -0.219 -0.1047 0.1614, -0.2176 -0.1017 0.1614, -0.2155 -0.0992 0.1614, -0.2129 -0.0973 0.1614, -0.2098 -0.0961 0.1614, -0.2063 -0.0956 0.1614, -0.193 -0.1075 0.1614, -0.1932 -0.107 0.1614, -0.1936 -0.1049 0.1614, -0.1951 -0.1018 0.1614, -0.1972 -0.0992 0.1614, -0.1975 -0.099 0.1614, -0.2001 -0.0972 0.1614, -0.2031 -0.096 0.1614, -0.1923 -0.1075 0.1614, -0.1905 -0.1077 0.1614, -0.1888 -0.1084 0.1614, -0.1874 -0.1094 0.1614, -0.1863 -0.1106 0.1614, -0.1861 -0.1109 0.1614, -0.1854 -0.1122 0.1614, -0.1849 -0.1141 0.1614, -0.1849 -0.1149 0.1614, -0.1851 -0.1167 0.1614, -0.1858 -0.1184 0.1614, -0.1868 -0.1199 0.1614, -0.1869 -0.12 0.1614, -0.1883 -0.1212 0.1614, -0.19 -0.122 0.1614, -0.1917 -0.1223 0.1614, -0.196 -0.1223 0.1614, -0.1962 -0.1223 0.1614, -0.1965 -0.1222 0.1614, -0.1966 -0.1222 0.1614, -0.1973 -0.1223 0.1614, -0.1979 -0.1225 0.1614, -0.1985 -0.123 0.1614, -0.1989 -0.1234 0.1614, -0.1993 -0.124 0.1614, -0.1995 -0.1248 0.1614, -0.1995 -0.1251 0.1614, -0.1994 -0.1258 0.1614, -0.1992 -0.1265 0.1614, -0.1987 -0.1271 0.1614, -0.1985 -0.1273 0.1614, -0.1979 -0.1277 0.1614, -0.1973 -0.128 0.1614, -0.1967 -0.1281 0.1614, -0.1912 -0.1281 0.1614, -0.188 -0.1274 0.1614, -0.1851 -0.126 0.1614, -0.1825 -0.1238 0.1614, -0.1806 -0.1212 0.1614, -0.1794 -0.1182 0.1614, -0.219 -0.1212 0.1614, -0.2184 -0.1213 0.1614, -0.2175 -0.1216 0.1614, -0.2167 -0.1221 0.1614, -0.2161 -0.1228 0.1614, -0.2156 -0.1235 0.1614, -0.2154 -0.1244 0.1614, -0.2154 -0.1253 0.1614, -0.2156 -0.1262 0.1614, -0.216 -0.1271 0.1614, -0.2166 -0.1277 0.1614, -0.2174 -0.1282 0.1614, -0.2182 -0.1286 0.1614, -0.219 -0.1286 0.1614, -0.2197 -0.1286 0.1614, -0.2206 -0.1283 0.1614, -0.2214 -0.1278 0.1614, -0.222 -0.1271 0.1614, -0.2225 -0.1264 0.1614, -0.2227 -0.1255 0.1614, -0.2227 -0.1246 0.1614, -0.2225 -0.1237 0.1614, -0.2221 -0.1228 0.1614, -0.2215 -0.1222 0.1614, -0.2207 -0.1217 0.1614, -0.2199 -0.1213 0.1614
            ]
        }
        coordIndex [
            0,1,2,-1,3,4,5,-1,6,7,8,-1,9,10,11,-1,11,10,12,-1,8,7,13,-1,14,15,16,-1,17,18,10,-1,10,18,19,-1,10,19,12,-1,12,19,20,-1,21,22,23,-1,23,22,24,-1,23,24,25,-1,25,24,26,-1,25,26,27,-1,27,26,28,-1,27,28,29,-1,29,28,2,-1,29,2,30,-1,31,32,2,-1,2,32,33,-1,2,33,0,-1,9,11,16,-1,16,11,34,-1,16,34,14,-1,35,1,36,-1,36,1,37,-1,36,37,38,-1,39,40,21,-1,21,40,41,-1,21,41,22,-1,4,42,5,-1,5,42,43,-1,5,43,44,-1,44,43,45,-1,44,45,46,-1,46,45,47,-1,48,49,50,-1,50,49,51,-1,50,51,52,-1,52,51,53,-1,52,53,54,-1,7,55,13,-1,13,55,56,-1,13,56,57,-1,57,56,58,-1,57,58,53,-1,53,58,59,-1,53,59,54,-1,60,61,62,-1,62,61,63,-1,62,63,64,-1,64,63,65,-1,64,65,66,-1,66,65,67,-1,66,67,68,-1,68,67,69,-1,68,69,70,-1,71,72,73,-1,73,72,74,-1,73,74,75,-1,75,74,76,-1,75,76,77,-1,77,76,78,-1,77,78,79,-1,79,78,80,-1,79,80,31,-1,31,80,81,-1,31,81,32,-1,35,82,1,-1,1,82,83,-1,1,83,2,-1,2,83,84,-1,2,84,30,-1,20,19,21,-1,21,19,85,-1,21,85,39,-1,45,86,47,-1,47,86,87,-1,47,87,88,-1,88,87,89,-1,88,89,90,-1,90,89,91,-1,90,91,92,-1,92,91,93,-1,92,93,94,-1,94,93,95,-1,94,95,96,-1,96,95,97,-1,96,97,60,-1,60,97,98,-1,60,98,61,-1,8,99,6,-1,6,99,100,-1,6,100,101,-1,101,100,102,-1,101,102,103,-1,103,102,104,-1,103,104,71,-1,71,104,105,-1,71,105,72,-1,3,5,106,-1,106,5,107,-1,106,107,108,-1,108,107,109,-1,108,109,110,-1,110,109,111,-1,110,111,112,-1,112,111,113,-1,112,113,114,-1,114,113,115,-1,114,115,116,-1,116,115,117,-1,116,117,118,-1,118,117,119,-1,118,119,48,-1,48,119,120,-1,48,120,49,-1,121,122,123,-1,15,124,16,-1,16,124,125,-1,16,125,126,-1,126,125,127,-1,126,127,128,-1,128,127,129,-1,128,129,130,-1,130,129,131,-1,130,131,132,-1,132,131,133,-1,132,133,134,-1,134,133,135,-1,134,135,136,-1,136,135,137,-1,136,137,138,-1,138,137,38,-1,138,38,139,-1,139,38,37,-1,69,140,70,-1,70,140,121,-1,70,121,141,-1,141,121,123,-1,142,143,121,-1,121,143,144,-1,121,144,122,-1,145,146,147,-1,146,148,147,-1,147,148,149,-1,147,149,150,-1,142,121,147,-1,147,121,151,-1,147,151,145,-1,92,152,153,-1,92,153,90,-1,90,153,154,-1,90,154,88,-1,154,155,88,-1,88,155,156,-1,88,156,47,-1,156,157,47,-1,47,157,158,-1,47,158,46,-1,46,158,159,-1,46,159,44,-1,44,159,160,-1,44,160,5,-1,5,160,161,-1,5,161,107,-1,107,161,162,-1,107,162,109,-1,109,162,163,-1,109,163,111,-1,111,163,113,-1,113,163,164,-1,164,165,113,-1,113,165,166,-1,113,166,115,-1,115,166,167,-1,115,167,117,-1,168,49,169,-1,169,49,120,-1,169,120,170,-1,170,120,119,-1,170,119,171,-1,171,119,117,-1,171,117,167,-1,49,168,172,-1,49,172,51,-1,51,172,173,-1,51,173,53,-1,53,173,174,-1,53,174,57,-1,57,174,175,-1,57,175,13,-1,13,175,176,-1,13,176,8,-1,8,176,177,-1,8,177,99,-1,99,177,178,-1,99,178,100,-1,100,178,179,-1,100,179,102,-1,180,74,72,-1,102,179,181,-1,102,181,104,-1,104,181,182,-1,104,182,105,-1,182,183,105,-1,105,183,184,-1,105,184,72,-1,72,184,185,-1,72,185,180,-1,74,180,186,-1,74,186,76,-1,76,186,187,-1,76,187,78,-1,78,187,188,-1,78,188,80,-1,80,188,189,-1,80,189,81,-1,81,189,190,-1,81,190,32,-1,32,190,191,-1,32,191,33,-1,33,191,192,-1,33,192,0,-1,192,193,0,-1,0,193,194,-1,0,194,1,-1,1,194,195,-1,1,195,37,-1,37,195,196,-1,37,196,139,-1,196,197,139,-1,139,197,198,-1,139,198,138,-1,138,198,199,-1,138,199,136,-1,200,9,16,-1,136,199,201,-1,136,201,134,-1,134,201,202,-1,134,202,132,-1,202,203,132,-1,132,203,204,-1,132,204,130,-1,130,204,205,-1,130,205,128,-1,128,205,206,-1,128,206,126,-1,126,206,207,-1,126,207,16,-1,16,207,208,-1,16,208,200,-1,10,9,209,-1,209,9,200,-1,17,10,210,-1,210,10,209,-1,18,17,211,-1,211,17,210,-1,19,18,212,-1,212,18,211,-1,19,212,213,-1,19,213,85,-1,85,213,214,-1,85,214,39,-1,39,214,215,-1,39,215,40,-1,40,215,216,-1,40,216,41,-1,41,216,217,-1,41,217,22,-1,22,217,218,-1,22,218,24,-1,24,218,219,-1,24,219,26,-1,26,219,220,-1,26,220,28,-1,28,220,221,-1,28,221,2,-1,2,221,222,-1,2,222,31,-1,31,222,223,-1,31,223,79,-1,79,223,224,-1,79,224,77,-1,77,224,225,-1,77,225,75,-1,75,225,226,-1,75,226,73,-1,226,227,73,-1,73,227,71,-1,227,228,71,-1,71,228,229,-1,71,229,103,-1,103,229,230,-1,103,230,101,-1,230,231,101,-1,101,231,232,-1,101,232,6,-1,6,232,233,-1,6,233,7,-1,7,233,234,-1,7,234,55,-1,55,234,235,-1,55,235,56,-1,56,235,236,-1,56,236,58,-1,58,236,237,-1,58,237,59,-1,59,237,238,-1,59,238,54,-1,54,238,239,-1,54,239,52,-1,52,239,240,-1,52,240,50,-1,50,240,241,-1,50,241,48,-1,48,241,242,-1,48,242,118,-1,118,242,243,-1,118,243,116,-1,244,4,245,-1,245,4,3,-1,245,3,246,-1,246,3,106,-1,246,106,247,-1,247,106,108,-1,247,108,248,-1,248,108,110,-1,248,110,249,-1,249,110,112,-1,249,112,250,-1,250,112,114,-1,250,114,251,-1,251,114,116,-1,251,116,243,-1,42,4,252,-1,252,4,244,-1,42,252,253,-1,42,253,43,-1,43,253,254,-1,43,254,45,-1,45,254,255,-1,45,255,86,-1,86,255,256,-1,86,256,87,-1,87,256,257,-1,87,257,89,-1,257,258,89,-1,89,258,259,-1,89,259,91,-1,91,259,260,-1,91,260,93,-1,93,260,261,-1,93,261,95,-1,95,261,262,-1,95,262,97,-1,97,262,263,-1,97,263,98,-1,98,263,264,-1,98,264,61,-1,61,264,265,-1,61,265,63,-1,63,265,266,-1,63,266,65,-1,65,266,267,-1,65,267,67,-1,69,67,268,-1,268,67,267,-1,69,268,269,-1,69,269,140,-1,140,269,270,-1,140,270,121,-1,121,270,271,-1,121,271,151,-1,151,271,272,-1,151,272,145,-1,145,272,273,-1,145,273,146,-1,146,273,274,-1,146,274,148,-1,148,274,275,-1,148,275,149,-1,149,275,276,-1,149,276,150,-1,150,276,277,-1,150,277,147,-1,147,277,278,-1,147,278,142,-1,142,278,279,-1,142,279,143,-1,143,279,280,-1,143,280,144,-1,144,280,281,-1,144,281,122,-1,122,281,282,-1,122,282,123,-1,123,282,283,-1,123,283,141,-1,141,283,284,-1,141,284,70,-1,70,284,285,-1,70,285,68,-1,66,68,286,-1,286,68,285,-1,66,286,287,-1,66,287,64,-1,64,287,288,-1,64,288,62,-1,62,288,289,-1,62,289,60,-1,60,289,290,-1,60,290,96,-1,96,290,291,-1,96,291,94,-1,94,291,152,-1,94,152,92,-1,20,292,293,-1,20,293,12,-1,12,293,294,-1,12,294,11,-1,11,294,295,-1,11,295,34,-1,34,295,296,-1,34,296,14,-1,14,296,297,-1,14,297,15,-1,15,297,298,-1,15,298,124,-1,124,298,299,-1,124,299,125,-1,125,299,300,-1,125,300,127,-1,127,300,301,-1,127,301,129,-1,129,301,302,-1,129,302,131,-1,131,302,303,-1,131,303,133,-1,133,303,304,-1,133,304,135,-1,135,304,305,-1,135,305,137,-1,137,305,306,-1,137,306,38,-1,38,306,307,-1,38,307,36,-1,36,307,308,-1,36,308,35,-1,35,308,309,-1,35,309,82,-1,82,309,310,-1,82,310,83,-1,83,310,311,-1,83,311,84,-1,84,311,312,-1,84,312,30,-1,30,312,313,-1,30,313,29,-1,29,313,314,-1,29,314,27,-1,27,314,315,-1,27,315,25,-1,25,315,316,-1,25,316,23,-1,23,316,317,-1,23,317,21,-1,21,317,292,-1,21,292,20,-1,
        ]
    }
}
Shape{
    appearance Appearance {
        material  Material 	{
            diffuseColor 0.25098039215686274 0.25098039215686274 0.25098039215686274
            specularColor 0.12549019607843137 0.12549019607843137 0.12549019607843137
            ambientIntensity 0.251
            transparency 0.0
            shininess 0.5
        }
    }
    geometry IndexedFaceSet {
        ccw TRUE
        solid FALSE
        coord DEF co Coordinate {
            point [
                -0.2199 -0.1213 0.1614, -0.2197 -0.1286 0.1614, -0.219 -0.1212 0.1614, -0.219 -0.1286 0.1614, -0.2184 -0.1213 0.1614, -0.2182 -0.1286 0.1614, -0.2215 -0.1222 0.1614, -0.222 -0.1271 0.1614, -0.2214 -0.1278 0.1614, -0.2207 -0.1217 0.1614, -0.2206 -0.1283 0.1614, -0.2166 -0.1277 0.1614, -0.2161 -0.1228 0.1614, -0.2167 -0.1221 0.1614, -0.2174 -0.1282 0.1614, -0.2175 -0.1216 0.1614, -0.2225 -0.1237 0.1614, -0.2227 -0.1246 0.1614, -0.2221 -0.1228 0.1614, -0.2227 -0.1255 0.1614, -0.2225 -0.1264 0.1614, -0.2156 -0.1262 0.1614, -0.2154 -0.1253 0.1614, -0.216 -0.1271 0.1614, -0.2154 -0.1244 0.1614, -0.2156 -0.1235 0.1614
            ]
        }
        coordIndex [
            0,1,2,-1,2,1,3,-1,2,3,4,-1,4,3,5,-1,6,7,8,-1,0,9,1,-1,1,9,6,-1,1,6,10,-1,10,6,8,-1,11,12,13,-1,5,14,4,-1,4,14,11,-1,4,11,15,-1,15,11,13,-1,16,17,18,-1,18,17,19,-1,18,19,6,-1,6,19,20,-1,6,20,7,-1,21,22,23,-1,23,22,24,-1,23,24,11,-1,11,24,25,-1,11,25,12,-1,
        ]
    }
}