#VRML V2.0 utf8
# 3D model generated by easyeda2kicad.py (https://github.com/uPesy/easyeda2kicad.py)

Shape{
    appearance Appearance {
        material  Material 	{
            diffuseColor 1.0 1.0 1.0
            specularColor 0.5019607843137255 0.5019607843137255 0.5019607843137255
            ambientIntensity 1.0
            transparency 0.0
            shininess 0.5
        }
    }
    geometry IndexedFaceSet {
        ccw TRUE
        solid FALSE
        coord DEF co Coordinate {
            point [
                -0.1516 0.1378 0.0, -0.1516 0.0984 0.0, -0.1516 0.1378 0.1772, -0.1516 0.0984 0.1772, -0.0453 0.1378 0.0, -0.0453 0.1378 0.1772, -0.0453 0.0984 0.0, -0.0453 0.0984 0.1772, -0.0458 0.0923 0.1772, -0.0458 0.0923 0.0, -0.0472 0.0863 0.1772, -0.0472 0.0863 0.0, -0.0496 0.0806 0.1772, -0.0496 0.0806 0.0, -0.0528 0.0753 0.1772, -0.0528 0.0753 0.0, -0.0568 0.0706 0.1772, -0.0568 0.0706 0.0, -0.0615 0.0666 0.1772, -0.0615 0.0666 0.0, -0.0668 0.0633 0.1772, -0.0668 0.0633 0.0, -0.0725 0.061 0.1772, -0.0725 0.061 0.0, -0.0785 0.0595 0.1772, -0.0785 0.0595 0.0, -0.0846 0.0591 0.1772, -0.0846 0.0591 0.0, -0.1122 0.0591 0.0, -0.1122 0.0591 0.1772, -0.1184 0.0595 0.1772, -0.1184 0.0595 0.0, -0.1244 0.061 0.1772, -0.1244 0.061 0.0, -0.1301 0.0633 0.1772, -0.1301 0.0633 0.0, -0.1353 0.0666 0.1772, -0.1353 0.0666 0.0, -0.14 0.0706 0.1772, -0.14 0.0706 0.0, -0.1441 0.0753 0.1772, -0.1441 0.0753 0.0, -0.1473 0.0806 0.1772, -0.1473 0.0806 0.0, -0.1496 0.0863 0.1772, -0.1496 0.0863 0.0, -0.1511 0.0923 0.1772, -0.1511 0.0923 0.0, 0.1516 0.0984 0.0, 0.1516 0.0984 0.1772, 0.1511 0.0923 0.1772, 0.1511 0.0923 0.0, 0.1496 0.0863 0.1772, 0.1496 0.0863 0.0, 0.1473 0.0806 0.1772, 0.1473 0.0806 0.0, 0.1441 0.0753 0.1772, 0.1441 0.0753 0.0, 0.14 0.0706 0.1772, 0.14 0.0706 0.0, 0.1353 0.0666 0.1772, 0.1353 0.0666 0.0, 0.1301 0.0633 0.1772, 0.1301 0.0633 0.0, 0.1244 0.061 0.1772, 0.1244 0.061 0.0, 0.1184 0.0595 0.1772, 0.1184 0.0595 0.0, 0.1122 0.0591 0.1772, 0.1122 0.0591 0.0, 0.0846 0.0591 0.0, 0.0846 0.0591 0.1772, 0.0785 0.0595 0.1772, 0.0785 0.0595 0.0, 0.0725 0.061 0.1772, 0.0725 0.061 0.0, 0.0668 0.0633 0.1772, 0.0668 0.0633 0.0, 0.0615 0.0666 0.1772, 0.0615 0.0666 0.0, 0.0568 0.0706 0.1772, 0.0568 0.0706 0.0, 0.0528 0.0753 0.1772, 0.0528 0.0753 0.0, 0.0496 0.0806 0.1772, 0.0496 0.0806 0.0, 0.0472 0.0863 0.1772, 0.0472 0.0863 0.0, 0.0458 0.0923 0.1772, 0.0458 0.0923 0.0, 0.0453 0.0984 0.1772, 0.0453 0.0984 0.0, 0.0453 0.1378 0.0, 0.0453 0.1378 0.1772, 0.1516 0.1378 0.0, 0.1516 0.1378 0.1772, 0.0453 -0.0984 0.0, 0.0453 -0.0984 0.1772, 0.0458 -0.0923 0.1772, 0.0458 -0.0923 0.0, 0.0472 -0.0863 0.1772, 0.0472 -0.0863 0.0, 0.0496 -0.0806 0.1772, 0.0496 -0.0806 0.0, 0.0528 -0.0753 0.1772, 0.0528 -0.0753 0.0, 0.0568 -0.0706 0.1772, 0.0568 -0.0706 0.0, 0.0615 -0.0666 0.1772, 0.0615 -0.0666 0.0, 0.0668 -0.0633 0.1772, 0.0668 -0.0633 0.0, 0.0725 -0.061 0.1772, 0.0725 -0.061 0.0, 0.0785 -0.0595 0.1772, 0.0785 -0.0595 0.0, 0.0846 -0.0591 0.1772, 0.0846 -0.0591 0.0, 0.1122 -0.0591 0.0, 0.1122 -0.0591 0.1772, 0.1184 -0.0595 0.1772, 0.1184 -0.0595 0.0, 0.1244 -0.061 0.1772, 0.1244 -0.061 0.0, 0.1301 -0.0633 0.1772, 0.1301 -0.0633 0.0, 0.1353 -0.0666 0.1772, 0.1353 -0.0666 0.0, 0.14 -0.0706 0.1772, 0.14 -0.0706 0.0, 0.1441 -0.0753 0.1772, 0.1441 -0.0753 0.0, 0.1473 -0.0806 0.1772, 0.1473 -0.0806 0.0, 0.1496 -0.0863 0.1772, 0.1496 -0.0863 0.0, 0.1511 -0.0923 0.1772, 0.1511 -0.0923 0.0, 0.1516 -0.0984 0.1772, 0.1516 -0.0984 0.0, 0.1516 -0.1378 0.0, 0.1516 -0.1378 0.1772, 0.0453 -0.1378 0.0, 0.0453 -0.1378 0.1772, -0.1516 -0.0984 0.0, -0.1516 -0.0984 0.1772, -0.1511 -0.0923 0.1772, -0.1511 -0.0923 0.0, -0.1496 -0.0863 0.1772, -0.1496 -0.0863 0.0, -0.1473 -0.0806 0.1772, -0.1473 -0.0806 0.0, -0.1441 -0.0753 0.1772, -0.1441 -0.0753 0.0, -0.14 -0.0706 0.1772, -0.14 -0.0706 0.0, -0.1353 -0.0666 0.1772, -0.1353 -0.0666 0.0, -0.1301 -0.0633 0.1772, -0.1301 -0.0633 0.0, -0.1244 -0.061 0.1772, -0.1244 -0.061 0.0, -0.1184 -0.0595 0.1772, -0.1184 -0.0595 0.0, -0.1122 -0.0591 0.1772, -0.1122 -0.0591 0.0, -0.0846 -0.0591 0.0, -0.0846 -0.0591 0.1772, -0.0785 -0.0595 0.1772, -0.0785 -0.0595 0.0, -0.0725 -0.061 0.1772, -0.0725 -0.061 0.0, -0.0668 -0.0633 0.1772, -0.0668 -0.0633 0.0, -0.0615 -0.0666 0.1772, -0.0615 -0.0666 0.0, -0.0568 -0.0706 0.1772, -0.0568 -0.0706 0.0, -0.0528 -0.0753 0.1772, -0.0528 -0.0753 0.0, -0.0496 -0.0806 0.1772, -0.0496 -0.0806 0.0, -0.0472 -0.0863 0.1772, -0.0472 -0.0863 0.0, -0.0458 -0.0923 0.1772, -0.0458 -0.0923 0.0, -0.0453 -0.0984 0.1772, -0.0453 -0.0984 0.0, -0.0453 -0.1378 0.0, -0.0453 -0.1378 0.1772, -0.1516 -0.1378 0.0, -0.1516 -0.1378 0.1772
            ]
        }
        coordIndex [
            0,1,2,-1,2,1,3,-1,4,0,5,-1,5,0,2,-1,6,4,7,-1,7,4,5,-1,6,7,8,-1,6,8,9,-1,9,8,10,-1,9,10,11,-1,11,10,12,-1,11,12,13,-1,13,12,14,-1,13,14,15,-1,15,14,16,-1,15,16,17,-1,17,16,18,-1,17,18,19,-1,19,18,20,-1,19,20,21,-1,21,20,22,-1,21,22,23,-1,23,22,24,-1,23,24,25,-1,25,24,26,-1,25,26,27,-1,28,27,29,-1,29,27,26,-1,28,29,30,-1,28,30,31,-1,31,30,32,-1,31,32,33,-1,33,32,34,-1,33,34,35,-1,35,34,36,-1,35,36,37,-1,37,36,38,-1,37,38,39,-1,39,38,40,-1,39,40,41,-1,41,40,42,-1,41,42,43,-1,43,42,44,-1,43,44,45,-1,45,44,46,-1,45,46,47,-1,47,46,3,-1,47,3,1,-1,0,4,1,-1,1,4,6,-1,6,27,1,-1,1,27,28,-1,1,28,47,-1,6,9,27,-1,27,9,11,-1,27,11,13,-1,21,23,19,-1,19,23,17,-1,13,15,27,-1,27,15,17,-1,27,17,25,-1,25,17,23,-1,28,31,47,-1,47,31,33,-1,47,33,35,-1,39,41,43,-1,35,37,47,-1,47,37,39,-1,47,39,45,-1,45,39,43,-1,2,29,5,-1,5,29,26,-1,14,12,10,-1,2,3,29,-1,29,3,46,-1,29,46,30,-1,30,46,32,-1,10,8,26,-1,26,8,7,-1,26,7,5,-1,44,42,46,-1,46,42,40,-1,46,40,38,-1,38,36,46,-1,46,36,34,-1,46,34,32,-1,26,24,10,-1,10,24,22,-1,10,22,20,-1,20,18,10,-1,10,18,16,-1,10,16,14,-1,48,49,50,-1,48,50,51,-1,51,50,52,-1,51,52,53,-1,53,52,54,-1,53,54,55,-1,55,54,56,-1,55,56,57,-1,57,56,58,-1,57,58,59,-1,59,58,60,-1,59,60,61,-1,61,60,62,-1,61,62,63,-1,63,62,64,-1,63,64,65,-1,65,64,66,-1,65,66,67,-1,67,66,68,-1,67,68,69,-1,70,69,71,-1,71,69,68,-1,70,71,72,-1,70,72,73,-1,73,72,74,-1,73,74,75,-1,75,74,76,-1,75,76,77,-1,77,76,78,-1,77,78,79,-1,79,78,80,-1,79,80,81,-1,81,80,82,-1,81,82,83,-1,83,82,84,-1,83,84,85,-1,85,84,86,-1,85,86,87,-1,87,86,88,-1,87,88,89,-1,89,88,90,-1,89,90,91,-1,92,91,93,-1,93,91,90,-1,94,92,95,-1,95,92,93,-1,48,94,49,-1,49,94,95,-1,91,92,70,-1,70,92,69,-1,69,92,94,-1,69,94,48,-1,70,73,91,-1,91,73,75,-1,91,75,77,-1,51,53,59,-1,59,53,55,-1,59,55,57,-1,51,59,48,-1,48,59,61,-1,48,61,63,-1,77,79,91,-1,91,79,81,-1,91,81,83,-1,63,65,48,-1,48,65,67,-1,48,67,69,-1,85,87,83,-1,83,87,89,-1,83,89,91,-1,72,71,90,-1,90,71,93,-1,64,62,49,-1,84,82,86,-1,86,82,88,-1,88,82,90,-1,90,82,80,-1,90,80,78,-1,52,58,54,-1,54,58,56,-1,62,60,49,-1,49,60,58,-1,49,58,50,-1,50,58,52,-1,78,76,90,-1,90,76,74,-1,90,74,72,-1,93,71,95,-1,95,71,68,-1,95,68,49,-1,49,68,66,-1,49,66,64,-1,96,97,98,-1,96,98,99,-1,99,98,100,-1,99,100,101,-1,101,100,102,-1,101,102,103,-1,103,102,104,-1,103,104,105,-1,105,104,106,-1,105,106,107,-1,107,106,108,-1,107,108,109,-1,109,108,110,-1,109,110,111,-1,111,110,112,-1,111,112,113,-1,113,112,114,-1,113,114,115,-1,115,114,116,-1,115,116,117,-1,118,117,119,-1,119,117,116,-1,118,119,120,-1,118,120,121,-1,121,120,122,-1,121,122,123,-1,123,122,124,-1,123,124,125,-1,125,124,126,-1,125,126,127,-1,127,126,128,-1,127,128,129,-1,129,128,130,-1,129,130,131,-1,131,130,132,-1,131,132,133,-1,133,132,134,-1,133,134,135,-1,135,134,136,-1,135,136,137,-1,137,136,138,-1,137,138,139,-1,140,139,141,-1,141,139,138,-1,142,140,143,-1,143,140,141,-1,96,142,97,-1,97,142,143,-1,111,113,96,-1,99,101,107,-1,107,101,103,-1,107,103,105,-1,113,115,96,-1,96,115,117,-1,96,117,142,-1,142,117,140,-1,140,117,118,-1,140,118,139,-1,139,118,121,-1,139,121,123,-1,99,107,96,-1,96,107,109,-1,96,109,111,-1,125,127,129,-1,133,135,123,-1,123,135,137,-1,123,137,139,-1,125,129,123,-1,123,129,131,-1,123,131,133,-1,141,119,143,-1,143,119,116,-1,143,116,97,-1,141,138,119,-1,119,138,136,-1,119,136,120,-1,116,114,97,-1,97,114,112,-1,97,112,110,-1,104,102,97,-1,97,102,100,-1,97,100,98,-1,132,130,122,-1,110,108,97,-1,97,108,106,-1,97,106,104,-1,120,136,122,-1,122,136,134,-1,122,134,132,-1,130,128,122,-1,122,128,126,-1,122,126,124,-1,144,145,146,-1,144,146,147,-1,147,146,148,-1,147,148,149,-1,149,148,150,-1,149,150,151,-1,151,150,152,-1,151,152,153,-1,153,152,154,-1,153,154,155,-1,155,154,156,-1,155,156,157,-1,157,156,158,-1,157,158,159,-1,159,158,160,-1,159,160,161,-1,161,160,162,-1,161,162,163,-1,163,162,164,-1,163,164,165,-1,166,165,167,-1,167,165,164,-1,166,167,168,-1,166,168,169,-1,169,168,170,-1,169,170,171,-1,171,170,172,-1,171,172,173,-1,173,172,174,-1,173,174,175,-1,175,174,176,-1,175,176,177,-1,177,176,178,-1,177,178,179,-1,179,178,180,-1,179,180,181,-1,181,180,182,-1,181,182,183,-1,183,182,184,-1,183,184,185,-1,185,184,186,-1,185,186,187,-1,188,187,189,-1,189,187,186,-1,190,188,191,-1,191,188,189,-1,144,190,145,-1,145,190,191,-1,185,187,171,-1,165,190,144,-1,190,165,188,-1,188,165,166,-1,188,166,187,-1,187,166,169,-1,187,169,171,-1,173,175,171,-1,171,175,177,-1,171,177,179,-1,144,147,165,-1,165,147,149,-1,165,149,151,-1,151,153,165,-1,165,153,155,-1,165,155,157,-1,157,159,165,-1,165,159,161,-1,165,161,163,-1,179,181,171,-1,171,181,183,-1,171,183,185,-1,167,186,184,-1,146,145,164,-1,164,145,191,-1,164,191,167,-1,167,191,189,-1,167,189,186,-1,180,178,182,-1,182,178,176,-1,182,176,174,-1,158,164,160,-1,160,164,162,-1,158,156,164,-1,164,156,154,-1,164,154,152,-1,152,150,164,-1,164,150,148,-1,164,148,146,-1,174,172,182,-1,182,172,170,-1,182,170,184,-1,184,170,168,-1,184,168,167,-1,
        ]
    }
}
Shape{
    appearance Appearance {
        material  Material 	{
            diffuseColor 0.25098039215686274 0.25098039215686274 0.25098039215686274
            specularColor 0.12549019607843137 0.12549019607843137 0.12549019607843137
            ambientIntensity 0.251
            transparency 0.0
            shininess 0.5
        }
    }
    geometry IndexedFaceSet {
        ccw TRUE
        solid FALSE
        coord DEF co Coordinate {
            point [
                0.021 0.0118 0.0, 0.0229 0.0116 0.0, 0.0167 -0.0029 0.0, 0.0164 -0.0049 0.0, 0.0145 -0.0061 0.0, 0.0164 -0.0028 0.0, 0.0145 0.1378 0.0, 0.0463 0.0897 0.0, 0.0492 0.0813 0.0, 0.0401 0.0138 0.0, 0.0186 0.0115 0.0, 0.0164 0.0106 0.0, 0.0164 0.0132 0.0, 0.0244 0.0111 0.0, 0.0258 0.0102 0.0, 0.027 0.0089 0.0, 0.0284 0.0037 0.0, 0.0282 0.0016 0.0, 0.0276 -0.0001 0.0, 0.0233 -0.0038 0.0, 0.0214 -0.004 0.0, 0.0247 -0.0033 0.0, 0.0259 -0.0025 0.0, 0.0268 -0.0015 0.0, 0.0188 -0.0037 0.0, 0.0428 -0.0059 0.0, 0.1293 0.063 0.0, 0.1368 0.0676 0.0, 0.0453 0.1378 0.0, 0.0453 0.0984 0.0, 0.03 0.0086 0.0, 0.0288 0.0104 0.0, 0.0278 0.0073 0.0, 0.0283 0.0052 0.0, 0.0539 0.0739 0.0, 0.0601 0.0676 0.0, 0.0428 0.0138 0.0, 0.0676 0.063 0.0, 0.0759 0.06 0.0, 0.1772 -0.0061 0.0, 0.023 -0.0061 0.0, 0.0327 -0.0059 0.0, 0.0242 -0.0059 0.0, 0.0261 -0.0053 0.0, 0.0846 0.0591 0.0, 0.1122 0.0591 0.0, 0.121 0.06 0.0, 0.0277 -0.0043 0.0, 0.0292 -0.0027 0.0, 0.0327 -0.0038 0.0, 0.0302 -0.0008 0.0, 0.0401 -0.0038 0.0, 0.0271 0.0121 0.0, 0.0252 0.0132 0.0, 0.023 0.0138 0.0, 0.143 0.0739 0.0, 0.1477 0.0813 0.0, 0.1772 0.1181 0.0, 0.1506 0.0897 0.0, 0.1516 0.0984 0.0, 0.0308 0.0013 0.0, 0.031 0.0035 0.0, 0.0307 0.0063 0.0, 0.021 0.014 0.0, 0.0187 0.0138 0.0, 0.1516 0.1378 0.0, 0.1575 0.1378 0.0, 0.1626 0.1371 0.0, 0.1673 0.1352 0.0, 0.1714 0.132 0.0, 0.1745 0.128 0.0, 0.1765 0.1232 0.0, 0.1506 -0.0897 0.0, 0.1477 -0.0813 0.0, 0.143 -0.0739 0.0, 0.1368 -0.0676 0.0, 0.1293 -0.063 0.0, 0.0601 -0.0676 0.0, 0.0539 -0.0739 0.0, 0.1516 -0.0984 0.0, 0.1772 -0.1181 0.0, 0.1765 -0.1232 0.0, 0.0185 -0.0058 0.0, 0.0205 -0.0061 0.0, 0.1745 -0.128 0.0, 0.1714 -0.132 0.0, 0.1673 -0.1352 0.0, 0.1626 -0.1371 0.0, 0.1575 -0.1378 0.0, 0.1516 -0.1378 0.0, 0.0213 -0.0062 0.0, 0.0218 -0.0062 0.0, 0.0676 -0.063 0.0, 0.0759 -0.06 0.0, 0.121 -0.06 0.0, 0.1122 -0.0591 0.0, 0.0846 -0.0591 0.0, 0.0492 -0.0813 0.0, 0.0463 -0.0897 0.0, 0.0145 -0.1378 0.0, 0.0453 -0.0984 0.0, 0.0453 -0.1378 0.0, -0.0453 0.0984 0.0, -0.0453 0.1378 0.0, -0.0167 -0.0005 0.0, -0.0156 -0.0023 0.0, -0.0191 -0.0059 0.0, -0.014 -0.0039 0.0, 0.0125 0.0138 0.0, -0.0492 0.0813 0.0, -0.0463 0.0897 0.0, 0.0025 0.0116 0.0, 0.0099 0.0116 0.0, 0.0099 0.0051 0.0, -0.0119 -0.005 0.0, -0.0097 -0.0057 0.0, -0.0072 -0.0059 0.0, 0.002 -0.0059 0.0, 0.0125 -0.0059 0.0, -0.0539 0.0739 0.0, 0.0025 0.0138 0.0, -0.0019 0.0138 0.0, 0.0029 0.0051 0.0, 0.0029 0.0029 0.0, 0.0099 0.0029 0.0, 0.0099 -0.0038 0.0, 0.002 -0.0038 0.0, -0.0019 -0.0059 0.0, -0.1575 0.1378 0.0, -0.1516 0.1378 0.0, -0.1516 0.0984 0.0, -0.1772 -0.0061 0.0, -0.1477 0.0813 0.0, -0.143 0.0739 0.0, -0.0074 0.0138 0.0, -0.0103 0.0134 0.0, -0.0266 0.0138 0.0, -0.0161 0.0096 0.0, -0.017 0.0079 0.0, -0.1745 0.128 0.0, -0.1714 0.132 0.0, -0.1368 0.0676 0.0, -0.1293 0.063 0.0, -0.121 0.06 0.0, -0.0176 0.006 0.0, -0.0177 0.0042 0.0, -0.0174 0.0015 0.0, -0.022 -0.0059 0.0, -0.0126 0.0126 0.0, -0.0147 0.0112 0.0, -0.0147 0.0112 0.0, -0.1506 0.0897 0.0, -0.1772 0.1181 0.0, -0.1765 0.1232 0.0, -0.1673 0.1352 0.0, -0.1626 0.1371 0.0, -0.1122 0.0591 0.0, -0.0369 -0.0059 0.0, -0.034 -0.0059 0.0, -0.032 -0.0004 0.0, -0.0239 -0.0004 0.0, -0.0846 0.0591 0.0, -0.0759 0.06 0.0, -0.0292 0.0138 0.0, -0.0676 0.063 0.0, -0.0601 0.0676 0.0, -0.0463 -0.0897 0.0, -0.0492 -0.0813 0.0, -0.0539 -0.0739 0.0, -0.0601 -0.0676 0.0, -0.0676 -0.063 0.0, -0.0453 -0.0984 0.0, -0.0453 -0.1378 0.0, -0.121 -0.06 0.0, -0.1293 -0.063 0.0, -0.1368 -0.0676 0.0, -0.143 -0.0739 0.0, -0.1477 -0.0813 0.0, -0.1506 -0.0897 0.0, -0.1772 -0.1181 0.0, -0.1516 -0.0984 0.0, -0.1516 -0.1378 0.0, -0.1575 -0.1378 0.0, -0.0759 -0.06 0.0, -0.0846 -0.0591 0.0, -0.1122 -0.0591 0.0, -0.1626 -0.1371 0.0, -0.1673 -0.1352 0.0, -0.1714 -0.132 0.0, -0.1745 -0.128 0.0, -0.1765 -0.1232 0.0, 0.0453 -0.1378 0.1772, -0.0453 -0.1378 0.1772, 0.1575 -0.1378 0.1772, 0.1516 -0.1378 0.1772, -0.0453 0.1378 0.1772, 0.0453 0.1378 0.1772, -0.1575 0.1378 0.1772, -0.1516 0.1378 0.1772, 0.1772 0.1181 0.1772, 0.1772 -0.1181 0.1772, -0.1575 -0.1378 0.1772, -0.1516 -0.1378 0.1772, -0.1772 0.1181 0.1772, -0.1772 -0.1181 0.1772, 0.1575 0.1378 0.1772, 0.1516 0.1378 0.1772, -0.1368 0.0676 0.1772, -0.143 0.0739 0.1772, -0.1477 0.0813 0.1772, 0.1477 -0.0813 0.1772, -0.143 -0.0739 0.1772, -0.1368 -0.0676 0.1772, -0.1516 0.0984 0.1772, -0.1626 0.1371 0.1772, -0.0463 0.0897 0.1772, -0.0453 0.0984 0.1772, -0.0492 0.0813 0.1772, -0.0539 0.0739 0.1772, -0.0676 -0.063 0.1772, 0.1368 -0.0676 0.1772, 0.1368 0.0676 0.1772, 0.1293 -0.063 0.1772, 0.121 -0.06 0.1772, 0.1477 0.0813 0.1772, 0.143 0.0739 0.1772, 0.143 -0.0739 0.1772, -0.1673 0.1352 0.1772, -0.1714 0.132 0.1772, -0.1745 0.128 0.1772, -0.1506 0.0897 0.1772, -0.1765 0.1232 0.1772, -0.0601 0.0676 0.1772, -0.0676 0.063 0.1772, -0.0759 0.06 0.1772, -0.1477 -0.0813 0.1772, -0.1506 -0.0897 0.1772, -0.1293 -0.063 0.1772, -0.121 -0.06 0.1772, -0.1293 0.063 0.1772, -0.121 0.06 0.1772, 0.1516 -0.0984 0.1772, 0.1626 -0.1371 0.1772, 0.0453 0.0984 0.1772, 0.0463 0.0897 0.1772, 0.1673 -0.1352 0.1772, 0.1714 -0.132 0.1772, 0.1745 -0.128 0.1772, 0.1506 -0.0897 0.1772, 0.1765 -0.1232 0.1772, 0.1745 0.128 0.1772, 0.1714 0.132 0.1772, 0.1516 0.0984 0.1772, 0.1673 0.1352 0.1772, -0.1745 -0.128 0.1772, -0.1714 -0.132 0.1772, -0.1516 -0.0984 0.1772, -0.1673 -0.1352 0.1772, 0.1506 0.0897 0.1772, 0.1765 0.1232 0.1772, 0.1626 0.1371 0.1772, 0.1122 0.0591 0.1772, 0.0846 0.0591 0.1772, -0.0492 -0.0813 0.1772, -0.1765 -0.1232 0.1772, -0.1626 -0.1371 0.1772, 0.0759 0.06 0.1772, 0.0676 0.063 0.1772, -0.0539 -0.0739 0.1772, 0.0601 0.0676 0.1772, -0.0601 -0.0676 0.1772, 0.0539 0.0739 0.1772, 0.0492 0.0813 0.1772, 0.0601 -0.0676 0.1772, 0.0676 -0.063 0.1772, 0.121 0.06 0.1772, 0.0759 -0.06 0.1772, 0.0846 -0.0591 0.1772, 0.0492 -0.0813 0.1772, 0.0539 -0.0739 0.1772, -0.0463 -0.0897 0.1772, 0.1293 0.063 0.1772, 0.1122 -0.0591 0.1772, -0.0453 -0.0984 0.1772, 0.0453 -0.0984 0.1772, 0.0463 -0.0897 0.1772, -0.1122 0.0591 0.1772, -0.1122 -0.0591 0.1772, -0.0846 0.0591 0.1772, -0.0846 -0.0591 0.1772, -0.0759 -0.06 0.1772, -0.0292 0.0138 0.0, -0.0369 -0.0059 0.0, -0.034 -0.0059 0.0, -0.032 -0.0004 0.0, -0.0239 -0.0004 0.0, -0.022 -0.0059 0.0, -0.0191 -0.0059 0.0, -0.0266 0.0138 0.0, -0.0246 0.0017 0.0, -0.0312 0.0017 0.0, -0.0275 0.01 0.0, -0.0277 0.0107 0.0, -0.0278 0.0114 0.0, -0.0279 0.0114 0.0, -0.028 0.0107 0.0, -0.0282 0.01 0.0, -0.0246 0.0017 0.0, -0.0312 0.0017 0.0, -0.0275 0.01 0.0, -0.0277 0.0107 0.0, -0.0278 0.0114 0.0, -0.0279 0.0114 0.0, -0.028 0.0107 0.0, -0.0282 0.01 0.0, -0.0072 -0.0059 0.0, -0.0019 -0.0059 0.0, -0.0019 0.0138 0.0, -0.0074 0.0138 0.0, -0.0177 0.0042 0.0, -0.0176 0.006 0.0, -0.017 0.0079 0.0, -0.0161 0.0096 0.0, -0.0147 0.0112 0.0, -0.0147 0.0112 0.0, -0.0126 0.0126 0.0, -0.0103 0.0134 0.0, -0.0097 -0.0057 0.0, -0.0119 -0.005 0.0, -0.014 -0.0039 0.0, -0.0156 -0.0023 0.0, -0.0167 -0.0005 0.0, -0.0174 0.0015 0.0, -0.0138 0.0088 0.0, -0.0128 0.0098 0.0, -0.0114 0.0108 0.0, -0.0097 0.0113 0.0, -0.0074 0.0116 0.0, -0.0045 0.0116 0.0, -0.0045 -0.0038 0.0, -0.0073 -0.0038 0.0, -0.0094 -0.0036 0.0, -0.011 -0.0031 0.0, -0.0124 -0.0023 0.0, -0.0135 -0.0012 0.0, -0.0143 0.0002 0.0, -0.0149 0.002 0.0, -0.0151 0.0041 0.0, -0.0149 0.0061 0.0, -0.0144 0.0076 0.0, -0.0074 0.0116 0.0, -0.0045 0.0116 0.0, -0.0097 0.0113 0.0, -0.0114 0.0108 0.0, -0.0128 0.0098 0.0, -0.0138 0.0088 0.0, -0.0144 0.0076 0.0, -0.0149 0.0061 0.0, -0.0151 0.0041 0.0, -0.0149 0.002 0.0, -0.0143 0.0002 0.0, -0.0135 -0.0012 0.0, -0.0124 -0.0023 0.0, -0.011 -0.0031 0.0, -0.0094 -0.0036 0.0, -0.0073 -0.0038 0.0, -0.0045 -0.0038 0.0, 0.002 -0.0038 0.0, 0.002 -0.0059 0.0, 0.0125 -0.0059 0.0, 0.0125 0.0138 0.0, 0.0025 0.0138 0.0, 0.0025 0.0116 0.0, 0.0099 0.0116 0.0, 0.0099 0.0051 0.0, 0.0029 0.0051 0.0, 0.0029 0.0029 0.0, 0.0099 0.0029 0.0, 0.0099 -0.0038 0.0, 0.0164 -0.0028 0.0, 0.0164 -0.0049 0.0, 0.0185 -0.0058 0.0, 0.0218 -0.0062 0.0, 0.0213 -0.0062 0.0, 0.0242 -0.0059 0.0, 0.0261 -0.0053 0.0, 0.0277 -0.0043 0.0, 0.0292 -0.0027 0.0, 0.0302 -0.0008 0.0, 0.0308 0.0013 0.0, 0.031 0.0035 0.0, 0.021 0.014 0.0, 0.023 0.0138 0.0, 0.0252 0.0132 0.0, 0.0271 0.0121 0.0, 0.0288 0.0104 0.0, 0.03 0.0086 0.0, 0.0307 0.0063 0.0, 0.0164 0.0132 0.0, 0.0187 0.0138 0.0, 0.0164 0.0106 0.0, 0.021 0.0118 0.0, 0.0186 0.0115 0.0, 0.0284 0.0037 0.0, 0.0283 0.0052 0.0, 0.0278 0.0073 0.0, 0.027 0.0089 0.0, 0.0258 0.0102 0.0, 0.0244 0.0111 0.0, 0.0229 0.0116 0.0, 0.0214 -0.004 0.0, 0.0233 -0.0038 0.0, 0.0247 -0.0033 0.0, 0.0259 -0.0025 0.0, 0.0268 -0.0015 0.0, 0.0276 -0.0001 0.0, 0.0282 0.0016 0.0, 0.0167 -0.0029 0.0, 0.0188 -0.0037 0.0, 0.0327 -0.0038 0.0, 0.0327 -0.0059 0.0, 0.0428 -0.0059 0.0, 0.0428 0.0138 0.0, 0.0401 0.0138 0.0, 0.0401 -0.0038 0.0
            ]
        }
        coordIndex [
            0,1,2,-1,3,4,5,-1,5,4,6,-1,7,8,9,-1,0,2,10,-1,10,2,5,-1,10,5,11,-1,11,5,6,-1,11,6,12,-1,1,13,2,-1,2,13,14,-1,2,14,15,-1,16,17,2,-1,2,17,18,-1,19,20,21,-1,21,20,22,-1,18,23,2,-1,2,23,22,-1,2,22,24,-1,24,22,20,-1,25,26,27,-1,6,28,29,-1,30,31,9,-1,9,31,6,-1,9,6,7,-1,7,6,29,-1,15,32,2,-1,2,32,33,-1,2,33,16,-1,8,34,9,-1,9,34,35,-1,9,35,36,-1,36,35,37,-1,36,37,38,-1,27,39,25,-1,25,39,40,-1,25,40,41,-1,41,40,42,-1,41,42,43,-1,38,44,36,-1,36,44,45,-1,36,45,25,-1,25,45,46,-1,25,46,26,-1,43,47,41,-1,41,47,48,-1,41,48,49,-1,49,48,50,-1,49,50,51,-1,31,52,6,-1,6,52,53,-1,6,53,54,-1,27,55,39,-1,39,55,56,-1,39,56,57,-1,57,56,58,-1,57,58,59,-1,50,60,51,-1,51,60,61,-1,51,61,9,-1,9,61,62,-1,9,62,30,-1,54,63,6,-1,6,63,64,-1,6,64,12,-1,59,65,66,-1,66,67,59,-1,59,67,68,-1,59,68,69,-1,69,70,59,-1,59,70,71,-1,59,71,57,-1,72,73,39,-1,73,74,39,-1,39,74,75,-1,39,75,76,-1,4,77,78,-1,72,39,79,-1,79,39,80,-1,79,80,81,-1,3,82,4,-1,4,82,83,-1,4,83,77,-1,81,84,79,-1,79,84,85,-1,79,85,86,-1,86,87,79,-1,79,87,88,-1,79,88,89,-1,83,90,77,-1,77,90,91,-1,77,91,92,-1,92,91,40,-1,92,40,93,-1,76,94,39,-1,39,94,95,-1,39,95,40,-1,40,95,96,-1,40,96,93,-1,78,97,4,-1,4,97,98,-1,4,98,99,-1,99,98,100,-1,99,100,101,-1,102,103,6,-1,104,105,106,-1,106,105,107,-1,108,109,110,-1,111,112,113,-1,107,114,106,-1,106,114,115,-1,106,115,116,-1,117,118,4,-1,4,118,108,-1,4,108,6,-1,6,108,110,-1,6,110,102,-1,109,108,119,-1,119,108,120,-1,119,120,111,-1,121,122,123,-1,124,125,123,-1,123,125,126,-1,123,126,121,-1,121,126,117,-1,121,117,127,-1,127,117,4,-1,128,129,130,-1,131,132,133,-1,113,122,111,-1,111,122,121,-1,111,121,119,-1,119,121,134,-1,119,134,135,-1,136,137,138,-1,139,140,130,-1,133,141,131,-1,131,141,142,-1,131,142,143,-1,138,144,136,-1,136,144,145,-1,136,145,106,-1,106,145,146,-1,106,146,104,-1,147,106,4,-1,4,106,116,-1,4,116,127,-1,135,148,119,-1,119,148,149,-1,119,149,136,-1,136,149,150,-1,136,150,137,-1,132,131,151,-1,151,131,152,-1,151,152,130,-1,130,152,153,-1,130,153,139,-1,140,154,130,-1,130,154,155,-1,130,155,128,-1,143,156,131,-1,131,156,157,-1,131,157,4,-1,4,157,158,-1,4,158,147,-1,147,158,159,-1,147,159,160,-1,156,161,157,-1,157,161,162,-1,157,162,163,-1,163,162,164,-1,163,164,136,-1,136,164,165,-1,136,165,119,-1,166,167,4,-1,167,168,4,-1,4,168,169,-1,4,169,170,-1,166,4,171,-1,171,4,99,-1,171,99,172,-1,173,174,131,-1,131,174,175,-1,131,175,176,-1,176,177,131,-1,131,177,178,-1,131,178,179,-1,179,178,180,-1,180,181,182,-1,170,183,4,-1,4,183,184,-1,4,184,131,-1,131,184,185,-1,131,185,173,-1,182,186,180,-1,180,186,187,-1,180,187,188,-1,188,189,180,-1,180,189,190,-1,180,190,179,-1,101,191,99,-1,99,191,192,-1,99,192,172,-1,193,194,88,-1,88,194,89,-1,103,195,6,-1,6,195,196,-1,6,196,28,-1,197,198,128,-1,128,198,129,-1,57,199,39,-1,39,199,200,-1,39,200,80,-1,182,181,201,-1,201,181,202,-1,203,152,204,-1,204,152,131,-1,204,131,179,-1,66,65,205,-1,205,65,206,-1,207,208,204,-1,204,208,209,-1,204,209,203,-1,200,199,210,-1,207,211,212,-1,198,197,213,-1,213,197,214,-1,215,196,216,-1,216,196,195,-1,217,218,219,-1,220,221,222,-1,222,221,223,-1,224,225,210,-1,210,225,221,-1,210,221,226,-1,226,221,220,-1,214,227,213,-1,213,227,228,-1,213,228,229,-1,209,230,203,-1,203,230,213,-1,203,213,231,-1,231,213,229,-1,218,232,219,-1,219,232,233,-1,219,233,234,-1,211,207,235,-1,235,207,204,-1,235,204,236,-1,212,237,207,-1,207,237,238,-1,207,238,239,-1,239,238,240,-1,194,193,241,-1,241,193,242,-1,215,217,196,-1,196,217,219,-1,196,219,243,-1,243,219,244,-1,242,245,241,-1,241,245,246,-1,241,246,247,-1,210,248,200,-1,200,248,241,-1,200,241,249,-1,249,241,247,-1,250,251,252,-1,252,251,253,-1,254,255,256,-1,256,255,257,-1,224,210,258,-1,258,210,199,-1,258,199,252,-1,252,199,259,-1,252,259,250,-1,253,260,252,-1,252,260,205,-1,252,205,206,-1,261,262,263,-1,236,204,256,-1,256,204,264,-1,256,264,254,-1,257,265,256,-1,256,265,201,-1,256,201,202,-1,262,266,263,-1,263,266,267,-1,263,267,268,-1,268,267,269,-1,268,269,270,-1,270,269,271,-1,270,271,219,-1,219,271,272,-1,219,272,244,-1,273,274,275,-1,275,274,276,-1,275,276,277,-1,278,279,280,-1,280,279,273,-1,280,273,263,-1,263,273,275,-1,263,275,261,-1,221,281,223,-1,223,281,275,-1,223,275,282,-1,282,275,277,-1,192,191,283,-1,283,191,284,-1,283,284,280,-1,280,284,285,-1,280,285,278,-1,240,238,286,-1,286,238,287,-1,286,287,288,-1,288,287,289,-1,288,289,234,-1,234,289,290,-1,234,290,219,-1,130,129,213,-1,213,129,198,-1,103,102,195,-1,195,102,216,-1,161,288,162,-1,162,288,234,-1,162,234,164,-1,164,234,233,-1,164,233,165,-1,165,233,232,-1,165,232,119,-1,119,232,218,-1,119,218,109,-1,109,218,217,-1,109,217,110,-1,110,217,215,-1,110,215,102,-1,102,215,216,-1,161,156,288,-1,288,156,286,-1,130,213,151,-1,151,213,230,-1,151,230,132,-1,132,230,209,-1,132,209,133,-1,133,209,208,-1,133,208,141,-1,141,208,207,-1,141,207,142,-1,142,207,239,-1,142,239,143,-1,143,239,240,-1,143,240,156,-1,156,240,286,-1,45,261,46,-1,46,261,275,-1,46,275,26,-1,26,275,281,-1,26,281,27,-1,27,281,221,-1,27,221,55,-1,55,221,225,-1,55,225,56,-1,56,225,224,-1,56,224,58,-1,58,224,258,-1,58,258,59,-1,59,258,252,-1,45,44,261,-1,261,44,262,-1,29,243,7,-1,7,243,244,-1,7,244,8,-1,8,244,272,-1,8,272,34,-1,34,272,271,-1,34,271,35,-1,35,271,269,-1,35,269,37,-1,37,269,267,-1,37,267,38,-1,38,267,266,-1,38,266,44,-1,44,266,262,-1,29,28,243,-1,243,28,196,-1,65,59,206,-1,206,59,252,-1,96,277,93,-1,93,277,276,-1,93,276,92,-1,92,276,274,-1,92,274,77,-1,77,274,273,-1,77,273,78,-1,78,273,279,-1,78,279,97,-1,97,279,278,-1,97,278,98,-1,98,278,285,-1,98,285,100,-1,100,285,284,-1,96,95,277,-1,277,95,282,-1,79,241,72,-1,72,241,248,-1,72,248,73,-1,73,248,210,-1,73,210,74,-1,74,210,226,-1,74,226,75,-1,75,226,220,-1,75,220,76,-1,76,220,222,-1,76,222,94,-1,94,222,223,-1,94,223,95,-1,95,223,282,-1,79,89,241,-1,241,89,194,-1,101,100,191,-1,191,100,284,-1,185,287,173,-1,173,287,238,-1,173,238,174,-1,174,238,237,-1,174,237,175,-1,175,237,212,-1,175,212,176,-1,176,212,211,-1,176,211,177,-1,177,211,235,-1,177,235,178,-1,178,235,236,-1,178,236,180,-1,180,236,256,-1,185,184,287,-1,287,184,289,-1,171,283,166,-1,166,283,280,-1,166,280,167,-1,167,280,263,-1,167,263,168,-1,168,263,268,-1,168,268,169,-1,169,268,270,-1,169,270,170,-1,170,270,219,-1,170,219,183,-1,183,219,290,-1,183,290,184,-1,184,290,289,-1,171,172,283,-1,283,172,192,-1,181,180,202,-1,202,180,256,-1,80,200,249,-1,80,249,81,-1,81,249,247,-1,81,247,84,-1,84,247,246,-1,84,246,85,-1,85,246,245,-1,85,245,86,-1,86,245,242,-1,86,242,87,-1,87,242,193,-1,87,193,88,-1,66,205,260,-1,66,260,67,-1,67,260,253,-1,67,253,68,-1,68,253,251,-1,68,251,69,-1,69,251,250,-1,69,250,70,-1,70,250,259,-1,70,259,71,-1,71,259,199,-1,71,199,57,-1,182,201,265,-1,182,265,186,-1,186,265,257,-1,186,257,187,-1,187,257,255,-1,187,255,188,-1,188,255,254,-1,188,254,189,-1,189,254,264,-1,189,264,190,-1,190,264,204,-1,190,204,179,-1,152,203,231,-1,152,231,153,-1,153,231,229,-1,153,229,139,-1,139,229,228,-1,139,228,140,-1,140,228,227,-1,140,227,154,-1,154,227,214,-1,154,214,155,-1,155,214,197,-1,155,197,128,-1,291,292,163,-1,163,292,157,-1,292,293,157,-1,157,293,158,-1,293,294,158,-1,158,294,159,-1,294,295,159,-1,159,295,160,-1,295,296,160,-1,160,296,147,-1,296,297,147,-1,147,297,106,-1,297,298,106,-1,106,298,136,-1,298,291,136,-1,136,291,163,-1,299,295,300,-1,300,295,294,-1,301,298,299,-1,299,298,297,-1,299,297,295,-1,295,297,296,-1,301,302,298,-1,298,302,303,-1,298,303,291,-1,291,303,304,-1,291,304,305,-1,305,306,291,-1,291,306,300,-1,291,300,292,-1,292,300,294,-1,292,294,293,-1,299,300,307,-1,307,300,308,-1,301,299,309,-1,309,299,307,-1,301,309,310,-1,301,310,302,-1,302,310,311,-1,302,311,303,-1,304,303,312,-1,312,303,311,-1,304,312,313,-1,304,313,305,-1,305,313,314,-1,305,314,306,-1,300,306,308,-1,308,306,314,-1,315,316,116,-1,116,316,127,-1,316,317,127,-1,127,317,121,-1,317,318,121,-1,121,318,134,-1,319,145,144,-1,319,144,320,-1,320,144,138,-1,320,138,321,-1,321,138,137,-1,321,137,322,-1,322,137,150,-1,322,150,323,-1,323,150,149,-1,323,149,324,-1,324,149,148,-1,324,148,325,-1,325,148,135,-1,325,135,326,-1,326,135,134,-1,326,134,318,-1,315,116,115,-1,315,115,327,-1,327,115,114,-1,327,114,328,-1,328,114,107,-1,328,107,329,-1,329,107,105,-1,329,105,330,-1,330,105,104,-1,330,104,331,-1,331,104,146,-1,331,146,332,-1,332,146,145,-1,332,145,319,-1,321,322,333,-1,333,322,323,-1,333,323,334,-1,334,323,324,-1,334,324,335,-1,335,324,325,-1,335,325,336,-1,336,325,326,-1,336,326,337,-1,337,326,318,-1,337,318,338,-1,338,318,317,-1,338,317,339,-1,339,317,316,-1,339,316,340,-1,340,316,315,-1,340,315,341,-1,341,315,327,-1,341,327,342,-1,342,327,328,-1,342,328,343,-1,343,328,329,-1,343,329,344,-1,344,329,330,-1,344,330,345,-1,345,330,331,-1,345,331,346,-1,346,331,332,-1,346,332,347,-1,347,332,319,-1,347,319,348,-1,348,319,320,-1,348,320,349,-1,349,320,321,-1,349,321,333,-1,337,338,350,-1,350,338,351,-1,337,350,352,-1,337,352,336,-1,336,352,353,-1,336,353,335,-1,335,353,354,-1,335,354,334,-1,334,354,355,-1,334,355,333,-1,333,355,356,-1,333,356,349,-1,349,356,357,-1,349,357,348,-1,348,357,358,-1,348,358,347,-1,347,358,359,-1,347,359,346,-1,346,359,360,-1,346,360,345,-1,345,360,361,-1,345,361,344,-1,344,361,362,-1,344,362,343,-1,343,362,363,-1,343,363,342,-1,342,363,364,-1,342,364,341,-1,341,364,365,-1,341,365,340,-1,339,340,366,-1,366,340,365,-1,338,339,351,-1,351,339,366,-1,367,368,126,-1,126,368,117,-1,368,369,117,-1,117,369,118,-1,369,370,118,-1,118,370,108,-1,370,371,108,-1,108,371,120,-1,371,372,120,-1,120,372,111,-1,372,373,111,-1,111,373,112,-1,373,374,112,-1,112,374,113,-1,374,375,113,-1,113,375,122,-1,375,376,122,-1,122,376,123,-1,376,377,123,-1,123,377,124,-1,377,378,124,-1,124,378,125,-1,378,367,125,-1,125,367,126,-1,369,368,367,-1,367,378,369,-1,369,378,377,-1,369,377,370,-1,372,371,373,-1,373,371,370,-1,373,370,374,-1,374,370,377,-1,374,377,375,-1,375,377,376,-1,379,380,5,-1,5,380,3,-1,3,380,381,-1,382,91,90,-1,382,90,383,-1,383,90,83,-1,383,83,381,-1,381,83,82,-1,381,82,3,-1,91,382,40,-1,40,382,384,-1,40,384,42,-1,42,384,385,-1,42,385,43,-1,43,385,386,-1,43,386,47,-1,47,386,387,-1,47,387,48,-1,48,387,388,-1,48,388,50,-1,50,388,389,-1,50,389,60,-1,60,389,390,-1,60,390,61,-1,391,63,54,-1,391,54,392,-1,392,54,53,-1,392,53,393,-1,393,53,52,-1,393,52,394,-1,394,52,31,-1,394,31,395,-1,395,31,30,-1,395,30,396,-1,396,30,62,-1,396,62,397,-1,397,62,61,-1,397,61,390,-1,398,12,64,-1,398,64,399,-1,399,64,63,-1,399,63,391,-1,398,400,12,-1,12,400,11,-1,401,0,10,-1,401,10,402,-1,402,10,11,-1,402,11,400,-1,403,16,33,-1,403,33,404,-1,404,33,32,-1,404,32,405,-1,405,32,15,-1,405,15,406,-1,406,15,14,-1,406,14,407,-1,407,14,13,-1,407,13,408,-1,408,13,1,-1,408,1,409,-1,409,1,0,-1,409,0,401,-1,410,20,19,-1,410,19,411,-1,411,19,21,-1,411,21,412,-1,412,21,22,-1,412,22,413,-1,413,22,23,-1,413,23,414,-1,414,23,18,-1,414,18,415,-1,415,18,17,-1,415,17,416,-1,416,17,16,-1,416,16,403,-1,379,5,2,-1,379,2,417,-1,417,2,24,-1,417,24,418,-1,418,24,20,-1,418,20,410,-1,411,382,410,-1,410,382,383,-1,410,383,418,-1,418,383,381,-1,418,381,417,-1,417,381,380,-1,417,380,379,-1,400,398,402,-1,402,398,399,-1,402,399,401,-1,401,399,391,-1,401,391,409,-1,409,391,392,-1,409,392,408,-1,408,392,393,-1,408,393,407,-1,407,393,394,-1,407,394,406,-1,406,394,395,-1,406,395,405,-1,405,395,396,-1,405,396,404,-1,404,396,397,-1,404,397,403,-1,403,397,390,-1,403,390,416,-1,416,390,389,-1,416,389,415,-1,415,389,388,-1,415,388,414,-1,414,388,387,-1,414,387,413,-1,413,387,386,-1,413,386,412,-1,412,386,385,-1,412,385,411,-1,411,385,384,-1,411,384,382,-1,419,420,49,-1,49,420,41,-1,420,421,41,-1,41,421,25,-1,421,422,25,-1,25,422,36,-1,422,423,36,-1,36,423,9,-1,423,424,9,-1,9,424,51,-1,424,419,51,-1,51,419,49,-1,423,422,424,-1,424,422,421,-1,424,421,419,-1,419,421,420,-1,307,308,309,-1,309,308,314,-1,309,314,310,-1,310,314,313,-1,310,313,311,-1,311,313,312,-1,351,366,350,-1,350,366,365,-1,350,365,364,-1,358,357,350,-1,350,357,356,-1,350,356,352,-1,364,363,350,-1,350,363,362,-1,350,362,361,-1,361,360,350,-1,350,360,359,-1,350,359,358,-1,355,354,356,-1,356,354,353,-1,356,353,352,-1,
        ]
    }
}