ISO-10303-21;
HEADER;
/* Generated by software containing ST-Developer
 * from STEP Tools, Inc. (www.steptools.com) 
 */
/* OPTION: using custom renumber hook */

FILE_DESCRIPTION(
/* description */ ('STEP AP242 Edition 2',
'CAx-IF Rec.Pracs.---Representation and Presentation of Product Manufa
cturing Information (PMI)---4.0---2014-10-13',
'CAx-IF Rec.Pracs.---3D Tessellated Geometry---0.4---2014-09-14','2;1',
'CAx-IF Rec.Pracs.---User Defined Attributes---1.5---2016-08-15'),
/* implementation_level */ '2;1');

FILE_NAME(
/* name */ 'BST-BMV080-CAD - Part 1',
/* time_stamp */ '2026-07-09T11:57:43Z',
/* author */ (''),
/* organization */ (''),
/* preprocessor_version */ 'ST-DEVELOPER v20',
/* originating_system */ 'ONSHAPE BY PTC INC, 1.217',
/* authorisation */ '  ');

FILE_SCHEMA (('AP242_MANAGED_MODEL_BASED_3D_ENGINEERING_MIM_LF { 1 0 10303 442 3 1 4 }'));
ENDSEC;

DATA;
#10=SHAPE_REPRESENTATION_RELATIONSHIP('','',#563,#11);
#11=ADVANCED_BREP_SHAPE_REPRESENTATION('',(#561),#909);
#12=CYLINDRICAL_SURFACE('',#574,0.0006);
#13=CYLINDRICAL_SURFACE('',#590,0.00025);
#14=CYLINDRICAL_SURFACE('',#594,0.00025);
#15=CYLINDRICAL_SURFACE('',#596,0.00149);
#16=CYLINDRICAL_SURFACE('',#604,0.0011);
#17=CYLINDRICAL_SURFACE('',#605,0.0011);
#18=ELLIPSE('',#573,0.00194505686110502,0.00149);
#19=CIRCLE('',#567,0.00149);
#20=CIRCLE('',#568,0.00149);
#21=CIRCLE('',#569,0.00025);
#22=CIRCLE('',#570,0.00025);
#23=CIRCLE('',#575,0.0006);
#24=CIRCLE('',#576,0.0006);
#25=CIRCLE('',#580,0.0011);
#26=CIRCLE('',#583,0.00025);
#27=CIRCLE('',#584,0.00149);
#28=CIRCLE('',#585,0.00025);
#29=CIRCLE('',#587,0.0011);
#30=CIRCLE('',#600,0.0011);
#31=CIRCLE('',#602,0.0011);
#32=ORIENTED_EDGE('',*,*,#184,.F.);
#33=ORIENTED_EDGE('',*,*,#185,.T.);
#34=ORIENTED_EDGE('',*,*,#186,.T.);
#35=ORIENTED_EDGE('',*,*,#187,.T.);
#36=ORIENTED_EDGE('',*,*,#188,.F.);
#37=ORIENTED_EDGE('',*,*,#189,.F.);
#38=ORIENTED_EDGE('',*,*,#190,.F.);
#39=ORIENTED_EDGE('',*,*,#191,.T.);
#40=ORIENTED_EDGE('',*,*,#192,.T.);
#41=ORIENTED_EDGE('',*,*,#193,.F.);
#42=ORIENTED_EDGE('',*,*,#194,.F.);
#43=ORIENTED_EDGE('',*,*,#195,.F.);
#44=ORIENTED_EDGE('',*,*,#196,.T.);
#45=ORIENTED_EDGE('',*,*,#197,.F.);
#46=ORIENTED_EDGE('',*,*,#198,.T.);
#47=ORIENTED_EDGE('',*,*,#199,.F.);
#48=ORIENTED_EDGE('',*,*,#200,.T.);
#49=ORIENTED_EDGE('',*,*,#201,.F.);
#50=ORIENTED_EDGE('',*,*,#202,.F.);
#51=ORIENTED_EDGE('',*,*,#191,.F.);
#52=ORIENTED_EDGE('',*,*,#203,.T.);
#53=ORIENTED_EDGE('',*,*,#204,.T.);
#54=ORIENTED_EDGE('',*,*,#205,.F.);
#55=ORIENTED_EDGE('',*,*,#193,.T.);
#56=ORIENTED_EDGE('',*,*,#206,.T.);
#57=ORIENTED_EDGE('',*,*,#207,.F.);
#58=ORIENTED_EDGE('',*,*,#208,.F.);
#59=ORIENTED_EDGE('',*,*,#189,.T.);
#60=ORIENTED_EDGE('',*,*,#209,.T.);
#61=ORIENTED_EDGE('',*,*,#210,.F.);
#62=ORIENTED_EDGE('',*,*,#211,.F.);
#63=ORIENTED_EDGE('',*,*,#207,.T.);
#64=ORIENTED_EDGE('',*,*,#212,.T.);
#65=ORIENTED_EDGE('',*,*,#213,.F.);
#66=ORIENTED_EDGE('',*,*,#214,.F.);
#67=ORIENTED_EDGE('',*,*,#210,.T.);
#68=ORIENTED_EDGE('',*,*,#215,.F.);
#69=ORIENTED_EDGE('',*,*,#216,.F.);
#70=ORIENTED_EDGE('',*,*,#217,.T.);
#71=ORIENTED_EDGE('',*,*,#213,.T.);
#72=ORIENTED_EDGE('',*,*,#218,.F.);
#73=ORIENTED_EDGE('',*,*,#219,.F.);
#74=ORIENTED_EDGE('',*,*,#220,.T.);
#75=ORIENTED_EDGE('',*,*,#221,.T.);
#76=ORIENTED_EDGE('',*,*,#216,.T.);
#77=ORIENTED_EDGE('',*,*,#222,.F.);
#78=ORIENTED_EDGE('',*,*,#223,.F.);
#79=ORIENTED_EDGE('',*,*,#224,.F.);
#80=ORIENTED_EDGE('',*,*,#225,.T.);
#81=ORIENTED_EDGE('',*,*,#226,.F.);
#82=ORIENTED_EDGE('',*,*,#227,.T.);
#83=ORIENTED_EDGE('',*,*,#228,.T.);
#84=ORIENTED_EDGE('',*,*,#229,.T.);
#85=ORIENTED_EDGE('',*,*,#230,.F.);
#86=ORIENTED_EDGE('',*,*,#231,.T.);
#87=ORIENTED_EDGE('',*,*,#232,.F.);
#88=ORIENTED_EDGE('',*,*,#233,.T.);
#89=ORIENTED_EDGE('',*,*,#234,.F.);
#90=ORIENTED_EDGE('',*,*,#187,.F.);
#91=ORIENTED_EDGE('',*,*,#235,.T.);
#92=ORIENTED_EDGE('',*,*,#224,.T.);
#93=ORIENTED_EDGE('',*,*,#236,.F.);
#94=ORIENTED_EDGE('',*,*,#237,.F.);
#95=ORIENTED_EDGE('',*,*,#204,.F.);
#96=ORIENTED_EDGE('',*,*,#238,.T.);
#97=ORIENTED_EDGE('',*,*,#239,.F.);
#98=ORIENTED_EDGE('',*,*,#203,.F.);
#99=ORIENTED_EDGE('',*,*,#190,.T.);
#100=ORIENTED_EDGE('',*,*,#208,.T.);
#101=ORIENTED_EDGE('',*,*,#211,.T.);
#102=ORIENTED_EDGE('',*,*,#214,.T.);
#103=ORIENTED_EDGE('',*,*,#217,.F.);
#104=ORIENTED_EDGE('',*,*,#221,.F.);
#105=ORIENTED_EDGE('',*,*,#240,.T.);
#106=ORIENTED_EDGE('',*,*,#241,.F.);
#107=ORIENTED_EDGE('',*,*,#225,.F.);
#108=ORIENTED_EDGE('',*,*,#235,.F.);
#109=ORIENTED_EDGE('',*,*,#186,.F.);
#110=ORIENTED_EDGE('',*,*,#242,.T.);
#111=ORIENTED_EDGE('',*,*,#243,.F.);
#112=ORIENTED_EDGE('',*,*,#238,.F.);
#113=ORIENTED_EDGE('',*,*,#202,.T.);
#114=ORIENTED_EDGE('',*,*,#237,.T.);
#115=ORIENTED_EDGE('',*,*,#244,.F.);
#116=ORIENTED_EDGE('',*,*,#245,.T.);
#117=ORIENTED_EDGE('',*,*,#184,.T.);
#118=ORIENTED_EDGE('',*,*,#234,.T.);
#119=ORIENTED_EDGE('',*,*,#223,.T.);
#120=ORIENTED_EDGE('',*,*,#246,.F.);
#121=ORIENTED_EDGE('',*,*,#247,.T.);
#122=ORIENTED_EDGE('',*,*,#219,.T.);
#123=ORIENTED_EDGE('',*,*,#215,.T.);
#124=ORIENTED_EDGE('',*,*,#212,.F.);
#125=ORIENTED_EDGE('',*,*,#209,.F.);
#126=ORIENTED_EDGE('',*,*,#206,.F.);
#127=ORIENTED_EDGE('',*,*,#192,.F.);
#128=ORIENTED_EDGE('',*,*,#248,.F.);
#129=ORIENTED_EDGE('',*,*,#226,.T.);
#130=ORIENTED_EDGE('',*,*,#249,.T.);
#131=ORIENTED_EDGE('',*,*,#196,.F.);
#132=ORIENTED_EDGE('',*,*,#197,.T.);
#133=ORIENTED_EDGE('',*,*,#249,.F.);
#134=ORIENTED_EDGE('',*,*,#233,.F.);
#135=ORIENTED_EDGE('',*,*,#250,.T.);
#136=ORIENTED_EDGE('',*,*,#250,.F.);
#137=ORIENTED_EDGE('',*,*,#232,.T.);
#138=ORIENTED_EDGE('',*,*,#251,.T.);
#139=ORIENTED_EDGE('',*,*,#198,.F.);
#140=ORIENTED_EDGE('',*,*,#199,.T.);
#141=ORIENTED_EDGE('',*,*,#251,.F.);
#142=ORIENTED_EDGE('',*,*,#231,.F.);
#143=ORIENTED_EDGE('',*,*,#252,.T.);
#144=ORIENTED_EDGE('',*,*,#252,.F.);
#145=ORIENTED_EDGE('',*,*,#230,.T.);
#146=ORIENTED_EDGE('',*,*,#253,.T.);
#147=ORIENTED_EDGE('',*,*,#200,.F.);
#148=ORIENTED_EDGE('',*,*,#201,.T.);
#149=ORIENTED_EDGE('',*,*,#253,.F.);
#150=ORIENTED_EDGE('',*,*,#229,.F.);
#151=ORIENTED_EDGE('',*,*,#254,.T.);
#152=ORIENTED_EDGE('',*,*,#194,.T.);
#153=ORIENTED_EDGE('',*,*,#205,.T.);
#154=ORIENTED_EDGE('',*,*,#188,.T.);
#155=ORIENTED_EDGE('',*,*,#254,.F.);
#156=ORIENTED_EDGE('',*,*,#228,.F.);
#157=ORIENTED_EDGE('',*,*,#255,.T.);
#158=ORIENTED_EDGE('',*,*,#195,.T.);
#159=ORIENTED_EDGE('',*,*,#255,.F.);
#160=ORIENTED_EDGE('',*,*,#227,.F.);
#161=ORIENTED_EDGE('',*,*,#248,.T.);
#162=ORIENTED_EDGE('',*,*,#256,.F.);
#163=ORIENTED_EDGE('',*,*,#244,.T.);
#164=ORIENTED_EDGE('',*,*,#239,.T.);
#165=ORIENTED_EDGE('',*,*,#243,.T.);
#166=ORIENTED_EDGE('',*,*,#257,.F.);
#167=ORIENTED_EDGE('',*,*,#245,.F.);
#168=ORIENTED_EDGE('',*,*,#256,.T.);
#169=ORIENTED_EDGE('',*,*,#242,.F.);
#170=ORIENTED_EDGE('',*,*,#185,.F.);
#171=ORIENTED_EDGE('',*,*,#258,.F.);
#172=ORIENTED_EDGE('',*,*,#259,.F.);
#173=ORIENTED_EDGE('',*,*,#246,.T.);
#174=ORIENTED_EDGE('',*,*,#222,.T.);
#175=ORIENTED_EDGE('',*,*,#241,.T.);
#176=ORIENTED_EDGE('',*,*,#247,.F.);
#177=ORIENTED_EDGE('',*,*,#259,.T.);
#178=ORIENTED_EDGE('',*,*,#240,.F.);
#179=ORIENTED_EDGE('',*,*,#220,.F.);
#180=ORIENTED_EDGE('',*,*,#218,.T.);
#181=ORIENTED_EDGE('',*,*,#258,.T.);
#182=ORIENTED_EDGE('',*,*,#236,.T.);
#183=ORIENTED_EDGE('',*,*,#257,.T.);
#184=EDGE_CURVE('',#260,#261,#312,.T.);
#185=EDGE_CURVE('',#260,#262,#313,.T.);
#186=EDGE_CURVE('',#262,#263,#314,.T.);
#187=EDGE_CURVE('',#263,#261,#315,.T.);
#188=EDGE_CURVE('',#264,#265,#19,.F.);
#189=EDGE_CURVE('',#266,#264,#316,.T.);
#190=EDGE_CURVE('',#267,#266,#317,.T.);
#191=EDGE_CURVE('',#267,#268,#318,.T.);
#192=EDGE_CURVE('',#268,#269,#319,.T.);
#193=EDGE_CURVE('',#270,#269,#320,.T.);
#194=EDGE_CURVE('',#271,#270,#20,.F.);
#195=EDGE_CURVE('',#272,#271,#321,.T.);
#196=EDGE_CURVE('',#272,#273,#21,.T.);
#197=EDGE_CURVE('',#274,#273,#322,.T.);
#198=EDGE_CURVE('',#274,#275,#323,.T.);
#199=EDGE_CURVE('',#276,#275,#324,.T.);
#200=EDGE_CURVE('',#276,#277,#22,.T.);
#201=EDGE_CURVE('',#265,#277,#325,.T.);
#202=EDGE_CURVE('',#268,#278,#326,.T.);
#203=EDGE_CURVE('',#267,#279,#327,.T.);
#204=EDGE_CURVE('',#279,#278,#328,.T.);
#205=EDGE_CURVE('',#270,#264,#18,.F.);
#206=EDGE_CURVE('',#269,#280,#329,.T.);
#207=EDGE_CURVE('',#281,#280,#330,.T.);
#208=EDGE_CURVE('',#266,#281,#331,.T.);
#209=EDGE_CURVE('',#280,#282,#23,.T.);
#210=EDGE_CURVE('',#283,#282,#332,.T.);
#211=EDGE_CURVE('',#281,#283,#24,.T.);
#212=EDGE_CURVE('',#282,#284,#333,.T.);
#213=EDGE_CURVE('',#285,#284,#334,.T.);
#214=EDGE_CURVE('',#283,#285,#335,.T.);
#215=EDGE_CURVE('',#286,#284,#336,.T.);
#216=EDGE_CURVE('',#287,#286,#337,.T.);
#217=EDGE_CURVE('',#287,#285,#338,.T.);
#218=EDGE_CURVE('',#288,#288,#25,.T.);
#219=EDGE_CURVE('',#289,#286,#339,.T.);
#220=EDGE_CURVE('',#289,#290,#340,.T.);
#221=EDGE_CURVE('',#290,#287,#341,.T.);
#222=EDGE_CURVE('',#291,#292,#342,.T.);
#223=EDGE_CURVE('',#293,#291,#343,.T.);
#224=EDGE_CURVE('',#294,#293,#344,.T.);
#225=EDGE_CURVE('',#294,#292,#345,.T.);
#226=EDGE_CURVE('',#295,#296,#26,.T.);
#227=EDGE_CURVE('',#295,#297,#346,.T.);
#228=EDGE_CURVE('',#297,#298,#27,.F.);
#229=EDGE_CURVE('',#298,#299,#347,.T.);
#230=EDGE_CURVE('',#300,#299,#28,.T.);
#231=EDGE_CURVE('',#300,#301,#348,.T.);
#232=EDGE_CURVE('',#302,#301,#349,.T.);
#233=EDGE_CURVE('',#302,#296,#350,.T.);
#234=EDGE_CURVE('',#261,#293,#351,.T.);
#235=EDGE_CURVE('',#263,#294,#352,.T.);
#236=EDGE_CURVE('',#303,#303,#29,.T.);
#237=EDGE_CURVE('',#278,#304,#353,.T.);
#238=EDGE_CURVE('',#279,#305,#354,.T.);
#239=EDGE_CURVE('',#304,#305,#355,.T.);
#240=EDGE_CURVE('',#290,#306,#356,.T.);
#241=EDGE_CURVE('',#292,#306,#357,.T.);
#242=EDGE_CURVE('',#262,#307,#358,.T.);
#243=EDGE_CURVE('',#305,#307,#359,.T.);
#244=EDGE_CURVE('',#308,#304,#360,.T.);
#245=EDGE_CURVE('',#308,#260,#361,.T.);
#246=EDGE_CURVE('',#309,#291,#362,.T.);
#247=EDGE_CURVE('',#309,#289,#363,.T.);
#248=EDGE_CURVE('',#295,#272,#364,.T.);
#249=EDGE_CURVE('',#296,#273,#365,.T.);
#250=EDGE_CURVE('',#302,#274,#366,.T.);
#251=EDGE_CURVE('',#301,#275,#367,.T.);
#252=EDGE_CURVE('',#300,#276,#368,.T.);
#253=EDGE_CURVE('',#299,#277,#369,.T.);
#254=EDGE_CURVE('',#298,#265,#370,.T.);
#255=EDGE_CURVE('',#297,#271,#371,.T.);
#256=EDGE_CURVE('',#308,#307,#372,.T.);
#257=EDGE_CURVE('',#310,#310,#30,.T.);
#258=EDGE_CURVE('',#311,#311,#31,.T.);
#259=EDGE_CURVE('',#309,#306,#373,.T.);
#260=VERTEX_POINT('',#755);
#261=VERTEX_POINT('',#756);
#262=VERTEX_POINT('',#758);
#263=VERTEX_POINT('',#760);
#264=VERTEX_POINT('',#764);
#265=VERTEX_POINT('',#765);
#266=VERTEX_POINT('',#767);
#267=VERTEX_POINT('',#769);
#268=VERTEX_POINT('',#771);
#269=VERTEX_POINT('',#773);
#270=VERTEX_POINT('',#775);
#271=VERTEX_POINT('',#777);
#272=VERTEX_POINT('',#779);
#273=VERTEX_POINT('',#781);
#274=VERTEX_POINT('',#783);
#275=VERTEX_POINT('',#785);
#276=VERTEX_POINT('',#787);
#277=VERTEX_POINT('',#789);
#278=VERTEX_POINT('',#793);
#279=VERTEX_POINT('',#795);
#280=VERTEX_POINT('',#800);
#281=VERTEX_POINT('',#802);
#282=VERTEX_POINT('',#806);
#283=VERTEX_POINT('',#808);
#284=VERTEX_POINT('',#812);
#285=VERTEX_POINT('',#814);
#286=VERTEX_POINT('',#818);
#287=VERTEX_POINT('',#820);
#288=VERTEX_POINT('',#824);
#289=VERTEX_POINT('',#826);
#290=VERTEX_POINT('',#828);
#291=VERTEX_POINT('',#832);
#292=VERTEX_POINT('',#833);
#293=VERTEX_POINT('',#835);
#294=VERTEX_POINT('',#837);
#295=VERTEX_POINT('',#841);
#296=VERTEX_POINT('',#842);
#297=VERTEX_POINT('',#844);
#298=VERTEX_POINT('',#846);
#299=VERTEX_POINT('',#848);
#300=VERTEX_POINT('',#850);
#301=VERTEX_POINT('',#852);
#302=VERTEX_POINT('',#854);
#303=VERTEX_POINT('',#860);
#304=VERTEX_POINT('',#862);
#305=VERTEX_POINT('',#864);
#306=VERTEX_POINT('',#868);
#307=VERTEX_POINT('',#871);
#308=VERTEX_POINT('',#875);
#309=VERTEX_POINT('',#878);
#310=VERTEX_POINT('',#900);
#311=VERTEX_POINT('',#903);
#312=LINE('',#754,#374);
#313=LINE('',#757,#375);
#314=LINE('',#759,#376);
#315=LINE('',#761,#377);
#316=LINE('',#766,#378);
#317=LINE('',#768,#379);
#318=LINE('',#770,#380);
#319=LINE('',#772,#381);
#320=LINE('',#774,#382);
#321=LINE('',#778,#383);
#322=LINE('',#782,#384);
#323=LINE('',#784,#385);
#324=LINE('',#786,#386);
#325=LINE('',#790,#387);
#326=LINE('',#792,#388);
#327=LINE('',#794,#389);
#328=LINE('',#796,#390);
#329=LINE('',#799,#391);
#330=LINE('',#801,#392);
#331=LINE('',#803,#393);
#332=LINE('',#807,#394);
#333=LINE('',#811,#395);
#334=LINE('',#813,#396);
#335=LINE('',#815,#397);
#336=LINE('',#817,#398);
#337=LINE('',#819,#399);
#338=LINE('',#821,#400);
#339=LINE('',#825,#401);
#340=LINE('',#827,#402);
#341=LINE('',#829,#403);
#342=LINE('',#831,#404);
#343=LINE('',#834,#405);
#344=LINE('',#836,#406);
#345=LINE('',#838,#407);
#346=LINE('',#843,#408);
#347=LINE('',#847,#409);
#348=LINE('',#851,#410);
#349=LINE('',#853,#411);
#350=LINE('',#855,#412);
#351=LINE('',#856,#413);
#352=LINE('',#857,#414);
#353=LINE('',#861,#415);
#354=LINE('',#863,#416);
#355=LINE('',#865,#417);
#356=LINE('',#867,#418);
#357=LINE('',#869,#419);
#358=LINE('',#870,#420);
#359=LINE('',#872,#421);
#360=LINE('',#874,#422);
#361=LINE('',#876,#423);
#362=LINE('',#877,#424);
#363=LINE('',#879,#425);
#364=LINE('',#881,#426);
#365=LINE('',#882,#427);
#366=LINE('',#884,#428);
#367=LINE('',#886,#429);
#368=LINE('',#888,#430);
#369=LINE('',#890,#431);
#370=LINE('',#892,#432);
#371=LINE('',#894,#433);
#372=LINE('',#897,#434);
#373=LINE('',#904,#435);
#374=VECTOR('',#610,1.);
#375=VECTOR('',#611,1.);
#376=VECTOR('',#612,1.);
#377=VECTOR('',#613,1.);
#378=VECTOR('',#618,1.);
#379=VECTOR('',#619,1.);
#380=VECTOR('',#620,1.);
#381=VECTOR('',#621,1.);
#382=VECTOR('',#622,1.);
#383=VECTOR('',#625,1.);
#384=VECTOR('',#628,1.);
#385=VECTOR('',#629,1.);
#386=VECTOR('',#630,1.);
#387=VECTOR('',#633,1.);
#388=VECTOR('',#636,1.);
#389=VECTOR('',#637,1.);
#390=VECTOR('',#638,1.);
#391=VECTOR('',#643,1.);
#392=VECTOR('',#644,1.);
#393=VECTOR('',#645,1.);
#394=VECTOR('',#650,1.);
#395=VECTOR('',#655,1.);
#396=VECTOR('',#656,1.);
#397=VECTOR('',#657,1.);
#398=VECTOR('',#660,1.);
#399=VECTOR('',#661,1.);
#400=VECTOR('',#662,1.);
#401=VECTOR('',#667,1.);
#402=VECTOR('',#668,1.);
#403=VECTOR('',#669,1.);
#404=VECTOR('',#672,1.);
#405=VECTOR('',#673,1.);
#406=VECTOR('',#674,1.);
#407=VECTOR('',#675,1.);
#408=VECTOR('',#680,1.);
#409=VECTOR('',#683,1.);
#410=VECTOR('',#686,1.);
#411=VECTOR('',#687,1.);
#412=VECTOR('',#688,1.);
#413=VECTOR('',#689,1.);
#414=VECTOR('',#690,1.);
#415=VECTOR('',#695,1.);
#416=VECTOR('',#696,1.);
#417=VECTOR('',#697,1.);
#418=VECTOR('',#700,1.);
#419=VECTOR('',#701,1.);
#420=VECTOR('',#702,1.);
#421=VECTOR('',#703,1.);
#422=VECTOR('',#706,1.);
#423=VECTOR('',#707,1.);
#424=VECTOR('',#708,1.);
#425=VECTOR('',#709,1.);
#426=VECTOR('',#712,1.);
#427=VECTOR('',#713,1.);
#428=VECTOR('',#716,1.);
#429=VECTOR('',#719,1.);
#430=VECTOR('',#722,1.);
#431=VECTOR('',#725,1.);
#432=VECTOR('',#728,1.);
#433=VECTOR('',#731,1.);
#434=VECTOR('',#736,1.);
#435=VECTOR('',#745,1.);
#436=EDGE_LOOP('',(#32,#33,#34,#35));
#437=EDGE_LOOP('',(#36,#37,#38,#39,#40,#41,#42,#43,#44,#45,#46,#47,#48,
#49));
#438=EDGE_LOOP('',(#50,#51,#52,#53));
#439=EDGE_LOOP('',(#54,#55,#56,#57,#58,#59));
#440=EDGE_LOOP('',(#60,#61,#62,#63));
#441=EDGE_LOOP('',(#64,#65,#66,#67));
#442=EDGE_LOOP('',(#68,#69,#70,#71));
#443=EDGE_LOOP('',(#72));
#444=EDGE_LOOP('',(#73,#74,#75,#76));
#445=EDGE_LOOP('',(#77,#78,#79,#80));
#446=EDGE_LOOP('',(#81,#82,#83,#84,#85,#86,#87,#88));
#447=EDGE_LOOP('',(#89,#90,#91,#92));
#448=EDGE_LOOP('',(#93));
#449=EDGE_LOOP('',(#94,#95,#96,#97));
#450=EDGE_LOOP('',(#98,#99,#100,#101,#102,#103,#104,#105,#106,#107,#108,
#109,#110,#111,#112));
#451=EDGE_LOOP('',(#113,#114,#115,#116,#117,#118,#119,#120,#121,#122,#123,
#124,#125,#126,#127));
#452=EDGE_LOOP('',(#128,#129,#130,#131));
#453=EDGE_LOOP('',(#132,#133,#134,#135));
#454=EDGE_LOOP('',(#136,#137,#138,#139));
#455=EDGE_LOOP('',(#140,#141,#142,#143));
#456=EDGE_LOOP('',(#144,#145,#146,#147));
#457=EDGE_LOOP('',(#148,#149,#150,#151));
#458=EDGE_LOOP('',(#152,#153,#154,#155,#156,#157));
#459=EDGE_LOOP('',(#158,#159,#160,#161));
#460=EDGE_LOOP('',(#162,#163,#164,#165));
#461=EDGE_LOOP('',(#166));
#462=EDGE_LOOP('',(#167,#168,#169,#170));
#463=EDGE_LOOP('',(#171));
#464=EDGE_LOOP('',(#172,#173,#174,#175));
#465=EDGE_LOOP('',(#176,#177,#178,#179));
#466=EDGE_LOOP('',(#180));
#467=EDGE_LOOP('',(#181));
#468=EDGE_LOOP('',(#182));
#469=EDGE_LOOP('',(#183));
#470=FACE_BOUND('',#436,.T.);
#471=FACE_BOUND('',#437,.T.);
#472=FACE_BOUND('',#438,.T.);
#473=FACE_BOUND('',#439,.T.);
#474=FACE_BOUND('',#440,.T.);
#475=FACE_BOUND('',#441,.T.);
#476=FACE_BOUND('',#442,.T.);
#477=FACE_BOUND('',#443,.T.);
#478=FACE_BOUND('',#444,.T.);
#479=FACE_BOUND('',#445,.T.);
#480=FACE_BOUND('',#446,.T.);
#481=FACE_BOUND('',#447,.T.);
#482=FACE_BOUND('',#448,.T.);
#483=FACE_BOUND('',#449,.T.);
#484=FACE_BOUND('',#450,.T.);
#485=FACE_BOUND('',#451,.T.);
#486=FACE_BOUND('',#452,.T.);
#487=FACE_BOUND('',#453,.T.);
#488=FACE_BOUND('',#454,.T.);
#489=FACE_BOUND('',#455,.T.);
#490=FACE_BOUND('',#456,.T.);
#491=FACE_BOUND('',#457,.T.);
#492=FACE_BOUND('',#458,.T.);
#493=FACE_BOUND('',#459,.T.);
#494=FACE_BOUND('',#460,.T.);
#495=FACE_BOUND('',#461,.T.);
#496=FACE_BOUND('',#462,.T.);
#497=FACE_BOUND('',#463,.T.);
#498=FACE_BOUND('',#464,.T.);
#499=FACE_BOUND('',#465,.T.);
#500=FACE_BOUND('',#466,.T.);
#501=FACE_BOUND('',#467,.T.);
#502=FACE_BOUND('',#468,.T.);
#503=FACE_BOUND('',#469,.T.);
#504=PLANE('',#565);
#505=PLANE('',#566);
#506=PLANE('',#571);
#507=PLANE('',#572);
#508=PLANE('',#577);
#509=PLANE('',#578);
#510=PLANE('',#579);
#511=PLANE('',#581);
#512=PLANE('',#582);
#513=PLANE('',#586);
#514=PLANE('',#588);
#515=PLANE('',#589);
#516=PLANE('',#591);
#517=PLANE('',#592);
#518=PLANE('',#593);
#519=PLANE('',#595);
#520=PLANE('',#597);
#521=PLANE('',#598);
#522=PLANE('',#599);
#523=PLANE('',#601);
#524=PLANE('',#603);
#525=ADVANCED_FACE('',(#470),#504,.T.);
#526=ADVANCED_FACE('',(#471),#505,.F.);
#527=ADVANCED_FACE('',(#472),#506,.T.);
#528=ADVANCED_FACE('',(#473),#507,.F.);
#529=ADVANCED_FACE('',(#474),#12,.F.);
#530=ADVANCED_FACE('',(#475),#508,.F.);
#531=ADVANCED_FACE('',(#476),#509,.T.);
#532=ADVANCED_FACE('',(#477,#478),#510,.T.);
#533=ADVANCED_FACE('',(#479),#511,.T.);
#534=ADVANCED_FACE('',(#480,#481),#512,.T.);
#535=ADVANCED_FACE('',(#482,#483),#513,.T.);
#536=ADVANCED_FACE('',(#484),#514,.T.);
#537=ADVANCED_FACE('',(#485),#515,.F.);
#538=ADVANCED_FACE('',(#486),#13,.F.);
#539=ADVANCED_FACE('',(#487),#516,.T.);
#540=ADVANCED_FACE('',(#488),#517,.F.);
#541=ADVANCED_FACE('',(#489),#518,.T.);
#542=ADVANCED_FACE('',(#490),#14,.F.);
#543=ADVANCED_FACE('',(#491),#519,.T.);
#544=ADVANCED_FACE('',(#492),#15,.F.);
#545=ADVANCED_FACE('',(#493),#520,.T.);
#546=ADVANCED_FACE('',(#494),#521,.F.);
#547=ADVANCED_FACE('',(#495,#496),#522,.T.);
#548=ADVANCED_FACE('',(#497,#498),#523,.F.);
#549=ADVANCED_FACE('',(#499),#524,.T.);
#550=ADVANCED_FACE('',(#500,#501),#16,.F.);
#551=ADVANCED_FACE('',(#502,#503),#17,.F.);
#552=CLOSED_SHELL('',(#525,#526,#527,#528,#529,#530,#531,#532,#533,#534,
#535,#536,#537,#538,#539,#540,#541,#542,#543,#544,#545,#546,#547,#548,#549,
#550,#551));
#553=STYLED_ITEM('',(#554),#561);
#554=PRESENTATION_STYLE_ASSIGNMENT((#555));
#555=SURFACE_STYLE_USAGE(.BOTH.,#556);
#556=SURFACE_SIDE_STYLE('',(#557));
#557=SURFACE_STYLE_FILL_AREA(#558);
#558=FILL_AREA_STYLE('',(#559));
#559=FILL_AREA_STYLE_COLOUR('',#560);
#560=COLOUR_RGB('',0.231372549019608,0.380392156862745,0.705882352941177);
#561=MANIFOLD_SOLID_BREP('Part 1',#552);
#562=SHAPE_DEFINITION_REPRESENTATION(#914,#563);
#563=SHAPE_REPRESENTATION('Part 1',(#564),#909);
#564=AXIS2_PLACEMENT_3D('',#752,#606,#607);
#565=AXIS2_PLACEMENT_3D('',#753,#608,#609);
#566=AXIS2_PLACEMENT_3D('',#762,#614,#615);
#567=AXIS2_PLACEMENT_3D('',#763,#616,#617);
#568=AXIS2_PLACEMENT_3D('',#776,#623,#624);
#569=AXIS2_PLACEMENT_3D('',#780,#626,#627);
#570=AXIS2_PLACEMENT_3D('',#788,#631,#632);
#571=AXIS2_PLACEMENT_3D('',#791,#634,#635);
#572=AXIS2_PLACEMENT_3D('',#797,#639,#640);
#573=AXIS2_PLACEMENT_3D('',#798,#641,#642);
#574=AXIS2_PLACEMENT_3D('',#804,#646,#647);
#575=AXIS2_PLACEMENT_3D('',#805,#648,#649);
#576=AXIS2_PLACEMENT_3D('',#809,#651,#652);
#577=AXIS2_PLACEMENT_3D('',#810,#653,#654);
#578=AXIS2_PLACEMENT_3D('',#816,#658,#659);
#579=AXIS2_PLACEMENT_3D('',#822,#663,#664);
#580=AXIS2_PLACEMENT_3D('',#823,#665,#666);
#581=AXIS2_PLACEMENT_3D('',#830,#670,#671);
#582=AXIS2_PLACEMENT_3D('',#839,#676,#677);
#583=AXIS2_PLACEMENT_3D('',#840,#678,#679);
#584=AXIS2_PLACEMENT_3D('',#845,#681,#682);
#585=AXIS2_PLACEMENT_3D('',#849,#684,#685);
#586=AXIS2_PLACEMENT_3D('',#858,#691,#692);
#587=AXIS2_PLACEMENT_3D('',#859,#693,#694);
#588=AXIS2_PLACEMENT_3D('',#866,#698,#699);
#589=AXIS2_PLACEMENT_3D('',#873,#704,#705);
#590=AXIS2_PLACEMENT_3D('',#880,#710,#711);
#591=AXIS2_PLACEMENT_3D('',#883,#714,#715);
#592=AXIS2_PLACEMENT_3D('',#885,#717,#718);
#593=AXIS2_PLACEMENT_3D('',#887,#720,#721);
#594=AXIS2_PLACEMENT_3D('',#889,#723,#724);
#595=AXIS2_PLACEMENT_3D('',#891,#726,#727);
#596=AXIS2_PLACEMENT_3D('',#893,#729,#730);
#597=AXIS2_PLACEMENT_3D('',#895,#732,#733);
#598=AXIS2_PLACEMENT_3D('',#896,#734,#735);
#599=AXIS2_PLACEMENT_3D('',#898,#737,#738);
#600=AXIS2_PLACEMENT_3D('',#899,#739,#740);
#601=AXIS2_PLACEMENT_3D('',#901,#741,#742);
#602=AXIS2_PLACEMENT_3D('',#902,#743,#744);
#603=AXIS2_PLACEMENT_3D('',#905,#746,#747);
#604=AXIS2_PLACEMENT_3D('',#906,#748,#749);
#605=AXIS2_PLACEMENT_3D('',#907,#750,#751);
#606=DIRECTION('',(0.,0.,1.));
#607=DIRECTION('',(1.,0.,0.));
#608=DIRECTION('',(-1.,0.,0.));
#609=DIRECTION('',(0.,0.,1.));
#610=DIRECTION('',(0.,0.,1.));
#611=DIRECTION('',(0.,-1.,0.));
#612=DIRECTION('',(0.,0.,1.));
#613=DIRECTION('',(0.,1.,0.));
#614=DIRECTION('',(0.,0.,1.));
#615=DIRECTION('',(1.,0.,0.));
#616=DIRECTION('',(0.,0.,1.));
#617=DIRECTION('',(1.,0.,0.));
#618=DIRECTION('',(0.,1.,0.));
#619=DIRECTION('',(1.,0.,0.));
#620=DIRECTION('',(0.,1.,0.));
#621=DIRECTION('',(1.,0.,0.));
#622=DIRECTION('',(0.,1.,0.));
#623=DIRECTION('',(0.,0.,1.));
#624=DIRECTION('',(1.,0.,0.));
#625=DIRECTION('',(0.,1.,0.));
#626=DIRECTION('',(0.,0.,1.));
#627=DIRECTION('',(1.,0.,0.));
#628=DIRECTION('',(-0.523490857349928,0.852031291837945,0.));
#629=DIRECTION('',(1.,0.,0.));
#630=DIRECTION('',(-0.523490857349927,-0.852031291837946,0.));
#631=DIRECTION('',(0.,0.,1.));
#632=DIRECTION('',(1.,0.,0.));
#633=DIRECTION('',(0.,-1.,0.));
#634=DIRECTION('',(1.,0.,0.));
#635=DIRECTION('',(0.,0.,-1.));
#636=DIRECTION('',(0.,0.,-1.));
#637=DIRECTION('',(0.,0.,-1.));
#638=DIRECTION('',(0.,1.,0.));
#639=DIRECTION('',(-0.642787609686505,0.,0.766044443119007));
#640=DIRECTION('',(0.766044443119007,0.,0.642787609686505));
#641=DIRECTION('',(-0.642787609686505,0.,0.766044443119007));
#642=DIRECTION('',(-0.766044443119007,0.,-0.642787609686505));
#643=DIRECTION('',(0.766044443119007,0.,0.642787609686505));
#644=DIRECTION('',(0.,1.,0.));
#645=DIRECTION('',(0.766044443119007,0.,0.642787609686505));
#646=DIRECTION('',(0.,1.,0.));
#647=DIRECTION('',(0.,0.,1.));
#648=DIRECTION('',(0.,1.,0.));
#649=DIRECTION('',(0.,0.,-1.));
#650=DIRECTION('',(0.,1.,0.));
#651=DIRECTION('',(0.,1.,0.));
#652=DIRECTION('',(0.,0.,-1.));
#653=DIRECTION('',(0.,0.,1.));
#654=DIRECTION('',(1.,0.,0.));
#655=DIRECTION('',(1.,0.,0.));
#656=DIRECTION('',(0.,1.,0.));
#657=DIRECTION('',(1.,0.,0.));
#658=DIRECTION('',(-1.,0.,0.));
#659=DIRECTION('',(0.,0.,1.));
#660=DIRECTION('',(0.,0.,1.));
#661=DIRECTION('',(0.,1.,0.));
#662=DIRECTION('',(0.,0.,1.));
#663=DIRECTION('',(1.22464679914735E-16,0.,-1.));
#664=DIRECTION('',(-1.,0.,-1.22464679914735E-16));
#665=DIRECTION('',(1.22464679914735E-16,0.,-1.));
#666=DIRECTION('',(-1.,0.,-1.22464679914735E-16));
#667=DIRECTION('',(-1.,0.,-1.22464679914735E-16));
#668=DIRECTION('',(0.,-1.,0.));
#669=DIRECTION('',(-1.,0.,-1.22464679914735E-16));
#670=DIRECTION('',(1.,0.,0.));
#671=DIRECTION('',(0.,0.,-1.));
#672=DIRECTION('',(0.,-1.,0.));
#673=DIRECTION('',(0.,0.,-1.));
#674=DIRECTION('',(0.,1.,0.));
#675=DIRECTION('',(0.,0.,-1.));
#676=DIRECTION('',(0.,0.,1.));
#677=DIRECTION('',(1.,0.,0.));
#678=DIRECTION('',(0.,0.,1.));
#679=DIRECTION('',(1.,0.,0.));
#680=DIRECTION('',(0.,1.,0.));
#681=DIRECTION('',(0.,0.,1.));
#682=DIRECTION('',(1.,0.,0.));
#683=DIRECTION('',(0.,-1.,0.));
#684=DIRECTION('',(0.,0.,1.));
#685=DIRECTION('',(1.,0.,0.));
#686=DIRECTION('',(-0.523490857349927,-0.852031291837946,0.));
#687=DIRECTION('',(1.,0.,0.));
#688=DIRECTION('',(-0.523490857349928,0.852031291837945,0.));
#689=DIRECTION('',(1.,0.,0.));
#690=DIRECTION('',(1.,0.,0.));
#691=DIRECTION('',(6.12323399573677E-17,0.,-1.));
#692=DIRECTION('',(-1.,0.,-6.12323399573677E-17));
#693=DIRECTION('',(6.12323399573677E-17,0.,-1.));
#694=DIRECTION('',(-1.,0.,-6.12323399573677E-17));
#695=DIRECTION('',(-1.,0.,-6.12323399573677E-17));
#696=DIRECTION('',(-1.,0.,-6.12323399573677E-17));
#697=DIRECTION('',(0.,-1.,0.));
#698=DIRECTION('',(0.,-1.,0.));
#699=DIRECTION('',(1.,0.,0.));
#700=DIRECTION('',(0.,0.,1.));
#701=DIRECTION('',(1.,0.,0.));
#702=DIRECTION('',(-1.,0.,-1.44560289664734E-16));
#703=DIRECTION('',(0.,0.,1.));
#704=DIRECTION('',(0.,-1.,0.));
#705=DIRECTION('',(1.,0.,0.));
#706=DIRECTION('',(0.,0.,-1.));
#707=DIRECTION('',(1.,0.,1.44560289664734E-16));
#708=DIRECTION('',(-1.,0.,0.));
#709=DIRECTION('',(0.,0.,-1.));
#710=DIRECTION('',(0.,0.,-1.));
#711=DIRECTION('',(-1.,0.,0.));
#712=DIRECTION('',(0.,0.,-1.));
#713=DIRECTION('',(0.,0.,-1.));
#714=DIRECTION('',(0.852031291837945,0.523490857349928,0.));
#715=DIRECTION('',(-0.523490857349928,0.852031291837945,0.));
#716=DIRECTION('',(0.,0.,-1.));
#717=DIRECTION('',(0.,-1.,0.));
#718=DIRECTION('',(0.,0.,-1.));
#719=DIRECTION('',(0.,0.,-1.));
#720=DIRECTION('',(-0.852031291837946,0.523490857349927,0.));
#721=DIRECTION('',(-0.523490857349927,-0.852031291837946,0.));
#722=DIRECTION('',(0.,0.,-1.));
#723=DIRECTION('',(0.,0.,-1.));
#724=DIRECTION('',(-1.,0.,0.));
#725=DIRECTION('',(0.,0.,-1.));
#726=DIRECTION('',(-1.,0.,0.));
#727=DIRECTION('',(0.,0.,1.));
#728=DIRECTION('',(0.,0.,-1.));
#729=DIRECTION('',(0.,0.,-1.));
#730=DIRECTION('',(-1.,0.,0.));
#731=DIRECTION('',(0.,0.,-1.));
#732=DIRECTION('',(1.,0.,0.));
#733=DIRECTION('',(0.,0.,-1.));
#734=DIRECTION('',(1.,0.,0.));
#735=DIRECTION('',(0.,0.,-1.));
#736=DIRECTION('',(0.,-1.,0.));
#737=DIRECTION('',(-1.44560289664734E-16,0.,1.));
#738=DIRECTION('',(1.,0.,1.44560289664734E-16));
#739=DIRECTION('',(-1.44560289664734E-16,0.,1.));
#740=DIRECTION('',(1.,0.,1.44560289664734E-16));
#741=DIRECTION('',(0.,0.,-1.));
#742=DIRECTION('',(-1.,0.,0.));
#743=DIRECTION('',(-1.44560289664734E-16,0.,1.));
#744=DIRECTION('',(1.,0.,1.44560289664734E-16));
#745=DIRECTION('',(0.,-1.,0.));
#746=DIRECTION('',(1.,0.,0.));
#747=DIRECTION('',(0.,0.,-1.));
#748=DIRECTION('',(-1.44560289664734E-16,0.,1.));
#749=DIRECTION('',(1.,0.,1.44560289664734E-16));
#750=DIRECTION('',(-1.44560289664734E-16,0.,1.));
#751=DIRECTION('',(1.,0.,1.44560289664734E-16));
#752=CARTESIAN_POINT('',(0.,0.,0.));
#753=CARTESIAN_POINT('',(-0.00054999988334,-0.00035000023141,0.0016));
#754=CARTESIAN_POINT('',(-0.00054999988334,0.00464999976859,0.0016));
#755=CARTESIAN_POINT('',(-0.00054999988334,0.00464999976859,0.0015));
#756=CARTESIAN_POINT('',(-0.00054999988334,0.00464999976859,0.0032));
#757=CARTESIAN_POINT('',(-0.00054999988334,0.00465199976859,0.0015));
#758=CARTESIAN_POINT('',(-0.00054999988334,-0.00035000023141,0.0015));
#759=CARTESIAN_POINT('',(-0.00054999988334,-0.00035000023141,0.0016));
#760=CARTESIAN_POINT('',(-0.00054999988334,-0.00035000023141,0.0032));
#761=CARTESIAN_POINT('',(-0.00054999988334,-0.00035000023141,0.0032));
#762=CARTESIAN_POINT('',(0.00149737112947623,-0.00035000023141,0.001331));
#763=CARTESIAN_POINT('',(0.00169754027184,0.002150356,0.001331));
#764=CARTESIAN_POINT('',(0.00304474214229247,0.00151384431884295,0.001331));
#765=CARTESIAN_POINT('',(0.00219754027184,0.00074675349216525,0.001331));
#766=CARTESIAN_POINT('',(0.00304474214229247,-0.00035000023141,0.001331));
#767=CARTESIAN_POINT('',(0.00304474214229247,-0.00035000023141,0.001331));
#768=CARTESIAN_POINT('',(0.00149737112947623,-0.00035000023141,0.001331));
#769=CARTESIAN_POINT('',(-4.999988334E-5,-0.00035000023141,0.001331));
#770=CARTESIAN_POINT('',(-4.999988334E-5,-0.00035000023141,0.001331));
#771=CARTESIAN_POINT('',(-4.999988334E-5,0.00464999976859,0.001331));
#772=CARTESIAN_POINT('',(0.00149737112947623,0.00464999976859,0.001331));
#773=CARTESIAN_POINT('',(0.00304474214229247,0.00464999976859,0.001331));
#774=CARTESIAN_POINT('',(0.00304474214229247,-0.00035000023141,0.001331));
#775=CARTESIAN_POINT('',(0.00304474214229247,0.00278686768115704,0.001331));
#776=CARTESIAN_POINT('',(0.00169754027184,0.002150356,0.001331));
#777=CARTESIAN_POINT('',(0.00119754027184,0.00074675349216525,0.001331));
#778=CARTESIAN_POINT('',(0.00119754027184,-0.00035000023141,0.001331));
#779=CARTESIAN_POINT('',(0.00119754027184,0.000590356,0.001331));
#780=CARTESIAN_POINT('',(0.00144754027184,0.000590356,0.001331));
#781=CARTESIAN_POINT('',(0.00137997117762606,0.000349660305175376,0.001331));
#782=CARTESIAN_POINT('',(0.00172421377774599,-0.000210627354423171,0.001331));
#783=CARTESIAN_POINT('',(0.00139797584011588,0.000320356,0.001331));
#784=CARTESIAN_POINT('',(0.00149737112947623,0.000320356,0.001331));
#785=CARTESIAN_POINT('',(0.00199710470356422,0.000320356,0.001331));
#786=CARTESIAN_POINT('',(0.00156115699038993,-0.000389190476341598,0.001331));
#787=CARTESIAN_POINT('',(0.00201510936605404,0.000349660305175406,0.001331));
#788=CARTESIAN_POINT('',(0.00194754027184,0.000590356,0.001331));
#789=CARTESIAN_POINT('',(0.00219754027184,0.000590356,0.001331));
#790=CARTESIAN_POINT('',(0.00219754027184,-0.00035000023141,0.001331));
#791=CARTESIAN_POINT('',(-4.999988334E-5,-0.00035000023141,0.0006655));
#792=CARTESIAN_POINT('',(-4.999988334E-5,0.00464999976859,0.0006655));
#793=CARTESIAN_POINT('',(-4.99998833400001E-5,0.00464999976859,1.63644632522526E-20));
#794=CARTESIAN_POINT('',(-4.999988334E-5,-0.00035000023141,0.0006655));
#795=CARTESIAN_POINT('',(-4.99998833400001E-5,-0.00035000023141,1.63644632522526E-20));
#796=CARTESIAN_POINT('',(-4.99998833400001E-5,-0.00035000023141,1.63644632522526E-20));
#797=CARTESIAN_POINT('',(0.0031249630486482,-0.00035000023141,0.0013983133329358));
#798=CARTESIAN_POINT('',(0.00169754027184,0.002150356,0.000200563407382094));
#799=CARTESIAN_POINT('',(0.0031249630486482,0.00464999976859,0.0013983133329358));
#800=CARTESIAN_POINT('',(0.00320518395500409,0.00464999976859,0.0014656266658714));
#801=CARTESIAN_POINT('',(0.00320518395500409,-0.00035000023141,0.0014656266658714));
#802=CARTESIAN_POINT('',(0.00320518395500409,-0.00035000023141,0.0014656266658714));
#803=CARTESIAN_POINT('',(0.0031249630486482,-0.00035000023141,0.0013983133329358));
#804=CARTESIAN_POINT('',(0.003590856520816,-0.00035000023141,0.001006));
#805=CARTESIAN_POINT('',(0.003590856520816,0.00464999976859,0.001006));
#806=CARTESIAN_POINT('',(0.003590856520816,0.00464999976859,0.001606));
#807=CARTESIAN_POINT('',(0.003590856520816,-0.00035000023141,0.001606));
#808=CARTESIAN_POINT('',(0.003590856520816,-0.00035000023141,0.001606));
#809=CARTESIAN_POINT('',(0.003590856520816,-0.00035000023141,0.001006));
#810=CARTESIAN_POINT('',(0.004020428698928,-0.00035000023141,0.001606));
#811=CARTESIAN_POINT('',(0.004020428698928,0.00464999976859,0.001606));
#812=CARTESIAN_POINT('',(0.00445000087704,0.00464999976859,0.001606));
#813=CARTESIAN_POINT('',(0.00445000087704,-0.00035000023141,0.001606));
#814=CARTESIAN_POINT('',(0.00445000087704,-0.00035000023141,0.001606));
#815=CARTESIAN_POINT('',(0.004020428698928,-0.00035000023141,0.001606));
#816=CARTESIAN_POINT('',(0.00445000087704,-0.00035000023141,0.000803));
#817=CARTESIAN_POINT('',(0.00445000087704,0.00464999976859,0.000803));
#818=CARTESIAN_POINT('',(0.00445000087704,0.00464999976859,-2.35412234534877E-20));
#819=CARTESIAN_POINT('',(0.00445000087704,-0.00035000023141,-2.35412234534877E-20));
#820=CARTESIAN_POINT('',(0.00445000087704,-0.00035000023141,-2.35412234534877E-20));
#821=CARTESIAN_POINT('',(0.00445000087704,-0.00035000023141,0.000803));
#822=CARTESIAN_POINT('',(0.00470000087704,-0.00035000023141,7.07494652519617E-21));
#823=CARTESIAN_POINT('',(0.00720000087704,0.00214999976859,0.));
#824=CARTESIAN_POINT('',(0.00610000087704,0.00214999976859,-1.34711147906209E-19));
#825=CARTESIAN_POINT('',(0.00470000087704,0.00464999976859,7.07494652519617E-21));
#826=CARTESIAN_POINT('',(0.00945000087704,0.00464999976859,0.));
#827=CARTESIAN_POINT('',(0.00945000087704,0.00465199976859,0.));
#828=CARTESIAN_POINT('',(0.00945000087704,-0.00035000023141,0.));
#829=CARTESIAN_POINT('',(0.00470000087704,-0.00035000023141,7.07494652519617E-21));
#830=CARTESIAN_POINT('',(0.00495000087704,-0.00035000023141,0.0016));
#831=CARTESIAN_POINT('',(0.00495000087704,0.00465199976859,0.0015));
#832=CARTESIAN_POINT('',(0.00495000087704,0.00464999976859,0.0015));
#833=CARTESIAN_POINT('',(0.00495000087704,-0.00035000023141,0.0015));
#834=CARTESIAN_POINT('',(0.00495000087704,0.00464999976859,0.0016));
#835=CARTESIAN_POINT('',(0.00495000087704,0.00464999976859,0.0032));
#836=CARTESIAN_POINT('',(0.00495000087704,-0.00035000023141,0.0032));
#837=CARTESIAN_POINT('',(0.00495000087704,-0.00035000023141,0.0032));
#838=CARTESIAN_POINT('',(0.00495000087704,-0.00035000023141,0.0016));
#839=CARTESIAN_POINT('',(0.00220000049685,-0.00035000023141,0.0032));
#840=CARTESIAN_POINT('',(0.00144754027184,0.000590356,0.0032));
#841=CARTESIAN_POINT('',(0.00119754027184,0.000590356,0.0032));
#842=CARTESIAN_POINT('',(0.00137997117762606,0.000349660305175376,0.0032));
#843=CARTESIAN_POINT('',(0.00119754027184,-0.00035000023141,0.0032));
#844=CARTESIAN_POINT('',(0.00119754027184,0.00074675349216525,0.0032));
#845=CARTESIAN_POINT('',(0.00169754027184,0.002150356,0.0032));
#846=CARTESIAN_POINT('',(0.00219754027184,0.00074675349216525,0.0032));
#847=CARTESIAN_POINT('',(0.00219754027184,-0.00035000023141,0.0032));
#848=CARTESIAN_POINT('',(0.00219754027184,0.000590356,0.0032));
#849=CARTESIAN_POINT('',(0.00194754027184,0.000590356,0.0032));
#850=CARTESIAN_POINT('',(0.00201510936605404,0.000349660305175406,0.0032));
#851=CARTESIAN_POINT('',(0.00175370742367604,-7.57962840394813E-5,0.0032));
#852=CARTESIAN_POINT('',(0.00199710470356422,0.000320356,0.0032));
#853=CARTESIAN_POINT('',(0.00220000049685,0.000320356,0.0032));
#854=CARTESIAN_POINT('',(0.00139797584011588,0.000320356,0.0032));
#855=CARTESIAN_POINT('',(0.0019167642110321,-0.000524021546725288,0.0032));
#856=CARTESIAN_POINT('',(0.00220000049685,0.00464999976859,0.0032));
#857=CARTESIAN_POINT('',(0.00220000049685,-0.00035000023141,0.0032));
#858=CARTESIAN_POINT('',(-0.00029999988334,-0.00035000023141,1.05637826291063E-21));
#859=CARTESIAN_POINT('',(-0.00279999988334,0.00214999976859,0.));
#860=CARTESIAN_POINT('',(-0.00389999988334,0.00214999976859,-6.73555739531045E-20));
#861=CARTESIAN_POINT('',(-0.00029999988334,0.00464999976859,1.05637826291063E-21));
#862=CARTESIAN_POINT('',(-0.00504999988334,0.00464999976859,-3.25260651745652E-19));
#863=CARTESIAN_POINT('',(-0.00029999988334,-0.00035000023141,1.05637826291063E-21));
#864=CARTESIAN_POINT('',(-0.00504999988334,-0.00035000023141,-3.25260651745652E-19));
#865=CARTESIAN_POINT('',(-0.00504999988334,0.00465199976859,-3.25260651745652E-19));
#866=CARTESIAN_POINT('',(0.00220000049685,-0.00035000023141,0.0016));
#867=CARTESIAN_POINT('',(0.00945000087704,-0.00035000023141,0.00075));
#868=CARTESIAN_POINT('',(0.00945000087704,-0.00035000023141,0.0015));
#869=CARTESIAN_POINT('',(0.00720000087704,-0.00035000023141,0.0015));
#870=CARTESIAN_POINT('',(-0.00279999988334,-0.00035000023141,0.0015));
#871=CARTESIAN_POINT('',(-0.00504999988334,-0.00035000023141,0.0015));
#872=CARTESIAN_POINT('',(-0.00504999988334,-0.00035000023141,0.00075));
#873=CARTESIAN_POINT('',(0.00220000049685,0.00464999976859,0.0016));
#874=CARTESIAN_POINT('',(-0.00504999988334,0.00464999976859,0.00075));
#875=CARTESIAN_POINT('',(-0.00504999988334,0.00464999976859,0.0015));
#876=CARTESIAN_POINT('',(-0.00279999988334,0.00464999976859,0.0015));
#877=CARTESIAN_POINT('',(0.00720000087704,0.00464999976859,0.0015));
#878=CARTESIAN_POINT('',(0.00945000087704,0.00464999976859,0.0015));
#879=CARTESIAN_POINT('',(0.00945000087704,0.00464999976859,0.00075));
#880=CARTESIAN_POINT('',(0.00144754027184,0.000590356,0.028066));
#881=CARTESIAN_POINT('',(0.00119754027184,0.000590356,0.028066));
#882=CARTESIAN_POINT('',(0.00137997117762606,0.000349660305175376,0.028066));
#883=CARTESIAN_POINT('',(0.00138897350887097,0.000335008152587688,0.028066));
#884=CARTESIAN_POINT('',(0.00139797584011588,0.000320356,0.028066));
#885=CARTESIAN_POINT('',(0.00169754027184005,0.000320356,0.028066));
#886=CARTESIAN_POINT('',(0.00199710470356422,0.000320356,0.028066));
#887=CARTESIAN_POINT('',(0.00200610703480913,0.000335008152587703,0.028066));
#888=CARTESIAN_POINT('',(0.00201510936605404,0.000349660305175406,0.028066));
#889=CARTESIAN_POINT('',(0.00194754027184,0.000590356,0.028066));
#890=CARTESIAN_POINT('',(0.00219754027184,0.000590356,0.028066));
#891=CARTESIAN_POINT('',(0.00219754027184,0.000668554746082625,0.028066));
#892=CARTESIAN_POINT('',(0.00219754027184,0.00074675349216525,0.028066));
#893=CARTESIAN_POINT('',(0.00169754027184,0.002150356,0.028066));
#894=CARTESIAN_POINT('',(0.00119754027184,0.00074675349216525,0.028066));
#895=CARTESIAN_POINT('',(0.00119754027184,0.000668554746082625,0.028066));
#896=CARTESIAN_POINT('',(-0.00504999988334,0.00465199976859,0.00075));
#897=CARTESIAN_POINT('',(-0.00504999988334,0.00465199976859,0.0015));
#898=CARTESIAN_POINT('',(-0.00279999988334,0.00465199976859,0.0015));
#899=CARTESIAN_POINT('',(-0.00279999988334,0.00214999976859,0.0015));
#900=CARTESIAN_POINT('',(-0.00169999988334,0.00214999976859,0.0015));
#901=CARTESIAN_POINT('',(0.00720000087704,0.00465199976859,0.0015));
#902=CARTESIAN_POINT('',(0.00720000087704,0.00214999976859,0.0015));
#903=CARTESIAN_POINT('',(0.00830000087704,0.00214999976859,0.0015));
#904=CARTESIAN_POINT('',(0.00945000087704,0.00465199976859,0.0015));
#905=CARTESIAN_POINT('',(0.00945000087704,0.00465199976859,0.00075));
#906=CARTESIAN_POINT('',(0.00720000087704,0.00214999976859,-0.0235));
#907=CARTESIAN_POINT('',(-0.00279999988333999,0.00214999976859,-0.0235));
#908=MECHANICAL_DESIGN_GEOMETRIC_PRESENTATION_REPRESENTATION('',(#553),
#909);
#909=(
GEOMETRIC_REPRESENTATION_CONTEXT(3)
GLOBAL_UNCERTAINTY_ASSIGNED_CONTEXT((#910))
GLOBAL_UNIT_ASSIGNED_CONTEXT((#913,#912,#911))
REPRESENTATION_CONTEXT('Part 1','TOP_LEVEL_ASSEMBLY_PART')
);
#910=UNCERTAINTY_MEASURE_WITH_UNIT(LENGTH_MEASURE(1.E-8),#913,
'DISTANCE_ACCURACY_VALUE','Maximum Tolerance applied to model');
#911=(
NAMED_UNIT(*)
SI_UNIT($,.STERADIAN.)
SOLID_ANGLE_UNIT()
);
#912=(
NAMED_UNIT(*)
PLANE_ANGLE_UNIT()
SI_UNIT($,.RADIAN.)
);
#913=(
LENGTH_UNIT()
NAMED_UNIT(*)
SI_UNIT($,.METRE.)
);
#914=PRODUCT_DEFINITION_SHAPE('','',#915);
#915=PRODUCT_DEFINITION('','',#917,#916);
#916=PRODUCT_DEFINITION_CONTEXT('',#923,'design');
#917=PRODUCT_DEFINITION_FORMATION_WITH_SPECIFIED_SOURCE('','',#919,
 .NOT_KNOWN.);
#918=PRODUCT_RELATED_PRODUCT_CATEGORY('','',(#919));
#919=PRODUCT('Part 1','Part 1','Part 1',(#921));
#920=PRODUCT_CATEGORY('','');
#921=PRODUCT_CONTEXT('',#923,'mechanical');
#922=APPLICATION_PROTOCOL_DEFINITION('international standard',
'ap242_managed_model_based_3d_engineering',2020,#923);
#923=APPLICATION_CONTEXT('managed model based 3d engineering');
ENDSEC;
END-ISO-10303-21;
