%TF.GenerationSoftware,KiCad,Pcbnew,9.0.8-9.0.8~ubuntu24.04.1*%
%TF.CreationDate,2026-07-10T17:31:19+02:00*%
%TF.ProjectId,palroc_one_pcb,70616c72-6f63-45f6-9f6e-655f7063622e,rev?*%
%TF.SameCoordinates,Original*%
%TF.FileFunction,Copper,L2,Inr*%
%TF.FilePolarity,Positive*%
%FSLAX46Y46*%
G04 Gerber Fmt 4.6, Leading zero omitted, Abs format (unit mm)*
G04 Created by KiCad (PCBNEW 9.0.8-9.0.8~ubuntu24.04.1) date 2026-07-10 17:31:19*
%MOMM*%
%LPD*%
G01*
G04 APERTURE LIST*
G04 Aperture macros list*
%AMRoundRect*
0 Rectangle with rounded corners*
0 $1 Rounding radius*
0 $2 $3 $4 $5 $6 $7 $8 $9 X,Y pos of 4 corners*
0 Add a 4 corners polygon primitive as box body*
4,1,4,$2,$3,$4,$5,$6,$7,$8,$9,$2,$3,0*
0 Add four circle primitives for the rounded corners*
1,1,$1+$1,$2,$3*
1,1,$1+$1,$4,$5*
1,1,$1+$1,$6,$7*
1,1,$1+$1,$8,$9*
0 Add four rect primitives between the rounded corners*
20,1,$1+$1,$2,$3,$4,$5,0*
20,1,$1+$1,$4,$5,$6,$7,0*
20,1,$1+$1,$6,$7,$8,$9,0*
20,1,$1+$1,$8,$9,$2,$3,0*%
G04 Aperture macros list end*
%TA.AperFunction,ComponentPad*%
%ADD10C,3.800000*%
%TD*%
%TA.AperFunction,ComponentPad*%
%ADD11RoundRect,0.250000X0.750000X0.750000X-0.750000X0.750000X-0.750000X-0.750000X0.750000X-0.750000X0*%
%TD*%
%TA.AperFunction,ComponentPad*%
%ADD12C,2.000000*%
%TD*%
%TA.AperFunction,ComponentPad*%
%ADD13O,2.300000X2.300000*%
%TD*%
%TA.AperFunction,ComponentPad*%
%ADD14O,1.300000X2.300000*%
%TD*%
%TA.AperFunction,ComponentPad*%
%ADD15O,1.300000X2.100000*%
%TD*%
%TA.AperFunction,ComponentPad*%
%ADD16C,0.500000*%
%TD*%
%TA.AperFunction,ComponentPad*%
%ADD17RoundRect,0.450000X1.050000X-1.050000X1.050000X1.050000X-1.050000X1.050000X-1.050000X-1.050000X0*%
%TD*%
%TA.AperFunction,ViaPad*%
%ADD18C,0.550000*%
%TD*%
%TA.AperFunction,ViaPad*%
%ADD19C,0.500000*%
%TD*%
%TA.AperFunction,ViaPad*%
%ADD20C,0.350000*%
%TD*%
G04 APERTURE END LIST*
D10*
%TO.N,GND*%
%TO.C,H1*%
X72250000Y59000000D03*
%TD*%
D11*
%TO.N,/Project Architecture/Misc/AUDIO+*%
%TO.C,J2*%
X42775000Y58396250D03*
D12*
%TO.N,/Project Architecture/Misc/AUDIO-*%
X40235000Y58396250D03*
%TD*%
D13*
%TO.N,/Project Architecture/Gas Sensors/co_ce*%
%TO.C,J1*%
X45250000Y27736851D03*
%TO.N,unconnected-(J1-Pin_2-Pad2)*%
X45250000Y30276851D03*
%TO.N,/Project Architecture/Gas Sensors/co_we*%
X45250000Y32816851D03*
%TO.N,/Project Architecture/Gas Sensors/co_re*%
X45250000Y35356851D03*
%TD*%
D10*
%TO.N,GND*%
%TO.C,H2*%
X-20250000Y-21000000D03*
%TD*%
D14*
%TO.N,Net-(J3-SHIELD)*%
%TO.C,J3*%
X26670000Y-19296250D03*
D15*
X26670000Y-23496250D03*
D16*
X29000000Y-22116250D03*
X29000000Y-24116250D03*
X33000000Y-22116250D03*
X33000000Y-24116250D03*
D14*
X35330000Y-19296250D03*
D15*
X35330000Y-23496250D03*
%TD*%
D10*
%TO.N,GND*%
%TO.C,H3*%
X-20250000Y59000000D03*
%TD*%
D17*
%TO.N,GND*%
%TO.C,J4*%
X66200000Y25000000D03*
%TO.N,/Project Architecture/Gas Sensors/o2+*%
X59450000Y31750000D03*
%TO.N,GND*%
X66200000Y38500000D03*
%TD*%
D18*
%TO.N,*%
X37000000Y-18116250D03*
D19*
%TO.N,GND*%
X56360000Y21335000D03*
D18*
X30500000Y-14832383D03*
X44750000Y-14000102D03*
D19*
X56250000Y23422500D03*
D18*
X72500000Y-16750000D03*
X72500000Y-15250000D03*
X44750000Y-15000102D03*
D19*
X48820000Y-12910102D03*
D18*
X45750000Y-14000102D03*
X43750000Y-15000102D03*
X45750000Y-16000102D03*
X43750000Y-14000102D03*
D19*
X52550000Y16500000D03*
X54900000Y-13350102D03*
D18*
X45750000Y-15000102D03*
D19*
X52500000Y24750000D03*
X48740000Y-17590102D03*
D18*
X44750000Y-16000102D03*
X43750000Y-16000102D03*
D20*
X46050000Y-11650092D03*
D19*
X56250000Y17172500D03*
D18*
X72500000Y-18250000D03*
D19*
%TO.N,+3V3*%
X45534944Y-18250000D03*
D18*
%TO.N,/Project Architecture/LORA/LORA_SCK*%
X68900000Y-10750000D03*
%TO.N,/Project Architecture/LORA/LORA_RST*%
X66500000Y-12250000D03*
%TO.N,/Project Architecture/LORA/LORA_ANT_SW*%
X66500000Y-18250000D03*
%TO.N,/Project Architecture/LORA/LORA_DIO1*%
X68900000Y-12250000D03*
%TO.N,/Project Architecture/LORA/LORA_BUSY*%
X67700000Y-12250000D03*
%TO.N,/Project Architecture/LORA/LORA_MOSI*%
X68900000Y-13750000D03*
%TO.N,/Project Architecture/LORA/LORA_NSS*%
X68900000Y-15250000D03*
%TO.N,/Project Architecture/LORA/LORA_MISO*%
X66500000Y-15250000D03*
%TO.N,VBUS_in*%
X30500000Y-11900117D03*
X41069991Y-15601199D03*
D20*
%TO.N,Net-(U5-PVDD)*%
X48100000Y-11950102D03*
X54350000Y-15100102D03*
X48173536Y-15200852D03*
X48750000Y-14700092D03*
X48750000Y-15700092D03*
X54000000Y-15930092D03*
X41150000Y-14750092D03*
X53800000Y-15100102D03*
X53150000Y-15250102D03*
X41800000Y-14750092D03*
X48650000Y-15250102D03*
D19*
%TO.N,/Project Architecture/Power Supply/VOUT2*%
X51650000Y-12750102D03*
X52250000Y-12750102D03*
X46850000Y-17850102D03*
X51000000Y-12750102D03*
D18*
%TO.N,/Project Architecture/Misc/LED1_R*%
X67700000Y-16750000D03*
%TO.N,/Project Architecture/Misc/LED1_B*%
X65300000Y-18250000D03*
%TO.N,/Project Architecture/Misc/LED1_G*%
X66500000Y-16750000D03*
%TO.N,/Project Architecture/Misc/SPI_EXT_MEM_CS*%
X62900000Y-15250000D03*
%TO.N,/Project Architecture/Misc/BTN_1*%
X65300000Y-15250000D03*
%TO.N,/Project Architecture/Misc/BTN_2*%
X65300000Y-13750000D03*
%TO.N,/Project Architecture/Misc/BTN_3*%
X72500000Y-13750000D03*
D19*
%TO.N,Net-(U12-ALERT{slash}RDY)*%
X52500000Y15750000D03*
X52000000Y17250000D03*
D18*
%TO.N,/Project Architecture/Misc/VIB_PWM*%
X70100000Y-15250000D03*
%TO.N,/Project Architecture/Misc/SPI_MISO*%
X62900000Y-13750000D03*
%TO.N,/Project Architecture/Misc/SPI_MOSI*%
X61700000Y-15250000D03*
%TO.N,/Project Architecture/Misc/SPI_SCK*%
X61700000Y-16750000D03*
%TO.N,/Project Architecture/Misc/AMP_SD*%
X70100000Y-13750000D03*
%TO.N,/Project Architecture/Misc/I2S_BCLK*%
X70100000Y-12250000D03*
%TO.N,/Project Architecture/Misc/I2S_DIN*%
X67700000Y-13750000D03*
%TO.N,/Project Architecture/Misc/I2S_LRCLK*%
X66500000Y-13750000D03*
%TO.N,/Project Architecture/DISPLAY/DISP_DIM*%
X68900000Y-16750000D03*
%TO.N,/Project Architecture/DISPLAY/DISP_MOSI*%
X64100000Y-10750000D03*
%TO.N,/Project Architecture/DISPLAY/DISP_SCK*%
X62900000Y-12250000D03*
%TO.N,/Project Architecture/DISPLAY/DISP_DC*%
X64100000Y-13750000D03*
%TO.N,/Project Architecture/DISPLAY/DISP_RST*%
X65300000Y-10750000D03*
%TO.N,/Project Architecture/DISPLAY/DISP_CS*%
X62900000Y-10750000D03*
%TO.N,VBUS*%
X33378970Y-17487280D03*
X28550000Y-17421250D03*
%TO.N,/Project Architecture/Misc/VIB_ENABLE*%
X70100000Y-16750000D03*
%TO.N,/Project Architecture/Misc/AUD_ENABLE*%
X72500000Y-12250000D03*
%TO.N,/Project Architecture/Connectors/SWO_NRF54*%
X64100000Y-16750000D03*
D20*
%TO.N,/Project Architecture/Connectors/I2C_SCL*%
X43820000Y-11380092D03*
D18*
X68900000Y-18250000D03*
D19*
X51000000Y22750000D03*
D20*
%TO.N,/Project Architecture/Connectors/I2C_SDA*%
X44600000Y-11630102D03*
D19*
X51500000Y23500000D03*
D18*
X65300000Y-12250000D03*
D19*
%TO.N,VDD_ANALOG*%
X57250000Y18172500D03*
%TD*%
%TA.AperFunction,Conductor*%
%TO.N,GND*%
G36*
X72252702Y63749382D02*
G01*
X72265472Y63748825D01*
X72658561Y63731663D01*
X72669295Y63730723D01*
X73069376Y63678052D01*
X73080014Y63676177D01*
X73473990Y63588834D01*
X73484415Y63586040D01*
X73869280Y63464693D01*
X73879415Y63461004D01*
X74252230Y63306579D01*
X74262025Y63302011D01*
X74310523Y63276765D01*
X74619944Y63115690D01*
X74629312Y63110282D01*
X74969640Y62893469D01*
X74978501Y62887264D01*
X75298629Y62641621D01*
X75306905Y62634677D01*
X75604426Y62362050D01*
X75612058Y62354418D01*
X75884675Y62056906D01*
X75891624Y62048625D01*
X76137267Y61728497D01*
X76143471Y61719637D01*
X76360284Y61379309D01*
X76365692Y61369941D01*
X76552009Y61012029D01*
X76556581Y61002225D01*
X76711000Y60629424D01*
X76714700Y60619258D01*
X76836037Y60234423D01*
X76838837Y60223974D01*
X76926174Y59830020D01*
X76928052Y59819367D01*
X76980720Y59419313D01*
X76981663Y59408537D01*
X76999382Y59002698D01*
X76999500Y58997289D01*
X76999500Y-7376000D01*
X76979815Y-7443039D01*
X76927011Y-7488794D01*
X76875500Y-7500000D01*
X72870000Y-7500000D01*
X72870000Y-11699785D01*
X72850315Y-11766824D01*
X72797511Y-11812579D01*
X72728353Y-11822523D01*
X72691192Y-11809662D01*
X72691046Y-11810016D01*
X72685120Y-11807561D01*
X72684009Y-11807177D01*
X72683544Y-11806908D01*
X72683537Y-11806905D01*
X72643224Y-11796103D01*
X72562601Y-11774500D01*
X72437399Y-11774500D01*
X72356775Y-11796103D01*
X72316463Y-11806905D01*
X72208037Y-11869504D01*
X72208034Y-11869506D01*
X72119506Y-11958034D01*
X72119504Y-11958037D01*
X72056905Y-12066463D01*
X72056905Y-12066464D01*
X72024500Y-12187399D01*
X72024500Y-12312601D01*
X72056905Y-12433536D01*
X72119505Y-12541964D01*
X72208036Y-12630495D01*
X72316464Y-12693095D01*
X72437399Y-12725500D01*
X72437401Y-12725500D01*
X72562599Y-12725500D01*
X72562601Y-12725500D01*
X72683536Y-12693095D01*
X72683998Y-12692827D01*
X72684436Y-12692721D01*
X72691046Y-12689984D01*
X72691472Y-12691014D01*
X72751898Y-12676354D01*
X72817926Y-12699206D01*
X72861117Y-12754126D01*
X72870000Y-12800214D01*
X72870000Y-13199785D01*
X72850315Y-13266824D01*
X72797511Y-13312579D01*
X72728353Y-13322523D01*
X72691192Y-13309662D01*
X72691046Y-13310016D01*
X72685120Y-13307561D01*
X72684009Y-13307177D01*
X72683544Y-13306908D01*
X72683537Y-13306905D01*
X72643224Y-13296103D01*
X72562601Y-13274500D01*
X72437399Y-13274500D01*
X72356775Y-13296103D01*
X72316463Y-13306905D01*
X72208037Y-13369504D01*
X72208034Y-13369506D01*
X72119506Y-13458034D01*
X72119504Y-13458037D01*
X72056905Y-13566463D01*
X72056905Y-13566464D01*
X72024500Y-13687399D01*
X72024500Y-13812601D01*
X72056905Y-13933536D01*
X72119505Y-14041964D01*
X72208036Y-14130495D01*
X72316464Y-14193095D01*
X72437399Y-14225500D01*
X72437401Y-14225500D01*
X72562599Y-14225500D01*
X72562601Y-14225500D01*
X72683536Y-14193095D01*
X72683998Y-14192827D01*
X72684436Y-14192721D01*
X72691046Y-14189984D01*
X72691472Y-14191014D01*
X72751898Y-14176354D01*
X72817926Y-14199206D01*
X72861117Y-14254126D01*
X72870000Y-14300214D01*
X72870000Y-20496606D01*
X72869814Y-20503393D01*
X72589195Y-25622770D01*
X72588243Y-25625456D01*
X72588772Y-25628259D01*
X72576649Y-25658194D01*
X72565871Y-25688631D01*
X72563617Y-25690377D01*
X72562547Y-25693021D01*
X72536168Y-25711647D01*
X72510642Y-25731428D01*
X72507091Y-25732179D01*
X72505472Y-25733323D01*
X72470790Y-25739865D01*
X72252818Y-25749382D01*
X72247409Y-25749500D01*
X-20247294Y-25749500D01*
X-20252703Y-25749382D01*
X-20658540Y-25731662D01*
X-20669316Y-25730719D01*
X-21069368Y-25678051D01*
X-21080022Y-25676173D01*
X-21473978Y-25588835D01*
X-21484427Y-25586035D01*
X-21869264Y-25464696D01*
X-21879429Y-25460996D01*
X-22252227Y-25306578D01*
X-22262031Y-25302006D01*
X-22619942Y-25115689D01*
X-22629310Y-25110281D01*
X-22969633Y-24893472D01*
X-22978495Y-24887267D01*
X-23204213Y-24714067D01*
X-23298637Y-24641613D01*
X-23306919Y-24634662D01*
X-23391808Y-24556876D01*
X-23604412Y-24362060D01*
X-23612061Y-24354411D01*
X-23670958Y-24290136D01*
X-23884668Y-24056912D01*
X-23891617Y-24048632D01*
X-23910040Y-24024623D01*
X-24137270Y-23728491D01*
X-24143473Y-23719632D01*
X-24177800Y-23665750D01*
X-24360283Y-23379308D01*
X-24365690Y-23369941D01*
X-24525136Y-23063648D01*
X-24551771Y-23012483D01*
X-24551774Y-23012478D01*
X25819500Y-23012478D01*
X25819500Y-23980021D01*
X25852182Y-24144324D01*
X25852184Y-24144332D01*
X25916295Y-24299110D01*
X26009373Y-24438412D01*
X26127837Y-24556876D01*
X26142615Y-24566750D01*
X26267137Y-24649953D01*
X26421918Y-24714066D01*
X26586228Y-24746749D01*
X26586232Y-24746750D01*
X26586233Y-24746750D01*
X26753768Y-24746750D01*
X26753769Y-24746749D01*
X26918082Y-24714066D01*
X27072863Y-24649953D01*
X27212162Y-24556876D01*
X27330626Y-24438412D01*
X27423703Y-24299113D01*
X27487816Y-24144332D01*
X27505199Y-24056941D01*
X28549500Y-24056941D01*
X28549500Y-24175559D01*
X28580201Y-24290136D01*
X28639511Y-24392863D01*
X28723387Y-24476739D01*
X28826114Y-24536049D01*
X28940691Y-24566750D01*
X28940694Y-24566750D01*
X29059306Y-24566750D01*
X29059309Y-24566750D01*
X29173886Y-24536049D01*
X29276613Y-24476739D01*
X29360489Y-24392863D01*
X29419799Y-24290136D01*
X29450500Y-24175559D01*
X29450500Y-24056941D01*
X32549500Y-24056941D01*
X32549500Y-24175559D01*
X32580201Y-24290136D01*
X32639511Y-24392863D01*
X32723387Y-24476739D01*
X32826114Y-24536049D01*
X32940691Y-24566750D01*
X32940694Y-24566750D01*
X33059306Y-24566750D01*
X33059309Y-24566750D01*
X33173886Y-24536049D01*
X33276613Y-24476739D01*
X33360489Y-24392863D01*
X33419799Y-24290136D01*
X33450500Y-24175559D01*
X33450500Y-24056941D01*
X33419799Y-23942364D01*
X33360489Y-23839637D01*
X33276613Y-23755761D01*
X33173886Y-23696451D01*
X33059309Y-23665750D01*
X32940691Y-23665750D01*
X32826114Y-23696451D01*
X32826112Y-23696451D01*
X32826112Y-23696452D01*
X32723387Y-23755761D01*
X32723384Y-23755763D01*
X32639513Y-23839634D01*
X32639511Y-23839637D01*
X32580201Y-23942364D01*
X32549500Y-24056941D01*
X29450500Y-24056941D01*
X29419799Y-23942364D01*
X29360489Y-23839637D01*
X29276613Y-23755761D01*
X29173886Y-23696451D01*
X29059309Y-23665750D01*
X28940691Y-23665750D01*
X28826114Y-23696451D01*
X28826112Y-23696451D01*
X28826112Y-23696452D01*
X28723387Y-23755761D01*
X28723384Y-23755763D01*
X28639513Y-23839634D01*
X28639511Y-23839637D01*
X28580201Y-23942364D01*
X28549500Y-24056941D01*
X27505199Y-24056941D01*
X27506852Y-24048632D01*
X27511628Y-24024623D01*
X27520499Y-23980021D01*
X27520500Y-23980018D01*
X27520500Y-23012482D01*
X27520499Y-23012478D01*
X34479500Y-23012478D01*
X34479500Y-23980021D01*
X34512182Y-24144324D01*
X34512184Y-24144332D01*
X34576295Y-24299110D01*
X34669373Y-24438412D01*
X34787837Y-24556876D01*
X34802615Y-24566750D01*
X34927137Y-24649953D01*
X35081918Y-24714066D01*
X35246228Y-24746749D01*
X35246232Y-24746750D01*
X35246233Y-24746750D01*
X35413768Y-24746750D01*
X35413769Y-24746749D01*
X35578082Y-24714066D01*
X35732863Y-24649953D01*
X35872162Y-24556876D01*
X35990626Y-24438412D01*
X36083703Y-24299113D01*
X36147816Y-24144332D01*
X36180500Y-23980017D01*
X36180500Y-23012483D01*
X36147816Y-22848168D01*
X36083703Y-22693387D01*
X35999087Y-22566750D01*
X35990626Y-22554087D01*
X35872162Y-22435623D01*
X35732860Y-22342545D01*
X35578082Y-22278434D01*
X35578074Y-22278432D01*
X35413771Y-22245750D01*
X35413767Y-22245750D01*
X35246233Y-22245750D01*
X35246228Y-22245750D01*
X35081925Y-22278432D01*
X35081917Y-22278434D01*
X34927139Y-22342545D01*
X34787837Y-22435623D01*
X34669373Y-22554087D01*
X34576295Y-22693389D01*
X34512184Y-22848167D01*
X34512182Y-22848175D01*
X34479500Y-23012478D01*
X27520499Y-23012478D01*
X27487817Y-22848175D01*
X27487816Y-22848168D01*
X27423703Y-22693387D01*
X27339087Y-22566750D01*
X27330626Y-22554087D01*
X27212162Y-22435623D01*
X27072860Y-22342545D01*
X26918082Y-22278434D01*
X26918074Y-22278432D01*
X26753771Y-22245750D01*
X26753767Y-22245750D01*
X26586233Y-22245750D01*
X26586228Y-22245750D01*
X26421925Y-22278432D01*
X26421917Y-22278434D01*
X26267139Y-22342545D01*
X26127837Y-22435623D01*
X26009373Y-22554087D01*
X25916295Y-22693389D01*
X25852184Y-22848167D01*
X25852182Y-22848175D01*
X25819500Y-23012478D01*
X-24551774Y-23012478D01*
X-24552010Y-23012023D01*
X-24556579Y-23002226D01*
X-24620389Y-22848175D01*
X-24711003Y-22629413D01*
X-24714692Y-22619278D01*
X-24836039Y-22234414D01*
X-24838833Y-22223989D01*
X-24875867Y-22056941D01*
X28549500Y-22056941D01*
X28549500Y-22175559D01*
X28580201Y-22290136D01*
X28639511Y-22392863D01*
X28723387Y-22476739D01*
X28826114Y-22536049D01*
X28940691Y-22566750D01*
X28940694Y-22566750D01*
X29059306Y-22566750D01*
X29059309Y-22566750D01*
X29173886Y-22536049D01*
X29276613Y-22476739D01*
X29360489Y-22392863D01*
X29419799Y-22290136D01*
X29450500Y-22175559D01*
X29450500Y-22056941D01*
X32549500Y-22056941D01*
X32549500Y-22175559D01*
X32580201Y-22290136D01*
X32639511Y-22392863D01*
X32723387Y-22476739D01*
X32826114Y-22536049D01*
X32940691Y-22566750D01*
X32940694Y-22566750D01*
X33059306Y-22566750D01*
X33059309Y-22566750D01*
X33173886Y-22536049D01*
X33276613Y-22476739D01*
X33360489Y-22392863D01*
X33419799Y-22290136D01*
X33450500Y-22175559D01*
X33450500Y-22056941D01*
X33419799Y-21942364D01*
X33360489Y-21839637D01*
X33276613Y-21755761D01*
X33173886Y-21696451D01*
X33059309Y-21665750D01*
X32940691Y-21665750D01*
X32826114Y-21696451D01*
X32826112Y-21696451D01*
X32826112Y-21696452D01*
X32723387Y-21755761D01*
X32723384Y-21755763D01*
X32639513Y-21839634D01*
X32639511Y-21839637D01*
X32580201Y-21942364D01*
X32549500Y-22056941D01*
X29450500Y-22056941D01*
X29419799Y-21942364D01*
X29360489Y-21839637D01*
X29276613Y-21755761D01*
X29173886Y-21696451D01*
X29059309Y-21665750D01*
X28940691Y-21665750D01*
X28826114Y-21696451D01*
X28826112Y-21696451D01*
X28826112Y-21696452D01*
X28723387Y-21755761D01*
X28723384Y-21755763D01*
X28639513Y-21839634D01*
X28639511Y-21839637D01*
X28580201Y-21942364D01*
X28549500Y-22056941D01*
X-24875867Y-22056941D01*
X-24926175Y-21830017D01*
X-24928052Y-21819367D01*
X-24980722Y-21419296D01*
X-24981662Y-21408559D01*
X-24999382Y-21002702D01*
X-24999500Y-20997293D01*
X-24999500Y-18712478D01*
X25819500Y-18712478D01*
X25819500Y-19880021D01*
X25852182Y-20044324D01*
X25852184Y-20044332D01*
X25916295Y-20199110D01*
X26009373Y-20338412D01*
X26127837Y-20456876D01*
X26187298Y-20496606D01*
X26267137Y-20549953D01*
X26421918Y-20614066D01*
X26586228Y-20646749D01*
X26586232Y-20646750D01*
X26586233Y-20646750D01*
X26753768Y-20646750D01*
X26753769Y-20646749D01*
X26918082Y-20614066D01*
X27072863Y-20549953D01*
X27212162Y-20456876D01*
X27330626Y-20338412D01*
X27423703Y-20199113D01*
X27465087Y-20099201D01*
X27508927Y-20044799D01*
X27575221Y-20022734D01*
X27642921Y-20040013D01*
X27687034Y-20084653D01*
X27695435Y-20099203D01*
X27709500Y-20123564D01*
X27802686Y-20216750D01*
X27916814Y-20282642D01*
X28044108Y-20316750D01*
X28044110Y-20316750D01*
X28175890Y-20316750D01*
X28175892Y-20316750D01*
X28303186Y-20282642D01*
X28417314Y-20216750D01*
X28510500Y-20123564D01*
X28576392Y-20009436D01*
X28610500Y-19882142D01*
X28610500Y-19750358D01*
X33389500Y-19750358D01*
X33389500Y-19882141D01*
X33423608Y-20009437D01*
X33456554Y-20066500D01*
X33489500Y-20123564D01*
X33582686Y-20216750D01*
X33696814Y-20282642D01*
X33824108Y-20316750D01*
X33824110Y-20316750D01*
X33955890Y-20316750D01*
X33955892Y-20316750D01*
X34083186Y-20282642D01*
X34197314Y-20216750D01*
X34290500Y-20123564D01*
X34312964Y-20084654D01*
X34363531Y-20036439D01*
X34432138Y-20023216D01*
X34497003Y-20049184D01*
X34534912Y-20099202D01*
X34576295Y-20199110D01*
X34669373Y-20338412D01*
X34787837Y-20456876D01*
X34847298Y-20496606D01*
X34927137Y-20549953D01*
X35081918Y-20614066D01*
X35246228Y-20646749D01*
X35246232Y-20646750D01*
X35246233Y-20646750D01*
X35413768Y-20646750D01*
X35413769Y-20646749D01*
X35578082Y-20614066D01*
X35732863Y-20549953D01*
X35872162Y-20456876D01*
X35990626Y-20338412D01*
X36083703Y-20199113D01*
X36147816Y-20044332D01*
X36180500Y-19880017D01*
X36180500Y-18712483D01*
X36147816Y-18548168D01*
X36083703Y-18393387D01*
X36052537Y-18346744D01*
X35990626Y-18254087D01*
X35872162Y-18135623D01*
X35749478Y-18053649D01*
X36524500Y-18053649D01*
X36524500Y-18178851D01*
X36556905Y-18299786D01*
X36619505Y-18408214D01*
X36708036Y-18496745D01*
X36816464Y-18559345D01*
X36937399Y-18591750D01*
X36937401Y-18591750D01*
X37062599Y-18591750D01*
X37062601Y-18591750D01*
X37183536Y-18559345D01*
X37291964Y-18496745D01*
X37380495Y-18408214D01*
X37443095Y-18299786D01*
X37475500Y-18178851D01*
X37475500Y-18160667D01*
X43714500Y-18160667D01*
X43714500Y-18259537D01*
X43740090Y-18355040D01*
X43789525Y-18440664D01*
X43859438Y-18510577D01*
X43945062Y-18560012D01*
X44040565Y-18585602D01*
X44040567Y-18585602D01*
X44139432Y-18585602D01*
X44139435Y-18585602D01*
X44234938Y-18560012D01*
X44320562Y-18510577D01*
X44390475Y-18440664D01*
X44439910Y-18355040D01*
X44465500Y-18259537D01*
X44465500Y-18185667D01*
X45149500Y-18185667D01*
X45149500Y-18284537D01*
X45175090Y-18380040D01*
X45224525Y-18465664D01*
X45294438Y-18535577D01*
X45380062Y-18585012D01*
X45475565Y-18610602D01*
X45475567Y-18610602D01*
X45574432Y-18610602D01*
X45574435Y-18610602D01*
X45669938Y-18585012D01*
X45755562Y-18535577D01*
X45825475Y-18465664D01*
X45874910Y-18380040D01*
X45900500Y-18284537D01*
X45900500Y-18185667D01*
X45874910Y-18090164D01*
X45825475Y-18004540D01*
X45755562Y-17934627D01*
X45674684Y-17887932D01*
X45669939Y-17885192D01*
X45638103Y-17876662D01*
X45574435Y-17859602D01*
X45475565Y-17859602D01*
X45380062Y-17885192D01*
X45380060Y-17885193D01*
X45380059Y-17885193D01*
X45294436Y-17934628D01*
X45224526Y-18004538D01*
X45175091Y-18090161D01*
X45175091Y-18090162D01*
X45175090Y-18090164D01*
X45149500Y-18185667D01*
X44465500Y-18185667D01*
X44465500Y-18160667D01*
X44439910Y-18065164D01*
X44390475Y-17979540D01*
X44320562Y-17909627D01*
X44234938Y-17860192D01*
X44139435Y-17834602D01*
X44040565Y-17834602D01*
X43945062Y-17860192D01*
X43945060Y-17860193D01*
X43945059Y-17860193D01*
X43859436Y-17909628D01*
X43789526Y-17979538D01*
X43740091Y-18065161D01*
X43740091Y-18065162D01*
X43740090Y-18065164D01*
X43714500Y-18160667D01*
X37475500Y-18160667D01*
X37475500Y-18053649D01*
X37443095Y-17932714D01*
X37380495Y-17824286D01*
X37347002Y-17790793D01*
X46399500Y-17790793D01*
X46399500Y-17909411D01*
X46430201Y-18023988D01*
X46489511Y-18126715D01*
X46573387Y-18210591D01*
X46676114Y-18269901D01*
X46790691Y-18300602D01*
X46790694Y-18300602D01*
X46909306Y-18300602D01*
X46909309Y-18300602D01*
X47023886Y-18269901D01*
X47126613Y-18210591D01*
X47149805Y-18187399D01*
X64824500Y-18187399D01*
X64824500Y-18312601D01*
X64856905Y-18433536D01*
X64919505Y-18541964D01*
X65008036Y-18630495D01*
X65116464Y-18693095D01*
X65237399Y-18725500D01*
X65237401Y-18725500D01*
X65362599Y-18725500D01*
X65362601Y-18725500D01*
X65483536Y-18693095D01*
X65591964Y-18630495D01*
X65680495Y-18541964D01*
X65743095Y-18433536D01*
X65775500Y-18312601D01*
X65775500Y-18187399D01*
X66024500Y-18187399D01*
X66024500Y-18312601D01*
X66056905Y-18433536D01*
X66119505Y-18541964D01*
X66208036Y-18630495D01*
X66316464Y-18693095D01*
X66437399Y-18725500D01*
X66437401Y-18725500D01*
X66562599Y-18725500D01*
X66562601Y-18725500D01*
X66683536Y-18693095D01*
X66791964Y-18630495D01*
X66880495Y-18541964D01*
X66943095Y-18433536D01*
X66975500Y-18312601D01*
X66975500Y-18187399D01*
X68424500Y-18187399D01*
X68424500Y-18312601D01*
X68456905Y-18433536D01*
X68519505Y-18541964D01*
X68608036Y-18630495D01*
X68716464Y-18693095D01*
X68837399Y-18725500D01*
X68837401Y-18725500D01*
X68962599Y-18725500D01*
X68962601Y-18725500D01*
X69083536Y-18693095D01*
X69191964Y-18630495D01*
X69280495Y-18541964D01*
X69343095Y-18433536D01*
X69375500Y-18312601D01*
X69375500Y-18187399D01*
X69343095Y-18066464D01*
X69280495Y-17958036D01*
X69191964Y-17869505D01*
X69083536Y-17806905D01*
X69083537Y-17806905D01*
X69043224Y-17796103D01*
X68962601Y-17774500D01*
X68837399Y-17774500D01*
X68756775Y-17796103D01*
X68716463Y-17806905D01*
X68608037Y-17869504D01*
X68608034Y-17869506D01*
X68519506Y-17958034D01*
X68519504Y-17958037D01*
X68456905Y-18066463D01*
X68456905Y-18066464D01*
X68424500Y-18187399D01*
X66975500Y-18187399D01*
X66943095Y-18066464D01*
X66880495Y-17958036D01*
X66791964Y-17869505D01*
X66683536Y-17806905D01*
X66683537Y-17806905D01*
X66643224Y-17796103D01*
X66562601Y-17774500D01*
X66437399Y-17774500D01*
X66356775Y-17796103D01*
X66316463Y-17806905D01*
X66208037Y-17869504D01*
X66208034Y-17869506D01*
X66119506Y-17958034D01*
X66119504Y-17958037D01*
X66056905Y-18066463D01*
X66056905Y-18066464D01*
X66024500Y-18187399D01*
X65775500Y-18187399D01*
X65743095Y-18066464D01*
X65680495Y-17958036D01*
X65591964Y-17869505D01*
X65483536Y-17806905D01*
X65483537Y-17806905D01*
X65443224Y-17796103D01*
X65362601Y-17774500D01*
X65237399Y-17774500D01*
X65156775Y-17796103D01*
X65116463Y-17806905D01*
X65008037Y-17869504D01*
X65008034Y-17869506D01*
X64919506Y-17958034D01*
X64919504Y-17958037D01*
X64856905Y-18066463D01*
X64856905Y-18066464D01*
X64824500Y-18187399D01*
X47149805Y-18187399D01*
X47210489Y-18126715D01*
X47269799Y-18023988D01*
X47300500Y-17909411D01*
X47300500Y-17790793D01*
X47269799Y-17676216D01*
X47210489Y-17573489D01*
X47126613Y-17489613D01*
X47023886Y-17430303D01*
X46909309Y-17399602D01*
X46790691Y-17399602D01*
X46676114Y-17430303D01*
X46676112Y-17430303D01*
X46676112Y-17430304D01*
X46573387Y-17489613D01*
X46573384Y-17489615D01*
X46489513Y-17573486D01*
X46489511Y-17573489D01*
X46471442Y-17604786D01*
X46430201Y-17676216D01*
X46399500Y-17790793D01*
X37347002Y-17790793D01*
X37291964Y-17735755D01*
X37183536Y-17673155D01*
X37183537Y-17673155D01*
X37143224Y-17662353D01*
X37062601Y-17640750D01*
X36937399Y-17640750D01*
X36856775Y-17662353D01*
X36816463Y-17673155D01*
X36708037Y-17735754D01*
X36708034Y-17735756D01*
X36619506Y-17824284D01*
X36619504Y-17824287D01*
X36556905Y-17932713D01*
X36548849Y-17962780D01*
X36524500Y-18053649D01*
X35749478Y-18053649D01*
X35732860Y-18042545D01*
X35578082Y-17978434D01*
X35578074Y-17978432D01*
X35413771Y-17945750D01*
X35413767Y-17945750D01*
X35246233Y-17945750D01*
X35246228Y-17945750D01*
X35081925Y-17978432D01*
X35081917Y-17978434D01*
X34927139Y-18042545D01*
X34787837Y-18135623D01*
X34669373Y-18254087D01*
X34576295Y-18393389D01*
X34512184Y-18548167D01*
X34512182Y-18548175D01*
X34479500Y-18712478D01*
X34479500Y-19398574D01*
X34459815Y-19465613D01*
X34407011Y-19511368D01*
X34337853Y-19521312D01*
X34274297Y-19492287D01*
X34267819Y-19486255D01*
X34197316Y-19415752D01*
X34197314Y-19415750D01*
X34140250Y-19382804D01*
X34083187Y-19349858D01*
X34019539Y-19332804D01*
X33955892Y-19315750D01*
X33824108Y-19315750D01*
X33696812Y-19349858D01*
X33582686Y-19415750D01*
X33582683Y-19415752D01*
X33489502Y-19508933D01*
X33489500Y-19508936D01*
X33423608Y-19623062D01*
X33389500Y-19750358D01*
X28610500Y-19750358D01*
X28576392Y-19623064D01*
X28510500Y-19508936D01*
X28417314Y-19415750D01*
X28360250Y-19382804D01*
X28303187Y-19349858D01*
X28239539Y-19332804D01*
X28175892Y-19315750D01*
X28044108Y-19315750D01*
X27916812Y-19349858D01*
X27802686Y-19415750D01*
X27802683Y-19415752D01*
X27732181Y-19486255D01*
X27670858Y-19519740D01*
X27601166Y-19514756D01*
X27545233Y-19472884D01*
X27520816Y-19407420D01*
X27520500Y-19398574D01*
X27520500Y-18712482D01*
X27520499Y-18712478D01*
X27487816Y-18548168D01*
X27423703Y-18393387D01*
X27392537Y-18346744D01*
X27330626Y-18254087D01*
X27212162Y-18135623D01*
X27072860Y-18042545D01*
X26918082Y-17978434D01*
X26918074Y-17978432D01*
X26753771Y-17945750D01*
X26753767Y-17945750D01*
X26586233Y-17945750D01*
X26586228Y-17945750D01*
X26421925Y-17978432D01*
X26421917Y-17978434D01*
X26267139Y-18042545D01*
X26127837Y-18135623D01*
X26009373Y-18254087D01*
X25916295Y-18393389D01*
X25852184Y-18548167D01*
X25852182Y-18548175D01*
X25819500Y-18712478D01*
X-24999500Y-18712478D01*
X-24999500Y-17358649D01*
X28074500Y-17358649D01*
X28074500Y-17483851D01*
X28106905Y-17604786D01*
X28169505Y-17713214D01*
X28258036Y-17801745D01*
X28366464Y-17864345D01*
X28487399Y-17896750D01*
X28487401Y-17896750D01*
X28612599Y-17896750D01*
X28612601Y-17896750D01*
X28733536Y-17864345D01*
X28841964Y-17801745D01*
X28930495Y-17713214D01*
X28993095Y-17604786D01*
X29025500Y-17483851D01*
X29025500Y-17424679D01*
X32903470Y-17424679D01*
X32903470Y-17549881D01*
X32935875Y-17670816D01*
X32998475Y-17779244D01*
X33087006Y-17867775D01*
X33195434Y-17930375D01*
X33316369Y-17962780D01*
X33316371Y-17962780D01*
X33441569Y-17962780D01*
X33441571Y-17962780D01*
X33562506Y-17930375D01*
X33670934Y-17867775D01*
X33759465Y-17779244D01*
X33822065Y-17670816D01*
X33854470Y-17549881D01*
X33854470Y-17424679D01*
X33822065Y-17303744D01*
X33759465Y-17195316D01*
X33670934Y-17106785D01*
X33562506Y-17044185D01*
X33562507Y-17044185D01*
X33522194Y-17033383D01*
X33441571Y-17011780D01*
X33316369Y-17011780D01*
X33235745Y-17033383D01*
X33195433Y-17044185D01*
X33087007Y-17106784D01*
X33087004Y-17106786D01*
X32998476Y-17195314D01*
X32998474Y-17195317D01*
X32935875Y-17303743D01*
X32935875Y-17303744D01*
X32903470Y-17424679D01*
X29025500Y-17424679D01*
X29025500Y-17358649D01*
X28993095Y-17237714D01*
X28930495Y-17129286D01*
X28841964Y-17040755D01*
X28733536Y-16978155D01*
X28733537Y-16978155D01*
X28693224Y-16967353D01*
X28612601Y-16945750D01*
X28487399Y-16945750D01*
X28406775Y-16967353D01*
X28366463Y-16978155D01*
X28258037Y-17040754D01*
X28258034Y-17040756D01*
X28169506Y-17129284D01*
X28169504Y-17129287D01*
X28106905Y-17237713D01*
X28106905Y-17237714D01*
X28074500Y-17358649D01*
X-24999500Y-17358649D01*
X-24999500Y-16687399D01*
X61224500Y-16687399D01*
X61224500Y-16812601D01*
X61256905Y-16933536D01*
X61319505Y-17041964D01*
X61408036Y-17130495D01*
X61516464Y-17193095D01*
X61637399Y-17225500D01*
X61637401Y-17225500D01*
X61762599Y-17225500D01*
X61762601Y-17225500D01*
X61883536Y-17193095D01*
X61991964Y-17130495D01*
X62080495Y-17041964D01*
X62143095Y-16933536D01*
X62175500Y-16812601D01*
X62175500Y-16687399D01*
X63624500Y-16687399D01*
X63624500Y-16812601D01*
X63656905Y-16933536D01*
X63719505Y-17041964D01*
X63808036Y-17130495D01*
X63916464Y-17193095D01*
X64037399Y-17225500D01*
X64037401Y-17225500D01*
X64162599Y-17225500D01*
X64162601Y-17225500D01*
X64283536Y-17193095D01*
X64391964Y-17130495D01*
X64480495Y-17041964D01*
X64543095Y-16933536D01*
X64575500Y-16812601D01*
X64575500Y-16687399D01*
X66024500Y-16687399D01*
X66024500Y-16812601D01*
X66056905Y-16933536D01*
X66119505Y-17041964D01*
X66208036Y-17130495D01*
X66316464Y-17193095D01*
X66437399Y-17225500D01*
X66437401Y-17225500D01*
X66562599Y-17225500D01*
X66562601Y-17225500D01*
X66683536Y-17193095D01*
X66791964Y-17130495D01*
X66880495Y-17041964D01*
X66943095Y-16933536D01*
X66975500Y-16812601D01*
X66975500Y-16687399D01*
X67224500Y-16687399D01*
X67224500Y-16812601D01*
X67256905Y-16933536D01*
X67319505Y-17041964D01*
X67408036Y-17130495D01*
X67516464Y-17193095D01*
X67637399Y-17225500D01*
X67637401Y-17225500D01*
X67762599Y-17225500D01*
X67762601Y-17225500D01*
X67883536Y-17193095D01*
X67991964Y-17130495D01*
X68080495Y-17041964D01*
X68143095Y-16933536D01*
X68175500Y-16812601D01*
X68175500Y-16687399D01*
X68424500Y-16687399D01*
X68424500Y-16812601D01*
X68456905Y-16933536D01*
X68519505Y-17041964D01*
X68608036Y-17130495D01*
X68716464Y-17193095D01*
X68837399Y-17225500D01*
X68837401Y-17225500D01*
X68962599Y-17225500D01*
X68962601Y-17225500D01*
X69083536Y-17193095D01*
X69191964Y-17130495D01*
X69280495Y-17041964D01*
X69343095Y-16933536D01*
X69375500Y-16812601D01*
X69375500Y-16687399D01*
X69624500Y-16687399D01*
X69624500Y-16812601D01*
X69656905Y-16933536D01*
X69719505Y-17041964D01*
X69808036Y-17130495D01*
X69916464Y-17193095D01*
X70037399Y-17225500D01*
X70037401Y-17225500D01*
X70162599Y-17225500D01*
X70162601Y-17225500D01*
X70283536Y-17193095D01*
X70391964Y-17130495D01*
X70480495Y-17041964D01*
X70543095Y-16933536D01*
X70575500Y-16812601D01*
X70575500Y-16687399D01*
X70543095Y-16566464D01*
X70480495Y-16458036D01*
X70391964Y-16369505D01*
X70283536Y-16306905D01*
X70283537Y-16306905D01*
X70243224Y-16296103D01*
X70162601Y-16274500D01*
X70037399Y-16274500D01*
X69956775Y-16296103D01*
X69916463Y-16306905D01*
X69808037Y-16369504D01*
X69808034Y-16369506D01*
X69719506Y-16458034D01*
X69719504Y-16458037D01*
X69656905Y-16566463D01*
X69656905Y-16566464D01*
X69624500Y-16687399D01*
X69375500Y-16687399D01*
X69343095Y-16566464D01*
X69280495Y-16458036D01*
X69191964Y-16369505D01*
X69083536Y-16306905D01*
X69083537Y-16306905D01*
X69043224Y-16296103D01*
X68962601Y-16274500D01*
X68837399Y-16274500D01*
X68756775Y-16296103D01*
X68716463Y-16306905D01*
X68608037Y-16369504D01*
X68608034Y-16369506D01*
X68519506Y-16458034D01*
X68519504Y-16458037D01*
X68456905Y-16566463D01*
X68456905Y-16566464D01*
X68424500Y-16687399D01*
X68175500Y-16687399D01*
X68143095Y-16566464D01*
X68080495Y-16458036D01*
X67991964Y-16369505D01*
X67883536Y-16306905D01*
X67883537Y-16306905D01*
X67843224Y-16296103D01*
X67762601Y-16274500D01*
X67637399Y-16274500D01*
X67556775Y-16296103D01*
X67516463Y-16306905D01*
X67408037Y-16369504D01*
X67408034Y-16369506D01*
X67319506Y-16458034D01*
X67319504Y-16458037D01*
X67256905Y-16566463D01*
X67256905Y-16566464D01*
X67224500Y-16687399D01*
X66975500Y-16687399D01*
X66943095Y-16566464D01*
X66880495Y-16458036D01*
X66791964Y-16369505D01*
X66683536Y-16306905D01*
X66683537Y-16306905D01*
X66643224Y-16296103D01*
X66562601Y-16274500D01*
X66437399Y-16274500D01*
X66356775Y-16296103D01*
X66316463Y-16306905D01*
X66208037Y-16369504D01*
X66208034Y-16369506D01*
X66119506Y-16458034D01*
X66119504Y-16458037D01*
X66056905Y-16566463D01*
X66056905Y-16566464D01*
X66024500Y-16687399D01*
X64575500Y-16687399D01*
X64543095Y-16566464D01*
X64480495Y-16458036D01*
X64391964Y-16369505D01*
X64283536Y-16306905D01*
X64283537Y-16306905D01*
X64243224Y-16296103D01*
X64162601Y-16274500D01*
X64037399Y-16274500D01*
X63956775Y-16296103D01*
X63916463Y-16306905D01*
X63808037Y-16369504D01*
X63808034Y-16369506D01*
X63719506Y-16458034D01*
X63719504Y-16458037D01*
X63656905Y-16566463D01*
X63656905Y-16566464D01*
X63624500Y-16687399D01*
X62175500Y-16687399D01*
X62143095Y-16566464D01*
X62080495Y-16458036D01*
X61991964Y-16369505D01*
X61883536Y-16306905D01*
X61883537Y-16306905D01*
X61843224Y-16296103D01*
X61762601Y-16274500D01*
X61637399Y-16274500D01*
X61556775Y-16296103D01*
X61516463Y-16306905D01*
X61408037Y-16369504D01*
X61408034Y-16369506D01*
X61319506Y-16458034D01*
X61319504Y-16458037D01*
X61256905Y-16566463D01*
X61256905Y-16566464D01*
X61224500Y-16687399D01*
X-24999500Y-16687399D01*
X-24999500Y-15538598D01*
X40594491Y-15538598D01*
X40594491Y-15663800D01*
X40626896Y-15784735D01*
X40689496Y-15893163D01*
X40778027Y-15981694D01*
X40886455Y-16044294D01*
X41007390Y-16076699D01*
X41007392Y-16076699D01*
X41132590Y-16076699D01*
X41132592Y-16076699D01*
X41253527Y-16044294D01*
X41361955Y-15981694D01*
X41450486Y-15893163D01*
X41513086Y-15784735D01*
X41545491Y-15663800D01*
X41545491Y-15538598D01*
X41513086Y-15417663D01*
X41450486Y-15309235D01*
X41373746Y-15232495D01*
X41369131Y-15224043D01*
X41361473Y-15218199D01*
X41352656Y-15193873D01*
X41340261Y-15171172D01*
X41340947Y-15161565D01*
X41337666Y-15152510D01*
X41337914Y-15151417D01*
X47798036Y-15151417D01*
X47798036Y-15250287D01*
X47823626Y-15345790D01*
X47873061Y-15431414D01*
X47942974Y-15501327D01*
X48028598Y-15550762D01*
X48124101Y-15576352D01*
X48124103Y-15576352D01*
X48222969Y-15576352D01*
X48222971Y-15576352D01*
X48222972Y-15576351D01*
X48231027Y-15575291D01*
X48231368Y-15577885D01*
X48288239Y-15579231D01*
X48346107Y-15618385D01*
X48373621Y-15682610D01*
X48374500Y-15697349D01*
X48374500Y-15749527D01*
X48400090Y-15845030D01*
X48449525Y-15930654D01*
X48519438Y-16000567D01*
X48605062Y-16050002D01*
X48700565Y-16075592D01*
X48700567Y-16075592D01*
X48799432Y-16075592D01*
X48799435Y-16075592D01*
X48894938Y-16050002D01*
X48980562Y-16000567D01*
X49050475Y-15930654D01*
X49099910Y-15845030D01*
X49125500Y-15749527D01*
X49125500Y-15650657D01*
X49099910Y-15555154D01*
X49050475Y-15469530D01*
X49045476Y-15464531D01*
X49011991Y-15403208D01*
X49009642Y-15365898D01*
X49010593Y-15355169D01*
X49025500Y-15299537D01*
X49025500Y-15200667D01*
X52774500Y-15200667D01*
X52774500Y-15299537D01*
X52800090Y-15395040D01*
X52849525Y-15480664D01*
X52919438Y-15550577D01*
X53005062Y-15600012D01*
X53100565Y-15625602D01*
X53100567Y-15625602D01*
X53199432Y-15625602D01*
X53199435Y-15625602D01*
X53294938Y-15600012D01*
X53380562Y-15550577D01*
X53450475Y-15480664D01*
X53452894Y-15476474D01*
X53454254Y-15475177D01*
X53454751Y-15473362D01*
X53479431Y-15451168D01*
X53503456Y-15428259D01*
X53505304Y-15427902D01*
X53506704Y-15426644D01*
X53539477Y-15421314D01*
X53572063Y-15415033D01*
X53574399Y-15415636D01*
X53575668Y-15415430D01*
X53582529Y-15417734D01*
X53609710Y-15424750D01*
X53616170Y-15427558D01*
X53655062Y-15450012D01*
X53688355Y-15458933D01*
X53696797Y-15462602D01*
X53716832Y-15479328D01*
X53739121Y-15492913D01*
X53743224Y-15501360D01*
X53750433Y-15507378D01*
X53758245Y-15532281D01*
X53769651Y-15555760D01*
X53768536Y-15565084D01*
X53771347Y-15574044D01*
X53764455Y-15599216D01*
X53761357Y-15625135D01*
X53754645Y-15635051D01*
X53752898Y-15641434D01*
X53746325Y-15647344D01*
X53735050Y-15664004D01*
X53699526Y-15699528D01*
X53650091Y-15785151D01*
X53650091Y-15785152D01*
X53650090Y-15785154D01*
X53624500Y-15880657D01*
X53624500Y-15979527D01*
X53650090Y-16075030D01*
X53650091Y-16075031D01*
X53650091Y-16075032D01*
X53663337Y-16097974D01*
X53699525Y-16160654D01*
X53769438Y-16230567D01*
X53855062Y-16280002D01*
X53950565Y-16305592D01*
X53950567Y-16305592D01*
X54049432Y-16305592D01*
X54049435Y-16305592D01*
X54144938Y-16280002D01*
X54230562Y-16230567D01*
X54300475Y-16160654D01*
X54349910Y-16075030D01*
X54375500Y-15979527D01*
X54375500Y-15880657D01*
X54349910Y-15785154D01*
X54300475Y-15699530D01*
X54288228Y-15687283D01*
X54254743Y-15625960D01*
X54259727Y-15556268D01*
X54301599Y-15500335D01*
X54367063Y-15475918D01*
X54375909Y-15475602D01*
X54399432Y-15475602D01*
X54399435Y-15475602D01*
X54494938Y-15450012D01*
X54580562Y-15400577D01*
X54650475Y-15330664D01*
X54699910Y-15245040D01*
X54715355Y-15187399D01*
X61224500Y-15187399D01*
X61224500Y-15312601D01*
X61256905Y-15433536D01*
X61319505Y-15541964D01*
X61408036Y-15630495D01*
X61516464Y-15693095D01*
X61637399Y-15725500D01*
X61637401Y-15725500D01*
X61762599Y-15725500D01*
X61762601Y-15725500D01*
X61883536Y-15693095D01*
X61991964Y-15630495D01*
X62080495Y-15541964D01*
X62143095Y-15433536D01*
X62175500Y-15312601D01*
X62175500Y-15187399D01*
X62424500Y-15187399D01*
X62424500Y-15312601D01*
X62456905Y-15433536D01*
X62519505Y-15541964D01*
X62608036Y-15630495D01*
X62716464Y-15693095D01*
X62837399Y-15725500D01*
X62837401Y-15725500D01*
X62962599Y-15725500D01*
X62962601Y-15725500D01*
X63083536Y-15693095D01*
X63191964Y-15630495D01*
X63280495Y-15541964D01*
X63343095Y-15433536D01*
X63375500Y-15312601D01*
X63375500Y-15187399D01*
X64824500Y-15187399D01*
X64824500Y-15312601D01*
X64856905Y-15433536D01*
X64919505Y-15541964D01*
X65008036Y-15630495D01*
X65116464Y-15693095D01*
X65237399Y-15725500D01*
X65237401Y-15725500D01*
X65362599Y-15725500D01*
X65362601Y-15725500D01*
X65483536Y-15693095D01*
X65591964Y-15630495D01*
X65680495Y-15541964D01*
X65743095Y-15433536D01*
X65775500Y-15312601D01*
X65775500Y-15187399D01*
X66024500Y-15187399D01*
X66024500Y-15312601D01*
X66056905Y-15433536D01*
X66119505Y-15541964D01*
X66208036Y-15630495D01*
X66316464Y-15693095D01*
X66437399Y-15725500D01*
X66437401Y-15725500D01*
X66562599Y-15725500D01*
X66562601Y-15725500D01*
X66683536Y-15693095D01*
X66791964Y-15630495D01*
X66880495Y-15541964D01*
X66943095Y-15433536D01*
X66975500Y-15312601D01*
X66975500Y-15187399D01*
X68424500Y-15187399D01*
X68424500Y-15312601D01*
X68456905Y-15433536D01*
X68519505Y-15541964D01*
X68608036Y-15630495D01*
X68716464Y-15693095D01*
X68837399Y-15725500D01*
X68837401Y-15725500D01*
X68962599Y-15725500D01*
X68962601Y-15725500D01*
X69083536Y-15693095D01*
X69191964Y-15630495D01*
X69280495Y-15541964D01*
X69343095Y-15433536D01*
X69375500Y-15312601D01*
X69375500Y-15187399D01*
X69624500Y-15187399D01*
X69624500Y-15312601D01*
X69656905Y-15433536D01*
X69719505Y-15541964D01*
X69808036Y-15630495D01*
X69916464Y-15693095D01*
X70037399Y-15725500D01*
X70037401Y-15725500D01*
X70162599Y-15725500D01*
X70162601Y-15725500D01*
X70283536Y-15693095D01*
X70391964Y-15630495D01*
X70480495Y-15541964D01*
X70543095Y-15433536D01*
X70575500Y-15312601D01*
X70575500Y-15187399D01*
X70543095Y-15066464D01*
X70480495Y-14958036D01*
X70391964Y-14869505D01*
X70283536Y-14806905D01*
X70283537Y-14806905D01*
X70243224Y-14796103D01*
X70162601Y-14774500D01*
X70037399Y-14774500D01*
X69956775Y-14796103D01*
X69916463Y-14806905D01*
X69808037Y-14869504D01*
X69808034Y-14869506D01*
X69719506Y-14958034D01*
X69719504Y-14958037D01*
X69656905Y-15066463D01*
X69652105Y-15084378D01*
X69624500Y-15187399D01*
X69375500Y-15187399D01*
X69343095Y-15066464D01*
X69280495Y-14958036D01*
X69191964Y-14869505D01*
X69083536Y-14806905D01*
X69083537Y-14806905D01*
X69043224Y-14796103D01*
X68962601Y-14774500D01*
X68837399Y-14774500D01*
X68756775Y-14796103D01*
X68716463Y-14806905D01*
X68608037Y-14869504D01*
X68608034Y-14869506D01*
X68519506Y-14958034D01*
X68519504Y-14958037D01*
X68456905Y-15066463D01*
X68452105Y-15084378D01*
X68424500Y-15187399D01*
X66975500Y-15187399D01*
X66943095Y-15066464D01*
X66880495Y-14958036D01*
X66791964Y-14869505D01*
X66683536Y-14806905D01*
X66683537Y-14806905D01*
X66643224Y-14796103D01*
X66562601Y-14774500D01*
X66437399Y-14774500D01*
X66356775Y-14796103D01*
X66316463Y-14806905D01*
X66208037Y-14869504D01*
X66208034Y-14869506D01*
X66119506Y-14958034D01*
X66119504Y-14958037D01*
X66056905Y-15066463D01*
X66052105Y-15084378D01*
X66024500Y-15187399D01*
X65775500Y-15187399D01*
X65743095Y-15066464D01*
X65680495Y-14958036D01*
X65591964Y-14869505D01*
X65483536Y-14806905D01*
X65483537Y-14806905D01*
X65443224Y-14796103D01*
X65362601Y-14774500D01*
X65237399Y-14774500D01*
X65156775Y-14796103D01*
X65116463Y-14806905D01*
X65008037Y-14869504D01*
X65008034Y-14869506D01*
X64919506Y-14958034D01*
X64919504Y-14958037D01*
X64856905Y-15066463D01*
X64852105Y-15084378D01*
X64824500Y-15187399D01*
X63375500Y-15187399D01*
X63343095Y-15066464D01*
X63280495Y-14958036D01*
X63191964Y-14869505D01*
X63083536Y-14806905D01*
X63083537Y-14806905D01*
X63043224Y-14796103D01*
X62962601Y-14774500D01*
X62837399Y-14774500D01*
X62756775Y-14796103D01*
X62716463Y-14806905D01*
X62608037Y-14869504D01*
X62608034Y-14869506D01*
X62519506Y-14958034D01*
X62519504Y-14958037D01*
X62456905Y-15066463D01*
X62452105Y-15084378D01*
X62424500Y-15187399D01*
X62175500Y-15187399D01*
X62143095Y-15066464D01*
X62080495Y-14958036D01*
X61991964Y-14869505D01*
X61883536Y-14806905D01*
X61883537Y-14806905D01*
X61843224Y-14796103D01*
X61762601Y-14774500D01*
X61637399Y-14774500D01*
X61556775Y-14796103D01*
X61516463Y-14806905D01*
X61408037Y-14869504D01*
X61408034Y-14869506D01*
X61319506Y-14958034D01*
X61319504Y-14958037D01*
X61256905Y-15066463D01*
X61252105Y-15084378D01*
X61224500Y-15187399D01*
X54715355Y-15187399D01*
X54725500Y-15149537D01*
X54725500Y-15050667D01*
X54699910Y-14955164D01*
X54650475Y-14869540D01*
X54580562Y-14799627D01*
X54494938Y-14750192D01*
X54399435Y-14724602D01*
X54300565Y-14724602D01*
X54205062Y-14750192D01*
X54205060Y-14750193D01*
X54205059Y-14750193D01*
X54168341Y-14771393D01*
X54136998Y-14789488D01*
X54069100Y-14805961D01*
X54013001Y-14789488D01*
X53944938Y-14750192D01*
X53849435Y-14724602D01*
X53750565Y-14724602D01*
X53655062Y-14750192D01*
X53655060Y-14750193D01*
X53655059Y-14750193D01*
X53569436Y-14799628D01*
X53499525Y-14869539D01*
X53497101Y-14873738D01*
X53446531Y-14921950D01*
X53377923Y-14935169D01*
X53327721Y-14919119D01*
X53294938Y-14900192D01*
X53199435Y-14874602D01*
X53100565Y-14874602D01*
X53005062Y-14900192D01*
X53005060Y-14900193D01*
X53005059Y-14900193D01*
X52919436Y-14949628D01*
X52849526Y-15019538D01*
X52800091Y-15105161D01*
X52800091Y-15105162D01*
X52800090Y-15105164D01*
X52774500Y-15200667D01*
X49025500Y-15200667D01*
X48999910Y-15105164D01*
X48994155Y-15095197D01*
X48989936Y-15079841D01*
X48990278Y-15060183D01*
X48985645Y-15041076D01*
X48990875Y-15025967D01*
X48991154Y-15009982D01*
X49002070Y-14993630D01*
X49008502Y-14975051D01*
X49021813Y-14959315D01*
X49050475Y-14930654D01*
X49099910Y-14845030D01*
X49125500Y-14749527D01*
X49125500Y-14650657D01*
X49099910Y-14555154D01*
X49050475Y-14469530D01*
X48980562Y-14399617D01*
X48894938Y-14350182D01*
X48799435Y-14324592D01*
X48700565Y-14324592D01*
X48605062Y-14350182D01*
X48605060Y-14350183D01*
X48605059Y-14350183D01*
X48519436Y-14399618D01*
X48449526Y-14469528D01*
X48400091Y-14555151D01*
X48400091Y-14555152D01*
X48400090Y-14555154D01*
X48374500Y-14650657D01*
X48374500Y-14650659D01*
X48374500Y-14704354D01*
X48354815Y-14771393D01*
X48302011Y-14817148D01*
X48232853Y-14827092D01*
X48226876Y-14825866D01*
X48222972Y-14825352D01*
X48222971Y-14825352D01*
X48124101Y-14825352D01*
X48028598Y-14850942D01*
X48028596Y-14850943D01*
X48028595Y-14850943D01*
X47942972Y-14900378D01*
X47873062Y-14970288D01*
X47823627Y-15055911D01*
X47823627Y-15055912D01*
X47823626Y-15055914D01*
X47798036Y-15151417D01*
X41337914Y-15151417D01*
X41343399Y-15127284D01*
X41345245Y-15101480D01*
X41351430Y-15091953D01*
X41353152Y-15084378D01*
X41365976Y-15069550D01*
X41374565Y-15056322D01*
X41380236Y-15050754D01*
X41380562Y-15050567D01*
X41387703Y-15043425D01*
X41388138Y-15042999D01*
X41418469Y-15026800D01*
X41448642Y-15010325D01*
X41449239Y-15010367D01*
X41449769Y-15010085D01*
X41484039Y-15012856D01*
X41518334Y-15015309D01*
X41518905Y-15015676D01*
X41519412Y-15015717D01*
X41521775Y-15017520D01*
X41562681Y-15043810D01*
X41569438Y-15050567D01*
X41655062Y-15100002D01*
X41750565Y-15125592D01*
X41750567Y-15125592D01*
X41849432Y-15125592D01*
X41849435Y-15125592D01*
X41944938Y-15100002D01*
X42030562Y-15050567D01*
X42100475Y-14980654D01*
X42149910Y-14895030D01*
X42175500Y-14799527D01*
X42175500Y-14700657D01*
X42149910Y-14605154D01*
X42100475Y-14519530D01*
X42030562Y-14449617D01*
X41944938Y-14400182D01*
X41849435Y-14374592D01*
X41750565Y-14374592D01*
X41655062Y-14400182D01*
X41655060Y-14400183D01*
X41655059Y-14400183D01*
X41569436Y-14449618D01*
X41562681Y-14456374D01*
X41501358Y-14489859D01*
X41431666Y-14484875D01*
X41387319Y-14456374D01*
X41380563Y-14449618D01*
X41380562Y-14449617D01*
X41294938Y-14400182D01*
X41199435Y-14374592D01*
X41100565Y-14374592D01*
X41005062Y-14400182D01*
X41005060Y-14400183D01*
X41005059Y-14400183D01*
X40919436Y-14449618D01*
X40849526Y-14519528D01*
X40800091Y-14605151D01*
X40800091Y-14605152D01*
X40800090Y-14605154D01*
X40774500Y-14700657D01*
X40774500Y-14799527D01*
X40800090Y-14895030D01*
X40843541Y-14970290D01*
X40849526Y-14980655D01*
X40861272Y-14992401D01*
X40894757Y-15053724D01*
X40889773Y-15123416D01*
X40847901Y-15179349D01*
X40835591Y-15187469D01*
X40778030Y-15220701D01*
X40778025Y-15220705D01*
X40689497Y-15309233D01*
X40689495Y-15309236D01*
X40626896Y-15417662D01*
X40612999Y-15469528D01*
X40594491Y-15538598D01*
X-24999500Y-15538598D01*
X-24999500Y-13687399D01*
X62424500Y-13687399D01*
X62424500Y-13812601D01*
X62456905Y-13933536D01*
X62519505Y-14041964D01*
X62608036Y-14130495D01*
X62716464Y-14193095D01*
X62837399Y-14225500D01*
X62837401Y-14225500D01*
X62962599Y-14225500D01*
X62962601Y-14225500D01*
X63083536Y-14193095D01*
X63191964Y-14130495D01*
X63280495Y-14041964D01*
X63343095Y-13933536D01*
X63375500Y-13812601D01*
X63375500Y-13687399D01*
X63624500Y-13687399D01*
X63624500Y-13812601D01*
X63656905Y-13933536D01*
X63719505Y-14041964D01*
X63808036Y-14130495D01*
X63916464Y-14193095D01*
X64037399Y-14225500D01*
X64037401Y-14225500D01*
X64162599Y-14225500D01*
X64162601Y-14225500D01*
X64283536Y-14193095D01*
X64391964Y-14130495D01*
X64480495Y-14041964D01*
X64543095Y-13933536D01*
X64575500Y-13812601D01*
X64575500Y-13687399D01*
X64824500Y-13687399D01*
X64824500Y-13812601D01*
X64856905Y-13933536D01*
X64919505Y-14041964D01*
X65008036Y-14130495D01*
X65116464Y-14193095D01*
X65237399Y-14225500D01*
X65237401Y-14225500D01*
X65362599Y-14225500D01*
X65362601Y-14225500D01*
X65483536Y-14193095D01*
X65591964Y-14130495D01*
X65680495Y-14041964D01*
X65743095Y-13933536D01*
X65775500Y-13812601D01*
X65775500Y-13687399D01*
X66024500Y-13687399D01*
X66024500Y-13812601D01*
X66056905Y-13933536D01*
X66119505Y-14041964D01*
X66208036Y-14130495D01*
X66316464Y-14193095D01*
X66437399Y-14225500D01*
X66437401Y-14225500D01*
X66562599Y-14225500D01*
X66562601Y-14225500D01*
X66683536Y-14193095D01*
X66791964Y-14130495D01*
X66880495Y-14041964D01*
X66943095Y-13933536D01*
X66975500Y-13812601D01*
X66975500Y-13687399D01*
X67224500Y-13687399D01*
X67224500Y-13812601D01*
X67256905Y-13933536D01*
X67319505Y-14041964D01*
X67408036Y-14130495D01*
X67516464Y-14193095D01*
X67637399Y-14225500D01*
X67637401Y-14225500D01*
X67762599Y-14225500D01*
X67762601Y-14225500D01*
X67883536Y-14193095D01*
X67991964Y-14130495D01*
X68080495Y-14041964D01*
X68143095Y-13933536D01*
X68175500Y-13812601D01*
X68175500Y-13687399D01*
X68424500Y-13687399D01*
X68424500Y-13812601D01*
X68456905Y-13933536D01*
X68519505Y-14041964D01*
X68608036Y-14130495D01*
X68716464Y-14193095D01*
X68837399Y-14225500D01*
X68837401Y-14225500D01*
X68962599Y-14225500D01*
X68962601Y-14225500D01*
X69083536Y-14193095D01*
X69191964Y-14130495D01*
X69280495Y-14041964D01*
X69343095Y-13933536D01*
X69375500Y-13812601D01*
X69375500Y-13687399D01*
X69624500Y-13687399D01*
X69624500Y-13812601D01*
X69656905Y-13933536D01*
X69719505Y-14041964D01*
X69808036Y-14130495D01*
X69916464Y-14193095D01*
X70037399Y-14225500D01*
X70037401Y-14225500D01*
X70162599Y-14225500D01*
X70162601Y-14225500D01*
X70283536Y-14193095D01*
X70391964Y-14130495D01*
X70480495Y-14041964D01*
X70543095Y-13933536D01*
X70575500Y-13812601D01*
X70575500Y-13687399D01*
X70543095Y-13566464D01*
X70480495Y-13458036D01*
X70391964Y-13369505D01*
X70283536Y-13306905D01*
X70283537Y-13306905D01*
X70243224Y-13296103D01*
X70162601Y-13274500D01*
X70037399Y-13274500D01*
X69956775Y-13296103D01*
X69916463Y-13306905D01*
X69808037Y-13369504D01*
X69808034Y-13369506D01*
X69719506Y-13458034D01*
X69719504Y-13458037D01*
X69656905Y-13566463D01*
X69656905Y-13566464D01*
X69624500Y-13687399D01*
X69375500Y-13687399D01*
X69343095Y-13566464D01*
X69280495Y-13458036D01*
X69191964Y-13369505D01*
X69083536Y-13306905D01*
X69083537Y-13306905D01*
X69043224Y-13296103D01*
X68962601Y-13274500D01*
X68837399Y-13274500D01*
X68756775Y-13296103D01*
X68716463Y-13306905D01*
X68608037Y-13369504D01*
X68608034Y-13369506D01*
X68519506Y-13458034D01*
X68519504Y-13458037D01*
X68456905Y-13566463D01*
X68456905Y-13566464D01*
X68424500Y-13687399D01*
X68175500Y-13687399D01*
X68143095Y-13566464D01*
X68080495Y-13458036D01*
X67991964Y-13369505D01*
X67883536Y-13306905D01*
X67883537Y-13306905D01*
X67843224Y-13296103D01*
X67762601Y-13274500D01*
X67637399Y-13274500D01*
X67556775Y-13296103D01*
X67516463Y-13306905D01*
X67408037Y-13369504D01*
X67408034Y-13369506D01*
X67319506Y-13458034D01*
X67319504Y-13458037D01*
X67256905Y-13566463D01*
X67256905Y-13566464D01*
X67224500Y-13687399D01*
X66975500Y-13687399D01*
X66943095Y-13566464D01*
X66880495Y-13458036D01*
X66791964Y-13369505D01*
X66683536Y-13306905D01*
X66683537Y-13306905D01*
X66643224Y-13296103D01*
X66562601Y-13274500D01*
X66437399Y-13274500D01*
X66356775Y-13296103D01*
X66316463Y-13306905D01*
X66208037Y-13369504D01*
X66208034Y-13369506D01*
X66119506Y-13458034D01*
X66119504Y-13458037D01*
X66056905Y-13566463D01*
X66056905Y-13566464D01*
X66024500Y-13687399D01*
X65775500Y-13687399D01*
X65743095Y-13566464D01*
X65680495Y-13458036D01*
X65591964Y-13369505D01*
X65483536Y-13306905D01*
X65483537Y-13306905D01*
X65443224Y-13296103D01*
X65362601Y-13274500D01*
X65237399Y-13274500D01*
X65156775Y-13296103D01*
X65116463Y-13306905D01*
X65008037Y-13369504D01*
X65008034Y-13369506D01*
X64919506Y-13458034D01*
X64919504Y-13458037D01*
X64856905Y-13566463D01*
X64856905Y-13566464D01*
X64824500Y-13687399D01*
X64575500Y-13687399D01*
X64543095Y-13566464D01*
X64480495Y-13458036D01*
X64391964Y-13369505D01*
X64283536Y-13306905D01*
X64283537Y-13306905D01*
X64243224Y-13296103D01*
X64162601Y-13274500D01*
X64037399Y-13274500D01*
X63956775Y-13296103D01*
X63916463Y-13306905D01*
X63808037Y-13369504D01*
X63808034Y-13369506D01*
X63719506Y-13458034D01*
X63719504Y-13458037D01*
X63656905Y-13566463D01*
X63656905Y-13566464D01*
X63624500Y-13687399D01*
X63375500Y-13687399D01*
X63343095Y-13566464D01*
X63280495Y-13458036D01*
X63191964Y-13369505D01*
X63083536Y-13306905D01*
X63083537Y-13306905D01*
X63043224Y-13296103D01*
X62962601Y-13274500D01*
X62837399Y-13274500D01*
X62756775Y-13296103D01*
X62716463Y-13306905D01*
X62608037Y-13369504D01*
X62608034Y-13369506D01*
X62519506Y-13458034D01*
X62519504Y-13458037D01*
X62456905Y-13566463D01*
X62456905Y-13566464D01*
X62424500Y-13687399D01*
X-24999500Y-13687399D01*
X-24999500Y-12690793D01*
X50549500Y-12690793D01*
X50549500Y-12809411D01*
X50580201Y-12923988D01*
X50639511Y-13026715D01*
X50723387Y-13110591D01*
X50826114Y-13169901D01*
X50940691Y-13200602D01*
X50940694Y-13200602D01*
X51059306Y-13200602D01*
X51059309Y-13200602D01*
X51173886Y-13169901D01*
X51173888Y-13169899D01*
X51173890Y-13169899D01*
X51173891Y-13169898D01*
X51262999Y-13118451D01*
X51330899Y-13101977D01*
X51387001Y-13118451D01*
X51476108Y-13169898D01*
X51476109Y-13169899D01*
X51476111Y-13169899D01*
X51476114Y-13169901D01*
X51590691Y-13200602D01*
X51590694Y-13200602D01*
X51709306Y-13200602D01*
X51709309Y-13200602D01*
X51823886Y-13169901D01*
X51887999Y-13132884D01*
X51955898Y-13116411D01*
X52011999Y-13132884D01*
X52076114Y-13169901D01*
X52190691Y-13200602D01*
X52190694Y-13200602D01*
X52309306Y-13200602D01*
X52309309Y-13200602D01*
X52423886Y-13169901D01*
X52526613Y-13110591D01*
X52610489Y-13026715D01*
X52669799Y-12923988D01*
X52700500Y-12809411D01*
X52700500Y-12690793D01*
X52669799Y-12576216D01*
X52610489Y-12473489D01*
X52526613Y-12389613D01*
X52423886Y-12330303D01*
X52309309Y-12299602D01*
X52190691Y-12299602D01*
X52093658Y-12325602D01*
X52076110Y-12330304D01*
X52012000Y-12367319D01*
X51944100Y-12383792D01*
X51888000Y-12367319D01*
X51823889Y-12330304D01*
X51823890Y-12330304D01*
X51806342Y-12325602D01*
X51709309Y-12299602D01*
X51590691Y-12299602D01*
X51476114Y-12330303D01*
X51476112Y-12330303D01*
X51476112Y-12330304D01*
X51387001Y-12381753D01*
X51319100Y-12398226D01*
X51262999Y-12381753D01*
X51237999Y-12367319D01*
X51173886Y-12330303D01*
X51059309Y-12299602D01*
X50940691Y-12299602D01*
X50826114Y-12330303D01*
X50826112Y-12330303D01*
X50826112Y-12330304D01*
X50723387Y-12389613D01*
X50723384Y-12389615D01*
X50639513Y-12473486D01*
X50639511Y-12473489D01*
X50599977Y-12541964D01*
X50580201Y-12576216D01*
X50549500Y-12690793D01*
X-24999500Y-12690793D01*
X-24999500Y-11837516D01*
X30024500Y-11837516D01*
X30024500Y-11962718D01*
X30056905Y-12083653D01*
X30119505Y-12192081D01*
X30208036Y-12280612D01*
X30316464Y-12343212D01*
X30437399Y-12375617D01*
X30437401Y-12375617D01*
X30562599Y-12375617D01*
X30562601Y-12375617D01*
X30683536Y-12343212D01*
X30791964Y-12280612D01*
X30880495Y-12192081D01*
X30943095Y-12083653D01*
X30975500Y-11962718D01*
X30975500Y-11837516D01*
X30943095Y-11716581D01*
X30880495Y-11608153D01*
X30791964Y-11519622D01*
X30683536Y-11457022D01*
X30683537Y-11457022D01*
X30667213Y-11452648D01*
X30562601Y-11424617D01*
X30437399Y-11424617D01*
X30371388Y-11442305D01*
X30316463Y-11457022D01*
X30208037Y-11519621D01*
X30208034Y-11519623D01*
X30119506Y-11608151D01*
X30119504Y-11608154D01*
X30056905Y-11716580D01*
X30056112Y-11719540D01*
X30024500Y-11837516D01*
X-24999500Y-11837516D01*
X-24999500Y-11330657D01*
X43444500Y-11330657D01*
X43444500Y-11429527D01*
X43470090Y-11525030D01*
X43519525Y-11610654D01*
X43589438Y-11680567D01*
X43675062Y-11730002D01*
X43770565Y-11755592D01*
X43770567Y-11755592D01*
X43869432Y-11755592D01*
X43869435Y-11755592D01*
X43964938Y-11730002D01*
X44050562Y-11680567D01*
X44050563Y-11680565D01*
X44057600Y-11676503D01*
X44058723Y-11678448D01*
X44113005Y-11657464D01*
X44181449Y-11671502D01*
X44231439Y-11720316D01*
X44243097Y-11748940D01*
X44250090Y-11775041D01*
X44250091Y-11775042D01*
X44299525Y-11860664D01*
X44369438Y-11930577D01*
X44455062Y-11980012D01*
X44550565Y-12005602D01*
X44550567Y-12005602D01*
X44649432Y-12005602D01*
X44649435Y-12005602D01*
X44744938Y-11980012D01*
X44830562Y-11930577D01*
X44860472Y-11900667D01*
X47724500Y-11900667D01*
X47724500Y-11999537D01*
X47750090Y-12095040D01*
X47799525Y-12180664D01*
X47869438Y-12250577D01*
X47955062Y-12300012D01*
X48050565Y-12325602D01*
X48050567Y-12325602D01*
X48149432Y-12325602D01*
X48149435Y-12325602D01*
X48244938Y-12300012D01*
X48330562Y-12250577D01*
X48393740Y-12187399D01*
X62424500Y-12187399D01*
X62424500Y-12312601D01*
X62456905Y-12433536D01*
X62519505Y-12541964D01*
X62608036Y-12630495D01*
X62716464Y-12693095D01*
X62837399Y-12725500D01*
X62837401Y-12725500D01*
X62962599Y-12725500D01*
X62962601Y-12725500D01*
X63083536Y-12693095D01*
X63191964Y-12630495D01*
X63280495Y-12541964D01*
X63343095Y-12433536D01*
X63375500Y-12312601D01*
X63375500Y-12187399D01*
X64824500Y-12187399D01*
X64824500Y-12312601D01*
X64856905Y-12433536D01*
X64919505Y-12541964D01*
X65008036Y-12630495D01*
X65116464Y-12693095D01*
X65237399Y-12725500D01*
X65237401Y-12725500D01*
X65362599Y-12725500D01*
X65362601Y-12725500D01*
X65483536Y-12693095D01*
X65591964Y-12630495D01*
X65680495Y-12541964D01*
X65743095Y-12433536D01*
X65775500Y-12312601D01*
X65775500Y-12187399D01*
X66024500Y-12187399D01*
X66024500Y-12312601D01*
X66056905Y-12433536D01*
X66119505Y-12541964D01*
X66208036Y-12630495D01*
X66316464Y-12693095D01*
X66437399Y-12725500D01*
X66437401Y-12725500D01*
X66562599Y-12725500D01*
X66562601Y-12725500D01*
X66683536Y-12693095D01*
X66791964Y-12630495D01*
X66880495Y-12541964D01*
X66943095Y-12433536D01*
X66975500Y-12312601D01*
X66975500Y-12187399D01*
X67224500Y-12187399D01*
X67224500Y-12312601D01*
X67256905Y-12433536D01*
X67319505Y-12541964D01*
X67408036Y-12630495D01*
X67516464Y-12693095D01*
X67637399Y-12725500D01*
X67637401Y-12725500D01*
X67762599Y-12725500D01*
X67762601Y-12725500D01*
X67883536Y-12693095D01*
X67991964Y-12630495D01*
X68080495Y-12541964D01*
X68143095Y-12433536D01*
X68175500Y-12312601D01*
X68175500Y-12187399D01*
X68424500Y-12187399D01*
X68424500Y-12312601D01*
X68456905Y-12433536D01*
X68519505Y-12541964D01*
X68608036Y-12630495D01*
X68716464Y-12693095D01*
X68837399Y-12725500D01*
X68837401Y-12725500D01*
X68962599Y-12725500D01*
X68962601Y-12725500D01*
X69083536Y-12693095D01*
X69191964Y-12630495D01*
X69280495Y-12541964D01*
X69343095Y-12433536D01*
X69375500Y-12312601D01*
X69375500Y-12187399D01*
X69624500Y-12187399D01*
X69624500Y-12312601D01*
X69656905Y-12433536D01*
X69719505Y-12541964D01*
X69808036Y-12630495D01*
X69916464Y-12693095D01*
X70037399Y-12725500D01*
X70037401Y-12725500D01*
X70162599Y-12725500D01*
X70162601Y-12725500D01*
X70283536Y-12693095D01*
X70391964Y-12630495D01*
X70480495Y-12541964D01*
X70543095Y-12433536D01*
X70575500Y-12312601D01*
X70575500Y-12187399D01*
X70543095Y-12066464D01*
X70480495Y-11958036D01*
X70391964Y-11869505D01*
X70283536Y-11806905D01*
X70283537Y-11806905D01*
X70243224Y-11796103D01*
X70162601Y-11774500D01*
X70037399Y-11774500D01*
X69956775Y-11796103D01*
X69916463Y-11806905D01*
X69808037Y-11869504D01*
X69808034Y-11869506D01*
X69719506Y-11958034D01*
X69719504Y-11958037D01*
X69656905Y-12066463D01*
X69656905Y-12066464D01*
X69624500Y-12187399D01*
X69375500Y-12187399D01*
X69343095Y-12066464D01*
X69280495Y-11958036D01*
X69191964Y-11869505D01*
X69083536Y-11806905D01*
X69083537Y-11806905D01*
X69043224Y-11796103D01*
X68962601Y-11774500D01*
X68837399Y-11774500D01*
X68756775Y-11796103D01*
X68716463Y-11806905D01*
X68608037Y-11869504D01*
X68608034Y-11869506D01*
X68519506Y-11958034D01*
X68519504Y-11958037D01*
X68456905Y-12066463D01*
X68456905Y-12066464D01*
X68424500Y-12187399D01*
X68175500Y-12187399D01*
X68143095Y-12066464D01*
X68080495Y-11958036D01*
X67991964Y-11869505D01*
X67883536Y-11806905D01*
X67883537Y-11806905D01*
X67843224Y-11796103D01*
X67762601Y-11774500D01*
X67637399Y-11774500D01*
X67556775Y-11796103D01*
X67516463Y-11806905D01*
X67408037Y-11869504D01*
X67408034Y-11869506D01*
X67319506Y-11958034D01*
X67319504Y-11958037D01*
X67256905Y-12066463D01*
X67256905Y-12066464D01*
X67224500Y-12187399D01*
X66975500Y-12187399D01*
X66943095Y-12066464D01*
X66880495Y-11958036D01*
X66791964Y-11869505D01*
X66683536Y-11806905D01*
X66683537Y-11806905D01*
X66643224Y-11796103D01*
X66562601Y-11774500D01*
X66437399Y-11774500D01*
X66356775Y-11796103D01*
X66316463Y-11806905D01*
X66208037Y-11869504D01*
X66208034Y-11869506D01*
X66119506Y-11958034D01*
X66119504Y-11958037D01*
X66056905Y-12066463D01*
X66056905Y-12066464D01*
X66024500Y-12187399D01*
X65775500Y-12187399D01*
X65743095Y-12066464D01*
X65680495Y-11958036D01*
X65591964Y-11869505D01*
X65483536Y-11806905D01*
X65483537Y-11806905D01*
X65443224Y-11796103D01*
X65362601Y-11774500D01*
X65237399Y-11774500D01*
X65156775Y-11796103D01*
X65116463Y-11806905D01*
X65008037Y-11869504D01*
X65008034Y-11869506D01*
X64919506Y-11958034D01*
X64919504Y-11958037D01*
X64856905Y-12066463D01*
X64856905Y-12066464D01*
X64824500Y-12187399D01*
X63375500Y-12187399D01*
X63343095Y-12066464D01*
X63280495Y-11958036D01*
X63191964Y-11869505D01*
X63083536Y-11806905D01*
X63083537Y-11806905D01*
X63043224Y-11796103D01*
X62962601Y-11774500D01*
X62837399Y-11774500D01*
X62756775Y-11796103D01*
X62716463Y-11806905D01*
X62608037Y-11869504D01*
X62608034Y-11869506D01*
X62519506Y-11958034D01*
X62519504Y-11958037D01*
X62456905Y-12066463D01*
X62456905Y-12066464D01*
X62424500Y-12187399D01*
X48393740Y-12187399D01*
X48400475Y-12180664D01*
X48449910Y-12095040D01*
X48475500Y-11999537D01*
X48475500Y-11900667D01*
X48449910Y-11805164D01*
X48400475Y-11719540D01*
X48330562Y-11649627D01*
X48244938Y-11600192D01*
X48149435Y-11574602D01*
X48050565Y-11574602D01*
X47955062Y-11600192D01*
X47955060Y-11600193D01*
X47955059Y-11600193D01*
X47869436Y-11649628D01*
X47799526Y-11719538D01*
X47750091Y-11805161D01*
X47750091Y-11805162D01*
X47750090Y-11805164D01*
X47724500Y-11900667D01*
X44860472Y-11900667D01*
X44900475Y-11860664D01*
X44949910Y-11775040D01*
X44975500Y-11679537D01*
X44975500Y-11580667D01*
X44949910Y-11485164D01*
X44900475Y-11399540D01*
X44830562Y-11329627D01*
X44744938Y-11280192D01*
X44649435Y-11254602D01*
X44550565Y-11254602D01*
X44455062Y-11280192D01*
X44455060Y-11280193D01*
X44455059Y-11280193D01*
X44404593Y-11309330D01*
X44369438Y-11329627D01*
X44369436Y-11329628D01*
X44362400Y-11333691D01*
X44361279Y-11331749D01*
X44306957Y-11352732D01*
X44238517Y-11338673D01*
X44188542Y-11289845D01*
X44176903Y-11261255D01*
X44169910Y-11235154D01*
X44120475Y-11149530D01*
X44050562Y-11079617D01*
X43964938Y-11030182D01*
X43869435Y-11004592D01*
X43770565Y-11004592D01*
X43675062Y-11030182D01*
X43675060Y-11030183D01*
X43675059Y-11030183D01*
X43589436Y-11079618D01*
X43519526Y-11149528D01*
X43470091Y-11235151D01*
X43470091Y-11235152D01*
X43470090Y-11235154D01*
X43444500Y-11330657D01*
X-24999500Y-11330657D01*
X-24999500Y-10687399D01*
X62424500Y-10687399D01*
X62424500Y-10812601D01*
X62456905Y-10933536D01*
X62519505Y-11041964D01*
X62608036Y-11130495D01*
X62716464Y-11193095D01*
X62837399Y-11225500D01*
X62837401Y-11225500D01*
X62962599Y-11225500D01*
X62962601Y-11225500D01*
X63083536Y-11193095D01*
X63191964Y-11130495D01*
X63280495Y-11041964D01*
X63343095Y-10933536D01*
X63375500Y-10812601D01*
X63375500Y-10687399D01*
X63624500Y-10687399D01*
X63624500Y-10812601D01*
X63656905Y-10933536D01*
X63719505Y-11041964D01*
X63808036Y-11130495D01*
X63916464Y-11193095D01*
X64037399Y-11225500D01*
X64037401Y-11225500D01*
X64162599Y-11225500D01*
X64162601Y-11225500D01*
X64283536Y-11193095D01*
X64391964Y-11130495D01*
X64480495Y-11041964D01*
X64543095Y-10933536D01*
X64575500Y-10812601D01*
X64575500Y-10687399D01*
X64824500Y-10687399D01*
X64824500Y-10812601D01*
X64856905Y-10933536D01*
X64919505Y-11041964D01*
X65008036Y-11130495D01*
X65116464Y-11193095D01*
X65237399Y-11225500D01*
X65237401Y-11225500D01*
X65362599Y-11225500D01*
X65362601Y-11225500D01*
X65483536Y-11193095D01*
X65591964Y-11130495D01*
X65680495Y-11041964D01*
X65743095Y-10933536D01*
X65775500Y-10812601D01*
X65775500Y-10687399D01*
X68424500Y-10687399D01*
X68424500Y-10812601D01*
X68456905Y-10933536D01*
X68519505Y-11041964D01*
X68608036Y-11130495D01*
X68716464Y-11193095D01*
X68837399Y-11225500D01*
X68837401Y-11225500D01*
X68962599Y-11225500D01*
X68962601Y-11225500D01*
X69083536Y-11193095D01*
X69191964Y-11130495D01*
X69280495Y-11041964D01*
X69343095Y-10933536D01*
X69375500Y-10812601D01*
X69375500Y-10687399D01*
X69343095Y-10566464D01*
X69280495Y-10458036D01*
X69191964Y-10369505D01*
X69083536Y-10306905D01*
X69083537Y-10306905D01*
X69043224Y-10296103D01*
X68962601Y-10274500D01*
X68837399Y-10274500D01*
X68756775Y-10296103D01*
X68716463Y-10306905D01*
X68608037Y-10369504D01*
X68608034Y-10369506D01*
X68519506Y-10458034D01*
X68519504Y-10458037D01*
X68456905Y-10566463D01*
X68456905Y-10566464D01*
X68424500Y-10687399D01*
X65775500Y-10687399D01*
X65743095Y-10566464D01*
X65680495Y-10458036D01*
X65591964Y-10369505D01*
X65483536Y-10306905D01*
X65483537Y-10306905D01*
X65443224Y-10296103D01*
X65362601Y-10274500D01*
X65237399Y-10274500D01*
X65156775Y-10296103D01*
X65116463Y-10306905D01*
X65008037Y-10369504D01*
X65008034Y-10369506D01*
X64919506Y-10458034D01*
X64919504Y-10458037D01*
X64856905Y-10566463D01*
X64856905Y-10566464D01*
X64824500Y-10687399D01*
X64575500Y-10687399D01*
X64543095Y-10566464D01*
X64480495Y-10458036D01*
X64391964Y-10369505D01*
X64283536Y-10306905D01*
X64283537Y-10306905D01*
X64243224Y-10296103D01*
X64162601Y-10274500D01*
X64037399Y-10274500D01*
X63956775Y-10296103D01*
X63916463Y-10306905D01*
X63808037Y-10369504D01*
X63808034Y-10369506D01*
X63719506Y-10458034D01*
X63719504Y-10458037D01*
X63656905Y-10566463D01*
X63656905Y-10566464D01*
X63624500Y-10687399D01*
X63375500Y-10687399D01*
X63343095Y-10566464D01*
X63280495Y-10458036D01*
X63191964Y-10369505D01*
X63083536Y-10306905D01*
X63083537Y-10306905D01*
X63043224Y-10296103D01*
X62962601Y-10274500D01*
X62837399Y-10274500D01*
X62756775Y-10296103D01*
X62716463Y-10306905D01*
X62608037Y-10369504D01*
X62608034Y-10369506D01*
X62519506Y-10458034D01*
X62519504Y-10458037D01*
X62456905Y-10566463D01*
X62456905Y-10566464D01*
X62424500Y-10687399D01*
X-24999500Y-10687399D01*
X-24999500Y-2315766D01*
X48842050Y-2315766D01*
X48842050Y-2534233D01*
X48876226Y-2750013D01*
X48943734Y-2957785D01*
X49042921Y-3152447D01*
X49171325Y-3329182D01*
X49171329Y-3329187D01*
X49325812Y-3483670D01*
X49325817Y-3483674D01*
X49479974Y-3595674D01*
X49502556Y-3612081D01*
X49697212Y-3711264D01*
X49697214Y-3711265D01*
X49801100Y-3745019D01*
X49904988Y-3778774D01*
X50120766Y-3812950D01*
X50120767Y-3812950D01*
X50339233Y-3812950D01*
X50339234Y-3812950D01*
X50555012Y-3778774D01*
X50762788Y-3711264D01*
X50957444Y-3612081D01*
X51134189Y-3483669D01*
X51288669Y-3329189D01*
X51417081Y-3152444D01*
X51516264Y-2957788D01*
X51583774Y-2750012D01*
X51617950Y-2534234D01*
X51617950Y-2315766D01*
X52017050Y-2315766D01*
X52017050Y-2534233D01*
X52051226Y-2750013D01*
X52118734Y-2957785D01*
X52217921Y-3152447D01*
X52346325Y-3329182D01*
X52346329Y-3329187D01*
X52500812Y-3483670D01*
X52500817Y-3483674D01*
X52654974Y-3595674D01*
X52677556Y-3612081D01*
X52872212Y-3711264D01*
X52872214Y-3711265D01*
X52976100Y-3745019D01*
X53079988Y-3778774D01*
X53295766Y-3812950D01*
X53295767Y-3812950D01*
X53514233Y-3812950D01*
X53514234Y-3812950D01*
X53730012Y-3778774D01*
X53937788Y-3711264D01*
X54132444Y-3612081D01*
X54309189Y-3483669D01*
X54463669Y-3329189D01*
X54592081Y-3152444D01*
X54691264Y-2957788D01*
X54758774Y-2750012D01*
X54792950Y-2534234D01*
X54792950Y-2315766D01*
X54758774Y-2099988D01*
X54691264Y-1892212D01*
X54592081Y-1697556D01*
X54518878Y-1596800D01*
X54463674Y-1520817D01*
X54463670Y-1520812D01*
X54309187Y-1366329D01*
X54309182Y-1366325D01*
X54132447Y-1237921D01*
X54132446Y-1237920D01*
X54132444Y-1237919D01*
X54035116Y-1188327D01*
X53937785Y-1138734D01*
X53730013Y-1071226D01*
X53622123Y-1054138D01*
X53514234Y-1037050D01*
X53295766Y-1037050D01*
X53223840Y-1048442D01*
X53079986Y-1071226D01*
X52872214Y-1138734D01*
X52677552Y-1237921D01*
X52500817Y-1366325D01*
X52500812Y-1366329D01*
X52346329Y-1520812D01*
X52346325Y-1520817D01*
X52217921Y-1697552D01*
X52118734Y-1892214D01*
X52051226Y-2099986D01*
X52017050Y-2315766D01*
X51617950Y-2315766D01*
X51583774Y-2099988D01*
X51516264Y-1892212D01*
X51417081Y-1697556D01*
X51343878Y-1596800D01*
X51288674Y-1520817D01*
X51288670Y-1520812D01*
X51134187Y-1366329D01*
X51134182Y-1366325D01*
X50957447Y-1237921D01*
X50957446Y-1237920D01*
X50957444Y-1237919D01*
X50860116Y-1188327D01*
X50762785Y-1138734D01*
X50555013Y-1071226D01*
X50447123Y-1054138D01*
X50339234Y-1037050D01*
X50120766Y-1037050D01*
X50048840Y-1048442D01*
X49904986Y-1071226D01*
X49697214Y-1138734D01*
X49502552Y-1237921D01*
X49325817Y-1366325D01*
X49325812Y-1366329D01*
X49171329Y-1520812D01*
X49171325Y-1520817D01*
X49042921Y-1697552D01*
X48943734Y-1892214D01*
X48876226Y-2099986D01*
X48842050Y-2315766D01*
X-24999500Y-2315766D01*
X-24999500Y-832465D01*
X54614200Y-832465D01*
X54614200Y-969534D01*
X54640937Y-1103949D01*
X54640940Y-1103961D01*
X54693386Y-1230578D01*
X54693393Y-1230591D01*
X54769536Y-1344546D01*
X54769539Y-1344550D01*
X54866449Y-1441460D01*
X54866453Y-1441463D01*
X54980408Y-1517606D01*
X54980421Y-1517613D01*
X55107038Y-1570059D01*
X55107043Y-1570061D01*
X55241465Y-1596799D01*
X55241469Y-1596800D01*
X55241470Y-1596800D01*
X55378531Y-1596800D01*
X55378532Y-1596799D01*
X55512957Y-1570061D01*
X55639585Y-1517610D01*
X55753547Y-1441463D01*
X55850463Y-1344547D01*
X55926610Y-1230585D01*
X55979061Y-1103957D01*
X56005800Y-969530D01*
X56005800Y-832470D01*
X55979061Y-698043D01*
X55979059Y-698038D01*
X55926613Y-571421D01*
X55926606Y-571408D01*
X55850463Y-457453D01*
X55850460Y-457449D01*
X55753550Y-360539D01*
X55753546Y-360536D01*
X55639591Y-284393D01*
X55639578Y-284386D01*
X55512961Y-231940D01*
X55512949Y-231937D01*
X55378534Y-205200D01*
X55378530Y-205200D01*
X55241470Y-205200D01*
X55241465Y-205200D01*
X55107050Y-231937D01*
X55107038Y-231940D01*
X54980421Y-284386D01*
X54980408Y-284393D01*
X54866453Y-360536D01*
X54866449Y-360539D01*
X54769539Y-457449D01*
X54769536Y-457453D01*
X54693393Y-571408D01*
X54693386Y-571421D01*
X54640940Y-698038D01*
X54640937Y-698050D01*
X54614200Y-832465D01*
X-24999500Y-832465D01*
X-24999500Y183535D01*
X49534200Y183535D01*
X49534200Y46466D01*
X49560937Y-87949D01*
X49560940Y-87961D01*
X49613386Y-214578D01*
X49613393Y-214591D01*
X49689536Y-328546D01*
X49689539Y-328550D01*
X49786449Y-425460D01*
X49786453Y-425463D01*
X49900408Y-501606D01*
X49900421Y-501613D01*
X50027038Y-554059D01*
X50027043Y-554061D01*
X50161465Y-580799D01*
X50161469Y-580800D01*
X50161470Y-580800D01*
X50298531Y-580800D01*
X50298532Y-580799D01*
X50432957Y-554061D01*
X50559585Y-501610D01*
X50673547Y-425463D01*
X50770463Y-328547D01*
X50846610Y-214585D01*
X50899061Y-87957D01*
X50925800Y46470D01*
X50925800Y183530D01*
X50899061Y317957D01*
X50899059Y317962D01*
X50846613Y444579D01*
X50846606Y444592D01*
X50770463Y558547D01*
X50770460Y558551D01*
X50673550Y655461D01*
X50673546Y655464D01*
X50559591Y731607D01*
X50559578Y731614D01*
X50432961Y784060D01*
X50432949Y784063D01*
X50298534Y810800D01*
X50298530Y810800D01*
X50161470Y810800D01*
X50161465Y810800D01*
X50027050Y784063D01*
X50027038Y784060D01*
X49900421Y731614D01*
X49900408Y731607D01*
X49786453Y655464D01*
X49786449Y655461D01*
X49689539Y558551D01*
X49689536Y558547D01*
X49613393Y444592D01*
X49613386Y444579D01*
X49560940Y317962D01*
X49560937Y317950D01*
X49534200Y183535D01*
X-24999500Y183535D01*
X-24999500Y1199535D01*
X54614200Y1199535D01*
X54614200Y1062466D01*
X54640937Y928051D01*
X54640940Y928039D01*
X54693386Y801422D01*
X54693393Y801409D01*
X54769536Y687454D01*
X54769539Y687450D01*
X54866449Y590540D01*
X54866453Y590537D01*
X54980408Y514394D01*
X54980421Y514387D01*
X55107038Y461941D01*
X55107043Y461939D01*
X55241465Y435201D01*
X55241469Y435200D01*
X55241470Y435200D01*
X55378531Y435200D01*
X55378532Y435201D01*
X55512957Y461939D01*
X55639585Y514390D01*
X55753547Y590537D01*
X55850463Y687453D01*
X55926610Y801415D01*
X55979061Y928043D01*
X56005800Y1062470D01*
X56005800Y1199530D01*
X55979061Y1333957D01*
X55979059Y1333962D01*
X55926613Y1460579D01*
X55926606Y1460592D01*
X55850463Y1574547D01*
X55850460Y1574551D01*
X55753550Y1671461D01*
X55753546Y1671464D01*
X55639591Y1747607D01*
X55639578Y1747614D01*
X55512961Y1800060D01*
X55512949Y1800063D01*
X55378534Y1826800D01*
X55378530Y1826800D01*
X55241470Y1826800D01*
X55241465Y1826800D01*
X55107050Y1800063D01*
X55107038Y1800060D01*
X54980421Y1747614D01*
X54980408Y1747607D01*
X54866453Y1671464D01*
X54866449Y1671461D01*
X54769539Y1574551D01*
X54769536Y1574547D01*
X54693393Y1460592D01*
X54693386Y1460579D01*
X54640940Y1333962D01*
X54640937Y1333950D01*
X54614200Y1199535D01*
X-24999500Y1199535D01*
X-24999500Y2764234D01*
X48842050Y2764234D01*
X48842050Y2545767D01*
X48876226Y2329987D01*
X48943734Y2122215D01*
X49042921Y1927553D01*
X49171325Y1750818D01*
X49171329Y1750813D01*
X49325812Y1596330D01*
X49325817Y1596326D01*
X49355794Y1574547D01*
X49502556Y1467919D01*
X49697212Y1368736D01*
X49697214Y1368735D01*
X49801100Y1334981D01*
X49904988Y1301226D01*
X50120766Y1267050D01*
X50120767Y1267050D01*
X50339233Y1267050D01*
X50339234Y1267050D01*
X50555012Y1301226D01*
X50762788Y1368736D01*
X50957444Y1467919D01*
X51134189Y1596331D01*
X51288669Y1750811D01*
X51417081Y1927556D01*
X51516264Y2122212D01*
X51583774Y2329988D01*
X51617950Y2545766D01*
X51617950Y2764234D01*
X52017050Y2764234D01*
X52017050Y2545767D01*
X52051226Y2329987D01*
X52118734Y2122215D01*
X52217921Y1927553D01*
X52346325Y1750818D01*
X52346329Y1750813D01*
X52500812Y1596330D01*
X52500817Y1596326D01*
X52530794Y1574547D01*
X52677556Y1467919D01*
X52872212Y1368736D01*
X52872214Y1368735D01*
X52976100Y1334981D01*
X53079988Y1301226D01*
X53295766Y1267050D01*
X53295767Y1267050D01*
X53514233Y1267050D01*
X53514234Y1267050D01*
X53730012Y1301226D01*
X53775870Y1316127D01*
X53798729Y1323553D01*
X53937785Y1368735D01*
X53937785Y1368736D01*
X53937788Y1368736D01*
X54132444Y1467919D01*
X54309189Y1596331D01*
X54463669Y1750811D01*
X54592081Y1927556D01*
X54691264Y2122212D01*
X54758774Y2329988D01*
X54792950Y2545766D01*
X54792950Y2764234D01*
X54758774Y2980012D01*
X54691264Y3187788D01*
X54592081Y3382444D01*
X54575674Y3405026D01*
X54463674Y3559183D01*
X54463670Y3559188D01*
X54309187Y3713671D01*
X54309182Y3713675D01*
X54132447Y3842079D01*
X54132446Y3842080D01*
X54132444Y3842081D01*
X54035116Y3891673D01*
X53937785Y3941266D01*
X53730013Y4008774D01*
X53622123Y4025862D01*
X53514234Y4042950D01*
X53295766Y4042950D01*
X53223840Y4031558D01*
X53079986Y4008774D01*
X52872214Y3941266D01*
X52677552Y3842079D01*
X52500817Y3713675D01*
X52500812Y3713671D01*
X52346329Y3559188D01*
X52346325Y3559183D01*
X52217921Y3382448D01*
X52118734Y3187786D01*
X52051226Y2980014D01*
X52017050Y2764234D01*
X51617950Y2764234D01*
X51583774Y2980012D01*
X51516264Y3187788D01*
X51417081Y3382444D01*
X51400674Y3405026D01*
X51288674Y3559183D01*
X51288670Y3559188D01*
X51134187Y3713671D01*
X51134182Y3713675D01*
X50957447Y3842079D01*
X50957446Y3842080D01*
X50957444Y3842081D01*
X50860116Y3891673D01*
X50762785Y3941266D01*
X50555013Y4008774D01*
X50447123Y4025862D01*
X50339234Y4042950D01*
X50120766Y4042950D01*
X50048840Y4031558D01*
X49904986Y4008774D01*
X49697214Y3941266D01*
X49502552Y3842079D01*
X49325817Y3713675D01*
X49325812Y3713671D01*
X49171329Y3559188D01*
X49171325Y3559183D01*
X49042921Y3382448D01*
X48943734Y3187786D01*
X48876226Y2980014D01*
X48842050Y2764234D01*
X-24999500Y2764234D01*
X-24999500Y15809309D01*
X52049500Y15809309D01*
X52049500Y15690691D01*
X52080201Y15576114D01*
X52139511Y15473387D01*
X52223387Y15389511D01*
X52326114Y15330201D01*
X52440691Y15299500D01*
X52440694Y15299500D01*
X52559306Y15299500D01*
X52559309Y15299500D01*
X52673886Y15330201D01*
X52776613Y15389511D01*
X52860489Y15473387D01*
X52919799Y15576114D01*
X52950500Y15690691D01*
X52950500Y15809309D01*
X52919799Y15923886D01*
X52860489Y16026613D01*
X52776613Y16110489D01*
X52673886Y16169799D01*
X52559309Y16200500D01*
X52440691Y16200500D01*
X52326114Y16169799D01*
X52326112Y16169799D01*
X52326112Y16169798D01*
X52223387Y16110489D01*
X52223384Y16110487D01*
X52139513Y16026616D01*
X52139511Y16026613D01*
X52080201Y15923886D01*
X52049500Y15809309D01*
X-24999500Y15809309D01*
X-24999500Y17309309D01*
X51549500Y17309309D01*
X51549500Y17190691D01*
X51580201Y17076114D01*
X51639511Y16973387D01*
X51723387Y16889511D01*
X51826114Y16830201D01*
X51940691Y16799500D01*
X51940694Y16799500D01*
X52059306Y16799500D01*
X52059309Y16799500D01*
X52173886Y16830201D01*
X52276613Y16889511D01*
X52360489Y16973387D01*
X52419799Y17076114D01*
X52450500Y17190691D01*
X52450500Y17309309D01*
X52419799Y17423886D01*
X52360489Y17526613D01*
X52276613Y17610489D01*
X52173886Y17669799D01*
X52059309Y17700500D01*
X51940691Y17700500D01*
X51826114Y17669799D01*
X51826112Y17669799D01*
X51826112Y17669798D01*
X51723387Y17610489D01*
X51723384Y17610487D01*
X51639513Y17526616D01*
X51639511Y17526613D01*
X51580201Y17423886D01*
X51549500Y17309309D01*
X-24999500Y17309309D01*
X-24999500Y18231809D01*
X56799500Y18231809D01*
X56799500Y18113191D01*
X56830201Y17998614D01*
X56889511Y17895887D01*
X56973387Y17812011D01*
X57076114Y17752701D01*
X57190691Y17722000D01*
X57190694Y17722000D01*
X57309306Y17722000D01*
X57309309Y17722000D01*
X57423886Y17752701D01*
X57526613Y17812011D01*
X57610489Y17895887D01*
X57669799Y17998614D01*
X57700500Y18113191D01*
X57700500Y18231809D01*
X57669799Y18346386D01*
X57610489Y18449113D01*
X57526613Y18532989D01*
X57423886Y18592299D01*
X57309309Y18623000D01*
X57190691Y18623000D01*
X57076114Y18592299D01*
X57076112Y18592299D01*
X57076112Y18592298D01*
X56973387Y18532989D01*
X56973384Y18532987D01*
X56889513Y18449116D01*
X56889511Y18449113D01*
X56830201Y18346386D01*
X56799500Y18231809D01*
X-24999500Y18231809D01*
X-24999500Y22809309D01*
X50549500Y22809309D01*
X50549500Y22690691D01*
X50580201Y22576114D01*
X50639511Y22473387D01*
X50723387Y22389511D01*
X50826114Y22330201D01*
X50940691Y22299500D01*
X50940694Y22299500D01*
X51059306Y22299500D01*
X51059309Y22299500D01*
X51173886Y22330201D01*
X51276613Y22389511D01*
X51360489Y22473387D01*
X51419799Y22576114D01*
X51450500Y22690691D01*
X51450500Y22809309D01*
X51427966Y22893407D01*
X51429629Y22963257D01*
X51468792Y23021119D01*
X51533020Y23048623D01*
X51547741Y23049500D01*
X51559306Y23049500D01*
X51559309Y23049500D01*
X51673886Y23080201D01*
X51776613Y23139511D01*
X51860489Y23223387D01*
X51919799Y23326114D01*
X51950500Y23440691D01*
X51950500Y23559309D01*
X51919799Y23673886D01*
X51860489Y23776613D01*
X51776613Y23860489D01*
X51673886Y23919799D01*
X51559309Y23950500D01*
X51440691Y23950500D01*
X51326114Y23919799D01*
X51326112Y23919799D01*
X51326112Y23919798D01*
X51223387Y23860489D01*
X51223384Y23860487D01*
X51139513Y23776616D01*
X51139511Y23776613D01*
X51080201Y23673886D01*
X51049500Y23559309D01*
X51049500Y23559307D01*
X51049500Y23440692D01*
X51072034Y23356593D01*
X51070371Y23286743D01*
X51031208Y23228881D01*
X50966980Y23201377D01*
X50952259Y23200500D01*
X50940691Y23200500D01*
X50826114Y23169799D01*
X50826112Y23169799D01*
X50826112Y23169798D01*
X50723387Y23110489D01*
X50723384Y23110487D01*
X50639513Y23026616D01*
X50639511Y23026613D01*
X50580201Y22923886D01*
X50549500Y22809309D01*
X-24999500Y22809309D01*
X-24999500Y26105098D01*
X64200000Y26105098D01*
X64200000Y23894908D01*
X64200001Y23894902D01*
X64210078Y23781540D01*
X64263229Y23595784D01*
X64324648Y23478202D01*
X64324649Y23478201D01*
X65142003Y24295556D01*
X65231298Y24172651D01*
X65372651Y24031298D01*
X65495554Y23942004D01*
X64678200Y23124650D01*
X64795784Y23063229D01*
X64981538Y23010080D01*
X64981541Y23010079D01*
X65094903Y23000001D01*
X67305092Y23000001D01*
X67305098Y23000002D01*
X67418460Y23010079D01*
X67604215Y23063229D01*
X67721799Y23124650D01*
X66904445Y23942004D01*
X67027349Y24031298D01*
X67168702Y24172651D01*
X67257996Y24295555D01*
X68075350Y23478201D01*
X68136771Y23595785D01*
X68189920Y23781539D01*
X68189921Y23781542D01*
X68199999Y23894903D01*
X68199999Y26105093D01*
X68199998Y26105099D01*
X68189921Y26218461D01*
X68136771Y26404216D01*
X68075350Y26521800D01*
X67257996Y25704446D01*
X67168702Y25827349D01*
X67027349Y25968702D01*
X66904445Y26057997D01*
X67721799Y26875351D01*
X67721798Y26875352D01*
X67604216Y26936771D01*
X67418461Y26989921D01*
X67418458Y26989922D01*
X67305096Y27000000D01*
X65094907Y27000000D01*
X65094901Y26999999D01*
X64981539Y26989922D01*
X64795779Y26936770D01*
X64795778Y26936770D01*
X64678200Y26875353D01*
X64678199Y26875352D01*
X65495554Y26057997D01*
X65372651Y25968702D01*
X65231298Y25827349D01*
X65142003Y25704446D01*
X64324648Y26521801D01*
X64324647Y26521800D01*
X64263230Y26404222D01*
X64263230Y26404221D01*
X64210079Y26218462D01*
X64210078Y26218459D01*
X64200000Y26105098D01*
X-24999500Y26105098D01*
X-24999500Y35463138D01*
X43899500Y35463138D01*
X43899500Y35250565D01*
X43932753Y35040612D01*
X43998444Y34838437D01*
X44094951Y34649031D01*
X44219890Y34477065D01*
X44370213Y34326742D01*
X44542182Y34201801D01*
X44550946Y34197335D01*
X44601742Y34149360D01*
X44618536Y34081539D01*
X44595998Y34015404D01*
X44550946Y33976367D01*
X44542182Y33971902D01*
X44370213Y33846961D01*
X44219890Y33696638D01*
X44094951Y33524672D01*
X43998444Y33335266D01*
X43932753Y33133091D01*
X43899500Y32923138D01*
X43899500Y32710565D01*
X43932753Y32500612D01*
X43998444Y32298437D01*
X44094951Y32109031D01*
X44219890Y31937065D01*
X44370213Y31786742D01*
X44542182Y31661801D01*
X44550946Y31657335D01*
X44601742Y31609360D01*
X44618536Y31541539D01*
X44595998Y31475404D01*
X44550946Y31436367D01*
X44542182Y31431902D01*
X44370213Y31306961D01*
X44219890Y31156638D01*
X44094951Y30984672D01*
X43998444Y30795266D01*
X43932753Y30593091D01*
X43899500Y30383138D01*
X43899500Y30170565D01*
X43932753Y29960612D01*
X43998444Y29758437D01*
X44094951Y29569031D01*
X44219890Y29397065D01*
X44370213Y29246742D01*
X44542182Y29121801D01*
X44550946Y29117335D01*
X44601742Y29069360D01*
X44618536Y29001539D01*
X44595998Y28935404D01*
X44550946Y28896367D01*
X44542182Y28891902D01*
X44370213Y28766961D01*
X44219890Y28616638D01*
X44094951Y28444672D01*
X43998444Y28255266D01*
X43932753Y28053091D01*
X43899500Y27843138D01*
X43899500Y27630565D01*
X43932753Y27420612D01*
X43998444Y27218437D01*
X44094951Y27029031D01*
X44219890Y26857065D01*
X44370213Y26706742D01*
X44542179Y26581803D01*
X44542181Y26581802D01*
X44542184Y26581800D01*
X44731588Y26485294D01*
X44933757Y26419605D01*
X45143713Y26386351D01*
X45143714Y26386351D01*
X45356286Y26386351D01*
X45356287Y26386351D01*
X45566243Y26419605D01*
X45768412Y26485294D01*
X45957816Y26581800D01*
X45979789Y26597765D01*
X46129786Y26706742D01*
X46129788Y26706745D01*
X46129792Y26706747D01*
X46280104Y26857059D01*
X46293395Y26875352D01*
X46314901Y26904952D01*
X46405048Y27029031D01*
X46405047Y27029031D01*
X46405051Y27029035D01*
X46501557Y27218439D01*
X46567246Y27420608D01*
X46600500Y27630564D01*
X46600500Y27843138D01*
X46567246Y28053094D01*
X46501557Y28255263D01*
X46405051Y28444667D01*
X46405049Y28444670D01*
X46405048Y28444672D01*
X46280109Y28616638D01*
X46129786Y28766961D01*
X45957820Y28891900D01*
X45957115Y28892260D01*
X45949054Y28896366D01*
X45898259Y28944339D01*
X45881463Y29012159D01*
X45903999Y29078295D01*
X45949054Y29117336D01*
X45957816Y29121800D01*
X45979789Y29137765D01*
X46129786Y29246742D01*
X46129788Y29246745D01*
X46129792Y29246747D01*
X46280104Y29397059D01*
X46280106Y29397063D01*
X46280109Y29397065D01*
X46405048Y29569031D01*
X46405047Y29569031D01*
X46405051Y29569035D01*
X46501557Y29758439D01*
X46567246Y29960608D01*
X46600500Y30170564D01*
X46600500Y30383138D01*
X46567246Y30593094D01*
X46501557Y30795263D01*
X46405051Y30984667D01*
X46405049Y30984670D01*
X46405048Y30984672D01*
X46280109Y31156638D01*
X46129786Y31306961D01*
X45957820Y31431900D01*
X45957115Y31432260D01*
X45949054Y31436366D01*
X45898259Y31484339D01*
X45881463Y31552159D01*
X45903999Y31618295D01*
X45949054Y31657336D01*
X45957816Y31661800D01*
X45979789Y31677765D01*
X46129786Y31786742D01*
X46129788Y31786745D01*
X46129792Y31786747D01*
X46280104Y31937059D01*
X46280106Y31937063D01*
X46280109Y31937065D01*
X46405048Y32109031D01*
X46405047Y32109031D01*
X46405051Y32109035D01*
X46501557Y32298439D01*
X46567246Y32500608D01*
X46600500Y32710564D01*
X46600500Y32865702D01*
X57749500Y32865702D01*
X57749500Y30634299D01*
X57752401Y30597433D01*
X57752402Y30597427D01*
X57798254Y30439607D01*
X57798255Y30439604D01*
X57881917Y30298138D01*
X57881923Y30298130D01*
X57998129Y30181924D01*
X57998133Y30181921D01*
X57998135Y30181919D01*
X58139602Y30098256D01*
X58181224Y30086164D01*
X58297426Y30052403D01*
X58297429Y30052403D01*
X58297431Y30052402D01*
X58334306Y30049500D01*
X58334314Y30049500D01*
X60565686Y30049500D01*
X60565694Y30049500D01*
X60602569Y30052402D01*
X60602571Y30052403D01*
X60602573Y30052403D01*
X60644191Y30064495D01*
X60760398Y30098256D01*
X60901865Y30181919D01*
X61018081Y30298135D01*
X61101744Y30439602D01*
X61147598Y30597431D01*
X61150500Y30634306D01*
X61150500Y32865694D01*
X61147598Y32902569D01*
X61101744Y33060398D01*
X61018081Y33201865D01*
X61018079Y33201867D01*
X61018076Y33201871D01*
X60901870Y33318077D01*
X60901862Y33318083D01*
X60760396Y33401745D01*
X60760393Y33401746D01*
X60602573Y33447598D01*
X60602567Y33447599D01*
X60565701Y33450500D01*
X60565694Y33450500D01*
X58334306Y33450500D01*
X58334298Y33450500D01*
X58297432Y33447599D01*
X58297426Y33447598D01*
X58139606Y33401746D01*
X58139603Y33401745D01*
X57998137Y33318083D01*
X57998129Y33318077D01*
X57881923Y33201871D01*
X57881917Y33201863D01*
X57798255Y33060397D01*
X57798254Y33060394D01*
X57752402Y32902574D01*
X57752401Y32902568D01*
X57749500Y32865702D01*
X46600500Y32865702D01*
X46600500Y32923138D01*
X46567246Y33133094D01*
X46501557Y33335263D01*
X46405051Y33524667D01*
X46405049Y33524670D01*
X46405048Y33524672D01*
X46280109Y33696638D01*
X46129786Y33846961D01*
X45957820Y33971900D01*
X45957115Y33972260D01*
X45949054Y33976366D01*
X45898259Y34024339D01*
X45881463Y34092159D01*
X45903999Y34158295D01*
X45949054Y34197336D01*
X45957816Y34201800D01*
X45979789Y34217765D01*
X46129786Y34326742D01*
X46129788Y34326745D01*
X46129792Y34326747D01*
X46280104Y34477059D01*
X46280106Y34477063D01*
X46280109Y34477065D01*
X46405048Y34649031D01*
X46405047Y34649031D01*
X46405051Y34649035D01*
X46501557Y34838439D01*
X46567246Y35040608D01*
X46600500Y35250564D01*
X46600500Y35463138D01*
X46567246Y35673094D01*
X46501557Y35875263D01*
X46405051Y36064667D01*
X46405049Y36064670D01*
X46405048Y36064672D01*
X46280109Y36236638D01*
X46129786Y36386961D01*
X45957819Y36511900D01*
X45957818Y36511901D01*
X45957816Y36511902D01*
X45768412Y36608408D01*
X45566243Y36674097D01*
X45566241Y36674098D01*
X45566240Y36674098D01*
X45404957Y36699643D01*
X45356287Y36707351D01*
X45143713Y36707351D01*
X45095042Y36699643D01*
X44933760Y36674098D01*
X44731585Y36608407D01*
X44542179Y36511900D01*
X44370213Y36386961D01*
X44219890Y36236638D01*
X44094951Y36064672D01*
X43998444Y35875266D01*
X43932753Y35673091D01*
X43899500Y35463138D01*
X-24999500Y35463138D01*
X-24999500Y39605098D01*
X64200000Y39605098D01*
X64200000Y37394908D01*
X64200001Y37394902D01*
X64210078Y37281540D01*
X64263229Y37095784D01*
X64324648Y36978202D01*
X64324649Y36978201D01*
X65142003Y37795556D01*
X65231298Y37672651D01*
X65372651Y37531298D01*
X65495554Y37442004D01*
X64678200Y36624650D01*
X64795784Y36563229D01*
X64981538Y36510080D01*
X64981541Y36510079D01*
X65094903Y36500001D01*
X67305092Y36500001D01*
X67305098Y36500002D01*
X67418460Y36510079D01*
X67604215Y36563229D01*
X67721799Y36624650D01*
X66904445Y37442004D01*
X67027349Y37531298D01*
X67168702Y37672651D01*
X67257996Y37795555D01*
X68075350Y36978201D01*
X68136771Y37095785D01*
X68189920Y37281539D01*
X68189921Y37281542D01*
X68199999Y37394903D01*
X68199999Y39605093D01*
X68199998Y39605099D01*
X68189921Y39718461D01*
X68136771Y39904216D01*
X68075350Y40021800D01*
X67257996Y39204446D01*
X67168702Y39327349D01*
X67027349Y39468702D01*
X66904445Y39557997D01*
X67721799Y40375351D01*
X67721798Y40375352D01*
X67604216Y40436771D01*
X67418461Y40489921D01*
X67418458Y40489922D01*
X67305096Y40500000D01*
X65094907Y40500000D01*
X65094901Y40499999D01*
X64981539Y40489922D01*
X64795779Y40436770D01*
X64795778Y40436770D01*
X64678200Y40375353D01*
X64678199Y40375352D01*
X65495554Y39557997D01*
X65372651Y39468702D01*
X65231298Y39327349D01*
X65142003Y39204446D01*
X64324648Y40021801D01*
X64324647Y40021800D01*
X64263230Y39904222D01*
X64263230Y39904221D01*
X64210079Y39718462D01*
X64210078Y39718459D01*
X64200000Y39605098D01*
X-24999500Y39605098D01*
X-24999500Y58490737D01*
X39034500Y58490737D01*
X39034500Y58301764D01*
X39064059Y58115132D01*
X39122454Y57935414D01*
X39158668Y57864341D01*
X39208240Y57767051D01*
X39319310Y57614177D01*
X39452927Y57480560D01*
X39605801Y57369490D01*
X39685347Y57328960D01*
X39774163Y57283705D01*
X39774165Y57283705D01*
X39774168Y57283703D01*
X39870497Y57252404D01*
X39953881Y57225310D01*
X40140514Y57195750D01*
X40140519Y57195750D01*
X40329486Y57195750D01*
X40516118Y57225310D01*
X40571971Y57243458D01*
X40695832Y57283703D01*
X40864199Y57369490D01*
X41017073Y57480560D01*
X41150690Y57614177D01*
X41261760Y57767051D01*
X41340015Y57920637D01*
X41387989Y57971432D01*
X41455810Y57988227D01*
X41521945Y57965690D01*
X41565397Y57910975D01*
X41574500Y57864341D01*
X41574500Y57591981D01*
X41577353Y57561551D01*
X41577353Y57561549D01*
X41622206Y57433370D01*
X41622207Y57433368D01*
X41702850Y57324100D01*
X41812118Y57243457D01*
X41854845Y57228506D01*
X41940299Y57198604D01*
X41970730Y57195750D01*
X41970734Y57195750D01*
X43579270Y57195750D01*
X43609699Y57198604D01*
X43609701Y57198604D01*
X43673790Y57221031D01*
X43737882Y57243457D01*
X43847150Y57324100D01*
X43927793Y57433368D01*
X43950219Y57497460D01*
X43972646Y57561549D01*
X43972646Y57561551D01*
X43975500Y57591981D01*
X43975500Y59200520D01*
X43972646Y59230950D01*
X43972646Y59230952D01*
X43927793Y59359131D01*
X43927792Y59359133D01*
X43847150Y59468400D01*
X43737882Y59549043D01*
X43737880Y59549044D01*
X43609700Y59593897D01*
X43579270Y59596750D01*
X43579266Y59596750D01*
X41970734Y59596750D01*
X41970730Y59596750D01*
X41940300Y59593897D01*
X41940298Y59593897D01*
X41812119Y59549044D01*
X41812117Y59549043D01*
X41702850Y59468400D01*
X41622207Y59359133D01*
X41622206Y59359131D01*
X41577353Y59230952D01*
X41577353Y59230950D01*
X41574500Y59200520D01*
X41574500Y58928160D01*
X41554815Y58861121D01*
X41502011Y58815366D01*
X41432853Y58805422D01*
X41369297Y58834447D01*
X41340015Y58871865D01*
X41274729Y58999995D01*
X41261760Y59025449D01*
X41150690Y59178323D01*
X41017073Y59311940D01*
X40864199Y59423010D01*
X40695836Y59508796D01*
X40516118Y59567191D01*
X40329486Y59596750D01*
X40329481Y59596750D01*
X40140519Y59596750D01*
X40140514Y59596750D01*
X39953881Y59567191D01*
X39774163Y59508796D01*
X39605800Y59423010D01*
X39518579Y59359640D01*
X39452927Y59311940D01*
X39452925Y59311938D01*
X39452924Y59311938D01*
X39319312Y59178326D01*
X39319312Y59178325D01*
X39319310Y59178323D01*
X39271610Y59112671D01*
X39208240Y59025450D01*
X39122454Y58857087D01*
X39064059Y58677369D01*
X39034500Y58490737D01*
X-24999500Y58490737D01*
X-24999500Y58997289D01*
X-24999382Y59002697D01*
X-24997325Y59049820D01*
X-24981663Y59408556D01*
X-24980724Y59419286D01*
X-24928052Y59819374D01*
X-24926178Y59830004D01*
X-24838833Y60223989D01*
X-24836040Y60234410D01*
X-24714693Y60619275D01*
X-24711007Y60629403D01*
X-24556573Y61002238D01*
X-24552015Y61012012D01*
X-24365684Y61369951D01*
X-24360289Y61379296D01*
X-24143462Y61719647D01*
X-24137272Y61728486D01*
X-23891614Y62048634D01*
X-23884672Y62056906D01*
X-23612049Y62354423D01*
X-23604423Y62362049D01*
X-23306903Y62634676D01*
X-23298634Y62641614D01*
X-22978486Y62887272D01*
X-22969647Y62893462D01*
X-22629296Y63110289D01*
X-22619951Y63115684D01*
X-22262012Y63302015D01*
X-22252238Y63306573D01*
X-21879403Y63461007D01*
X-21869275Y63464693D01*
X-21484410Y63586040D01*
X-21473989Y63588833D01*
X-21080004Y63676178D01*
X-21069374Y63678052D01*
X-20669286Y63730724D01*
X-20658556Y63731663D01*
X-20264910Y63748849D01*
X-20252694Y63749382D01*
X-20247286Y63749500D01*
X-20205822Y63749500D01*
X72205830Y63749500D01*
X72247294Y63749500D01*
X72252702Y63749382D01*
G37*
%TD.AperFunction*%
%TD*%
M02*
