%TF.GenerationSoftware,KiCad,Pcbnew,9.0.8-9.0.8~ubuntu24.04.1*%
%TF.CreationDate,2026-07-10T17:31:19+02:00*%
%TF.ProjectId,palroc_one_pcb,70616c72-6f63-45f6-9f6e-655f7063622e,rev?*%
%TF.SameCoordinates,Original*%
%TF.FileFunction,Legend,Bot*%
%TF.FilePolarity,Positive*%
%FSLAX46Y46*%
G04 Gerber Fmt 4.6, Leading zero omitted, Abs format (unit mm)*
G04 Created by KiCad (PCBNEW 9.0.8-9.0.8~ubuntu24.04.1) date 2026-07-10 17:31:19*
%MOMM*%
%LPD*%
G01*
G04 APERTURE LIST*
G04 Aperture macros list*
%AMRoundRect*
0 Rectangle with rounded corners*
0 $1 Rounding radius*
0 $2 $3 $4 $5 $6 $7 $8 $9 X,Y pos of 4 corners*
0 Add a 4 corners polygon primitive as box body*
4,1,4,$2,$3,$4,$5,$6,$7,$8,$9,$2,$3,0*
0 Add four circle primitives for the rounded corners*
1,1,$1+$1,$2,$3*
1,1,$1+$1,$4,$5*
1,1,$1+$1,$6,$7*
1,1,$1+$1,$8,$9*
0 Add four rect primitives between the rounded corners*
20,1,$1+$1,$2,$3,$4,$5,0*
20,1,$1+$1,$4,$5,$6,$7,0*
20,1,$1+$1,$6,$7,$8,$9,0*
20,1,$1+$1,$8,$9,$2,$3,0*%
G04 Aperture macros list end*
%ADD10C,0.150000*%
%ADD11C,0.120000*%
%ADD12C,3.900000*%
%ADD13RoundRect,0.262500X0.787500X0.787500X-0.787500X0.787500X-0.787500X-0.787500X0.787500X-0.787500X0*%
%ADD14C,2.100000*%
%ADD15C,2.474900*%
%ADD16C,1.090600*%
%ADD17O,2.400000X2.400000*%
%ADD18C,0.700000*%
%ADD19O,1.400000X2.400000*%
%ADD20O,1.400000X2.200000*%
%ADD21C,0.600000*%
%ADD22RoundRect,0.465000X1.085000X-1.085000X1.085000X1.085000X-1.085000X1.085000X-1.085000X-1.085000X0*%
%ADD23C,1.100000*%
G04 APERTURE END LIST*
D10*
X7136711Y31761905D02*
X7136711Y31190477D01*
X8136711Y31476191D02*
X7136711Y31476191D01*
X8136711Y30857143D02*
X7136711Y30857143D01*
X7136711Y30857143D02*
X7136711Y30476191D01*
X7136711Y30476191D02*
X7184330Y30380953D01*
X7184330Y30380953D02*
X7231949Y30333334D01*
X7231949Y30333334D02*
X7327187Y30285715D01*
X7327187Y30285715D02*
X7470044Y30285715D01*
X7470044Y30285715D02*
X7565282Y30333334D01*
X7565282Y30333334D02*
X7612901Y30380953D01*
X7612901Y30380953D02*
X7660520Y30476191D01*
X7660520Y30476191D02*
X7660520Y30857143D01*
X7565282Y29714286D02*
X7517663Y29809524D01*
X7517663Y29809524D02*
X7470044Y29857143D01*
X7470044Y29857143D02*
X7374806Y29904762D01*
X7374806Y29904762D02*
X7327187Y29904762D01*
X7327187Y29904762D02*
X7231949Y29857143D01*
X7231949Y29857143D02*
X7184330Y29809524D01*
X7184330Y29809524D02*
X7136711Y29714286D01*
X7136711Y29714286D02*
X7136711Y29523810D01*
X7136711Y29523810D02*
X7184330Y29428572D01*
X7184330Y29428572D02*
X7231949Y29380953D01*
X7231949Y29380953D02*
X7327187Y29333334D01*
X7327187Y29333334D02*
X7374806Y29333334D01*
X7374806Y29333334D02*
X7470044Y29380953D01*
X7470044Y29380953D02*
X7517663Y29428572D01*
X7517663Y29428572D02*
X7565282Y29523810D01*
X7565282Y29523810D02*
X7565282Y29714286D01*
X7565282Y29714286D02*
X7612901Y29809524D01*
X7612901Y29809524D02*
X7660520Y29857143D01*
X7660520Y29857143D02*
X7755758Y29904762D01*
X7755758Y29904762D02*
X7946234Y29904762D01*
X7946234Y29904762D02*
X8041472Y29857143D01*
X8041472Y29857143D02*
X8089092Y29809524D01*
X8089092Y29809524D02*
X8136711Y29714286D01*
X8136711Y29714286D02*
X8136711Y29523810D01*
X8136711Y29523810D02*
X8089092Y29428572D01*
X8089092Y29428572D02*
X8041472Y29380953D01*
X8041472Y29380953D02*
X7946234Y29333334D01*
X7946234Y29333334D02*
X7755758Y29333334D01*
X7755758Y29333334D02*
X7660520Y29380953D01*
X7660520Y29380953D02*
X7612901Y29428572D01*
X7612901Y29428572D02*
X7565282Y29523810D01*
X4086711Y35288095D02*
X4086711Y34716667D01*
X5086711Y35002381D02*
X4086711Y35002381D01*
X5086711Y34383333D02*
X4086711Y34383333D01*
X4086711Y34383333D02*
X4086711Y34002381D01*
X4086711Y34002381D02*
X4134330Y33907143D01*
X4134330Y33907143D02*
X4181949Y33859524D01*
X4181949Y33859524D02*
X4277187Y33811905D01*
X4277187Y33811905D02*
X4420044Y33811905D01*
X4420044Y33811905D02*
X4515282Y33859524D01*
X4515282Y33859524D02*
X4562901Y33907143D01*
X4562901Y33907143D02*
X4610520Y34002381D01*
X4610520Y34002381D02*
X4610520Y34383333D01*
X5086711Y32859524D02*
X5086711Y33430952D01*
X5086711Y33145238D02*
X4086711Y33145238D01*
X4086711Y33145238D02*
X4229568Y33240476D01*
X4229568Y33240476D02*
X4324806Y33335714D01*
X4324806Y33335714D02*
X4372425Y33430952D01*
X4181949Y32478571D02*
X4134330Y32430952D01*
X4134330Y32430952D02*
X4086711Y32335714D01*
X4086711Y32335714D02*
X4086711Y32097619D01*
X4086711Y32097619D02*
X4134330Y32002381D01*
X4134330Y32002381D02*
X4181949Y31954762D01*
X4181949Y31954762D02*
X4277187Y31907143D01*
X4277187Y31907143D02*
X4372425Y31907143D01*
X4372425Y31907143D02*
X4515282Y31954762D01*
X4515282Y31954762D02*
X5086711Y32526190D01*
X5086711Y32526190D02*
X5086711Y31907143D01*
X4086711Y31761905D02*
X4086711Y31190477D01*
X5086711Y31476191D02*
X4086711Y31476191D01*
X5086711Y30857143D02*
X4086711Y30857143D01*
X4086711Y30857143D02*
X4086711Y30476191D01*
X4086711Y30476191D02*
X4134330Y30380953D01*
X4134330Y30380953D02*
X4181949Y30333334D01*
X4181949Y30333334D02*
X4277187Y30285715D01*
X4277187Y30285715D02*
X4420044Y30285715D01*
X4420044Y30285715D02*
X4515282Y30333334D01*
X4515282Y30333334D02*
X4562901Y30380953D01*
X4562901Y30380953D02*
X4610520Y30476191D01*
X4610520Y30476191D02*
X4610520Y30857143D01*
X5086711Y29809524D02*
X5086711Y29619048D01*
X5086711Y29619048D02*
X5039092Y29523810D01*
X5039092Y29523810D02*
X4991472Y29476191D01*
X4991472Y29476191D02*
X4848615Y29380953D01*
X4848615Y29380953D02*
X4658139Y29333334D01*
X4658139Y29333334D02*
X4277187Y29333334D01*
X4277187Y29333334D02*
X4181949Y29380953D01*
X4181949Y29380953D02*
X4134330Y29428572D01*
X4134330Y29428572D02*
X4086711Y29523810D01*
X4086711Y29523810D02*
X4086711Y29714286D01*
X4086711Y29714286D02*
X4134330Y29809524D01*
X4134330Y29809524D02*
X4181949Y29857143D01*
X4181949Y29857143D02*
X4277187Y29904762D01*
X4277187Y29904762D02*
X4515282Y29904762D01*
X4515282Y29904762D02*
X4610520Y29857143D01*
X4610520Y29857143D02*
X4658139Y29809524D01*
X4658139Y29809524D02*
X4705758Y29714286D01*
X4705758Y29714286D02*
X4705758Y29523810D01*
X4705758Y29523810D02*
X4658139Y29428572D01*
X4658139Y29428572D02*
X4610520Y29380953D01*
X4610520Y29380953D02*
X4515282Y29333334D01*
X7136711Y28711905D02*
X7136711Y28140477D01*
X8136711Y28426191D02*
X7136711Y28426191D01*
X8136711Y27807143D02*
X7136711Y27807143D01*
X7136711Y27807143D02*
X7136711Y27426191D01*
X7136711Y27426191D02*
X7184330Y27330953D01*
X7184330Y27330953D02*
X7231949Y27283334D01*
X7231949Y27283334D02*
X7327187Y27235715D01*
X7327187Y27235715D02*
X7470044Y27235715D01*
X7470044Y27235715D02*
X7565282Y27283334D01*
X7565282Y27283334D02*
X7612901Y27330953D01*
X7612901Y27330953D02*
X7660520Y27426191D01*
X7660520Y27426191D02*
X7660520Y27807143D01*
X7136711Y26330953D02*
X7136711Y26807143D01*
X7136711Y26807143D02*
X7612901Y26854762D01*
X7612901Y26854762D02*
X7565282Y26807143D01*
X7565282Y26807143D02*
X7517663Y26711905D01*
X7517663Y26711905D02*
X7517663Y26473810D01*
X7517663Y26473810D02*
X7565282Y26378572D01*
X7565282Y26378572D02*
X7612901Y26330953D01*
X7612901Y26330953D02*
X7708139Y26283334D01*
X7708139Y26283334D02*
X7946234Y26283334D01*
X7946234Y26283334D02*
X8041472Y26330953D01*
X8041472Y26330953D02*
X8089092Y26378572D01*
X8089092Y26378572D02*
X8136711Y26473810D01*
X8136711Y26473810D02*
X8136711Y26711905D01*
X8136711Y26711905D02*
X8089092Y26807143D01*
X8089092Y26807143D02*
X8041472Y26854762D01*
X1036711Y28711905D02*
X1036711Y28140477D01*
X2036711Y28426191D02*
X1036711Y28426191D01*
X2036711Y27807143D02*
X1036711Y27807143D01*
X1036711Y27807143D02*
X1036711Y27426191D01*
X1036711Y27426191D02*
X1084330Y27330953D01*
X1084330Y27330953D02*
X1131949Y27283334D01*
X1131949Y27283334D02*
X1227187Y27235715D01*
X1227187Y27235715D02*
X1370044Y27235715D01*
X1370044Y27235715D02*
X1465282Y27283334D01*
X1465282Y27283334D02*
X1512901Y27330953D01*
X1512901Y27330953D02*
X1560520Y27426191D01*
X1560520Y27426191D02*
X1560520Y27807143D01*
X1036711Y26902381D02*
X1036711Y26235715D01*
X1036711Y26235715D02*
X2036711Y26664286D01*
X-4554204Y30097181D02*
X-5125632Y30097181D01*
X-4839918Y29097181D02*
X-4839918Y30097181D01*
X-5458966Y29097181D02*
X-5458966Y30097181D01*
X-5458966Y30097181D02*
X-5839918Y30097181D01*
X-5839918Y30097181D02*
X-5935156Y30049562D01*
X-5935156Y30049562D02*
X-5982775Y30001943D01*
X-5982775Y30001943D02*
X-6030394Y29906705D01*
X-6030394Y29906705D02*
X-6030394Y29763848D01*
X-6030394Y29763848D02*
X-5982775Y29668610D01*
X-5982775Y29668610D02*
X-5935156Y29620991D01*
X-5935156Y29620991D02*
X-5839918Y29573372D01*
X-5839918Y29573372D02*
X-5458966Y29573372D01*
X-6982775Y29097181D02*
X-6411347Y29097181D01*
X-6697061Y29097181D02*
X-6697061Y30097181D01*
X-6697061Y30097181D02*
X-6601823Y29954324D01*
X-6601823Y29954324D02*
X-6506585Y29859086D01*
X-6506585Y29859086D02*
X-6411347Y29811467D01*
X1036711Y32238095D02*
X1036711Y31666667D01*
X2036711Y31952381D02*
X1036711Y31952381D01*
X2036711Y31333333D02*
X1036711Y31333333D01*
X1036711Y31333333D02*
X1036711Y30952381D01*
X1036711Y30952381D02*
X1084330Y30857143D01*
X1084330Y30857143D02*
X1131949Y30809524D01*
X1131949Y30809524D02*
X1227187Y30761905D01*
X1227187Y30761905D02*
X1370044Y30761905D01*
X1370044Y30761905D02*
X1465282Y30809524D01*
X1465282Y30809524D02*
X1512901Y30857143D01*
X1512901Y30857143D02*
X1560520Y30952381D01*
X1560520Y30952381D02*
X1560520Y31333333D01*
X2036711Y29809524D02*
X2036711Y30380952D01*
X2036711Y30095238D02*
X1036711Y30095238D01*
X1036711Y30095238D02*
X1179568Y30190476D01*
X1179568Y30190476D02*
X1274806Y30285714D01*
X1274806Y30285714D02*
X1322425Y30380952D01*
X1036711Y29190476D02*
X1036711Y29095238D01*
X1036711Y29095238D02*
X1084330Y29000000D01*
X1084330Y29000000D02*
X1131949Y28952381D01*
X1131949Y28952381D02*
X1227187Y28904762D01*
X1227187Y28904762D02*
X1417663Y28857143D01*
X1417663Y28857143D02*
X1655758Y28857143D01*
X1655758Y28857143D02*
X1846234Y28904762D01*
X1846234Y28904762D02*
X1941472Y28952381D01*
X1941472Y28952381D02*
X1989092Y29000000D01*
X1989092Y29000000D02*
X2036711Y29095238D01*
X2036711Y29095238D02*
X2036711Y29190476D01*
X2036711Y29190476D02*
X1989092Y29285714D01*
X1989092Y29285714D02*
X1941472Y29333333D01*
X1941472Y29333333D02*
X1846234Y29380952D01*
X1846234Y29380952D02*
X1655758Y29428571D01*
X1655758Y29428571D02*
X1417663Y29428571D01*
X1417663Y29428571D02*
X1227187Y29380952D01*
X1227187Y29380952D02*
X1131949Y29333333D01*
X1131949Y29333333D02*
X1084330Y29285714D01*
X1084330Y29285714D02*
X1036711Y29190476D01*
X4086711Y25661905D02*
X4086711Y25090477D01*
X5086711Y25376191D02*
X4086711Y25376191D01*
X5086711Y24757143D02*
X4086711Y24757143D01*
X4086711Y24757143D02*
X4086711Y24376191D01*
X4086711Y24376191D02*
X4134330Y24280953D01*
X4134330Y24280953D02*
X4181949Y24233334D01*
X4181949Y24233334D02*
X4277187Y24185715D01*
X4277187Y24185715D02*
X4420044Y24185715D01*
X4420044Y24185715D02*
X4515282Y24233334D01*
X4515282Y24233334D02*
X4562901Y24280953D01*
X4562901Y24280953D02*
X4610520Y24376191D01*
X4610520Y24376191D02*
X4610520Y24757143D01*
X4086711Y23852381D02*
X4086711Y23233334D01*
X4086711Y23233334D02*
X4467663Y23566667D01*
X4467663Y23566667D02*
X4467663Y23423810D01*
X4467663Y23423810D02*
X4515282Y23328572D01*
X4515282Y23328572D02*
X4562901Y23280953D01*
X4562901Y23280953D02*
X4658139Y23233334D01*
X4658139Y23233334D02*
X4896234Y23233334D01*
X4896234Y23233334D02*
X4991472Y23280953D01*
X4991472Y23280953D02*
X5039092Y23328572D01*
X5039092Y23328572D02*
X5086711Y23423810D01*
X5086711Y23423810D02*
X5086711Y23709524D01*
X5086711Y23709524D02*
X5039092Y23804762D01*
X5039092Y23804762D02*
X4991472Y23852381D01*
X4086711Y28711905D02*
X4086711Y28140477D01*
X5086711Y28426191D02*
X4086711Y28426191D01*
X5086711Y27807143D02*
X4086711Y27807143D01*
X4086711Y27807143D02*
X4086711Y27426191D01*
X4086711Y27426191D02*
X4134330Y27330953D01*
X4134330Y27330953D02*
X4181949Y27283334D01*
X4181949Y27283334D02*
X4277187Y27235715D01*
X4277187Y27235715D02*
X4420044Y27235715D01*
X4420044Y27235715D02*
X4515282Y27283334D01*
X4515282Y27283334D02*
X4562901Y27330953D01*
X4562901Y27330953D02*
X4610520Y27426191D01*
X4610520Y27426191D02*
X4610520Y27807143D01*
X4086711Y26378572D02*
X4086711Y26569048D01*
X4086711Y26569048D02*
X4134330Y26664286D01*
X4134330Y26664286D02*
X4181949Y26711905D01*
X4181949Y26711905D02*
X4324806Y26807143D01*
X4324806Y26807143D02*
X4515282Y26854762D01*
X4515282Y26854762D02*
X4896234Y26854762D01*
X4896234Y26854762D02*
X4991472Y26807143D01*
X4991472Y26807143D02*
X5039092Y26759524D01*
X5039092Y26759524D02*
X5086711Y26664286D01*
X5086711Y26664286D02*
X5086711Y26473810D01*
X5086711Y26473810D02*
X5039092Y26378572D01*
X5039092Y26378572D02*
X4991472Y26330953D01*
X4991472Y26330953D02*
X4896234Y26283334D01*
X4896234Y26283334D02*
X4658139Y26283334D01*
X4658139Y26283334D02*
X4562901Y26330953D01*
X4562901Y26330953D02*
X4515282Y26378572D01*
X4515282Y26378572D02*
X4467663Y26473810D01*
X4467663Y26473810D02*
X4467663Y26664286D01*
X4467663Y26664286D02*
X4515282Y26759524D01*
X4515282Y26759524D02*
X4562901Y26807143D01*
X4562901Y26807143D02*
X4658139Y26854762D01*
X7136711Y25661905D02*
X7136711Y25090477D01*
X8136711Y25376191D02*
X7136711Y25376191D01*
X8136711Y24757143D02*
X7136711Y24757143D01*
X7136711Y24757143D02*
X7136711Y24376191D01*
X7136711Y24376191D02*
X7184330Y24280953D01*
X7184330Y24280953D02*
X7231949Y24233334D01*
X7231949Y24233334D02*
X7327187Y24185715D01*
X7327187Y24185715D02*
X7470044Y24185715D01*
X7470044Y24185715D02*
X7565282Y24233334D01*
X7565282Y24233334D02*
X7612901Y24280953D01*
X7612901Y24280953D02*
X7660520Y24376191D01*
X7660520Y24376191D02*
X7660520Y24757143D01*
X7231949Y23804762D02*
X7184330Y23757143D01*
X7184330Y23757143D02*
X7136711Y23661905D01*
X7136711Y23661905D02*
X7136711Y23423810D01*
X7136711Y23423810D02*
X7184330Y23328572D01*
X7184330Y23328572D02*
X7231949Y23280953D01*
X7231949Y23280953D02*
X7327187Y23233334D01*
X7327187Y23233334D02*
X7422425Y23233334D01*
X7422425Y23233334D02*
X7565282Y23280953D01*
X7565282Y23280953D02*
X8136711Y23852381D01*
X8136711Y23852381D02*
X8136711Y23233334D01*
X7136711Y35288095D02*
X7136711Y34716667D01*
X8136711Y35002381D02*
X7136711Y35002381D01*
X8136711Y34383333D02*
X7136711Y34383333D01*
X7136711Y34383333D02*
X7136711Y34002381D01*
X7136711Y34002381D02*
X7184330Y33907143D01*
X7184330Y33907143D02*
X7231949Y33859524D01*
X7231949Y33859524D02*
X7327187Y33811905D01*
X7327187Y33811905D02*
X7470044Y33811905D01*
X7470044Y33811905D02*
X7565282Y33859524D01*
X7565282Y33859524D02*
X7612901Y33907143D01*
X7612901Y33907143D02*
X7660520Y34002381D01*
X7660520Y34002381D02*
X7660520Y34383333D01*
X8136711Y32859524D02*
X8136711Y33430952D01*
X8136711Y33145238D02*
X7136711Y33145238D01*
X7136711Y33145238D02*
X7279568Y33240476D01*
X7279568Y33240476D02*
X7374806Y33335714D01*
X7374806Y33335714D02*
X7422425Y33430952D01*
X8136711Y31907143D02*
X8136711Y32478571D01*
X8136711Y32192857D02*
X7136711Y32192857D01*
X7136711Y32192857D02*
X7279568Y32288095D01*
X7279568Y32288095D02*
X7374806Y32383333D01*
X7374806Y32383333D02*
X7422425Y32478571D01*
X1036711Y25661905D02*
X1036711Y25090477D01*
X2036711Y25376191D02*
X1036711Y25376191D01*
X2036711Y24757143D02*
X1036711Y24757143D01*
X1036711Y24757143D02*
X1036711Y24376191D01*
X1036711Y24376191D02*
X1084330Y24280953D01*
X1084330Y24280953D02*
X1131949Y24233334D01*
X1131949Y24233334D02*
X1227187Y24185715D01*
X1227187Y24185715D02*
X1370044Y24185715D01*
X1370044Y24185715D02*
X1465282Y24233334D01*
X1465282Y24233334D02*
X1512901Y24280953D01*
X1512901Y24280953D02*
X1560520Y24376191D01*
X1560520Y24376191D02*
X1560520Y24757143D01*
X1370044Y23328572D02*
X2036711Y23328572D01*
X989092Y23566667D02*
X1703377Y23804762D01*
X1703377Y23804762D02*
X1703377Y23185715D01*
X1036711Y35288095D02*
X1036711Y34716667D01*
X2036711Y35002381D02*
X1036711Y35002381D01*
X2036711Y34383333D02*
X1036711Y34383333D01*
X1036711Y34383333D02*
X1036711Y34002381D01*
X1036711Y34002381D02*
X1084330Y33907143D01*
X1084330Y33907143D02*
X1131949Y33859524D01*
X1131949Y33859524D02*
X1227187Y33811905D01*
X1227187Y33811905D02*
X1370044Y33811905D01*
X1370044Y33811905D02*
X1465282Y33859524D01*
X1465282Y33859524D02*
X1512901Y33907143D01*
X1512901Y33907143D02*
X1560520Y34002381D01*
X1560520Y34002381D02*
X1560520Y34383333D01*
X2036711Y32859524D02*
X2036711Y33430952D01*
X2036711Y33145238D02*
X1036711Y33145238D01*
X1036711Y33145238D02*
X1179568Y33240476D01*
X1179568Y33240476D02*
X1274806Y33335714D01*
X1274806Y33335714D02*
X1322425Y33430952D01*
X1036711Y32526190D02*
X1036711Y31907143D01*
X1036711Y31907143D02*
X1417663Y32240476D01*
X1417663Y32240476D02*
X1417663Y32097619D01*
X1417663Y32097619D02*
X1465282Y32002381D01*
X1465282Y32002381D02*
X1512901Y31954762D01*
X1512901Y31954762D02*
X1608139Y31907143D01*
X1608139Y31907143D02*
X1846234Y31907143D01*
X1846234Y31907143D02*
X1941472Y31954762D01*
X1941472Y31954762D02*
X1989092Y32002381D01*
X1989092Y32002381D02*
X2036711Y32097619D01*
X2036711Y32097619D02*
X2036711Y32383333D01*
X2036711Y32383333D02*
X1989092Y32478571D01*
X1989092Y32478571D02*
X1941472Y32526190D01*
D11*
%TO.C,TP8*%
X6933892Y30500000D02*
G75*
G02*
X5533892Y30500000I-700000J0D01*
G01*
X5533892Y30500000D02*
G75*
G02*
X6933892Y30500000I700000J0D01*
G01*
%TO.C,TP12*%
X3883892Y33550000D02*
G75*
G02*
X2483892Y33550000I-700000J0D01*
G01*
X2483892Y33550000D02*
G75*
G02*
X3883892Y33550000I700000J0D01*
G01*
%TO.C,TP9*%
X3883892Y30500000D02*
G75*
G02*
X2483892Y30500000I-700000J0D01*
G01*
X2483892Y30500000D02*
G75*
G02*
X3883892Y30500000I700000J0D01*
G01*
%TO.C,TP5*%
X6933892Y27450000D02*
G75*
G02*
X5533892Y27450000I-700000J0D01*
G01*
X5533892Y27450000D02*
G75*
G02*
X6933892Y27450000I700000J0D01*
G01*
%TO.C,TP7*%
X833892Y27450000D02*
G75*
G02*
X-566108Y27450000I-700000J0D01*
G01*
X-566108Y27450000D02*
G75*
G02*
X833892Y27450000I700000J0D01*
G01*
%TO.C,TP1*%
X-5116108Y31000000D02*
G75*
G02*
X-6516108Y31000000I-700000J0D01*
G01*
X-6516108Y31000000D02*
G75*
G02*
X-5116108Y31000000I700000J0D01*
G01*
%TO.C,TP10*%
X833892Y30500000D02*
G75*
G02*
X-566108Y30500000I-700000J0D01*
G01*
X-566108Y30500000D02*
G75*
G02*
X833892Y30500000I700000J0D01*
G01*
%TO.C,TP3*%
X3883892Y24400000D02*
G75*
G02*
X2483892Y24400000I-700000J0D01*
G01*
X2483892Y24400000D02*
G75*
G02*
X3883892Y24400000I700000J0D01*
G01*
%TO.C,TP6*%
X3883892Y27450000D02*
G75*
G02*
X2483892Y27450000I-700000J0D01*
G01*
X2483892Y27450000D02*
G75*
G02*
X3883892Y27450000I700000J0D01*
G01*
%TO.C,TP2*%
X6933892Y24400000D02*
G75*
G02*
X5533892Y24400000I-700000J0D01*
G01*
X5533892Y24400000D02*
G75*
G02*
X6933892Y24400000I700000J0D01*
G01*
%TO.C,TP11*%
X6933892Y33550000D02*
G75*
G02*
X5533892Y33550000I-700000J0D01*
G01*
X5533892Y33550000D02*
G75*
G02*
X6933892Y33550000I700000J0D01*
G01*
%TO.C,TP4*%
X833892Y24400000D02*
G75*
G02*
X-566108Y24400000I-700000J0D01*
G01*
X-566108Y24400000D02*
G75*
G02*
X833892Y24400000I700000J0D01*
G01*
%TO.C,TP13*%
X833892Y33550000D02*
G75*
G02*
X-566108Y33550000I-700000J0D01*
G01*
X-566108Y33550000D02*
G75*
G02*
X833892Y33550000I700000J0D01*
G01*
%TD*%
%LPC*%
D12*
%TO.C,H1*%
X72250000Y59000000D03*
%TD*%
D13*
%TO.C,J2*%
X42775000Y58396250D03*
D14*
X40235000Y58396250D03*
%TD*%
D15*
%TO.C,TC2*%
X50230000Y2655000D03*
D16*
X50230000Y115000D03*
D15*
X50230000Y-2425000D03*
X53405000Y2655000D03*
X53405000Y-2425000D03*
D16*
X55310000Y1131000D03*
X55310000Y-901000D03*
%TD*%
D17*
%TO.C,J1*%
X45250000Y27736851D03*
X45250000Y30276851D03*
X45250000Y32816851D03*
X45250000Y35356851D03*
%TD*%
D12*
%TO.C,H2*%
X-20250000Y-21000000D03*
%TD*%
D18*
%TO.C,J3*%
X28110000Y-19816250D03*
X33890000Y-19816250D03*
D19*
X26670000Y-19296250D03*
D20*
X26670000Y-23496250D03*
D21*
X29000000Y-22116250D03*
X29000000Y-24116250D03*
X33000000Y-22116250D03*
X33000000Y-24116250D03*
D19*
X35330000Y-19296250D03*
D20*
X35330000Y-23496250D03*
%TD*%
D12*
%TO.C,H3*%
X-20250000Y59000000D03*
%TD*%
D22*
%TO.C,J4*%
X66200000Y25000000D03*
X59450000Y31750000D03*
X66200000Y38500000D03*
%TD*%
D23*
%TO.C,TP8*%
X6233892Y30500000D03*
%TD*%
%TO.C,TP12*%
X3183892Y33550000D03*
%TD*%
%TO.C,TP9*%
X3183892Y30500000D03*
%TD*%
%TO.C,TP5*%
X6233892Y27450000D03*
%TD*%
%TO.C,TP7*%
X133892Y27450000D03*
%TD*%
%TO.C,TP1*%
X-5816108Y31000000D03*
%TD*%
%TO.C,TP10*%
X133892Y30500000D03*
%TD*%
%TO.C,TP3*%
X3183892Y24400000D03*
%TD*%
%TO.C,TP6*%
X3183892Y27450000D03*
%TD*%
%TO.C,TP2*%
X6233892Y24400000D03*
%TD*%
%TO.C,TP11*%
X6233892Y33550000D03*
%TD*%
%TO.C,TP4*%
X133892Y24400000D03*
%TD*%
%TO.C,TP13*%
X133892Y33550000D03*
%TD*%
%LPD*%
M02*
