%TF.GenerationSoftware,KiCad,Pcbnew,9.0.8-9.0.8~ubuntu24.04.1*%
%TF.CreationDate,Date%
%TF.ProjectId,palroc_one_pcb,70616c72-6f63-45f6-9f6e-655f7063622e,rev?*%
%TF.SameCoordinates,Original*%
%TF.FileFunction,Copper,L1,Top*%
%TF.FilePolarity,Positive*%
%FSLAX46Y46*%
G04 Gerber Fmt 4.6, Leading zero omitted, Abs format (unit mm)*
G04 Created by KiCad*
%MOMM*%
%LPD*%
G01*
G04 APERTURE LIST*
G04 Aperture macros list*
%AMRoundRect*
0 Rectangle with rounded corners*
0 $1 Rounding radius*
0 $2 $3 $4 $5 $6 $7 $8 $9 X,Y pos of 4 corners*
0 Add a 4 corners polygon primitive as box body*
4,1,4,$2,$3,$4,$5,$6,$7,$8,$9,$2,$3,0*
0 Add four circle primitives for the rounded corners*
1,1,$1+$1,$2,$3*
1,1,$1+$1,$4,$5*
1,1,$1+$1,$6,$7*
1,1,$1+$1,$8,$9*
0 Add four rect primitives between the rounded corners*
20,1,$1+$1,$2,$3,$4,$5,0*
20,1,$1+$1,$4,$5,$6,$7,0*
20,1,$1+$1,$6,$7,$8,$9,0*
20,1,$1+$1,$8,$9,$2,$3,0*%
%AMFreePoly0*
4,1,23,0.500000,-0.750000,0.000000,-0.750000,0.000000,-0.745722,-0.065263,-0.745722,-0.191342,-0.711940,-0.304381,-0.646677,-0.396677,-0.554381,-0.461940,-0.441342,-0.495722,-0.315263,-0.495722,-0.250000,-0.500000,-0.250000,-0.500000,0.250000,-0.495722,0.250000,-0.495722,0.315263,-0.461940,0.441342,-0.396677,0.554381,-0.304381,0.646677,-0.191342,0.711940,-0.065263,0.745722,0.000000,0.745722,
0.000000,0.750000,0.500000,0.750000,0.500000,-0.750000,0.500000,-0.750000,$1*%
%AMFreePoly1*
4,1,23,0.000000,0.745722,0.065263,0.745722,0.191342,0.711940,0.304381,0.646677,0.396677,0.554381,0.461940,0.441342,0.495722,0.315263,0.495722,0.250000,0.500000,0.250000,0.500000,-0.250000,0.495722,-0.250000,0.495722,-0.315263,0.461940,-0.441342,0.396677,-0.554381,0.304381,-0.646677,0.191342,-0.711940,0.065263,-0.745722,0.000000,-0.745722,0.000000,-0.750000,-0.500000,-0.750000,
-0.500000,0.750000,0.000000,0.750000,0.000000,0.745722,0.000000,0.745722,$1*%
G04 Aperture macros list end*
%TA.AperFunction,Conductor*%
%ADD10C,0.200000*%
%TD*%
%TA.AperFunction,SMDPad,CuDef*%
%ADD11R,0.500000X0.600000*%
%TD*%
%TA.AperFunction,SMDPad,CuDef*%
%ADD12R,1.500000X2.200000*%
%TD*%
%TA.AperFunction,SMDPad,CuDef*%
%ADD13R,0.550000X0.600000*%
%TD*%
%TA.AperFunction,SMDPad,CuDef*%
%ADD14R,0.600000X0.500000*%
%TD*%
%TA.AperFunction,SMDPad,CuDef*%
%ADD15R,0.800000X0.750000*%
%TD*%
%TA.AperFunction,SMDPad,CuDef*%
%ADD16R,0.700000X1.500000*%
%TD*%
%TA.AperFunction,SMDPad,CuDef*%
%ADD17C,0.650000*%
%TD*%
%TA.AperFunction,SMDPad,CuDef*%
%ADD18O,0.850010X0.300000*%
%TD*%
%TA.AperFunction,SMDPad,CuDef*%
%ADD19O,0.300000X0.850010*%
%TD*%
%TA.AperFunction,SMDPad,CuDef*%
%ADD20R,3.500000X3.500000*%
%TD*%
%TA.AperFunction,ComponentPad*%
%ADD21C,3.800000*%
%TD*%
%TA.AperFunction,SMDPad,CuDef*%
%ADD22RoundRect,0.250000X-0.425000X-0.650000X0.425000X-0.650000X0.425000X0.650000X-0.425000X0.650000X0*%
%TD*%
%TA.AperFunction,SMDPad,CuDef*%
%ADD23R,1.380000X1.130000*%
%TD*%
%TA.AperFunction,SMDPad,CuDef*%
%ADD24R,0.500000X0.300000*%
%TD*%
%TA.AperFunction,SMDPad,CuDef*%
%ADD25R,1.130000X1.380000*%
%TD*%
%TA.AperFunction,SMDPad,CuDef*%
%ADD26R,0.600000X0.550000*%
%TD*%
%TA.AperFunction,SMDPad,CuDef*%
%ADD27R,0.250000X0.600000*%
%TD*%
%TA.AperFunction,SMDPad,CuDef*%
%ADD28R,0.600000X0.250000*%
%TD*%
%TA.AperFunction,SMDPad,CuDef*%
%ADD29R,1.500000X1.500000*%
%TD*%
%TA.AperFunction,SMDPad,CuDef*%
%ADD30C,0.300000*%
%TD*%
%TA.AperFunction,SMDPad,CuDef*%
%ADD31C,0.500000*%
%TD*%
%TA.AperFunction,SMDPad,CuDef*%
%ADD32R,1.000000X0.600000*%
%TD*%
%TA.AperFunction,SMDPad,CuDef*%
%ADD33R,0.270000X0.300000*%
%TD*%
%TA.AperFunction,SMDPad,CuDef*%
%ADD34FreePoly0,180.000000*%
%TD*%
%TA.AperFunction,SMDPad,CuDef*%
%ADD35FreePoly1,180.000000*%
%TD*%
%TA.AperFunction,SMDPad,CuDef*%
%ADD36R,0.665000X0.280000*%
%TD*%
%TA.AperFunction,SMDPad,CuDef*%
%ADD37R,2.600000X3.000000*%
%TD*%
%TA.AperFunction,SMDPad,CuDef*%
%ADD38RoundRect,0.250000X-0.550000X0.300000X-0.550000X-0.300000X0.550000X-0.300000X0.550000X0.300000X0*%
%TD*%
%TA.AperFunction,SMDPad,CuDef*%
%ADD39RoundRect,0.150000X-0.150000X0.512500X-0.150000X-0.512500X0.150000X-0.512500X0.150000X0.512500X0*%
%TD*%
%TA.AperFunction,SMDPad,CuDef*%
%ADD40R,1.550000X0.600000*%
%TD*%
%TA.AperFunction,SMDPad,CuDef*%
%ADD41R,1.800000X1.200000*%
%TD*%
%TA.AperFunction,SMDPad,CuDef*%
%ADD42R,0.600000X1.000000*%
%TD*%
%TA.AperFunction,SMDPad,CuDef*%
%ADD43R,0.300000X0.270000*%
%TD*%
%TA.AperFunction,SMDPad,CuDef*%
%ADD44O,0.580000X1.280000*%
%TD*%
%TA.AperFunction,SMDPad,CuDef*%
%ADD45R,4.300000X3.400000*%
%TD*%
%TA.AperFunction,ComponentPad*%
%ADD46RoundRect,0.250000X0.750000X0.750000X-0.750000X0.750000X-0.750000X-0.750000X0.750000X-0.750000X0*%
%TD*%
%TA.AperFunction,ComponentPad*%
%ADD47C,2.000000*%
%TD*%
%TA.AperFunction,SMDPad,CuDef*%
%ADD48RoundRect,0.250000X-0.300000X-0.550000X0.300000X-0.550000X0.300000X0.550000X-0.300000X0.550000X0*%
%TD*%
%TA.AperFunction,SMDPad,CuDef*%
%ADD49FreePoly0,0.000000*%
%TD*%
%TA.AperFunction,SMDPad,CuDef*%
%ADD50FreePoly1,0.000000*%
%TD*%
%TA.AperFunction,SMDPad,CuDef*%
%ADD51R,0.750000X0.800000*%
%TD*%
%TA.AperFunction,SMDPad,CuDef*%
%ADD52R,2.105000X0.980000*%
%TD*%
%TA.AperFunction,SMDPad,CuDef*%
%ADD53RoundRect,0.150000X-0.590000X-0.150000X0.590000X-0.150000X0.590000X0.150000X-0.590000X0.150000X0*%
%TD*%
%TA.AperFunction,SMDPad,CuDef*%
%ADD54R,1.130000X1.820000*%
%TD*%
%TA.AperFunction,SMDPad,CuDef*%
%ADD55R,1.190000X1.728000*%
%TD*%
%TA.AperFunction,SMDPad,CuDef*%
%ADD56C,0.787400*%
%TD*%
%TA.AperFunction,SMDPad,CuDef*%
%ADD57R,0.860000X0.800000*%
%TD*%
%TA.AperFunction,SMDPad,CuDef*%
%ADD58R,0.300000X0.850000*%
%TD*%
%TA.AperFunction,SMDPad,CuDef*%
%ADD59R,0.800000X0.860000*%
%TD*%
%TA.AperFunction,SMDPad,CuDef*%
%ADD60R,3.400000X1.500000*%
%TD*%
%TA.AperFunction,SMDPad,CuDef*%
%ADD61R,3.500000X1.000000*%
%TD*%
%TA.AperFunction,SMDPad,CuDef*%
%ADD62R,1.800000X2.000000*%
%TD*%
%TA.AperFunction,ComponentPad*%
%ADD63O,2.300000X2.300000*%
%TD*%
%TA.AperFunction,SMDPad,CuDef*%
%ADD64R,0.300000X0.500000*%
%TD*%
%TA.AperFunction,SMDPad,CuDef*%
%ADD65R,1.000000X2.000000*%
%TD*%
%TA.AperFunction,SMDPad,CuDef*%
%ADD66R,0.300000X1.200000*%
%TD*%
%TA.AperFunction,SMDPad,CuDef*%
%ADD67R,0.500000X0.280000*%
%TD*%
%TA.AperFunction,SMDPad,CuDef*%
%ADD68R,0.280000X0.500000*%
%TD*%
%TA.AperFunction,SMDPad,CuDef*%
%ADD69R,0.300000X0.350000*%
%TD*%
%TA.AperFunction,SMDPad,CuDef*%
%ADD70R,0.300000X1.400000*%
%TD*%
%TA.AperFunction,SMDPad,CuDef*%
%ADD71R,0.500000X1.400000*%
%TD*%
%TA.AperFunction,ComponentPad*%
%ADD72O,1.300000X2.300000*%
%TD*%
%TA.AperFunction,ComponentPad*%
%ADD73O,1.300000X2.100000*%
%TD*%
%TA.AperFunction,ComponentPad*%
%ADD74C,0.500000*%
%TD*%
%TA.AperFunction,SMDPad,CuDef*%
%ADD75RoundRect,0.500000X-2.000000X-1.000000X2.000000X-1.000000X2.000000X1.000000X-2.000000X1.000000X0*%
%TD*%
%TA.AperFunction,SMDPad,CuDef*%
%ADD76R,0.300000X0.800000*%
%TD*%
%TA.AperFunction,SMDPad,CuDef*%
%ADD77R,0.300000X0.600000*%
%TD*%
%TA.AperFunction,SMDPad,CuDef*%
%ADD78R,0.400000X0.950000*%
%TD*%
%TA.AperFunction,SMDPad,CuDef*%
%ADD79R,1.820000X1.130000*%
%TD*%
%TA.AperFunction,ComponentPad*%
%ADD80RoundRect,0.450000X1.050000X-1.050000X1.050000X1.050000X-1.050000X1.050000X-1.050000X-1.050000X0*%
%TD*%
%TA.AperFunction,SMDPad,CuDef*%
%ADD81R,0.250000X1.100000*%
%TD*%
%TA.AperFunction,ViaPad*%
%ADD82C,0.550000*%
%TD*%
%TA.AperFunction,ViaPad*%
%ADD83C,0.500000*%
%TD*%
%TA.AperFunction,ViaPad*%
%ADD84C,0.350000*%
%TD*%
%TA.AperFunction,Conductor*%
%ADD85C,0.300000*%
%TD*%
%TA.AperFunction,Conductor*%
%ADD86C,0.400000*%
%TD*%
%TA.AperFunction,Conductor*%
%ADD87C,0.250000*%
%TD*%
%TA.AperFunction,Conductor*%
%ADD88C,0.152400*%
%TD*%
%TA.AperFunction,Conductor*%
%ADD89C,0.500000*%
%TD*%
%TA.AperFunction,Conductor*%
%ADD90C,0.247400*%
%TD*%
%TA.AperFunction,Conductor*%
%ADD91C,0.213400*%
%TD*%
G04 APERTURE END LIST*
D10*
%TO.N,Net-(U5-PVDD)*%
X48848223Y-15952289D02*
X48648223Y-15852289D01*
X47956122Y-15283707D01*
X48698223Y-14652289D01*
X48848223Y-14552289D01*
X48848223Y-15952289D01*
%TA.AperFunction,Conductor*%
G36*
X48848223Y-15952289D02*
G01*
X48648223Y-15852289D01*
X47956122Y-15283707D01*
X48698223Y-14652289D01*
X48848223Y-14552289D01*
X48848223Y-15952289D01*
G37*
%TD.AperFunction*%
%TO.N,PVSS2*%
X49556122Y-12833707D02*
X48406122Y-13433707D01*
X48406122Y-12533707D01*
X49156122Y-12333707D01*
X49556122Y-12333707D01*
X49556122Y-12833707D01*
%TA.AperFunction,Conductor*%
G36*
X49556122Y-12833707D02*
G01*
X48406122Y-13433707D01*
X48406122Y-12533707D01*
X49156122Y-12333707D01*
X49556122Y-12333707D01*
X49556122Y-12833707D01*
G37*
%TD.AperFunction*%
%TO.N,PVSS1*%
X49456122Y-17483707D02*
X49456122Y-18083707D01*
X48456122Y-18333707D01*
X48456122Y-17183707D01*
X48456122Y-16983707D01*
X49456122Y-17483707D01*
%TA.AperFunction,Conductor*%
G36*
X49456122Y-17483707D02*
G01*
X49456122Y-18083707D01*
X48456122Y-18333707D01*
X48456122Y-17183707D01*
X48456122Y-16983707D01*
X49456122Y-17483707D01*
G37*
%TD.AperFunction*%
%TO.N,/Project Architecture/Power Supply/VOUT1*%
X52006122Y-20383707D02*
X51056122Y-20883707D01*
X50256122Y-20733707D01*
X50106122Y-19683707D01*
X49406122Y-18933707D01*
X50206122Y-18233707D01*
X52006122Y-18183707D01*
X52006122Y-20383707D01*
%TA.AperFunction,Conductor*%
G36*
X52006122Y-20383707D02*
G01*
X51056122Y-20883707D01*
X50256122Y-20733707D01*
X50106122Y-19683707D01*
X49406122Y-18933707D01*
X50206122Y-18233707D01*
X52006122Y-18183707D01*
X52006122Y-20383707D01*
G37*
%TD.AperFunction*%
%TO.N,/Project Architecture/Power Supply/VOUT2*%
X52606122Y-13783707D02*
X52406122Y-14583707D01*
X51656122Y-14533707D01*
X51106122Y-13283707D01*
X50456122Y-12783707D01*
X50506122Y-12233707D01*
X51306122Y-11683707D01*
X52556122Y-11683707D01*
X52606122Y-13783707D01*
%TA.AperFunction,Conductor*%
G36*
X52606122Y-13783707D02*
G01*
X52406122Y-14583707D01*
X51656122Y-14533707D01*
X51106122Y-13283707D01*
X50456122Y-12783707D01*
X50506122Y-12233707D01*
X51306122Y-11683707D01*
X52556122Y-11683707D01*
X52606122Y-13783707D01*
G37*
%TD.AperFunction*%
%TD*%
D11*
%TO.P,C39,1*%
%TO.N,/Project Architecture/Misc/AUDIO+*%
X43500000Y53678750D03*
%TO.P,C39,2*%
%TO.N,GND*%
X43500000Y52678750D03*
%TD*%
D12*
%TO.P,SW1,1,1*%
%TO.N,GND*%
X26000000Y41700000D03*
%TO.P,SW1,2,2*%
%TO.N,unconnected-(SW1-Pad2)*%
X26000000Y50300000D03*
%TO.P,SW1,3,3*%
%TO.N,Net-(D3-Pad1)*%
X30500000Y41700000D03*
%TO.P,SW1,4,4*%
%TO.N,unconnected-(SW1-Pad4)*%
X30500000Y50300000D03*
%TD*%
D13*
%TO.P,R24,1*%
%TO.N,GND*%
X32000000Y54500000D03*
%TO.P,R24,2*%
%TO.N,/Project Architecture/Misc/LED1_B*%
X32000000Y53500000D03*
%TD*%
%TO.P,R31,1*%
%TO.N,Net-(LED2-R-)*%
X34000000Y57250000D03*
%TO.P,R31,2*%
%TO.N,Net-(Q5-D1)*%
X34000000Y58250000D03*
%TD*%
D11*
%TO.P,C8,1*%
%TO.N,Net-(U2-V_{OUT})*%
X13250000Y-22700000D03*
%TO.P,C8,2*%
%TO.N,GND*%
X13250000Y-23700000D03*
%TD*%
D14*
%TO.P,C16,1*%
%TO.N,VBAT*%
X40950000Y-14000102D03*
%TO.P,C16,2*%
%TO.N,GND*%
X39950000Y-14000102D03*
%TD*%
D15*
%TO.P,C36,1*%
%TO.N,VSYS_AUD*%
X44750000Y49853750D03*
%TO.P,C36,2*%
%TO.N,GND*%
X44750000Y48503750D03*
%TD*%
D13*
%TO.P,R17,1*%
%TO.N,Net-(C29-Pad1)*%
X55700000Y-11650102D03*
%TO.P,R17,2*%
%TO.N,+3V3*%
X55700000Y-12650102D03*
%TD*%
D16*
%TO.P,U1,1,GND*%
%TO.N,GND*%
X71800000Y-8500000D03*
%TO.P,U1,2,RF*%
%TO.N,unconnected-(U1E-RF-Pad2)*%
X70700000Y-8500000D03*
%TO.P,U1,3,GND*%
%TO.N,GND*%
X69600000Y-8500000D03*
%TO.P,U1,4,nRESET*%
%TO.N,/Project Architecture/Connectors/RST_NRF54*%
X68500000Y-8500000D03*
%TO.P,U1,5,SWDIO*%
%TO.N,/Project Architecture/Connectors/SWDIO_NRF54*%
X67400000Y-8500000D03*
%TO.P,U1,6,SWDCLK*%
%TO.N,/Project Architecture/Connectors/SWDCLK_NRF54*%
X66300000Y-8500000D03*
%TO.P,U1,7,D-*%
%TO.N,/Project Architecture/Connectors/D1_N*%
X65200000Y-8500000D03*
%TO.P,U1,8,D+*%
%TO.N,/Project Architecture/Connectors/D1_P*%
X64100000Y-8500000D03*
%TO.P,U1,9,VBUS*%
%TO.N,VBUS_out*%
X63000000Y-8500000D03*
%TO.P,U1,10,GND*%
%TO.N,GND*%
X61900000Y-8500000D03*
%TO.P,U1,11,GND*%
X61900000Y-20500000D03*
%TO.P,U1,12,P1.26*%
%TO.N,/Project Architecture/NRF54LM20A/BTN_0*%
X63000000Y-20500000D03*
%TO.P,U1,13,P1.23*%
%TO.N,unconnected-(U1B-P1.23-Pad13)*%
X64100000Y-20500000D03*
%TO.P,U1,14,P1.19*%
%TO.N,unconnected-(U1B-P1.19-Pad14)*%
X65200000Y-20500000D03*
%TO.P,U1,15,P1.18*%
%TO.N,unconnected-(U1B-P1.18-Pad15)*%
X66300000Y-20500000D03*
%TO.P,U1,16,P1.17*%
%TO.N,/Project Architecture/NRF54LM20A/UART_RX*%
X67400000Y-20500000D03*
%TO.P,U1,17,P1.16*%
%TO.N,/Project Architecture/NRF54LM20A/UART_TX*%
X68500000Y-20500000D03*
%TO.P,U1,18,P1.15*%
%TO.N,unconnected-(U1B-P1.15-Pad18)*%
X69600000Y-20500000D03*
%TO.P,U1,19,VCC*%
%TO.N,+3V3*%
X70700000Y-20500000D03*
%TO.P,U1,20,GND*%
%TO.N,GND*%
X71800000Y-20500000D03*
D17*
%TO.P,U1,A0,P0.04*%
%TO.N,unconnected-(U1A-P0.04-PadA0)*%
X72500000Y-10750000D03*
%TO.P,U1,A1,P0.01*%
%TO.N,unconnected-(U1A-P0.01-PadA1)*%
X71300000Y-10750000D03*
%TO.P,U1,A2,P0.00*%
%TO.N,unconnected-(U1A-P0.00-PadA2)*%
X70100000Y-10750000D03*
%TO.P,U1,A3,P3.04*%
%TO.N,/Project Architecture/LORA/LORA_SCK*%
X68900000Y-10750000D03*
%TO.P,U1,A4,P1.01/NFC1*%
%TO.N,unconnected-(U1B-P1.01{slash}NFC1-PadA4)*%
X67700000Y-10750000D03*
%TO.P,U1,A5,P1.02/NFC2*%
%TO.N,unconnected-(U1B-P1.02{slash}NFC2-PadA5)*%
X66500000Y-10750000D03*
%TO.P,U1,A6,P1.06/AIN4*%
%TO.N,/Project Architecture/DISPLAY/DISP_RST*%
X65300000Y-10750000D03*
%TO.P,U1,A7,P1.00/AIN0*%
%TO.N,/Project Architecture/DISPLAY/DISP_MOSI*%
X64100000Y-10750000D03*
%TO.P,U1,A8,P1.04/AIN6*%
%TO.N,/Project Architecture/DISPLAY/DISP_CS*%
X62900000Y-10750000D03*
%TO.P,U1,A9,P1.30/AIN2*%
%TO.N,unconnected-(U1B-P1.30{slash}AIN2-PadA9)*%
X61700000Y-10750000D03*
%TO.P,U1,B0,P0.02*%
%TO.N,/Project Architecture/Misc/AUD_ENABLE*%
X72500000Y-12250000D03*
%TO.P,U1,B1,P0.03*%
%TO.N,unconnected-(U1A-P0.03-PadB1)*%
X71300000Y-12250000D03*
%TO.P,U1,B2,P3.03*%
%TO.N,/Project Architecture/Misc/I2S_BCLK*%
X70100000Y-12250000D03*
%TO.P,U1,B3,P3.02*%
%TO.N,/Project Architecture/LORA/LORA_DIO1*%
X68900000Y-12250000D03*
%TO.P,U1,B4,P3.01*%
%TO.N,/Project Architecture/LORA/LORA_BUSY*%
X67700000Y-12250000D03*
%TO.P,U1,B5,P3.00*%
%TO.N,/Project Architecture/LORA/LORA_RST*%
X66500000Y-12250000D03*
%TO.P,U1,B6,P1.07/EXTREF*%
%TO.N,/Project Architecture/Connectors/I2C_SDA*%
X65300000Y-12250000D03*
%TO.P,U1,B7,P1.31/AIN1*%
%TO.N,unconnected-(U1B-P1.31{slash}AIN1-PadB7)*%
X64100000Y-12250000D03*
%TO.P,U1,B8,P1.03/AIN7*%
%TO.N,/Project Architecture/DISPLAY/DISP_SCK*%
X62900000Y-12250000D03*
%TO.P,U1,B9,P1.29/AIN3*%
%TO.N,unconnected-(U1B-P1.29{slash}AIN3-PadB9)*%
X61700000Y-12250000D03*
%TO.P,U1,C0,P0.05*%
%TO.N,/Project Architecture/Misc/BTN_3*%
X72500000Y-13750000D03*
%TO.P,U1,C1,P0.06*%
%TO.N,unconnected-(U1A-P0.06-PadC1)*%
X71300000Y-13750000D03*
%TO.P,U1,C2,P3.07*%
%TO.N,/Project Architecture/Misc/AMP_SD*%
X70100000Y-13750000D03*
%TO.P,U1,C3,P3.08*%
%TO.N,/Project Architecture/LORA/LORA_MOSI*%
X68900000Y-13750000D03*
%TO.P,U1,C4,P3.06*%
%TO.N,/Project Architecture/Misc/I2S_DIN*%
X67700000Y-13750000D03*
%TO.P,U1,C5,P3.05*%
%TO.N,/Project Architecture/Misc/I2S_LRCLK*%
X66500000Y-13750000D03*
%TO.P,U1,C6,P1.08*%
%TO.N,/Project Architecture/Misc/BTN_2*%
X65300000Y-13750000D03*
%TO.P,U1,C7,P1.05/AIN5*%
%TO.N,/Project Architecture/DISPLAY/DISP_DC*%
X64100000Y-13750000D03*
%TO.P,U1,C8,P2.04*%
%TO.N,/Project Architecture/Misc/SPI_MISO*%
X62900000Y-13750000D03*
%TO.P,U1,C9,P2.03*%
%TO.N,unconnected-(U1C-P2.03-PadC9)*%
X61700000Y-13750000D03*
%TO.P,U1,D0,GND*%
%TO.N,GND*%
X72500000Y-15250000D03*
%TO.P,U1,D1,P0.07*%
%TO.N,unconnected-(U1A-P0.07-PadD1)*%
X71300000Y-15250000D03*
%TO.P,U1,D2,P3.11*%
%TO.N,/Project Architecture/Misc/VIB_PWM*%
X70100000Y-15250000D03*
%TO.P,U1,D3,P3.10*%
%TO.N,/Project Architecture/LORA/LORA_NSS*%
X68900000Y-15250000D03*
%TO.P,U1,D4,P1.24*%
%TO.N,unconnected-(U1B-P1.24-PadD4)*%
X67700000Y-15250000D03*
%TO.P,U1,D5,P3.09*%
%TO.N,/Project Architecture/LORA/LORA_MISO*%
X66500000Y-15250000D03*
%TO.P,U1,D6,P1.09*%
%TO.N,/Project Architecture/Misc/BTN_1*%
X65300000Y-15250000D03*
%TO.P,U1,D7,P2.10*%
%TO.N,unconnected-(U1C-P2.10-PadD7)*%
X64100000Y-15250000D03*
%TO.P,U1,D8,P2.05*%
%TO.N,/Project Architecture/Misc/SPI_EXT_MEM_CS*%
X62900000Y-15250000D03*
%TO.P,U1,D9,P2.02*%
%TO.N,/Project Architecture/Misc/SPI_MOSI*%
X61700000Y-15250000D03*
%TO.P,U1,E0,GND*%
%TO.N,GND*%
X72500000Y-16750000D03*
%TO.P,U1,E1,P0.08*%
%TO.N,unconnected-(U1A-P0.08-PadE1)*%
X71300000Y-16750000D03*
%TO.P,U1,E2,P3.12*%
%TO.N,/Project Architecture/Misc/VIB_ENABLE*%
X70100000Y-16750000D03*
%TO.P,U1,E3,P1.10*%
%TO.N,/Project Architecture/DISPLAY/DISP_DIM*%
X68900000Y-16750000D03*
%TO.P,U1,E4,P1.22*%
%TO.N,/Project Architecture/Misc/LED1_R*%
X67700000Y-16750000D03*
%TO.P,U1,E5,P1.25*%
%TO.N,/Project Architecture/Misc/LED1_G*%
X66500000Y-16750000D03*
%TO.P,U1,E6,P1.28*%
%TO.N,unconnected-(U1B-P1.28-PadE6)*%
X65300000Y-16750000D03*
%TO.P,U1,E7,P2.09*%
%TO.N,/Project Architecture/Connectors/SWO_NRF54*%
X64100000Y-16750000D03*
%TO.P,U1,E8,P2.07*%
%TO.N,unconnected-(U1C-P2.07-PadE8)*%
X62900000Y-16750000D03*
%TO.P,U1,E9,P2.01*%
%TO.N,/Project Architecture/Misc/SPI_SCK*%
X61700000Y-16750000D03*
%TO.P,U1,F0,GND*%
%TO.N,GND*%
X72500000Y-18250000D03*
%TO.P,U1,F1,P0.09*%
%TO.N,unconnected-(U1A-P0.09-PadF1)*%
X71300000Y-18250000D03*
%TO.P,U1,F2,P1.14*%
%TO.N,/Project Architecture/Misc/INT1_ACCEL*%
X70100000Y-18250000D03*
%TO.P,U1,F3,P1.13*%
%TO.N,/Project Architecture/Connectors/I2C_SCL*%
X68900000Y-18250000D03*
%TO.P,U1,F4,P1.12*%
%TO.N,/Project Architecture/Misc/INT2_ACCEL*%
X67700000Y-18250000D03*
%TO.P,U1,F5,P1.11*%
%TO.N,/Project Architecture/LORA/LORA_ANT_SW*%
X66500000Y-18250000D03*
%TO.P,U1,F6,P1.27*%
%TO.N,/Project Architecture/Misc/LED1_B*%
X65300000Y-18250000D03*
%TO.P,U1,F7,P2.06*%
%TO.N,unconnected-(U1C-P2.06-PadF7)*%
X64100000Y-18250000D03*
%TO.P,U1,F8,P2.08*%
%TO.N,unconnected-(U1C-P2.08-PadF8)*%
X62900000Y-18250000D03*
%TO.P,U1,F9,P2.00*%
%TO.N,unconnected-(U1C-P2.00-PadF9)*%
X61700000Y-18250000D03*
%TD*%
D13*
%TO.P,R20,1*%
%TO.N,/Project Architecture/Misc/VIB_PWM*%
X17650000Y-7400000D03*
%TO.P,R20,2*%
%TO.N,Net-(Q3-G1)*%
X17650000Y-6400000D03*
%TD*%
D18*
%TO.P,U5,1,VOUT1*%
%TO.N,/Project Architecture/Power Supply/VOUT1*%
X47250000Y-16800122D03*
%TO.P,U5,2,PVSS1*%
%TO.N,PVSS1*%
X47250000Y-16300122D03*
%TO.P,U5,3,SW1*%
%TO.N,/Project Architecture/Power Supply/SW1*%
X47250000Y-15800122D03*
%TO.P,U5,4,PVDD*%
%TO.N,Net-(U5-PVDD)*%
X47250000Y-15300102D03*
%TO.P,U5,5,SW2*%
%TO.N,/Project Architecture/Power Supply/SW2*%
X47250000Y-14800122D03*
%TO.P,U5,6,PVSS2*%
%TO.N,PVSS2*%
X47250000Y-14300102D03*
%TO.P,U5,7,GPIO0*%
%TO.N,/Project Architecture/Power Supply/NPM1300_GPIO0*%
X47250000Y-13800102D03*
%TO.P,U5,8,GPIO1*%
%TO.N,/Project Architecture/Power Supply/NPM1300_GPIO1*%
X47250000Y-13300102D03*
D19*
%TO.P,U5,9,GPIO2*%
%TO.N,unconnected-(U5-GPIO2-Pad9)*%
X46550000Y-12600102D03*
%TO.P,U5,10,GPIO3*%
%TO.N,unconnected-(U5-GPIO3-Pad10)*%
X46050010Y-12600102D03*
%TO.P,U5,11,GPIO4*%
%TO.N,unconnected-(U5-GPIO4-Pad11)*%
X45550010Y-12600102D03*
%TO.P,U5,12,VDDIO*%
%TO.N,+3V3*%
X45049980Y-12600102D03*
%TO.P,U5,13,SDA*%
%TO.N,/Project Architecture/Connectors/I2C_SDA*%
X44550010Y-12600102D03*
%TO.P,U5,14,SCL*%
%TO.N,/Project Architecture/Connectors/I2C_SCL*%
X44049980Y-12600102D03*
%TO.P,U5,15,SHPHLD*%
%TO.N,SHPHLD*%
X43549990Y-12600102D03*
%TO.P,U5,16,VSET2*%
%TO.N,Net-(U5-VSET2)*%
X43049990Y-12600102D03*
D18*
%TO.P,U5,17,VSET1*%
%TO.N,Net-(U5-VSET1)*%
X42349990Y-13300102D03*
%TO.P,U5,18,NTC*%
%TO.N,/Project Architecture/Connectors/BAT_NTC*%
X42349990Y-13800102D03*
%TO.P,U5,19,VBAT*%
%TO.N,VBAT*%
X42349990Y-14300102D03*
%TO.P,U5,20,VSYS*%
%TO.N,Net-(U5-PVDD)*%
X42349990Y-14800122D03*
%TO.P,U5,21,VBUS*%
%TO.N,VBUS_in*%
X42349990Y-15300102D03*
%TO.P,U5,22,VBUSOUT*%
%TO.N,VBUS_out*%
X42349990Y-15800122D03*
%TO.P,U5,23,CC1*%
%TO.N,/Project Architecture/Connectors/CC1*%
X42349990Y-16300122D03*
%TO.P,U5,24,CC2*%
%TO.N,/Project Architecture/Connectors/CC2*%
X42349990Y-16800122D03*
D19*
%TO.P,U5,25,LED0*%
%TO.N,unconnected-(U5-LED0-Pad25)*%
X43049990Y-17500122D03*
%TO.P,U5,26,LED1*%
%TO.N,unconnected-(U5-LED1-Pad26)*%
X43549990Y-17500122D03*
%TO.P,U5,27,LED2*%
%TO.N,unconnected-(U5-LED2-Pad27)*%
X44049980Y-17500122D03*
%TO.P,U5,28,LSIN1/VINLDO1*%
%TO.N,+3v3_EXTRA*%
X44550010Y-17500122D03*
%TO.P,U5,29,LSOUT1/VOUTLDO1*%
%TO.N,Net-(U5-LSOUT1{slash}VOUTLDO1)*%
X45049980Y-17500122D03*
%TO.P,U5,30,LSIN2/VINLDO2*%
%TO.N,+3V3*%
X45550010Y-17500122D03*
%TO.P,U5,31,LSOUT2/VOUTLDO2*%
%TO.N,Net-(U5-LSOUT2{slash}VOUTLDO2)*%
X46050010Y-17500122D03*
%TO.P,U5,32,VOUT2*%
%TO.N,/Project Architecture/Power Supply/VOUT2*%
X46550000Y-17500122D03*
D20*
%TO.P,U5,33,AVSS*%
%TO.N,GND*%
X44800000Y-15050112D03*
%TD*%
D21*
%TO.P,H1,1,1*%
%TO.N,GND*%
X72250000Y59000000D03*
%TD*%
D11*
%TO.P,C49,1*%
%TO.N,VDD_ANALOG*%
X52500000Y23750000D03*
%TO.P,C49,2*%
%TO.N,GND*%
X52500000Y24750000D03*
%TD*%
%TO.P,C40,1*%
%TO.N,VSYS_VIB*%
X20900000Y-4900000D03*
%TO.P,C40,2*%
%TO.N,Net-(Q3-D1)*%
X20900000Y-5900000D03*
%TD*%
D22*
%TO.P,S1,1,A*%
%TO.N,/Project Architecture/Connectors/RST_NRF54*%
X-8575000Y-23250000D03*
%TO.P,S1,2,B*%
%TO.N,GND*%
X-4425000Y-23250000D03*
%TD*%
D23*
%TO.P,L8,1,1*%
%TO.N,Net-(U5-PVDD)*%
X54050000Y-15980102D03*
%TO.P,L8,2,2*%
%TO.N,Net-(C30-Pad1)*%
X54050000Y-17920102D03*
%TD*%
D14*
%TO.P,C13,1*%
%TO.N,VBUS*%
X28250000Y-14866240D03*
%TO.P,C13,2*%
%TO.N,GND*%
X27250000Y-14866240D03*
%TD*%
D13*
%TO.P,R48,1*%
%TO.N,Net-(R48-Pad1)*%
X58750000Y18672500D03*
%TO.P,R48,2*%
%TO.N,Net-(U13--)*%
X58750000Y17672500D03*
%TD*%
D24*
%TO.P,Q3,1,S1*%
%TO.N,GND*%
X18390000Y-5900000D03*
%TO.P,Q3,2,G1*%
%TO.N,Net-(Q3-G1)*%
X18390000Y-6400000D03*
%TO.P,Q3,3,D2*%
%TO.N,unconnected-(Q3-D2-Pad3)*%
X18390000Y-6900000D03*
%TO.P,Q3,4,S2*%
%TO.N,Net-(Q3-G2)*%
X19910000Y-6900000D03*
%TO.P,Q3,5,G2*%
X19910000Y-6400000D03*
%TO.P,Q3,6,D1*%
%TO.N,Net-(Q3-D1)*%
X19910000Y-5900000D03*
%TD*%
D15*
%TO.P,R52,1*%
%TO.N,Net-(R51-Pad2)*%
X58750000Y21347500D03*
%TO.P,R52,2*%
%TO.N,Net-(R48-Pad1)*%
X58750000Y19997500D03*
%TD*%
D25*
%TO.P,L6,1,1*%
%TO.N,/Project Architecture/Power Supply/VOUT2*%
X52030000Y-11850102D03*
%TO.P,L6,2,2*%
%TO.N,Net-(C29-Pad1)*%
X53970000Y-11850102D03*
%TD*%
D14*
%TO.P,C29,1*%
%TO.N,Net-(C29-Pad1)*%
X53950000Y-14150102D03*
%TO.P,C29,2*%
%TO.N,GND*%
X54950000Y-14150102D03*
%TD*%
D26*
%TO.P,R21,1*%
%TO.N,+3V3*%
X-12400000Y6240000D03*
%TO.P,R21,2*%
%TO.N,/Project Architecture/Misc/SPI_EXT_MEM_CS*%
X-11400000Y6240000D03*
%TD*%
D15*
%TO.P,C47,1*%
%TO.N,VDD_ANALOG*%
X43125000Y8180000D03*
%TO.P,C47,2*%
%TO.N,GND*%
X43125000Y9530000D03*
%TD*%
D14*
%TO.P,C23,1*%
%TO.N,Net-(U5-LSOUT2{slash}VOUTLDO2)*%
X46300000Y-20000000D03*
%TO.P,C23,2*%
%TO.N,GND*%
X45300000Y-20000000D03*
%TD*%
D13*
%TO.P,R4,1*%
%TO.N,Net-(U2-FB)*%
X10750000Y-15700000D03*
%TO.P,R4,2*%
%TO.N,Net-(Q1-D)*%
X10750000Y-16700000D03*
%TD*%
%TO.P,R1,1*%
%TO.N,VSYS*%
X15250000Y-23700000D03*
%TO.P,R1,2*%
%TO.N,Net-(U2-CTRL)*%
X15250000Y-22700000D03*
%TD*%
%TO.P,R30,1*%
%TO.N,Net-(U6-SET)*%
X49000000Y51000000D03*
%TO.P,R30,2*%
%TO.N,GND*%
X49000000Y50000000D03*
%TD*%
%TO.P,R13,1*%
%TO.N,Net-(U5-LSOUT2{slash}VOUTLDO2)*%
X46325000Y-20815162D03*
%TO.P,R13,2*%
%TO.N,VDD_LNA1*%
X46325000Y-21815162D03*
%TD*%
D27*
%TO.P,U7,1,DIN*%
%TO.N,/Project Architecture/Misc/I2S_DIN*%
X40250000Y47533750D03*
%TO.P,U7,2,GAIN_SLOT*%
%TO.N,Net-(U7-GAIN_SLOT)*%
X40750000Y47533750D03*
%TO.P,U7,3,GND*%
%TO.N,GND*%
X41250000Y47533750D03*
%TO.P,U7,4,~{SD_MODE}*%
%TO.N,/Project Architecture/Misc/AMP_SD*%
X41750000Y47533750D03*
D28*
%TO.P,U7,5,N.C.*%
%TO.N,unconnected-(U7-N.C.-Pad5)*%
X42500000Y48283750D03*
%TO.P,U7,6,N.C.*%
%TO.N,unconnected-(U7-N.C.-Pad6)*%
X42500000Y48783750D03*
%TO.P,U7,7,VDD*%
%TO.N,VSYS_AUD*%
X42500000Y49283750D03*
%TO.P,U7,8,VDD*%
X42500000Y49783750D03*
D27*
%TO.P,U7,9,OUTP*%
%TO.N,Net-(U7-OUTP)*%
X41750000Y50533750D03*
%TO.P,U7,10,OUTN*%
%TO.N,Net-(U7-OUTN)*%
X41250000Y50533750D03*
%TO.P,U7,11,GND*%
%TO.N,GND*%
X40750000Y50533750D03*
%TO.P,U7,12,N.C.*%
%TO.N,unconnected-(U7-N.C.-Pad12)*%
X40250000Y50533750D03*
D28*
%TO.P,U7,13,N.C.*%
%TO.N,unconnected-(U7-N.C.-Pad13)*%
X39500000Y49783750D03*
%TO.P,U7,14,LRCLK*%
%TO.N,/Project Architecture/Misc/I2S_LRCLK*%
X39500000Y49283750D03*
%TO.P,U7,15,GND*%
%TO.N,GND*%
X39500000Y48783750D03*
%TO.P,U7,16,BCLK*%
%TO.N,/Project Architecture/Misc/I2S_BCLK*%
X39500000Y48283750D03*
D29*
%TO.P,U7,17,EP*%
%TO.N,GND*%
X41000000Y49033750D03*
%TD*%
D26*
%TO.P,R2,1*%
%TO.N,Net-(U2-FB)*%
X12750000Y-16700000D03*
%TO.P,R2,2*%
%TO.N,GND*%
X13750000Y-16700000D03*
%TD*%
D14*
%TO.P,C41,1*%
%TO.N,VBUS_out*%
X63000000Y-7000000D03*
%TO.P,C41,2*%
%TO.N,GND*%
X62000000Y-7000000D03*
%TD*%
D30*
%TO.P,NT2,1,1*%
%TO.N,PVSS2*%
X48790000Y-17640112D03*
D31*
%TO.P,NT2,2,2*%
%TO.N,GND*%
X48790000Y-17640112D03*
%TD*%
D26*
%TO.P,R25,1*%
%TO.N,+3V3*%
X-12400000Y-3010000D03*
%TO.P,R25,2*%
%TO.N,Net-(U9-VCC)*%
X-11400000Y-3010000D03*
%TD*%
D32*
%TO.P,U4,1,VOUT*%
%TO.N,VSYS_VIB*%
X21500000Y-10400000D03*
%TO.P,U4,2,GND*%
%TO.N,GND*%
X21500000Y-9450000D03*
%TO.P,U4,3,SET*%
%TO.N,Net-(U4-SET)*%
X21500000Y-8500000D03*
%TO.P,U4,4,EN*%
%TO.N,/Project Architecture/Misc/VIB_ENABLE*%
X19300000Y-8500000D03*
%TO.P,U4,5,VIN*%
%TO.N,VSYS*%
X19300000Y-10400000D03*
%TD*%
D11*
%TO.P,C42,1*%
%TO.N,Net-(U9-VCC)*%
X-9900000Y-1510000D03*
%TO.P,C42,2*%
%TO.N,GND*%
X-9900000Y-510000D03*
%TD*%
D26*
%TO.P,R41,1*%
%TO.N,+3V3*%
X57250000Y-21250000D03*
%TO.P,R41,2*%
%TO.N,/Project Architecture/Connectors/I2C_SDA*%
X58250000Y-21250000D03*
%TD*%
D33*
%TO.P,C26,1*%
%TO.N,Net-(U5-PVDD)*%
X40534990Y-14750102D03*
%TO.P,C26,2*%
%TO.N,GND*%
X39965000Y-14750102D03*
%TD*%
D11*
%TO.P,C28,1*%
%TO.N,Net-(C28-Pad1)*%
X49000000Y-21950102D03*
%TO.P,C28,2*%
%TO.N,GND*%
X49000000Y-22950102D03*
%TD*%
D34*
%TO.P,JP1,1,A*%
%TO.N,/Project Architecture/Connectors/RST_NRF54*%
X-10700000Y-23250000D03*
D35*
%TO.P,JP1,2,B*%
%TO.N,Net-(JP1-B)*%
X-12000000Y-23250000D03*
%TD*%
D36*
%TO.P,U14,1,GND*%
%TO.N,GND*%
X43840000Y22500000D03*
%TO.P,U14,2,MENB*%
%TO.N,/Project Architecture/Gas Sensors/lmp_menb*%
X43840000Y22000000D03*
%TO.P,U14,3,SCL*%
%TO.N,/Project Architecture/Connectors/I2C_SCL*%
X43840000Y21500000D03*
%TO.P,U14,4,SDA*%
%TO.N,/Project Architecture/Connectors/I2C_SDA*%
X43840000Y21000000D03*
%TO.P,U14,5,NC*%
%TO.N,unconnected-(U14-NC-Pad5)*%
X43840000Y20500000D03*
%TO.P,U14,6,VDD*%
%TO.N,VDD_ANALOG*%
X43840000Y20000000D03*
%TO.P,U14,7,AGND*%
%TO.N,GND*%
X43840000Y19500000D03*
%TO.P,U14,8,VOUT*%
%TO.N,/Project Architecture/Gas Sensors/co_out*%
X47660000Y19500000D03*
%TO.P,U14,9,C2*%
%TO.N,Net-(U14-C2)*%
X47660000Y20000000D03*
%TO.P,U14,10,C1*%
%TO.N,Net-(U14-C1)*%
X47660000Y20500000D03*
%TO.P,U14,11,VREF*%
%TO.N,Net-(U14-VREF)*%
X47660000Y21000000D03*
%TO.P,U14,12,WE*%
%TO.N,/Project Architecture/Gas Sensors/co_we*%
X47660000Y21500000D03*
%TO.P,U14,13,RE*%
%TO.N,/Project Architecture/Gas Sensors/co_re*%
X47660000Y22000000D03*
%TO.P,U14,14,CE*%
%TO.N,/Project Architecture/Gas Sensors/co_ce*%
X47660000Y22500000D03*
D37*
%TO.P,U14,15,DAP*%
%TO.N,GND*%
X45750000Y21000000D03*
%TD*%
D11*
%TO.P,C14,1*%
%TO.N,VBUS_IN*%
X25500000Y-13616250D03*
%TO.P,C14,2*%
%TO.N,GND*%
X25500000Y-14616250D03*
%TD*%
D38*
%TO.P,D2,1*%
%TO.N,VSYS_VIB*%
X22400000Y-4000000D03*
%TO.P,D2,2*%
%TO.N,Net-(Q3-D1)*%
X22400000Y-6800000D03*
%TD*%
D26*
%TO.P,R27,1*%
%TO.N,GND*%
X35000000Y57250000D03*
%TO.P,R27,2*%
%TO.N,/Project Architecture/Misc/LED1_G*%
X36000000Y57250000D03*
%TD*%
D39*
%TO.P,U13,1*%
%TO.N,Net-(R51-Pad2)*%
X57310000Y21335000D03*
%TO.P,U13,2,V-*%
%TO.N,GND*%
X56360000Y21335000D03*
%TO.P,U13,3,+*%
%TO.N,/Project Architecture/Gas Sensors/o2+*%
X55410000Y21335000D03*
%TO.P,U13,4,-*%
%TO.N,Net-(U13--)*%
X55410000Y19060000D03*
%TO.P,U13,5,V+*%
%TO.N,VDD_ANALOG*%
X57310000Y19060000D03*
%TD*%
D40*
%TO.P,CN1,1,1*%
%TO.N,GND*%
X-20060000Y1750000D03*
%TO.P,CN1,2,2*%
%TO.N,+3V3*%
X-20060000Y750000D03*
%TO.P,CN1,3,3*%
%TO.N,/Project Architecture/Connectors/I2C_SDA*%
X-20060000Y-250000D03*
%TO.P,CN1,4,4*%
%TO.N,/Project Architecture/Connectors/I2C_SCL*%
X-20060000Y-1250000D03*
D41*
%TO.P,CN1,5,5*%
%TO.N,unconnected-(CN1-Pad5)*%
X-23940000Y-2550000D03*
%TO.P,CN1,6,6*%
%TO.N,unconnected-(CN1-Pad6)*%
X-23940000Y3050000D03*
%TD*%
D26*
%TO.P,R22,1*%
%TO.N,Net-(U4-SET)*%
X22750000Y-8500000D03*
%TO.P,R22,2*%
%TO.N,GND*%
X23750000Y-8500000D03*
%TD*%
%TO.P,R19,1*%
%TO.N,Net-(U7-GAIN_SLOT)*%
X40500000Y45928750D03*
%TO.P,R19,2*%
%TO.N,GND*%
X41500000Y45928750D03*
%TD*%
D33*
%TO.P,C34,1*%
%TO.N,Net-(C29-Pad1)*%
X53965010Y-13400102D03*
%TO.P,C34,2*%
%TO.N,GND*%
X54535000Y-13400102D03*
%TD*%
%TO.P,C20,1*%
%TO.N,Net-(U5-PVDD)*%
X49964990Y-17740112D03*
%TO.P,C20,2*%
%TO.N,PVSS1*%
X49395000Y-17740112D03*
%TD*%
D14*
%TO.P,C52,1*%
%TO.N,/Project Architecture/Gas Sensors/o2_out*%
X57250000Y23922500D03*
%TO.P,C52,2*%
%TO.N,GND*%
X56250000Y23922500D03*
%TD*%
D42*
%TO.P,U6,1,VOUT*%
%TO.N,VSYS_AUD*%
X47075000Y52146250D03*
%TO.P,U6,2,GND*%
%TO.N,GND*%
X48025000Y52146250D03*
%TO.P,U6,3,SET*%
%TO.N,Net-(U6-SET)*%
X48975000Y52146250D03*
%TO.P,U6,4,EN*%
%TO.N,/Project Architecture/Misc/AUD_ENABLE*%
X48975000Y54346250D03*
%TO.P,U6,5,VIN*%
%TO.N,VSYS*%
X47075000Y54346250D03*
%TD*%
D26*
%TO.P,R26,1*%
%TO.N,GND*%
X36250000Y61000000D03*
%TO.P,R26,2*%
%TO.N,/Project Architecture/Misc/LED1_R*%
X35250000Y61000000D03*
%TD*%
D43*
%TO.P,C25,1*%
%TO.N,Net-(U5-PVDD)*%
X48600000Y-11965112D03*
%TO.P,C25,2*%
%TO.N,PVSS2*%
X48600000Y-12535102D03*
%TD*%
D44*
%TO.P,U9,1,#CS*%
%TO.N,/Project Architecture/Misc/SPI_EXT_MEM_CS*%
X-11340000Y4510000D03*
%TO.P,U9,2,DO/IO1*%
%TO.N,/Project Architecture/Misc/SPI_MISO*%
X-12620000Y4510000D03*
%TO.P,U9,3,#WP/IO2*%
%TO.N,+3V3*%
X-13880000Y4510000D03*
%TO.P,U9,4,GND*%
%TO.N,GND*%
X-15150000Y4510000D03*
%TO.P,U9,5,DI/IO0*%
%TO.N,/Project Architecture/Misc/SPI_MOSI*%
X-15150000Y-1510000D03*
%TO.P,U9,6,CLK*%
%TO.N,/Project Architecture/Misc/SPI_SCK*%
X-13880000Y-1510000D03*
%TO.P,U9,7,#HOLD-OR-#REST/IO3*%
%TO.N,+3V3*%
X-12620000Y-1510000D03*
%TO.P,U9,8,VCC*%
%TO.N,Net-(U9-VCC)*%
X-11340000Y-1510000D03*
D45*
%TO.P,U9,9,EP*%
%TO.N,GND*%
X-13250000Y1500000D03*
%TD*%
D11*
%TO.P,C9,1*%
%TO.N,Net-(J3-SHIELD)*%
X36000000Y-16866250D03*
%TO.P,C9,2*%
%TO.N,GND*%
X36000000Y-15866250D03*
%TD*%
D46*
%TO.P,J2,1,Pin_1*%
%TO.N,/Project Architecture/Misc/AUDIO+*%
X42775000Y58396250D03*
D47*
%TO.P,J2,2,Pin_2*%
%TO.N,/Project Architecture/Misc/AUDIO-*%
X40235000Y58396250D03*
%TD*%
D48*
%TO.P,D4,1*%
%TO.N,Net-(D3-Pad1)*%
X33600000Y41900000D03*
%TO.P,D4,2*%
%TO.N,SHPHLD*%
X36400000Y41900000D03*
%TD*%
D26*
%TO.P,R35,1*%
%TO.N,+3V3*%
X38325000Y125000D03*
%TO.P,R35,2*%
%TO.N,/Project Architecture/Misc/AB1*%
X39325000Y125000D03*
%TD*%
D49*
%TO.P,JP3,1,A*%
%TO.N,GND*%
X34600000Y-2500000D03*
D50*
%TO.P,JP3,2,B*%
%TO.N,/Project Architecture/Misc/AB0*%
X35900000Y-2500000D03*
%TD*%
D13*
%TO.P,R10,1*%
%TO.N,GND*%
X43000000Y-9500102D03*
%TO.P,R10,2*%
%TO.N,Net-(U5-VSET2)*%
X43000000Y-10500102D03*
%TD*%
%TO.P,R42,1*%
%TO.N,+3V3*%
X52500000Y14750000D03*
%TO.P,R42,2*%
%TO.N,Net-(U12-ALERT{slash}RDY)*%
X52500000Y15750000D03*
%TD*%
D51*
%TO.P,C45,1*%
%TO.N,VSYS*%
X46800000Y55646250D03*
%TO.P,C45,2*%
%TO.N,GND*%
X48150000Y55646250D03*
%TD*%
D11*
%TO.P,C37,1*%
%TO.N,VSYS_AUD*%
X43500000Y49678750D03*
%TO.P,C37,2*%
%TO.N,GND*%
X43500000Y48678750D03*
%TD*%
D52*
%TO.P,LED2,1,B-*%
%TO.N,Net-(LED2-B-)*%
X32230000Y56150000D03*
%TO.P,LED2,2,R-*%
%TO.N,Net-(LED2-R-)*%
X32230000Y57750000D03*
%TO.P,LED2,3,G-*%
%TO.N,Net-(LED2-G-)*%
X32230000Y59350000D03*
%TO.P,LED2,4,G+*%
%TO.N,+3V3*%
X27770000Y59350000D03*
%TO.P,LED2,5,R+*%
X27770000Y57750000D03*
%TO.P,LED2,6,B+*%
X27770000Y56150000D03*
%TD*%
D15*
%TO.P,C44,1*%
%TO.N,VSYS_VIB*%
X23000000Y-10925000D03*
%TO.P,C44,2*%
%TO.N,GND*%
X23000000Y-9575000D03*
%TD*%
%TO.P,C24,1*%
%TO.N,Net-(U5-PVDD)*%
X48850000Y-14775112D03*
%TO.P,C24,2*%
%TO.N,PVSS2*%
X48850000Y-13425112D03*
%TD*%
D11*
%TO.P,C6,1*%
%TO.N,+3v3_EXTRA*%
X60250000Y-11250000D03*
%TO.P,C6,2*%
%TO.N,GND*%
X60250000Y-12250000D03*
%TD*%
D53*
%TO.P,Q1,1,G*%
%TO.N,/Project Architecture/DISPLAY/DISP_DIM*%
X9060000Y-18500000D03*
%TO.P,Q1,2,S*%
%TO.N,GND*%
X9060000Y-20400000D03*
%TO.P,Q1,3,D*%
%TO.N,Net-(Q1-D)*%
X10940000Y-19450000D03*
%TD*%
D13*
%TO.P,R47,1*%
%TO.N,Net-(U14-C2)*%
X49500000Y19000000D03*
%TO.P,R47,2*%
%TO.N,Net-(U14-C1)*%
X49500000Y20000000D03*
%TD*%
D51*
%TO.P,R9,1*%
%TO.N,VSYS*%
X20075000Y-12750000D03*
%TO.P,R9,2*%
%TO.N,VSYS_VIB*%
X21425000Y-12750000D03*
%TD*%
D54*
%TO.P,R33,1*%
%TO.N,VSYS_VIB*%
X20035000Y-3150000D03*
%TO.P,R33,2*%
%TO.N,Net-(Q3-D1)*%
X18265000Y-3150000D03*
%TD*%
D14*
%TO.P,C50,1*%
%TO.N,VDD_ANALOG*%
X57250000Y17672500D03*
%TO.P,C50,2*%
%TO.N,GND*%
X56250000Y17672500D03*
%TD*%
D13*
%TO.P,R11,1*%
%TO.N,GND*%
X42250000Y-9500102D03*
%TO.P,R11,2*%
%TO.N,Net-(U5-VSET1)*%
X42250000Y-10500102D03*
%TD*%
D55*
%TO.P,U10,1,1*%
%TO.N,VBAT*%
X-11100000Y-12000000D03*
%TO.P,U10,2,2*%
%TO.N,Net-(U10-Pad2)*%
X-14000000Y-12000000D03*
%TD*%
D56*
%TO.P,TC2,1*%
%TO.N,VSYS*%
X51500000Y-520000D03*
%TO.P,TC2,2*%
%TO.N,/Project Architecture/Connectors/SWDIO_NRF54*%
X51500000Y750000D03*
%TO.P,TC2,3*%
%TO.N,/Project Architecture/Connectors/RST_NRF54*%
X52770000Y-520000D03*
%TO.P,TC2,4*%
%TO.N,/Project Architecture/Connectors/SWDCLK_NRF54*%
X52770000Y750000D03*
%TO.P,TC2,5*%
%TO.N,GND*%
X54040000Y-520000D03*
%TO.P,TC2,6*%
%TO.N,/Project Architecture/Connectors/SWO_NRF54*%
X54040000Y750000D03*
%TD*%
D13*
%TO.P,R38,1*%
%TO.N,+3V3*%
X46125000Y6105000D03*
%TO.P,R38,2*%
%TO.N,/Project Architecture/Misc/INT1_ACCEL*%
X46125000Y7105000D03*
%TD*%
D26*
%TO.P,R51,1*%
%TO.N,/Project Architecture/Gas Sensors/o2_out*%
X57250000Y22922500D03*
%TO.P,R51,2*%
%TO.N,Net-(R51-Pad2)*%
X58250000Y22922500D03*
%TD*%
D14*
%TO.P,C35,1*%
%TO.N,VBUS_out*%
X40499960Y-16800102D03*
%TO.P,C35,2*%
%TO.N,GND*%
X39499960Y-16800102D03*
%TD*%
D15*
%TO.P,R12,1*%
%TO.N,VSYS*%
X44725000Y53821250D03*
%TO.P,R12,2*%
%TO.N,VSYS_AUD*%
X44725000Y52471250D03*
%TD*%
D11*
%TO.P,C51,1*%
%TO.N,VDD_ANALOG*%
X42750000Y20000000D03*
%TO.P,C51,2*%
%TO.N,GND*%
X42750000Y19000000D03*
%TD*%
D57*
%TO.P,L10,1,1*%
%TO.N,Net-(U7-OUTP)*%
X42250000Y52228750D03*
%TO.P,L10,2,2*%
%TO.N,/Project Architecture/Misc/AUDIO+*%
X42250000Y53628750D03*
%TD*%
D33*
%TO.P,C17,1*%
%TO.N,+3V3*%
X45165010Y-11700102D03*
%TO.P,C17,2*%
%TO.N,GND*%
X45735000Y-11700102D03*
%TD*%
D26*
%TO.P,R23,1*%
%TO.N,+3V3*%
X-14600000Y-23250000D03*
%TO.P,R23,2*%
%TO.N,Net-(JP1-B)*%
X-13600000Y-23250000D03*
%TD*%
D12*
%TO.P,SW2,1,1*%
%TO.N,GND*%
X30500000Y29700000D03*
%TO.P,SW2,2,2*%
%TO.N,unconnected-(SW2-Pad2)*%
X30500000Y21100000D03*
%TO.P,SW2,3,3*%
%TO.N,/Project Architecture/Misc/BTN_1*%
X26000000Y29700000D03*
%TO.P,SW2,4,4*%
%TO.N,unconnected-(SW2-Pad4)*%
X26000000Y21100000D03*
%TD*%
D13*
%TO.P,R32,1*%
%TO.N,Net-(LED2-G-)*%
X34000000Y59250000D03*
%TO.P,R32,2*%
%TO.N,Net-(Q5-D2)*%
X34000000Y60250000D03*
%TD*%
%TO.P,R16,1*%
%TO.N,Net-(C28-Pad1)*%
X47400000Y-21950102D03*
%TO.P,R16,2*%
%TO.N,+3v3_EXTRA*%
X47400000Y-22950102D03*
%TD*%
D14*
%TO.P,C15,1*%
%TO.N,VBUS_in*%
X40850000Y-15600102D03*
%TO.P,C15,2*%
%TO.N,GND*%
X39850000Y-15600102D03*
%TD*%
%TO.P,C11,1*%
%TO.N,VBUS*%
X28250000Y-16866240D03*
%TO.P,C11,2*%
%TO.N,GND*%
X27250000Y-16866240D03*
%TD*%
%TO.P,C27,1*%
%TO.N,Net-(U5-LSOUT1{slash}VOUTLDO1)*%
X44300000Y-18930242D03*
%TO.P,C27,2*%
%TO.N,GND*%
X43300000Y-18930242D03*
%TD*%
D26*
%TO.P,R29,1*%
%TO.N,Net-(R28-Pad2)*%
X34740000Y55250000D03*
%TO.P,R29,2*%
%TO.N,Net-(Q4-D1)*%
X35740000Y55250000D03*
%TD*%
D14*
%TO.P,C22,1*%
%TO.N,/Project Architecture/Power Supply/VOUT2*%
X50400000Y-12500102D03*
%TO.P,C22,2*%
%TO.N,PVSS2*%
X49400000Y-12500102D03*
%TD*%
D11*
%TO.P,C30,1*%
%TO.N,Net-(C30-Pad1)*%
X52850000Y-19250102D03*
%TO.P,C30,2*%
%TO.N,GND*%
X52850000Y-20250102D03*
%TD*%
D26*
%TO.P,R34,1*%
%TO.N,+3V3*%
X38325000Y1925000D03*
%TO.P,R34,2*%
%TO.N,/Project Architecture/Misc/AB0*%
X39325000Y1925000D03*
%TD*%
%TO.P,R8,1*%
%TO.N,/Project Architecture/Connectors/CC2*%
X33000000Y-16366250D03*
%TO.P,R8,2*%
%TO.N,GND*%
X34000000Y-16366250D03*
%TD*%
D14*
%TO.P,C19,1*%
%TO.N,Net-(U5-LSOUT2{slash}VOUTLDO2)*%
X46325000Y-19065060D03*
%TO.P,C19,2*%
%TO.N,GND*%
X45325000Y-19065060D03*
%TD*%
D51*
%TO.P,C46,1*%
%TO.N,VSYS_AUD*%
X46550000Y50646250D03*
%TO.P,C46,2*%
%TO.N,GND*%
X47900000Y50646250D03*
%TD*%
D12*
%TO.P,SW3,1,1*%
%TO.N,GND*%
X-23750000Y41700000D03*
%TO.P,SW3,2,2*%
%TO.N,unconnected-(SW3-Pad2)*%
X-23750000Y50300000D03*
%TO.P,SW3,3,3*%
%TO.N,/Project Architecture/Misc/BTN_2*%
X-19250000Y41700000D03*
%TO.P,SW3,4,4*%
%TO.N,unconnected-(SW3-Pad4)*%
X-19250000Y50300000D03*
%TD*%
D14*
%TO.P,C2,1*%
%TO.N,+3V3*%
X70750000Y-23250000D03*
%TO.P,C2,2*%
%TO.N,GND*%
X71750000Y-23250000D03*
%TD*%
D26*
%TO.P,R36,1*%
%TO.N,+3v3_EXTRA*%
X38325000Y-1675000D03*
%TO.P,R36,2*%
%TO.N,Net-(FPC1-PS)*%
X39325000Y-1675000D03*
%TD*%
D43*
%TO.P,C33,1*%
%TO.N,Net-(C30-Pad1)*%
X53600000Y-19315112D03*
%TO.P,C33,2*%
%TO.N,GND*%
X53600000Y-19885102D03*
%TD*%
D13*
%TO.P,R43,1*%
%TO.N,Net-(U12-ADDR)*%
X51500000Y15750000D03*
%TO.P,R43,2*%
%TO.N,+3V3*%
X51500000Y14750000D03*
%TD*%
D58*
%TO.P,D5,1,I/O1*%
%TO.N,/Project Architecture/Connectors/D-*%
X30000000Y-14086250D03*
%TO.P,D5,2,GND*%
%TO.N,GND*%
X30500000Y-14086250D03*
%TO.P,D5,3,I/O2*%
%TO.N,/Project Architecture/Connectors/D+*%
X31000000Y-14086250D03*
%TO.P,D5,4,I/O2*%
%TO.N,/Project Architecture/Connectors/D+_mid*%
X31000000Y-12646250D03*
%TO.P,D5,5,VBUS*%
%TO.N,VBUS_in*%
X30500000Y-12646250D03*
%TO.P,D5,6,I/O1*%
%TO.N,/Project Architecture/Connectors/D-_mid*%
X30000000Y-12646250D03*
%TD*%
D30*
%TO.P,NT1,1,1*%
%TO.N,PVSS1*%
X48870000Y-12960112D03*
D31*
%TO.P,NT1,2,2*%
%TO.N,GND*%
X48870000Y-12960112D03*
%TD*%
D26*
%TO.P,R50,1*%
%TO.N,Net-(U14-VREF)*%
X49000000Y21000000D03*
%TO.P,R50,2*%
%TO.N,VDD_ANALOG*%
X50000000Y21000000D03*
%TD*%
D59*
%TO.P,L2,1,1*%
%TO.N,VBUS*%
X28200000Y-13616250D03*
%TO.P,L2,2,2*%
%TO.N,VBUS_IN*%
X26800000Y-13616250D03*
%TD*%
D26*
%TO.P,R28,1*%
%TO.N,Net-(LED2-B-)*%
X34250000Y56250000D03*
%TO.P,R28,2*%
%TO.N,Net-(R28-Pad2)*%
X35250000Y56250000D03*
%TD*%
D12*
%TO.P,SW4,1,1*%
%TO.N,GND*%
X-19250000Y29700000D03*
%TO.P,SW4,2,2*%
%TO.N,unconnected-(SW4-Pad2)*%
X-19250000Y21100000D03*
%TO.P,SW4,3,3*%
%TO.N,/Project Architecture/Misc/BTN_3*%
X-23750000Y29700000D03*
%TO.P,SW4,4,4*%
%TO.N,unconnected-(SW4-Pad4)*%
X-23750000Y21100000D03*
%TD*%
D13*
%TO.P,R7,1*%
%TO.N,/Project Architecture/Connectors/CC1*%
X29250000Y-16866240D03*
%TO.P,R7,2*%
%TO.N,GND*%
X29250000Y-15866240D03*
%TD*%
D26*
%TO.P,R18,1*%
%TO.N,VSYS_AUD*%
X43750000Y46928750D03*
%TO.P,R18,2*%
%TO.N,/Project Architecture/Misc/AMP_SD*%
X42750000Y46928750D03*
%TD*%
D60*
%TO.P,U8,0,0*%
%TO.N,unconnected-(U8-Pad0)*%
X-23270000Y-14430000D03*
X-23270000Y-5570000D03*
D61*
%TO.P,U8,1,1*%
%TO.N,GND*%
X-17730000Y-8000000D03*
%TO.P,U8,2,2*%
%TO.N,/Project Architecture/Connectors/BAT_NTC*%
X-17730000Y-10000000D03*
%TO.P,U8,3,3*%
%TO.N,Net-(U10-Pad2)*%
X-17730000Y-12000000D03*
%TD*%
D24*
%TO.P,Q4,1,S1*%
%TO.N,GND*%
X33490000Y54250000D03*
%TO.P,Q4,2,G1*%
%TO.N,/Project Architecture/Misc/LED1_B*%
X33490000Y53750000D03*
%TO.P,Q4,3,D2*%
%TO.N,unconnected-(Q4-D2-Pad3)*%
X33490000Y53250000D03*
%TO.P,Q4,4,S2*%
%TO.N,Net-(Q4-G2)*%
X35010000Y53250000D03*
%TO.P,Q4,5,G2*%
X35010000Y53750000D03*
%TO.P,Q4,6,D1*%
%TO.N,Net-(Q4-D1)*%
X35010000Y54250000D03*
%TD*%
D62*
%TO.P,L1,1,1*%
%TO.N,Net-(U2-CTRL)*%
X18500000Y-21650000D03*
%TO.P,L1,2,2*%
%TO.N,Net-(U2-SW)*%
X18500000Y-17250000D03*
%TD*%
D49*
%TO.P,JP2,1,A*%
%TO.N,GND*%
X34600000Y1050000D03*
D50*
%TO.P,JP2,2,B*%
%TO.N,/Project Architecture/Misc/AB1*%
X35900000Y1050000D03*
%TD*%
D11*
%TO.P,C7,1*%
%TO.N,Net-(U2-CTRL)*%
X14250000Y-22700000D03*
%TO.P,C7,2*%
%TO.N,GND*%
X14250000Y-23700000D03*
%TD*%
%TO.P,C48,1*%
%TO.N,VDD_ANALOG*%
X44125000Y8355000D03*
%TO.P,C48,2*%
%TO.N,GND*%
X44125000Y9355000D03*
%TD*%
%TO.P,C10,1*%
%TO.N,Net-(J3-SHIELD)*%
X25750000Y-16866250D03*
%TO.P,C10,2*%
%TO.N,GND*%
X25750000Y-15866250D03*
%TD*%
D14*
%TO.P,C21,1*%
%TO.N,/Project Architecture/Power Supply/VOUT1*%
X47750000Y-18250102D03*
%TO.P,C21,2*%
%TO.N,PVSS1*%
X48750000Y-18250102D03*
%TD*%
D26*
%TO.P,R45,1*%
%TO.N,/Project Architecture/Gas Sensors/o2+*%
X55250000Y22922500D03*
%TO.P,R45,2*%
%TO.N,GND*%
X56250000Y22922500D03*
%TD*%
D13*
%TO.P,R5,1*%
%TO.N,Net-(U2-FB)*%
X11750000Y-15700000D03*
%TO.P,R5,2*%
%TO.N,Net-(Q1-D)*%
X11750000Y-16700000D03*
%TD*%
D11*
%TO.P,C4,1*%
%TO.N,+3v3_EXTRA*%
X58250000Y-11250000D03*
%TO.P,C4,2*%
%TO.N,GND*%
X58250000Y-12250000D03*
%TD*%
D57*
%TO.P,L9,1,1*%
%TO.N,Net-(U7-OUTN)*%
X40750000Y52228750D03*
%TO.P,L9,2,2*%
%TO.N,/Project Architecture/Misc/AUDIO-*%
X40750000Y53628750D03*
%TD*%
D26*
%TO.P,R40,1*%
%TO.N,+3V3*%
X57250000Y-19450000D03*
%TO.P,R40,2*%
%TO.N,/Project Architecture/Connectors/I2C_SCL*%
X58250000Y-19450000D03*
%TD*%
D11*
%TO.P,C38,1*%
%TO.N,/Project Architecture/Misc/AUDIO-*%
X39500000Y53678750D03*
%TO.P,C38,2*%
%TO.N,GND*%
X39500000Y52678750D03*
%TD*%
D63*
%TO.P,J1,1,Pin_1*%
%TO.N,/Project Architecture/Gas Sensors/co_ce*%
X45250000Y27736851D03*
%TO.P,J1,2,Pin_2*%
%TO.N,unconnected-(J1-Pin_2-Pad2)*%
X45250000Y30276851D03*
%TO.P,J1,3,Pin_3*%
%TO.N,/Project Architecture/Gas Sensors/co_we*%
X45250000Y32816851D03*
%TO.P,J1,4,Pin_4*%
%TO.N,/Project Architecture/Gas Sensors/co_re*%
X45250000Y35356851D03*
%TD*%
D21*
%TO.P,H2,1,1*%
%TO.N,GND*%
X-20250000Y-21000000D03*
%TD*%
D64*
%TO.P,Q5,1,S1*%
%TO.N,GND*%
X36250000Y59770000D03*
%TO.P,Q5,2,G1*%
%TO.N,/Project Architecture/Misc/LED1_R*%
X35750000Y59770000D03*
%TO.P,Q5,3,D2*%
%TO.N,Net-(Q5-D2)*%
X35250000Y59770000D03*
%TO.P,Q5,4,S2*%
%TO.N,GND*%
X35250000Y58250000D03*
%TO.P,Q5,5,G2*%
%TO.N,/Project Architecture/Misc/LED1_G*%
X35750000Y58250000D03*
%TO.P,Q5,6,D1*%
%TO.N,Net-(Q5-D1)*%
X36250000Y58250000D03*
%TD*%
D11*
%TO.P,C5,1*%
%TO.N,+3v3_EXTRA*%
X59250000Y-11250000D03*
%TO.P,C5,2*%
%TO.N,GND*%
X59250000Y-12250000D03*
%TD*%
D39*
%TO.P,U2,1,SW*%
%TO.N,Net-(U2-SW)*%
X14700000Y-18312500D03*
%TO.P,U2,2,GND*%
%TO.N,GND*%
X13750000Y-18312500D03*
%TO.P,U2,3,FB*%
%TO.N,Net-(U2-FB)*%
X12800000Y-18312500D03*
%TO.P,U2,4,CTRL*%
%TO.N,Net-(U2-CTRL)*%
X12800000Y-20587500D03*
%TO.P,U2,5,V_{OUT}*%
%TO.N,Net-(U2-V_{OUT})*%
X13750000Y-20587500D03*
%TO.P,U2,6,V_{IN}*%
%TO.N,Net-(U2-CTRL)*%
X14700000Y-20587500D03*
%TD*%
D54*
%TO.P,L5,1,1*%
%TO.N,/Project Architecture/Power Supply/VOUT2*%
X51835000Y-14250102D03*
%TO.P,L5,2,2*%
%TO.N,/Project Architecture/Power Supply/SW2*%
X50065000Y-14250102D03*
%TD*%
D65*
%TO.P,M1,1,GND*%
%TO.N,GND*%
X75300000Y16550000D03*
%TO.P,M1,2,ANT_SW1*%
%TO.N,/Project Architecture/LORA/LORA_ANT_SW*%
X73500000Y16550000D03*
%TO.P,M1,3,DIO2*%
%TO.N,unconnected-(M1-DIO2-Pad3)*%
X71700000Y16550000D03*
%TO.P,M1,4,DIO1*%
%TO.N,/Project Architecture/LORA/LORA_DIO1*%
X69900000Y16550000D03*
%TO.P,M1,5,DIO3*%
%TO.N,unconnected-(M1-DIO3-Pad5)*%
X68100000Y16550000D03*
%TO.P,M1,6,BUSY*%
%TO.N,/Project Architecture/LORA/LORA_BUSY*%
X66300000Y16550000D03*
%TO.P,M1,7,GND*%
%TO.N,GND*%
X64500000Y16550000D03*
%TO.P,M1,8,VDD_RADIO*%
%TO.N,+3v3_EXTRA*%
X62700000Y16550000D03*
%TO.P,M1,9,SX_NRESET*%
%TO.N,/Project Architecture/LORA/LORA_RST*%
X62700000Y1950000D03*
%TO.P,M1,10,MISO*%
%TO.N,/Project Architecture/LORA/LORA_MISO*%
X64500000Y1950000D03*
%TO.P,M1,11,MOSI*%
%TO.N,/Project Architecture/LORA/LORA_MOSI*%
X66300000Y1950000D03*
%TO.P,M1,12,SCK*%
%TO.N,/Project Architecture/LORA/LORA_SCK*%
X68100000Y1950000D03*
%TO.P,M1,13,NSS*%
%TO.N,/Project Architecture/LORA/LORA_NSS*%
X69900000Y1950000D03*
%TO.P,M1,14,ANT_SW2*%
%TO.N,unconnected-(M1-ANT_SW2-Pad14)*%
X71700000Y1950000D03*
%TO.P,M1,15,GND*%
%TO.N,GND*%
X73500000Y1950000D03*
%TO.P,M1,16,ANT*%
%TO.N,unconnected-(M1-ANT-Pad16)*%
X75300000Y1950000D03*
%TD*%
D13*
%TO.P,R39,1*%
%TO.N,+3V3*%
X45375000Y6105000D03*
%TO.P,R39,2*%
%TO.N,/Project Architecture/Misc/INT2_ACCEL*%
X45375000Y7105000D03*
%TD*%
%TO.P,R37,1*%
%TO.N,VDD_ANALOG*%
X47698386Y8491027D03*
%TO.P,R37,2*%
%TO.N,Net-(JP4-B)*%
X47698386Y9491027D03*
%TD*%
%TO.P,R3,1*%
%TO.N,Net-(U2-V_{OUT})*%
X12250000Y-22700000D03*
%TO.P,R3,2*%
%TO.N,/Project Architecture/DISPLAY/DISP_LED+*%
X12250000Y-23700000D03*
%TD*%
D43*
%TO.P,C32,1*%
%TO.N,Net-(C28-Pad1)*%
X48200000Y-21815112D03*
%TO.P,C32,2*%
%TO.N,GND*%
X48200000Y-22385102D03*
%TD*%
D13*
%TO.P,R6,1*%
%TO.N,Net-(U2-FB)*%
X9750000Y-15700000D03*
%TO.P,R6,2*%
%TO.N,/Project Architecture/DISPLAY/DISP_LED-*%
X9750000Y-14700000D03*
%TD*%
%TO.P,R15,1*%
%TO.N,Net-(C30-Pad1)*%
X54500000Y-19400102D03*
%TO.P,R15,2*%
%TO.N,VSYS*%
X54500000Y-20400102D03*
%TD*%
D26*
%TO.P,R44,1*%
%TO.N,GND*%
X52500000Y16500000D03*
%TO.P,R44,2*%
%TO.N,Net-(U12-ADDR)*%
X51500000Y16500000D03*
%TD*%
D66*
%TO.P,U3,1,1*%
%TO.N,/Project Architecture/DISPLAY/DISP_LED+*%
X4000000Y-24675000D03*
%TO.P,U3,2,2*%
%TO.N,/Project Architecture/DISPLAY/DISP_LED-*%
X3500000Y-24675000D03*
%TO.P,U3,3,3*%
%TO.N,+3V3*%
X3000000Y-24675000D03*
%TO.P,U3,4,4*%
X2500000Y-24675000D03*
%TO.P,U3,5,5*%
%TO.N,GND*%
X2000000Y-24675000D03*
%TO.P,U3,6,6*%
%TO.N,/Project Architecture/DISPLAY/DISP_CS*%
X1500000Y-24675000D03*
%TO.P,U3,7,7*%
%TO.N,/Project Architecture/DISPLAY/DISP_RST*%
X1000000Y-24675000D03*
%TO.P,U3,8,8*%
%TO.N,/Project Architecture/DISPLAY/DISP_MOSI*%
X500000Y-24675000D03*
%TO.P,U3,9,9*%
%TO.N,/Project Architecture/DISPLAY/DISP_SCK*%
X0Y-24675000D03*
%TO.P,U3,10,10*%
%TO.N,/Project Architecture/DISPLAY/DISP_DC*%
X-500000Y-24675000D03*
D62*
%TO.P,U3,11,11*%
%TO.N,unconnected-(U3-Pad11)*%
X-2150000Y-21515000D03*
%TO.P,U3,12,12*%
%TO.N,unconnected-(U3-Pad12)*%
X5650000Y-21515000D03*
%TD*%
D49*
%TO.P,JP4,1,A*%
%TO.N,GND*%
X45975000Y11855000D03*
D50*
%TO.P,JP4,2,B*%
%TO.N,Net-(JP4-B)*%
X47275000Y11855000D03*
%TD*%
D67*
%TO.P,U11,1,SCL/SPC*%
%TO.N,/Project Architecture/Connectors/I2C_SCL*%
X46630000Y8250000D03*
%TO.P,U11,2,CS*%
%TO.N,VDD_BMV*%
X46630000Y8750000D03*
%TO.P,U11,3,SDO/SA0*%
%TO.N,Net-(JP4-B)*%
X46630000Y9250000D03*
%TO.P,U11,4,SDA/SDI/SDO*%
%TO.N,/Project Architecture/Connectors/I2C_SDA*%
X46630000Y9750000D03*
D68*
%TO.P,U11,5,NC*%
%TO.N,unconnected-(U11-NC-Pad5)*%
X46000000Y9880000D03*
%TO.P,U11,6,GND*%
%TO.N,GND*%
X45500000Y9880000D03*
D67*
%TO.P,U11,7,RES*%
X44870000Y9750000D03*
%TO.P,U11,8,GND*%
X44870000Y9250000D03*
%TO.P,U11,9,VDD*%
%TO.N,VDD_ANALOG*%
X44870000Y8750000D03*
%TO.P,U11,10,VDDIO*%
X44870000Y8250000D03*
D68*
%TO.P,U11,11,INT2*%
%TO.N,/Project Architecture/Misc/INT2_ACCEL*%
X45500000Y8120000D03*
%TO.P,U11,12,INT1*%
%TO.N,/Project Architecture/Misc/INT1_ACCEL*%
X46000000Y8120000D03*
%TD*%
D69*
%TO.P,L3,1,1*%
%TO.N,/Project Architecture/Connectors/D-_mid*%
X30250000Y-10916250D03*
%TO.P,L3,2,2*%
%TO.N,/Project Architecture/Connectors/D1_N*%
X30250000Y-10316250D03*
%TO.P,L3,3,3*%
%TO.N,/Project Architecture/Connectors/D1_P*%
X30750000Y-10316250D03*
%TO.P,L3,4,4*%
%TO.N,/Project Architecture/Connectors/D+_mid*%
X30750000Y-10916250D03*
%TD*%
D14*
%TO.P,C12,1*%
%TO.N,VBUS*%
X28250000Y-15866250D03*
%TO.P,C12,2*%
%TO.N,GND*%
X27250000Y-15866250D03*
%TD*%
D70*
%TO.P,J3,A5,CC1*%
%TO.N,/Project Architecture/Connectors/CC1*%
X29750000Y-18616250D03*
%TO.P,J3,A6,D+*%
%TO.N,/Project Architecture/Connectors/D+*%
X30750000Y-18616250D03*
%TO.P,J3,A7,D-*%
%TO.N,/Project Architecture/Connectors/D-*%
X31250000Y-18616250D03*
%TO.P,J3,A8,SBU1*%
%TO.N,unconnected-(J3-SBU1-PadA8)*%
X32250000Y-18616250D03*
D71*
%TO.P,J3,A9B4,VBUS*%
%TO.N,VBUS*%
X33400000Y-18616250D03*
%TO.P,J3,A12B1,GND*%
%TO.N,GND*%
X34200000Y-18616250D03*
D70*
%TO.P,J3,B5,CC2*%
%TO.N,/Project Architecture/Connectors/CC2*%
X32750000Y-18616250D03*
%TO.P,J3,B6,D+*%
%TO.N,/Project Architecture/Connectors/D+*%
X31750000Y-18616250D03*
%TO.P,J3,B7,D-*%
%TO.N,/Project Architecture/Connectors/D-*%
X30250000Y-18616250D03*
%TO.P,J3,B8,SBU2*%
%TO.N,unconnected-(J3-SBU2-PadB8)*%
X29250000Y-18616250D03*
D71*
%TO.P,J3,B9A4,VBUS*%
%TO.N,VBUS*%
X28600000Y-18616250D03*
%TO.P,J3,B12A1,GND*%
%TO.N,GND*%
X27800000Y-18616250D03*
D72*
%TO.P,J3,S1,SHIELD*%
%TO.N,Net-(J3-SHIELD)*%
X26670000Y-19296250D03*
D73*
X26670000Y-23496250D03*
D74*
X29000000Y-22116250D03*
X29000000Y-24116250D03*
D75*
X31000000Y-23116250D03*
D74*
X33000000Y-22116250D03*
X33000000Y-24116250D03*
D72*
X35330000Y-19296250D03*
D73*
X35330000Y-23496250D03*
%TD*%
D76*
%TO.P,FPC1,1,VDDL*%
%TO.N,VDD_ANALOG*%
X38575000Y6925000D03*
D77*
%TO.P,FPC1,2,VSSA*%
%TO.N,GND*%
X38275000Y4565000D03*
D76*
%TO.P,FPC1,3,VDDA*%
%TO.N,VDD_ANALOG*%
X37975000Y6925000D03*
D77*
%TO.P,FPC1,4,CS/AB1*%
%TO.N,/Project Architecture/Misc/AB1*%
X37675000Y4565000D03*
D76*
%TO.P,FPC1,5,PICO/SDA*%
%TO.N,/Project Architecture/Connectors/I2C_SDA*%
X37375000Y6925000D03*
D77*
%TO.P,FPC1,6,SCK/SCL*%
%TO.N,/Project Architecture/Connectors/I2C_SCL*%
X37075000Y4565000D03*
D76*
%TO.P,FPC1,7,PS*%
%TO.N,Net-(FPC1-PS)*%
X36775000Y6925000D03*
D77*
%TO.P,FPC1,8,VDDIO*%
%TO.N,+3v3_EXTRA*%
X36475000Y4565000D03*
D76*
%TO.P,FPC1,9,VSSD*%
%TO.N,GND*%
X36175000Y6925000D03*
D77*
%TO.P,FPC1,10,VDDD*%
%TO.N,+3v3_EXTRA*%
X35875000Y4565000D03*
D76*
%TO.P,FPC1,11,POCI/AB0*%
%TO.N,/Project Architecture/Misc/AB0*%
X35575000Y6925000D03*
D77*
%TO.P,FPC1,12,IRQ*%
%TO.N,unconnected-(FPC1-IRQ-Pad12)*%
X35275000Y4565000D03*
D76*
%TO.P,FPC1,13,13*%
%TO.N,unconnected-(FPC1-Pad13)*%
X34975000Y6925000D03*
D78*
%TO.P,FPC1,14,14*%
%TO.N,unconnected-(FPC1-Pad14)*%
X34325000Y6825000D03*
%TO.P,FPC1,15,15*%
%TO.N,unconnected-(FPC1-Pad15)*%
X39225000Y6825000D03*
%TD*%
D21*
%TO.P,H3,1,1*%
%TO.N,GND*%
X-20250000Y59000000D03*
%TD*%
D79*
%TO.P,L4,1,1*%
%TO.N,/Project Architecture/Power Supply/VOUT1*%
X51350000Y-18035102D03*
%TO.P,L4,2,2*%
%TO.N,/Project Architecture/Power Supply/SW1*%
X51350000Y-16265102D03*
%TD*%
D15*
%TO.P,C43,1*%
%TO.N,VSYS*%
X18000000Y-10675000D03*
%TO.P,C43,2*%
%TO.N,GND*%
X18000000Y-9325000D03*
%TD*%
D26*
%TO.P,R46,1*%
%TO.N,GND*%
X56250000Y16672500D03*
%TO.P,R46,2*%
%TO.N,Net-(U13--)*%
X55250000Y16672500D03*
%TD*%
D48*
%TO.P,D3,1*%
%TO.N,Net-(D3-Pad1)*%
X33600000Y44250000D03*
%TO.P,D3,2*%
%TO.N,/Project Architecture/Misc/BTN_0*%
X36400000Y44250000D03*
%TD*%
D14*
%TO.P,C1,1*%
%TO.N,+3V3*%
X70750000Y-22250000D03*
%TO.P,C1,2*%
%TO.N,GND*%
X71750000Y-22250000D03*
%TD*%
%TO.P,C31,1*%
%TO.N,Net-(U5-LSOUT1{slash}VOUTLDO1)*%
X44275000Y-19815162D03*
%TO.P,C31,2*%
%TO.N,GND*%
X43275000Y-19815162D03*
%TD*%
D13*
%TO.P,R14,1*%
%TO.N,Net-(U5-LSOUT1{slash}VOUTLDO1)*%
X44275000Y-20765162D03*
%TO.P,R14,2*%
%TO.N,VDD_ANALOG*%
X44275000Y-21765162D03*
%TD*%
D80*
%TO.P,J4,1,Pin_1*%
%TO.N,GND*%
X66200000Y25000000D03*
%TO.P,J4,2,Pin_2*%
%TO.N,/Project Architecture/Gas Sensors/o2+*%
X59450000Y31750000D03*
%TO.P,J4,3,Pin_3*%
%TO.N,GND*%
X66200000Y38500000D03*
%TD*%
D25*
%TO.P,L7,1,1*%
%TO.N,/Project Architecture/Power Supply/VOUT1*%
X50520000Y-20300102D03*
%TO.P,L7,2,2*%
%TO.N,Net-(C28-Pad1)*%
X48580000Y-20300102D03*
%TD*%
D15*
%TO.P,C18,1*%
%TO.N,Net-(U5-PVDD)*%
X48850000Y-15775112D03*
%TO.P,C18,2*%
%TO.N,PVSS1*%
X48850000Y-17125112D03*
%TD*%
D14*
%TO.P,C3,1*%
%TO.N,+3V3*%
X70750000Y-24250000D03*
%TO.P,C3,2*%
%TO.N,GND*%
X71750000Y-24250000D03*
%TD*%
D81*
%TO.P,U12,1,ADDR*%
%TO.N,Net-(U12-ADDR)*%
X51500000Y18100000D03*
%TO.P,U12,2,ALERT/RDY*%
%TO.N,Net-(U12-ALERT{slash}RDY)*%
X52000000Y18100000D03*
%TO.P,U12,3,GND*%
%TO.N,GND*%
X52500000Y18100000D03*
%TO.P,U12,4,AIN0*%
%TO.N,/Project Architecture/Gas Sensors/o2_out*%
X53000000Y18100000D03*
%TO.P,U12,5,AIN1*%
%TO.N,/Project Architecture/Gas Sensors/co_out*%
X53500000Y18100000D03*
%TO.P,U12,6,AIN2*%
%TO.N,/Project Architecture/Gas Sensors/ain2*%
X53500000Y22400000D03*
%TO.P,U12,7,AIN3*%
%TO.N,/Project Architecture/Gas Sensors/ain3*%
X53000000Y22400000D03*
%TO.P,U12,8,VDD*%
%TO.N,VDD_ANALOG*%
X52500000Y22400000D03*
%TO.P,U12,9,SDA*%
%TO.N,/Project Architecture/Connectors/I2C_SDA*%
X52000000Y22400000D03*
%TO.P,U12,10,SCL*%
%TO.N,/Project Architecture/Connectors/I2C_SCL*%
X51500000Y22400000D03*
%TD*%
D82*
%TO.N,*%
X37000000Y-18116250D03*
D83*
%TO.N,GND*%
X56360000Y21335000D03*
D82*
X30500000Y-14832383D03*
X44750000Y-14000102D03*
D83*
X56250000Y23422500D03*
D82*
X72500000Y-16750000D03*
X72500000Y-15250000D03*
X44750000Y-15000102D03*
D83*
X48820000Y-12910102D03*
D82*
X45750000Y-14000102D03*
X43750000Y-15000102D03*
X45750000Y-16000102D03*
X43750000Y-14000102D03*
D83*
X52550000Y16500000D03*
X54900000Y-13350102D03*
D82*
X45750000Y-15000102D03*
D83*
X52500000Y24750000D03*
X48740000Y-17590102D03*
D82*
X44750000Y-16000102D03*
X43750000Y-16000102D03*
D84*
X46050000Y-11650092D03*
D83*
X56250000Y17172500D03*
D82*
X72500000Y-18250000D03*
D83*
%TO.N,+3V3*%
X45534944Y-18250000D03*
D82*
%TO.N,/Project Architecture/LORA/LORA_SCK*%
X68900000Y-10750000D03*
%TO.N,/Project Architecture/LORA/LORA_RST*%
X66500000Y-12250000D03*
%TO.N,/Project Architecture/LORA/LORA_ANT_SW*%
X66500000Y-18250000D03*
%TO.N,/Project Architecture/LORA/LORA_DIO1*%
X68900000Y-12250000D03*
%TO.N,/Project Architecture/LORA/LORA_BUSY*%
X67700000Y-12250000D03*
%TO.N,/Project Architecture/LORA/LORA_MOSI*%
X68900000Y-13750000D03*
%TO.N,/Project Architecture/LORA/LORA_NSS*%
X68900000Y-15250000D03*
%TO.N,/Project Architecture/LORA/LORA_MISO*%
X66500000Y-15250000D03*
%TO.N,VBUS_in*%
X30500000Y-11900117D03*
X41069991Y-15601199D03*
D84*
%TO.N,Net-(U5-PVDD)*%
X48100000Y-11950102D03*
X54350000Y-15100102D03*
X48173536Y-15200852D03*
X48750000Y-14700092D03*
X48750000Y-15700092D03*
X54000000Y-15930092D03*
X41150000Y-14750092D03*
X53800000Y-15100102D03*
X53150000Y-15250102D03*
X41800000Y-14750092D03*
X48650000Y-15250102D03*
D83*
%TO.N,/Project Architecture/Power Supply/VOUT2*%
X51650000Y-12750102D03*
X52250000Y-12750102D03*
X46850000Y-17850102D03*
X51000000Y-12750102D03*
D82*
%TO.N,/Project Architecture/Misc/LED1_R*%
X67700000Y-16750000D03*
%TO.N,/Project Architecture/Misc/LED1_B*%
X65300000Y-18250000D03*
%TO.N,/Project Architecture/Misc/LED1_G*%
X66500000Y-16750000D03*
%TO.N,/Project Architecture/Misc/SPI_EXT_MEM_CS*%
X62900000Y-15250000D03*
%TO.N,/Project Architecture/Misc/BTN_1*%
X65300000Y-15250000D03*
%TO.N,/Project Architecture/Misc/BTN_2*%
X65300000Y-13750000D03*
%TO.N,/Project Architecture/Misc/BTN_3*%
X72500000Y-13750000D03*
D83*
%TO.N,Net-(U12-ALERT{slash}RDY)*%
X52500000Y15750000D03*
X52000000Y17250000D03*
D82*
%TO.N,/Project Architecture/Misc/VIB_PWM*%
X70100000Y-15250000D03*
%TO.N,/Project Architecture/Misc/SPI_MISO*%
X62900000Y-13750000D03*
%TO.N,/Project Architecture/Misc/SPI_MOSI*%
X61700000Y-15250000D03*
%TO.N,/Project Architecture/Misc/SPI_SCK*%
X61700000Y-16750000D03*
%TO.N,/Project Architecture/Misc/AMP_SD*%
X70100000Y-13750000D03*
%TO.N,/Project Architecture/Misc/I2S_BCLK*%
X70100000Y-12250000D03*
%TO.N,/Project Architecture/Misc/I2S_DIN*%
X67700000Y-13750000D03*
%TO.N,/Project Architecture/Misc/I2S_LRCLK*%
X66500000Y-13750000D03*
%TO.N,/Project Architecture/DISPLAY/DISP_DIM*%
X68900000Y-16750000D03*
%TO.N,/Project Architecture/DISPLAY/DISP_MOSI*%
X64100000Y-10750000D03*
%TO.N,/Project Architecture/DISPLAY/DISP_SCK*%
X62900000Y-12250000D03*
%TO.N,/Project Architecture/DISPLAY/DISP_DC*%
X64100000Y-13750000D03*
%TO.N,/Project Architecture/DISPLAY/DISP_RST*%
X65300000Y-10750000D03*
%TO.N,/Project Architecture/DISPLAY/DISP_CS*%
X62900000Y-10750000D03*
%TO.N,VBUS*%
X33378970Y-17487280D03*
X28550000Y-17421250D03*
%TO.N,/Project Architecture/Misc/VIB_ENABLE*%
X70100000Y-16750000D03*
%TO.N,/Project Architecture/Misc/AUD_ENABLE*%
X72500000Y-12250000D03*
%TO.N,/Project Architecture/Connectors/SWO_NRF54*%
X64100000Y-16750000D03*
D84*
%TO.N,/Project Architecture/Connectors/I2C_SCL*%
X43820000Y-11380092D03*
D82*
X68900000Y-18250000D03*
D83*
X51000000Y22750000D03*
D84*
%TO.N,/Project Architecture/Connectors/I2C_SDA*%
X44600000Y-11630102D03*
D83*
X51500000Y23500000D03*
D82*
X65300000Y-12250000D03*
D83*
%TO.N,VDD_ANALOG*%
X57250000Y18172500D03*
%TD*%
D85*
%TO.N,GND*%
X44125000Y9355000D02*
X44765000Y9355000D01*
D10*
X45500000Y11380000D02*
X45975000Y11855000D01*
X34250000Y-17116250D02*
X34000000Y-16866250D01*
X45000000Y9880000D02*
X44870000Y9750000D01*
D86*
X23000000Y-9575000D02*
X23750000Y-8825000D01*
D10*
X52550000Y17022182D02*
X52550000Y17477818D01*
X43250000Y19000000D02*
X42750000Y19000000D01*
X56250000Y23422500D02*
X56250000Y23922500D01*
D86*
X45331122Y-19383707D02*
X45331122Y-20208707D01*
D87*
X39956122Y-13983697D02*
X39956122Y-13233707D01*
D86*
X22875000Y-9450000D02*
X23000000Y-9575000D01*
D88*
X45741122Y-11683697D02*
X46106122Y-11683697D01*
D85*
X44125000Y9355000D02*
X44475000Y9355000D01*
D10*
X56250000Y17672500D02*
X56250000Y17172500D01*
X45500000Y9880000D02*
X45500000Y11380000D01*
D85*
X43300000Y9355000D02*
X43125000Y9530000D01*
D10*
X52500000Y16972182D02*
X52550000Y17022182D01*
D86*
X45331122Y-18898757D02*
X45331122Y-19383707D01*
D10*
X52500000Y16550000D02*
X52500000Y16972182D01*
D85*
X44765000Y9355000D02*
X44870000Y9250000D01*
D10*
X34000000Y-16866250D02*
X34000000Y-16366250D01*
X34050000Y-18446250D02*
X34250000Y-18246250D01*
D88*
X43281122Y-19798757D02*
X42671172Y-19798757D01*
D85*
X36250000Y59770000D02*
X36250000Y61000000D01*
D86*
X18000000Y-9325000D02*
X21375000Y-9325000D01*
D10*
X52550000Y16500000D02*
X52500000Y16550000D01*
X52500000Y17527818D02*
X52500000Y18100000D01*
D85*
X44125000Y9355000D02*
X43300000Y9355000D01*
D86*
X21375000Y-9325000D02*
X21500000Y-9450000D01*
D10*
X43840000Y19500000D02*
X43750000Y19500000D01*
D85*
X44870000Y9250000D02*
X44870000Y9750000D01*
D10*
X33250000Y54250000D02*
X33000000Y54500000D01*
X56250000Y17172500D02*
X56250000Y16672500D01*
D88*
X39856122Y-15583697D02*
X39856122Y-15390893D01*
D10*
X45500000Y9880000D02*
X45000000Y9880000D01*
D88*
X42671172Y-19798757D02*
X42656122Y-19783707D01*
D86*
X61900000Y-8500000D02*
X61900000Y-7100000D01*
D88*
X52856122Y-20233697D02*
X52856122Y-20833707D01*
D10*
X41250000Y47533750D02*
X41250000Y46178750D01*
D86*
X61900000Y-7100000D02*
X62000000Y-7000000D01*
D10*
X41250000Y46178750D02*
X41500000Y45928750D01*
D88*
X39906132Y-14783697D02*
X39906122Y-14783707D01*
D10*
X43750000Y19500000D02*
X43250000Y19000000D01*
D89*
X71800000Y-20500000D02*
X71800000Y-24200000D01*
D85*
X44475000Y9355000D02*
X44870000Y9750000D01*
X30500000Y-14832383D02*
X30500000Y-14086250D01*
D10*
X52550000Y17477818D02*
X52500000Y17527818D01*
X35000000Y58250000D02*
X35000000Y57250000D01*
D88*
X42656122Y-18913837D02*
X43306122Y-18913837D01*
D10*
X33490000Y54250000D02*
X33250000Y54250000D01*
D89*
X58250000Y-12250000D02*
X60250000Y-12250000D01*
D10*
X34250000Y-18246250D02*
X34250000Y-17116250D01*
D89*
X13750000Y-16700000D02*
X13750000Y-18312500D01*
D10*
X33000000Y54500000D02*
X32250000Y54500000D01*
D88*
X45331122Y-19808697D02*
X45306122Y-19833697D01*
D86*
X45331122Y-19383707D02*
X45331122Y-20108707D01*
X23750000Y-8825000D02*
X23750000Y-8500000D01*
X21500000Y-9450000D02*
X22875000Y-9450000D01*
D88*
%TO.N,+3V3*%
X45056102Y-12583697D02*
X45106122Y-12533677D01*
D89*
X70750000Y-20550000D02*
X70700000Y-20500000D01*
D88*
X45106122Y-11748707D02*
X45171132Y-11683697D01*
X45556132Y-18243717D02*
X45581122Y-18268707D01*
X45056122Y-12583677D02*
X45056102Y-12583697D01*
X45556132Y-17483717D02*
X45556132Y-18243717D01*
D10*
X51500000Y14750000D02*
X52500000Y14750000D01*
D89*
X70750000Y-24250000D02*
X70750000Y-20550000D01*
D88*
X45106122Y-12533677D02*
X45106122Y-11748707D01*
X45156122Y-11323707D02*
X45156122Y-11668687D01*
X45156122Y-11668687D02*
X45171132Y-11683697D01*
D89*
%TO.N,Net-(Q1-D)*%
X11750000Y-18640000D02*
X11750000Y-16700000D01*
X10750000Y-16700000D02*
X11750000Y-16700000D01*
X10940000Y-19450000D02*
X11750000Y-18640000D01*
D87*
%TO.N,VBUS_out*%
X41856102Y-15783717D02*
X41206122Y-16433697D01*
D86*
X63000000Y-7000000D02*
X63000000Y-8500000D01*
D87*
X42356112Y-15783717D02*
X41856102Y-15783717D01*
D89*
%TO.N,Net-(U2-CTRL)*%
X15250000Y-22700000D02*
X15250000Y-22050000D01*
X12750000Y-20637500D02*
X12800000Y-20587500D01*
X14700000Y-21500000D02*
X14700000Y-20587500D01*
X14750000Y-20637500D02*
X14700000Y-20587500D01*
X17437500Y-20587500D02*
X18500000Y-21650000D01*
X14250000Y-21950000D02*
X14700000Y-21500000D01*
X15250000Y-22050000D02*
X14700000Y-21500000D01*
X14250000Y-22700000D02*
X14250000Y-21950000D01*
X14700000Y-20587500D02*
X17437500Y-20587500D01*
%TO.N,Net-(U2-V_{OUT})*%
X13550000Y-22400000D02*
X13550000Y-21650000D01*
X13250000Y-22700000D02*
X12250000Y-22700000D01*
X13250000Y-22700000D02*
X13550000Y-22400000D01*
X13750000Y-21450000D02*
X13750000Y-20587500D01*
X13550000Y-21650000D02*
X13750000Y-21450000D01*
%TO.N,VBUS_IN*%
X26800000Y-13616250D02*
X25500000Y-13616250D01*
D85*
%TO.N,VBUS_in*%
X30500000Y-11900117D02*
X30500000Y-12646250D01*
D87*
X41656122Y-15283697D02*
X41356122Y-15583697D01*
X42356112Y-15283697D02*
X41656122Y-15283697D01*
X41356122Y-15583697D02*
X40856122Y-15583697D01*
%TO.N,VBAT*%
X40865798Y-12663707D02*
X40956122Y-12754031D01*
X41306122Y-13983697D02*
X40956122Y-13983697D01*
X42356112Y-14283697D02*
X41606122Y-14283697D01*
X41606122Y-14283697D02*
X41306122Y-13983697D01*
X40956122Y-12754031D02*
X40956122Y-13983697D01*
%TO.N,PVSS1*%
X47256122Y-16283717D02*
X47591156Y-16283717D01*
X47591156Y-16283717D02*
X48416146Y-17108707D01*
X48416146Y-17108707D02*
X48856122Y-17108707D01*
%TO.N,Net-(U5-PVDD)*%
X48229658Y-15234457D02*
X48278898Y-15283697D01*
X41856122Y-14783697D02*
X42356092Y-14783697D01*
X48571122Y-11983707D02*
X48606122Y-11948707D01*
X49971112Y-17693707D02*
X49971112Y-17098697D01*
X48278898Y-15283697D02*
X48370765Y-15283697D01*
X42356092Y-14783697D02*
X42356112Y-14783717D01*
X48164013Y-15300102D02*
X48229658Y-15234457D01*
X49971112Y-17098697D02*
X49956122Y-17083707D01*
X41206122Y-14783697D02*
X41506122Y-14783697D01*
X47256122Y-15283697D02*
X47272527Y-15300102D01*
X48156122Y-11983707D02*
X48571122Y-11983707D01*
X47272527Y-15300102D02*
X48164013Y-15300102D01*
X41506122Y-14783697D02*
X41856122Y-14783697D01*
X40841112Y-14783697D02*
X41206122Y-14783697D01*
X48370765Y-15283697D02*
X48402173Y-15252289D01*
D88*
%TO.N,Net-(U5-LSOUT2{slash}VOUTLDO2)*%
X46331122Y-18331122D02*
X46331122Y-20798757D01*
X46056132Y-18056132D02*
X46331122Y-18331122D01*
X46056132Y-17483717D02*
X46056132Y-18056132D01*
D87*
%TO.N,/Project Architecture/Power Supply/VOUT1*%
X47756122Y-18433707D02*
X48256122Y-18933707D01*
X49306122Y-18933707D02*
X50526122Y-20153707D01*
X47756122Y-18233697D02*
X47756122Y-18433707D01*
X47256122Y-17033707D02*
X47656122Y-17433707D01*
X48256122Y-18933707D02*
X49306122Y-18933707D01*
X47256122Y-16783717D02*
X47256122Y-17033707D01*
X50526122Y-20153707D02*
X50526122Y-20283697D01*
X47656122Y-17433707D02*
X47656122Y-18133697D01*
X47656122Y-18133697D02*
X47756122Y-18233697D01*
D88*
%TO.N,PVSS2*%
X48956122Y-13583697D02*
X48956122Y-13283707D01*
D87*
X47656132Y-14283697D02*
X48531122Y-13408707D01*
X47256122Y-14283697D02*
X47656132Y-14283697D01*
X48531122Y-13408707D02*
X48856122Y-13408707D01*
D86*
%TO.N,/Project Architecture/Power Supply/VOUT2*%
X46556122Y-17533707D02*
X46906122Y-17883707D01*
X46556122Y-17483717D02*
X46556122Y-17533707D01*
D88*
%TO.N,Net-(U5-LSOUT1{slash}VOUTLDO1)*%
X45056102Y-17483717D02*
X45056102Y-17933717D01*
X44281122Y-19798757D02*
X44281122Y-18938837D01*
X45056122Y-18163707D02*
X44306122Y-18913707D01*
X44281122Y-18938837D02*
X44306122Y-18913837D01*
X44306122Y-18913707D02*
X44306122Y-18913837D01*
X44281122Y-19798757D02*
X44281122Y-20748757D01*
X45056102Y-17933717D02*
X45056122Y-17933737D01*
X45056122Y-17933737D02*
X45056122Y-18163707D01*
D86*
%TO.N,VSYS*%
X46800000Y54621250D02*
X47075000Y54346250D01*
X20075000Y-12750000D02*
X18000000Y-10675000D01*
X19025000Y-10675000D02*
X19300000Y-10400000D01*
X46800000Y55646250D02*
X46800000Y54621250D01*
X18000000Y-10675000D02*
X19025000Y-10675000D01*
X45250000Y54346250D02*
X44725000Y53821250D01*
X47075000Y54346250D02*
X45250000Y54346250D01*
D85*
%TO.N,VSYS_VIB*%
X24500000Y-4000000D02*
X24900000Y-4400000D01*
D86*
X22400000Y-10925000D02*
X23000000Y-10925000D01*
D85*
X22400000Y-4000000D02*
X24500000Y-4000000D01*
D86*
X21650000Y-10400000D02*
X22175000Y-10925000D01*
D85*
X20900000Y-4900000D02*
X21500000Y-4900000D01*
X24900000Y-4400000D02*
X24900000Y-10400000D01*
X21500000Y-4900000D02*
X22400000Y-4000000D01*
X20900000Y-4015000D02*
X20035000Y-3150000D01*
D86*
X22175000Y-10925000D02*
X22400000Y-10925000D01*
X21500000Y-10400000D02*
X21650000Y-10400000D01*
X21425000Y-11900000D02*
X22400000Y-10925000D01*
D85*
X24900000Y-10400000D02*
X24400000Y-10900000D01*
D86*
X21425000Y-12750000D02*
X21425000Y-11900000D01*
D85*
X23025000Y-10900000D02*
X23000000Y-10925000D01*
X24400000Y-10900000D02*
X23025000Y-10900000D01*
X20900000Y-4900000D02*
X20900000Y-4015000D01*
D88*
%TO.N,SHPHLD*%
X43556112Y-11946032D02*
X43308441Y-11698361D01*
X43556112Y-12583697D02*
X43556112Y-11946032D01*
D10*
%TO.N,/Project Architecture/Connectors/CC1*%
X29750000Y-18446250D02*
X29750000Y-17366240D01*
X29750000Y-17366240D02*
X29250000Y-16866240D01*
%TO.N,/Project Architecture/Connectors/CC2*%
X32750000Y-18446250D02*
X32750000Y-17116250D01*
X32750000Y-17116250D02*
X33000000Y-16866250D01*
X33000000Y-16866250D02*
X33000000Y-16366250D01*
D90*
%TO.N,/Project Architecture/Connectors/D1_N*%
X64092660Y-5526300D02*
X64873700Y-6307340D01*
X64873700Y-6307340D02*
X64873700Y-7048699D01*
X30250000Y-10316250D02*
X30250000Y-10053749D01*
X30276300Y-10027449D02*
X30276300Y-9157340D01*
X65200000Y-7374999D02*
X65200000Y-8500000D01*
X33907340Y-5526300D02*
X64092660Y-5526300D01*
X30276300Y-9157340D02*
X33907340Y-5526300D01*
X30250000Y-10053749D02*
X30276300Y-10027449D01*
X64873700Y-7048699D02*
X65200000Y-7374999D01*
%TO.N,/Project Architecture/Connectors/D1_P*%
X30723700Y-9342660D02*
X34092660Y-5973700D01*
X30750000Y-10316250D02*
X30750000Y-10053749D01*
X30723700Y-10027449D02*
X30723700Y-9342660D01*
X64426300Y-6492660D02*
X64426300Y-7048699D01*
X63907340Y-5973700D02*
X64426300Y-6492660D01*
X64426300Y-7048699D02*
X64100000Y-7374999D01*
X30750000Y-10053749D02*
X30723700Y-10027449D01*
X64100000Y-7374999D02*
X64100000Y-8500000D01*
X34092660Y-5973700D02*
X63907340Y-5973700D01*
D87*
%TO.N,/Project Architecture/Power Supply/SW1*%
X47660132Y-15783717D02*
X48310122Y-16433707D01*
X47256122Y-15783717D02*
X47660132Y-15783717D01*
X48310122Y-16433707D02*
X51171112Y-16433707D01*
X51171112Y-16433707D02*
X51356122Y-16248697D01*
%TO.N,/Project Architecture/Power Supply/SW2*%
X49921132Y-14083707D02*
X50071122Y-14233697D01*
D88*
X50071122Y-14233697D02*
X49871132Y-14033707D01*
D87*
X47256122Y-14783717D02*
X47698624Y-14783717D01*
X47698624Y-14783717D02*
X48398634Y-14083707D01*
X48398634Y-14083707D02*
X49921132Y-14083707D01*
D10*
%TO.N,Net-(U7-OUTN)*%
X41250000Y50533750D02*
X41250000Y51728750D01*
X41250000Y51728750D02*
X40750000Y52228750D01*
%TO.N,Net-(U7-OUTP)*%
X41750000Y51728750D02*
X42250000Y52228750D01*
X41750000Y50533750D02*
X41750000Y51728750D01*
D85*
%TO.N,/Project Architecture/Misc/LED1_R*%
X35750000Y59770000D02*
X35750000Y60250000D01*
X35750000Y60250000D02*
X35250000Y60750000D01*
X35250000Y60750000D02*
X35250000Y61000000D01*
D10*
%TO.N,/Project Architecture/Misc/LED1_B*%
X33490000Y53750000D02*
X32750000Y53750000D01*
X32750000Y53750000D02*
X32500000Y53500000D01*
X32500000Y53500000D02*
X32000000Y53500000D01*
D85*
%TO.N,/Project Architecture/Misc/LED1_G*%
X35750000Y57500000D02*
X36000000Y57250000D01*
X35750000Y58250000D02*
X35750000Y57500000D01*
D89*
%TO.N,Net-(U2-FB)*%
X9750000Y-15700000D02*
X10750000Y-15700000D01*
X12750000Y-16200000D02*
X12250000Y-15700000D01*
X12750000Y-16700000D02*
X12750000Y-16200000D01*
X12800000Y-18312500D02*
X12800000Y-16750000D01*
X12250000Y-15700000D02*
X10750000Y-15700000D01*
X12800000Y-16750000D02*
X12750000Y-16700000D01*
D88*
%TO.N,Net-(U5-VSET1)*%
X42206122Y-10706224D02*
X42206122Y-13133707D01*
X42206122Y-13133707D02*
X42356112Y-13283697D01*
%TO.N,Net-(U5-VSET2)*%
X43056112Y-12583697D02*
X42856122Y-12383707D01*
X42856122Y-12383707D02*
X42856122Y-10643980D01*
X42856122Y-10643980D02*
X43000000Y-10500102D01*
D86*
%TO.N,VSYS_AUD*%
X46975000Y52146250D02*
X47075000Y52146250D01*
X44800000Y52471250D02*
X45125000Y52146250D01*
X46550000Y50421250D02*
X46025000Y49896250D01*
X44792500Y49896250D02*
X44750000Y49853750D01*
X43500000Y49678750D02*
X42500000Y49678750D01*
X42620000Y49428750D02*
X42500000Y49428750D01*
X44750000Y49853750D02*
X43675000Y49853750D01*
X44800000Y49903750D02*
X44750000Y49853750D01*
X43500000Y49678750D02*
X42870000Y49678750D01*
X46550000Y50646250D02*
X46550000Y50421250D01*
X44725000Y52471250D02*
X44800000Y52471250D01*
X46025000Y49896250D02*
X44792500Y49896250D01*
X46550000Y51721250D02*
X46975000Y52146250D01*
X46550000Y50646250D02*
X46550000Y51721250D01*
X42870000Y49678750D02*
X42620000Y49428750D01*
X45125000Y52146250D02*
X47075000Y52146250D01*
X43675000Y49853750D02*
X43500000Y49678750D01*
D10*
%TO.N,Net-(U7-GAIN_SLOT)*%
X40500000Y45928750D02*
X40750000Y46178750D01*
X40750000Y46178750D02*
X40750000Y47533750D01*
D85*
%TO.N,Net-(R28-Pad2)*%
X34900000Y55410000D02*
X34910000Y55410000D01*
X35000000Y55500000D02*
X35000000Y56000000D01*
X35000000Y56000000D02*
X35250000Y56250000D01*
X34740000Y55250000D02*
X34900000Y55410000D01*
X34910000Y55410000D02*
X35000000Y55500000D01*
D10*
%TO.N,/Project Architecture/Gas Sensors/o2_out*%
X57250000Y23922500D02*
X57250000Y22922500D01*
X57750000Y13500000D02*
X60250000Y16000000D01*
X53500000Y14250000D02*
X54250000Y13500000D01*
X53000000Y17175000D02*
X53500000Y16675000D01*
X60250000Y16000000D02*
X60250000Y23000000D01*
X59327500Y23922500D02*
X57250000Y23922500D01*
X54250000Y13500000D02*
X57750000Y13500000D01*
X53500000Y16675000D02*
X53500000Y14250000D01*
X53000000Y18100000D02*
X53000000Y17175000D01*
X60250000Y23000000D02*
X59327500Y23922500D01*
%TO.N,Net-(U12-ALERT{slash}RDY)*%
X52000000Y18100000D02*
X52000000Y17250000D01*
D89*
%TO.N,Net-(U2-SW)*%
X17437500Y-18312500D02*
X18500000Y-17250000D01*
X14700000Y-18312500D02*
X17437500Y-18312500D01*
D88*
%TO.N,/Project Architecture/Connectors/BAT_NTC*%
X41906112Y-13783697D02*
X42356112Y-13783697D01*
X41516122Y-11463707D02*
X41516122Y-13393707D01*
X41516122Y-13393707D02*
X41906112Y-13783697D01*
D10*
%TO.N,/Project Architecture/Misc/AUDIO-*%
X40750000Y57881250D02*
X40235000Y58396250D01*
X40750000Y53628750D02*
X40750000Y57881250D01*
%TO.N,/Project Architecture/Misc/AUDIO+*%
X42250000Y57871250D02*
X42775000Y58396250D01*
X42250000Y53628750D02*
X42250000Y57871250D01*
%TO.N,/Project Architecture/Misc/AMP_SD*%
X42355000Y46928750D02*
X41750000Y47533750D01*
X42750000Y46928750D02*
X42355000Y46928750D01*
D85*
%TO.N,/Project Architecture/DISPLAY/DISP_LED+*%
X12250000Y-23700000D02*
X4975000Y-23700000D01*
X4975000Y-23700000D02*
X4000000Y-24675000D01*
%TO.N,/Project Architecture/DISPLAY/DISP_LED-*%
X3500000Y-18950000D02*
X7750000Y-14700000D01*
X7750000Y-14700000D02*
X9750000Y-14700000D01*
X3500000Y-24675000D02*
X3500000Y-18950000D01*
D89*
%TO.N,VBUS*%
X28250000Y-13666250D02*
X28200000Y-13616250D01*
X28450000Y-17421250D02*
X28550000Y-17421250D01*
X28250000Y-16866240D02*
X28250000Y-17221250D01*
X33378970Y-17487280D02*
X33378970Y-18567595D01*
X28250000Y-16866240D02*
X28250000Y-15866250D01*
X28550000Y-17421250D02*
X28550000Y-18446250D01*
X28250000Y-15866250D02*
X28250000Y-14866240D01*
X28250000Y-17221250D02*
X28450000Y-17421250D01*
X28250000Y-14866240D02*
X28250000Y-13666250D01*
D90*
%TO.N,/Project Architecture/Connectors/D-*%
X30250000Y-19500000D02*
X30250000Y-18616250D01*
X31250000Y-18616250D02*
X31250000Y-19500000D01*
D10*
X31250000Y-18446250D02*
X31250000Y-19116250D01*
X30250000Y-19116250D02*
X30250000Y-18446250D01*
D90*
X30276300Y-15431083D02*
X30252010Y-15431083D01*
X29901300Y-15080373D02*
X29901300Y-14584393D01*
X30500000Y-19750000D02*
X30250000Y-19500000D01*
X31250000Y-19500000D02*
X31000000Y-19750000D01*
X31000000Y-19750000D02*
X30500000Y-19750000D01*
X30276300Y-17539949D02*
X30276300Y-15431083D01*
X29901300Y-14584393D02*
X30000000Y-14485693D01*
X30252010Y-15431083D02*
X29901300Y-15080373D01*
X30250000Y-17566249D02*
X30276300Y-17539949D01*
X30000000Y-14485693D02*
X30000000Y-14086250D01*
X30250000Y-18616250D02*
X30250000Y-17566249D01*
%TO.N,/Project Architecture/Connectors/D-_mid*%
X29901300Y-12547550D02*
X30000000Y-12646250D01*
X29901300Y-11264950D02*
X29901300Y-12547550D01*
X30250000Y-10916250D02*
X29901300Y-11264950D01*
D91*
X30000000Y-12366250D02*
X30000000Y-12484600D01*
D90*
%TO.N,/Project Architecture/Connectors/D+_mid*%
X31098700Y-11264950D02*
X31098700Y-12547550D01*
X31098700Y-12547550D02*
X31000000Y-12646250D01*
X30750000Y-10916250D02*
X31098700Y-11264950D01*
%TO.N,/Project Architecture/Connectors/D+*%
X31098700Y-15080373D02*
X31098700Y-14584393D01*
X31750000Y-18616250D02*
X31750000Y-17750000D01*
X30750000Y-18616250D02*
X30750000Y-17566249D01*
X30723700Y-17539949D02*
X30723700Y-15431083D01*
X31750000Y-17750000D02*
X31500000Y-17500000D01*
X30750000Y-17750000D02*
X30750000Y-18616250D01*
X31500000Y-17500000D02*
X31000000Y-17500000D01*
X31098700Y-14584393D02*
X31000000Y-14485693D01*
X30723700Y-15431083D02*
X30747990Y-15431083D01*
X31000000Y-14485693D02*
X31000000Y-14086250D01*
X30750000Y-17566249D02*
X30723700Y-17539949D01*
X30747990Y-15431083D02*
X31098700Y-15080373D01*
X31000000Y-17500000D02*
X30750000Y-17750000D01*
D85*
%TO.N,Net-(Q5-D1)*%
X36100000Y59000000D02*
X36250000Y58850000D01*
X35000000Y59000000D02*
X36100000Y59000000D01*
X34000000Y58250000D02*
X34250000Y58250000D01*
X34250000Y58250000D02*
X35000000Y59000000D01*
X36250000Y58850000D02*
X36250000Y58250000D01*
%TO.N,Net-(Q5-D2)*%
X34625000Y59770000D02*
X35050000Y59770000D01*
X34145000Y60250000D02*
X34625000Y59770000D01*
X34000000Y60250000D02*
X34145000Y60250000D01*
D10*
%TO.N,Net-(Q4-D1)*%
X35749702Y54989702D02*
X35749702Y54749702D01*
X35250000Y54250000D02*
X35010000Y54250000D01*
X35749702Y54749702D02*
X35250000Y54250000D01*
%TO.N,Net-(Q4-G2)*%
X35010000Y53750000D02*
X35010000Y53250000D01*
D86*
%TO.N,Net-(U4-SET)*%
X22750000Y-8500000D02*
X21500000Y-8500000D01*
D10*
%TO.N,Net-(U6-SET)*%
X49000000Y52121250D02*
X48975000Y52146250D01*
X49000000Y51000000D02*
X49000000Y52121250D01*
D85*
%TO.N,Net-(Q3-G1)*%
X17650000Y-6400000D02*
X18390000Y-6400000D01*
D10*
%TO.N,Net-(Q3-G2)*%
X19910000Y-6400000D02*
X19910000Y-6900000D01*
D85*
%TO.N,Net-(Q3-D1)*%
X21800000Y-6800000D02*
X22400000Y-6800000D01*
X20900000Y-5900000D02*
X21800000Y-6800000D01*
X22400000Y-6800000D02*
X22400000Y-6550000D01*
X19910000Y-5900000D02*
X20900000Y-5900000D01*
D89*
%TO.N,Net-(U10-Pad2)*%
X-14000000Y-12000000D02*
X-17730000Y-12000000D01*
%TO.N,Net-(J3-SHIELD)*%
X25750000Y-17616250D02*
X25750000Y-16866250D01*
X36000000Y-17866250D02*
X36000000Y-16866250D01*
X35320000Y-19011250D02*
X35320000Y-18546250D01*
X35320000Y-18546250D02*
X36000000Y-17866250D01*
X26680000Y-18546250D02*
X25750000Y-17616250D01*
X26680000Y-19011250D02*
X26680000Y-18546250D01*
%TO.N,Net-(D3-Pad1)*%
X33600000Y44250000D02*
X33600000Y41900000D01*
X33400000Y41700000D02*
X33600000Y41900000D01*
X30500000Y41700000D02*
X33400000Y41700000D01*
D85*
%TO.N,Net-(LED2-G-)*%
X32330000Y59250000D02*
X32230000Y59350000D01*
X34000000Y59250000D02*
X32330000Y59250000D01*
%TO.N,Net-(LED2-R-)*%
X32480000Y57500000D02*
X32230000Y57750000D01*
X34000000Y57250000D02*
X33857614Y57250000D01*
X33857614Y57250000D02*
X33607614Y57500000D01*
X33607614Y57500000D02*
X32480000Y57500000D01*
%TO.N,Net-(LED2-B-)*%
X34250000Y56250000D02*
X32330000Y56250000D01*
X32330000Y56250000D02*
X32230000Y56150000D01*
D88*
%TO.N,/Project Architecture/Power Supply/NPM1300_GPIO0*%
X47349922Y-12147507D02*
X47976122Y-12773707D01*
X47349922Y-10899907D02*
X47349922Y-12147507D01*
X47616132Y-13783697D02*
X47256122Y-13783697D01*
X47976122Y-13423707D02*
X47616132Y-13783697D01*
X47976122Y-12773707D02*
X47976122Y-13423707D01*
%TO.N,/Project Architecture/Power Supply/NPM1300_GPIO1*%
X47036122Y-13063697D02*
X47256122Y-13283697D01*
D10*
%TO.N,/Project Architecture/Connectors/I2C_SCL*%
X51350000Y22400000D02*
X51000000Y22750000D01*
X51500000Y22400000D02*
X51350000Y22400000D01*
D88*
X43876122Y-11413697D02*
X44056102Y-11593677D01*
X44056102Y-11593677D02*
X44056102Y-12583697D01*
%TO.N,/Project Architecture/Connectors/I2C_SDA*%
X44556132Y-12033707D02*
X44556132Y-12583697D01*
X44656122Y-11423697D02*
X44656122Y-11663707D01*
X44656122Y-11933697D02*
X44556122Y-12033697D01*
X44656122Y-11663707D02*
X44656122Y-11933697D01*
D10*
X52000000Y22400000D02*
X52000000Y23000000D01*
D88*
X44556122Y-12033697D02*
X44556132Y-12033707D01*
D10*
X52000000Y23000000D02*
X51500000Y23500000D01*
%TO.N,VDD_BMV*%
X47230000Y8750000D02*
X47375000Y8605000D01*
X46630000Y8750000D02*
X47230000Y8750000D01*
X47375000Y8605000D02*
X47584413Y8605000D01*
X47584413Y8605000D02*
X47698386Y8491027D01*
D85*
X47698386Y8491027D02*
X47698386Y8531614D01*
X47698386Y8531614D02*
X47625000Y8605000D01*
D10*
%TO.N,Net-(JP4-B)*%
X47698386Y9491027D02*
X47698386Y9781614D01*
X47275000Y10205000D02*
X47275000Y11855000D01*
X47270000Y9250000D02*
X47375000Y9355000D01*
X47562359Y9355000D02*
X47698386Y9491027D01*
X47375000Y9355000D02*
X47562359Y9355000D01*
X47698386Y9781614D02*
X47275000Y10205000D01*
X46630000Y9250000D02*
X47270000Y9250000D01*
D85*
%TO.N,/Project Architecture/Misc/INT1_ACCEL*%
X46000000Y8120000D02*
X46000000Y7230000D01*
X46000000Y7230000D02*
X46125000Y7105000D01*
%TO.N,/Project Architecture/Misc/INT2_ACCEL*%
X45500000Y7230000D02*
X45375000Y7105000D01*
X45500000Y8120000D02*
X45500000Y7230000D01*
D10*
%TO.N,Net-(U12-ADDR)*%
X51500000Y18100000D02*
X51250000Y17850000D01*
X51250000Y17850000D02*
X51250000Y16750000D01*
X51500000Y15750000D02*
X51500000Y16500000D01*
X51250000Y16750000D02*
X51500000Y16500000D01*
%TO.N,/Project Architecture/Gas Sensors/o2+*%
X55250000Y22922500D02*
X55250000Y27550000D01*
X55250000Y21495000D02*
X55410000Y21335000D01*
X55250000Y22922500D02*
X55250000Y21495000D01*
X55250000Y27550000D02*
X59450000Y31750000D01*
%TO.N,Net-(U13--)*%
X55410000Y17082500D02*
X55410000Y19060000D01*
X58750000Y16422500D02*
X58000000Y15672500D01*
X55250000Y16172500D02*
X55250000Y16672500D01*
X55750000Y15672500D02*
X55250000Y16172500D01*
X55250000Y16672500D02*
X55250000Y16922500D01*
X58000000Y15672500D02*
X55750000Y15672500D01*
X55250000Y16922500D02*
X55410000Y17082500D01*
X58750000Y17672500D02*
X58750000Y16422500D01*
%TO.N,Net-(U14-C1)*%
X48815686Y20000000D02*
X49500000Y20000000D01*
X48315686Y20500000D02*
X48815686Y20000000D01*
X47660000Y20500000D02*
X48315686Y20500000D01*
%TO.N,Net-(U14-C2)*%
X47660000Y20000000D02*
X48250000Y20000000D01*
X48250000Y20000000D02*
X49250000Y19000000D01*
X49250000Y19000000D02*
X49500000Y19000000D01*
%TO.N,Net-(R48-Pad1)*%
X58750000Y18672500D02*
X58750000Y19997500D01*
%TO.N,Net-(U14-VREF)*%
X48750000Y21000000D02*
X47660000Y21000000D01*
%TO.N,Net-(R51-Pad2)*%
X58750000Y22422500D02*
X58250000Y22922500D01*
X58250000Y22275000D02*
X58250000Y22922500D01*
X58737500Y21335000D02*
X58750000Y21347500D01*
X58750000Y21347500D02*
X58750000Y22422500D01*
X57310000Y21335000D02*
X58737500Y21335000D01*
X57310000Y21335000D02*
X58250000Y22275000D01*
%TO.N,/Project Architecture/Gas Sensors/co_out*%
X50000000Y18000000D02*
X49000000Y18000000D01*
X53500000Y19250000D02*
X53000000Y19750000D01*
X53000000Y19750000D02*
X51750000Y19750000D01*
X47660000Y19340000D02*
X47660000Y19500000D01*
X53500000Y18100000D02*
X53500000Y19250000D01*
X51750000Y19750000D02*
X50000000Y18000000D01*
X49000000Y18000000D02*
X47660000Y19340000D01*
%TO.N,/Project Architecture/Gas Sensors/co_we*%
X43683149Y32816851D02*
X45250000Y32816851D01*
X49250000Y22250000D02*
X49250000Y35750000D01*
X43000000Y36250000D02*
X43000000Y33500000D01*
X47500000Y37500000D02*
X44250000Y37500000D01*
X47660000Y21500000D02*
X48500000Y21500000D01*
X44250000Y37500000D02*
X43000000Y36250000D01*
X49250000Y35750000D02*
X47500000Y37500000D01*
X43000000Y33500000D02*
X43683149Y32816851D01*
X48500000Y21500000D02*
X49250000Y22250000D01*
%TO.N,/Project Architecture/Gas Sensors/co_ce*%
X47660000Y22500000D02*
X47660000Y25326851D01*
X47660000Y25326851D02*
X45250000Y27736851D01*
%TO.N,/Project Architecture/Gas Sensors/co_re*%
X48500000Y22267500D02*
X48500000Y34750000D01*
X48232500Y22000000D02*
X48500000Y22267500D01*
X47893149Y35356851D02*
X45250000Y35356851D01*
X47660000Y22000000D02*
X48232500Y22000000D01*
X48500000Y34750000D02*
X47893149Y35356851D01*
D85*
%TO.N,VDD_ANALOG*%
X44230000Y8250000D02*
X44125000Y8355000D01*
X43125000Y8180000D02*
X43950000Y8180000D01*
X44870000Y8750000D02*
X44870000Y8250000D01*
X44870000Y8250000D02*
X44230000Y8250000D01*
D10*
X57250000Y19000000D02*
X57310000Y19060000D01*
D85*
X43950000Y8180000D02*
X44125000Y8355000D01*
D10*
X42750000Y20000000D02*
X43840000Y20000000D01*
D85*
X44870000Y8750000D02*
X44475000Y8355000D01*
D10*
X57250000Y17672500D02*
X57250000Y18172500D01*
D85*
X44475000Y8355000D02*
X44125000Y8355000D01*
D10*
X52500000Y23750000D02*
X52500000Y22400000D01*
X57250000Y18172500D02*
X57250000Y19000000D01*
%TD*%
M02*
