%TF.GenerationSoftware,KiCad,Pcbnew,9.0.8-9.0.8~ubuntu24.04.1*%
%TF.CreationDate,Date%
%TF.ProjectId,palroc_one_pcb,70616c72-6f63-45f6-9f6e-655f7063622e,rev?*%
%TF.SameCoordinates,Original*%
%TF.FileFunction,Soldermask,Top*%
%TF.FilePolarity,Negative*%
%FSLAX46Y46*%
G04 Gerber Fmt 4.6, Leading zero omitted, Abs format (unit mm)*
G04 Created by KiCad*
%MOMM*%
%LPD*%
G01*
G04 APERTURE LIST*
G04 Aperture macros list*
%AMRoundRect*
0 Rectangle with rounded corners*
0 $1 Rounding radius*
0 $2 $3 $4 $5 $6 $7 $8 $9 X,Y pos of 4 corners*
0 Add a 4 corners polygon primitive as box body*
4,1,4,$2,$3,$4,$5,$6,$7,$8,$9,$2,$3,0*
0 Add four circle primitives for the rounded corners*
1,1,$1+$1,$2,$3*
1,1,$1+$1,$4,$5*
1,1,$1+$1,$6,$7*
1,1,$1+$1,$8,$9*
0 Add four rect primitives between the rounded corners*
20,1,$1+$1,$2,$3,$4,$5,0*
20,1,$1+$1,$4,$5,$6,$7,0*
20,1,$1+$1,$6,$7,$8,$9,0*
20,1,$1+$1,$8,$9,$2,$3,0*%
%AMFreePoly0*
4,1,39,0.535355,0.785355,0.550000,0.750000,0.550000,-0.750000,0.535355,-0.785355,0.500000,-0.800000,0.000000,-0.800000,-0.010328,-0.795722,-0.065263,-0.795722,-0.078204,-0.794018,-0.204283,-0.760236,-0.216342,-0.755241,-0.329381,-0.689978,-0.339736,-0.682032,-0.432032,-0.589736,-0.439978,-0.579381,-0.505241,-0.466342,-0.510236,-0.454283,-0.544018,-0.328204,-0.545722,-0.315263,-0.545722,-0.260327,
-0.550000,-0.250000,-0.550000,0.250000,-0.545722,0.260327,-0.545722,0.315263,-0.544018,0.328204,-0.510236,0.454283,-0.505241,0.466342,-0.439978,0.579381,-0.432032,0.589736,-0.339736,0.682032,-0.329381,0.689978,-0.216342,0.755241,-0.204283,0.760236,-0.078204,0.794018,-0.065263,0.795722,-0.010328,0.795722,0.000000,0.800000,0.500000,0.800000,0.535355,0.785355,0.535355,0.785355,
$1*%
%AMFreePoly1*
4,1,39,0.010328,0.795722,0.065263,0.795722,0.078204,0.794018,0.204283,0.760236,0.216342,0.755241,0.329381,0.689978,0.339736,0.682032,0.432032,0.589736,0.439978,0.579381,0.505241,0.466342,0.510236,0.454283,0.544018,0.328204,0.545722,0.315263,0.545722,0.260327,0.550000,0.250000,0.550000,-0.250000,0.545722,-0.260327,0.545722,-0.315263,0.544018,-0.328204,0.510236,-0.454283,
0.505241,-0.466342,0.439978,-0.579381,0.432032,-0.589736,0.339736,-0.682032,0.329381,-0.689978,0.216342,-0.755241,0.204283,-0.760236,0.078204,-0.794018,0.065263,-0.795722,0.010328,-0.795722,0.000000,-0.800000,-0.500000,-0.800000,-0.535355,-0.785355,-0.550000,-0.750000,-0.550000,0.750000,-0.535355,0.785355,-0.500000,0.800000,0.000000,0.800000,0.010328,0.795722,0.010328,0.795722,
$1*%
G04 Aperture macros list end*
%ADD10RoundRect,0.050000X-0.250000X-0.300000X0.250000X-0.300000X0.250000X0.300000X-0.250000X0.300000X0*%
%ADD11RoundRect,0.050000X0.750000X-1.100000X0.750000X1.100000X-0.750000X1.100000X-0.750000X-1.100000X0*%
%ADD12RoundRect,0.050000X-0.275000X-0.300000X0.275000X-0.300000X0.275000X0.300000X-0.275000X0.300000X0*%
%ADD13RoundRect,0.050000X0.275000X0.300000X-0.275000X0.300000X-0.275000X-0.300000X0.275000X-0.300000X0*%
%ADD14RoundRect,0.050000X-0.300000X0.250000X-0.300000X-0.250000X0.300000X-0.250000X0.300000X0.250000X0*%
%ADD15RoundRect,0.050000X-0.400000X-0.375000X0.400000X-0.375000X0.400000X0.375000X-0.400000X0.375000X0*%
%ADD16RoundRect,0.050000X0.350000X0.750000X-0.350000X0.750000X-0.350000X-0.750000X0.350000X-0.750000X0*%
%ADD17C,0.750000*%
%ADD18O,0.950010X0.400000*%
%ADD19O,0.400000X0.950010*%
%ADD20RoundRect,0.050000X1.750000X1.750000X-1.750000X1.750000X-1.750000X-1.750000X1.750000X-1.750000X0*%
%ADD21C,3.900000*%
%ADD22RoundRect,0.050000X0.250000X0.300000X-0.250000X0.300000X-0.250000X-0.300000X0.250000X-0.300000X0*%
%ADD23RoundRect,0.287778X-0.489222X-0.714222X0.489222X-0.714222X0.489222X0.714222X-0.489222X0.714222X0*%
%ADD24RoundRect,0.050000X-0.690000X0.565000X-0.690000X-0.565000X0.690000X-0.565000X0.690000X0.565000X0*%
%ADD25RoundRect,0.050000X-0.250000X-0.150000X0.250000X-0.150000X0.250000X0.150000X-0.250000X0.150000X0*%
%ADD26RoundRect,0.050000X-0.565000X-0.690000X0.565000X-0.690000X0.565000X0.690000X-0.565000X0.690000X0*%
%ADD27RoundRect,0.050000X0.300000X-0.250000X0.300000X0.250000X-0.300000X0.250000X-0.300000X-0.250000X0*%
%ADD28RoundRect,0.050000X0.300000X-0.275000X0.300000X0.275000X-0.300000X0.275000X-0.300000X-0.275000X0*%
%ADD29RoundRect,0.050000X0.400000X0.375000X-0.400000X0.375000X-0.400000X-0.375000X0.400000X-0.375000X0*%
%ADD30RoundRect,0.050000X0.125000X0.300000X-0.125000X0.300000X-0.125000X-0.300000X0.125000X-0.300000X0*%
%ADD31RoundRect,0.050000X-0.300000X0.125000X-0.300000X-0.125000X0.300000X-0.125000X0.300000X0.125000X0*%
%ADD32RoundRect,0.050000X-0.125000X-0.300000X0.125000X-0.300000X0.125000X0.300000X-0.125000X0.300000X0*%
%ADD33RoundRect,0.050000X0.300000X-0.125000X0.300000X0.125000X-0.300000X0.125000X-0.300000X-0.125000X0*%
%ADD34RoundRect,0.050000X0.750000X-0.750000X0.750000X0.750000X-0.750000X0.750000X-0.750000X-0.750000X0*%
%ADD35RoundRect,0.050000X0.500000X-0.300000X0.500000X0.300000X-0.500000X0.300000X-0.500000X-0.300000X0*%
%ADD36RoundRect,0.050000X-0.135000X0.150000X-0.135000X-0.150000X0.135000X-0.150000X0.135000X0.150000X0*%
%ADD37FreePoly0,180.000000*%
%ADD38FreePoly1,180.000000*%
%ADD39RoundRect,0.050000X-0.332500X0.140000X-0.332500X-0.140000X0.332500X-0.140000X0.332500X0.140000X0*%
%ADD40RoundRect,0.050000X-1.300000X1.500000X-1.300000X-1.500000X1.300000X-1.500000X1.300000X1.500000X0*%
%ADD41RoundRect,0.267273X-0.570727X0.320727X-0.570727X-0.320727X0.570727X-0.320727X0.570727X0.320727X0*%
%ADD42RoundRect,0.175000X-0.175000X0.537500X-0.175000X-0.537500X0.175000X-0.537500X0.175000X0.537500X0*%
%ADD43RoundRect,0.050000X-0.775000X0.300000X-0.775000X-0.300000X0.775000X-0.300000X0.775000X0.300000X0*%
%ADD44RoundRect,0.050000X-0.900000X0.600000X-0.900000X-0.600000X0.900000X-0.600000X0.900000X0.600000X0*%
%ADD45RoundRect,0.050000X0.135000X-0.150000X0.135000X0.150000X-0.135000X0.150000X-0.135000X-0.150000X0*%
%ADD46RoundRect,0.050000X-0.300000X-0.500000X0.300000X-0.500000X0.300000X0.500000X-0.300000X0.500000X0*%
%ADD47RoundRect,0.050000X-0.300000X0.275000X-0.300000X-0.275000X0.300000X-0.275000X0.300000X0.275000X0*%
%ADD48RoundRect,0.050000X-0.150000X-0.135000X0.150000X-0.135000X0.150000X0.135000X-0.150000X0.135000X0*%
%ADD49O,0.680000X1.380000*%
%ADD50RoundRect,0.050000X2.150000X1.700000X-2.150000X1.700000X-2.150000X-1.700000X2.150000X-1.700000X0*%
%ADD51RoundRect,0.262500X0.787500X0.787500X-0.787500X0.787500X-0.787500X-0.787500X0.787500X-0.787500X0*%
%ADD52C,2.100000*%
%ADD53RoundRect,0.267273X-0.320727X-0.570727X0.320727X-0.570727X0.320727X0.570727X-0.320727X0.570727X0*%
%ADD54FreePoly0,0.000000*%
%ADD55FreePoly1,0.000000*%
%ADD56RoundRect,0.050000X0.375000X-0.400000X0.375000X0.400000X-0.375000X0.400000X-0.375000X-0.400000X0*%
%ADD57RoundRect,0.050000X1.052500X0.490000X-1.052500X0.490000X-1.052500X-0.490000X1.052500X-0.490000X0*%
%ADD58RoundRect,0.175000X-0.615000X-0.175000X0.615000X-0.175000X0.615000X0.175000X-0.615000X0.175000X0*%
%ADD59RoundRect,0.050000X-0.565000X0.910000X-0.565000X-0.910000X0.565000X-0.910000X0.565000X0.910000X0*%
%ADD60RoundRect,0.050000X0.595000X0.864000X-0.595000X0.864000X-0.595000X-0.864000X0.595000X-0.864000X0*%
%ADD61C,2.474900*%
%ADD62C,1.090600*%
%ADD63C,0.991400*%
%ADD64RoundRect,0.050000X-0.430000X0.400000X-0.430000X-0.400000X0.430000X-0.400000X0.430000X0.400000X0*%
%ADD65RoundRect,0.050000X-0.750000X1.100000X-0.750000X-1.100000X0.750000X-1.100000X0.750000X1.100000X0*%
%ADD66RoundRect,0.050000X-0.150000X-0.425000X0.150000X-0.425000X0.150000X0.425000X-0.150000X0.425000X0*%
%ADD67RoundRect,0.050000X-0.400000X-0.430000X0.400000X-0.430000X0.400000X0.430000X-0.400000X0.430000X0*%
%ADD68RoundRect,0.050000X1.700000X-0.750000X1.700000X0.750000X-1.700000X0.750000X-1.700000X-0.750000X0*%
%ADD69RoundRect,0.050000X1.750000X-0.500000X1.750000X0.500000X-1.750000X0.500000X-1.750000X-0.500000X0*%
%ADD70RoundRect,0.050000X-0.900000X-1.000000X0.900000X-1.000000X0.900000X1.000000X-0.900000X1.000000X0*%
%ADD71O,2.400000X2.400000*%
%ADD72RoundRect,0.050000X-0.150000X0.250000X-0.150000X-0.250000X0.150000X-0.250000X0.150000X0.250000X0*%
%ADD73RoundRect,0.050000X-0.500000X-1.000000X0.500000X-1.000000X0.500000X1.000000X-0.500000X1.000000X0*%
%ADD74RoundRect,0.050000X0.150000X0.600000X-0.150000X0.600000X-0.150000X-0.600000X0.150000X-0.600000X0*%
%ADD75RoundRect,0.050000X0.900000X1.000000X-0.900000X1.000000X-0.900000X-1.000000X0.900000X-1.000000X0*%
%ADD76RoundRect,0.050000X0.250000X-0.140000X0.250000X0.140000X-0.250000X0.140000X-0.250000X-0.140000X0*%
%ADD77RoundRect,0.050000X0.140000X-0.250000X0.140000X0.250000X-0.140000X0.250000X-0.140000X-0.250000X0*%
%ADD78RoundRect,0.050000X-0.150000X-0.175000X0.150000X-0.175000X0.150000X0.175000X-0.150000X0.175000X0*%
%ADD79C,0.700000*%
%ADD80RoundRect,0.050000X-0.150000X-0.700000X0.150000X-0.700000X0.150000X0.700000X-0.150000X0.700000X0*%
%ADD81RoundRect,0.050000X-0.250000X-0.700000X0.250000X-0.700000X0.250000X0.700000X-0.250000X0.700000X0*%
%ADD82O,1.400000X2.400000*%
%ADD83O,1.400000X2.200000*%
%ADD84C,0.600000*%
%ADD85RoundRect,0.516667X-2.033333X-1.033333X2.033333X-1.033333X2.033333X1.033333X-2.033333X1.033333X0*%
%ADD86RoundRect,0.050000X0.150000X0.400000X-0.150000X0.400000X-0.150000X-0.400000X0.150000X-0.400000X0*%
%ADD87RoundRect,0.050000X0.150000X0.300000X-0.150000X0.300000X-0.150000X-0.300000X0.150000X-0.300000X0*%
%ADD88RoundRect,0.050000X0.200000X0.475000X-0.200000X0.475000X-0.200000X-0.475000X0.200000X-0.475000X0*%
%ADD89RoundRect,0.050000X0.910000X0.565000X-0.910000X0.565000X-0.910000X-0.565000X0.910000X-0.565000X0*%
%ADD90RoundRect,0.465000X1.085000X-1.085000X1.085000X1.085000X-1.085000X1.085000X-1.085000X-1.085000X0*%
%ADD91RoundRect,0.050000X0.565000X0.690000X-0.565000X0.690000X-0.565000X-0.690000X0.565000X-0.690000X0*%
%ADD92RoundRect,0.050000X0.125000X-0.550000X0.125000X0.550000X-0.125000X0.550000X-0.125000X-0.550000X0*%
G04 APERTURE END LIST*
%TO.C,JP1*%
G36*
X-11200000Y-24000000D02*
G01*
X-11500000Y-24000000D01*
X-11500000Y-22500000D01*
X-11200000Y-22500000D01*
X-11200000Y-24000000D01*
G37*
%TO.C,JP3*%
G36*
X35100000Y-1750000D02*
G01*
X35400000Y-1750000D01*
X35400000Y-3250000D01*
X35100000Y-3250000D01*
X35100000Y-1750000D01*
G37*
%TO.C,JP2*%
G36*
X35100000Y1800000D02*
G01*
X35400000Y1800000D01*
X35400000Y300000D01*
X35100000Y300000D01*
X35100000Y1800000D01*
G37*
%TO.C,JP4*%
G36*
X46475000Y12605000D02*
G01*
X46775000Y12605000D01*
X46775000Y11105000D01*
X46475000Y11105000D01*
X46475000Y12605000D01*
G37*
%TD*%
D10*
%TO.C,C39*%
X43500000Y53678750D03*
X43500000Y52678750D03*
%TD*%
D11*
%TO.C,SW1*%
X26000000Y41700000D03*
X26000000Y50300000D03*
X30500000Y41700000D03*
X30500000Y50300000D03*
%TD*%
D12*
%TO.C,R24*%
X32000000Y54500000D03*
X32000000Y53500000D03*
%TD*%
D13*
%TO.C,R31*%
X34000000Y57250000D03*
X34000000Y58250000D03*
%TD*%
D10*
%TO.C,C8*%
X13250000Y-22700000D03*
X13250000Y-23700000D03*
%TD*%
D14*
%TO.C,C16*%
X40950000Y-14000102D03*
X39950000Y-14000102D03*
%TD*%
D15*
%TO.C,C36*%
X44750000Y49853750D03*
X44750000Y48503750D03*
%TD*%
D12*
%TO.C,R17*%
X55700000Y-11650102D03*
X55700000Y-12650102D03*
%TD*%
D16*
%TO.C,U1*%
X71800000Y-8500000D03*
X70700000Y-8500000D03*
X69600000Y-8500000D03*
X68500000Y-8500000D03*
X67400000Y-8500000D03*
X66300000Y-8500000D03*
X65200000Y-8500000D03*
X64100000Y-8500000D03*
X63000000Y-8500000D03*
X61900000Y-8500000D03*
X61900000Y-20500000D03*
X63000000Y-20500000D03*
X64100000Y-20500000D03*
X65200000Y-20500000D03*
X66300000Y-20500000D03*
X67400000Y-20500000D03*
X68500000Y-20500000D03*
X69600000Y-20500000D03*
X70700000Y-20500000D03*
X71800000Y-20500000D03*
D17*
X72500000Y-10750000D03*
X71300000Y-10750000D03*
X70100000Y-10750000D03*
X68900000Y-10750000D03*
X67700000Y-10750000D03*
X66500000Y-10750000D03*
X65300000Y-10750000D03*
X64100000Y-10750000D03*
X62900000Y-10750000D03*
X61700000Y-10750000D03*
X72500000Y-12250000D03*
X71300000Y-12250000D03*
X70100000Y-12250000D03*
X68900000Y-12250000D03*
X67700000Y-12250000D03*
X66500000Y-12250000D03*
X65300000Y-12250000D03*
X64100000Y-12250000D03*
X62900000Y-12250000D03*
X61700000Y-12250000D03*
X72500000Y-13750000D03*
X71300000Y-13750000D03*
X70100000Y-13750000D03*
X68900000Y-13750000D03*
X67700000Y-13750000D03*
X66500000Y-13750000D03*
X65300000Y-13750000D03*
X64100000Y-13750000D03*
X62900000Y-13750000D03*
X61700000Y-13750000D03*
X72500000Y-15250000D03*
X71300000Y-15250000D03*
X70100000Y-15250000D03*
X68900000Y-15250000D03*
X67700000Y-15250000D03*
X66500000Y-15250000D03*
X65300000Y-15250000D03*
X64100000Y-15250000D03*
X62900000Y-15250000D03*
X61700000Y-15250000D03*
X72500000Y-16750000D03*
X71300000Y-16750000D03*
X70100000Y-16750000D03*
X68900000Y-16750000D03*
X67700000Y-16750000D03*
X66500000Y-16750000D03*
X65300000Y-16750000D03*
X64100000Y-16750000D03*
X62900000Y-16750000D03*
X61700000Y-16750000D03*
X72500000Y-18250000D03*
X71300000Y-18250000D03*
X70100000Y-18250000D03*
X68900000Y-18250000D03*
X67700000Y-18250000D03*
X66500000Y-18250000D03*
X65300000Y-18250000D03*
X64100000Y-18250000D03*
X62900000Y-18250000D03*
X61700000Y-18250000D03*
%TD*%
D13*
%TO.C,R20*%
X17650000Y-7400000D03*
X17650000Y-6400000D03*
%TD*%
D18*
%TO.C,U5*%
X47250000Y-16800122D03*
X47250000Y-16300122D03*
X47250000Y-15800122D03*
X47250000Y-15300102D03*
X47250000Y-14800122D03*
X47250000Y-14300102D03*
X47250000Y-13800102D03*
X47250000Y-13300102D03*
D19*
X46550000Y-12600102D03*
X46050010Y-12600102D03*
X45550010Y-12600102D03*
X45049980Y-12600102D03*
X44550010Y-12600102D03*
X44049980Y-12600102D03*
X43549990Y-12600102D03*
X43049990Y-12600102D03*
D18*
X42349990Y-13300102D03*
X42349990Y-13800102D03*
X42349990Y-14300102D03*
X42349990Y-14800122D03*
X42349990Y-15300102D03*
X42349990Y-15800122D03*
X42349990Y-16300122D03*
X42349990Y-16800122D03*
D19*
X43049990Y-17500122D03*
X43549990Y-17500122D03*
X44049980Y-17500122D03*
X44550010Y-17500122D03*
X45049980Y-17500122D03*
X45550010Y-17500122D03*
X46050010Y-17500122D03*
X46550000Y-17500122D03*
D20*
X44800000Y-15050112D03*
%TD*%
D21*
%TO.C,H1*%
X72250000Y59000000D03*
%TD*%
D22*
%TO.C,C49*%
X52500000Y23750000D03*
X52500000Y24750000D03*
%TD*%
D10*
%TO.C,C40*%
X20900000Y-4900000D03*
X20900000Y-5900000D03*
%TD*%
D23*
%TO.C,S1*%
X-8575000Y-23250000D03*
X-4425000Y-23250000D03*
%TD*%
D24*
%TO.C,L8*%
X54050000Y-15980102D03*
X54050000Y-17920102D03*
%TD*%
D14*
%TO.C,C13*%
X28250000Y-14866240D03*
X27250000Y-14866240D03*
%TD*%
D12*
%TO.C,R48*%
X58750000Y18672500D03*
X58750000Y17672500D03*
%TD*%
D25*
%TO.C,Q3*%
X18390000Y-5900000D03*
X18390000Y-6400000D03*
X18390000Y-6900000D03*
X19910000Y-6900000D03*
X19910000Y-6400000D03*
X19910000Y-5900000D03*
%TD*%
D15*
%TO.C,R52*%
X58750000Y21347500D03*
X58750000Y19997500D03*
%TD*%
D26*
%TO.C,L6*%
X52030000Y-11850102D03*
X53970000Y-11850102D03*
%TD*%
D27*
%TO.C,C29*%
X53950000Y-14150102D03*
X54950000Y-14150102D03*
%TD*%
D28*
%TO.C,R21*%
X-12400000Y6240000D03*
X-11400000Y6240000D03*
%TD*%
D29*
%TO.C,C47*%
X43125000Y8180000D03*
X43125000Y9530000D03*
%TD*%
D14*
%TO.C,C23*%
X46300000Y-20000000D03*
X45300000Y-20000000D03*
%TD*%
D12*
%TO.C,R4*%
X10750000Y-15700000D03*
X10750000Y-16700000D03*
%TD*%
D13*
%TO.C,R1*%
X15250000Y-23700000D03*
X15250000Y-22700000D03*
%TD*%
D12*
%TO.C,R30*%
X49000000Y51000000D03*
X49000000Y50000000D03*
%TD*%
%TO.C,R13*%
X46325000Y-20815162D03*
X46325000Y-21815162D03*
%TD*%
D30*
%TO.C,U7*%
X40250000Y47533750D03*
X40750000Y47533750D03*
X41250000Y47533750D03*
X41750000Y47533750D03*
D31*
X42500000Y48283750D03*
X42500000Y48783750D03*
X42500000Y49283750D03*
X42500000Y49783750D03*
D32*
X41750000Y50533750D03*
X41250000Y50533750D03*
X40750000Y50533750D03*
X40250000Y50533750D03*
D33*
X39500000Y49783750D03*
X39500000Y49283750D03*
X39500000Y48783750D03*
X39500000Y48283750D03*
D34*
X41000000Y49033750D03*
%TD*%
D28*
%TO.C,R2*%
X12750000Y-16700000D03*
X13750000Y-16700000D03*
%TD*%
D14*
%TO.C,C41*%
X63000000Y-7000000D03*
X62000000Y-7000000D03*
%TD*%
D28*
%TO.C,R25*%
X-12400000Y-3010000D03*
X-11400000Y-3010000D03*
%TD*%
D35*
%TO.C,U4*%
X21500000Y-10400000D03*
X21500000Y-9450000D03*
X21500000Y-8500000D03*
X19300000Y-8500000D03*
X19300000Y-10400000D03*
%TD*%
D22*
%TO.C,C42*%
X-9900000Y-1510000D03*
X-9900000Y-510000D03*
%TD*%
D28*
%TO.C,R41*%
X57250000Y-21250000D03*
X58250000Y-21250000D03*
%TD*%
D36*
%TO.C,C26*%
X40534990Y-14750102D03*
X39965000Y-14750102D03*
%TD*%
D10*
%TO.C,C28*%
X49000000Y-21950102D03*
X49000000Y-22950102D03*
%TD*%
D37*
%TO.C,JP1*%
X-10700000Y-23250000D03*
D38*
X-12000000Y-23250000D03*
%TD*%
D39*
%TO.C,U14*%
X43840000Y22500000D03*
X43840000Y22000000D03*
X43840000Y21500000D03*
X43840000Y21000000D03*
X43840000Y20500000D03*
X43840000Y20000000D03*
X43840000Y19500000D03*
X47660000Y19500000D03*
X47660000Y20000000D03*
X47660000Y20500000D03*
X47660000Y21000000D03*
X47660000Y21500000D03*
X47660000Y22000000D03*
X47660000Y22500000D03*
D40*
X45750000Y21000000D03*
%TD*%
D10*
%TO.C,C14*%
X25500000Y-13616250D03*
X25500000Y-14616250D03*
%TD*%
D41*
%TO.C,D2*%
X22400000Y-4000000D03*
X22400000Y-6800000D03*
%TD*%
D28*
%TO.C,R27*%
X35000000Y57250000D03*
X36000000Y57250000D03*
%TD*%
D42*
%TO.C,U13*%
X57310000Y21335000D03*
X56360000Y21335000D03*
X55410000Y21335000D03*
X55410000Y19060000D03*
X57310000Y19060000D03*
%TD*%
D43*
%TO.C,CN1*%
X-20060000Y1750000D03*
X-20060000Y750000D03*
X-20060000Y-250000D03*
X-20060000Y-1250000D03*
D44*
X-23940000Y-2550000D03*
X-23940000Y3050000D03*
%TD*%
D28*
%TO.C,R22*%
X22750000Y-8500000D03*
X23750000Y-8500000D03*
%TD*%
%TO.C,R19*%
X40500000Y45928750D03*
X41500000Y45928750D03*
%TD*%
D45*
%TO.C,C34*%
X53965010Y-13400102D03*
X54535000Y-13400102D03*
%TD*%
D36*
%TO.C,C20*%
X49964990Y-17740112D03*
X49395000Y-17740112D03*
%TD*%
D14*
%TO.C,C52*%
X57250000Y23922500D03*
X56250000Y23922500D03*
%TD*%
D46*
%TO.C,U6*%
X47075000Y52146250D03*
X48025000Y52146250D03*
X48975000Y52146250D03*
X48975000Y54346250D03*
X47075000Y54346250D03*
%TD*%
D47*
%TO.C,R26*%
X36250000Y61000000D03*
X35250000Y61000000D03*
%TD*%
D48*
%TO.C,C25*%
X48600000Y-11965112D03*
X48600000Y-12535102D03*
%TD*%
D49*
%TO.C,U9*%
X-11340000Y4510000D03*
X-12620000Y4510000D03*
X-13880000Y4510000D03*
X-15150000Y4510000D03*
X-15150000Y-1510000D03*
X-13880000Y-1510000D03*
X-12620000Y-1510000D03*
X-11340000Y-1510000D03*
D50*
X-13250000Y1500000D03*
%TD*%
D22*
%TO.C,C9*%
X36000000Y-16866250D03*
X36000000Y-15866250D03*
%TD*%
D51*
%TO.C,J2*%
X42775000Y58396250D03*
D52*
X40235000Y58396250D03*
%TD*%
D53*
%TO.C,D4*%
X33600000Y41900000D03*
X36400000Y41900000D03*
%TD*%
D28*
%TO.C,R35*%
X38325000Y125000D03*
X39325000Y125000D03*
%TD*%
D54*
%TO.C,JP3*%
X34600000Y-2500000D03*
D55*
X35900000Y-2500000D03*
%TD*%
D12*
%TO.C,R10*%
X43000000Y-9500102D03*
X43000000Y-10500102D03*
%TD*%
D13*
%TO.C,R42*%
X52500000Y14750000D03*
X52500000Y15750000D03*
%TD*%
D56*
%TO.C,C45*%
X46800000Y55646250D03*
X48150000Y55646250D03*
%TD*%
D10*
%TO.C,C37*%
X43500000Y49678750D03*
X43500000Y48678750D03*
%TD*%
D57*
%TO.C,LED2*%
X32230000Y56150000D03*
X32230000Y57750000D03*
X32230000Y59350000D03*
X27770000Y59350000D03*
X27770000Y57750000D03*
X27770000Y56150000D03*
%TD*%
D29*
%TO.C,C44*%
X23000000Y-10925000D03*
X23000000Y-9575000D03*
%TD*%
%TO.C,C24*%
X48850000Y-14775112D03*
X48850000Y-13425112D03*
%TD*%
D10*
%TO.C,C6*%
X60250000Y-11250000D03*
X60250000Y-12250000D03*
%TD*%
D58*
%TO.C,Q1*%
X9060000Y-18500000D03*
X9060000Y-20400000D03*
X10940000Y-19450000D03*
%TD*%
D13*
%TO.C,R47*%
X49500000Y19000000D03*
X49500000Y20000000D03*
%TD*%
D56*
%TO.C,R9*%
X20075000Y-12750000D03*
X21425000Y-12750000D03*
%TD*%
D59*
%TO.C,R33*%
X20035000Y-3150000D03*
X18265000Y-3150000D03*
%TD*%
D14*
%TO.C,C50*%
X57250000Y17672500D03*
X56250000Y17672500D03*
%TD*%
D12*
%TO.C,R11*%
X42250000Y-9500102D03*
X42250000Y-10500102D03*
%TD*%
D60*
%TO.C,U10*%
X-11100000Y-12000000D03*
X-14000000Y-12000000D03*
%TD*%
D61*
%TO.C,TC2*%
X50230000Y2655000D03*
D62*
X50230000Y115000D03*
D61*
X50230000Y-2425000D03*
X53405000Y2655000D03*
X53405000Y-2425000D03*
D62*
X55310000Y1131000D03*
X55310000Y-901000D03*
D63*
X51500000Y-520000D03*
X51500000Y750000D03*
X52770000Y-520000D03*
X52770000Y750000D03*
X54040000Y-520000D03*
X54040000Y750000D03*
%TD*%
D13*
%TO.C,R38*%
X46125000Y6105000D03*
X46125000Y7105000D03*
%TD*%
D28*
%TO.C,R51*%
X57250000Y22922500D03*
X58250000Y22922500D03*
%TD*%
D14*
%TO.C,C35*%
X40499960Y-16800102D03*
X39499960Y-16800102D03*
%TD*%
D15*
%TO.C,R12*%
X44725000Y53821250D03*
X44725000Y52471250D03*
%TD*%
D10*
%TO.C,C51*%
X42750000Y20000000D03*
X42750000Y19000000D03*
%TD*%
D64*
%TO.C,L10*%
X42250000Y52228750D03*
X42250000Y53628750D03*
%TD*%
D45*
%TO.C,C17*%
X45165010Y-11700102D03*
X45735000Y-11700102D03*
%TD*%
D28*
%TO.C,R23*%
X-14600000Y-23250000D03*
X-13600000Y-23250000D03*
%TD*%
D65*
%TO.C,SW2*%
X30500000Y29700000D03*
X30500000Y21100000D03*
X26000000Y29700000D03*
X26000000Y21100000D03*
%TD*%
D13*
%TO.C,R32*%
X34000000Y59250000D03*
X34000000Y60250000D03*
%TD*%
D12*
%TO.C,R16*%
X47400000Y-21950102D03*
X47400000Y-22950102D03*
%TD*%
D14*
%TO.C,C15*%
X40850000Y-15600102D03*
X39850000Y-15600102D03*
%TD*%
%TO.C,C11*%
X28250000Y-16866240D03*
X27250000Y-16866240D03*
%TD*%
%TO.C,C27*%
X44300000Y-18930242D03*
X43300000Y-18930242D03*
%TD*%
D28*
%TO.C,R29*%
X34740000Y55250000D03*
X35740000Y55250000D03*
%TD*%
D14*
%TO.C,C22*%
X50400000Y-12500102D03*
X49400000Y-12500102D03*
%TD*%
D10*
%TO.C,C30*%
X52850000Y-19250102D03*
X52850000Y-20250102D03*
%TD*%
D28*
%TO.C,R34*%
X38325000Y1925000D03*
X39325000Y1925000D03*
%TD*%
%TO.C,R8*%
X33000000Y-16366250D03*
X34000000Y-16366250D03*
%TD*%
D14*
%TO.C,C19*%
X46325000Y-19065060D03*
X45325000Y-19065060D03*
%TD*%
D56*
%TO.C,C46*%
X46550000Y50646250D03*
X47900000Y50646250D03*
%TD*%
D11*
%TO.C,SW3*%
X-23750000Y41700000D03*
X-23750000Y50300000D03*
X-19250000Y41700000D03*
X-19250000Y50300000D03*
%TD*%
D27*
%TO.C,C2*%
X70750000Y-23250000D03*
X71750000Y-23250000D03*
%TD*%
D28*
%TO.C,R36*%
X38325000Y-1675000D03*
X39325000Y-1675000D03*
%TD*%
D48*
%TO.C,C33*%
X53600000Y-19315112D03*
X53600000Y-19885102D03*
%TD*%
D12*
%TO.C,R43*%
X51500000Y15750000D03*
X51500000Y14750000D03*
%TD*%
D66*
%TO.C,D5*%
X30000000Y-14086250D03*
X30500000Y-14086250D03*
X31000000Y-14086250D03*
X31000000Y-12646250D03*
X30500000Y-12646250D03*
X30000000Y-12646250D03*
%TD*%
D28*
%TO.C,R50*%
X49000000Y21000000D03*
X50000000Y21000000D03*
%TD*%
D67*
%TO.C,L2*%
X28200000Y-13616250D03*
X26800000Y-13616250D03*
%TD*%
D28*
%TO.C,R28*%
X34250000Y56250000D03*
X35250000Y56250000D03*
%TD*%
D65*
%TO.C,SW4*%
X-19250000Y29700000D03*
X-19250000Y21100000D03*
X-23750000Y29700000D03*
X-23750000Y21100000D03*
%TD*%
D13*
%TO.C,R7*%
X29250000Y-16866240D03*
X29250000Y-15866240D03*
%TD*%
D47*
%TO.C,R18*%
X43750000Y46928750D03*
X42750000Y46928750D03*
%TD*%
D68*
%TO.C,U8*%
X-23270000Y-14430000D03*
X-23270000Y-5570000D03*
D69*
X-17730000Y-8000000D03*
X-17730000Y-10000000D03*
X-17730000Y-12000000D03*
%TD*%
D25*
%TO.C,Q4*%
X33490000Y54250000D03*
X33490000Y53750000D03*
X33490000Y53250000D03*
X35010000Y53250000D03*
X35010000Y53750000D03*
X35010000Y54250000D03*
%TD*%
D70*
%TO.C,L1*%
X18500000Y-21650000D03*
X18500000Y-17250000D03*
%TD*%
D54*
%TO.C,JP2*%
X34600000Y1050000D03*
D55*
X35900000Y1050000D03*
%TD*%
D10*
%TO.C,C7*%
X14250000Y-22700000D03*
X14250000Y-23700000D03*
%TD*%
D22*
%TO.C,C48*%
X44125000Y8355000D03*
X44125000Y9355000D03*
%TD*%
%TO.C,C10*%
X25750000Y-16866250D03*
X25750000Y-15866250D03*
%TD*%
D27*
%TO.C,C21*%
X47750000Y-18250102D03*
X48750000Y-18250102D03*
%TD*%
D28*
%TO.C,R45*%
X55250000Y22922500D03*
X56250000Y22922500D03*
%TD*%
D12*
%TO.C,R5*%
X11750000Y-15700000D03*
X11750000Y-16700000D03*
%TD*%
D10*
%TO.C,C4*%
X58250000Y-11250000D03*
X58250000Y-12250000D03*
%TD*%
D64*
%TO.C,L9*%
X40750000Y52228750D03*
X40750000Y53628750D03*
%TD*%
D28*
%TO.C,R40*%
X57250000Y-19450000D03*
X58250000Y-19450000D03*
%TD*%
D10*
%TO.C,C38*%
X39500000Y53678750D03*
X39500000Y52678750D03*
%TD*%
D71*
%TO.C,J1*%
X45250000Y27736851D03*
X45250000Y30276851D03*
X45250000Y32816851D03*
X45250000Y35356851D03*
%TD*%
D21*
%TO.C,H2*%
X-20250000Y-21000000D03*
%TD*%
D72*
%TO.C,Q5*%
X36250000Y59770000D03*
X35750000Y59770000D03*
X35250000Y59770000D03*
X35250000Y58250000D03*
X35750000Y58250000D03*
X36250000Y58250000D03*
%TD*%
D10*
%TO.C,C5*%
X59250000Y-11250000D03*
X59250000Y-12250000D03*
%TD*%
D42*
%TO.C,U2*%
X14700000Y-18312500D03*
X13750000Y-18312500D03*
X12800000Y-18312500D03*
X12800000Y-20587500D03*
X13750000Y-20587500D03*
X14700000Y-20587500D03*
%TD*%
D59*
%TO.C,L5*%
X51835000Y-14250102D03*
X50065000Y-14250102D03*
%TD*%
D73*
%TO.C,M1*%
X75300000Y16550000D03*
X73500000Y16550000D03*
X71700000Y16550000D03*
X69900000Y16550000D03*
X68100000Y16550000D03*
X66300000Y16550000D03*
X64500000Y16550000D03*
X62700000Y16550000D03*
X62700000Y1950000D03*
X64500000Y1950000D03*
X66300000Y1950000D03*
X68100000Y1950000D03*
X69900000Y1950000D03*
X71700000Y1950000D03*
X73500000Y1950000D03*
X75300000Y1950000D03*
%TD*%
D13*
%TO.C,R39*%
X45375000Y6105000D03*
X45375000Y7105000D03*
%TD*%
%TO.C,R37*%
X47698386Y8491027D03*
X47698386Y9491027D03*
%TD*%
D12*
%TO.C,R3*%
X12250000Y-22700000D03*
X12250000Y-23700000D03*
%TD*%
D48*
%TO.C,C32*%
X48200000Y-21815112D03*
X48200000Y-22385102D03*
%TD*%
D13*
%TO.C,R6*%
X9750000Y-15700000D03*
X9750000Y-14700000D03*
%TD*%
D12*
%TO.C,R15*%
X54500000Y-19400102D03*
X54500000Y-20400102D03*
%TD*%
D47*
%TO.C,R44*%
X52500000Y16500000D03*
X51500000Y16500000D03*
%TD*%
D74*
%TO.C,U3*%
X4000000Y-24675000D03*
X3500000Y-24675000D03*
X3000000Y-24675000D03*
X2500000Y-24675000D03*
X2000000Y-24675000D03*
X1500000Y-24675000D03*
X1000000Y-24675000D03*
X500000Y-24675000D03*
X0Y-24675000D03*
X-500000Y-24675000D03*
D75*
X-2150000Y-21515000D03*
X5650000Y-21515000D03*
%TD*%
D54*
%TO.C,JP4*%
X45975000Y11855000D03*
D55*
X47275000Y11855000D03*
%TD*%
D76*
%TO.C,U11*%
X46630000Y8250000D03*
X46630000Y8750000D03*
X46630000Y9250000D03*
X46630000Y9750000D03*
D77*
X46000000Y9880000D03*
X45500000Y9880000D03*
D76*
X44870000Y9750000D03*
X44870000Y9250000D03*
X44870000Y8750000D03*
X44870000Y8250000D03*
D77*
X45500000Y8120000D03*
X46000000Y8120000D03*
%TD*%
D78*
%TO.C,L3*%
X30250000Y-10916250D03*
X30250000Y-10316250D03*
X30750000Y-10316250D03*
X30750000Y-10916250D03*
%TD*%
D14*
%TO.C,C12*%
X28250000Y-15866250D03*
X27250000Y-15866250D03*
%TD*%
D79*
%TO.C,J3*%
X28110000Y-19816250D03*
X33890000Y-19816250D03*
D80*
X29750000Y-18616250D03*
X30750000Y-18616250D03*
X31250000Y-18616250D03*
X32250000Y-18616250D03*
D81*
X33400000Y-18616250D03*
X34200000Y-18616250D03*
D80*
X32750000Y-18616250D03*
X31750000Y-18616250D03*
X30250000Y-18616250D03*
X29250000Y-18616250D03*
D81*
X28600000Y-18616250D03*
X27800000Y-18616250D03*
D82*
X26670000Y-19296250D03*
D83*
X26670000Y-23496250D03*
D84*
X29000000Y-22116250D03*
X29000000Y-24116250D03*
D85*
X31000000Y-23116250D03*
D84*
X33000000Y-22116250D03*
X33000000Y-24116250D03*
D82*
X35330000Y-19296250D03*
D83*
X35330000Y-23496250D03*
%TD*%
D86*
%TO.C,FPC1*%
X38575000Y6925000D03*
D87*
X38275000Y4565000D03*
D86*
X37975000Y6925000D03*
D87*
X37675000Y4565000D03*
D86*
X37375000Y6925000D03*
D87*
X37075000Y4565000D03*
D86*
X36775000Y6925000D03*
D87*
X36475000Y4565000D03*
D86*
X36175000Y6925000D03*
D87*
X35875000Y4565000D03*
D86*
X35575000Y6925000D03*
D87*
X35275000Y4565000D03*
D86*
X34975000Y6925000D03*
D88*
X34325000Y6825000D03*
X39225000Y6825000D03*
%TD*%
D21*
%TO.C,H3*%
X-20250000Y59000000D03*
%TD*%
D89*
%TO.C,L4*%
X51350000Y-18035102D03*
X51350000Y-16265102D03*
%TD*%
D29*
%TO.C,C43*%
X18000000Y-10675000D03*
X18000000Y-9325000D03*
%TD*%
D47*
%TO.C,R46*%
X56250000Y16672500D03*
X55250000Y16672500D03*
%TD*%
D53*
%TO.C,D3*%
X33600000Y44250000D03*
X36400000Y44250000D03*
%TD*%
D27*
%TO.C,C1*%
X70750000Y-22250000D03*
X71750000Y-22250000D03*
%TD*%
D14*
%TO.C,C31*%
X44275000Y-19815162D03*
X43275000Y-19815162D03*
%TD*%
D12*
%TO.C,R14*%
X44275000Y-20765162D03*
X44275000Y-21765162D03*
%TD*%
D90*
%TO.C,J4*%
X66200000Y25000000D03*
X59450000Y31750000D03*
X66200000Y38500000D03*
%TD*%
D91*
%TO.C,L7*%
X50520000Y-20300102D03*
X48580000Y-20300102D03*
%TD*%
D15*
%TO.C,C18*%
X48850000Y-15775112D03*
X48850000Y-17125112D03*
%TD*%
D27*
%TO.C,C3*%
X70750000Y-24250000D03*
X71750000Y-24250000D03*
%TD*%
D92*
%TO.C,U12*%
X51500000Y18100000D03*
X52000000Y18100000D03*
X52500000Y18100000D03*
X53000000Y18100000D03*
X53500000Y18100000D03*
X53500000Y22400000D03*
X53000000Y22400000D03*
X52500000Y22400000D03*
X52000000Y22400000D03*
X51500000Y22400000D03*
%TD*%
M02*
