%TF.GenerationSoftware,KiCad,Pcbnew,9.0.8-9.0.8~ubuntu24.04.1*%
%TF.CreationDate,Date%
%TF.ProjectId,palroc_one_pcb,70616c72-6f63-45f6-9f6e-655f7063622e,rev?*%
%TF.SameCoordinates,Original*%
%TF.FileFunction,Soldermask,Bot*%
%TF.FilePolarity,Negative*%
%FSLAX46Y46*%
G04 Gerber Fmt 4.6, Leading zero omitted, Abs format (unit mm)*
G04 Created by KiCad*
%MOMM*%
%LPD*%
G01*
G04 APERTURE LIST*
G04 Aperture macros list*
%AMRoundRect*
0 Rectangle with rounded corners*
0 $1 Rounding radius*
0 $2 $3 $4 $5 $6 $7 $8 $9 X,Y pos of 4 corners*
0 Add a 4 corners polygon primitive as box body*
4,1,4,$2,$3,$4,$5,$6,$7,$8,$9,$2,$3,0*
0 Add four circle primitives for the rounded corners*
1,1,$1+$1,$2,$3*
1,1,$1+$1,$4,$5*
1,1,$1+$1,$6,$7*
1,1,$1+$1,$8,$9*
0 Add four rect primitives between the rounded corners*
20,1,$1+$1,$2,$3,$4,$5,0*
20,1,$1+$1,$4,$5,$6,$7,0*
20,1,$1+$1,$6,$7,$8,$9,0*
20,1,$1+$1,$8,$9,$2,$3,0*%
G04 Aperture macros list end*
%ADD10C,3.900000*%
%ADD11RoundRect,0.262500X0.787500X0.787500X-0.787500X0.787500X-0.787500X-0.787500X0.787500X-0.787500X0*%
%ADD12C,2.100000*%
%ADD13C,2.474900*%
%ADD14C,1.090600*%
%ADD15O,2.400000X2.400000*%
%ADD16C,0.700000*%
%ADD17O,1.400000X2.400000*%
%ADD18O,1.400000X2.200000*%
%ADD19C,0.600000*%
%ADD20RoundRect,0.465000X1.085000X-1.085000X1.085000X1.085000X-1.085000X1.085000X-1.085000X-1.085000X0*%
%ADD21C,1.100000*%
G04 APERTURE END LIST*
D10*
%TO.C,H1*%
X72250000Y59000000D03*
%TD*%
D11*
%TO.C,J2*%
X42775000Y58396250D03*
D12*
X40235000Y58396250D03*
%TD*%
D13*
%TO.C,TC2*%
X50230000Y2655000D03*
D14*
X50230000Y115000D03*
D13*
X50230000Y-2425000D03*
X53405000Y2655000D03*
X53405000Y-2425000D03*
D14*
X55310000Y1131000D03*
X55310000Y-901000D03*
%TD*%
D15*
%TO.C,J1*%
X45250000Y27736851D03*
X45250000Y30276851D03*
X45250000Y32816851D03*
X45250000Y35356851D03*
%TD*%
D10*
%TO.C,H2*%
X-20250000Y-21000000D03*
%TD*%
D16*
%TO.C,J3*%
X28110000Y-19816250D03*
X33890000Y-19816250D03*
D17*
X26670000Y-19296250D03*
D18*
X26670000Y-23496250D03*
D19*
X29000000Y-22116250D03*
X29000000Y-24116250D03*
X33000000Y-22116250D03*
X33000000Y-24116250D03*
D17*
X35330000Y-19296250D03*
D18*
X35330000Y-23496250D03*
%TD*%
D10*
%TO.C,H3*%
X-20250000Y59000000D03*
%TD*%
D20*
%TO.C,J4*%
X66200000Y25000000D03*
X59450000Y31750000D03*
X66200000Y38500000D03*
%TD*%
D21*
%TO.C,TP8*%
X6233892Y30500000D03*
%TD*%
%TO.C,TP12*%
X3183892Y33550000D03*
%TD*%
%TO.C,TP9*%
X3183892Y30500000D03*
%TD*%
%TO.C,TP5*%
X6233892Y27450000D03*
%TD*%
%TO.C,TP7*%
X133892Y27450000D03*
%TD*%
%TO.C,TP1*%
X-5816108Y31000000D03*
%TD*%
%TO.C,TP10*%
X133892Y30500000D03*
%TD*%
%TO.C,TP3*%
X3183892Y24400000D03*
%TD*%
%TO.C,TP6*%
X3183892Y27450000D03*
%TD*%
%TO.C,TP2*%
X6233892Y24400000D03*
%TD*%
%TO.C,TP11*%
X6233892Y33550000D03*
%TD*%
%TO.C,TP4*%
X133892Y24400000D03*
%TD*%
%TO.C,TP13*%
X133892Y33550000D03*
%TD*%
M02*
