M48
; DRILL file {KiCad 9.0.8-9.0.8~ubuntu24.04.1} date 2026-07-10T17:31:19+0200
; FORMAT={-:-/ absolute / inch / decimal}
; #@! TF.CreationDate,2026-07-10T17:31:19+02:00
; #@! TF.GenerationSoftware,Kicad,Pcbnew,9.0.8-9.0.8~ubuntu24.04.1
; #@! TF.FileFunction,Plated,1,4,PTH
FMAT,2
INCH
; #@! TA.AperFunction,Plated,PTH,ViaDrill
T1C0.0059
; #@! TA.AperFunction,Plated,PTH,ViaDrill
T2C0.0098
; #@! TA.AperFunction,Plated,PTH,ViaDrill
T3C0.0118
; #@! TA.AperFunction,Plated,PTH,ComponentDrill
T4C0.0118
; #@! TA.AperFunction,Plated,PTH,ComponentDrill
T5C0.0197
; #@! TA.AperFunction,Plated,PTH,ComponentDrill
T6C0.0472
; #@! TA.AperFunction,Plated,PTH,ComponentDrill
T7C0.0760
; #@! TA.AperFunction,Plated,PTH,ComponentDrill
T8C0.0866
; #@! TA.AperFunction,Plated,PTH,ComponentDrill
T9C0.1000
%
G90
G05
T1
X1.6201Y-0.5807
X1.6457Y-0.5807
X1.7252Y-0.448
X1.7559Y-0.4579
X1.813Y-0.4587
X1.8937Y-0.4705
X1.8966Y-0.5985
X1.9154Y-0.6004
X1.9193Y-0.5787
X1.9193Y-0.6181
X2.0925Y-0.6004
X2.1181Y-0.5945
X2.126Y-0.6272
X2.1398Y-0.5945
T2
X1.124Y-0.6859
X1.2008Y-0.4685
X1.2008Y-0.584
X1.3141Y-0.6885
X1.4567Y-0.7132
X1.6169Y-0.6142
X1.7224Y-0.5512
X1.7224Y-0.5906
X1.7224Y-0.6299
X1.7618Y-0.5512
X1.7618Y-0.5906
X1.7618Y-0.6299
X1.7927Y-0.7185
X1.8012Y-0.5512
X1.8012Y-0.5906
X1.8012Y-0.6299
X1.8445Y-0.7028
X1.922Y-0.5083
X2.0079Y0.8957
X2.0079Y-0.502
X2.0276Y0.9252
X2.0335Y-0.502
X2.0472Y0.6791
X2.0571Y-0.502
X2.0669Y0.9744
X2.0669Y0.6201
X2.0689Y0.6496
X2.1614Y-0.5256
X2.2146Y0.9221
X2.2146Y0.6761
X2.2189Y0.84
X2.2539Y0.7155
X2.4291Y-0.6004
X2.4291Y-0.6594
X2.4764Y-0.4232
X2.4764Y-0.4823
X2.4764Y-0.5413
X2.4764Y-0.6004
X2.5236Y-0.4232
X2.5236Y-0.5413
X2.5236Y-0.6594
X2.5709Y-0.4232
X2.5709Y-0.4823
X2.5709Y-0.5413
X2.5709Y-0.6004
X2.5709Y-0.7185
X2.6181Y-0.4823
X2.6181Y-0.5413
X2.6181Y-0.6004
X2.6181Y-0.6594
X2.6181Y-0.7185
X2.6654Y-0.4823
X2.6654Y-0.5413
X2.6654Y-0.6594
X2.7126Y-0.4232
X2.7126Y-0.4823
X2.7126Y-0.5413
X2.7126Y-0.6004
X2.7126Y-0.6594
X2.7126Y-0.7185
X2.7598Y-0.4823
X2.7598Y-0.5413
X2.7598Y-0.6004
X2.7598Y-0.6594
X2.8543Y-0.4823
X2.8543Y-0.5413
X2.8543Y-0.6004
X2.8543Y-0.6594
X2.8543Y-0.7185
T3
X1.9189Y-0.6925
T4
X1.1417Y-0.8707
X1.1417Y-0.9495
X1.2992Y-0.8707
X1.2992Y-0.9495
T6
X1.5841Y2.2991
X1.6841Y2.2991
T7
X1.7815Y1.392
X1.7815Y1.292
X1.7815Y1.192
X1.7815Y1.092
T8
X-0.7972Y2.3228
X-0.7972Y-0.8268
X2.8445Y2.3228
T9
X2.3406Y1.25
X2.6063Y1.5157
X2.6063Y0.9843
T5
G00X1.05Y-0.738
M15
G01X1.05Y-0.7813
M16
G05
G00X1.05Y-0.9093
M15
G01X1.05Y-0.9408
M16
G05
G00X1.3909Y-0.738
M15
G01X1.3909Y-0.7813
M16
G05
G00X1.3909Y-0.9093
M15
G01X1.3909Y-0.9408
M16
G05
M30
