#VRML V2.0 utf8
# 3D model generated by easyeda2kicad.py (https://github.com/uPesy/easyeda2kicad.py)

Shape{
    appearance Appearance {
        material  Material 	{
            diffuseColor 0.10196078431372549 0.10196078431372549 0.10196078431372549
            specularColor 0.0392156862745098 0.0392156862745098 0.0392156862745098
            ambientIntensity 0.102
            transparency 0.0
            shininess 0.5
        }
    }
    geometry IndexedFaceSet {
        ccw TRUE
        solid FALSE
        coord DEF co Coordinate {
            point [
                -0.1832 -0.0406 0.0079, -0.315 -0.041 0.0079, -0.315 0.2363 0.0079, -0.2362 -0.2361 0.0079, -0.315 -0.2361 0.0079, -0.0353 0.2363 0.0079, -0.0276 -0.0319 0.0079, -0.0353 -0.041 0.0079, -0.0276 -0.0406 0.0079, 0.0147 -0.0406 0.0079, 0.03 -0.0365 0.0079, 0.03 -0.0278 0.0079, 0.0147 0.0382 0.0079, 0.0384 -0.0399 0.0079, 0.0464 -0.041 0.0079, 0.0041 0.0295 0.0079, 0.0041 0.0036 0.0079, -0.0257 0.0295 0.0079, -0.0238 0.0036 0.0079, 0.1357 -0.0406 0.0079, 0.1357 0.0382 0.0079, 0.315 0.2363 0.0079, 0.0041 -0.005 0.0079, 0.0041 -0.0319 0.0079, -0.0238 -0.005 0.0079, 0.315 -0.041 0.0079, 0.0563 -0.041 0.0079, 0.0953 -0.0406 0.0079, 0.0614 -0.0405 0.0079, 0.0691 -0.0379 0.0079, -0.0257 0.0382 0.0079, 0.0562 0.0296 0.0079, 0.0621 0.0275 0.0079, 0.0314 -0.0286 0.0079, 0.0676 0.0239 0.0079, 0.0723 0.0186 0.0079, 0.078 -0.002 0.0079, 0.0772 -0.0105 0.0079, 0.0751 -0.0174 0.0079, 0.0577 -0.032 0.0079, 0.0502 -0.0329 0.0079, 0.0634 -0.0299 0.0079, 0.0682 -0.0266 0.0079, 0.0718 -0.0228 0.0079, 0.0398 -0.0317 0.0079, 0.0394 0.2363 0.0079, 0.1251 0.0382 0.0079, 0.1575 0.2363 0.0079, 0.2362 0.2363 0.0079, 0.0756 0.0125 0.0079, 0.0777 0.0041 0.0079, 0.0846 0.017 0.0079, 0.0801 0.0244 0.0079, 0.0731 0.0313 0.0079, 0.0754 -0.0338 0.0079, 0.0813 -0.0276 0.0079, 0.0953 -0.0319 0.0079, 0.0855 -0.0201 0.0079, 0.1251 -0.0319 0.0079, 0.0878 -0.0117 0.0079, 0.0886 -0.0027 0.0079, 0.0876 0.0079 0.0079, 0.0657 0.0358 0.0079, 0.0569 0.0384 0.0079, 0.0486 0.0391 0.0079, 0.0391 0.0385 0.0079, 0.03 0.036 0.0079, 0.03 0.0255 0.0079, 0.0389 0.0293 0.0079, 0.0485 0.0305 0.0079, 0.0394 -0.2361 0.0079, 0.0517 -0.0415 0.0079, 0.1575 -0.2361 0.0079, 0.2362 -0.2361 0.0079, 0.315 -0.2361 0.0079, -0.0394 -0.2361 0.0079, -0.0353 -0.2361 0.0079, 0.0495 -0.0415 0.0079, -0.1575 -0.2361 0.0079, -0.1524 0.0382 0.0079, -0.1121 -0.0406 0.0079, -0.1025 -0.0187 0.0079, -0.0981 -0.0258 0.0079, -0.0978 0.0245 0.0079, -0.1022 0.0181 0.0079, -0.1419 0.0382 0.0079, -0.1716 -0.0406 0.0079, -0.0916 -0.032 0.0079, -0.0835 -0.0369 0.0079, -0.0745 -0.0396 0.0079, -0.1051 0.0104 0.0079, -0.1063 -0.0002 0.0079, -0.1053 -0.0104 0.0079, -0.0644 -0.0406 0.0079, -0.043 -0.0406 0.0079, -0.043 0.0382 0.0079, -0.0652 0.0382 0.0079, -0.1236 -0.0406 0.0079, -0.1311 -0.0185 0.0079, -0.1637 -0.0185 0.0079, -0.0759 0.0371 0.0079, -0.0852 0.034 0.0079, -0.0931 0.029 0.0079, -0.2362 0.2363 0.0079, -0.1575 0.2363 0.0079, -0.0394 0.2363 0.0079, -0.315 -0.2361 0.0669, 0.0394 -0.2361 0.0472, 0.2362 -0.2361 0.0472, 0.315 -0.2361 0.0669, 0.1575 -0.2361 0.0472, -0.2362 -0.2361 0.0472, -0.1575 -0.2361 0.0472, -0.0394 -0.2361 0.0472, 0.315 0.2363 0.0669, 0.1575 0.2363 0.0472, 0.0394 0.2363 0.0472, 0.2362 0.2363 0.0472, -0.315 0.2363 0.0669, -0.0394 0.2363 0.0472, -0.2362 0.2363 0.0472, -0.1575 0.2363 0.0472, -0.2953 0.2166 0.2244, -0.2953 -0.2165 0.2244, 0.2953 0.2166 0.2244, 0.2953 -0.2165 0.2244
            ]
        }
        coordIndex [
            0,1,2,-1,3,4,1,-1,5,6,7,-1,7,6,8,-1,7,8,9,-1,10,9,11,-1,11,9,12,-1,10,13,9,-1,9,13,14,-1,9,14,7,-1,15,16,17,-1,17,16,18,-1,19,20,21,-1,22,23,24,-1,24,23,6,-1,21,25,19,-1,19,25,26,-1,19,26,27,-1,27,26,28,-1,27,28,29,-1,12,30,5,-1,5,30,17,-1,5,17,6,-1,6,17,18,-1,6,18,24,-1,31,32,33,-1,33,32,34,-1,33,34,35,-1,36,37,33,-1,33,37,38,-1,39,40,41,-1,41,40,42,-1,38,43,33,-1,33,43,42,-1,33,42,44,-1,44,42,40,-1,5,45,46,-1,46,45,47,-1,46,47,20,-1,20,47,48,-1,20,48,21,-1,35,49,33,-1,33,49,50,-1,33,50,36,-1,51,52,46,-1,46,52,53,-1,46,53,5,-1,29,54,27,-1,27,54,55,-1,27,55,56,-1,56,55,57,-1,56,57,58,-1,57,59,58,-1,58,59,60,-1,58,60,46,-1,46,60,61,-1,46,61,51,-1,53,62,5,-1,5,62,63,-1,5,63,64,-1,64,65,5,-1,5,65,66,-1,5,66,12,-1,12,66,67,-1,12,67,11,-1,11,67,68,-1,11,68,33,-1,33,68,69,-1,33,69,31,-1,70,71,72,-1,72,71,26,-1,72,26,73,-1,73,26,25,-1,73,25,74,-1,75,7,76,-1,76,7,14,-1,76,14,70,-1,70,14,77,-1,70,77,71,-1,3,1,78,-1,0,2,79,-1,80,81,82,-1,83,84,85,-1,75,78,7,-1,7,78,1,-1,7,1,86,-1,86,1,0,-1,82,87,80,-1,80,87,88,-1,80,88,89,-1,84,90,85,-1,85,90,91,-1,85,91,80,-1,80,91,92,-1,80,92,81,-1,93,94,7,-1,7,94,95,-1,7,95,5,-1,5,95,96,-1,89,93,80,-1,80,93,7,-1,80,7,97,-1,97,7,86,-1,97,86,98,-1,98,86,99,-1,96,100,5,-1,5,100,101,-1,5,101,85,-1,85,101,102,-1,85,102,83,-1,2,103,79,-1,79,103,104,-1,79,104,85,-1,85,104,105,-1,85,105,5,-1,106,4,3,-1,107,70,72,-1,73,74,108,-1,108,74,109,-1,108,109,110,-1,3,111,106,-1,106,111,112,-1,106,112,109,-1,72,110,107,-1,107,110,109,-1,107,109,113,-1,113,109,112,-1,113,112,75,-1,75,112,78,-1,114,21,48,-1,47,45,115,-1,115,45,116,-1,48,117,114,-1,114,117,115,-1,114,115,118,-1,118,115,116,-1,118,116,119,-1,103,2,120,-1,120,2,118,-1,120,118,121,-1,121,118,119,-1,121,119,104,-1,104,119,105,-1,4,106,1,-1,1,106,118,-1,1,118,2,-1,21,114,25,-1,25,114,109,-1,25,109,74,-1,122,123,124,-1,124,123,125,-1,
        ]
    }
}
Shape{
    appearance Appearance {
        material  Material 	{
            diffuseColor 0.6470588235294118 0.6196078431372549 0.5882352941176471
            specularColor 0.45098039215686275 0.43529411764705883 0.4117647058823529
            ambientIntensity 0.6242
            transparency 0.0
            shininess 0.5
        }
    }
    geometry IndexedFaceSet {
        ccw TRUE
        solid FALSE
        coord DEF co Coordinate {
            point [
                -0.0394 0.315 0.0472, 0.0394 0.315 0.0472, -0.0394 0.315 0.0, 0.0394 0.315 0.0, -0.0394 0.2363 0.0472, -0.0394 0.2363 0.0079, -0.0394 0.2363 0.0, -0.0353 0.2363 0.0079, 0.0394 0.2363 0.0, 0.0394 0.2363 0.0079, 0.0394 0.2363 0.0472, 0.0394 -0.3149 0.0472, -0.0394 -0.3149 0.0472, 0.0394 -0.3149 0.0, -0.0394 -0.3149 0.0, 0.0394 -0.2361 0.0472, 0.0394 -0.2361 0.0079, 0.0394 -0.2361 0.0, -0.0353 -0.2361 0.0079, -0.0394 -0.2361 0.0, -0.0394 -0.2361 0.0079, -0.0394 -0.2361 0.0472, 0.1575 0.2363 0.0, 0.2362 0.2363 0.0, 0.1575 0.2363 0.0079, 0.2362 0.2363 0.0079, 0.2362 0.315 0.0, 0.2362 0.315 0.0472, 0.2362 0.2363 0.0472, 0.1575 0.315 0.0472, 0.1575 0.315 0.0, 0.1575 0.2363 0.0472, 0.2362 -0.2361 0.0, 0.1575 -0.2361 0.0, 0.2362 -0.2361 0.0079, 0.1575 -0.2361 0.0079, 0.2362 -0.3149 0.0472, 0.1575 -0.3149 0.0472, 0.2362 -0.3149 0.0, 0.1575 -0.3149 0.0, 0.2362 -0.2361 0.0472, 0.1575 -0.2361 0.0472, -0.2362 0.2363 0.0, -0.1575 0.2363 0.0, -0.2362 0.2363 0.0079, -0.1575 0.2363 0.0079, -0.2362 0.315 0.0472, -0.1575 0.315 0.0472, -0.2362 0.315 0.0, -0.1575 0.315 0.0, -0.2362 0.2363 0.0472, -0.1575 0.2363 0.0472, -0.1575 -0.2361 0.0, -0.2362 -0.2361 0.0, -0.1575 -0.2361 0.0079, -0.2362 -0.2361 0.0079, -0.1575 -0.2361 0.0472, -0.1575 -0.3149 0.0472, -0.1575 -0.3149 0.0, -0.2362 -0.3149 0.0, -0.2362 -0.3149 0.0472, -0.2362 -0.2361 0.0472
            ]
        }
        coordIndex [
            0,1,2,-1,2,1,3,-1,4,0,5,-1,5,0,2,-1,5,2,6,-1,5,6,7,-1,7,6,8,-1,7,8,9,-1,8,3,9,-1,9,3,1,-1,9,1,10,-1,4,10,0,-1,0,10,1,-1,8,6,3,-1,3,6,2,-1,11,12,13,-1,13,12,14,-1,15,11,16,-1,16,11,13,-1,16,13,17,-1,16,17,18,-1,18,17,19,-1,18,19,20,-1,19,14,20,-1,20,14,12,-1,20,12,21,-1,15,21,11,-1,11,21,12,-1,19,17,14,-1,14,17,13,-1,22,23,24,-1,24,23,25,-1,23,26,25,-1,25,26,27,-1,25,27,28,-1,29,27,30,-1,30,27,26,-1,31,29,24,-1,24,29,30,-1,24,30,22,-1,29,31,27,-1,27,31,28,-1,22,30,23,-1,23,30,26,-1,32,33,34,-1,34,33,35,-1,36,37,38,-1,38,37,39,-1,40,36,34,-1,34,36,38,-1,34,38,32,-1,33,39,35,-1,35,39,37,-1,35,37,41,-1,40,41,36,-1,36,41,37,-1,33,32,39,-1,39,32,38,-1,42,43,44,-1,44,43,45,-1,46,47,48,-1,48,47,49,-1,50,46,44,-1,44,46,48,-1,44,48,42,-1,43,49,45,-1,45,49,47,-1,45,47,51,-1,50,51,46,-1,46,51,47,-1,43,42,49,-1,49,42,48,-1,52,53,54,-1,54,53,55,-1,56,57,54,-1,54,57,58,-1,54,58,52,-1,53,59,55,-1,55,59,60,-1,55,60,61,-1,57,60,58,-1,58,60,59,-1,61,60,56,-1,56,60,57,-1,59,53,58,-1,58,53,52,-1,
        ]
    }
}
Shape{
    appearance Appearance {
        material  Material 	{
            diffuseColor 0.10196078431372549 0.10196078431372549 0.10196078431372549
            specularColor 0.0392156862745098 0.0392156862745098 0.0392156862745098
            ambientIntensity 0.102
            transparency 0.0
            shininess 0.5
        }
    }
    geometry IndexedFaceSet {
        ccw TRUE
        solid FALSE
        coord DEF co Coordinate {
            point [
                0.315 -0.2361 0.0669, 0.2953 -0.2165 0.2244, -0.315 -0.2361 0.0669, -0.2953 -0.2165 0.2244, 0.315 0.2363 0.0669, 0.2953 0.2166 0.2244, -0.2953 0.2166 0.2244, -0.315 0.2363 0.0669
            ]
        }
        coordIndex [
            0,1,2,-1,2,1,3,-1,4,5,0,-1,0,5,1,-1,6,7,3,-1,3,7,2,-1,7,6,4,-1,4,6,5,-1,
        ]
    }
}
Shape{
    appearance Appearance {
        material  Material 	{
            diffuseColor 1.0 1.0 1.0
            specularColor 0.8784313725490196 0.8784313725490196 0.8784313725490196
            ambientIntensity 1.0
            transparency 0.0
            shininess 0.5
        }
    }
    geometry IndexedFaceSet {
        ccw TRUE
        solid FALSE
        coord DEF co Coordinate {
            point [
                0.0953 -0.0319 0.0118, 0.0953 -0.0406 0.0118, 0.0953 -0.0319 0.0079, 0.0953 -0.0406 0.0079, 0.1357 -0.0406 0.0118, 0.1357 -0.0406 0.0079, 0.1357 0.0382 0.0118, 0.1357 0.0382 0.0079, 0.1251 0.0382 0.0118, 0.1251 0.0382 0.0079, 0.1251 -0.0319 0.0118, 0.1251 -0.0319 0.0079, 0.03 -0.0278 0.0118, 0.03 -0.0365 0.0118, 0.03 -0.0278 0.0079, 0.03 -0.0365 0.0079, 0.0384 -0.0399 0.0118, 0.0517 -0.0415 0.0118, 0.0517 -0.0415 0.0079, 0.0495 -0.0415 0.0079, 0.0495 -0.0415 0.0118, 0.0464 -0.041 0.0079, 0.0384 -0.0399 0.0079, 0.0886 -0.0027 0.0118, 0.0886 -0.0027 0.0079, 0.0878 -0.0117 0.0079, 0.0878 -0.0117 0.0118, 0.0855 -0.0201 0.0079, 0.0855 -0.0201 0.0118, 0.0813 -0.0276 0.0079, 0.0813 -0.0276 0.0118, 0.0754 -0.0338 0.0079, 0.0754 -0.0338 0.0118, 0.0691 -0.0379 0.0079, 0.0691 -0.0379 0.0118, 0.0614 -0.0405 0.0079, 0.0614 -0.0405 0.0118, 0.0563 -0.041 0.0079, 0.0486 0.0391 0.0118, 0.0486 0.0391 0.0079, 0.0569 0.0384 0.0079, 0.0569 0.0384 0.0118, 0.0657 0.0358 0.0079, 0.0657 0.0358 0.0118, 0.0731 0.0313 0.0079, 0.0731 0.0313 0.0118, 0.0801 0.0244 0.0079, 0.0801 0.0244 0.0118, 0.0846 0.017 0.0079, 0.0846 0.017 0.0118, 0.0876 0.0079 0.0079, 0.0876 0.0079 0.0118, 0.03 0.036 0.0118, 0.03 0.036 0.0079, 0.0391 0.0385 0.0079, 0.0391 0.0385 0.0118, 0.03 0.0255 0.0118, 0.03 0.0255 0.0079, 0.0485 0.0305 0.0118, 0.0485 0.0305 0.0079, 0.0389 0.0293 0.0079, 0.0389 0.0293 0.0118, 0.078 -0.002 0.0118, 0.078 -0.002 0.0079, 0.0777 0.0041 0.0079, 0.0777 0.0041 0.0118, 0.0756 0.0125 0.0079, 0.0756 0.0125 0.0118, 0.0723 0.0186 0.0079, 0.0723 0.0186 0.0118, 0.0676 0.0239 0.0079, 0.0676 0.0239 0.0118, 0.0621 0.0275 0.0079, 0.0621 0.0275 0.0118, 0.0562 0.0296 0.0079, 0.0562 0.0296 0.0118, 0.0502 -0.0329 0.0118, 0.0502 -0.0329 0.0079, 0.0577 -0.032 0.0079, 0.0577 -0.032 0.0118, 0.0634 -0.0299 0.0079, 0.0634 -0.0299 0.0118, 0.0682 -0.0266 0.0079, 0.0682 -0.0266 0.0118, 0.0718 -0.0228 0.0079, 0.0718 -0.0228 0.0118, 0.0751 -0.0174 0.0079, 0.0751 -0.0174 0.0118, 0.0772 -0.0105 0.0079, 0.0772 -0.0105 0.0118, 0.0314 -0.0286 0.0079, 0.0314 -0.0286 0.0118, 0.0398 -0.0317 0.0079, 0.0398 -0.0317 0.0118, -0.0276 -0.0319 0.0118, -0.0276 -0.0406 0.0118, -0.0276 -0.0319 0.0079, -0.0276 -0.0406 0.0079, 0.0147 -0.0406 0.0118, 0.0147 -0.0406 0.0079, 0.0147 0.0382 0.0118, 0.0147 0.0382 0.0079, -0.0257 0.0382 0.0118, -0.0257 0.0382 0.0079, -0.0257 0.0295 0.0118, -0.0257 0.0295 0.0079, 0.0041 0.0295 0.0118, 0.0041 0.0295 0.0079, 0.0041 0.0036 0.0118, 0.0041 0.0036 0.0079, -0.0238 0.0036 0.0118, -0.0238 0.0036 0.0079, -0.0238 -0.005 0.0118, -0.0238 -0.005 0.0079, 0.0041 -0.005 0.0118, 0.0041 -0.005 0.0079, 0.0041 -0.0319 0.0118, 0.0041 -0.0319 0.0079, -0.0644 -0.0406 0.0118, -0.043 -0.0406 0.0118, -0.0644 -0.0406 0.0079, -0.043 -0.0406 0.0079, -0.043 0.0382 0.0118, -0.043 0.0382 0.0079, -0.0652 0.0382 0.0118, -0.0652 0.0382 0.0079, -0.1063 -0.0002 0.0118, -0.1063 -0.0002 0.0079, -0.1051 0.0104 0.0079, -0.1051 0.0104 0.0118, -0.1022 0.0181 0.0079, -0.1022 0.0181 0.0118, -0.0978 0.0245 0.0079, -0.0978 0.0245 0.0118, -0.0931 0.029 0.0079, -0.0931 0.029 0.0118, -0.0852 0.034 0.0079, -0.0852 0.034 0.0118, -0.0759 0.0371 0.0079, -0.0759 0.0371 0.0118, -0.0745 -0.0396 0.0079, -0.0745 -0.0396 0.0118, -0.0835 -0.0369 0.0079, -0.0835 -0.0369 0.0118, -0.0916 -0.032 0.0079, -0.0916 -0.032 0.0118, -0.0981 -0.0258 0.0079, -0.0981 -0.0258 0.0118, -0.1025 -0.0187 0.0079, -0.1025 -0.0187 0.0118, -0.1053 -0.0104 0.0079, -0.1053 -0.0104 0.0118, -0.0651 0.0295 0.0118, -0.0535 0.0295 0.0118, -0.0535 -0.0319 0.0118, -0.0647 -0.0319 0.0118, -0.073 -0.0311 0.0118, -0.0797 -0.0291 0.0118, -0.085 -0.0259 0.0118, -0.0894 -0.0215 0.0118, -0.0928 -0.0161 0.0118, -0.0951 -0.0086 0.0118, -0.0958 -0.0004 0.0118, -0.0951 0.0074 0.0118, -0.0932 0.0137 0.0118, -0.0905 0.0185 0.0118, -0.0867 0.0226 0.0118, -0.0809 0.0263 0.0118, -0.0744 0.0286 0.0118, -0.0651 0.0295 0.0079, -0.0535 0.0295 0.0079, -0.0744 0.0286 0.0079, -0.0809 0.0263 0.0079, -0.0867 0.0226 0.0079, -0.0905 0.0185 0.0079, -0.0932 0.0137 0.0079, -0.0951 0.0074 0.0079, -0.0958 -0.0004 0.0079, -0.0951 -0.0086 0.0079, -0.0928 -0.0161 0.0079, -0.0894 -0.0215 0.0079, -0.085 -0.0259 0.0079, -0.0797 -0.0291 0.0079, -0.073 -0.0311 0.0079, -0.0647 -0.0319 0.0079, -0.0535 -0.0319 0.0079
            ]
        }
        coordIndex [
            0,1,2,-1,2,1,3,-1,1,4,3,-1,3,4,5,-1,4,6,5,-1,5,6,7,-1,6,8,7,-1,7,8,9,-1,8,10,9,-1,9,10,11,-1,10,0,11,-1,11,0,2,-1,8,6,10,-1,10,6,4,-1,10,4,0,-1,0,4,1,-1,12,13,14,-1,14,13,15,-1,15,13,16,-1,17,18,19,-1,17,19,20,-1,20,19,21,-1,20,21,16,-1,16,21,22,-1,16,22,15,-1,23,24,25,-1,23,25,26,-1,26,25,27,-1,26,27,28,-1,28,27,29,-1,28,29,30,-1,30,29,31,-1,30,31,32,-1,32,31,33,-1,32,33,34,-1,34,33,35,-1,34,35,36,-1,36,35,17,-1,17,35,37,-1,17,37,18,-1,38,39,40,-1,38,40,41,-1,41,40,42,-1,41,42,43,-1,43,42,44,-1,43,44,45,-1,45,44,46,-1,45,46,47,-1,47,46,48,-1,47,48,49,-1,49,48,50,-1,49,50,51,-1,51,50,24,-1,51,24,23,-1,52,53,54,-1,52,54,55,-1,55,54,39,-1,55,39,38,-1,52,56,53,-1,53,56,57,-1,58,59,60,-1,58,60,61,-1,61,60,57,-1,61,57,56,-1,62,63,64,-1,62,64,65,-1,65,64,66,-1,65,66,67,-1,67,66,68,-1,67,68,69,-1,69,68,70,-1,69,70,71,-1,71,70,72,-1,71,72,73,-1,73,72,74,-1,73,74,75,-1,75,74,59,-1,75,59,58,-1,76,77,78,-1,76,78,79,-1,79,78,80,-1,79,80,81,-1,81,80,82,-1,81,82,83,-1,83,82,84,-1,83,84,85,-1,85,84,86,-1,85,86,87,-1,87,86,88,-1,87,88,89,-1,89,88,63,-1,89,63,62,-1,12,14,90,-1,12,90,91,-1,91,90,92,-1,91,92,93,-1,93,92,77,-1,93,77,76,-1,79,17,76,-1,76,17,20,-1,76,20,93,-1,93,20,16,-1,93,16,91,-1,91,16,13,-1,91,13,12,-1,56,52,61,-1,61,52,55,-1,61,55,58,-1,58,55,38,-1,58,38,75,-1,75,38,41,-1,75,41,73,-1,73,41,43,-1,73,43,71,-1,71,43,45,-1,71,45,69,-1,69,45,47,-1,69,47,67,-1,67,47,49,-1,67,49,65,-1,65,49,51,-1,65,51,62,-1,62,51,23,-1,62,23,89,-1,89,23,26,-1,89,26,87,-1,87,26,28,-1,87,28,85,-1,85,28,30,-1,85,30,83,-1,83,30,32,-1,83,32,81,-1,81,32,34,-1,81,34,79,-1,79,34,36,-1,79,36,17,-1,94,95,96,-1,96,95,97,-1,95,98,97,-1,97,98,99,-1,98,100,99,-1,99,100,101,-1,100,102,101,-1,101,102,103,-1,102,104,103,-1,103,104,105,-1,104,106,105,-1,105,106,107,-1,106,108,107,-1,107,108,109,-1,108,110,109,-1,109,110,111,-1,110,112,111,-1,111,112,113,-1,112,114,113,-1,113,114,115,-1,114,116,115,-1,115,116,117,-1,116,94,117,-1,117,94,96,-1,98,95,94,-1,94,116,98,-1,98,116,114,-1,98,114,100,-1,104,102,106,-1,106,102,100,-1,106,100,108,-1,108,100,114,-1,108,114,110,-1,110,114,112,-1,118,119,120,-1,120,119,121,-1,119,122,121,-1,121,122,123,-1,122,124,123,-1,123,124,125,-1,126,127,128,-1,126,128,129,-1,129,128,130,-1,129,130,131,-1,131,130,132,-1,131,132,133,-1,133,132,134,-1,133,134,135,-1,135,134,136,-1,135,136,137,-1,137,136,138,-1,137,138,139,-1,139,138,125,-1,139,125,124,-1,118,120,140,-1,118,140,141,-1,141,140,142,-1,141,142,143,-1,143,142,144,-1,143,144,145,-1,145,144,146,-1,145,146,147,-1,147,146,148,-1,147,148,149,-1,149,148,150,-1,149,150,151,-1,151,150,127,-1,151,127,126,-1,152,124,153,-1,153,124,122,-1,153,122,154,-1,154,122,119,-1,154,119,155,-1,155,119,118,-1,155,118,156,-1,156,118,141,-1,156,141,157,-1,157,141,143,-1,157,143,158,-1,158,143,145,-1,158,145,159,-1,159,145,147,-1,159,147,160,-1,160,147,149,-1,160,149,161,-1,161,149,151,-1,161,151,162,-1,162,151,126,-1,162,126,163,-1,163,126,129,-1,163,129,164,-1,164,129,131,-1,164,131,165,-1,165,131,133,-1,165,133,166,-1,166,133,135,-1,166,135,167,-1,167,135,137,-1,167,137,168,-1,168,137,139,-1,168,139,152,-1,152,139,124,-1,152,153,169,-1,169,153,170,-1,152,169,171,-1,152,171,168,-1,168,171,172,-1,168,172,167,-1,167,172,173,-1,167,173,166,-1,166,173,174,-1,166,174,165,-1,165,174,175,-1,165,175,164,-1,164,175,176,-1,164,176,163,-1,163,176,177,-1,163,177,162,-1,162,177,178,-1,162,178,161,-1,161,178,179,-1,161,179,160,-1,160,179,180,-1,160,180,159,-1,159,180,181,-1,159,181,158,-1,158,181,182,-1,158,182,157,-1,157,182,183,-1,157,183,156,-1,156,183,184,-1,156,184,155,-1,154,155,185,-1,185,155,184,-1,153,154,170,-1,170,154,185,-1,
        ]
    }
}
Shape{
    appearance Appearance {
        material  Material 	{
            diffuseColor 0.10196078431372549 0.10196078431372549 0.10196078431372549
            specularColor 0.0392156862745098 0.0392156862745098 0.0392156862745098
            ambientIntensity 0.102
            transparency 0.0
            shininess 0.5
        }
    }
    geometry IndexedFaceSet {
        ccw TRUE
        solid FALSE
        coord DEF co Coordinate {
            point [
                -0.0535 0.0295 0.0079, -0.0535 -0.0319 0.0079, -0.0651 0.0295 0.0079, -0.0647 -0.0319 0.0079, -0.073 -0.0311 0.0079, -0.0958 -0.0004 0.0079, -0.0951 0.0074 0.0079, -0.0932 0.0137 0.0079, -0.0744 0.0286 0.0079, -0.0797 -0.0291 0.0079, -0.085 -0.0259 0.0079, -0.0894 -0.0215 0.0079, -0.0928 -0.0161 0.0079, -0.0951 -0.0086 0.0079, -0.0905 0.0185 0.0079, -0.0867 0.0226 0.0079, -0.0809 0.0263 0.0079
            ]
        }
        coordIndex [
            0,1,2,-1,2,1,3,-1,2,3,4,-1,5,6,2,-1,2,6,7,-1,2,7,8,-1,4,9,2,-1,2,9,10,-1,2,10,11,-1,11,12,2,-1,2,12,13,-1,2,13,5,-1,14,15,7,-1,7,15,16,-1,7,16,8,-1,
        ]
    }
}
Shape{
    appearance Appearance {
        material  Material 	{
            diffuseColor 1.0 1.0 1.0
            specularColor 0.8784313725490196 0.8784313725490196 0.8784313725490196
            ambientIntensity 1.0
            transparency 0.0
            shininess 0.5
        }
    }
    geometry IndexedFaceSet {
        ccw TRUE
        solid FALSE
        coord DEF co Coordinate {
            point [
                -0.1524 0.0382 0.0118, -0.1832 -0.0406 0.0118, -0.1524 0.0382 0.0079, -0.1832 -0.0406 0.0079, -0.1716 -0.0406 0.0118, -0.1716 -0.0406 0.0079, -0.1637 -0.0185 0.0118, -0.1637 -0.0185 0.0079, -0.1311 -0.0185 0.0118, -0.1311 -0.0185 0.0079, -0.1236 -0.0406 0.0118, -0.1236 -0.0406 0.0079, -0.1121 -0.0406 0.0118, -0.1121 -0.0406 0.0079, -0.1419 0.0382 0.0118, -0.1419 0.0382 0.0079, -0.1483 0.0231 0.0118, -0.1601 -0.0098 0.0118, -0.1476 0.0258 0.0118, -0.1471 0.0286 0.0118, -0.1338 -0.0098 0.0118, -0.1455 0.0231 0.0118, -0.1468 0.0286 0.0118, -0.1463 0.0258 0.0118, -0.1338 -0.0098 0.0079, -0.1601 -0.0098 0.0079, -0.1455 0.0231 0.0079, -0.1463 0.0258 0.0079, -0.1468 0.0286 0.0079, -0.1471 0.0286 0.0079, -0.1476 0.0258 0.0079, -0.1483 0.0231 0.0079
            ]
        }
        coordIndex [
            0,1,2,-1,2,1,3,-1,1,4,3,-1,3,4,5,-1,4,6,5,-1,5,6,7,-1,6,8,7,-1,7,8,9,-1,8,10,9,-1,9,10,11,-1,10,12,11,-1,11,12,13,-1,12,14,13,-1,13,14,15,-1,14,0,15,-1,15,0,2,-1,16,17,18,-1,18,17,19,-1,6,4,1,-1,17,20,8,-1,21,14,20,-1,20,14,12,-1,20,12,8,-1,8,12,10,-1,8,6,17,-1,17,6,1,-1,17,1,19,-1,19,1,0,-1,19,0,22,-1,22,0,14,-1,22,14,23,-1,23,14,21,-1,20,17,24,-1,24,17,25,-1,21,20,26,-1,26,20,24,-1,21,26,27,-1,21,27,23,-1,23,27,28,-1,23,28,22,-1,19,22,29,-1,29,22,28,-1,19,29,30,-1,19,30,18,-1,18,30,31,-1,18,31,16,-1,17,16,25,-1,25,16,31,-1,
        ]
    }
}
Shape{
    appearance Appearance {
        material  Material 	{
            diffuseColor 0.10196078431372549 0.10196078431372549 0.10196078431372549
            specularColor 0.0392156862745098 0.0392156862745098 0.0392156862745098
            ambientIntensity 0.102
            transparency 0.0
            shininess 0.5
        }
    }
    geometry IndexedFaceSet {
        ccw TRUE
        solid FALSE
        coord DEF co Coordinate {
            point [
                -0.1338 -0.0098 0.0079, -0.1601 -0.0098 0.0079, -0.1455 0.0231 0.0079, -0.1483 0.0231 0.0079, -0.1463 0.0258 0.0079, -0.1476 0.0258 0.0079, -0.1468 0.0286 0.0079, -0.1471 0.0286 0.0079
            ]
        }
        coordIndex [
            0,1,2,-1,2,1,3,-1,2,3,4,-1,4,3,5,-1,4,5,6,-1,6,5,7,-1,
        ]
    }
}