#VRML V2.0 utf8
# 3D model generated by easyeda2kicad.py (https://github.com/uPesy/easyeda2kicad.py)

Shape{
    appearance Appearance {
        material  Material 	{
            diffuseColor 0.07058823529411765 0.07058823529411765 0.07058823529411765
            specularColor 0.00392156862745098 0.00392156862745098 0.00392156862745098
            ambientIntensity 0.2
            transparency 0
            shininess 0.5
        }
    }
    geometry IndexedFaceSet {
        ccw TRUE
        solid FALSE
        coord DEF co Coordinate {
            point [
                -0.011 0.007 0.0, -0.011 0.0048 0.0, -0.0129 0.0047 0.0, -0.0105 0.0245 0.0, -0.0105 0.0223 0.0, -0.0004 0.0048 0.0, -0.0004 0.0245 0.0, 0.0034 0.008 0.0, 0.0034 0.0058 0.0, 0.0055 0.005 0.0, 0.0075 0.0047 0.0, 0.1772 0.1673 -0.0, 0.2067 0.1673 0.0, 0.1772 0.1476 0.0, 0.2067 0.0047 0.0, 0.0984 0.1476 0.0, 0.0394 0.1476 0.0, 0.0984 0.1673 -0.0, 0.0394 0.1673 -0.0, -0.003 0.0137 0.0, -0.003 0.007 0.0, -0.01 0.0137 0.0, -0.01 0.0158 0.0, -0.003 0.0158 0.0, -0.003 0.0223 0.0, 0.0132 0.0055 0.0, 0.0198 0.0048 0.0, 0.0113 0.0048 0.0, 0.01 0.0047 0.0, -0.0129 0.1476 0.0, 0.01 0.0223 0.0, 0.0115 0.0218 0.0, 0.0038 0.0078 0.0, 0.0128 0.0209 0.0, 0.014 0.0196 0.0, 0.0154 0.0144 0.0, 0.0152 0.0123 0.0, 0.0147 0.0106 0.0, 0.0103 0.0069 0.0, 0.0085 0.0067 0.0, 0.0118 0.0075 0.0, 0.013 0.0083 0.0, 0.0139 0.0092 0.0, 0.0059 0.007 0.0, 0.017 0.0193 0.0, 0.0159 0.0211 0.0, 0.0272 0.0245 0.0, 0.0148 0.0181 0.0, 0.0153 0.016 0.0, 0.0141 0.0228 0.0, 0.0298 0.0245 0.0, 0.0298 0.0048 0.0, 0.0148 0.0065 0.0, 0.0163 0.008 0.0, 0.0198 0.007 0.0, 0.0173 0.0099 0.0, 0.0272 0.007 0.0, 0.0179 0.012 0.0, 0.0181 0.0143 0.0, 0.0178 0.0171 0.0, 0.0122 0.0239 0.0, 0.01 0.0246 0.0, 0.0081 0.0247 0.0, 0.0057 0.0246 0.0, 0.0034 0.0239 0.0, 0.0034 0.0213 0.0, 0.0057 0.0223 0.0, 0.008 0.0226 0.0, 0.2067 -0.1673 0.0, 0.1772 -0.1476 0.0, 0.1772 -0.1673 -0.0, 0.0984 -0.1476 0.0, 0.0083 0.0046 0.0, 0.0089 0.0046 0.0, -0.045 0.0103 0.0, -0.0369 0.0103 0.0, -0.035 0.0048 0.0, -0.0321 0.0048 0.0, -0.0148 0.0245 0.0, -0.0297 0.0102 0.0, -0.0285 0.0084 0.0, -0.0269 0.0069 0.0, -0.0249 0.0057 0.0, -0.2067 0.0047 0.0, -0.2067 0.1673 0.0, -0.1772 0.1476 0.0, -0.1772 0.1673 -0.0, -0.047 0.0048 0.0, -0.0499 0.0048 0.0, -0.0422 0.0245 0.0, -0.0984 0.1673 -0.0, -0.0394 0.1673 -0.0, -0.0984 0.1476 0.0, -0.0394 0.1476 0.0, -0.0226 0.005 0.0, -0.0202 0.0048 0.0, -0.0148 0.0048 0.0, -0.0204 0.0245 0.0, -0.0232 0.0242 0.0, -0.0255 0.0234 0.0, -0.0277 0.0219 0.0, -0.0395 0.0245 0.0, -0.0291 0.0204 0.0, -0.03 0.0187 0.0, -0.0277 0.0219 0.0, -0.0305 0.0167 0.0, -0.0306 0.0149 0.0, -0.0304 0.0123 0.0, 0.0984 -0.1673 -0.0, 0.0394 -0.1673 -0.0, 0.0394 -0.1476 0.0, -0.0129 -0.1476 0.0, -0.0394 -0.1476 0.0, -0.1772 -0.1673 -0.0, -0.2067 -0.1673 0.0, -0.1772 -0.1476 0.0, -0.0984 -0.1476 0.0, -0.0984 -0.1673 -0.0, -0.0394 -0.1673 -0.0, -0.0394 -0.1673 -0.0
            ]
        }
        coordIndex [
            0,1,2,-1,3,4,0,-1,5,6,7,-1,7,8,5,-1,5,8,9,-1,5,9,10,-1,11,12,13,-1,13,12,14,-1,13,14,15,-1,15,14,16,-1,15,16,17,-1,17,16,18,-1,19,20,21,-1,21,20,0,-1,21,0,22,-1,22,0,4,-1,22,4,23,-1,23,4,24,-1,25,26,27,-1,27,26,28,-1,6,3,29,-1,30,31,32,-1,32,31,33,-1,32,33,34,-1,35,36,32,-1,32,36,37,-1,38,39,40,-1,40,39,41,-1,37,42,32,-1,32,42,41,-1,32,41,43,-1,43,41,39,-1,44,45,46,-1,34,47,32,-1,32,47,48,-1,32,48,35,-1,45,49,46,-1,46,49,29,-1,46,29,50,-1,50,29,16,-1,50,16,51,-1,51,16,14,-1,25,52,26,-1,26,52,53,-1,26,53,54,-1,54,53,55,-1,54,55,56,-1,55,57,56,-1,56,57,58,-1,56,58,46,-1,46,58,59,-1,46,59,44,-1,49,60,29,-1,29,60,61,-1,29,61,62,-1,62,63,29,-1,29,63,64,-1,29,64,6,-1,6,64,65,-1,6,65,7,-1,7,65,66,-1,7,66,32,-1,32,66,67,-1,32,67,30,-1,14,68,69,-1,69,68,70,-1,1,5,2,-1,2,5,10,-1,2,10,71,-1,71,10,72,-1,71,72,69,-1,69,72,73,-1,69,73,14,-1,14,73,28,-1,14,28,51,-1,51,28,26,-1,74,75,76,-1,76,77,2,-1,3,0,29,-1,29,0,2,-1,29,2,78,-1,79,80,77,-1,77,80,81,-1,77,81,82,-1,83,84,85,-1,85,84,86,-1,74,76,87,-1,87,76,2,-1,87,2,88,-1,88,2,83,-1,88,83,89,-1,90,91,92,-1,92,91,93,-1,82,94,77,-1,77,94,95,-1,77,95,2,-1,2,95,96,-1,2,96,78,-1,97,92,78,-1,78,92,93,-1,78,93,29,-1,97,98,92,-1,92,98,99,-1,92,99,100,-1,101,102,103,-1,102,101,104,-1,103,105,101,-1,101,105,106,-1,101,106,77,-1,77,106,107,-1,77,107,79,-1,83,85,89,-1,89,85,92,-1,89,92,101,-1,101,92,100,-1,101,100,104,-1,108,109,71,-1,71,109,110,-1,71,110,2,-1,2,110,111,-1,2,111,83,-1,83,111,112,-1,113,114,115,-1,115,114,83,-1,115,83,116,-1,116,83,112,-1,116,112,117,-1,117,112,118,-1,
        ]
    }
}
Shape{
    appearance Appearance {
        material  Material 	{
            diffuseColor 1.0 1.0 1.0
            specularColor 0.8784313725490196 0.8784313725490196 0.8784313725490196
            ambientIntensity 0.2
            transparency 0
            shininess 0.5
        }
    }
    geometry IndexedFaceSet {
        ccw TRUE
        solid FALSE
        coord DEF co Coordinate {
            point [
                0.0272 0.0245 0.0, 0.0298 0.0245 0.0, 0.0272 0.007 0.0, 0.0298 0.0048 0.0, 0.0198 0.007 0.0, 0.0198 0.0048 0.0, 0.0034 0.0058 0.0, 0.0034 0.008 0.0, 0.0038 0.0078 0.0, 0.0055 0.005 0.0, 0.0059 0.007 0.0, 0.0075 0.0047 0.0, 0.0085 0.0067 0.0, 0.0083 0.0046 0.0, 0.0089 0.0046 0.0, 0.0103 0.0069 0.0, 0.01 0.0047 0.0, 0.0034 0.0213 0.0, 0.0034 0.0239 0.0, 0.0057 0.0223 0.0, 0.0057 0.0246 0.0, 0.008 0.0226 0.0, 0.0081 0.0247 0.0, 0.01 0.0223 0.0, 0.01 0.0246 0.0, 0.0115 0.0218 0.0, 0.0122 0.0239 0.0, 0.0128 0.0209 0.0, 0.0141 0.0228 0.0, 0.014 0.0196 0.0, 0.0159 0.0211 0.0, 0.0148 0.0181 0.0, 0.017 0.0193 0.0, 0.0153 0.016 0.0, 0.0178 0.0171 0.0, 0.0154 0.0144 0.0, 0.0181 0.0143 0.0, 0.0152 0.0123 0.0, 0.0179 0.012 0.0, 0.0147 0.0106 0.0, 0.0173 0.0099 0.0, 0.0139 0.0092 0.0, 0.0163 0.008 0.0, 0.013 0.0083 0.0, 0.0148 0.0065 0.0, 0.0118 0.0075 0.0, 0.0132 0.0055 0.0, 0.0113 0.0048 0.0, 0.0113 0.0048 0.0
            ]
        }
        coordIndex [
            0,1,2,-1,2,1,3,-1,2,3,4,-1,4,3,5,-1,6,7,8,-1,6,8,9,-1,9,8,10,-1,9,10,11,-1,11,10,12,-1,11,12,13,-1,13,12,14,-1,14,12,15,-1,14,15,16,-1,17,18,19,-1,19,18,20,-1,19,20,21,-1,21,20,22,-1,21,22,23,-1,23,22,24,-1,23,24,25,-1,25,24,26,-1,25,26,27,-1,27,26,28,-1,27,28,29,-1,29,28,30,-1,29,30,31,-1,31,30,32,-1,31,32,33,-1,33,32,34,-1,33,34,35,-1,35,34,36,-1,35,36,37,-1,37,36,38,-1,37,38,39,-1,39,38,40,-1,39,40,41,-1,41,40,42,-1,41,42,43,-1,43,42,44,-1,43,44,45,-1,45,44,46,-1,45,46,15,-1,15,46,47,-1,15,47,16,-1,
        ]
    }
}
Shape{
    appearance Appearance {
        material  Material 	{
            diffuseColor 0.07058823529411765 0.07058823529411765 0.07058823529411765
            specularColor 0.00392156862745098 0.00392156862745098 0.00392156862745098
            ambientIntensity 0.2
            transparency 0
            shininess 0.5
        }
    }
    geometry IndexedFaceSet {
        ccw TRUE
        solid FALSE
        coord DEF co Coordinate {
            point [
                -0.0174 0.0223 0.0, -0.0174 0.007 0.0, -0.0203 0.0223 0.0, -0.0202 0.007 0.0, -0.0223 0.0072 0.0, -0.028 0.0148 0.0, -0.0278 0.0168 0.0, -0.0274 0.0183 0.0, -0.0227 0.0221 0.0, -0.024 0.0077 0.0, -0.0253 0.0085 0.0, -0.0264 0.0096 0.0, -0.0273 0.0109 0.0, -0.0278 0.0128 0.0, -0.0267 0.0196 0.0, -0.0257 0.0206 0.0, -0.0243 0.0215 0.0, -0.0243 0.0215 0.0
            ]
        }
        coordIndex [
            0,1,2,-1,2,1,3,-1,2,3,4,-1,5,6,2,-1,2,6,7,-1,2,7,8,-1,4,9,2,-1,2,9,10,-1,2,10,11,-1,11,12,2,-1,2,12,13,-1,2,13,5,-1,14,15,7,-1,7,15,16,-1,7,16,8,-1,
        ]
    }
}
Shape{
    appearance Appearance {
        material  Material 	{
            diffuseColor 1.0 1.0 1.0
            specularColor 0.8784313725490196 0.8784313725490196 0.8784313725490196
            ambientIntensity 0.2
            transparency 0
            shininess 0.5
        }
    }
    geometry IndexedFaceSet {
        ccw TRUE
        solid FALSE
        coord DEF co Coordinate {
            point [
                -0.0004 0.0048 0.0, -0.011 0.0048 0.0, -0.011 0.007 0.0, -0.003 0.007 0.0, -0.003 0.0137 0.0, -0.0004 0.0245 0.0, -0.0105 0.0223 0.0, -0.0105 0.0245 0.0, -0.003 0.0223 0.0, -0.003 0.0158 0.0, -0.01 0.0158 0.0, -0.01 0.0137 0.0, -0.01 0.0137 0.0
            ]
        }
        coordIndex [
            0,1,2,-1,2,3,0,-1,0,3,4,-1,0,4,5,-1,6,7,8,-1,8,7,5,-1,8,5,9,-1,9,5,4,-1,9,4,10,-1,10,4,11,-1,
        ]
    }
}
Shape{
    appearance Appearance {
        material  Material 	{
            diffuseColor 0.07058823529411765 0.07058823529411765 0.07058823529411765
            specularColor 0.00392156862745098 0.00392156862745098 0.00392156862745098
            ambientIntensity 0.2
            transparency 0
            shininess 0.5
        }
    }
    geometry IndexedFaceSet {
        ccw TRUE
        solid FALSE
        coord DEF co Coordinate {
            point [
                -0.0375 0.0125 0.0, -0.0441 0.0125 0.0, -0.0405 0.0207 0.0, -0.0411 0.0207 0.0, -0.0406 0.0214 0.0, -0.041 0.0214 0.0, -0.0408 0.0221 0.0, -0.0408 0.0221 0.0, -0.0408 0.0221 0.0
            ]
        }
        coordIndex [
            0,1,2,-1,2,1,3,-1,2,3,4,-1,4,3,5,-1,4,5,6,-1,6,5,7,-1,
        ]
    }
}
Shape{
    appearance Appearance {
        material  Material 	{
            diffuseColor 1.0 1.0 1.0
            specularColor 0.8784313725490196 0.8784313725490196 0.8784313725490196
            ambientIntensity 0.2
            transparency 0
            shininess 0.5
        }
    }
    geometry IndexedFaceSet {
        ccw TRUE
        solid FALSE
        coord DEF co Coordinate {
            point [
                -0.03 0.0187 0.0, -0.0291 0.0204 0.0, -0.0267 0.0196 0.0, -0.0277 0.0219 0.0, -0.0257 0.0206 0.0, -0.0277 0.0219 0.0, -0.0243 0.0215 0.0, -0.0255 0.0234 0.0, -0.0227 0.0221 0.0, -0.0232 0.0242 0.0, -0.0203 0.0223 0.0, -0.0204 0.0245 0.0, -0.0174 0.0223 0.0, -0.0148 0.0245 0.0, -0.0174 0.007 0.0, -0.0148 0.0048 0.0, -0.0202 0.007 0.0, -0.0202 0.0048 0.0, -0.0223 0.0072 0.0, -0.0226 0.005 0.0, -0.024 0.0077 0.0, -0.0249 0.0057 0.0, -0.0253 0.0085 0.0, -0.0269 0.0069 0.0, -0.0264 0.0096 0.0, -0.0285 0.0084 0.0, -0.0273 0.0109 0.0, -0.0297 0.0102 0.0, -0.0278 0.0128 0.0, -0.0304 0.0123 0.0, -0.028 0.0148 0.0, -0.0306 0.0149 0.0, -0.0278 0.0168 0.0, -0.0305 0.0167 0.0, -0.0274 0.0183 0.0, -0.0375 0.0125 0.0, -0.0369 0.0103 0.0, -0.0441 0.0125 0.0, -0.045 0.0103 0.0, -0.0405 0.0207 0.0, -0.0395 0.0245 0.0, -0.0321 0.0048 0.0, -0.035 0.0048 0.0, -0.0406 0.0214 0.0, -0.0408 0.0221 0.0, -0.0422 0.0245 0.0, -0.0408 0.0221 0.0, -0.041 0.0214 0.0, -0.0411 0.0207 0.0, -0.0499 0.0048 0.0, -0.047 0.0048 0.0, -0.047 0.0048 0.0
            ]
        }
        coordIndex [
            0,1,2,-1,2,1,3,-1,2,3,4,-1,4,3,5,-1,4,5,6,-1,6,5,7,-1,6,7,8,-1,8,7,9,-1,8,9,10,-1,10,9,11,-1,10,11,12,-1,12,11,13,-1,12,13,14,-1,14,13,15,-1,14,15,16,-1,16,15,17,-1,16,17,18,-1,18,17,19,-1,18,19,20,-1,20,19,21,-1,20,21,22,-1,22,21,23,-1,22,23,24,-1,24,23,25,-1,24,25,26,-1,26,25,27,-1,26,27,28,-1,28,27,29,-1,28,29,30,-1,30,29,31,-1,30,31,32,-1,32,31,33,-1,32,33,34,-1,34,33,0,-1,34,0,2,-1,35,36,37,-1,37,36,38,-1,39,40,35,-1,35,40,41,-1,35,41,36,-1,36,41,42,-1,39,43,40,-1,40,43,44,-1,40,44,45,-1,45,44,46,-1,45,46,47,-1,47,48,45,-1,45,48,37,-1,45,37,49,-1,49,37,38,-1,49,38,50,-1,
        ]
    }
}
Shape{
    appearance Appearance {
        material  Material 	{
            diffuseColor 0.07058823529411765 0.07058823529411765 0.07058823529411765
            specularColor 0.00392156862745098 0.00392156862745098 0.00392156862745098
            ambientIntensity 0.2
            transparency 0
            shininess 0.5
        }
    }
    geometry IndexedFaceSet {
        ccw TRUE
        solid FALSE
        coord DEF co Coordinate {
            point [
                0.0984 0.1604 0.0512, 0.0984 0.1673 -0.0, 0.0394 0.1673 -0.0, -0.0394 0.1673 -0.0, -0.0984 0.1673 -0.0, -0.0394 0.1604 0.0512, -0.0984 0.1604 0.0512, 0.0394 0.1604 0.0512, 0.187 0.1476 0.1457, 0.1772 0.1604 0.0512, 0.2067 0.1673 0.0, 0.1772 0.1673 -0.0, -0.1772 0.1673 -0.0, -0.2067 0.1673 0.0, -0.1772 0.1604 0.0512, -0.187 0.1476 0.1457, -0.0984 -0.1604 0.0512, -0.0984 -0.1673 -0.0, -0.0394 -0.1673 -0.0, -0.187 -0.1476 0.1457, -0.0394 -0.1604 0.0512, 0.187 -0.1476 0.1457, 0.0394 -0.1604 0.0512, -0.1772 -0.1604 0.0512, -0.2067 -0.1673 0.0, -0.1772 -0.1673 -0.0, 0.1772 -0.1673 -0.0, 0.2067 -0.1673 0.0, 0.1772 -0.1604 0.0512, 0.0984 -0.1604 0.0512, 0.0984 -0.1673 -0.0, 0.0394 -0.1673 -0.0, -0.2067 0.0047 0.0, 0.2067 0.0047 0.0, 0.2067 0.0047 0.0
            ]
        }
        coordIndex [
            0,1,2,-1,3,4,5,-1,5,4,6,-1,2,7,0,-1,0,7,8,-1,0,8,9,-1,9,8,10,-1,9,10,11,-1,12,13,14,-1,14,13,15,-1,14,15,6,-1,6,15,8,-1,6,8,5,-1,5,8,7,-1,16,17,18,-1,19,20,21,-1,21,20,22,-1,18,20,16,-1,16,20,19,-1,16,19,23,-1,23,19,24,-1,23,24,25,-1,26,27,28,-1,28,27,21,-1,28,21,29,-1,29,21,22,-1,29,22,30,-1,30,22,31,-1,21,8,19,-1,19,8,15,-1,24,19,32,-1,32,19,15,-1,32,15,13,-1,21,27,8,-1,8,27,33,-1,8,33,10,-1,
        ]
    }
}
Shape{
    appearance Appearance {
        material  Material 	{
            diffuseColor 1.0 1.0 1.0
            specularColor 0.8784313725490196 0.8784313725490196 0.8784313725490196
            ambientIntensity 0.2
            transparency 0
            shininess 0.5
        }
    }
    geometry IndexedFaceSet {
        ccw TRUE
        solid FALSE
        coord DEF co Coordinate {
            point [
                0.1772 -0.1476 0.0, 0.1772 -0.1476 -0.0197, 0.0984 -0.1476 0.0, 0.0984 -0.1476 -0.0197, 0.1772 -0.1604 0.0512, 0.1772 -0.2067 0.0512, 0.1772 -0.1673 -0.0, 0.1772 -0.2067 -0.0197, 0.0984 -0.1673 -0.0, 0.0984 -0.2067 -0.0197, 0.0984 -0.1604 0.0512, 0.0984 -0.2067 0.0512, 0.0984 0.1476 0.0, 0.0984 0.1476 -0.0197, 0.1772 0.1476 0.0, 0.1772 0.1476 -0.0197, 0.1772 0.1673 -0.0, 0.1772 0.2067 -0.0197, 0.1772 0.1604 0.0512, 0.1772 0.2067 0.0512, 0.0984 0.1604 0.0512, 0.0984 0.2067 0.0512, 0.0984 0.1673 -0.0, 0.0984 0.2067 -0.0197, 0.0394 -0.1476 0.0, 0.0394 -0.1476 -0.0197, -0.0129 -0.1476 0.0, -0.0394 -0.1476 -0.0197, -0.0394 -0.1476 0.0, 0.0394 -0.1604 0.0512, 0.0394 -0.2067 0.0512, 0.0394 -0.1673 -0.0, 0.0394 -0.2067 -0.0197, -0.0394 -0.1673 -0.0, -0.0394 -0.2067 -0.0197, -0.0394 -0.1604 0.0512, -0.0394 -0.2067 0.0512, 0.0394 0.1476 -0.0197, 0.0394 0.1476 0.0, -0.0394 0.1476 -0.0197, -0.0129 0.1476 0.0, -0.0394 0.1476 0.0, 0.0394 0.1673 -0.0, 0.0394 0.2067 -0.0197, 0.0394 0.1604 0.0512, 0.0394 0.2067 0.0512, -0.0394 0.1604 0.0512, -0.0394 0.2067 0.0512, -0.0394 0.1673 -0.0, -0.0394 0.2067 -0.0197, -0.0984 -0.1476 0.0, -0.0984 -0.1476 -0.0197, -0.1772 -0.1476 0.0, -0.1772 -0.1476 -0.0197, -0.0984 -0.1604 0.0512, -0.0984 -0.2067 0.0512, -0.0984 -0.1673 -0.0, -0.0984 -0.2067 -0.0197, -0.1772 -0.1673 -0.0, -0.1772 -0.2067 -0.0197, -0.1772 -0.1604 0.0512, -0.1772 -0.2067 0.0512, -0.1772 0.1476 0.0, -0.1772 0.1476 -0.0197, -0.0984 0.1476 0.0, -0.0984 0.1476 -0.0197, -0.0984 0.1673 -0.0, -0.0984 0.2067 -0.0197, -0.0984 0.1604 0.0512, -0.0984 0.2067 0.0512, -0.1772 0.1604 0.0512, -0.1772 0.2067 0.0512, -0.1772 0.1673 -0.0, -0.1772 0.2067 -0.0197, -0.1772 0.2067 -0.0197
            ]
        }
        coordIndex [
            0,1,2,-1,2,1,3,-1,4,5,6,-1,6,5,7,-1,6,7,0,-1,0,7,1,-1,2,3,8,-1,8,3,9,-1,8,9,10,-1,10,9,11,-1,10,11,4,-1,4,11,5,-1,11,9,5,-1,5,9,7,-1,9,3,7,-1,7,3,1,-1,12,13,14,-1,14,13,15,-1,14,15,16,-1,16,15,17,-1,16,17,18,-1,18,17,19,-1,20,21,22,-1,22,21,23,-1,22,23,12,-1,12,23,13,-1,19,21,18,-1,18,21,20,-1,19,17,21,-1,21,17,23,-1,13,23,15,-1,15,23,17,-1,24,25,26,-1,26,25,27,-1,26,27,28,-1,29,30,31,-1,31,30,32,-1,31,32,24,-1,24,32,25,-1,28,27,33,-1,33,27,34,-1,33,34,35,-1,35,34,36,-1,36,30,35,-1,35,30,29,-1,36,34,30,-1,30,34,32,-1,32,34,25,-1,25,34,27,-1,37,38,39,-1,39,38,40,-1,39,40,41,-1,38,37,42,-1,42,37,43,-1,42,43,44,-1,44,43,45,-1,46,47,48,-1,48,47,49,-1,48,49,41,-1,41,49,39,-1,45,47,44,-1,44,47,46,-1,45,43,47,-1,47,43,49,-1,39,49,37,-1,37,49,43,-1,50,51,52,-1,52,51,53,-1,54,55,56,-1,56,55,57,-1,56,57,50,-1,50,57,51,-1,52,53,58,-1,58,53,59,-1,58,59,60,-1,60,59,61,-1,61,55,60,-1,60,55,54,-1,61,59,55,-1,55,59,57,-1,57,59,51,-1,51,59,53,-1,62,63,64,-1,64,63,65,-1,64,65,66,-1,66,65,67,-1,66,67,68,-1,68,67,69,-1,70,71,72,-1,72,71,73,-1,72,73,62,-1,62,73,63,-1,69,71,68,-1,68,71,70,-1,69,67,71,-1,71,67,73,-1,63,73,65,-1,65,73,67,-1,
        ]
    }
}