#VRML V2.0 utf8
# 3D model generated by easyeda2kicad.py (https://github.com/uPesy/easyeda2kicad.py)

Shape{
    appearance Appearance {
        material  Material 	{
            diffuseColor 0.5019607843137255 0.5019607843137255 0.5019607843137255
            specularColor 0.25098039215686274 0.25098039215686274 0.25098039215686274
            ambientIntensity 0.2
            transparency 0
            shininess 0.5
        }
    }
    geometry IndexedFaceSet {
        ccw TRUE
        solid FALSE
        coord DEF co Coordinate {
            point [
                -0.0984 -0.1969 0.0253, -0.0394 -0.1969 0.0253, 0.1142 -0.1969 0.1535, -0.1142 -0.1969 0.1535, -0.1142 -0.1969 0.0, -0.0984 -0.1969 0.0118, -0.0713 -0.1969 0.0, -0.0394 -0.1969 0.0118, -0.0258 -0.1969 0.0, -0.0073 -0.1969 0.0, 0.0394 -0.1969 0.0253, 0.0984 -0.1969 0.0253, 0.1142 -0.1969 0.0, 0.0984 -0.1969 0.0118, 0.0245 -0.1969 0.0, 0.0394 -0.1969 0.0118, 0.0071 -0.1969 0.0, 0.1181 -0.144 0.0236, 0.1181 -0.1046 0.0236, 0.1181 0.1929 0.1535, 0.1181 -0.0134 0.0118, 0.1181 -0.0231 0.0, 0.1181 -0.0031 0.0, 0.1181 -0.187 0.0, 0.1181 -0.051 0.0, 0.1181 -0.1046 0.0118, 0.1181 -0.1929 0.1535, 0.1181 -0.1929 0.0, 0.1181 0.0436 0.0118, 0.1181 -0.0134 0.0236, 0.1181 -0.144 0.0118, 0.1181 0.0379 0.0, 0.1181 0.1929 0.0, 0.1181 0.0436 0.0236, -0.0258 -0.051 0.0, -0.0713 -0.051 0.0, -0.0713 -0.0231 0.0, -0.0073 -0.187 0.0, -0.0258 -0.187 0.0, -0.1181 -0.1929 0.0, -0.1181 -0.187 0.0, -0.0713 -0.187 0.0, -0.0984 0.1772 0.0, -0.1181 0.1929 0.0, -0.118 0.1939 0.0, -0.1176 0.1949 0.0, -0.117 0.1957 0.0, -0.1161 0.1963 0.0, 0.1176 0.1949 0.0, 0.118 0.1939 0.0, 0.0984 0.1772 0.0, 0.0984 0.0787 0.0, 0.0245 0.0787 0.0, -0.1152 0.1967 0.0, -0.1142 0.1969 0.0, -0.0713 0.1772 0.0, -0.0713 0.1969 0.0, -0.0258 0.1772 0.0, -0.0258 0.1969 0.0, -0.0073 0.1772 0.0, -0.0073 0.1969 0.0, 0.0071 0.1772 0.0, 0.0071 0.1969 0.0, 0.0245 0.1772 0.0, 0.0245 0.1969 0.0, 0.1142 0.1969 0.0, 0.1152 0.1967 0.0, 0.1161 0.1963 0.0, 0.117 0.1957 0.0, 0.0071 0.0787 0.0, 0.0245 0.0379 0.0, -0.1181 0.0379 0.0, -0.0984 0.0787 0.0, -0.0713 0.0379 0.0, -0.0713 0.0787 0.0, -0.0258 0.0379 0.0, -0.0258 0.0787 0.0, -0.0073 0.0379 0.0, -0.0073 0.0787 0.0, 0.0071 0.0379 0.0, -0.1152 -0.1967 0.0, -0.1161 -0.1963 0.0, -0.117 -0.1957 0.0, -0.118 -0.1939 0.0, -0.1176 -0.1949 0.0, 0.117 -0.1957 0.0, 0.1161 -0.1963 0.0, 0.1152 -0.1967 0.0, 0.0245 -0.187 0.0, 0.1176 -0.1949 0.0, 0.118 -0.1939 0.0, -0.0713 -0.0787 0.0, -0.0394 -0.0787 0.0, -0.0394 -0.1772 0.0, -0.0713 -0.1772 0.0, -0.0984 -0.1772 0.0, -0.0984 -0.0787 0.0, -0.1181 -0.051 0.0, 0.009 -0.0198 0.0, 0.009 -0.0219 0.0, 0.0071 -0.0231 0.0, 0.0111 -0.0228 0.0, 0.0131 -0.0231 0.0, 0.0119 -0.0031 0.0, 0.0113 -0.0032 0.0, 0.0071 -0.0031 0.0, 0.009 -0.0038 0.0, 0.009 -0.0064 0.0, 0.0112 -0.0055 0.0, 0.0094 -0.02 0.0, 0.0136 -0.0052 0.0, 0.0156 -0.0054 0.0, 0.017 -0.0059 0.0, 0.0184 -0.0068 0.0, 0.0196 -0.0082 0.0, 0.021 -0.0133 0.0, 0.0208 -0.0154 0.0, 0.0203 -0.0171 0.0, 0.0159 -0.0208 0.0, 0.0141 -0.021 0.0, 0.0173 -0.0203 0.0, 0.0186 -0.0195 0.0, 0.0195 -0.0185 0.0, 0.0115 -0.0207 0.0, 0.0204 -0.0097 0.0, 0.0209 -0.0118 0.0, 0.0151 -0.0031 0.0, 0.0137 -0.003 0.0, 0.0188 -0.0223 0.0, 0.0204 -0.0213 0.0, 0.0245 -0.0231 0.0, 0.0215 -0.0066 0.0, 0.0197 -0.0049 0.0, 0.0245 -0.0031 0.0, 0.0178 -0.0038 0.0, 0.0237 -0.0135 0.0, 0.0234 -0.0107 0.0, 0.0226 -0.0084 0.0, 0.0156 -0.0032 0.0, 0.0218 -0.0197 0.0, 0.0229 -0.0178 0.0, 0.0235 -0.0158 0.0, 0.0139 -0.0232 0.0, 0.0144 -0.0232 0.0, 0.0071 -0.051 0.0, 0.0156 -0.0231 0.0, 0.0245 -0.051 0.0, 0.0394 -0.0787 0.0, 0.0394 -0.1772 0.0, 0.0984 -0.1772 0.0, 0.0984 -0.0787 0.0, 0.0169 -0.0229 0.0, -0.1181 -0.0231 0.0, 0.0253 -0.0208 0.0, 0.0253 -0.0229 0.0, 0.0354 -0.0229 0.0, 0.0354 -0.0033 0.0, 0.0328 -0.0033 0.0, 0.0328 -0.0208 0.0, -0.0054 -0.0208 0.0, -0.0054 -0.0229 0.0, -0.0073 -0.0231 0.0, 0.0052 -0.0229 0.0, 0.0052 -0.0033 0.0, -0.0049 -0.0033 0.0, -0.0073 -0.0031 0.0, -0.0049 -0.0054 0.0, 0.0025 -0.0054 0.0, 0.0025 -0.0119 0.0, 0.0025 -0.0141 0.0, 0.0025 -0.0208 0.0, -0.0044 -0.0141 0.0, -0.0044 -0.0119 0.0, -0.0146 -0.0229 0.0, -0.0092 -0.0229 0.0, -0.0251 -0.0129 0.0, -0.0248 -0.0155 0.0, -0.0258 -0.0231 0.0, -0.0241 -0.0176 0.0, -0.023 -0.0193 0.0, -0.0213 -0.0209 0.0, -0.0193 -0.0221 0.0, -0.017 -0.0227 0.0, -0.0092 -0.0033 0.0, -0.0148 -0.0033 0.0, -0.0258 -0.0031 0.0, -0.0176 -0.0036 0.0, -0.0199 -0.0044 0.0, -0.0221 -0.0058 0.0, -0.0221 -0.0058 0.0, -0.0235 -0.0074 0.0, -0.0244 -0.0091 0.0, -0.0249 -0.011 0.0, -0.0073 -0.051 0.0, 0.0071 -0.187 0.0, -0.0414 -0.0229 0.0, -0.0394 -0.0174 0.0, -0.0313 -0.0174 0.0, -0.0294 -0.0229 0.0, -0.0265 -0.0229 0.0, -0.0443 -0.0229 0.0, -0.0366 -0.0033 0.0, -0.1181 -0.0031 0.0, -0.0713 -0.0031 0.0, -0.0339 -0.0033 0.0, 0.0984 0.1969 0.0253, 0.1142 0.1969 0.1535, 0.0394 0.1969 0.0253, -0.0394 0.1969 0.0253, -0.1142 0.1969 0.1535, -0.0984 0.1969 0.0253, -0.0984 0.1969 0.0118, -0.0394 0.1969 0.0118, 0.0394 0.1969 0.0118, 0.0984 0.1969 0.0118, -0.1181 -0.1929 0.1535, -0.1181 -0.0134 0.0118, -0.1181 0.0436 0.0118, -0.1181 -0.0134 0.0236, -0.1181 -0.1046 0.0236, -0.1181 -0.144 0.0236, -0.1181 -0.144 0.0118, -0.1181 -0.1046 0.0118, -0.1181 0.0436 0.0236, -0.1181 0.1929 0.1535, 0.1142 -0.1929 0.1575, -0.0525 -0.1425 0.1575, -0.0531 -0.1477 0.1575, -0.0815 -0.1641 0.1575, -0.0863 -0.162 0.1575, -0.1142 -0.1929 0.1575, -0.0549 -0.1526 0.1575, -0.0578 -0.157 0.1575, -0.0616 -0.1606 0.1575, -0.0616 -0.1244 0.1575, -0.0578 -0.128 0.1575, 0.1142 0.1929 0.1575, -0.0549 -0.1324 0.1575, -0.0531 -0.1373 0.1575, -0.0661 -0.1632 0.1575, -0.0711 -0.1647 0.1575, -0.0763 -0.165 0.1575, -0.0905 -0.1589 0.1575, -0.0939 -0.1549 0.1575, -0.0962 -0.1502 0.1575, -0.0939 -0.1301 0.1575, -0.0905 -0.1261 0.1575, -0.1142 0.1929 0.1575, -0.0863 -0.123 0.1575, -0.0711 -0.1203 0.1575, -0.0661 -0.1218 0.1575, -0.0974 -0.1451 0.1575, -0.0974 -0.1399 0.1575, -0.0962 -0.1348 0.1575, -0.0815 -0.1209 0.1575, -0.0763 -0.12 0.1575, -0.0763 -0.12 0.1575
            ]
        }
        coordIndex [
            0,1,2,-1,2,3,0,-1,0,3,4,-1,0,4,5,-1,5,4,6,-1,5,6,7,-1,7,6,8,-1,7,8,1,-1,8,9,1,-1,1,9,10,-1,1,10,2,-1,2,10,11,-1,2,11,12,-1,12,11,13,-1,12,13,14,-1,14,13,15,-1,14,15,16,-1,16,15,10,-1,16,10,9,-1,17,18,19,-1,20,21,22,-1,23,24,25,-1,26,27,23,-1,20,22,28,-1,21,20,24,-1,24,20,29,-1,24,29,25,-1,19,26,17,-1,17,26,23,-1,17,23,30,-1,30,23,25,-1,22,31,28,-1,28,31,32,-1,28,32,33,-1,33,32,19,-1,33,19,29,-1,29,19,18,-1,29,18,25,-1,34,35,36,-1,37,38,34,-1,39,40,41,-1,42,43,44,-1,44,45,42,-1,42,45,46,-1,42,46,47,-1,48,49,50,-1,50,49,32,-1,50,32,51,-1,51,32,31,-1,51,31,52,-1,47,53,42,-1,42,53,54,-1,42,54,55,-1,55,54,56,-1,55,56,57,-1,57,56,58,-1,57,58,59,-1,59,58,60,-1,59,60,61,-1,61,60,62,-1,61,62,63,-1,63,62,64,-1,63,64,50,-1,50,64,65,-1,50,65,66,-1,66,67,50,-1,50,67,68,-1,50,68,48,-1,69,52,70,-1,43,42,71,-1,71,42,72,-1,71,72,73,-1,73,72,74,-1,73,74,75,-1,75,74,76,-1,75,76,77,-1,77,76,78,-1,77,78,79,-1,39,4,80,-1,80,81,39,-1,39,81,82,-1,39,82,83,-1,83,82,84,-1,85,86,87,-1,23,27,88,-1,88,27,12,-1,85,87,89,-1,12,27,87,-1,87,27,90,-1,87,90,89,-1,91,35,92,-1,92,35,34,-1,92,34,93,-1,93,34,38,-1,93,38,94,-1,94,38,41,-1,94,41,95,-1,95,41,40,-1,95,40,96,-1,96,40,97,-1,96,97,91,-1,98,99,100,-1,100,99,101,-1,100,101,102,-1,103,104,105,-1,105,104,106,-1,105,106,107,-1,98,108,109,-1,109,108,110,-1,109,110,111,-1,111,112,109,-1,109,112,113,-1,109,113,114,-1,115,116,109,-1,109,116,117,-1,118,119,120,-1,120,119,121,-1,117,122,109,-1,109,122,121,-1,109,121,123,-1,123,121,119,-1,114,124,109,-1,109,124,125,-1,109,125,115,-1,126,127,79,-1,128,129,130,-1,131,132,133,-1,133,132,134,-1,135,136,133,-1,133,136,137,-1,133,137,131,-1,78,69,79,-1,79,69,70,-1,79,70,126,-1,126,70,133,-1,126,133,138,-1,138,133,134,-1,129,139,130,-1,130,139,140,-1,130,140,141,-1,142,143,144,-1,144,143,145,-1,4,39,6,-1,6,39,41,-1,6,41,8,-1,8,41,38,-1,8,38,9,-1,9,38,37,-1,9,37,16,-1,146,147,88,-1,88,147,148,-1,88,148,23,-1,23,148,149,-1,23,149,24,-1,24,149,150,-1,88,144,146,-1,146,144,145,-1,146,145,130,-1,130,145,151,-1,130,151,128,-1,91,97,35,-1,35,97,152,-1,35,152,36,-1,153,154,130,-1,130,154,155,-1,156,22,155,-1,155,22,21,-1,155,21,130,-1,130,21,24,-1,130,24,146,-1,146,24,150,-1,146,150,147,-1,141,135,130,-1,130,135,133,-1,130,133,153,-1,153,133,157,-1,153,157,158,-1,159,160,161,-1,161,160,100,-1,161,100,144,-1,144,100,102,-1,144,102,142,-1,160,162,100,-1,100,162,105,-1,100,105,98,-1,98,105,107,-1,98,107,108,-1,162,163,105,-1,105,163,164,-1,105,164,165,-1,165,164,166,-1,166,167,168,-1,169,170,171,-1,171,170,159,-1,171,159,172,-1,173,174,161,-1,161,174,165,-1,161,165,159,-1,159,165,166,-1,159,166,172,-1,172,166,168,-1,175,176,177,-1,177,176,178,-1,177,178,179,-1,179,180,177,-1,177,180,181,-1,177,181,182,-1,174,183,165,-1,165,183,184,-1,165,184,185,-1,185,184,186,-1,186,187,185,-1,185,187,188,-1,185,188,189,-1,189,190,185,-1,185,190,191,-1,185,191,192,-1,182,173,177,-1,177,173,161,-1,177,161,193,-1,193,161,144,-1,193,144,194,-1,194,144,88,-1,194,88,14,-1,14,88,12,-1,195,196,197,-1,198,199,177,-1,177,199,185,-1,177,185,175,-1,175,185,192,-1,197,198,195,-1,195,198,177,-1,195,177,200,-1,201,200,36,-1,36,200,177,-1,36,177,34,-1,34,177,193,-1,34,193,37,-1,37,193,194,-1,37,194,16,-1,16,194,14,-1,152,202,36,-1,36,202,203,-1,36,203,201,-1,201,203,185,-1,201,185,204,-1,204,185,199,-1,52,31,70,-1,70,31,22,-1,70,22,133,-1,133,22,156,-1,133,156,157,-1,202,71,203,-1,203,71,73,-1,203,73,185,-1,185,73,75,-1,185,75,165,-1,165,75,77,-1,165,77,105,-1,105,77,79,-1,105,79,103,-1,103,79,127,-1,205,206,65,-1,205,207,206,-1,206,207,208,-1,206,208,209,-1,209,208,210,-1,209,210,54,-1,54,210,211,-1,54,211,56,-1,56,211,58,-1,58,211,212,-1,58,212,60,-1,60,212,208,-1,60,208,62,-1,62,208,207,-1,62,207,64,-1,64,207,213,-1,64,213,65,-1,65,213,214,-1,65,214,205,-1,40,39,215,-1,216,217,71,-1,71,202,216,-1,216,202,152,-1,216,152,218,-1,218,152,97,-1,219,220,215,-1,215,220,221,-1,215,221,40,-1,40,221,222,-1,40,222,97,-1,97,222,219,-1,97,219,218,-1,218,219,215,-1,218,215,223,-1,223,215,224,-1,223,224,217,-1,217,224,43,-1,217,43,71,-1,225,226,227,-1,228,229,230,-1,227,231,225,-1,225,231,232,-1,225,232,233,-1,234,235,236,-1,236,235,237,-1,236,237,225,-1,225,237,238,-1,225,238,226,-1,233,239,225,-1,225,239,240,-1,225,240,230,-1,230,240,241,-1,230,241,228,-1,229,242,230,-1,230,242,243,-1,230,243,244,-1,245,246,247,-1,247,246,248,-1,247,249,236,-1,236,249,250,-1,236,250,234,-1,244,251,230,-1,230,251,252,-1,230,252,247,-1,247,252,253,-1,247,253,245,-1,248,254,247,-1,247,254,255,-1,247,255,249,-1,
        ]
    }
}
Shape{
    appearance Appearance {
        material  Material 	{
            diffuseColor 0.7529411764705882 0.7529411764705882 0.7529411764705882
            specularColor 0.3764705882352941 0.3764705882352941 0.3764705882352941
            ambientIntensity 0.2
            transparency 0
            shininess 0.5
        }
    }
    geometry IndexedFaceSet {
        ccw TRUE
        solid FALSE
        coord DEF co Coordinate {
            point [
                -0.0584 -0.1508 0.1535, -0.0569 -0.1468 0.1535, -0.075 -0.1425 0.1535, -0.0564 -0.1425 0.1535, -0.0569 -0.1382 0.1535, -0.0677 -0.1596 0.1535, -0.0639 -0.1574 0.1535, -0.0608 -0.1544 0.1535, -0.0804 -0.1603 0.1535, -0.0761 -0.1611 0.1535, -0.0718 -0.1608 0.1535, -0.0906 -0.1527 0.1535, -0.0878 -0.156 0.1535, -0.0843 -0.1586 0.1535, -0.0935 -0.1403 0.1535, -0.0935 -0.1446 0.1535, -0.0925 -0.1488 0.1535, -0.0878 -0.1289 0.1535, -0.0906 -0.1323 0.1535, -0.0925 -0.1361 0.1535, -0.0761 -0.1239 0.1535, -0.0804 -0.1247 0.1535, -0.0843 -0.1264 0.1535, -0.0639 -0.1276 0.1535, -0.0677 -0.1254 0.1535, -0.0718 -0.1242 0.1535, -0.0584 -0.1341 0.1535, -0.0608 -0.1305 0.1535, -0.0608 -0.1305 0.1535
            ]
        }
        coordIndex [
            0,1,2,-1,2,1,3,-1,2,3,4,-1,5,6,2,-1,2,6,7,-1,2,7,0,-1,8,9,2,-1,2,9,10,-1,2,10,5,-1,11,12,2,-1,2,12,13,-1,2,13,8,-1,14,15,2,-1,2,15,16,-1,2,16,11,-1,17,18,2,-1,2,18,19,-1,2,19,14,-1,20,21,2,-1,2,21,22,-1,2,22,17,-1,23,24,2,-1,2,24,25,-1,2,25,20,-1,4,26,2,-1,2,26,27,-1,2,27,23,-1,
        ]
    }
}
Shape{
    appearance Appearance {
        material  Material 	{
            diffuseColor 1.0 1.0 1.0
            specularColor 0.5019607843137255 0.5019607843137255 0.5019607843137255
            ambientIntensity 0.2
            transparency 0
            shininess 0.5
        }
    }
    geometry IndexedFaceSet {
        ccw TRUE
        solid FALSE
        coord DEF co Coordinate {
            point [
                0.0394 -0.0787 -0.0039, 0.0394 -0.1772 -0.0039, 0.0394 -0.0787 0.0, 0.0394 -0.1772 0.0, 0.0984 -0.0787 -0.0039, 0.0984 -0.0787 0.0, 0.0984 -0.1772 -0.0039, 0.0984 -0.1772 0.0, -0.0984 0.1772 -0.0039, -0.0984 0.0787 -0.0039, -0.0984 0.1772 0.0, -0.0984 0.0787 0.0, -0.0713 0.1772 0.0, -0.0258 0.1772 0.0, -0.0073 0.1772 0.0, 0.0071 0.1772 0.0, 0.0984 0.1772 -0.0039, 0.0245 0.1772 0.0, 0.0984 0.1772 0.0, 0.0984 0.0787 -0.0039, 0.0984 0.0787 0.0, -0.0073 0.0787 0.0, 0.0071 0.0787 0.0, 0.0245 0.0787 0.0, -0.0258 0.0787 0.0, -0.0713 0.0787 0.0, -0.0984 -0.0787 -0.0039, -0.0984 -0.1772 -0.0039, -0.0984 -0.0787 0.0, -0.0984 -0.1772 0.0, -0.0394 -0.0787 0.0, -0.0394 -0.0787 -0.0039, -0.0713 -0.0787 0.0, -0.0394 -0.1772 -0.0039, -0.0394 -0.1772 0.0, -0.0713 -0.1772 0.0, -0.0366 -0.0033 0.0004, -0.0443 -0.0229 0.0004, -0.0366 -0.0033 0.0, -0.0443 -0.0229 0.0, -0.0414 -0.0229 0.0004, -0.0414 -0.0229 0.0, -0.0394 -0.0174 0.0004, -0.0394 -0.0174 0.0, -0.0313 -0.0174 0.0004, -0.0313 -0.0174 0.0, -0.0294 -0.0229 0.0004, -0.0294 -0.0229 0.0, -0.0265 -0.0229 0.0004, -0.0265 -0.0229 0.0, -0.0339 -0.0033 0.0004, -0.0339 -0.0033 0.0, -0.0319 -0.0153 0.0004, -0.0385 -0.0153 0.0004, -0.0349 -0.007 0.0004, -0.0351 -0.0064 0.0004, -0.0352 -0.0057 0.0004, -0.0352 -0.0057 0.0004, -0.0354 -0.0064 0.0004, -0.0355 -0.007 0.0004, -0.0319 -0.0153 0.0, -0.0385 -0.0153 0.0, -0.0349 -0.007 0.0, -0.0351 -0.0064 -0.0, -0.0352 -0.0057 0.0, -0.0352 -0.0057 0.0, -0.0354 -0.0064 0.0, -0.0355 -0.007 0.0, -0.0146 -0.0229 0.0004, -0.0092 -0.0229 0.0004, -0.0146 -0.0229 0.0, -0.0092 -0.0229 0.0, -0.0092 -0.0033 0.0004, -0.0092 -0.0033 0.0, -0.0148 -0.0033 0.0004, -0.0148 -0.0033 0.0, -0.0251 -0.0129 0.0004, -0.0251 -0.0129 0.0, -0.0249 -0.011 0.0, -0.0249 -0.011 0.0004, -0.0244 -0.0091 0.0, -0.0244 -0.0091 0.0004, -0.0235 -0.0074 0.0, -0.0235 -0.0074 0.0004, -0.0221 -0.0058 0.0, -0.0221 -0.0058 0.0004, -0.0221 -0.0058 0.0, -0.0221 -0.0058 0.0004, -0.0199 -0.0044 0.0, -0.0199 -0.0044 0.0004, -0.0176 -0.0036 0.0, -0.0176 -0.0036 0.0004, -0.017 -0.0227 0.0, -0.017 -0.0227 0.0004, -0.0193 -0.0221 0.0, -0.0193 -0.0221 0.0004, -0.0213 -0.0209 0.0, -0.0213 -0.0209 0.0004, -0.023 -0.0193 0.0, -0.023 -0.0193 0.0004, -0.0241 -0.0176 0.0, -0.0241 -0.0176 0.0004, -0.0248 -0.0155 0.0, -0.0248 -0.0155 0.0004, -0.0211 -0.0082 0.0004, -0.0202 -0.0072 0.0004, -0.0187 -0.0062 0.0004, -0.0171 -0.0057 0.0004, -0.0148 -0.0054 0.0004, -0.0119 -0.0054 0.0004, -0.0119 -0.0208 0.0004, -0.0147 -0.0208 0.0004, -0.0167 -0.0206 0.0004, -0.0184 -0.0201 0.0004, -0.0197 -0.0193 0.0004, -0.0208 -0.0182 0.0004, -0.0217 -0.0168 0.0004, -0.0222 -0.015 0.0004, -0.0224 -0.0129 0.0004, -0.0223 -0.011 0.0004, -0.0218 -0.0094 0.0004, -0.0148 -0.0054 0.0, -0.0119 -0.0054 0.0, -0.0171 -0.0057 0.0, -0.0187 -0.0062 -0.0, -0.0202 -0.0072 0.0, -0.0211 -0.0082 0.0, -0.0218 -0.0094 0.0, -0.0223 -0.011 0.0, -0.0224 -0.0129 0.0, -0.0222 -0.015 0.0, -0.0217 -0.0168 0.0, -0.0208 -0.0182 0.0, -0.0197 -0.0193 0.0, -0.0184 -0.0201 0.0, -0.0167 -0.0206 0.0, -0.0147 -0.0208 0.0, -0.0119 -0.0208 0.0, -0.0054 -0.0208 0.0004, -0.0054 -0.0229 0.0004, -0.0054 -0.0208 0.0, -0.0054 -0.0229 0.0, 0.0052 -0.0229 0.0004, 0.0052 -0.0229 0.0, 0.0052 -0.0033 0.0004, 0.0052 -0.0033 0.0, -0.0049 -0.0033 0.0004, -0.0049 -0.0033 0.0, -0.0049 -0.0054 0.0004, -0.0049 -0.0054 0.0, 0.0025 -0.0054 0.0004, 0.0025 -0.0054 0.0, 0.0025 -0.0119 0.0004, 0.0025 -0.0119 0.0, -0.0044 -0.0119 0.0004, -0.0044 -0.0119 0.0, -0.0044 -0.0141 0.0004, -0.0044 -0.0141 0.0, 0.0025 -0.0141 0.0004, 0.0025 -0.0141 0.0, 0.0025 -0.0208 0.0004, 0.0025 -0.0208 0.0, 0.009 -0.0198 0.0004, 0.009 -0.0219 0.0004, 0.009 -0.0198 0.0, 0.009 -0.0219 0.0, 0.0111 -0.0228 0.0004, 0.0144 -0.0232 0.0004, 0.0144 -0.0232 0.0, 0.0139 -0.0232 0.0, 0.0139 -0.0232 0.0004, 0.0131 -0.0231 0.0, 0.0111 -0.0228 0.0, 0.0237 -0.0135 0.0004, 0.0237 -0.0135 0.0, 0.0235 -0.0158 0.0, 0.0235 -0.0158 0.0004, 0.0229 -0.0178 0.0, 0.0229 -0.0178 0.0004, 0.0218 -0.0197 0.0, 0.0218 -0.0197 0.0004, 0.0204 -0.0213 0.0, 0.0204 -0.0213 0.0004, 0.0188 -0.0223 0.0, 0.0188 -0.0223 0.0004, 0.0169 -0.0229 0.0, 0.0169 -0.0229 0.0004, 0.0156 -0.0231 0.0, 0.0137 -0.003 0.0004, 0.0137 -0.003 0.0, 0.0156 -0.0032 0.0004, 0.0151 -0.0031 0.0, 0.0156 -0.0032 0.0, 0.0178 -0.0038 0.0, 0.0178 -0.0038 0.0004, 0.0197 -0.0049 0.0, 0.0197 -0.0049 0.0004, 0.0215 -0.0066 0.0, 0.0215 -0.0066 0.0004, 0.0226 -0.0084 0.0, 0.0226 -0.0084 0.0004, 0.0234 -0.0107 0.0, 0.0234 -0.0107 0.0004, 0.0119 -0.0031 0.0, 0.0113 -0.0032 0.0004, 0.0113 -0.0032 0.0, 0.009 -0.0038 0.0004, 0.009 -0.0038 0.0, 0.009 -0.0064 0.0004, 0.009 -0.0064 0.0, 0.0136 -0.0052 0.0004, 0.0136 -0.0052 0.0, 0.0112 -0.0055 0.0, 0.0112 -0.0055 0.0004, 0.021 -0.0133 0.0004, 0.021 -0.0133 0.0, 0.0209 -0.0118 0.0, 0.0209 -0.0118 0.0004, 0.0204 -0.0097 0.0, 0.0204 -0.0097 0.0004, 0.0196 -0.0082 0.0, 0.0196 -0.0082 0.0004, 0.0184 -0.0068 0.0, 0.0184 -0.0068 0.0004, 0.017 -0.0059 0.0, 0.017 -0.0059 0.0004, 0.0156 -0.0054 0.0, 0.0156 -0.0054 0.0004, 0.0141 -0.021 0.0004, 0.0141 -0.021 0.0, 0.0159 -0.0208 0.0, 0.0159 -0.0208 0.0004, 0.0173 -0.0203 0.0, 0.0173 -0.0203 0.0004, 0.0186 -0.0195 0.0, 0.0186 -0.0195 0.0004, 0.0195 -0.0185 0.0, 0.0195 -0.0185 0.0004, 0.0203 -0.0171 0.0, 0.0203 -0.0171 0.0004, 0.0208 -0.0154 0.0, 0.0208 -0.0154 0.0004, 0.0094 -0.02 0.0, 0.0094 -0.02 0.0004, 0.0115 -0.0207 0.0, 0.0115 -0.0207 0.0004, 0.0253 -0.0208 0.0004, 0.0253 -0.0229 0.0004, 0.0253 -0.0208 0.0, 0.0253 -0.0229 0.0, 0.0354 -0.0229 0.0004, 0.0354 -0.0229 0.0, 0.0354 -0.0033 0.0004, 0.0354 -0.0033 0.0, 0.0328 -0.0033 0.0004, 0.0328 -0.0033 0.0, 0.0328 -0.0208 0.0004, 0.0328 -0.0208 0.0, 0.0328 -0.0208 0.0
            ]
        }
        coordIndex [
            0,1,2,-1,2,1,3,-1,4,0,5,-1,5,0,2,-1,6,4,7,-1,7,4,5,-1,1,6,3,-1,3,6,7,-1,4,6,0,-1,0,6,1,-1,8,9,10,-1,10,9,11,-1,10,12,8,-1,8,12,13,-1,13,14,8,-1,8,14,15,-1,8,15,16,-1,16,15,17,-1,16,17,18,-1,19,16,20,-1,20,16,18,-1,21,9,22,-1,22,9,19,-1,22,19,23,-1,23,19,20,-1,21,24,9,-1,9,24,25,-1,9,25,11,-1,16,19,8,-1,8,19,9,-1,26,27,28,-1,28,27,29,-1,30,31,32,-1,32,31,26,-1,32,26,28,-1,33,31,34,-1,34,31,30,-1,29,27,35,-1,35,27,33,-1,35,33,34,-1,31,33,26,-1,26,33,27,-1,36,37,38,-1,38,37,39,-1,37,40,39,-1,39,40,41,-1,40,42,41,-1,41,42,43,-1,42,44,43,-1,43,44,45,-1,44,46,45,-1,45,46,47,-1,46,48,47,-1,47,48,49,-1,48,50,49,-1,49,50,51,-1,50,36,51,-1,51,36,38,-1,52,44,53,-1,53,44,42,-1,54,50,52,-1,52,50,48,-1,52,48,44,-1,44,48,46,-1,54,55,50,-1,50,55,56,-1,50,56,36,-1,36,56,57,-1,36,57,58,-1,58,59,36,-1,36,59,53,-1,36,53,37,-1,37,53,42,-1,37,42,40,-1,52,53,60,-1,60,53,61,-1,54,52,62,-1,62,52,60,-1,54,62,63,-1,54,63,55,-1,55,63,64,-1,55,64,56,-1,57,56,65,-1,65,56,64,-1,57,65,66,-1,57,66,58,-1,58,66,67,-1,58,67,59,-1,53,59,61,-1,61,59,67,-1,68,69,70,-1,70,69,71,-1,69,72,71,-1,71,72,73,-1,72,74,73,-1,73,74,75,-1,76,77,78,-1,76,78,79,-1,79,78,80,-1,79,80,81,-1,81,80,82,-1,81,82,83,-1,83,82,84,-1,83,84,85,-1,85,84,86,-1,85,86,87,-1,87,86,88,-1,87,88,89,-1,89,88,90,-1,89,90,91,-1,91,90,75,-1,91,75,74,-1,68,70,92,-1,68,92,93,-1,93,92,94,-1,93,94,95,-1,95,94,96,-1,95,96,97,-1,97,96,98,-1,97,98,99,-1,99,98,100,-1,99,100,101,-1,101,100,102,-1,101,102,103,-1,103,102,77,-1,103,77,76,-1,81,83,104,-1,104,83,85,-1,104,85,105,-1,105,85,87,-1,105,87,106,-1,106,87,89,-1,106,89,107,-1,107,89,91,-1,107,91,108,-1,108,91,74,-1,108,74,109,-1,109,74,72,-1,109,72,110,-1,110,72,69,-1,110,69,111,-1,111,69,68,-1,111,68,112,-1,112,68,93,-1,112,93,113,-1,113,93,95,-1,113,95,114,-1,114,95,97,-1,114,97,115,-1,115,97,99,-1,115,99,116,-1,116,99,101,-1,116,101,117,-1,117,101,103,-1,117,103,118,-1,118,103,76,-1,118,76,119,-1,119,76,79,-1,119,79,120,-1,120,79,81,-1,120,81,104,-1,108,109,121,-1,121,109,122,-1,108,121,123,-1,108,123,107,-1,107,123,124,-1,107,124,106,-1,106,124,125,-1,106,125,105,-1,105,125,126,-1,105,126,104,-1,104,126,127,-1,104,127,120,-1,120,127,128,-1,120,128,119,-1,119,128,129,-1,119,129,118,-1,118,129,130,-1,118,130,117,-1,117,130,131,-1,117,131,116,-1,116,131,132,-1,116,132,115,-1,115,132,133,-1,115,133,114,-1,114,133,134,-1,114,134,113,-1,113,134,135,-1,113,135,112,-1,112,135,136,-1,112,136,111,-1,110,111,137,-1,137,111,136,-1,109,110,122,-1,122,110,137,-1,138,139,140,-1,140,139,141,-1,139,142,141,-1,141,142,143,-1,142,144,143,-1,143,144,145,-1,144,146,145,-1,145,146,147,-1,146,148,147,-1,147,148,149,-1,148,150,149,-1,149,150,151,-1,150,152,151,-1,151,152,153,-1,152,154,153,-1,153,154,155,-1,154,156,155,-1,155,156,157,-1,156,158,157,-1,157,158,159,-1,158,160,159,-1,159,160,161,-1,160,138,161,-1,161,138,140,-1,142,139,138,-1,138,160,142,-1,142,160,158,-1,142,158,144,-1,148,146,150,-1,150,146,144,-1,150,144,152,-1,152,144,158,-1,152,158,154,-1,154,158,156,-1,162,163,164,-1,164,163,165,-1,165,163,166,-1,167,168,169,-1,167,169,170,-1,170,169,171,-1,170,171,166,-1,166,171,172,-1,166,172,165,-1,173,174,175,-1,173,175,176,-1,176,175,177,-1,176,177,178,-1,178,177,179,-1,178,179,180,-1,180,179,181,-1,180,181,182,-1,182,181,183,-1,182,183,184,-1,184,183,185,-1,184,185,186,-1,186,185,167,-1,167,185,187,-1,167,187,168,-1,188,189,190,-1,190,189,191,-1,191,192,190,-1,190,192,193,-1,190,193,194,-1,194,193,195,-1,194,195,196,-1,196,195,197,-1,196,197,198,-1,198,197,199,-1,198,199,200,-1,200,199,201,-1,200,201,202,-1,202,201,174,-1,202,174,173,-1,189,188,203,-1,203,188,204,-1,203,204,205,-1,205,204,206,-1,205,206,207,-1,206,208,207,-1,207,208,209,-1,210,211,212,-1,210,212,213,-1,213,212,209,-1,213,209,208,-1,214,215,216,-1,214,216,217,-1,217,216,218,-1,217,218,219,-1,219,218,220,-1,219,220,221,-1,221,220,222,-1,221,222,223,-1,223,222,224,-1,223,224,225,-1,225,224,226,-1,225,226,227,-1,227,226,211,-1,227,211,210,-1,228,229,230,-1,228,230,231,-1,231,230,232,-1,231,232,233,-1,233,232,234,-1,233,234,235,-1,235,234,236,-1,235,236,237,-1,237,236,238,-1,237,238,239,-1,239,238,240,-1,239,240,241,-1,241,240,215,-1,241,215,214,-1,162,164,242,-1,162,242,243,-1,243,242,244,-1,243,244,245,-1,245,244,229,-1,245,229,228,-1,231,167,228,-1,228,167,170,-1,228,170,245,-1,245,170,166,-1,245,166,243,-1,243,166,163,-1,243,163,162,-1,208,206,213,-1,213,206,204,-1,213,204,210,-1,210,204,188,-1,210,188,227,-1,227,188,190,-1,227,190,225,-1,225,190,194,-1,225,194,223,-1,223,194,196,-1,223,196,221,-1,221,196,198,-1,221,198,219,-1,219,198,200,-1,219,200,217,-1,217,200,202,-1,217,202,214,-1,214,202,173,-1,214,173,241,-1,241,173,176,-1,241,176,239,-1,239,176,178,-1,239,178,237,-1,237,178,180,-1,237,180,235,-1,235,180,182,-1,235,182,233,-1,233,182,184,-1,233,184,231,-1,231,184,186,-1,231,186,167,-1,246,247,248,-1,248,247,249,-1,247,250,249,-1,249,250,251,-1,250,252,251,-1,251,252,253,-1,252,254,253,-1,253,254,255,-1,254,256,255,-1,255,256,257,-1,256,246,257,-1,257,246,248,-1,254,252,256,-1,256,252,250,-1,256,250,246,-1,246,250,247,-1,
        ]
    }
}
Shape{
    appearance Appearance {
        material  Material 	{
            diffuseColor 0.5019607843137255 0.5019607843137255 0.5019607843137255
            specularColor 0.25098039215686274 0.25098039215686274 0.25098039215686274
            ambientIntensity 0.2
            transparency 0
            shininess 0.5
        }
    }
    geometry IndexedFaceSet {
        ccw TRUE
        solid FALSE
        coord DEF co Coordinate {
            point [
                -0.0319 -0.0153 0.0, -0.0385 -0.0153 0.0, -0.0349 -0.007 0.0, -0.0355 -0.007 0.0, -0.0351 -0.0064 -0.0, -0.0354 -0.0064 0.0, -0.0352 -0.0057 0.0, -0.0352 -0.0057 0.0, -0.0119 -0.0054 0.0, -0.0119 -0.0208 0.0, -0.0148 -0.0054 0.0, -0.0147 -0.0208 0.0, -0.0167 -0.0206 0.0, -0.0224 -0.0129 0.0, -0.0223 -0.011 0.0, -0.0218 -0.0094 0.0, -0.0171 -0.0057 0.0, -0.0184 -0.0201 0.0, -0.0197 -0.0193 0.0, -0.0208 -0.0182 0.0, -0.0217 -0.0168 0.0, -0.0222 -0.015 0.0, -0.0211 -0.0082 0.0, -0.0202 -0.0072 0.0, -0.0187 -0.0062 -0.0, -0.0187 -0.0062 -0.0
            ]
        }
        coordIndex [
            0,1,2,-1,2,1,3,-1,2,3,4,-1,4,3,5,-1,4,5,6,-1,6,5,7,-1,8,9,10,-1,10,9,11,-1,10,11,12,-1,13,14,10,-1,10,14,15,-1,10,15,16,-1,12,17,10,-1,10,17,18,-1,10,18,19,-1,19,20,10,-1,10,20,21,-1,10,21,13,-1,22,23,15,-1,15,23,24,-1,15,24,16,-1,
        ]
    }
}
Shape{
    appearance Appearance {
        material  Material 	{
            diffuseColor 1.0 1.0 0.0
            specularColor 0.5019607843137255 0.5019607843137255 0.0
            ambientIntensity 0.2
            transparency 0
            shininess 0.5
        }
    }
    geometry IndexedFaceSet {
        ccw TRUE
        solid FALSE
        coord DEF co Coordinate {
            point [
                0.122 -0.1046 0.0118, 0.122 -0.144 0.0118, 0.1181 -0.1046 0.0118, 0.1181 -0.144 0.0118, 0.122 -0.1046 0.0236, 0.1181 -0.1046 0.0236, 0.122 -0.144 0.0236, 0.1181 -0.144 0.0236, 0.122 0.0436 0.0118, 0.122 -0.0134 0.0118, 0.1181 0.0436 0.0118, 0.1181 -0.0134 0.0118, 0.122 0.0436 0.0236, 0.1181 0.0436 0.0236, 0.122 -0.0134 0.0236, 0.1181 -0.0134 0.0236, -0.122 -0.144 0.0118, -0.122 -0.1046 0.0118, -0.1181 -0.144 0.0118, -0.1181 -0.1046 0.0118, -0.122 -0.144 0.0236, -0.1181 -0.144 0.0236, -0.122 -0.1046 0.0236, -0.1181 -0.1046 0.0236, -0.122 -0.0134 0.0118, -0.122 0.0436 0.0118, -0.1181 -0.0134 0.0118, -0.1181 0.0436 0.0118, -0.122 -0.0134 0.0236, -0.1181 -0.0134 0.0236, -0.122 0.0436 0.0236, -0.1181 0.0436 0.0236, -0.0394 -0.2008 0.0253, -0.0394 -0.2008 0.0118, -0.0394 -0.1969 0.0253, -0.0394 -0.1969 0.0118, -0.0984 -0.2008 0.0253, -0.0984 -0.1969 0.0253, -0.0984 -0.2008 0.0118, -0.0984 -0.1969 0.0118, 0.0984 -0.2008 0.0253, 0.0984 -0.2008 0.0118, 0.0984 -0.1969 0.0253, 0.0984 -0.1969 0.0118, 0.0394 -0.2008 0.0253, 0.0394 -0.1969 0.0253, 0.0394 -0.2008 0.0118, 0.0394 -0.1969 0.0118, -0.0394 0.2008 0.0118, -0.0394 0.2008 0.0253, -0.0394 0.1969 0.0118, -0.0394 0.1969 0.0253, -0.0984 0.2008 0.0118, -0.0984 0.1969 0.0118, -0.0984 0.2008 0.0253, -0.0984 0.1969 0.0253, 0.0984 0.2008 0.0118, 0.0984 0.2008 0.0253, 0.0984 0.1969 0.0118, 0.0984 0.1969 0.0253, 0.0394 0.2008 0.0118, 0.0394 0.1969 0.0118, 0.0394 0.2008 0.0253, 0.0394 0.1969 0.0253, 0.0394 0.1969 0.0253
            ]
        }
        coordIndex [
            0,1,2,-1,2,1,3,-1,4,0,5,-1,5,0,2,-1,6,4,7,-1,7,4,5,-1,1,6,3,-1,3,6,7,-1,4,6,0,-1,0,6,1,-1,8,9,10,-1,10,9,11,-1,12,8,13,-1,13,8,10,-1,14,12,15,-1,15,12,13,-1,9,14,11,-1,11,14,15,-1,12,14,8,-1,8,14,9,-1,16,17,18,-1,18,17,19,-1,20,16,21,-1,21,16,18,-1,22,20,23,-1,23,20,21,-1,17,22,19,-1,19,22,23,-1,20,22,16,-1,16,22,17,-1,24,25,26,-1,26,25,27,-1,28,24,29,-1,29,24,26,-1,30,28,31,-1,31,28,29,-1,25,30,27,-1,27,30,31,-1,28,30,24,-1,24,30,25,-1,32,33,34,-1,34,33,35,-1,36,32,37,-1,37,32,34,-1,38,36,39,-1,39,36,37,-1,33,38,35,-1,35,38,39,-1,36,38,32,-1,32,38,33,-1,40,41,42,-1,42,41,43,-1,44,40,45,-1,45,40,42,-1,46,44,47,-1,47,44,45,-1,41,46,43,-1,43,46,47,-1,44,46,40,-1,40,46,41,-1,48,49,50,-1,50,49,51,-1,52,48,53,-1,53,48,50,-1,54,52,55,-1,55,52,53,-1,49,54,51,-1,51,54,55,-1,52,54,48,-1,48,54,49,-1,56,57,58,-1,58,57,59,-1,60,56,61,-1,61,56,58,-1,62,60,63,-1,63,60,61,-1,57,62,59,-1,59,62,63,-1,60,62,56,-1,56,62,57,-1,
        ]
    }
}
Shape{
    appearance Appearance {
        material  Material 	{
            diffuseColor 0.5019607843137255 0.5019607843137255 0.5019607843137255
            specularColor 0.25098039215686274 0.25098039215686274 0.25098039215686274
            ambientIntensity 0.2
            transparency 0
            shininess 0.5
        }
    }
    geometry IndexedFaceSet {
        ccw TRUE
        solid FALSE
        coord DEF co Coordinate {
            point [
                -0.1142 0.1969 0.1535, -0.1142 0.1969 0.0, -0.1152 0.1967 0.0, -0.1152 0.1967 0.1535, -0.1161 0.1963 0.0, -0.1161 0.1963 0.1535, -0.117 0.1957 0.0, -0.117 0.1957 0.1535, -0.1176 0.1949 0.0, -0.1176 0.1949 0.1535, -0.118 0.1939 0.0, -0.118 0.1939 0.1535, -0.1181 0.1929 0.0, -0.1181 0.1929 0.1535, -0.1142 0.1929 0.1575, 0.1142 0.1929 0.1575, 0.1142 0.1939 0.1573, -0.1142 0.1939 0.1573, 0.1142 0.1949 0.157, -0.1142 0.1949 0.157, 0.1142 0.1957 0.1563, -0.1142 0.1957 0.1563, 0.1142 0.1963 0.1555, -0.1142 0.1963 0.1555, 0.1142 0.1967 0.1546, -0.1142 0.1967 0.1546, 0.1142 0.1969 0.1535, 0.1181 0.1929 0.1535, 0.1181 0.1929 0.0, 0.118 0.1939 0.0, 0.118 0.1939 0.1535, 0.1176 0.1949 0.0, 0.1176 0.1949 0.1535, 0.117 0.1957 0.0, 0.117 0.1957 0.1535, 0.1161 0.1963 0.0, 0.1161 0.1963 0.1535, 0.1152 0.1967 0.0, 0.1152 0.1967 0.1535, 0.1142 0.1969 0.0, -0.118 0.1929 0.1546, -0.1178 0.1939 0.1546, -0.1159 0.1939 0.157, -0.1151 0.1934 0.1573, -0.1149 0.1936 0.1573, -0.1144 0.1939 0.1573, -0.1152 0.1932 0.1573, -0.1161 0.1934 0.157, -0.1169 0.1936 0.1563, -0.1152 0.1929 0.1573, -0.1156 0.1943 0.157, -0.1147 0.1938 0.1573, -0.1152 0.1946 0.157, -0.1147 0.1948 0.157, -0.1161 0.1929 0.157, -0.117 0.1929 0.1563, -0.1176 0.1929 0.1555, -0.1166 0.1943 0.1563, -0.1161 0.1949 0.1563, -0.1156 0.1953 0.1563, -0.1149 0.1956 0.1563, -0.1175 0.1938 0.1555, -0.1171 0.1946 0.1555, -0.1166 0.1953 0.1555, -0.1159 0.1959 0.1555, -0.1151 0.1962 0.1555, -0.1175 0.1948 0.1546, -0.1169 0.1956 0.1546, -0.1161 0.1962 0.1546, -0.1152 0.1966 0.1546, 0.1152 0.1966 0.1546, 0.1152 0.1946 0.157, 0.1147 0.1938 0.1573, 0.1149 0.1936 0.1573, 0.1152 0.1929 0.1573, 0.1152 0.1932 0.1573, 0.1144 0.1939 0.1573, 0.1147 0.1948 0.157, 0.1149 0.1956 0.1563, 0.1156 0.1943 0.157, 0.1151 0.1934 0.1573, 0.1159 0.1939 0.157, 0.1161 0.1934 0.157, 0.1161 0.1929 0.157, 0.1156 0.1953 0.1563, 0.1161 0.1949 0.1563, 0.1166 0.1943 0.1563, 0.1169 0.1936 0.1563, 0.117 0.1929 0.1563, 0.1151 0.1962 0.1555, 0.1159 0.1959 0.1555, 0.1166 0.1953 0.1555, 0.1171 0.1946 0.1555, 0.1175 0.1938 0.1555, 0.1176 0.1929 0.1555, 0.1161 0.1962 0.1546, 0.1169 0.1956 0.1546, 0.1175 0.1948 0.1546, 0.1178 0.1939 0.1546, 0.118 0.1929 0.1546, -0.1181 -0.1929 0.1535, -0.1181 -0.1929 0.0, -0.118 -0.1939 0.0, -0.118 -0.1939 0.1535, -0.1176 -0.1949 0.0, -0.1176 -0.1949 0.1535, -0.117 -0.1957 0.0, -0.117 -0.1957 0.1535, -0.1161 -0.1963 0.0, -0.1161 -0.1963 0.1535, -0.1152 -0.1967 0.0, -0.1152 -0.1967 0.1535, -0.1142 -0.1969 0.0, -0.1142 -0.1969 0.1535, -0.1142 -0.1929 0.1575, -0.1152 -0.1929 0.1573, -0.1161 -0.1929 0.157, -0.117 -0.1929 0.1563, -0.1176 -0.1929 0.1555, -0.118 -0.1929 0.1546, 0.1142 -0.1929 0.1575, 0.1152 -0.1929 0.1573, 0.1161 -0.1929 0.157, 0.117 -0.1929 0.1563, 0.1176 -0.1929 0.1555, 0.118 -0.1929 0.1546, 0.1181 -0.1929 0.1535, 0.1142 -0.1969 0.1535, 0.1142 -0.1969 0.0, 0.1152 -0.1967 0.0, 0.1152 -0.1967 0.1535, 0.1161 -0.1963 0.0, 0.1161 -0.1963 0.1535, 0.117 -0.1957 0.0, 0.117 -0.1957 0.1535, 0.1176 -0.1949 0.0, 0.1176 -0.1949 0.1535, 0.118 -0.1939 0.0, 0.118 -0.1939 0.1535, 0.1181 -0.1929 0.0, -0.1142 -0.1967 0.1546, -0.1152 -0.1966 0.1546, -0.1152 -0.1946 0.157, -0.1147 -0.1938 0.1573, -0.1149 -0.1936 0.1573, -0.1152 -0.1932 0.1573, -0.1144 -0.1939 0.1573, -0.1147 -0.1948 0.157, -0.1149 -0.1956 0.1563, -0.1142 -0.1939 0.1573, -0.1156 -0.1943 0.157, -0.1151 -0.1934 0.1573, -0.1159 -0.1939 0.157, -0.1161 -0.1934 0.157, -0.1142 -0.1949 0.157, -0.1142 -0.1957 0.1563, -0.1142 -0.1963 0.1555, -0.1156 -0.1953 0.1563, -0.1161 -0.1949 0.1563, -0.1166 -0.1943 0.1563, -0.1169 -0.1936 0.1563, -0.1151 -0.1962 0.1555, -0.1159 -0.1959 0.1555, -0.1166 -0.1953 0.1555, -0.1171 -0.1946 0.1555, -0.1175 -0.1938 0.1555, -0.1161 -0.1962 0.1546, -0.1169 -0.1956 0.1546, -0.1175 -0.1948 0.1546, -0.1178 -0.1939 0.1546, 0.1178 -0.1939 0.1546, 0.1159 -0.1939 0.157, 0.1151 -0.1934 0.1573, 0.1149 -0.1936 0.1573, 0.1142 -0.1939 0.1573, 0.1144 -0.1939 0.1573, 0.1152 -0.1932 0.1573, 0.1161 -0.1934 0.157, 0.1169 -0.1936 0.1563, 0.1156 -0.1943 0.157, 0.1147 -0.1938 0.1573, 0.1152 -0.1946 0.157, 0.1147 -0.1948 0.157, 0.1142 -0.1949 0.157, 0.1166 -0.1943 0.1563, 0.1161 -0.1949 0.1563, 0.1156 -0.1953 0.1563, 0.1149 -0.1956 0.1563, 0.1142 -0.1957 0.1563, 0.1175 -0.1938 0.1555, 0.1171 -0.1946 0.1555, 0.1166 -0.1953 0.1555, 0.1159 -0.1959 0.1555, 0.1151 -0.1962 0.1555, 0.1142 -0.1963 0.1555, 0.1175 -0.1948 0.1546, 0.1169 -0.1956 0.1546, 0.1161 -0.1962 0.1546, 0.1152 -0.1966 0.1546, 0.1142 -0.1967 0.1546, -0.0564 -0.1425 0.1535, -0.0568 -0.1382 0.1546, -0.0569 -0.1382 0.1535, -0.0583 -0.1341 0.1546, -0.0584 -0.1341 0.1535, -0.0607 -0.1304 0.1546, -0.0608 -0.1305 0.1535, -0.0638 -0.1274 0.1546, -0.0639 -0.1276 0.1535, -0.0676 -0.1253 0.1546, -0.0677 -0.1254 0.1535, -0.0718 -0.124 0.1546, -0.0718 -0.1242 0.1535, -0.0761 -0.1238 0.1546, -0.0761 -0.1239 0.1535, -0.0804 -0.1245 0.1546, -0.0804 -0.1247 0.1535, -0.0844 -0.1263 0.1546, -0.0843 -0.1264 0.1535, -0.0879 -0.1288 0.1546, -0.0878 -0.1289 0.1535, -0.0907 -0.1322 0.1546, -0.0906 -0.1323 0.1535, -0.0926 -0.1361 0.1546, -0.0925 -0.1361 0.1535, -0.0936 -0.1403 0.1546, -0.0935 -0.1403 0.1535, -0.0936 -0.1447 0.1546, -0.0935 -0.1446 0.1535, -0.0926 -0.1489 0.1546, -0.0925 -0.1488 0.1535, -0.0907 -0.1528 0.1546, -0.0906 -0.1527 0.1535, -0.0879 -0.1561 0.1546, -0.0878 -0.156 0.1535, -0.0844 -0.1587 0.1546, -0.0843 -0.1586 0.1535, -0.0804 -0.1604 0.1546, -0.0804 -0.1603 0.1535, -0.0761 -0.1612 0.1546, -0.0761 -0.1611 0.1535, -0.0718 -0.1609 0.1546, -0.0718 -0.1608 0.1535, -0.0676 -0.1597 0.1546, -0.0677 -0.1596 0.1535, -0.0638 -0.1575 0.1546, -0.0639 -0.1574 0.1535, -0.0607 -0.1545 0.1546, -0.0608 -0.1544 0.1535, -0.0583 -0.1509 0.1546, -0.0584 -0.1508 0.1535, -0.0568 -0.1468 0.1546, -0.0569 -0.1468 0.1535, -0.0563 -0.1425 0.1546, -0.0564 -0.1381 0.1555, -0.0579 -0.1339 0.1555, -0.0604 -0.1302 0.1555, -0.0636 -0.1271 0.1555, -0.0674 -0.1249 0.1555, -0.0717 -0.1236 0.1555, -0.0761 -0.1234 0.1555, -0.0805 -0.1242 0.1555, -0.0846 -0.1259 0.1555, -0.0882 -0.1286 0.1555, -0.091 -0.132 0.1555, -0.093 -0.1359 0.1555, -0.094 -0.1403 0.1555, -0.094 -0.1447 0.1555, -0.093 -0.149 0.1555, -0.091 -0.153 0.1555, -0.0882 -0.1564 0.1555, -0.0846 -0.159 0.1555, -0.0805 -0.1608 0.1555, -0.0761 -0.1616 0.1555, -0.0717 -0.1613 0.1555, -0.0674 -0.16 0.1555, -0.0636 -0.1578 0.1555, -0.0604 -0.1548 0.1555, -0.0579 -0.1511 0.1555, -0.0564 -0.1469 0.1555, -0.0559 -0.1425 0.1555, -0.0558 -0.1379 0.1563, -0.0574 -0.1336 0.1563, -0.0599 -0.1298 0.1563, -0.0632 -0.1266 0.1563, -0.0672 -0.1243 0.1563, -0.0716 -0.123 0.1563, -0.0762 -0.1228 0.1563, -0.0807 -0.1236 0.1563, -0.0849 -0.1254 0.1563, -0.0886 -0.1281 0.1563, -0.0915 -0.1316 0.1563, -0.0936 -0.1357 0.1563, -0.0946 -0.1402 0.1563, -0.0946 -0.1448 0.1563, -0.0936 -0.1492 0.1563, -0.0915 -0.1533 0.1563, -0.0886 -0.1568 0.1563, -0.0849 -0.1596 0.1563, -0.0807 -0.1614 0.1563, -0.0762 -0.1622 0.1563, -0.0716 -0.1619 0.1563, -0.0672 -0.1606 0.1563, -0.0632 -0.1583 0.1563, -0.0599 -0.1552 0.1563, -0.0574 -0.1513 0.1563, -0.0558 -0.147 0.1563, -0.0553 -0.1425 0.1563, -0.055 -0.1377 0.157, -0.0566 -0.1332 0.157, -0.0593 -0.1293 0.157, -0.0627 -0.126 0.157, -0.0669 -0.1236 0.157, -0.0715 -0.1222 0.157, -0.0762 -0.1219 0.157, -0.0809 -0.1228 0.157, -0.0853 -0.1247 0.157, -0.0891 -0.1275 0.157, -0.0922 -0.1312 0.157, -0.0944 -0.1354 0.157, -0.0955 -0.1401 0.157, -0.0955 -0.1449 0.157, -0.0944 -0.1495 0.157, -0.0922 -0.1538 0.157, -0.0891 -0.1574 0.157, -0.0853 -0.1603 0.157, -0.0809 -0.1622 0.157, -0.0762 -0.163 0.157, -0.0715 -0.1627 0.157, -0.0669 -0.1614 0.157, -0.0627 -0.159 0.157, -0.0593 -0.1557 0.157, -0.0566 -0.1517 0.157, -0.055 -0.1472 0.157, -0.0545 -0.1425 0.157, -0.0541 -0.1375 0.1573, -0.0558 -0.1328 0.1573, -0.0585 -0.1286 0.1573, -0.0622 -0.1252 0.1573, -0.0665 -0.1227 0.1573, -0.0713 -0.1213 0.1573, -0.0763 -0.121 0.1573, -0.0812 -0.1219 0.1573, -0.0858 -0.1238 0.1573, -0.0898 -0.1268 0.1573, -0.093 -0.1307 0.1573, -0.0952 -0.1351 0.1573, -0.0964 -0.14 0.1573, -0.0964 -0.145 0.1573, -0.0952 -0.1498 0.1573, -0.093 -0.1543 0.1573, -0.0898 -0.1581 0.1573, -0.0858 -0.1611 0.1573, -0.0812 -0.1631 0.1573, -0.0763 -0.164 0.1573, -0.0713 -0.1637 0.1573, -0.0665 -0.1622 0.1573, -0.0622 -0.1597 0.1573, -0.0585 -0.1563 0.1573, -0.0558 -0.1521 0.1573, -0.0541 -0.1474 0.1573, -0.0535 -0.1425 0.1573, -0.0531 -0.1373 0.1575, -0.0549 -0.1324 0.1575, -0.0578 -0.128 0.1575, -0.0616 -0.1244 0.1575, -0.0661 -0.1218 0.1575, -0.0711 -0.1203 0.1575, -0.0763 -0.12 0.1575, -0.0815 -0.1209 0.1575, -0.0863 -0.123 0.1575, -0.0905 -0.1261 0.1575, -0.0939 -0.1301 0.1575, -0.0962 -0.1348 0.1575, -0.0974 -0.1399 0.1575, -0.0974 -0.1451 0.1575, -0.0962 -0.1502 0.1575, -0.0939 -0.1549 0.1575, -0.0905 -0.1589 0.1575, -0.0863 -0.162 0.1575, -0.0815 -0.1641 0.1575, -0.0763 -0.165 0.1575, -0.0711 -0.1647 0.1575, -0.0661 -0.1632 0.1575, -0.0616 -0.1606 0.1575, -0.0578 -0.157 0.1575, -0.0549 -0.1526 0.1575, -0.0531 -0.1477 0.1575, -0.0525 -0.1425 0.1575, -0.0525 -0.1425 0.1575
            ]
        }
        coordIndex [
            0,1,2,-1,0,2,3,-1,3,2,4,-1,3,4,5,-1,5,4,6,-1,5,6,7,-1,7,6,8,-1,7,8,9,-1,9,8,10,-1,9,10,11,-1,11,10,12,-1,11,12,13,-1,14,15,16,-1,14,16,17,-1,17,16,18,-1,17,18,19,-1,19,18,20,-1,19,20,21,-1,21,20,22,-1,21,22,23,-1,23,22,24,-1,23,24,25,-1,25,24,26,-1,25,26,0,-1,27,28,29,-1,27,29,30,-1,30,29,31,-1,30,31,32,-1,32,31,33,-1,32,33,34,-1,34,33,35,-1,34,35,36,-1,36,35,37,-1,36,37,38,-1,38,37,39,-1,38,39,26,-1,13,40,41,-1,42,43,44,-1,14,17,45,-1,44,43,14,-1,46,14,43,-1,46,43,47,-1,47,43,42,-1,47,42,48,-1,49,14,46,-1,50,51,52,-1,52,51,45,-1,52,45,53,-1,53,45,17,-1,53,17,19,-1,49,46,54,-1,54,46,47,-1,54,47,55,-1,55,47,48,-1,55,48,56,-1,57,50,58,-1,58,50,52,-1,58,52,59,-1,59,52,53,-1,59,53,60,-1,60,53,19,-1,60,19,21,-1,61,57,62,-1,62,57,58,-1,62,58,63,-1,63,58,59,-1,63,59,64,-1,64,59,60,-1,64,60,65,-1,65,60,21,-1,65,21,23,-1,40,61,41,-1,41,61,62,-1,41,62,66,-1,66,62,63,-1,66,63,67,-1,67,63,64,-1,67,64,68,-1,68,64,65,-1,68,65,69,-1,69,65,23,-1,69,23,25,-1,13,41,11,-1,11,41,66,-1,11,66,9,-1,9,66,67,-1,9,67,7,-1,7,67,68,-1,7,68,5,-1,5,68,69,-1,5,69,3,-1,3,69,25,-1,3,25,0,-1,51,14,45,-1,40,56,61,-1,61,56,48,-1,61,48,57,-1,57,48,42,-1,57,42,50,-1,50,42,44,-1,50,44,51,-1,51,44,14,-1,26,24,70,-1,71,72,73,-1,15,74,75,-1,73,72,15,-1,76,15,72,-1,76,72,77,-1,77,72,71,-1,77,71,78,-1,16,15,76,-1,79,80,81,-1,81,80,75,-1,81,75,82,-1,82,75,74,-1,82,74,83,-1,16,76,18,-1,18,76,77,-1,18,77,20,-1,20,77,78,-1,20,78,22,-1,84,79,85,-1,85,79,81,-1,85,81,86,-1,86,81,82,-1,86,82,87,-1,87,82,83,-1,87,83,88,-1,89,84,90,-1,90,84,85,-1,90,85,91,-1,91,85,86,-1,91,86,92,-1,92,86,87,-1,92,87,93,-1,93,87,88,-1,93,88,94,-1,24,89,70,-1,70,89,90,-1,70,90,95,-1,95,90,91,-1,95,91,96,-1,96,91,92,-1,96,92,97,-1,97,92,93,-1,97,93,98,-1,98,93,94,-1,98,94,99,-1,26,70,38,-1,38,70,95,-1,38,95,36,-1,36,95,96,-1,36,96,34,-1,34,96,97,-1,34,97,32,-1,32,97,98,-1,32,98,30,-1,30,98,99,-1,30,99,27,-1,80,15,75,-1,24,22,89,-1,89,22,78,-1,89,78,84,-1,84,78,71,-1,84,71,79,-1,79,71,73,-1,79,73,80,-1,80,73,15,-1,100,101,102,-1,100,102,103,-1,103,102,104,-1,103,104,105,-1,105,104,106,-1,105,106,107,-1,107,106,108,-1,107,108,109,-1,109,108,110,-1,109,110,111,-1,111,110,112,-1,111,112,113,-1,114,14,49,-1,114,49,115,-1,115,49,54,-1,115,54,116,-1,116,54,55,-1,116,55,117,-1,117,55,56,-1,117,56,118,-1,118,56,40,-1,118,40,119,-1,119,40,13,-1,119,13,100,-1,15,120,121,-1,15,121,74,-1,74,121,122,-1,74,122,83,-1,83,122,123,-1,83,123,88,-1,88,123,124,-1,88,124,94,-1,94,124,125,-1,94,125,99,-1,99,125,126,-1,99,126,27,-1,127,128,129,-1,127,129,130,-1,130,129,131,-1,130,131,132,-1,132,131,133,-1,132,133,134,-1,134,133,135,-1,134,135,136,-1,136,135,137,-1,136,137,138,-1,138,137,139,-1,138,139,126,-1,113,140,141,-1,142,143,144,-1,114,115,145,-1,144,143,114,-1,146,114,143,-1,146,143,147,-1,147,143,142,-1,147,142,148,-1,149,114,146,-1,150,151,152,-1,152,151,145,-1,152,145,153,-1,153,145,115,-1,153,115,116,-1,149,146,154,-1,154,146,147,-1,154,147,155,-1,155,147,148,-1,155,148,156,-1,157,150,158,-1,158,150,152,-1,158,152,159,-1,159,152,153,-1,159,153,160,-1,160,153,116,-1,160,116,117,-1,161,157,162,-1,162,157,158,-1,162,158,163,-1,163,158,159,-1,163,159,164,-1,164,159,160,-1,164,160,165,-1,165,160,117,-1,165,117,118,-1,140,161,141,-1,141,161,162,-1,141,162,166,-1,166,162,163,-1,166,163,167,-1,167,163,164,-1,167,164,168,-1,168,164,165,-1,168,165,169,-1,169,165,118,-1,169,118,119,-1,113,141,111,-1,111,141,166,-1,111,166,109,-1,109,166,167,-1,109,167,107,-1,107,167,168,-1,107,168,105,-1,105,168,169,-1,105,169,103,-1,103,169,119,-1,103,119,100,-1,151,114,145,-1,140,156,161,-1,161,156,148,-1,161,148,157,-1,157,148,142,-1,157,142,150,-1,150,142,144,-1,150,144,151,-1,151,144,114,-1,126,125,170,-1,171,172,173,-1,120,174,175,-1,173,172,120,-1,176,120,172,-1,176,172,177,-1,177,172,171,-1,177,171,178,-1,121,120,176,-1,179,180,181,-1,181,180,175,-1,181,175,182,-1,182,175,174,-1,182,174,183,-1,121,176,122,-1,122,176,177,-1,122,177,123,-1,123,177,178,-1,123,178,124,-1,184,179,185,-1,185,179,181,-1,185,181,186,-1,186,181,182,-1,186,182,187,-1,187,182,183,-1,187,183,188,-1,189,184,190,-1,190,184,185,-1,190,185,191,-1,191,185,186,-1,191,186,192,-1,192,186,187,-1,192,187,193,-1,193,187,188,-1,193,188,194,-1,125,189,170,-1,170,189,190,-1,170,190,195,-1,195,190,191,-1,195,191,196,-1,196,191,192,-1,196,192,197,-1,197,192,193,-1,197,193,198,-1,198,193,194,-1,198,194,199,-1,126,170,138,-1,138,170,195,-1,138,195,136,-1,136,195,196,-1,136,196,134,-1,134,196,197,-1,134,197,132,-1,132,197,198,-1,132,198,130,-1,130,198,199,-1,130,199,127,-1,180,120,175,-1,125,124,189,-1,189,124,178,-1,189,178,184,-1,184,178,171,-1,184,171,179,-1,179,171,173,-1,179,173,180,-1,180,173,120,-1,120,114,149,-1,120,149,174,-1,174,149,154,-1,174,154,183,-1,183,154,155,-1,183,155,188,-1,188,155,156,-1,188,156,194,-1,194,156,140,-1,194,140,199,-1,199,140,113,-1,199,113,127,-1,200,201,202,-1,202,201,203,-1,202,203,204,-1,204,203,205,-1,204,205,206,-1,206,205,207,-1,206,207,208,-1,208,207,209,-1,208,209,210,-1,210,209,211,-1,210,211,212,-1,212,211,213,-1,212,213,214,-1,214,213,215,-1,214,215,216,-1,216,215,217,-1,216,217,218,-1,218,217,219,-1,218,219,220,-1,220,219,221,-1,220,221,222,-1,222,221,223,-1,222,223,224,-1,224,223,225,-1,224,225,226,-1,226,225,227,-1,226,227,228,-1,228,227,229,-1,228,229,230,-1,230,229,231,-1,230,231,232,-1,232,231,233,-1,232,233,234,-1,234,233,235,-1,234,235,236,-1,236,235,237,-1,236,237,238,-1,238,237,239,-1,238,239,240,-1,240,239,241,-1,240,241,242,-1,242,241,243,-1,242,243,244,-1,244,243,245,-1,244,245,246,-1,246,245,247,-1,246,247,248,-1,248,247,249,-1,248,249,250,-1,250,249,251,-1,250,251,252,-1,252,251,253,-1,252,253,200,-1,200,253,201,-1,253,254,201,-1,201,254,255,-1,201,255,203,-1,203,255,256,-1,203,256,205,-1,205,256,257,-1,205,257,207,-1,207,257,258,-1,207,258,209,-1,209,258,259,-1,209,259,211,-1,211,259,260,-1,211,260,213,-1,213,260,261,-1,213,261,215,-1,215,261,262,-1,215,262,217,-1,217,262,263,-1,217,263,219,-1,219,263,264,-1,219,264,221,-1,221,264,265,-1,221,265,223,-1,223,265,266,-1,223,266,225,-1,225,266,267,-1,225,267,227,-1,227,267,268,-1,227,268,229,-1,229,268,269,-1,229,269,231,-1,231,269,270,-1,231,270,233,-1,233,270,271,-1,233,271,235,-1,235,271,272,-1,235,272,237,-1,237,272,273,-1,237,273,239,-1,239,273,274,-1,239,274,241,-1,241,274,275,-1,241,275,243,-1,243,275,276,-1,243,276,245,-1,245,276,277,-1,245,277,247,-1,247,277,278,-1,247,278,249,-1,249,278,279,-1,249,279,251,-1,251,279,280,-1,251,280,253,-1,253,280,254,-1,280,281,254,-1,254,281,282,-1,254,282,255,-1,255,282,283,-1,255,283,256,-1,256,283,284,-1,256,284,257,-1,257,284,285,-1,257,285,258,-1,258,285,286,-1,258,286,259,-1,259,286,287,-1,259,287,260,-1,260,287,288,-1,260,288,261,-1,261,288,289,-1,261,289,262,-1,262,289,290,-1,262,290,263,-1,263,290,291,-1,263,291,264,-1,264,291,292,-1,264,292,265,-1,265,292,293,-1,265,293,266,-1,266,293,294,-1,266,294,267,-1,267,294,295,-1,267,295,268,-1,268,295,296,-1,268,296,269,-1,269,296,297,-1,269,297,270,-1,270,297,298,-1,270,298,271,-1,271,298,299,-1,271,299,272,-1,272,299,300,-1,272,300,273,-1,273,300,301,-1,273,301,274,-1,274,301,302,-1,274,302,275,-1,275,302,303,-1,275,303,276,-1,276,303,304,-1,276,304,277,-1,277,304,305,-1,277,305,278,-1,278,305,306,-1,278,306,279,-1,279,306,307,-1,279,307,280,-1,280,307,281,-1,307,308,281,-1,281,308,309,-1,281,309,282,-1,282,309,310,-1,282,310,283,-1,283,310,311,-1,283,311,284,-1,284,311,312,-1,284,312,285,-1,285,312,313,-1,285,313,286,-1,286,313,314,-1,286,314,287,-1,287,314,315,-1,287,315,288,-1,288,315,316,-1,288,316,289,-1,289,316,317,-1,289,317,290,-1,290,317,318,-1,290,318,291,-1,291,318,319,-1,291,319,292,-1,292,319,320,-1,292,320,293,-1,293,320,321,-1,293,321,294,-1,294,321,322,-1,294,322,295,-1,295,322,323,-1,295,323,296,-1,296,323,324,-1,296,324,297,-1,297,324,325,-1,297,325,298,-1,298,325,326,-1,298,326,299,-1,299,326,327,-1,299,327,300,-1,300,327,328,-1,300,328,301,-1,301,328,329,-1,301,329,302,-1,302,329,330,-1,302,330,303,-1,303,330,331,-1,303,331,304,-1,304,331,332,-1,304,332,305,-1,305,332,333,-1,305,333,306,-1,306,333,334,-1,306,334,307,-1,307,334,308,-1,334,335,308,-1,308,335,336,-1,308,336,309,-1,309,336,337,-1,309,337,310,-1,310,337,338,-1,310,338,311,-1,311,338,339,-1,311,339,312,-1,312,339,340,-1,312,340,313,-1,313,340,341,-1,313,341,314,-1,314,341,342,-1,314,342,315,-1,315,342,343,-1,315,343,316,-1,316,343,344,-1,316,344,317,-1,317,344,345,-1,317,345,318,-1,318,345,346,-1,318,346,319,-1,319,346,347,-1,319,347,320,-1,320,347,348,-1,320,348,321,-1,321,348,349,-1,321,349,322,-1,322,349,350,-1,322,350,323,-1,323,350,351,-1,323,351,324,-1,324,351,352,-1,324,352,325,-1,325,352,353,-1,325,353,326,-1,326,353,354,-1,326,354,327,-1,327,354,355,-1,327,355,328,-1,328,355,356,-1,328,356,329,-1,329,356,357,-1,329,357,330,-1,330,357,358,-1,330,358,331,-1,331,358,359,-1,331,359,332,-1,332,359,360,-1,332,360,333,-1,333,360,361,-1,333,361,334,-1,334,361,335,-1,361,362,335,-1,335,362,363,-1,335,363,336,-1,336,363,364,-1,336,364,337,-1,337,364,365,-1,337,365,338,-1,338,365,366,-1,338,366,339,-1,339,366,367,-1,339,367,340,-1,340,367,368,-1,340,368,341,-1,341,368,369,-1,341,369,342,-1,342,369,370,-1,342,370,343,-1,343,370,371,-1,343,371,344,-1,344,371,372,-1,344,372,345,-1,345,372,373,-1,345,373,346,-1,346,373,374,-1,346,374,347,-1,347,374,375,-1,347,375,348,-1,348,375,376,-1,348,376,349,-1,349,376,377,-1,349,377,350,-1,350,377,378,-1,350,378,351,-1,351,378,379,-1,351,379,352,-1,352,379,380,-1,352,380,353,-1,353,380,381,-1,353,381,354,-1,354,381,382,-1,354,382,355,-1,355,382,383,-1,355,383,356,-1,356,383,384,-1,356,384,357,-1,357,384,385,-1,357,385,358,-1,358,385,386,-1,358,386,359,-1,359,386,387,-1,359,387,360,-1,360,387,388,-1,360,388,361,-1,361,388,362,-1,
        ]
    }
}