M48
; DRILL file {KiCad 9.0.7+1} date 2026-07-11T11:48:16+0000
; FORMAT={-:-/ absolute / metric / decimal}
; #@! TF.CreationDate,2026-07-11T11:48:16+00:00
; #@! TF.GenerationSoftware,Kicad,Pcbnew,9.0.7+1
; #@! TF.FileFunction,Plated,1,6,PTH
FMAT,2
METRIC
; #@! TA.AperFunction,Plated,PTH,ViaDrill
T1C0.150
; #@! TA.AperFunction,Plated,PTH,ViaDrill
T2C0.250
; #@! TA.AperFunction,Plated,PTH,ViaDrill
T3C0.300
; #@! TA.AperFunction,Plated,PTH,ComponentDrill
T4C0.300
; #@! TA.AperFunction,Plated,PTH,ComponentDrill
T5C0.500
; #@! TA.AperFunction,Plated,PTH,ComponentDrill
T6C1.400
; #@! TA.AperFunction,Plated,PTH,ComponentDrill
T7C1.930
; #@! TA.AperFunction,Plated,PTH,ComponentDrill
T8C2.200
; #@! TA.AperFunction,Plated,PTH,ComponentDrill
T9C2.540
%
G90
G05
T1
X105.15Y-120.75
X105.8Y-120.75
X107.82Y-116.5
X108.6Y-117.63
X110.05Y-117.65
X112.1Y-117.95
X112.174Y-121.201
X112.65Y-121.25
X112.75Y-120.7
X112.75Y-121.7
X117.15Y-121.25
X117.8Y-121.1
X118.0Y-121.93
X118.35Y-121.1
T2
X40.25Y-76.25
X43.94Y-104.25
X43.94Y-105.25
X43.94Y-106.25
X43.94Y-107.25
X44.75Y-64.25
X48.861Y-101.459
X49.25Y-109.25
X49.5Y-104.5
X50.106Y-108.464
X50.155Y-101.489
X50.75Y-104.5
X51.38Y-101.49
X51.6Y-109.01
X52.0Y-104.5
X52.75Y-101.5
X53.75Y-108.5
X58.75Y-110.25
X59.75Y-117.0
X60.0Y-107.75
X60.5Y-116.5
X61.0Y-102.0
X61.5Y-116.0
X62.25Y-101.5
X62.5Y-115.5
X63.25Y-112.0
X63.5Y-129.25
X64.0Y-112.75
X64.0Y-128.5
X64.5Y-114.75
X64.5Y-129.25
X65.0Y-128.5
X65.5Y-113.25
X65.5Y-129.5
X66.0Y-114.75
X73.0Y-114.25
X73.06Y-124.5
X81.75Y-114.25
X83.25Y-114.5
X86.0Y-127.25
X87.25Y-126.75
X88.25Y-76.25
X88.5Y-108.25
X88.75Y-66.25
X89.25Y-107.75
X90.0Y-76.3
X90.25Y-109.0
X91.5Y-72.5
X91.77Y-46.65
X91.77Y-48.25
X91.77Y-49.85
X92.0Y-108.75
X92.55Y-123.421
X93.25Y-122.866
X94.5Y-117.9
X94.5Y-120.832
X96.0Y-52.5
X97.0Y-122.366
X97.379Y-123.487
X97.625Y-115.125
X99.25Y-45.0
X99.5Y-114.75
X100.0Y-48.75
X100.0Y-117.5
X100.0Y-127.75
X100.25Y-116.75
X100.471Y-64.1
X100.5Y-61.75
X100.75Y-98.25
X100.75Y-102.75
X100.75Y-114.5
X100.75Y-116.25
X101.0Y-129.25
X101.25Y-109.5
X101.25Y-128.0
X101.373Y-100.074
X101.75Y-102.5
X101.812Y-129.688
X102.0Y-108.75
X102.5Y-116.25
X102.667Y-127.833
X102.73Y-108.413
X102.75Y-56.75
X102.75Y-57.75
X102.75Y-129.75
X103.75Y-108.5
X103.75Y-126.75
X104.25Y-59.25
X104.25Y-123.25
X104.25Y-131.0
X104.5Y-117.575
X104.5Y-124.25
X105.07Y-121.601
X106.25Y-98.75
X106.25Y-102.0
X106.25Y-107.25
X106.75Y-59.071
X106.75Y-84.0
X107.0Y-85.0
X107.0Y-95.5
X107.0Y-99.5
X107.0Y-106.25
X107.25Y-82.75
X107.308Y-117.575
X107.75Y-120.0
X107.75Y-121.0
X107.75Y-122.0
X108.5Y-82.25
X108.5Y-89.0
X108.75Y-99.0
X108.75Y-120.0
X108.75Y-121.0
X108.75Y-122.0
X109.535Y-124.25
X109.75Y-120.0
X109.75Y-121.0
X109.75Y-122.0
X110.5Y-95.5
X110.85Y-123.85
X111.25Y-98.5
X112.75Y-99.5
X112.82Y-118.91
X113.0Y-51.5
X113.0Y-129.713
X115.0Y-83.25
X115.0Y-118.75
X115.5Y-82.5
X115.65Y-118.75
X116.0Y-88.75
X116.0Y-110.25
X116.25Y-118.75
X116.5Y-81.25
X116.5Y-90.25
X116.55Y-89.5
X117.25Y-128.5
X118.25Y-106.75
X118.5Y-128.75
X118.9Y-119.35
X119.5Y-114.0
X119.502Y-128.502
X119.75Y-129.25
X120.0Y-99.5
X120.25Y-82.578
X120.25Y-88.828
X120.36Y-84.665
X120.75Y-116.0
X120.75Y-129.0
X121.221Y-120.25
X121.25Y-87.828
X121.25Y-119.5
X121.25Y-121.0
X121.25Y-122.0
X121.25Y-123.75
X121.75Y-105.75
X121.75Y-125.5
X122.0Y-115.5
X122.0Y-116.5
X122.25Y-124.5
X122.5Y-123.25
X122.75Y-114.75
X123.0Y-99.0
X123.25Y-123.0
X123.5Y-111.0
X123.75Y-119.0
X124.0Y-124.5
X124.25Y-113.25
X124.25Y-126.75
X124.5Y-118.25
X124.5Y-122.0
X125.7Y-121.25
X125.7Y-122.75
X126.5Y-129.5
X126.9Y-116.75
X126.9Y-118.25
X126.9Y-119.75
X126.9Y-121.25
X127.25Y-86.25
X127.25Y-87.25
X128.1Y-116.75
X128.1Y-119.75
X128.1Y-122.75
X128.25Y-86.25
X128.25Y-87.25
X128.25Y-129.75
X128.75Y-105.75
X129.25Y-108.0
X129.3Y-116.75
X129.3Y-118.25
X129.3Y-119.75
X129.3Y-121.25
X129.3Y-124.25
X129.75Y-130.25
X130.0Y-106.25
X130.5Y-94.75
X130.5Y-108.5
X130.5Y-118.25
X130.5Y-119.75
X130.5Y-121.25
X130.5Y-122.75
X130.5Y-124.25
X131.375Y-93.0
X131.7Y-118.25
X131.7Y-119.75
X131.7Y-122.75
X131.7Y-124.25
X132.0Y-104.0
X132.0Y-128.75
X132.25Y-106.0
X132.9Y-116.75
X132.9Y-118.25
X132.9Y-119.75
X132.9Y-121.25
X132.9Y-122.75
X132.9Y-124.25
X133.0Y-91.0
X133.25Y-128.25
X133.971Y-104.05
X134.1Y-118.25
X134.1Y-119.75
X134.1Y-121.25
X134.1Y-122.75
X134.1Y-124.25
X134.125Y-58.375
X134.5Y-57.25
X134.5Y-119.0
X135.25Y-59.75
X135.75Y-51.75
X135.75Y-120.5
X136.0Y-61.25
X136.5Y-118.25
X136.5Y-119.75
X136.5Y-121.25
X136.5Y-122.75
X136.5Y-124.25
T3
X112.74Y-123.59
T4
X93.0Y-128.116
X93.0Y-130.116
X97.0Y-128.116
X97.0Y-130.116
T6
X104.23Y-46.75
X106.77Y-46.75
T7
X109.25Y-70.643
X109.25Y-73.183
X109.25Y-75.723
X109.25Y-78.263
T8
X43.75Y-47.0
X43.75Y-127.0
X136.25Y-47.0
T9
X123.45Y-74.25
X130.2Y-67.5
X130.2Y-81.0
T5
G00X90.67Y-124.746
M15
G01X90.67Y-125.846
M16
G05
G00X90.67Y-129.096
M15
G01X90.67Y-129.896
M16
G05
G00X99.33Y-124.746
M15
G01X99.33Y-125.846
M16
G05
G00X99.33Y-129.096
M15
G01X99.33Y-129.896
M16
G05
M30
