%TF.GenerationSoftware,KiCad,Pcbnew,9.0.7+1*%
%TF.CreationDate,Date%
%TF.ProjectId,palroc_one_pcb,70616c72-6f63-45f6-9f6e-655f7063622e,+ (Unreleased)*%
%TF.SameCoordinates,Original*%
%TF.FileFunction,Copper,L5,Inr*%
%TF.FilePolarity,Positive*%
%FSLAX46Y46*%
G04 Gerber Fmt 4.6, Leading zero omitted, Abs format (unit mm)*
G04 Created by KiCad*
%MOMM*%
%LPD*%
G01*
G04 APERTURE LIST*
G04 Aperture macros list*
%AMRoundRect*
0 Rectangle with rounded corners*
0 $1 Rounding radius*
0 $2 $3 $4 $5 $6 $7 $8 $9 X,Y pos of 4 corners*
0 Add a 4 corners polygon primitive as box body*
4,1,4,$2,$3,$4,$5,$6,$7,$8,$9,$2,$3,0*
0 Add four circle primitives for the rounded corners*
1,1,$1+$1,$2,$3*
1,1,$1+$1,$4,$5*
1,1,$1+$1,$6,$7*
1,1,$1+$1,$8,$9*
0 Add four rect primitives between the rounded corners*
20,1,$1+$1,$2,$3,$4,$5,0*
20,1,$1+$1,$4,$5,$6,$7,0*
20,1,$1+$1,$6,$7,$8,$9,0*
20,1,$1+$1,$8,$9,$2,$3,0*%
G04 Aperture macros list end*
%TA.AperFunction,ComponentPad*%
%ADD10C,3.800000*%
%TD*%
%TA.AperFunction,ComponentPad*%
%ADD11R,2.000000X2.000000*%
%TD*%
%TA.AperFunction,ComponentPad*%
%ADD12C,2.000000*%
%TD*%
%TA.AperFunction,ComponentPad*%
%ADD13O,2.300000X2.300000*%
%TD*%
%TA.AperFunction,ComponentPad*%
%ADD14O,1.300000X2.300000*%
%TD*%
%TA.AperFunction,ComponentPad*%
%ADD15O,1.300000X2.100000*%
%TD*%
%TA.AperFunction,ComponentPad*%
%ADD16C,0.500000*%
%TD*%
%TA.AperFunction,ComponentPad*%
%ADD17RoundRect,0.450000X1.050000X-1.050000X1.050000X1.050000X-1.050000X1.050000X-1.050000X-1.050000X0*%
%TD*%
%TA.AperFunction,ViaPad*%
%ADD18C,0.550000*%
%TD*%
%TA.AperFunction,ViaPad*%
%ADD19C,0.500000*%
%TD*%
%TA.AperFunction,ViaPad*%
%ADD20C,0.350000*%
%TD*%
G04 APERTURE END LIST*
D10*
%TO.N,GND*%
%TO.C,H1*%
X136250000Y-47000000D03*
%TD*%
D11*
%TO.N,/Project Architecture/Misc/AUDIO+*%
%TO.C,J2*%
X106770000Y-46750000D03*
D12*
%TO.N,/Project Architecture/Misc/AUDIO-*%
X104230000Y-46750000D03*
%TD*%
D13*
%TO.N,/Project Architecture/Gas Sensors/co_ce*%
%TO.C,J1*%
X109250000Y-78263149D03*
%TO.N,unconnected-(J1-Pin_2-Pad2)*%
X109250000Y-75723149D03*
%TO.N,/Project Architecture/Gas Sensors/co_we*%
X109250000Y-73183149D03*
%TO.N,/Project Architecture/Gas Sensors/co_re*%
X109250000Y-70643149D03*
%TD*%
D10*
%TO.N,GND*%
%TO.C,H2*%
X43750000Y-127000000D03*
%TD*%
D14*
%TO.N,Net-(J3-SHIELD)*%
%TO.C,J3*%
X90670000Y-125296250D03*
D15*
X90670000Y-129496250D03*
D16*
X93000000Y-128116250D03*
X93000000Y-130116250D03*
X97000000Y-128116250D03*
X97000000Y-130116250D03*
D14*
X99330000Y-125296250D03*
D15*
X99330000Y-129496250D03*
%TD*%
D10*
%TO.N,GND*%
%TO.C,H3*%
X43750000Y-47000000D03*
%TD*%
D17*
%TO.N,GND*%
%TO.C,J4*%
X130200000Y-81000000D03*
%TO.N,/Project Architecture/Gas Sensors/o2+*%
X123450000Y-74250000D03*
%TO.N,GND*%
X130200000Y-67500000D03*
%TD*%
D18*
%TO.N,*%
X108500000Y-89000000D03*
%TO.N,GND*%
X50750000Y-104500000D03*
X48861289Y-101459422D03*
D19*
X120360000Y-84665000D03*
D18*
X94500000Y-120832383D03*
X108750000Y-120000102D03*
X113000000Y-129713000D03*
D19*
X120250000Y-82577500D03*
D18*
X136500000Y-122750000D03*
X136500000Y-121250000D03*
X108750000Y-121000102D03*
D19*
X112820000Y-118910102D03*
D18*
X109750000Y-120000102D03*
X107750000Y-121000102D03*
X52000000Y-104500000D03*
X109750000Y-122000102D03*
X128250000Y-87250000D03*
X107750000Y-120000102D03*
X128250000Y-86250000D03*
X43940000Y-104250000D03*
D19*
X116550000Y-89500000D03*
X118900000Y-119350102D03*
D18*
X109750000Y-121000102D03*
D19*
X116500000Y-81250000D03*
X112740000Y-123590102D03*
D18*
X49500000Y-104500000D03*
X108750000Y-122000102D03*
X107750000Y-122000102D03*
D20*
X110050000Y-117650092D03*
D19*
X120250000Y-88827500D03*
D18*
X53750000Y-108500000D03*
X136500000Y-124250000D03*
X118250000Y-106750000D03*
%TO.N,+3V3*%
X43940000Y-105250000D03*
D19*
X109534944Y-124250000D03*
D18*
X51600000Y-109010000D03*
X50155416Y-101489059D03*
X91770000Y-46650000D03*
X91770000Y-49850000D03*
X91770000Y-48250000D03*
%TO.N,/Project Architecture/LORA/LORA_SCK*%
X132900000Y-116750000D03*
X132000000Y-104000000D03*
%TO.N,/Project Architecture/LORA/LORA_RST*%
X130500000Y-118250000D03*
X130500000Y-108500000D03*
%TO.N,/Project Architecture/LORA/LORA_ANT_SW*%
X130500000Y-124250000D03*
X130500000Y-94750000D03*
%TO.N,/Project Architecture/LORA/LORA_DIO1*%
X132900000Y-118250000D03*
X133000000Y-91000000D03*
%TO.N,/Project Architecture/LORA/LORA_BUSY*%
X131700000Y-118250000D03*
X131375000Y-93000000D03*
%TO.N,/Project Architecture/LORA/LORA_MOSI*%
X132900000Y-119750000D03*
X132250000Y-106000000D03*
%TO.N,/Project Architecture/LORA/LORA_NSS*%
X133971000Y-104050000D03*
X132900000Y-121250000D03*
%TO.N,/Project Architecture/LORA/LORA_MISO*%
X130000000Y-106250000D03*
X130500000Y-121250000D03*
%TO.N,VBUS_in*%
X94500000Y-117900117D03*
X105069991Y-121601199D03*
D20*
%TO.N,Net-(U5-PVDD)*%
X112100000Y-117950102D03*
X118350000Y-121100102D03*
X112173536Y-121200852D03*
X112750000Y-120700092D03*
X112750000Y-121700092D03*
X118000000Y-121930092D03*
X105150000Y-120750092D03*
X117800000Y-121100102D03*
X117150000Y-121250102D03*
X105800000Y-120750092D03*
X112650000Y-121250102D03*
D19*
%TO.N,/Project Architecture/Power Supply/VOUT2*%
X115650000Y-118750102D03*
X116250000Y-118750102D03*
X110850000Y-123850102D03*
X115000000Y-118750102D03*
D18*
%TO.N,/Project Architecture/Misc/BTN_0*%
X91500000Y-72500000D03*
X100500000Y-61750000D03*
X92000000Y-108750000D03*
X102750000Y-129750000D03*
X126500000Y-129500000D03*
X102000000Y-108750000D03*
%TO.N,SHPHLD*%
X107308441Y-117575000D03*
X100471000Y-64100000D03*
X104500000Y-117575000D03*
%TO.N,/Project Architecture/Connectors/CC1*%
X93250000Y-122866240D03*
X104250000Y-123250000D03*
%TO.N,/Project Architecture/Connectors/CC2*%
X104500000Y-124250000D03*
X97000000Y-122366250D03*
%TO.N,/Project Architecture/Misc/LED1_R*%
X131700000Y-122750000D03*
X99500000Y-114750000D03*
X122000000Y-115500000D03*
X99250000Y-45000000D03*
X122500000Y-123250000D03*
%TO.N,/Project Architecture/Misc/LED1_B*%
X120750000Y-116000000D03*
X97625000Y-115125000D03*
X129300000Y-124250000D03*
X121250000Y-123750000D03*
X96000000Y-52500000D03*
%TO.N,/Project Architecture/Misc/LED1_G*%
X130500000Y-122750000D03*
X123250000Y-123000000D03*
X100750000Y-114500000D03*
X122750000Y-114750000D03*
X100000000Y-48750000D03*
%TO.N,/Project Architecture/Misc/SPI_EXT_MEM_CS*%
X121221000Y-120250000D03*
X118500000Y-128750000D03*
X101250000Y-128000000D03*
X100750000Y-116250000D03*
X126900000Y-121250000D03*
X61000000Y-102000000D03*
X61500000Y-116000000D03*
X52750000Y-101500000D03*
%TO.N,/Project Architecture/Misc/BTN_1*%
X129300000Y-121250000D03*
X90250000Y-109000000D03*
X101250000Y-109500000D03*
X101812500Y-129687500D03*
X128250000Y-129750000D03*
X90000000Y-76300000D03*
%TO.N,/Project Architecture/Misc/BTN_2*%
X103750000Y-108500000D03*
X104250000Y-131000000D03*
X44750000Y-64250000D03*
X129300000Y-119750000D03*
X88750000Y-66250000D03*
X89250000Y-107750000D03*
X129750000Y-130250000D03*
%TO.N,/Project Architecture/Misc/BTN_3*%
X136500000Y-119750000D03*
X102729579Y-108413347D03*
X88500000Y-108250000D03*
X124500000Y-122000000D03*
X124250000Y-126750000D03*
X88250000Y-76250000D03*
X40250000Y-76250000D03*
X103750000Y-126750000D03*
D19*
%TO.N,Net-(U12-ALERT{slash}RDY)*%
X116500000Y-90250000D03*
X116000000Y-88750000D03*
D18*
%TO.N,/Project Architecture/Misc/VIB_PWM*%
X86000000Y-127250000D03*
X134100000Y-121250000D03*
X133250000Y-128250000D03*
X81750000Y-114250000D03*
%TO.N,/Project Architecture/Misc/SPI_MISO*%
X121250000Y-119500000D03*
X62250000Y-101500000D03*
X102666952Y-127833048D03*
X117250000Y-128500000D03*
X126900000Y-119750000D03*
X51380000Y-101490000D03*
X102500000Y-116250000D03*
X62500000Y-115500000D03*
%TO.N,/Project Architecture/Misc/SPI_MOSI*%
X100000000Y-127750000D03*
X100000000Y-117500000D03*
X125700000Y-121250000D03*
X59750000Y-117000000D03*
X58750000Y-110250000D03*
X121250000Y-121000000D03*
X119502417Y-128502417D03*
X49250000Y-109250000D03*
%TO.N,/Project Architecture/Misc/SPI_SCK*%
X100250000Y-116750000D03*
X119750000Y-129250000D03*
X121250000Y-122000000D03*
X125700000Y-122750000D03*
X60500000Y-116500000D03*
X60000000Y-107750000D03*
X50106022Y-108463513D03*
X101000000Y-129250000D03*
%TO.N,/Project Architecture/Misc/AMP_SD*%
X134100000Y-119750000D03*
X106750000Y-59071250D03*
X135250000Y-59750000D03*
%TO.N,/Project Architecture/Misc/I2S_BCLK*%
X134100000Y-118250000D03*
X102750000Y-57750000D03*
X134125000Y-58375000D03*
%TO.N,/Project Architecture/Misc/I2S_DIN*%
X131700000Y-119750000D03*
X136000000Y-61250000D03*
X104250000Y-59250000D03*
X135750000Y-120500000D03*
%TO.N,/Project Architecture/Misc/I2S_LRCLK*%
X134500000Y-119000000D03*
X134500000Y-57250000D03*
X130500000Y-119750000D03*
X102750000Y-56750000D03*
%TO.N,/Project Architecture/DISPLAY/DISP_DIM*%
X132900000Y-122750000D03*
X132000000Y-128750000D03*
X73000000Y-114250000D03*
X119500000Y-114000000D03*
X120750000Y-129000000D03*
X73060000Y-124500000D03*
%TO.N,/Project Architecture/DISPLAY/DISP_MOSI*%
X128100000Y-116750000D03*
X64500000Y-114750000D03*
X64500000Y-129250000D03*
%TO.N,/Project Architecture/DISPLAY/DISP_SCK*%
X126900000Y-118250000D03*
X124500000Y-118250000D03*
X64000000Y-112750000D03*
X124250000Y-113250000D03*
X64000000Y-128500000D03*
%TO.N,/Project Architecture/DISPLAY/DISP_DC*%
X63500000Y-129250000D03*
X63250000Y-112000000D03*
X123750000Y-119000000D03*
X128100000Y-119750000D03*
X123500000Y-111000000D03*
%TO.N,/Project Architecture/DISPLAY/DISP_RST*%
X65000000Y-128500000D03*
X65500000Y-113250000D03*
X129300000Y-116750000D03*
%TO.N,/Project Architecture/DISPLAY/DISP_CS*%
X126900000Y-116750000D03*
X65500000Y-129500000D03*
X66000000Y-114750000D03*
%TO.N,VBUS*%
X97378970Y-123487280D03*
X92550000Y-123421250D03*
%TO.N,/Project Architecture/Misc/VIB_ENABLE*%
X87250000Y-126750000D03*
X83250000Y-114500000D03*
X134100000Y-122750000D03*
%TO.N,/Project Architecture/Misc/AUD_ENABLE*%
X136500000Y-118250000D03*
X113000000Y-51500000D03*
X135750000Y-51750000D03*
%TO.N,/Project Architecture/Connectors/SWO_NRF54*%
X121750000Y-105750000D03*
X128100000Y-122750000D03*
X128750000Y-105750000D03*
%TO.N,/Project Architecture/Connectors/RST_NRF54*%
X129250000Y-108000000D03*
X116000000Y-110250000D03*
%TO.N,/Project Architecture/Connectors/I2C_SCL*%
X106250000Y-98750000D03*
X101750000Y-102500000D03*
X111250000Y-98500000D03*
X107250000Y-82750000D03*
X106750000Y-84000000D03*
X106250000Y-107250000D03*
X122000000Y-116500000D03*
X106250000Y-102000000D03*
D20*
X107820000Y-116500000D03*
D18*
X132900000Y-124250000D03*
D19*
X115000000Y-83250000D03*
D18*
X122250000Y-124500000D03*
X43940000Y-107250000D03*
D20*
%TO.N,/Project Architecture/Connectors/I2C_SDA*%
X108600000Y-117630102D03*
D18*
X110500000Y-95500000D03*
X107000000Y-85000000D03*
X108500000Y-82250000D03*
X107000000Y-95500000D03*
X107000000Y-99500000D03*
D19*
X115500000Y-82500000D03*
D18*
X101372751Y-100074412D03*
X107000000Y-106250000D03*
X43940000Y-106250000D03*
X129300000Y-118250000D03*
%TO.N,Net-(FPC1-PS)*%
X100750000Y-102750000D03*
X100750000Y-98250000D03*
%TO.N,+3v3_EXTRA*%
X127250000Y-86250000D03*
X127250000Y-87250000D03*
%TO.N,/Project Architecture/Misc/INT1_ACCEL*%
X120000000Y-99500000D03*
X112750000Y-99500000D03*
X121750000Y-125500000D03*
X134100000Y-124250000D03*
%TO.N,/Project Architecture/Misc/INT2_ACCEL*%
X131700000Y-124250000D03*
X108750000Y-99000000D03*
X124000000Y-124500000D03*
X123000000Y-99000000D03*
D19*
%TO.N,VDD_ANALOG*%
X121250000Y-87827500D03*
%TD*%
M02*
