%TF.GenerationSoftware,KiCad,Pcbnew,9.0.7+1*%
%TF.CreationDate,Date%
%TF.ProjectId,palroc_one_pcb,70616c72-6f63-45f6-9f6e-655f7063622e,+ (Unreleased)*%
%TF.SameCoordinates,Original*%
%TF.FileFunction,Paste,Top*%
%TF.FilePolarity,Positive*%
%FSLAX46Y46*%
G04 Gerber Fmt 4.6, Leading zero omitted, Abs format (unit mm)*
G04 Created by KiCad*
%MOMM*%
%LPD*%
G01*
G04 APERTURE LIST*
G04 Aperture macros list*
%AMRoundRect*
0 Rectangle with rounded corners*
0 $1 Rounding radius*
0 $2 $3 $4 $5 $6 $7 $8 $9 X,Y pos of 4 corners*
0 Add a 4 corners polygon primitive as box body*
4,1,4,$2,$3,$4,$5,$6,$7,$8,$9,$2,$3,0*
0 Add four circle primitives for the rounded corners*
1,1,$1+$1,$2,$3*
1,1,$1+$1,$4,$5*
1,1,$1+$1,$6,$7*
1,1,$1+$1,$8,$9*
0 Add four rect primitives between the rounded corners*
20,1,$1+$1,$2,$3,$4,$5,0*
20,1,$1+$1,$4,$5,$6,$7,0*
20,1,$1+$1,$6,$7,$8,$9,0*
20,1,$1+$1,$8,$9,$2,$3,0*%
G04 Aperture macros list end*
%ADD10R,0.500000X0.600000*%
%ADD11R,1.500000X2.200000*%
%ADD12R,0.550000X0.600000*%
%ADD13R,0.600000X0.500000*%
%ADD14R,0.800000X0.750000*%
%ADD15R,0.700000X1.500000*%
%ADD16C,0.650000*%
%ADD17O,0.850010X0.300000*%
%ADD18O,0.300000X0.850010*%
%ADD19R,3.500000X3.500000*%
%ADD20RoundRect,0.250000X-0.425000X-0.650000X0.425000X-0.650000X0.425000X0.650000X-0.425000X0.650000X0*%
%ADD21R,1.380000X1.130000*%
%ADD22R,0.500000X0.300000*%
%ADD23R,1.130000X1.380000*%
%ADD24R,0.600000X0.550000*%
%ADD25R,0.250000X0.600000*%
%ADD26R,0.600000X0.250000*%
%ADD27R,1.500000X1.500000*%
%ADD28R,1.000000X0.600000*%
%ADD29R,0.270000X0.300000*%
%ADD30R,0.665000X0.280000*%
%ADD31R,2.600000X3.000000*%
%ADD32RoundRect,0.250000X-0.550000X0.300000X-0.550000X-0.300000X0.550000X-0.300000X0.550000X0.300000X0*%
%ADD33RoundRect,0.150000X-0.150000X0.512500X-0.150000X-0.512500X0.150000X-0.512500X0.150000X0.512500X0*%
%ADD34R,1.550000X0.600000*%
%ADD35R,1.800000X1.200000*%
%ADD36R,0.600000X1.000000*%
%ADD37R,0.300000X0.270000*%
%ADD38O,0.580000X1.280000*%
%ADD39R,4.300000X3.400000*%
%ADD40RoundRect,0.250000X-0.300000X-0.550000X0.300000X-0.550000X0.300000X0.550000X-0.300000X0.550000X0*%
%ADD41R,0.750000X0.800000*%
%ADD42R,2.105000X0.980000*%
%ADD43RoundRect,0.150000X-0.590000X-0.150000X0.590000X-0.150000X0.590000X0.150000X-0.590000X0.150000X0*%
%ADD44R,1.130000X1.820000*%
%ADD45R,1.190000X1.728000*%
%ADD46C,0.787400*%
%ADD47R,0.860000X0.800000*%
%ADD48R,0.300000X0.850000*%
%ADD49R,0.800000X0.860000*%
%ADD50R,3.400000X1.500000*%
%ADD51R,3.500000X1.000000*%
%ADD52R,1.800000X2.000000*%
%ADD53R,0.300000X0.500000*%
%ADD54R,1.000000X2.000000*%
%ADD55R,0.300000X1.200000*%
%ADD56R,0.500000X0.280000*%
%ADD57R,0.280000X0.500000*%
%ADD58R,0.300000X0.350000*%
%ADD59R,0.300000X1.400000*%
%ADD60R,0.500000X1.400000*%
%ADD61RoundRect,0.500000X-2.000000X-1.000000X2.000000X-1.000000X2.000000X1.000000X-2.000000X1.000000X0*%
%ADD62R,0.300000X0.800000*%
%ADD63R,0.300000X0.600000*%
%ADD64R,0.400000X0.950000*%
%ADD65R,1.820000X1.130000*%
%ADD66R,0.250000X1.100000*%
G04 APERTURE END LIST*
D10*
%TO.C,C39*%
X107500000Y-52321250D03*
X107500000Y-53321250D03*
%TD*%
D11*
%TO.C,SW1*%
X90000000Y-64300000D03*
X90000000Y-55700000D03*
X94500000Y-64300000D03*
X94500000Y-55700000D03*
%TD*%
D12*
%TO.C,R24*%
X96000000Y-51500000D03*
X96000000Y-52500000D03*
%TD*%
%TO.C,R31*%
X98000000Y-48750000D03*
X98000000Y-47750000D03*
%TD*%
D10*
%TO.C,C8*%
X77250000Y-128700000D03*
X77250000Y-129700000D03*
%TD*%
D13*
%TO.C,C16*%
X104950000Y-120000102D03*
X103950000Y-120000102D03*
%TD*%
D14*
%TO.C,C36*%
X108750000Y-56146250D03*
X108750000Y-57496250D03*
%TD*%
D12*
%TO.C,R17*%
X119700000Y-117650102D03*
X119700000Y-118650102D03*
%TD*%
D15*
%TO.C,U1*%
X135800000Y-114500000D03*
X134700000Y-114500000D03*
X133600000Y-114500000D03*
X132500000Y-114500000D03*
X131400000Y-114500000D03*
X130300000Y-114500000D03*
X129200000Y-114500000D03*
X128100000Y-114500000D03*
X127000000Y-114500000D03*
X125900000Y-114500000D03*
X125900000Y-126500000D03*
X127000000Y-126500000D03*
X128100000Y-126500000D03*
X129200000Y-126500000D03*
X130300000Y-126500000D03*
X131400000Y-126500000D03*
X132500000Y-126500000D03*
X133600000Y-126500000D03*
X134700000Y-126500000D03*
X135800000Y-126500000D03*
D16*
X136500000Y-116750000D03*
X135300000Y-116750000D03*
X134100000Y-116750000D03*
X132900000Y-116750000D03*
X131700000Y-116750000D03*
X130500000Y-116750000D03*
X129300000Y-116750000D03*
X128100000Y-116750000D03*
X126900000Y-116750000D03*
X125700000Y-116750000D03*
X136500000Y-118250000D03*
X135300000Y-118250000D03*
X134100000Y-118250000D03*
X132900000Y-118250000D03*
X131700000Y-118250000D03*
X130500000Y-118250000D03*
X129300000Y-118250000D03*
X128100000Y-118250000D03*
X126900000Y-118250000D03*
X125700000Y-118250000D03*
X136500000Y-119750000D03*
X135300000Y-119750000D03*
X134100000Y-119750000D03*
X132900000Y-119750000D03*
X131700000Y-119750000D03*
X130500000Y-119750000D03*
X129300000Y-119750000D03*
X128100000Y-119750000D03*
X126900000Y-119750000D03*
X125700000Y-119750000D03*
X136500000Y-121250000D03*
X135300000Y-121250000D03*
X134100000Y-121250000D03*
X132900000Y-121250000D03*
X131700000Y-121250000D03*
X130500000Y-121250000D03*
X129300000Y-121250000D03*
X128100000Y-121250000D03*
X126900000Y-121250000D03*
X125700000Y-121250000D03*
X136500000Y-122750000D03*
X135300000Y-122750000D03*
X134100000Y-122750000D03*
X132900000Y-122750000D03*
X131700000Y-122750000D03*
X130500000Y-122750000D03*
X129300000Y-122750000D03*
X128100000Y-122750000D03*
X126900000Y-122750000D03*
X125700000Y-122750000D03*
X136500000Y-124250000D03*
X135300000Y-124250000D03*
X134100000Y-124250000D03*
X132900000Y-124250000D03*
X131700000Y-124250000D03*
X130500000Y-124250000D03*
X129300000Y-124250000D03*
X128100000Y-124250000D03*
X126900000Y-124250000D03*
X125700000Y-124250000D03*
%TD*%
D12*
%TO.C,R20*%
X81650000Y-113400000D03*
X81650000Y-112400000D03*
%TD*%
D17*
%TO.C,U5*%
X111250000Y-122800122D03*
X111250000Y-122300122D03*
X111250000Y-121800122D03*
X111250000Y-121300102D03*
X111250000Y-120800122D03*
X111250000Y-120300102D03*
X111250000Y-119800102D03*
X111250000Y-119300102D03*
D18*
X110550000Y-118600102D03*
X110050010Y-118600102D03*
X109550010Y-118600102D03*
X109049980Y-118600102D03*
X108550010Y-118600102D03*
X108049980Y-118600102D03*
X107549990Y-118600102D03*
X107049990Y-118600102D03*
D17*
X106349990Y-119300102D03*
X106349990Y-119800102D03*
X106349990Y-120300102D03*
X106349990Y-120800122D03*
X106349990Y-121300102D03*
X106349990Y-121800122D03*
X106349990Y-122300122D03*
X106349990Y-122800122D03*
D18*
X107049990Y-123500122D03*
X107549990Y-123500122D03*
X108049980Y-123500122D03*
X108550010Y-123500122D03*
X109049980Y-123500122D03*
X109550010Y-123500122D03*
X110050010Y-123500122D03*
X110550000Y-123500122D03*
D19*
X108800000Y-121050112D03*
%TD*%
D10*
%TO.C,C49*%
X116500000Y-82250000D03*
X116500000Y-81250000D03*
%TD*%
%TO.C,C40*%
X84900000Y-110900000D03*
X84900000Y-111900000D03*
%TD*%
D20*
%TO.C,S1*%
X55425000Y-129250000D03*
X59575000Y-129250000D03*
%TD*%
D21*
%TO.C,L8*%
X118050000Y-121980102D03*
X118050000Y-123920102D03*
%TD*%
D13*
%TO.C,C13*%
X92250000Y-120866240D03*
X91250000Y-120866240D03*
%TD*%
D12*
%TO.C,R48*%
X122750000Y-87327500D03*
X122750000Y-88327500D03*
%TD*%
D22*
%TO.C,Q3*%
X82390000Y-111900000D03*
X82390000Y-112400000D03*
X82390000Y-112900000D03*
X83910000Y-112900000D03*
X83910000Y-112400000D03*
X83910000Y-111900000D03*
%TD*%
D14*
%TO.C,R52*%
X122750000Y-84652500D03*
X122750000Y-86002500D03*
%TD*%
D23*
%TO.C,L6*%
X116030000Y-117850102D03*
X117970000Y-117850102D03*
%TD*%
D13*
%TO.C,C29*%
X117950000Y-120150102D03*
X118950000Y-120150102D03*
%TD*%
D24*
%TO.C,R21*%
X51600000Y-99760000D03*
X52600000Y-99760000D03*
%TD*%
D14*
%TO.C,C47*%
X107125000Y-97820000D03*
X107125000Y-96470000D03*
%TD*%
D13*
%TO.C,C23*%
X110300000Y-126000000D03*
X109300000Y-126000000D03*
%TD*%
D12*
%TO.C,R4*%
X74750000Y-121700000D03*
X74750000Y-122700000D03*
%TD*%
%TO.C,R1*%
X79250000Y-129700000D03*
X79250000Y-128700000D03*
%TD*%
%TO.C,R30*%
X113000000Y-55000000D03*
X113000000Y-56000000D03*
%TD*%
%TO.C,R13*%
X110325000Y-126815162D03*
X110325000Y-127815162D03*
%TD*%
D25*
%TO.C,U7*%
X104250000Y-58466250D03*
X104750000Y-58466250D03*
X105250000Y-58466250D03*
X105750000Y-58466250D03*
D26*
X106500000Y-57716250D03*
X106500000Y-57216250D03*
X106500000Y-56716250D03*
X106500000Y-56216250D03*
D25*
X105750000Y-55466250D03*
X105250000Y-55466250D03*
X104750000Y-55466250D03*
X104250000Y-55466250D03*
D26*
X103500000Y-56216250D03*
X103500000Y-56716250D03*
X103500000Y-57216250D03*
X103500000Y-57716250D03*
D27*
X105000000Y-56966250D03*
%TD*%
D24*
%TO.C,R2*%
X76750000Y-122700000D03*
X77750000Y-122700000D03*
%TD*%
D13*
%TO.C,C41*%
X127000000Y-113000000D03*
X126000000Y-113000000D03*
%TD*%
D24*
%TO.C,R25*%
X51600000Y-109010000D03*
X52600000Y-109010000D03*
%TD*%
D28*
%TO.C,U4*%
X85500000Y-116400000D03*
X85500000Y-115450000D03*
X85500000Y-114500000D03*
X83300000Y-114500000D03*
X83300000Y-116400000D03*
%TD*%
D10*
%TO.C,C42*%
X53750000Y-107500000D03*
X53750000Y-108500000D03*
%TD*%
D24*
%TO.C,R41*%
X46500000Y-106250000D03*
X45500000Y-106250000D03*
%TD*%
D29*
%TO.C,C26*%
X104534990Y-120750102D03*
X103965000Y-120750102D03*
%TD*%
D10*
%TO.C,C28*%
X113000000Y-127950102D03*
X113000000Y-128950102D03*
%TD*%
D30*
%TO.C,U14*%
X107840000Y-83500000D03*
X107840000Y-84000000D03*
X107840000Y-84500000D03*
X107840000Y-85000000D03*
X107840000Y-85500000D03*
X107840000Y-86000000D03*
X107840000Y-86500000D03*
X111660000Y-86500000D03*
X111660000Y-86000000D03*
X111660000Y-85500000D03*
X111660000Y-85000000D03*
X111660000Y-84500000D03*
X111660000Y-84000000D03*
X111660000Y-83500000D03*
D31*
X109750000Y-85000000D03*
%TD*%
D10*
%TO.C,C14*%
X89500000Y-119616250D03*
X89500000Y-120616250D03*
%TD*%
D32*
%TO.C,D2*%
X86400000Y-110000000D03*
X86400000Y-112800000D03*
%TD*%
D24*
%TO.C,R27*%
X99000000Y-48750000D03*
X100000000Y-48750000D03*
%TD*%
D33*
%TO.C,U13*%
X121310000Y-84665000D03*
X120360000Y-84665000D03*
X119410000Y-84665000D03*
X119410000Y-86940000D03*
X121310000Y-86940000D03*
%TD*%
D34*
%TO.C,CN1*%
X43940000Y-104250000D03*
X43940000Y-105250000D03*
X43940000Y-106250000D03*
X43940000Y-107250000D03*
D35*
X40060000Y-108550000D03*
X40060000Y-102950000D03*
%TD*%
D24*
%TO.C,R22*%
X86750000Y-114500000D03*
X87750000Y-114500000D03*
%TD*%
%TO.C,R19*%
X104500000Y-60071250D03*
X105500000Y-60071250D03*
%TD*%
D29*
%TO.C,C34*%
X117965010Y-119400102D03*
X118535000Y-119400102D03*
%TD*%
%TO.C,C20*%
X113964990Y-123740112D03*
X113395000Y-123740112D03*
%TD*%
D13*
%TO.C,C52*%
X121250000Y-82077500D03*
X120250000Y-82077500D03*
%TD*%
D36*
%TO.C,U6*%
X111075000Y-53853750D03*
X112025000Y-53853750D03*
X112975000Y-53853750D03*
X112975000Y-51653750D03*
X111075000Y-51653750D03*
%TD*%
D24*
%TO.C,R26*%
X100250000Y-45000000D03*
X99250000Y-45000000D03*
%TD*%
D37*
%TO.C,C25*%
X112600000Y-117965112D03*
X112600000Y-118535102D03*
%TD*%
D38*
%TO.C,U9*%
X52660000Y-101490000D03*
X51380000Y-101490000D03*
X50120000Y-101490000D03*
X48850000Y-101490000D03*
X48850000Y-107510000D03*
X50120000Y-107510000D03*
X51380000Y-107510000D03*
X52660000Y-107510000D03*
D39*
X50750000Y-104500000D03*
%TD*%
D10*
%TO.C,C9*%
X100000000Y-122866250D03*
X100000000Y-121866250D03*
%TD*%
D40*
%TO.C,D4*%
X97600000Y-64100000D03*
X100400000Y-64100000D03*
%TD*%
D12*
%TO.C,R35*%
X97500000Y-101000000D03*
X97500000Y-100000000D03*
%TD*%
%TO.C,R10*%
X107000000Y-115500102D03*
X107000000Y-116500102D03*
%TD*%
%TO.C,R42*%
X116500000Y-91250000D03*
X116500000Y-90250000D03*
%TD*%
D41*
%TO.C,C45*%
X110800000Y-50353750D03*
X112150000Y-50353750D03*
%TD*%
D10*
%TO.C,C37*%
X107500000Y-56321250D03*
X107500000Y-57321250D03*
%TD*%
D42*
%TO.C,LED2*%
X96230000Y-49850000D03*
X96230000Y-48250000D03*
X96230000Y-46650000D03*
X91770000Y-46650000D03*
X91770000Y-48250000D03*
X91770000Y-49850000D03*
%TD*%
D14*
%TO.C,C44*%
X87000000Y-116925000D03*
X87000000Y-115575000D03*
%TD*%
%TO.C,C24*%
X112850000Y-120775112D03*
X112850000Y-119425112D03*
%TD*%
D13*
%TO.C,C6*%
X127250000Y-85750000D03*
X128250000Y-85750000D03*
%TD*%
D43*
%TO.C,Q1*%
X73060000Y-124500000D03*
X73060000Y-126400000D03*
X74940000Y-125450000D03*
%TD*%
D44*
%TO.C,R33*%
X84035000Y-109150000D03*
X82265000Y-109150000D03*
%TD*%
D13*
%TO.C,C50*%
X121250000Y-88327500D03*
X120250000Y-88327500D03*
%TD*%
D12*
%TO.C,R11*%
X106250000Y-115500102D03*
X106250000Y-116500102D03*
%TD*%
D45*
%TO.C,U10*%
X52900000Y-118000000D03*
X50000000Y-118000000D03*
%TD*%
D46*
%TO.C,TC2*%
X115500000Y-106520000D03*
X115500000Y-105250000D03*
X116770000Y-106520000D03*
X116770000Y-105250000D03*
X118040000Y-106520000D03*
X118040000Y-105250000D03*
%TD*%
D12*
%TO.C,R38*%
X110125000Y-99895000D03*
X110125000Y-98895000D03*
%TD*%
D24*
%TO.C,R51*%
X121250000Y-83077500D03*
X122250000Y-83077500D03*
%TD*%
D13*
%TO.C,C35*%
X104499960Y-122500000D03*
X103499960Y-122500000D03*
%TD*%
D10*
%TO.C,C51*%
X106750000Y-86000000D03*
X106750000Y-87000000D03*
%TD*%
D47*
%TO.C,L10*%
X106250000Y-53771250D03*
X106250000Y-52371250D03*
%TD*%
D29*
%TO.C,C17*%
X109165010Y-117700102D03*
X109735000Y-117700102D03*
%TD*%
D24*
%TO.C,R23*%
X49400000Y-129250000D03*
X50400000Y-129250000D03*
%TD*%
D11*
%TO.C,SW2*%
X94500000Y-76300000D03*
X94500000Y-84900000D03*
X90000000Y-76300000D03*
X90000000Y-84900000D03*
%TD*%
D12*
%TO.C,R32*%
X98000000Y-46750000D03*
X98000000Y-45750000D03*
%TD*%
%TO.C,R16*%
X111400000Y-127950102D03*
X111400000Y-128950102D03*
%TD*%
D13*
%TO.C,C15*%
X104850000Y-121600102D03*
X103850000Y-121600102D03*
%TD*%
%TO.C,C11*%
X92250000Y-122866240D03*
X91250000Y-122866240D03*
%TD*%
%TO.C,C27*%
X108300000Y-124930242D03*
X107300000Y-124930242D03*
%TD*%
D24*
%TO.C,R29*%
X98740000Y-50750000D03*
X99740000Y-50750000D03*
%TD*%
D13*
%TO.C,C22*%
X114400000Y-118500102D03*
X113400000Y-118500102D03*
%TD*%
D10*
%TO.C,C30*%
X116850000Y-125250102D03*
X116850000Y-126250102D03*
%TD*%
D12*
%TO.C,R34*%
X96500000Y-101000000D03*
X96500000Y-100000000D03*
%TD*%
D24*
%TO.C,R8*%
X97000000Y-122366250D03*
X98000000Y-122366250D03*
%TD*%
D13*
%TO.C,C19*%
X110325000Y-125065060D03*
X109325000Y-125065060D03*
%TD*%
D41*
%TO.C,C46*%
X110550000Y-55353750D03*
X111900000Y-55353750D03*
%TD*%
D11*
%TO.C,SW3*%
X40250000Y-64300000D03*
X40250000Y-55700000D03*
X44750000Y-64300000D03*
X44750000Y-55700000D03*
%TD*%
D13*
%TO.C,C2*%
X134750000Y-129250000D03*
X135750000Y-129250000D03*
%TD*%
D24*
%TO.C,R36*%
X99750000Y-102750000D03*
X100750000Y-102750000D03*
%TD*%
D37*
%TO.C,C33*%
X117600000Y-125315112D03*
X117600000Y-125885102D03*
%TD*%
D48*
%TO.C,D5*%
X94000000Y-120086250D03*
X94500000Y-120086250D03*
X95000000Y-120086250D03*
X95000000Y-118646250D03*
X94500000Y-118646250D03*
X94000000Y-118646250D03*
%TD*%
D24*
%TO.C,R50*%
X113000000Y-85000000D03*
X114000000Y-85000000D03*
%TD*%
D49*
%TO.C,L2*%
X92200000Y-119616250D03*
X90800000Y-119616250D03*
%TD*%
D24*
%TO.C,R28*%
X98250000Y-49750000D03*
X99250000Y-49750000D03*
%TD*%
D11*
%TO.C,SW4*%
X44750000Y-76300000D03*
X44750000Y-84900000D03*
X40250000Y-76300000D03*
X40250000Y-84900000D03*
%TD*%
D12*
%TO.C,R7*%
X93250000Y-122866240D03*
X93250000Y-121866240D03*
%TD*%
D24*
%TO.C,R18*%
X107750000Y-59071250D03*
X106750000Y-59071250D03*
%TD*%
D50*
%TO.C,U8*%
X40730000Y-120430000D03*
X40730000Y-111570000D03*
D51*
X46270000Y-114000000D03*
X46270000Y-116000000D03*
X46270000Y-118000000D03*
%TD*%
D22*
%TO.C,Q4*%
X97490000Y-51750000D03*
X97490000Y-52250000D03*
X97490000Y-52750000D03*
X99010000Y-52750000D03*
X99010000Y-52250000D03*
X99010000Y-51750000D03*
%TD*%
D52*
%TO.C,L1*%
X82500000Y-127650000D03*
X82500000Y-123250000D03*
%TD*%
D10*
%TO.C,C7*%
X78250000Y-128700000D03*
X78250000Y-129700000D03*
%TD*%
%TO.C,C48*%
X108125000Y-97645000D03*
X108125000Y-96645000D03*
%TD*%
%TO.C,C10*%
X89750000Y-122866250D03*
X89750000Y-121866250D03*
%TD*%
D13*
%TO.C,C21*%
X111750000Y-124250102D03*
X112750000Y-124250102D03*
%TD*%
D24*
%TO.C,R45*%
X119250000Y-83077500D03*
X120250000Y-83077500D03*
%TD*%
D12*
%TO.C,R5*%
X75750000Y-121700000D03*
X75750000Y-122700000D03*
%TD*%
D13*
%TO.C,C4*%
X127250000Y-87750000D03*
X128250000Y-87750000D03*
%TD*%
D47*
%TO.C,L9*%
X104750000Y-53771250D03*
X104750000Y-52371250D03*
%TD*%
D24*
%TO.C,R40*%
X46500000Y-107250000D03*
X45500000Y-107250000D03*
%TD*%
D10*
%TO.C,C38*%
X103500000Y-52321250D03*
X103500000Y-53321250D03*
%TD*%
D53*
%TO.C,Q5*%
X100250000Y-46230000D03*
X99750000Y-46230000D03*
X99250000Y-46230000D03*
X99250000Y-47750000D03*
X99750000Y-47750000D03*
X100250000Y-47750000D03*
%TD*%
D13*
%TO.C,C5*%
X127250000Y-86750000D03*
X128250000Y-86750000D03*
%TD*%
D33*
%TO.C,U2*%
X78700000Y-124312500D03*
X77750000Y-124312500D03*
X76800000Y-124312500D03*
X76800000Y-126587500D03*
X77750000Y-126587500D03*
X78700000Y-126587500D03*
%TD*%
D44*
%TO.C,L5*%
X115835000Y-120250102D03*
X114065000Y-120250102D03*
%TD*%
D54*
%TO.C,M1*%
X139300000Y-89450000D03*
X137500000Y-89450000D03*
X135700000Y-89450000D03*
X133900000Y-89450000D03*
X132100000Y-89450000D03*
X130300000Y-89450000D03*
X128500000Y-89450000D03*
X126700000Y-89450000D03*
X126700000Y-104050000D03*
X128500000Y-104050000D03*
X130300000Y-104050000D03*
X132100000Y-104050000D03*
X133900000Y-104050000D03*
X135700000Y-104050000D03*
X137500000Y-104050000D03*
X139300000Y-104050000D03*
%TD*%
D12*
%TO.C,R39*%
X109375000Y-99895000D03*
X109375000Y-98895000D03*
%TD*%
%TO.C,R37*%
X111698386Y-97508973D03*
X111698386Y-96508973D03*
%TD*%
%TO.C,R3*%
X76250000Y-128700000D03*
X76250000Y-129700000D03*
%TD*%
D37*
%TO.C,C32*%
X112200000Y-127815112D03*
X112200000Y-128385102D03*
%TD*%
D12*
%TO.C,R6*%
X73750000Y-121700000D03*
X73750000Y-120700000D03*
%TD*%
%TO.C,R15*%
X118500000Y-125400102D03*
X118500000Y-126400102D03*
%TD*%
D24*
%TO.C,R44*%
X116500000Y-89500000D03*
X115500000Y-89500000D03*
%TD*%
D55*
%TO.C,U3*%
X68000000Y-130675000D03*
X67500000Y-130675000D03*
X67000000Y-130675000D03*
X66500000Y-130675000D03*
X66000000Y-130675000D03*
X65500000Y-130675000D03*
X65000000Y-130675000D03*
X64500000Y-130675000D03*
X64000000Y-130675000D03*
X63500000Y-130675000D03*
D52*
X61850000Y-127515000D03*
X69650000Y-127515000D03*
%TD*%
D56*
%TO.C,U11*%
X110630000Y-97750000D03*
X110630000Y-97250000D03*
X110630000Y-96750000D03*
X110630000Y-96250000D03*
D57*
X110000000Y-96120000D03*
X109500000Y-96120000D03*
D56*
X108870000Y-96250000D03*
X108870000Y-96750000D03*
X108870000Y-97250000D03*
X108870000Y-97750000D03*
D57*
X109500000Y-97880000D03*
X110000000Y-97880000D03*
%TD*%
D58*
%TO.C,L3*%
X94250000Y-116916250D03*
X94250000Y-116316250D03*
X94750000Y-116316250D03*
X94750000Y-116916250D03*
%TD*%
D13*
%TO.C,C12*%
X92250000Y-121866250D03*
X91250000Y-121866250D03*
%TD*%
D59*
%TO.C,J3*%
X93750000Y-124616250D03*
X94750000Y-124616250D03*
X95250000Y-124616250D03*
X96250000Y-124616250D03*
D60*
X97400000Y-124616250D03*
X98200000Y-124616250D03*
D59*
X96750000Y-124616250D03*
X95750000Y-124616250D03*
X94250000Y-124616250D03*
X93250000Y-124616250D03*
D60*
X92600000Y-124616250D03*
X91800000Y-124616250D03*
D61*
X95000000Y-129116250D03*
%TD*%
D62*
%TO.C,FPC1*%
X102575000Y-99075000D03*
D63*
X102275000Y-101435000D03*
D62*
X101975000Y-99075000D03*
D63*
X101675000Y-101435000D03*
D62*
X101375000Y-99075000D03*
D63*
X101075000Y-101435000D03*
D62*
X100775000Y-99075000D03*
D63*
X100475000Y-101435000D03*
D62*
X100175000Y-99075000D03*
D63*
X99875000Y-101435000D03*
D62*
X99575000Y-99075000D03*
D63*
X99275000Y-101435000D03*
D62*
X98975000Y-99075000D03*
D64*
X98325000Y-99175000D03*
X103225000Y-99175000D03*
%TD*%
D65*
%TO.C,L4*%
X115350000Y-124035102D03*
X115350000Y-122265102D03*
%TD*%
D14*
%TO.C,C43*%
X82000000Y-116675000D03*
X82000000Y-115325000D03*
%TD*%
D24*
%TO.C,R46*%
X120250000Y-89327500D03*
X119250000Y-89327500D03*
%TD*%
D40*
%TO.C,D3*%
X97600000Y-61750000D03*
X100400000Y-61750000D03*
%TD*%
D13*
%TO.C,C1*%
X134750000Y-128250000D03*
X135750000Y-128250000D03*
%TD*%
%TO.C,C31*%
X108275000Y-125815162D03*
X107275000Y-125815162D03*
%TD*%
D12*
%TO.C,R14*%
X108275000Y-126765162D03*
X108275000Y-127765162D03*
%TD*%
D23*
%TO.C,L7*%
X114520000Y-126300102D03*
X112580000Y-126300102D03*
%TD*%
D14*
%TO.C,C18*%
X112850000Y-121775112D03*
X112850000Y-123125112D03*
%TD*%
D13*
%TO.C,C3*%
X134750000Y-130250000D03*
X135750000Y-130250000D03*
%TD*%
D66*
%TO.C,U12*%
X115500000Y-87900000D03*
X116000000Y-87900000D03*
X116500000Y-87900000D03*
X117000000Y-87900000D03*
X117500000Y-87900000D03*
X117500000Y-83600000D03*
X117000000Y-83600000D03*
X116500000Y-83600000D03*
X116000000Y-83600000D03*
X115500000Y-83600000D03*
%TD*%
M02*
