ISO-10303-21;
HEADER;
/* Generated by software containing ST-Developer
 * from STEP Tools, Inc. (www.steptools.com) 
 */
/* OPTION: using custom renumber hook */

FILE_DESCRIPTION(
/* description */ ('STEP AP242 Edition 2',
'CAx-IF Rec.Pracs.---Representation and Presentation of Product Manufa
cturing Information (PMI)---4.0---2014-10-13',
'CAx-IF Rec.Pracs.---3D Tessellated Geometry---0.4---2014-09-14','2;1',
'CAx-IF Rec.Pracs.---User Defined Attributes---1.5---2016-08-15'),
/* implementation_level */ '2;1');

FILE_NAME(
/* name */ '6a3801aa000c37468c25eb06',
/* time_stamp */ '2026-06-21T15:22:19Z',
/* author */ (''),
/* organization */ (''),
/* preprocessor_version */ 'ST-DEVELOPER v20',
/* originating_system */ 'ONSHAPE BY PTC INC, 1.216',
/* authorisation */ '  ');

FILE_SCHEMA (('AP242_MANAGED_MODEL_BASED_3D_ENGINEERING_MIM_LF { 1 0 10303 442 3 1 4 }'));
ENDSEC;

DATA;
#10=LINE('',#1025,#18);
#11=LINE('',#1030,#19);
#12=LINE('',#1034,#20);
#13=LINE('',#1038,#21);
#14=LINE('',#1040,#22);
#15=LINE('',#1042,#23);
#16=LINE('',#1044,#24);
#17=LINE('',#1048,#25);
#18=VECTOR('',#866,1.);
#19=VECTOR('',#869,1.);
#20=VECTOR('',#874,1.);
#21=VECTOR('',#877,1.);
#22=VECTOR('',#880,1.);
#23=VECTOR('',#881,1.);
#24=VECTOR('',#884,1.);
#25=VECTOR('',#889,1.);
#26=DRAUGHTING_PRE_DEFINED_COLOUR('black');
#27=CONTEXT_DEPENDENT_SHAPE_REPRESENTATION(#39,#1087);
#28=CONTEXT_DEPENDENT_SHAPE_REPRESENTATION(#40,#1089);
#29=CONTEXT_DEPENDENT_SHAPE_REPRESENTATION(#41,#1091);
#30=CONTEXT_DEPENDENT_SHAPE_REPRESENTATION(#42,#1093);
#31=CONTEXT_DEPENDENT_SHAPE_REPRESENTATION(#43,#1095);
#32=CONTEXT_DEPENDENT_SHAPE_REPRESENTATION(#44,#1097);
#33=NEXT_ASSEMBLY_USAGE_OCCURRENCE('NAUO1','Part 2','Part 2',#1098,#1099,
'');
#34=NEXT_ASSEMBLY_USAGE_OCCURRENCE('NAUO2','Part 3','Part 3',#1098,#1100,
'');
#35=NEXT_ASSEMBLY_USAGE_OCCURRENCE('NAUO3','Part 2','Part 2',#1098,#1101,
'');
#36=NEXT_ASSEMBLY_USAGE_OCCURRENCE('NAUO4','Part 1','Part 1',#1098,#1102,
'');
#37=NEXT_ASSEMBLY_USAGE_OCCURRENCE('NAUO5','Part 4','Part 4',#1098,#1103,
'');
#38=NEXT_ASSEMBLY_USAGE_OCCURRENCE('NAUO6','Part 1','Part 1',#1098,#1104,
'');
#39=(
REPRESENTATION_RELATIONSHIP(' ',' ',#616,#615)
REPRESENTATION_RELATIONSHIP_WITH_TRANSFORMATION(#45)
SHAPE_REPRESENTATION_RELATIONSHIP()
);
#40=(
REPRESENTATION_RELATIONSHIP(' ',' ',#617,#615)
REPRESENTATION_RELATIONSHIP_WITH_TRANSFORMATION(#46)
SHAPE_REPRESENTATION_RELATIONSHIP()
);
#41=(
REPRESENTATION_RELATIONSHIP(' ',' ',#618,#615)
REPRESENTATION_RELATIONSHIP_WITH_TRANSFORMATION(#47)
SHAPE_REPRESENTATION_RELATIONSHIP()
);
#42=(
REPRESENTATION_RELATIONSHIP(' ',' ',#619,#615)
REPRESENTATION_RELATIONSHIP_WITH_TRANSFORMATION(#48)
SHAPE_REPRESENTATION_RELATIONSHIP()
);
#43=(
REPRESENTATION_RELATIONSHIP(' ',' ',#620,#615)
REPRESENTATION_RELATIONSHIP_WITH_TRANSFORMATION(#49)
SHAPE_REPRESENTATION_RELATIONSHIP()
);
#44=(
REPRESENTATION_RELATIONSHIP(' ',' ',#621,#615)
REPRESENTATION_RELATIONSHIP_WITH_TRANSFORMATION(#50)
SHAPE_REPRESENTATION_RELATIONSHIP()
);
#45=ITEM_DEFINED_TRANSFORMATION(' ',' ',#622,#636);
#46=ITEM_DEFINED_TRANSFORMATION(' ',' ',#622,#650);
#47=ITEM_DEFINED_TRANSFORMATION(' ',' ',#622,#660);
#48=ITEM_DEFINED_TRANSFORMATION(' ',' ',#622,#674);
#49=ITEM_DEFINED_TRANSFORMATION(' ',' ',#622,#688);
#50=ITEM_DEFINED_TRANSFORMATION(' ',' ',#622,#717);
#51=SHAPE_REPRESENTATION_RELATIONSHIP('','',#616,#57);
#52=SHAPE_REPRESENTATION_RELATIONSHIP('','',#617,#58);
#53=SHAPE_REPRESENTATION_RELATIONSHIP('','',#618,#59);
#54=SHAPE_REPRESENTATION_RELATIONSHIP('','',#619,#60);
#55=SHAPE_REPRESENTATION_RELATIONSHIP('','',#620,#61);
#56=SHAPE_REPRESENTATION_RELATIONSHIP('','',#621,#62);
#57=ADVANCED_BREP_SHAPE_REPRESENTATION('',(#602),#1069);
#58=ADVANCED_BREP_SHAPE_REPRESENTATION('',(#603),#1070);
#59=ADVANCED_BREP_SHAPE_REPRESENTATION('',(#604),#1071);
#60=ADVANCED_BREP_SHAPE_REPRESENTATION('',(#605),#1072);
#61=ADVANCED_BREP_SHAPE_REPRESENTATION('',(#606),#1073);
#62=ADVANCED_BREP_SHAPE_REPRESENTATION('',(#607),#1074);
#63=PLANE('',#626);
#64=PLANE('',#628);
#65=PLANE('',#632);
#66=PLANE('',#635);
#67=PLANE('',#640);
#68=PLANE('',#642);
#69=PLANE('',#646);
#70=PLANE('',#649);
#71=PLANE('',#654);
#72=PLANE('',#656);
#73=PLANE('',#659);
#74=PLANE('',#664);
#75=PLANE('',#666);
#76=PLANE('',#670);
#77=PLANE('',#673);
#78=PLANE('',#678);
#79=PLANE('',#680);
#80=PLANE('',#684);
#81=PLANE('',#687);
#82=PLANE('',#689);
#83=PLANE('',#698);
#84=PLANE('',#700);
#85=PLANE('',#703);
#86=PLANE('',#704);
#87=PLANE('',#707);
#88=PLANE('',#710);
#89=PLANE('',#713);
#90=PLANE('',#716);
#91=ORIENTED_EDGE('',*,*,#189,.F.);
#92=ORIENTED_EDGE('',*,*,#190,.T.);
#93=ORIENTED_EDGE('',*,*,#191,.F.);
#94=ORIENTED_EDGE('',*,*,#189,.T.);
#95=ORIENTED_EDGE('',*,*,#192,.F.);
#96=ORIENTED_EDGE('',*,*,#190,.F.);
#97=ORIENTED_EDGE('',*,*,#193,.F.);
#98=ORIENTED_EDGE('',*,*,#192,.T.);
#99=ORIENTED_EDGE('',*,*,#193,.T.);
#100=ORIENTED_EDGE('',*,*,#194,.F.);
#101=ORIENTED_EDGE('',*,*,#191,.T.);
#102=ORIENTED_EDGE('',*,*,#194,.T.);
#103=ORIENTED_EDGE('',*,*,#195,.F.);
#104=ORIENTED_EDGE('',*,*,#196,.T.);
#105=ORIENTED_EDGE('',*,*,#197,.F.);
#106=ORIENTED_EDGE('',*,*,#195,.T.);
#107=ORIENTED_EDGE('',*,*,#198,.F.);
#108=ORIENTED_EDGE('',*,*,#196,.F.);
#109=ORIENTED_EDGE('',*,*,#199,.F.);
#110=ORIENTED_EDGE('',*,*,#198,.T.);
#111=ORIENTED_EDGE('',*,*,#199,.T.);
#112=ORIENTED_EDGE('',*,*,#200,.F.);
#113=ORIENTED_EDGE('',*,*,#197,.T.);
#114=ORIENTED_EDGE('',*,*,#200,.T.);
#115=ORIENTED_EDGE('',*,*,#201,.T.);
#116=ORIENTED_EDGE('',*,*,#202,.F.);
#117=ORIENTED_EDGE('',*,*,#203,.F.);
#118=ORIENTED_EDGE('',*,*,#201,.F.);
#119=ORIENTED_EDGE('',*,*,#202,.T.);
#120=ORIENTED_EDGE('',*,*,#204,.F.);
#121=ORIENTED_EDGE('',*,*,#203,.T.);
#122=ORIENTED_EDGE('',*,*,#204,.T.);
#123=ORIENTED_EDGE('',*,*,#205,.F.);
#124=ORIENTED_EDGE('',*,*,#206,.T.);
#125=ORIENTED_EDGE('',*,*,#207,.F.);
#126=ORIENTED_EDGE('',*,*,#205,.T.);
#127=ORIENTED_EDGE('',*,*,#208,.F.);
#128=ORIENTED_EDGE('',*,*,#206,.F.);
#129=ORIENTED_EDGE('',*,*,#209,.F.);
#130=ORIENTED_EDGE('',*,*,#208,.T.);
#131=ORIENTED_EDGE('',*,*,#209,.T.);
#132=ORIENTED_EDGE('',*,*,#210,.F.);
#133=ORIENTED_EDGE('',*,*,#207,.T.);
#134=ORIENTED_EDGE('',*,*,#210,.T.);
#135=ORIENTED_EDGE('',*,*,#211,.F.);
#136=ORIENTED_EDGE('',*,*,#212,.T.);
#137=ORIENTED_EDGE('',*,*,#213,.F.);
#138=ORIENTED_EDGE('',*,*,#211,.T.);
#139=ORIENTED_EDGE('',*,*,#214,.F.);
#140=ORIENTED_EDGE('',*,*,#212,.F.);
#141=ORIENTED_EDGE('',*,*,#215,.F.);
#142=ORIENTED_EDGE('',*,*,#214,.T.);
#143=ORIENTED_EDGE('',*,*,#215,.T.);
#144=ORIENTED_EDGE('',*,*,#216,.F.);
#145=ORIENTED_EDGE('',*,*,#213,.T.);
#146=ORIENTED_EDGE('',*,*,#216,.T.);
#147=ORIENTED_EDGE('',*,*,#217,.T.);
#148=ORIENTED_EDGE('',*,*,#218,.T.);
#149=ORIENTED_EDGE('',*,*,#219,.T.);
#150=ORIENTED_EDGE('',*,*,#220,.F.);
#151=ORIENTED_EDGE('',*,*,#221,.F.);
#152=ORIENTED_EDGE('',*,*,#219,.F.);
#153=ORIENTED_EDGE('',*,*,#222,.F.);
#154=ORIENTED_EDGE('',*,*,#223,.T.);
#155=ORIENTED_EDGE('',*,*,#224,.T.);
#156=ORIENTED_EDGE('',*,*,#225,.T.);
#157=ORIENTED_EDGE('',*,*,#225,.F.);
#158=ORIENTED_EDGE('',*,*,#226,.F.);
#159=ORIENTED_EDGE('',*,*,#227,.F.);
#160=ORIENTED_EDGE('',*,*,#228,.T.);
#161=ORIENTED_EDGE('',*,*,#228,.F.);
#162=ORIENTED_EDGE('',*,*,#229,.F.);
#163=ORIENTED_EDGE('',*,*,#230,.T.);
#164=ORIENTED_EDGE('',*,*,#222,.T.);
#165=ORIENTED_EDGE('',*,*,#227,.T.);
#166=ORIENTED_EDGE('',*,*,#231,.F.);
#167=ORIENTED_EDGE('',*,*,#232,.F.);
#168=ORIENTED_EDGE('',*,*,#229,.T.);
#169=ORIENTED_EDGE('',*,*,#226,.T.);
#170=ORIENTED_EDGE('',*,*,#224,.F.);
#171=ORIENTED_EDGE('',*,*,#233,.F.);
#172=ORIENTED_EDGE('',*,*,#231,.T.);
#173=ORIENTED_EDGE('',*,*,#230,.F.);
#174=ORIENTED_EDGE('',*,*,#232,.T.);
#175=ORIENTED_EDGE('',*,*,#233,.T.);
#176=ORIENTED_EDGE('',*,*,#223,.F.);
#177=ORIENTED_EDGE('',*,*,#234,.T.);
#178=ORIENTED_EDGE('',*,*,#218,.F.);
#179=ORIENTED_EDGE('',*,*,#234,.F.);
#180=ORIENTED_EDGE('',*,*,#235,.T.);
#181=ORIENTED_EDGE('',*,*,#217,.F.);
#182=ORIENTED_EDGE('',*,*,#235,.F.);
#183=ORIENTED_EDGE('',*,*,#236,.F.);
#184=ORIENTED_EDGE('',*,*,#220,.T.);
#185=ORIENTED_EDGE('',*,*,#236,.T.);
#186=ORIENTED_EDGE('',*,*,#237,.F.);
#187=ORIENTED_EDGE('',*,*,#221,.T.);
#188=ORIENTED_EDGE('',*,*,#237,.T.);
#189=EDGE_CURVE('',#238,#238,#283,.T.);
#190=EDGE_CURVE('',#239,#239,#284,.T.);
#191=EDGE_CURVE('',#240,#240,#285,.T.);
#192=EDGE_CURVE('',#241,#241,#286,.T.);
#193=EDGE_CURVE('',#242,#242,#287,.T.);
#194=EDGE_CURVE('',#243,#243,#288,.T.);
#195=EDGE_CURVE('',#244,#244,#289,.T.);
#196=EDGE_CURVE('',#245,#245,#290,.T.);
#197=EDGE_CURVE('',#246,#246,#291,.T.);
#198=EDGE_CURVE('',#247,#247,#292,.T.);
#199=EDGE_CURVE('',#248,#248,#293,.T.);
#200=EDGE_CURVE('',#249,#249,#294,.T.);
#201=EDGE_CURVE('',#250,#250,#295,.T.);
#202=EDGE_CURVE('',#251,#251,#296,.T.);
#203=EDGE_CURVE('',#252,#252,#297,.T.);
#204=EDGE_CURVE('',#253,#253,#298,.T.);
#205=EDGE_CURVE('',#254,#254,#299,.T.);
#206=EDGE_CURVE('',#255,#255,#300,.T.);
#207=EDGE_CURVE('',#256,#256,#301,.T.);
#208=EDGE_CURVE('',#257,#257,#302,.T.);
#209=EDGE_CURVE('',#258,#258,#303,.T.);
#210=EDGE_CURVE('',#259,#259,#304,.T.);
#211=EDGE_CURVE('',#260,#260,#305,.T.);
#212=EDGE_CURVE('',#261,#261,#306,.T.);
#213=EDGE_CURVE('',#262,#262,#307,.T.);
#214=EDGE_CURVE('',#263,#263,#308,.T.);
#215=EDGE_CURVE('',#264,#264,#309,.T.);
#216=EDGE_CURVE('',#265,#265,#310,.T.);
#217=EDGE_CURVE('',#266,#266,#311,.T.);
#218=EDGE_CURVE('',#267,#267,#312,.T.);
#219=EDGE_CURVE('',#268,#268,#313,.T.);
#220=EDGE_CURVE('',#269,#269,#314,.T.);
#221=EDGE_CURVE('',#270,#270,#315,.T.);
#222=EDGE_CURVE('',#271,#272,#10,.T.);
#223=EDGE_CURVE('',#271,#273,#316,.T.);
#224=EDGE_CURVE('',#273,#274,#11,.T.);
#225=EDGE_CURVE('',#274,#272,#317,.T.);
#226=EDGE_CURVE('',#275,#274,#12,.T.);
#227=EDGE_CURVE('',#276,#275,#318,.T.);
#228=EDGE_CURVE('',#276,#272,#13,.T.);
#229=EDGE_CURVE('',#277,#276,#14,.T.);
#230=EDGE_CURVE('',#277,#271,#15,.T.);
#231=EDGE_CURVE('',#278,#275,#16,.T.);
#232=EDGE_CURVE('',#277,#278,#319,.T.);
#233=EDGE_CURVE('',#278,#273,#17,.T.);
#234=EDGE_CURVE('',#279,#279,#320,.T.);
#235=EDGE_CURVE('',#280,#280,#321,.T.);
#236=EDGE_CURVE('',#281,#281,#322,.T.);
#237=EDGE_CURVE('',#282,#282,#323,.T.);
#238=VERTEX_POINT('',#921);
#239=VERTEX_POINT('',#923);
#240=VERTEX_POINT('',#926);
#241=VERTEX_POINT('',#929);
#242=VERTEX_POINT('',#932);
#243=VERTEX_POINT('',#936);
#244=VERTEX_POINT('',#941);
#245=VERTEX_POINT('',#943);
#246=VERTEX_POINT('',#946);
#247=VERTEX_POINT('',#949);
#248=VERTEX_POINT('',#952);
#249=VERTEX_POINT('',#956);
#250=VERTEX_POINT('',#961);
#251=VERTEX_POINT('',#963);
#252=VERTEX_POINT('',#966);
#253=VERTEX_POINT('',#970);
#254=VERTEX_POINT('',#975);
#255=VERTEX_POINT('',#977);
#256=VERTEX_POINT('',#980);
#257=VERTEX_POINT('',#983);
#258=VERTEX_POINT('',#986);
#259=VERTEX_POINT('',#990);
#260=VERTEX_POINT('',#995);
#261=VERTEX_POINT('',#997);
#262=VERTEX_POINT('',#1000);
#263=VERTEX_POINT('',#1003);
#264=VERTEX_POINT('',#1006);
#265=VERTEX_POINT('',#1010);
#266=VERTEX_POINT('',#1015);
#267=VERTEX_POINT('',#1017);
#268=VERTEX_POINT('',#1019);
#269=VERTEX_POINT('',#1021);
#270=VERTEX_POINT('',#1023);
#271=VERTEX_POINT('',#1026);
#272=VERTEX_POINT('',#1027);
#273=VERTEX_POINT('',#1029);
#274=VERTEX_POINT('',#1031);
#275=VERTEX_POINT('',#1035);
#276=VERTEX_POINT('',#1037);
#277=VERTEX_POINT('',#1041);
#278=VERTEX_POINT('',#1045);
#279=VERTEX_POINT('',#1052);
#280=VERTEX_POINT('',#1056);
#281=VERTEX_POINT('',#1060);
#282=VERTEX_POINT('',#1064);
#283=CIRCLE('',#624,0.001145);
#284=CIRCLE('',#625,0.001145);
#285=CIRCLE('',#627,0.000793411210240048);
#286=CIRCLE('',#629,0.000915);
#287=CIRCLE('',#631,0.000915);
#288=CIRCLE('',#634,0.000793411210240048);
#289=CIRCLE('',#638,0.001145);
#290=CIRCLE('',#639,0.001145);
#291=CIRCLE('',#641,0.000793411210240048);
#292=CIRCLE('',#643,0.000915);
#293=CIRCLE('',#645,0.000915);
#294=CIRCLE('',#648,0.000793411210240048);
#295=CIRCLE('',#652,0.0065);
#296=CIRCLE('',#653,0.0065);
#297=CIRCLE('',#655,0.0045);
#298=CIRCLE('',#658,0.0045);
#299=CIRCLE('',#662,0.001145);
#300=CIRCLE('',#663,0.001145);
#301=CIRCLE('',#665,0.000793411210240048);
#302=CIRCLE('',#667,0.000915);
#303=CIRCLE('',#669,0.000915);
#304=CIRCLE('',#672,0.000793411210240048);
#305=CIRCLE('',#676,0.001145);
#306=CIRCLE('',#677,0.001145);
#307=CIRCLE('',#679,0.000793411210240048);
#308=CIRCLE('',#681,0.000915);
#309=CIRCLE('',#683,0.000915);
#310=CIRCLE('',#686,0.000793411210240048);
#311=CIRCLE('',#690,0.00032);
#312=CIRCLE('',#691,0.00032);
#313=CIRCLE('',#692,0.00725);
#314=CIRCLE('',#693,0.00032);
#315=CIRCLE('',#694,0.00032);
#316=CIRCLE('',#696,0.00725);
#317=CIRCLE('',#697,0.00725);
#318=CIRCLE('',#699,0.0085);
#319=CIRCLE('',#702,0.0085);
#320=CIRCLE('',#706,0.00032);
#321=CIRCLE('',#709,0.00032);
#322=CIRCLE('',#712,0.00032);
#323=CIRCLE('',#715,0.00032);
#324=EDGE_LOOP('',(#91));
#325=EDGE_LOOP('',(#92));
#326=EDGE_LOOP('',(#93));
#327=EDGE_LOOP('',(#94));
#328=EDGE_LOOP('',(#95));
#329=EDGE_LOOP('',(#96));
#330=EDGE_LOOP('',(#97));
#331=EDGE_LOOP('',(#98));
#332=EDGE_LOOP('',(#99));
#333=EDGE_LOOP('',(#100));
#334=EDGE_LOOP('',(#101));
#335=EDGE_LOOP('',(#102));
#336=EDGE_LOOP('',(#103));
#337=EDGE_LOOP('',(#104));
#338=EDGE_LOOP('',(#105));
#339=EDGE_LOOP('',(#106));
#340=EDGE_LOOP('',(#107));
#341=EDGE_LOOP('',(#108));
#342=EDGE_LOOP('',(#109));
#343=EDGE_LOOP('',(#110));
#344=EDGE_LOOP('',(#111));
#345=EDGE_LOOP('',(#112));
#346=EDGE_LOOP('',(#113));
#347=EDGE_LOOP('',(#114));
#348=EDGE_LOOP('',(#115));
#349=EDGE_LOOP('',(#116));
#350=EDGE_LOOP('',(#117));
#351=EDGE_LOOP('',(#118));
#352=EDGE_LOOP('',(#119));
#353=EDGE_LOOP('',(#120));
#354=EDGE_LOOP('',(#121));
#355=EDGE_LOOP('',(#122));
#356=EDGE_LOOP('',(#123));
#357=EDGE_LOOP('',(#124));
#358=EDGE_LOOP('',(#125));
#359=EDGE_LOOP('',(#126));
#360=EDGE_LOOP('',(#127));
#361=EDGE_LOOP('',(#128));
#362=EDGE_LOOP('',(#129));
#363=EDGE_LOOP('',(#130));
#364=EDGE_LOOP('',(#131));
#365=EDGE_LOOP('',(#132));
#366=EDGE_LOOP('',(#133));
#367=EDGE_LOOP('',(#134));
#368=EDGE_LOOP('',(#135));
#369=EDGE_LOOP('',(#136));
#370=EDGE_LOOP('',(#137));
#371=EDGE_LOOP('',(#138));
#372=EDGE_LOOP('',(#139));
#373=EDGE_LOOP('',(#140));
#374=EDGE_LOOP('',(#141));
#375=EDGE_LOOP('',(#142));
#376=EDGE_LOOP('',(#143));
#377=EDGE_LOOP('',(#144));
#378=EDGE_LOOP('',(#145));
#379=EDGE_LOOP('',(#146));
#380=EDGE_LOOP('',(#147));
#381=EDGE_LOOP('',(#148));
#382=EDGE_LOOP('',(#149));
#383=EDGE_LOOP('',(#150));
#384=EDGE_LOOP('',(#151));
#385=EDGE_LOOP('',(#152));
#386=EDGE_LOOP('',(#153,#154,#155,#156));
#387=EDGE_LOOP('',(#157,#158,#159,#160));
#388=EDGE_LOOP('',(#161,#162,#163,#164));
#389=EDGE_LOOP('',(#165,#166,#167,#168));
#390=EDGE_LOOP('',(#169,#170,#171,#172));
#391=EDGE_LOOP('',(#173,#174,#175,#176));
#392=EDGE_LOOP('',(#177));
#393=EDGE_LOOP('',(#178));
#394=EDGE_LOOP('',(#179));
#395=EDGE_LOOP('',(#180));
#396=EDGE_LOOP('',(#181));
#397=EDGE_LOOP('',(#182));
#398=EDGE_LOOP('',(#183));
#399=EDGE_LOOP('',(#184));
#400=EDGE_LOOP('',(#185));
#401=EDGE_LOOP('',(#186));
#402=EDGE_LOOP('',(#187));
#403=EDGE_LOOP('',(#188));
#404=FACE_BOUND('',#324,.T.);
#405=FACE_BOUND('',#325,.T.);
#406=FACE_BOUND('',#326,.T.);
#407=FACE_BOUND('',#327,.T.);
#408=FACE_BOUND('',#328,.T.);
#409=FACE_BOUND('',#329,.T.);
#410=FACE_BOUND('',#330,.T.);
#411=FACE_BOUND('',#331,.T.);
#412=FACE_BOUND('',#332,.T.);
#413=FACE_BOUND('',#333,.T.);
#414=FACE_BOUND('',#334,.T.);
#415=FACE_BOUND('',#335,.T.);
#416=FACE_BOUND('',#336,.T.);
#417=FACE_BOUND('',#337,.T.);
#418=FACE_BOUND('',#338,.T.);
#419=FACE_BOUND('',#339,.T.);
#420=FACE_BOUND('',#340,.T.);
#421=FACE_BOUND('',#341,.T.);
#422=FACE_BOUND('',#342,.T.);
#423=FACE_BOUND('',#343,.T.);
#424=FACE_BOUND('',#344,.T.);
#425=FACE_BOUND('',#345,.T.);
#426=FACE_BOUND('',#346,.T.);
#427=FACE_BOUND('',#347,.T.);
#428=FACE_BOUND('',#348,.T.);
#429=FACE_BOUND('',#349,.T.);
#430=FACE_BOUND('',#350,.T.);
#431=FACE_BOUND('',#351,.T.);
#432=FACE_BOUND('',#352,.T.);
#433=FACE_BOUND('',#353,.T.);
#434=FACE_BOUND('',#354,.T.);
#435=FACE_BOUND('',#355,.T.);
#436=FACE_BOUND('',#356,.T.);
#437=FACE_BOUND('',#357,.T.);
#438=FACE_BOUND('',#358,.T.);
#439=FACE_BOUND('',#359,.T.);
#440=FACE_BOUND('',#360,.T.);
#441=FACE_BOUND('',#361,.T.);
#442=FACE_BOUND('',#362,.T.);
#443=FACE_BOUND('',#363,.T.);
#444=FACE_BOUND('',#364,.T.);
#445=FACE_BOUND('',#365,.T.);
#446=FACE_BOUND('',#366,.T.);
#447=FACE_BOUND('',#367,.T.);
#448=FACE_BOUND('',#368,.T.);
#449=FACE_BOUND('',#369,.T.);
#450=FACE_BOUND('',#370,.T.);
#451=FACE_BOUND('',#371,.T.);
#452=FACE_BOUND('',#372,.T.);
#453=FACE_BOUND('',#373,.T.);
#454=FACE_BOUND('',#374,.T.);
#455=FACE_BOUND('',#375,.T.);
#456=FACE_BOUND('',#376,.T.);
#457=FACE_BOUND('',#377,.T.);
#458=FACE_BOUND('',#378,.T.);
#459=FACE_BOUND('',#379,.T.);
#460=FACE_BOUND('',#380,.T.);
#461=FACE_BOUND('',#381,.T.);
#462=FACE_BOUND('',#382,.T.);
#463=FACE_BOUND('',#383,.T.);
#464=FACE_BOUND('',#384,.T.);
#465=FACE_BOUND('',#385,.T.);
#466=FACE_BOUND('',#386,.T.);
#467=FACE_BOUND('',#387,.T.);
#468=FACE_BOUND('',#388,.T.);
#469=FACE_BOUND('',#389,.T.);
#470=FACE_BOUND('',#390,.T.);
#471=FACE_BOUND('',#391,.T.);
#472=FACE_BOUND('',#392,.T.);
#473=FACE_BOUND('',#393,.T.);
#474=FACE_BOUND('',#394,.T.);
#475=FACE_BOUND('',#395,.T.);
#476=FACE_BOUND('',#396,.T.);
#477=FACE_BOUND('',#397,.T.);
#478=FACE_BOUND('',#398,.T.);
#479=FACE_BOUND('',#399,.T.);
#480=FACE_BOUND('',#400,.T.);
#481=FACE_BOUND('',#401,.T.);
#482=FACE_BOUND('',#402,.T.);
#483=FACE_BOUND('',#403,.T.);
#484=CYLINDRICAL_SURFACE('',#623,0.001145);
#485=CYLINDRICAL_SURFACE('',#630,0.000915);
#486=CYLINDRICAL_SURFACE('',#633,0.000793411210240048);
#487=CYLINDRICAL_SURFACE('',#637,0.001145);
#488=CYLINDRICAL_SURFACE('',#644,0.000915);
#489=CYLINDRICAL_SURFACE('',#647,0.000793411210240048);
#490=CYLINDRICAL_SURFACE('',#651,0.0065);
#491=CYLINDRICAL_SURFACE('',#657,0.0045);
#492=CYLINDRICAL_SURFACE('',#661,0.001145);
#493=CYLINDRICAL_SURFACE('',#668,0.000915);
#494=CYLINDRICAL_SURFACE('',#671,0.000793411210240048);
#495=CYLINDRICAL_SURFACE('',#675,0.001145);
#496=CYLINDRICAL_SURFACE('',#682,0.000915);
#497=CYLINDRICAL_SURFACE('',#685,0.000793411210240048);
#498=CYLINDRICAL_SURFACE('',#695,0.00725);
#499=CYLINDRICAL_SURFACE('',#701,0.0085);
#500=CYLINDRICAL_SURFACE('',#705,0.00032);
#501=CYLINDRICAL_SURFACE('',#708,0.00032);
#502=CYLINDRICAL_SURFACE('',#711,0.00032);
#503=CYLINDRICAL_SURFACE('',#714,0.00032);
#504=ADVANCED_FACE('',(#404,#405),#484,.T.);
#505=ADVANCED_FACE('',(#406,#407),#63,.T.);
#506=ADVANCED_FACE('',(#408,#409),#64,.F.);
#507=ADVANCED_FACE('',(#410,#411),#485,.T.);
#508=ADVANCED_FACE('',(#412),#65,.T.);
#509=ADVANCED_FACE('',(#413,#414),#486,.F.);
#510=ADVANCED_FACE('',(#415),#66,.T.);
#511=ADVANCED_FACE('',(#416,#417),#487,.T.);
#512=ADVANCED_FACE('',(#418,#419),#67,.T.);
#513=ADVANCED_FACE('',(#420,#421),#68,.F.);
#514=ADVANCED_FACE('',(#422,#423),#488,.T.);
#515=ADVANCED_FACE('',(#424),#69,.T.);
#516=ADVANCED_FACE('',(#425,#426),#489,.F.);
#517=ADVANCED_FACE('',(#427),#70,.T.);
#518=ADVANCED_FACE('',(#428,#429),#490,.T.);
#519=ADVANCED_FACE('',(#430,#431),#71,.F.);
#520=ADVANCED_FACE('',(#432),#72,.T.);
#521=ADVANCED_FACE('',(#433,#434),#491,.F.);
#522=ADVANCED_FACE('',(#435),#73,.T.);
#523=ADVANCED_FACE('',(#436,#437),#492,.T.);
#524=ADVANCED_FACE('',(#438,#439),#74,.T.);
#525=ADVANCED_FACE('',(#440,#441),#75,.F.);
#526=ADVANCED_FACE('',(#442,#443),#493,.T.);
#527=ADVANCED_FACE('',(#444),#76,.T.);
#528=ADVANCED_FACE('',(#445,#446),#494,.F.);
#529=ADVANCED_FACE('',(#447),#77,.T.);
#530=ADVANCED_FACE('',(#448,#449),#495,.T.);
#531=ADVANCED_FACE('',(#450,#451),#78,.T.);
#532=ADVANCED_FACE('',(#452,#453),#79,.F.);
#533=ADVANCED_FACE('',(#454,#455),#496,.T.);
#534=ADVANCED_FACE('',(#456),#80,.T.);
#535=ADVANCED_FACE('',(#457,#458),#497,.F.);
#536=ADVANCED_FACE('',(#459),#81,.T.);
#537=ADVANCED_FACE('',(#460,#461,#462,#463,#464),#82,.T.);
#538=ADVANCED_FACE('',(#465,#466),#498,.T.);
#539=ADVANCED_FACE('',(#467),#83,.F.);
#540=ADVANCED_FACE('',(#468),#84,.T.);
#541=ADVANCED_FACE('',(#469),#499,.T.);
#542=ADVANCED_FACE('',(#470),#85,.F.);
#543=ADVANCED_FACE('',(#471),#86,.T.);
#544=ADVANCED_FACE('',(#472,#473),#500,.T.);
#545=ADVANCED_FACE('',(#474),#87,.T.);
#546=ADVANCED_FACE('',(#475,#476),#501,.T.);
#547=ADVANCED_FACE('',(#477),#88,.T.);
#548=ADVANCED_FACE('',(#478,#479),#502,.T.);
#549=ADVANCED_FACE('',(#480),#89,.T.);
#550=ADVANCED_FACE('',(#481,#482),#503,.T.);
#551=ADVANCED_FACE('',(#483),#90,.T.);
#552=CLOSED_SHELL('',(#504,#505,#506,#507,#508,#509,#510));
#553=CLOSED_SHELL('',(#511,#512,#513,#514,#515,#516,#517));
#554=CLOSED_SHELL('',(#518,#519,#520,#521,#522));
#555=CLOSED_SHELL('',(#523,#524,#525,#526,#527,#528,#529));
#556=CLOSED_SHELL('',(#530,#531,#532,#533,#534,#535,#536));
#557=CLOSED_SHELL('',(#537,#538,#539,#540,#541,#542,#543,#544,#545,#546,
#547,#548,#549,#550,#551));
#558=STYLED_ITEM('',(#564),#602);
#559=STYLED_ITEM('',(#565),#603);
#560=STYLED_ITEM('',(#566),#604);
#561=STYLED_ITEM('',(#567),#605);
#562=STYLED_ITEM('',(#568),#606);
#563=STYLED_ITEM('',(#569),#607);
#564=PRESENTATION_STYLE_ASSIGNMENT((#570));
#565=PRESENTATION_STYLE_ASSIGNMENT((#571));
#566=PRESENTATION_STYLE_ASSIGNMENT((#572));
#567=PRESENTATION_STYLE_ASSIGNMENT((#573));
#568=PRESENTATION_STYLE_ASSIGNMENT((#574));
#569=PRESENTATION_STYLE_ASSIGNMENT((#575));
#570=SURFACE_STYLE_USAGE(.BOTH.,#576);
#571=SURFACE_STYLE_USAGE(.BOTH.,#577);
#572=SURFACE_STYLE_USAGE(.BOTH.,#578);
#573=SURFACE_STYLE_USAGE(.BOTH.,#579);
#574=SURFACE_STYLE_USAGE(.BOTH.,#580);
#575=SURFACE_STYLE_USAGE(.BOTH.,#581);
#576=SURFACE_SIDE_STYLE('',(#582));
#577=SURFACE_SIDE_STYLE('',(#583));
#578=SURFACE_SIDE_STYLE('',(#584));
#579=SURFACE_SIDE_STYLE('',(#585));
#580=SURFACE_SIDE_STYLE('',(#586));
#581=SURFACE_SIDE_STYLE('',(#587));
#582=SURFACE_STYLE_FILL_AREA(#588);
#583=SURFACE_STYLE_FILL_AREA(#589);
#584=SURFACE_STYLE_FILL_AREA(#590);
#585=SURFACE_STYLE_FILL_AREA(#591);
#586=SURFACE_STYLE_FILL_AREA(#592);
#587=SURFACE_STYLE_FILL_AREA(#593);
#588=FILL_AREA_STYLE('',(#594));
#589=FILL_AREA_STYLE('',(#595));
#590=FILL_AREA_STYLE('',(#596));
#591=FILL_AREA_STYLE('',(#597));
#592=FILL_AREA_STYLE('',(#598));
#593=FILL_AREA_STYLE('',(#599));
#594=FILL_AREA_STYLE_COLOUR('',#600);
#595=FILL_AREA_STYLE_COLOUR('',#600);
#596=FILL_AREA_STYLE_COLOUR('',#601);
#597=FILL_AREA_STYLE_COLOUR('',#600);
#598=FILL_AREA_STYLE_COLOUR('',#600);
#599=FILL_AREA_STYLE_COLOUR('',#26);
#600=COLOUR_RGB('',0.615686274509804,0.811764705882353,0.929411764705882);
#601=COLOUR_RGB('',0.917647058823529,0.917647058823529,0.917647058823529);
#602=MANIFOLD_SOLID_BREP('Part 2',#552);
#603=MANIFOLD_SOLID_BREP('Part 3',#553);
#604=MANIFOLD_SOLID_BREP('Part 2',#554);
#605=MANIFOLD_SOLID_BREP('Part 1',#555);
#606=MANIFOLD_SOLID_BREP('Part 4',#556);
#607=MANIFOLD_SOLID_BREP('Part 1',#557);
#608=SHAPE_DEFINITION_REPRESENTATION(#1085,#615);
#609=SHAPE_DEFINITION_REPRESENTATION(#1086,#616);
#610=SHAPE_DEFINITION_REPRESENTATION(#1088,#617);
#611=SHAPE_DEFINITION_REPRESENTATION(#1090,#618);
#612=SHAPE_DEFINITION_REPRESENTATION(#1092,#619);
#613=SHAPE_DEFINITION_REPRESENTATION(#1094,#620);
#614=SHAPE_DEFINITION_REPRESENTATION(#1096,#621);
#615=SHAPE_REPRESENTATION('0294-0-15-80-06-80-10-0_co-d4',(#622,#636,#650,
#660,#674,#688,#717),#1068);
#616=SHAPE_REPRESENTATION('Part 2',(#622),#1069);
#617=SHAPE_REPRESENTATION('Part 3',(#622),#1070);
#618=SHAPE_REPRESENTATION('Part 2',(#622),#1071);
#619=SHAPE_REPRESENTATION('Part 1',(#622),#1072);
#620=SHAPE_REPRESENTATION('Part 4',(#622),#1073);
#621=SHAPE_REPRESENTATION('Part 1',(#622),#1074);
#622=AXIS2_PLACEMENT_3D('',#918,#718,#719);
#623=AXIS2_PLACEMENT_3D('',#919,#720,#721);
#624=AXIS2_PLACEMENT_3D('',#920,#722,#723);
#625=AXIS2_PLACEMENT_3D('',#922,#724,#725);
#626=AXIS2_PLACEMENT_3D('',#924,#726,#727);
#627=AXIS2_PLACEMENT_3D('',#925,#728,#729);
#628=AXIS2_PLACEMENT_3D('',#927,#730,#731);
#629=AXIS2_PLACEMENT_3D('',#928,#732,#733);
#630=AXIS2_PLACEMENT_3D('',#930,#734,#735);
#631=AXIS2_PLACEMENT_3D('',#931,#736,#737);
#632=AXIS2_PLACEMENT_3D('',#933,#738,#739);
#633=AXIS2_PLACEMENT_3D('',#934,#740,#741);
#634=AXIS2_PLACEMENT_3D('',#935,#742,#743);
#635=AXIS2_PLACEMENT_3D('',#937,#744,#745);
#636=AXIS2_PLACEMENT_3D('',#938,#746,#747);
#637=AXIS2_PLACEMENT_3D('',#939,#748,#749);
#638=AXIS2_PLACEMENT_3D('',#940,#750,#751);
#639=AXIS2_PLACEMENT_3D('',#942,#752,#753);
#640=AXIS2_PLACEMENT_3D('',#944,#754,#755);
#641=AXIS2_PLACEMENT_3D('',#945,#756,#757);
#642=AXIS2_PLACEMENT_3D('',#947,#758,#759);
#643=AXIS2_PLACEMENT_3D('',#948,#760,#761);
#644=AXIS2_PLACEMENT_3D('',#950,#762,#763);
#645=AXIS2_PLACEMENT_3D('',#951,#764,#765);
#646=AXIS2_PLACEMENT_3D('',#953,#766,#767);
#647=AXIS2_PLACEMENT_3D('',#954,#768,#769);
#648=AXIS2_PLACEMENT_3D('',#955,#770,#771);
#649=AXIS2_PLACEMENT_3D('',#957,#772,#773);
#650=AXIS2_PLACEMENT_3D('',#958,#774,#775);
#651=AXIS2_PLACEMENT_3D('',#959,#776,#777);
#652=AXIS2_PLACEMENT_3D('',#960,#778,#779);
#653=AXIS2_PLACEMENT_3D('',#962,#780,#781);
#654=AXIS2_PLACEMENT_3D('',#964,#782,#783);
#655=AXIS2_PLACEMENT_3D('',#965,#784,#785);
#656=AXIS2_PLACEMENT_3D('',#967,#786,#787);
#657=AXIS2_PLACEMENT_3D('',#968,#788,#789);
#658=AXIS2_PLACEMENT_3D('',#969,#790,#791);
#659=AXIS2_PLACEMENT_3D('',#971,#792,#793);
#660=AXIS2_PLACEMENT_3D('',#972,#794,#795);
#661=AXIS2_PLACEMENT_3D('',#973,#796,#797);
#662=AXIS2_PLACEMENT_3D('',#974,#798,#799);
#663=AXIS2_PLACEMENT_3D('',#976,#800,#801);
#664=AXIS2_PLACEMENT_3D('',#978,#802,#803);
#665=AXIS2_PLACEMENT_3D('',#979,#804,#805);
#666=AXIS2_PLACEMENT_3D('',#981,#806,#807);
#667=AXIS2_PLACEMENT_3D('',#982,#808,#809);
#668=AXIS2_PLACEMENT_3D('',#984,#810,#811);
#669=AXIS2_PLACEMENT_3D('',#985,#812,#813);
#670=AXIS2_PLACEMENT_3D('',#987,#814,#815);
#671=AXIS2_PLACEMENT_3D('',#988,#816,#817);
#672=AXIS2_PLACEMENT_3D('',#989,#818,#819);
#673=AXIS2_PLACEMENT_3D('',#991,#820,#821);
#674=AXIS2_PLACEMENT_3D('',#992,#822,#823);
#675=AXIS2_PLACEMENT_3D('',#993,#824,#825);
#676=AXIS2_PLACEMENT_3D('',#994,#826,#827);
#677=AXIS2_PLACEMENT_3D('',#996,#828,#829);
#678=AXIS2_PLACEMENT_3D('',#998,#830,#831);
#679=AXIS2_PLACEMENT_3D('',#999,#832,#833);
#680=AXIS2_PLACEMENT_3D('',#1001,#834,#835);
#681=AXIS2_PLACEMENT_3D('',#1002,#836,#837);
#682=AXIS2_PLACEMENT_3D('',#1004,#838,#839);
#683=AXIS2_PLACEMENT_3D('',#1005,#840,#841);
#684=AXIS2_PLACEMENT_3D('',#1007,#842,#843);
#685=AXIS2_PLACEMENT_3D('',#1008,#844,#845);
#686=AXIS2_PLACEMENT_3D('',#1009,#846,#847);
#687=AXIS2_PLACEMENT_3D('',#1011,#848,#849);
#688=AXIS2_PLACEMENT_3D('',#1012,#850,#851);
#689=AXIS2_PLACEMENT_3D('',#1013,#852,#853);
#690=AXIS2_PLACEMENT_3D('',#1014,#854,#855);
#691=AXIS2_PLACEMENT_3D('',#1016,#856,#857);
#692=AXIS2_PLACEMENT_3D('',#1018,#858,#859);
#693=AXIS2_PLACEMENT_3D('',#1020,#860,#861);
#694=AXIS2_PLACEMENT_3D('',#1022,#862,#863);
#695=AXIS2_PLACEMENT_3D('',#1024,#864,#865);
#696=AXIS2_PLACEMENT_3D('',#1028,#867,#868);
#697=AXIS2_PLACEMENT_3D('',#1032,#870,#871);
#698=AXIS2_PLACEMENT_3D('',#1033,#872,#873);
#699=AXIS2_PLACEMENT_3D('',#1036,#875,#876);
#700=AXIS2_PLACEMENT_3D('',#1039,#878,#879);
#701=AXIS2_PLACEMENT_3D('',#1043,#882,#883);
#702=AXIS2_PLACEMENT_3D('',#1046,#885,#886);
#703=AXIS2_PLACEMENT_3D('',#1047,#887,#888);
#704=AXIS2_PLACEMENT_3D('',#1049,#890,#891);
#705=AXIS2_PLACEMENT_3D('',#1050,#892,#893);
#706=AXIS2_PLACEMENT_3D('',#1051,#894,#895);
#707=AXIS2_PLACEMENT_3D('',#1053,#896,#897);
#708=AXIS2_PLACEMENT_3D('',#1054,#898,#899);
#709=AXIS2_PLACEMENT_3D('',#1055,#900,#901);
#710=AXIS2_PLACEMENT_3D('',#1057,#902,#903);
#711=AXIS2_PLACEMENT_3D('',#1058,#904,#905);
#712=AXIS2_PLACEMENT_3D('',#1059,#906,#907);
#713=AXIS2_PLACEMENT_3D('',#1061,#908,#909);
#714=AXIS2_PLACEMENT_3D('',#1062,#910,#911);
#715=AXIS2_PLACEMENT_3D('',#1063,#912,#913);
#716=AXIS2_PLACEMENT_3D('',#1065,#914,#915);
#717=AXIS2_PLACEMENT_3D('',#1066,#916,#917);
#718=DIRECTION('',(0.,0.,1.));
#719=DIRECTION('',(1.,0.,0.));
#720=DIRECTION('',(0.,0.,-1.));
#721=DIRECTION('',(-1.,0.,0.));
#722=DIRECTION('',(0.,0.,1.));
#723=DIRECTION('',(1.,0.,0.));
#724=DIRECTION('',(0.,0.,1.));
#725=DIRECTION('',(1.,0.,0.));
#726=DIRECTION('',(0.,0.,1.));
#727=DIRECTION('',(1.,0.,0.));
#728=DIRECTION('',(0.,0.,1.));
#729=DIRECTION('',(1.,0.,0.));
#730=DIRECTION('',(0.,0.,1.));
#731=DIRECTION('',(1.,0.,0.));
#732=DIRECTION('',(0.,0.,-1.));
#733=DIRECTION('',(-1.,0.,0.));
#734=DIRECTION('',(0.,0.,1.));
#735=DIRECTION('',(1.,0.,0.));
#736=DIRECTION('',(0.,0.,-1.));
#737=DIRECTION('',(-1.,0.,0.));
#738=DIRECTION('',(0.,0.,-1.));
#739=DIRECTION('',(1.,0.,0.));
#740=DIRECTION('',(0.,0.,1.));
#741=DIRECTION('',(1.,0.,0.));
#742=DIRECTION('',(0.,0.,1.));
#743=DIRECTION('',(1.,0.,0.));
#744=DIRECTION('',(0.,0.,1.));
#745=DIRECTION('',(1.,0.,0.));
#746=DIRECTION('',(0.,0.,1.));
#747=DIRECTION('',(1.,0.,0.));
#748=DIRECTION('',(0.,0.,-1.));
#749=DIRECTION('',(-1.,0.,0.));
#750=DIRECTION('',(0.,0.,1.));
#751=DIRECTION('',(1.,0.,0.));
#752=DIRECTION('',(0.,0.,1.));
#753=DIRECTION('',(1.,0.,0.));
#754=DIRECTION('',(0.,0.,1.));
#755=DIRECTION('',(1.,0.,0.));
#756=DIRECTION('',(0.,0.,1.));
#757=DIRECTION('',(1.,0.,0.));
#758=DIRECTION('',(0.,0.,1.));
#759=DIRECTION('',(1.,0.,0.));
#760=DIRECTION('',(0.,0.,-1.));
#761=DIRECTION('',(-1.,0.,0.));
#762=DIRECTION('',(0.,0.,1.));
#763=DIRECTION('',(1.,0.,0.));
#764=DIRECTION('',(0.,0.,-1.));
#765=DIRECTION('',(-1.,0.,0.));
#766=DIRECTION('',(0.,0.,-1.));
#767=DIRECTION('',(1.,0.,0.));
#768=DIRECTION('',(0.,0.,1.));
#769=DIRECTION('',(1.,0.,0.));
#770=DIRECTION('',(0.,0.,1.));
#771=DIRECTION('',(1.,0.,0.));
#772=DIRECTION('',(0.,0.,1.));
#773=DIRECTION('',(1.,0.,0.));
#774=DIRECTION('',(0.,0.,1.));
#775=DIRECTION('',(1.,0.,0.));
#776=DIRECTION('',(0.,0.,1.));
#777=DIRECTION('',(1.,0.,0.));
#778=DIRECTION('',(0.,0.,1.));
#779=DIRECTION('',(1.,0.,0.));
#780=DIRECTION('',(0.,0.,1.));
#781=DIRECTION('',(1.,0.,0.));
#782=DIRECTION('',(0.,0.,1.));
#783=DIRECTION('',(1.,0.,0.));
#784=DIRECTION('',(0.,0.,-1.));
#785=DIRECTION('',(-1.,0.,0.));
#786=DIRECTION('',(0.,0.,1.));
#787=DIRECTION('',(1.,0.,0.));
#788=DIRECTION('',(0.,0.,-1.));
#789=DIRECTION('',(-1.,0.,0.));
#790=DIRECTION('',(0.,0.,-1.));
#791=DIRECTION('',(-1.,0.,0.));
#792=DIRECTION('',(0.,0.,-1.));
#793=DIRECTION('',(1.,0.,0.));
#794=DIRECTION('',(0.,-2.98372437868013E-16,-1.));
#795=DIRECTION('',(1.,0.,0.));
#796=DIRECTION('',(0.,0.,-1.));
#797=DIRECTION('',(-1.,0.,0.));
#798=DIRECTION('',(0.,0.,1.));
#799=DIRECTION('',(1.,0.,0.));
#800=DIRECTION('',(0.,0.,1.));
#801=DIRECTION('',(1.,0.,0.));
#802=DIRECTION('',(0.,0.,1.));
#803=DIRECTION('',(1.,0.,0.));
#804=DIRECTION('',(0.,0.,1.));
#805=DIRECTION('',(1.,0.,0.));
#806=DIRECTION('',(0.,0.,1.));
#807=DIRECTION('',(1.,0.,0.));
#808=DIRECTION('',(0.,0.,-1.));
#809=DIRECTION('',(-1.,0.,0.));
#810=DIRECTION('',(0.,0.,1.));
#811=DIRECTION('',(1.,0.,0.));
#812=DIRECTION('',(0.,0.,-1.));
#813=DIRECTION('',(-1.,0.,0.));
#814=DIRECTION('',(0.,0.,-1.));
#815=DIRECTION('',(1.,0.,0.));
#816=DIRECTION('',(0.,0.,1.));
#817=DIRECTION('',(1.,0.,0.));
#818=DIRECTION('',(0.,0.,1.));
#819=DIRECTION('',(1.,0.,0.));
#820=DIRECTION('',(0.,0.,1.));
#821=DIRECTION('',(1.,0.,0.));
#822=DIRECTION('',(0.,0.,1.));
#823=DIRECTION('',(1.,0.,0.));
#824=DIRECTION('',(0.,0.,-1.));
#825=DIRECTION('',(-1.,0.,0.));
#826=DIRECTION('',(0.,0.,1.));
#827=DIRECTION('',(1.,0.,0.));
#828=DIRECTION('',(0.,0.,1.));
#829=DIRECTION('',(1.,0.,0.));
#830=DIRECTION('',(0.,0.,1.));
#831=DIRECTION('',(1.,0.,0.));
#832=DIRECTION('',(0.,0.,1.));
#833=DIRECTION('',(1.,0.,0.));
#834=DIRECTION('',(0.,0.,1.));
#835=DIRECTION('',(1.,0.,0.));
#836=DIRECTION('',(0.,0.,-1.));
#837=DIRECTION('',(-1.,0.,0.));
#838=DIRECTION('',(0.,0.,1.));
#839=DIRECTION('',(1.,0.,0.));
#840=DIRECTION('',(0.,0.,-1.));
#841=DIRECTION('',(-1.,0.,0.));
#842=DIRECTION('',(0.,0.,-1.));
#843=DIRECTION('',(1.,0.,0.));
#844=DIRECTION('',(0.,0.,1.));
#845=DIRECTION('',(1.,0.,0.));
#846=DIRECTION('',(0.,0.,1.));
#847=DIRECTION('',(1.,0.,0.));
#848=DIRECTION('',(0.,0.,1.));
#849=DIRECTION('',(1.,0.,0.));
#850=DIRECTION('',(0.,0.,1.));
#851=DIRECTION('',(1.,0.,0.));
#852=DIRECTION('',(0.,0.,1.));
#853=DIRECTION('',(1.,0.,0.));
#854=DIRECTION('',(0.,0.,-1.));
#855=DIRECTION('',(1.,0.,0.));
#856=DIRECTION('',(0.,0.,-1.));
#857=DIRECTION('',(1.,0.,0.));
#858=DIRECTION('',(0.,0.,1.));
#859=DIRECTION('',(1.,0.,0.));
#860=DIRECTION('',(0.,0.,1.));
#861=DIRECTION('',(1.,0.,0.));
#862=DIRECTION('',(0.,0.,1.));
#863=DIRECTION('',(1.,0.,0.));
#864=DIRECTION('',(0.,0.,-1.));
#865=DIRECTION('',(-1.,0.,0.));
#866=DIRECTION('',(0.,0.,-1.));
#867=DIRECTION('',(0.,0.,1.));
#868=DIRECTION('',(1.,0.,0.));
#869=DIRECTION('',(0.,0.,-1.));
#870=DIRECTION('',(0.,0.,1.));
#871=DIRECTION('',(1.,0.,0.));
#872=DIRECTION('',(0.,0.,1.));
#873=DIRECTION('',(1.,0.,0.));
#874=DIRECTION('',(-1.,0.,0.));
#875=DIRECTION('',(0.,0.,1.));
#876=DIRECTION('',(1.,0.,0.));
#877=DIRECTION('',(-1.,0.,0.));
#878=DIRECTION('',(0.,-1.,0.));
#879=DIRECTION('',(0.,0.,-1.));
#880=DIRECTION('',(0.,0.,-1.));
#881=DIRECTION('',(-1.,0.,0.));
#882=DIRECTION('',(0.,0.,-1.));
#883=DIRECTION('',(-1.,0.,0.));
#884=DIRECTION('',(0.,0.,-1.));
#885=DIRECTION('',(0.,0.,1.));
#886=DIRECTION('',(1.,0.,0.));
#887=DIRECTION('',(0.,-1.,0.));
#888=DIRECTION('',(0.,0.,-1.));
#889=DIRECTION('',(-1.,0.,0.));
#890=DIRECTION('',(0.,0.,1.));
#891=DIRECTION('',(1.,0.,0.));
#892=DIRECTION('',(0.,0.,-1.));
#893=DIRECTION('',(-1.,0.,0.));
#894=DIRECTION('',(0.,0.,-1.));
#895=DIRECTION('',(1.,0.,0.));
#896=DIRECTION('',(0.,0.,1.));
#897=DIRECTION('',(1.,0.,0.));
#898=DIRECTION('',(0.,0.,-1.));
#899=DIRECTION('',(-1.,0.,0.));
#900=DIRECTION('',(0.,0.,-1.));
#901=DIRECTION('',(1.,0.,0.));
#902=DIRECTION('',(0.,0.,1.));
#903=DIRECTION('',(1.,0.,0.));
#904=DIRECTION('',(0.,0.,-1.));
#905=DIRECTION('',(-1.,0.,0.));
#906=DIRECTION('',(0.,0.,1.));
#907=DIRECTION('',(1.,0.,0.));
#908=DIRECTION('',(0.,0.,1.));
#909=DIRECTION('',(1.,0.,0.));
#910=DIRECTION('',(0.,0.,-1.));
#911=DIRECTION('',(-1.,0.,0.));
#912=DIRECTION('',(0.,0.,1.));
#913=DIRECTION('',(1.,0.,0.));
#914=DIRECTION('',(0.,0.,1.));
#915=DIRECTION('',(1.,0.,0.));
#916=DIRECTION('',(0.,-2.98372437868011E-16,-1.));
#917=DIRECTION('',(1.,0.,0.));
#918=CARTESIAN_POINT('',(0.,0.,0.));
#919=CARTESIAN_POINT('',(0.00254,7.0111029251186E-20,0.00046));
#920=CARTESIAN_POINT('',(0.00254,7.0111029251186E-20,0.00046));
#921=CARTESIAN_POINT('',(0.003685,7.0111029251186E-20,0.00046));
#922=CARTESIAN_POINT('',(0.00254,7.0111029251186E-20,0.));
#923=CARTESIAN_POINT('',(0.003685,7.0111029251186E-20,0.));
#924=CARTESIAN_POINT('',(0.00254,0.,0.00046));
#925=CARTESIAN_POINT('',(0.00254,1.18693454202591E-19,0.00046));
#926=CARTESIAN_POINT('',(0.00333341121024005,1.18693454202591E-19,0.00046));
#927=CARTESIAN_POINT('',(0.00254,0.,0.));
#928=CARTESIAN_POINT('',(0.00254,-5.60275910609914E-20,0.));
#929=CARTESIAN_POINT('',(0.001625,-5.60275910609914E-20,0.));
#930=CARTESIAN_POINT('',(0.00254,-5.60275910609914E-20,-0.00477));
#931=CARTESIAN_POINT('',(0.00254,-5.60275910609914E-20,-0.00477));
#932=CARTESIAN_POINT('',(0.001625,-5.60275910609914E-20,-0.00477));
#933=CARTESIAN_POINT('',(0.00254,0.,-0.00477));
#934=CARTESIAN_POINT('',(0.00254,1.18693454202591E-19,-0.00354));
#935=CARTESIAN_POINT('',(0.00254,1.18693454202591E-19,-0.00354));
#936=CARTESIAN_POINT('',(0.00333341121024005,1.18693454202591E-19,-0.00354));
#937=CARTESIAN_POINT('',(0.00254,0.,-0.00354));
#938=CARTESIAN_POINT('',(0.,0.,0.));
#939=CARTESIAN_POINT('',(0.00508,7.0111029251186E-20,0.00046));
#940=CARTESIAN_POINT('',(0.00508,7.0111029251186E-20,0.00046));
#941=CARTESIAN_POINT('',(0.006225,7.0111029251186E-20,0.00046));
#942=CARTESIAN_POINT('',(0.00508,7.0111029251186E-20,0.));
#943=CARTESIAN_POINT('',(0.006225,7.0111029251186E-20,0.));
#944=CARTESIAN_POINT('',(0.00508,0.,0.00046));
#945=CARTESIAN_POINT('',(0.00508,1.18693454202591E-19,0.00046));
#946=CARTESIAN_POINT('',(0.00587341121024005,1.18693454202591E-19,0.00046));
#947=CARTESIAN_POINT('',(0.00508,0.,0.));
#948=CARTESIAN_POINT('',(0.00508,-5.60275910609914E-20,0.));
#949=CARTESIAN_POINT('',(0.004165,-5.60275910609914E-20,0.));
#950=CARTESIAN_POINT('',(0.00508,-5.60275910609914E-20,-0.00477));
#951=CARTESIAN_POINT('',(0.00508,-5.60275910609914E-20,-0.00477));
#952=CARTESIAN_POINT('',(0.004165,-5.60275910609914E-20,-0.00477));
#953=CARTESIAN_POINT('',(0.00508,0.,-0.00477));
#954=CARTESIAN_POINT('',(0.00508,1.18693454202591E-19,-0.00354));
#955=CARTESIAN_POINT('',(0.00508,1.18693454202591E-19,-0.00354));
#956=CARTESIAN_POINT('',(0.00587341121024005,1.18693454202591E-19,-0.00354));
#957=CARTESIAN_POINT('',(0.00508,0.,-0.00354));
#958=CARTESIAN_POINT('',(0.,0.,0.));
#959=CARTESIAN_POINT('',(0.,3.9801020972289E-19,-0.0001));
#960=CARTESIAN_POINT('',(0.,3.9801020972289E-19,-0.0001));
#961=CARTESIAN_POINT('',(0.0065,3.9801020972289E-19,-0.0001));
#962=CARTESIAN_POINT('',(0.,3.9801020972289E-19,0.));
#963=CARTESIAN_POINT('',(0.0065,3.9801020972289E-19,0.));
#964=CARTESIAN_POINT('',(5.20417042793042E-18,3.46944695195361E-18,-0.0001));
#965=CARTESIAN_POINT('',(0.,-2.75545529808154E-19,-0.0001));
#966=CARTESIAN_POINT('',(-0.0045,-2.75545529808154E-19,-0.0001));
#967=CARTESIAN_POINT('',(5.20417042793042E-18,3.46944695195361E-18,0.));
#968=CARTESIAN_POINT('',(0.,-2.75545529808154E-19,-9.9E-5));
#969=CARTESIAN_POINT('',(0.,-2.75545529808154E-19,-9.9E-5));
#970=CARTESIAN_POINT('',(-0.0045,-2.75545529808154E-19,-9.9E-5));
#971=CARTESIAN_POINT('',(0.,0.,-9.9E-5));
#972=CARTESIAN_POINT('',(0.00381,-0.00250000016993046,0.00875999650304557));
#973=CARTESIAN_POINT('',(0.,7.0111029251186E-20,0.00046));
#974=CARTESIAN_POINT('',(0.,7.0111029251186E-20,0.00046));
#975=CARTESIAN_POINT('',(0.001145,7.0111029251186E-20,0.00046));
#976=CARTESIAN_POINT('',(0.,7.0111029251186E-20,0.));
#977=CARTESIAN_POINT('',(0.001145,7.0111029251186E-20,0.));
#978=CARTESIAN_POINT('',(0.,0.,0.00046));
#979=CARTESIAN_POINT('',(0.,1.18693454202591E-19,0.00046));
#980=CARTESIAN_POINT('',(0.000793411210240048,1.18693454202591E-19,0.00046));
#981=CARTESIAN_POINT('',(0.,0.,0.));
#982=CARTESIAN_POINT('',(0.,-5.60275910609914E-20,0.));
#983=CARTESIAN_POINT('',(-0.000915,-5.60275910609914E-20,0.));
#984=CARTESIAN_POINT('',(0.,-5.60275910609914E-20,-0.00477));
#985=CARTESIAN_POINT('',(0.,-5.60275910609914E-20,-0.00477));
#986=CARTESIAN_POINT('',(-0.000915,-5.60275910609914E-20,-0.00477));
#987=CARTESIAN_POINT('',(0.,0.,-0.00477));
#988=CARTESIAN_POINT('',(0.,1.18693454202591E-19,-0.00354));
#989=CARTESIAN_POINT('',(0.,1.18693454202591E-19,-0.00354));
#990=CARTESIAN_POINT('',(0.000793411210240048,1.18693454202591E-19,-0.00354));
#991=CARTESIAN_POINT('',(0.,0.,-0.00354));
#992=CARTESIAN_POINT('',(0.,0.,0.));
#993=CARTESIAN_POINT('',(0.00762,7.0111029251186E-20,0.00046));
#994=CARTESIAN_POINT('',(0.00762,7.0111029251186E-20,0.00046));
#995=CARTESIAN_POINT('',(0.008765,7.0111029251186E-20,0.00046));
#996=CARTESIAN_POINT('',(0.00762,7.0111029251186E-20,0.));
#997=CARTESIAN_POINT('',(0.008765,7.0111029251186E-20,0.));
#998=CARTESIAN_POINT('',(0.00762,0.,0.00046));
#999=CARTESIAN_POINT('',(0.00762,1.18693454202591E-19,0.00046));
#1000=CARTESIAN_POINT('',(0.00841341121024005,1.18693454202591E-19,0.00046));
#1001=CARTESIAN_POINT('',(0.00762,0.,0.));
#1002=CARTESIAN_POINT('',(0.00762,-5.60275910609914E-20,0.));
#1003=CARTESIAN_POINT('',(0.006705,-5.60275910609914E-20,0.));
#1004=CARTESIAN_POINT('',(0.00762,-5.60275910609914E-20,-0.00477));
#1005=CARTESIAN_POINT('',(0.00762,-5.60275910609914E-20,-0.00477));
#1006=CARTESIAN_POINT('',(0.006705,-5.60275910609914E-20,-0.00477));
#1007=CARTESIAN_POINT('',(0.00762,0.,-0.00477));
#1008=CARTESIAN_POINT('',(0.00762,1.18693454202591E-19,-0.00354));
#1009=CARTESIAN_POINT('',(0.00762,1.18693454202591E-19,-0.00354));
#1010=CARTESIAN_POINT('',(0.00841341121024005,1.18693454202591E-19,-0.00354));
#1011=CARTESIAN_POINT('',(0.00762,0.,-0.00354));
#1012=CARTESIAN_POINT('',(0.,0.,0.));
#1013=CARTESIAN_POINT('',(0.000625,0.,0.0083));
#1014=CARTESIAN_POINT('',(0.00127,-0.0025,0.0083));
#1015=CARTESIAN_POINT('',(0.00159,-0.0025,0.0083));
#1016=CARTESIAN_POINT('',(0.00381,-0.0025,0.0083));
#1017=CARTESIAN_POINT('',(0.00413,-0.0025,0.0083));
#1018=CARTESIAN_POINT('',(-2.12503625807159E-17,-2.16840434497101E-19,0.0083));
#1019=CARTESIAN_POINT('',(0.00724999999999998,-2.16840434497101E-19,0.0083));
#1020=CARTESIAN_POINT('',(-0.00127,-0.0025,0.0083));
#1021=CARTESIAN_POINT('',(-0.00095,-0.0025,0.0083));
#1022=CARTESIAN_POINT('',(-0.00381,-0.0025,0.0083));
#1023=CARTESIAN_POINT('',(-0.00349,-0.0025,0.0083));
#1024=CARTESIAN_POINT('',(-2.12503625807159E-17,-2.16840434497101E-19,0.0083));
#1025=CARTESIAN_POINT('',(0.00703386629793823,-0.00175705005697867,0.001));
#1026=CARTESIAN_POINT('',(0.00703386629793823,-0.00175705005697867,0.001));
#1027=CARTESIAN_POINT('',(0.00703386629793823,-0.00175705005697867,0.));
#1028=CARTESIAN_POINT('',(-2.12503625807159E-17,-2.16840434497101E-19,0.001));
#1029=CARTESIAN_POINT('',(0.00701184964952313,0.00184294994302133,0.001));
#1030=CARTESIAN_POINT('',(0.00701184964952313,0.00184294994302133,0.001));
#1031=CARTESIAN_POINT('',(0.00701184964952313,0.00184294994302133,0.));
#1032=CARTESIAN_POINT('',(-2.12503625807159E-17,-2.16840434497101E-19,0.));
#1033=CARTESIAN_POINT('',(0.000625,0.,0.));
#1034=CARTESIAN_POINT('',(0.00765482635129596,0.00184294994302133,0.));
#1035=CARTESIAN_POINT('',(0.00829780305306879,0.00184294994302133,0.));
#1036=CARTESIAN_POINT('',(1.82145964977565E-17,6.39679281766448E-18,0.));
#1037=CARTESIAN_POINT('',(0.00831641600073441,-0.00175705005697867,0.));
#1038=CARTESIAN_POINT('',(0.00767514114933632,-0.00175705005697867,0.));
#1039=CARTESIAN_POINT('',(0.00767514114933632,-0.00175705005697867,0.001));
#1040=CARTESIAN_POINT('',(0.00831641600073441,-0.00175705005697867,0.001));
#1041=CARTESIAN_POINT('',(0.00831641600073441,-0.00175705005697867,0.001));
#1042=CARTESIAN_POINT('',(0.00767514114933632,-0.00175705005697867,0.001));
#1043=CARTESIAN_POINT('',(1.82145964977565E-17,6.39679281766448E-18,0.001));
#1044=CARTESIAN_POINT('',(0.00829780305306879,0.00184294994302133,0.001));
#1045=CARTESIAN_POINT('',(0.00829780305306879,0.00184294994302133,0.001));
#1046=CARTESIAN_POINT('',(1.82145964977565E-17,6.39679281766448E-18,0.001));
#1047=CARTESIAN_POINT('',(0.00765482635129596,0.00184294994302133,0.001));
#1048=CARTESIAN_POINT('',(0.00765482635129596,0.00184294994302133,0.001));
#1049=CARTESIAN_POINT('',(0.000625,0.,0.001));
#1050=CARTESIAN_POINT('',(0.00381,-0.0025,0.0123));
#1051=CARTESIAN_POINT('',(0.00381,-0.0025,0.0123));
#1052=CARTESIAN_POINT('',(0.00413,-0.0025,0.0123));
#1053=CARTESIAN_POINT('',(-2.08166817117217E-17,0.,0.0123));
#1054=CARTESIAN_POINT('',(0.00127,-0.0025,0.0123));
#1055=CARTESIAN_POINT('',(0.00127,-0.0025,0.0123));
#1056=CARTESIAN_POINT('',(0.00159,-0.0025,0.0123));
#1057=CARTESIAN_POINT('',(-2.08166817117217E-17,0.,0.0123));
#1058=CARTESIAN_POINT('',(-0.00127,-0.0025,0.0123));
#1059=CARTESIAN_POINT('',(-0.00127,-0.0025,0.0123));
#1060=CARTESIAN_POINT('',(-0.00095,-0.0025,0.0123));
#1061=CARTESIAN_POINT('',(-2.08166817117217E-17,0.,0.0123));
#1062=CARTESIAN_POINT('',(-0.00381,-0.0025,0.0123));
#1063=CARTESIAN_POINT('',(-0.00381,-0.0025,0.0123));
#1064=CARTESIAN_POINT('',(-0.00349,-0.0025,0.0123));
#1065=CARTESIAN_POINT('',(-2.08166817117217E-17,0.,0.0123));
#1066=CARTESIAN_POINT('',(0.00381,-0.00250000016993046,0.00875999650304557));
#1067=MECHANICAL_DESIGN_GEOMETRIC_PRESENTATION_REPRESENTATION('',(#558,
#559,#560,#561,#562,#563),#1068);
#1068=(
GEOMETRIC_REPRESENTATION_CONTEXT(3)
GLOBAL_UNCERTAINTY_ASSIGNED_CONTEXT((#1075))
GLOBAL_UNIT_ASSIGNED_CONTEXT((#1084,#1083,#1082))
REPRESENTATION_CONTEXT('0294-0-15-80-06-80-10-0_co-d4',
'TOP_LEVEL_ASSEMBLY_PART')
);
#1069=(
GEOMETRIC_REPRESENTATION_CONTEXT(3)
GLOBAL_UNCERTAINTY_ASSIGNED_CONTEXT((#1076))
GLOBAL_UNIT_ASSIGNED_CONTEXT((#1084,#1083,#1082))
REPRESENTATION_CONTEXT('Part 2','COMPONENT_PART')
);
#1070=(
GEOMETRIC_REPRESENTATION_CONTEXT(3)
GLOBAL_UNCERTAINTY_ASSIGNED_CONTEXT((#1077))
GLOBAL_UNIT_ASSIGNED_CONTEXT((#1084,#1083,#1082))
REPRESENTATION_CONTEXT('Part 3','COMPONENT_PART')
);
#1071=(
GEOMETRIC_REPRESENTATION_CONTEXT(3)
GLOBAL_UNCERTAINTY_ASSIGNED_CONTEXT((#1078))
GLOBAL_UNIT_ASSIGNED_CONTEXT((#1084,#1083,#1082))
REPRESENTATION_CONTEXT('Part 2','COMPONENT_PART')
);
#1072=(
GEOMETRIC_REPRESENTATION_CONTEXT(3)
GLOBAL_UNCERTAINTY_ASSIGNED_CONTEXT((#1079))
GLOBAL_UNIT_ASSIGNED_CONTEXT((#1084,#1083,#1082))
REPRESENTATION_CONTEXT('Part 1','COMPONENT_PART')
);
#1073=(
GEOMETRIC_REPRESENTATION_CONTEXT(3)
GLOBAL_UNCERTAINTY_ASSIGNED_CONTEXT((#1080))
GLOBAL_UNIT_ASSIGNED_CONTEXT((#1084,#1083,#1082))
REPRESENTATION_CONTEXT('Part 4','COMPONENT_PART')
);
#1074=(
GEOMETRIC_REPRESENTATION_CONTEXT(3)
GLOBAL_UNCERTAINTY_ASSIGNED_CONTEXT((#1081))
GLOBAL_UNIT_ASSIGNED_CONTEXT((#1084,#1083,#1082))
REPRESENTATION_CONTEXT('Part 1','COMPONENT_PART')
);
#1075=UNCERTAINTY_MEASURE_WITH_UNIT(LENGTH_MEASURE(1.E-8),#1084,
'DISTANCE_ACCURACY_VALUE','Maximum Tolerance applied to model');
#1076=UNCERTAINTY_MEASURE_WITH_UNIT(LENGTH_MEASURE(1.E-8),#1084,
'DISTANCE_ACCURACY_VALUE','Maximum Tolerance applied to model');
#1077=UNCERTAINTY_MEASURE_WITH_UNIT(LENGTH_MEASURE(1.E-8),#1084,
'DISTANCE_ACCURACY_VALUE','Maximum Tolerance applied to model');
#1078=UNCERTAINTY_MEASURE_WITH_UNIT(LENGTH_MEASURE(1.E-8),#1084,
'DISTANCE_ACCURACY_VALUE','Maximum Tolerance applied to model');
#1079=UNCERTAINTY_MEASURE_WITH_UNIT(LENGTH_MEASURE(1.E-8),#1084,
'DISTANCE_ACCURACY_VALUE','Maximum Tolerance applied to model');
#1080=UNCERTAINTY_MEASURE_WITH_UNIT(LENGTH_MEASURE(1.E-8),#1084,
'DISTANCE_ACCURACY_VALUE','Maximum Tolerance applied to model');
#1081=UNCERTAINTY_MEASURE_WITH_UNIT(LENGTH_MEASURE(1.E-8),#1084,
'DISTANCE_ACCURACY_VALUE','Maximum Tolerance applied to model');
#1082=(
NAMED_UNIT(*)
SI_UNIT($,.STERADIAN.)
SOLID_ANGLE_UNIT()
);
#1083=(
NAMED_UNIT(*)
PLANE_ANGLE_UNIT()
SI_UNIT($,.RADIAN.)
);
#1084=(
LENGTH_UNIT()
NAMED_UNIT(*)
SI_UNIT($,.METRE.)
);
#1085=PRODUCT_DEFINITION_SHAPE('','',#1098);
#1086=PRODUCT_DEFINITION_SHAPE('','',#1099);
#1087=PRODUCT_DEFINITION_SHAPE(' ','NAUO PRDDFN',#33);
#1088=PRODUCT_DEFINITION_SHAPE('','',#1100);
#1089=PRODUCT_DEFINITION_SHAPE(' ','NAUO PRDDFN',#34);
#1090=PRODUCT_DEFINITION_SHAPE('','',#1101);
#1091=PRODUCT_DEFINITION_SHAPE(' ','NAUO PRDDFN',#35);
#1092=PRODUCT_DEFINITION_SHAPE('','',#1102);
#1093=PRODUCT_DEFINITION_SHAPE(' ','NAUO PRDDFN',#36);
#1094=PRODUCT_DEFINITION_SHAPE('','',#1103);
#1095=PRODUCT_DEFINITION_SHAPE(' ','NAUO PRDDFN',#37);
#1096=PRODUCT_DEFINITION_SHAPE('','',#1104);
#1097=PRODUCT_DEFINITION_SHAPE(' ','NAUO PRDDFN',#38);
#1098=PRODUCT_DEFINITION('','',#1112,#1105);
#1099=PRODUCT_DEFINITION('','',#1113,#1106);
#1100=PRODUCT_DEFINITION('','',#1114,#1107);
#1101=PRODUCT_DEFINITION('','',#1115,#1108);
#1102=PRODUCT_DEFINITION('','',#1116,#1109);
#1103=PRODUCT_DEFINITION('','',#1117,#1110);
#1104=PRODUCT_DEFINITION('','',#1118,#1111);
#1105=PRODUCT_DEFINITION_CONTEXT('',#1148,'design');
#1106=PRODUCT_DEFINITION_CONTEXT('',#1148,'design');
#1107=PRODUCT_DEFINITION_CONTEXT('',#1148,'design');
#1108=PRODUCT_DEFINITION_CONTEXT('',#1148,'design');
#1109=PRODUCT_DEFINITION_CONTEXT('',#1148,'design');
#1110=PRODUCT_DEFINITION_CONTEXT('',#1148,'design');
#1111=PRODUCT_DEFINITION_CONTEXT('',#1148,'design');
#1112=PRODUCT_DEFINITION_FORMATION_WITH_SPECIFIED_SOURCE('','',#1126,
 .NOT_KNOWN.);
#1113=PRODUCT_DEFINITION_FORMATION_WITH_SPECIFIED_SOURCE('','',#1127,
 .NOT_KNOWN.);
#1114=PRODUCT_DEFINITION_FORMATION_WITH_SPECIFIED_SOURCE('','',#1128,
 .NOT_KNOWN.);
#1115=PRODUCT_DEFINITION_FORMATION_WITH_SPECIFIED_SOURCE('','',#1129,
 .NOT_KNOWN.);
#1116=PRODUCT_DEFINITION_FORMATION_WITH_SPECIFIED_SOURCE('','',#1130,
 .NOT_KNOWN.);
#1117=PRODUCT_DEFINITION_FORMATION_WITH_SPECIFIED_SOURCE('','',#1131,
 .NOT_KNOWN.);
#1118=PRODUCT_DEFINITION_FORMATION_WITH_SPECIFIED_SOURCE('','',#1132,
 .NOT_KNOWN.);
#1119=PRODUCT_RELATED_PRODUCT_CATEGORY('','',(#1126));
#1120=PRODUCT_RELATED_PRODUCT_CATEGORY('','',(#1127));
#1121=PRODUCT_RELATED_PRODUCT_CATEGORY('','',(#1128));
#1122=PRODUCT_RELATED_PRODUCT_CATEGORY('','',(#1129));
#1123=PRODUCT_RELATED_PRODUCT_CATEGORY('','',(#1130));
#1124=PRODUCT_RELATED_PRODUCT_CATEGORY('','',(#1131));
#1125=PRODUCT_RELATED_PRODUCT_CATEGORY('','',(#1132));
#1126=PRODUCT('0294-0-15-80-06-80-10-0_co-d4',
'0294-0-15-80-06-80-10-0_co-d4','0294-0-15-80-06-80-10-0_co-d4',(#1140));
#1127=PRODUCT('Part 2','Part 2','Part 2',(#1141));
#1128=PRODUCT('Part 3','Part 3','Part 3',(#1142));
#1129=PRODUCT('Part 2','Part 2','Part 2',(#1143));
#1130=PRODUCT('Part 1','Part 1','Part 1',(#1144));
#1131=PRODUCT('Part 4','Part 4','Part 4',(#1145));
#1132=PRODUCT('Part 1','Part 1','Part 1',(#1146));
#1133=PRODUCT_CATEGORY('','');
#1134=PRODUCT_CATEGORY('','');
#1135=PRODUCT_CATEGORY('','');
#1136=PRODUCT_CATEGORY('','');
#1137=PRODUCT_CATEGORY('','');
#1138=PRODUCT_CATEGORY('','');
#1139=PRODUCT_CATEGORY('','');
#1140=PRODUCT_CONTEXT('',#1148,'mechanical');
#1141=PRODUCT_CONTEXT('',#1148,'mechanical');
#1142=PRODUCT_CONTEXT('',#1148,'mechanical');
#1143=PRODUCT_CONTEXT('',#1148,'mechanical');
#1144=PRODUCT_CONTEXT('',#1148,'mechanical');
#1145=PRODUCT_CONTEXT('',#1148,'mechanical');
#1146=PRODUCT_CONTEXT('',#1148,'mechanical');
#1147=APPLICATION_PROTOCOL_DEFINITION('international standard',
'ap242_managed_model_based_3d_engineering',2020,#1148);
#1148=APPLICATION_CONTEXT('managed model based 3d engineering');
ENDSEC;
END-ISO-10303-21;
