ISO-10303-21;
HEADER;
/* Generated by software containing ST-Developer
 * from STEP Tools, Inc. (www.steptools.com) 
 */
/* OPTION: using custom renumber hook */

FILE_DESCRIPTION(
/* description */ ('STEP AP242 Edition 2',
'CAx-IF Rec.Pracs.---Representation and Presentation of Product Manufa
cturing Information (PMI)---4.0---2014-10-13',
'CAx-IF Rec.Pracs.---3D Tessellated Geometry---0.4---2014-09-14','2;1',
'CAx-IF Rec.Pracs.---User Defined Attributes---1.5---2016-08-15'),
/* implementation_level */ '2;1');

FILE_NAME(
/* name */ '6a3801d4000c37468c25ec5c',
/* time_stamp */ '2026-06-21T15:23:01Z',
/* author */ (''),
/* organization */ (''),
/* preprocessor_version */ 'ST-DEVELOPER v20',
/* originating_system */ 'ONSHAPE BY PTC INC, 1.216',
/* authorisation */ '  ');

FILE_SCHEMA (('AP242_MANAGED_MODEL_BASED_3D_ENGINEERING_MIM_LF { 1 0 10303 442 3 1 4 }'));
ENDSEC;

DATA;
#10=CONICAL_SURFACE('',#498,0.001145,0.785398163397448);
#11=CONTEXT_DEPENDENT_SHAPE_REPRESENTATION(#19,#763);
#12=CONTEXT_DEPENDENT_SHAPE_REPRESENTATION(#20,#765);
#13=CONTEXT_DEPENDENT_SHAPE_REPRESENTATION(#21,#767);
#14=CONTEXT_DEPENDENT_SHAPE_REPRESENTATION(#22,#769);
#15=NEXT_ASSEMBLY_USAGE_OCCURRENCE('NAUO1','Part 3','Part 3',#770,#771,
'');
#16=NEXT_ASSEMBLY_USAGE_OCCURRENCE('NAUO2','Part 1','Part 1',#770,#772,
'');
#17=NEXT_ASSEMBLY_USAGE_OCCURRENCE('NAUO3','Part 2','Part 2',#770,#773,
'');
#18=NEXT_ASSEMBLY_USAGE_OCCURRENCE('NAUO4','Part 1','Part 1',#770,#774,
'');
#19=(
REPRESENTATION_RELATIONSHIP(' ',' ',#428,#427)
REPRESENTATION_RELATIONSHIP_WITH_TRANSFORMATION(#23)
SHAPE_REPRESENTATION_RELATIONSHIP()
);
#20=(
REPRESENTATION_RELATIONSHIP(' ',' ',#429,#427)
REPRESENTATION_RELATIONSHIP_WITH_TRANSFORMATION(#24)
SHAPE_REPRESENTATION_RELATIONSHIP()
);
#21=(
REPRESENTATION_RELATIONSHIP(' ',' ',#430,#427)
REPRESENTATION_RELATIONSHIP_WITH_TRANSFORMATION(#25)
SHAPE_REPRESENTATION_RELATIONSHIP()
);
#22=(
REPRESENTATION_RELATIONSHIP(' ',' ',#431,#427)
REPRESENTATION_RELATIONSHIP_WITH_TRANSFORMATION(#26)
SHAPE_REPRESENTATION_RELATIONSHIP()
);
#23=ITEM_DEFINED_TRANSFORMATION(' ',' ',#432,#446);
#24=ITEM_DEFINED_TRANSFORMATION(' ',' ',#432,#472);
#25=ITEM_DEFINED_TRANSFORMATION(' ',' ',#432,#486);
#26=ITEM_DEFINED_TRANSFORMATION(' ',' ',#432,#502);
#27=SHAPE_REPRESENTATION_RELATIONSHIP('','',#428,#31);
#28=SHAPE_REPRESENTATION_RELATIONSHIP('','',#429,#32);
#29=SHAPE_REPRESENTATION_RELATIONSHIP('','',#430,#33);
#30=SHAPE_REPRESENTATION_RELATIONSHIP('','',#431,#34);
#31=ADVANCED_BREP_SHAPE_REPRESENTATION('',(#418),#749);
#32=ADVANCED_BREP_SHAPE_REPRESENTATION('',(#419),#750);
#33=ADVANCED_BREP_SHAPE_REPRESENTATION('',(#420),#751);
#34=ADVANCED_BREP_SHAPE_REPRESENTATION('',(#421),#752);
#35=PLANE('',#436);
#36=PLANE('',#438);
#37=PLANE('',#442);
#38=PLANE('',#445);
#39=PLANE('',#450);
#40=PLANE('',#452);
#41=PLANE('',#458);
#42=PLANE('',#462);
#43=PLANE('',#465);
#44=PLANE('',#468);
#45=PLANE('',#471);
#46=PLANE('',#476);
#47=PLANE('',#478);
#48=PLANE('',#482);
#49=PLANE('',#485);
#50=PLANE('',#490);
#51=PLANE('',#492);
#52=PLANE('',#496);
#53=PLANE('',#501);
#54=ORIENTED_EDGE('',*,*,#116,.F.);
#55=ORIENTED_EDGE('',*,*,#117,.T.);
#56=ORIENTED_EDGE('',*,*,#118,.T.);
#57=ORIENTED_EDGE('',*,*,#116,.T.);
#58=ORIENTED_EDGE('',*,*,#119,.F.);
#59=ORIENTED_EDGE('',*,*,#117,.F.);
#60=ORIENTED_EDGE('',*,*,#120,.F.);
#61=ORIENTED_EDGE('',*,*,#119,.T.);
#62=ORIENTED_EDGE('',*,*,#120,.T.);
#63=ORIENTED_EDGE('',*,*,#118,.F.);
#64=ORIENTED_EDGE('',*,*,#121,.F.);
#65=ORIENTED_EDGE('',*,*,#121,.T.);
#66=ORIENTED_EDGE('',*,*,#122,.F.);
#67=ORIENTED_EDGE('',*,*,#123,.T.);
#68=ORIENTED_EDGE('',*,*,#124,.F.);
#69=ORIENTED_EDGE('',*,*,#122,.T.);
#70=ORIENTED_EDGE('',*,*,#125,.F.);
#71=ORIENTED_EDGE('',*,*,#126,.F.);
#72=ORIENTED_EDGE('',*,*,#127,.F.);
#73=ORIENTED_EDGE('',*,*,#123,.F.);
#74=ORIENTED_EDGE('',*,*,#128,.F.);
#75=ORIENTED_EDGE('',*,*,#124,.T.);
#76=ORIENTED_EDGE('',*,*,#129,.F.);
#77=ORIENTED_EDGE('',*,*,#128,.T.);
#78=ORIENTED_EDGE('',*,*,#130,.F.);
#79=ORIENTED_EDGE('',*,*,#129,.T.);
#80=ORIENTED_EDGE('',*,*,#130,.T.);
#81=ORIENTED_EDGE('',*,*,#131,.F.);
#82=ORIENTED_EDGE('',*,*,#127,.T.);
#83=ORIENTED_EDGE('',*,*,#131,.T.);
#84=ORIENTED_EDGE('',*,*,#132,.F.);
#85=ORIENTED_EDGE('',*,*,#126,.T.);
#86=ORIENTED_EDGE('',*,*,#132,.T.);
#87=ORIENTED_EDGE('',*,*,#133,.F.);
#88=ORIENTED_EDGE('',*,*,#125,.T.);
#89=ORIENTED_EDGE('',*,*,#133,.T.);
#90=ORIENTED_EDGE('',*,*,#134,.F.);
#91=ORIENTED_EDGE('',*,*,#135,.T.);
#92=ORIENTED_EDGE('',*,*,#136,.T.);
#93=ORIENTED_EDGE('',*,*,#134,.T.);
#94=ORIENTED_EDGE('',*,*,#137,.F.);
#95=ORIENTED_EDGE('',*,*,#135,.F.);
#96=ORIENTED_EDGE('',*,*,#138,.F.);
#97=ORIENTED_EDGE('',*,*,#137,.T.);
#98=ORIENTED_EDGE('',*,*,#138,.T.);
#99=ORIENTED_EDGE('',*,*,#136,.F.);
#100=ORIENTED_EDGE('',*,*,#139,.F.);
#101=ORIENTED_EDGE('',*,*,#139,.T.);
#102=ORIENTED_EDGE('',*,*,#140,.F.);
#103=ORIENTED_EDGE('',*,*,#141,.T.);
#104=ORIENTED_EDGE('',*,*,#142,.T.);
#105=ORIENTED_EDGE('',*,*,#140,.T.);
#106=ORIENTED_EDGE('',*,*,#143,.F.);
#107=ORIENTED_EDGE('',*,*,#141,.F.);
#108=ORIENTED_EDGE('',*,*,#144,.T.);
#109=ORIENTED_EDGE('',*,*,#143,.T.);
#110=ORIENTED_EDGE('',*,*,#145,.T.);
#111=ORIENTED_EDGE('',*,*,#144,.F.);
#112=ORIENTED_EDGE('',*,*,#145,.F.);
#113=ORIENTED_EDGE('',*,*,#142,.F.);
#114=ORIENTED_EDGE('',*,*,#146,.F.);
#115=ORIENTED_EDGE('',*,*,#146,.T.);
#116=EDGE_CURVE('',#147,#147,#178,.T.);
#117=EDGE_CURVE('',#148,#148,#179,.T.);
#118=EDGE_CURVE('',#149,#149,#180,.F.);
#119=EDGE_CURVE('',#150,#150,#181,.T.);
#120=EDGE_CURVE('',#151,#151,#182,.T.);
#121=EDGE_CURVE('',#152,#152,#183,.T.);
#122=EDGE_CURVE('',#153,#153,#184,.T.);
#123=EDGE_CURVE('',#154,#154,#185,.T.);
#124=EDGE_CURVE('',#155,#155,#186,.T.);
#125=EDGE_CURVE('',#156,#156,#187,.T.);
#126=EDGE_CURVE('',#157,#157,#188,.T.);
#127=EDGE_CURVE('',#158,#158,#189,.T.);
#128=EDGE_CURVE('',#159,#159,#190,.T.);
#129=EDGE_CURVE('',#160,#160,#191,.T.);
#130=EDGE_CURVE('',#161,#161,#192,.T.);
#131=EDGE_CURVE('',#162,#162,#193,.T.);
#132=EDGE_CURVE('',#163,#163,#194,.T.);
#133=EDGE_CURVE('',#164,#164,#195,.T.);
#134=EDGE_CURVE('',#165,#165,#196,.T.);
#135=EDGE_CURVE('',#166,#166,#197,.T.);
#136=EDGE_CURVE('',#167,#167,#198,.F.);
#137=EDGE_CURVE('',#168,#168,#199,.T.);
#138=EDGE_CURVE('',#169,#169,#200,.T.);
#139=EDGE_CURVE('',#170,#170,#201,.T.);
#140=EDGE_CURVE('',#171,#171,#202,.T.);
#141=EDGE_CURVE('',#172,#172,#203,.T.);
#142=EDGE_CURVE('',#173,#173,#204,.F.);
#143=EDGE_CURVE('',#174,#174,#205,.T.);
#144=EDGE_CURVE('',#175,#175,#206,.F.);
#145=EDGE_CURVE('',#176,#176,#207,.T.);
#146=EDGE_CURVE('',#177,#177,#208,.T.);
#147=VERTEX_POINT('',#648);
#148=VERTEX_POINT('',#650);
#149=VERTEX_POINT('',#653);
#150=VERTEX_POINT('',#656);
#151=VERTEX_POINT('',#659);
#152=VERTEX_POINT('',#663);
#153=VERTEX_POINT('',#668);
#154=VERTEX_POINT('',#670);
#155=VERTEX_POINT('',#673);
#156=VERTEX_POINT('',#676);
#157=VERTEX_POINT('',#678);
#158=VERTEX_POINT('',#680);
#159=VERTEX_POINT('',#683);
#160=VERTEX_POINT('',#686);
#161=VERTEX_POINT('',#689);
#162=VERTEX_POINT('',#693);
#163=VERTEX_POINT('',#697);
#164=VERTEX_POINT('',#701);
#165=VERTEX_POINT('',#706);
#166=VERTEX_POINT('',#708);
#167=VERTEX_POINT('',#711);
#168=VERTEX_POINT('',#714);
#169=VERTEX_POINT('',#717);
#170=VERTEX_POINT('',#721);
#171=VERTEX_POINT('',#726);
#172=VERTEX_POINT('',#728);
#173=VERTEX_POINT('',#731);
#174=VERTEX_POINT('',#734);
#175=VERTEX_POINT('',#737);
#176=VERTEX_POINT('',#740);
#177=VERTEX_POINT('',#744);
#178=CIRCLE('',#434,0.001525);
#179=CIRCLE('',#435,0.001525);
#180=CIRCLE('',#437,0.001);
#181=CIRCLE('',#439,0.001245);
#182=CIRCLE('',#441,0.001245);
#183=CIRCLE('',#444,0.001);
#184=CIRCLE('',#448,0.01015);
#185=CIRCLE('',#449,0.01015);
#186=CIRCLE('',#451,0.00965);
#187=CIRCLE('',#453,0.00075);
#188=CIRCLE('',#454,0.00075);
#189=CIRCLE('',#455,0.00075);
#190=CIRCLE('',#457,0.00965);
#191=CIRCLE('',#459,0.0055);
#192=CIRCLE('',#461,0.0055);
#193=CIRCLE('',#464,0.00075);
#194=CIRCLE('',#467,0.00075);
#195=CIRCLE('',#470,0.00075);
#196=CIRCLE('',#474,0.001525);
#197=CIRCLE('',#475,0.001525);
#198=CIRCLE('',#477,0.001);
#199=CIRCLE('',#479,0.001245);
#200=CIRCLE('',#481,0.001245);
#201=CIRCLE('',#484,0.001);
#202=CIRCLE('',#488,0.001525);
#203=CIRCLE('',#489,0.001525);
#204=CIRCLE('',#491,0.001);
#205=CIRCLE('',#493,0.001245);
#206=CIRCLE('',#495,0.001245);
#207=CIRCLE('',#497,0.001145);
#208=CIRCLE('',#500,0.001);
#209=EDGE_LOOP('',(#54));
#210=EDGE_LOOP('',(#55));
#211=EDGE_LOOP('',(#56));
#212=EDGE_LOOP('',(#57));
#213=EDGE_LOOP('',(#58));
#214=EDGE_LOOP('',(#59));
#215=EDGE_LOOP('',(#60));
#216=EDGE_LOOP('',(#61));
#217=EDGE_LOOP('',(#62));
#218=EDGE_LOOP('',(#63));
#219=EDGE_LOOP('',(#64));
#220=EDGE_LOOP('',(#65));
#221=EDGE_LOOP('',(#66));
#222=EDGE_LOOP('',(#67));
#223=EDGE_LOOP('',(#68));
#224=EDGE_LOOP('',(#69));
#225=EDGE_LOOP('',(#70));
#226=EDGE_LOOP('',(#71));
#227=EDGE_LOOP('',(#72));
#228=EDGE_LOOP('',(#73));
#229=EDGE_LOOP('',(#74));
#230=EDGE_LOOP('',(#75));
#231=EDGE_LOOP('',(#76));
#232=EDGE_LOOP('',(#77));
#233=EDGE_LOOP('',(#78));
#234=EDGE_LOOP('',(#79));
#235=EDGE_LOOP('',(#80));
#236=EDGE_LOOP('',(#81));
#237=EDGE_LOOP('',(#82));
#238=EDGE_LOOP('',(#83));
#239=EDGE_LOOP('',(#84));
#240=EDGE_LOOP('',(#85));
#241=EDGE_LOOP('',(#86));
#242=EDGE_LOOP('',(#87));
#243=EDGE_LOOP('',(#88));
#244=EDGE_LOOP('',(#89));
#245=EDGE_LOOP('',(#90));
#246=EDGE_LOOP('',(#91));
#247=EDGE_LOOP('',(#92));
#248=EDGE_LOOP('',(#93));
#249=EDGE_LOOP('',(#94));
#250=EDGE_LOOP('',(#95));
#251=EDGE_LOOP('',(#96));
#252=EDGE_LOOP('',(#97));
#253=EDGE_LOOP('',(#98));
#254=EDGE_LOOP('',(#99));
#255=EDGE_LOOP('',(#100));
#256=EDGE_LOOP('',(#101));
#257=EDGE_LOOP('',(#102));
#258=EDGE_LOOP('',(#103));
#259=EDGE_LOOP('',(#104));
#260=EDGE_LOOP('',(#105));
#261=EDGE_LOOP('',(#106));
#262=EDGE_LOOP('',(#107));
#263=EDGE_LOOP('',(#108));
#264=EDGE_LOOP('',(#109));
#265=EDGE_LOOP('',(#110));
#266=EDGE_LOOP('',(#111));
#267=EDGE_LOOP('',(#112));
#268=EDGE_LOOP('',(#113));
#269=EDGE_LOOP('',(#114));
#270=EDGE_LOOP('',(#115));
#271=FACE_BOUND('',#209,.T.);
#272=FACE_BOUND('',#210,.T.);
#273=FACE_BOUND('',#211,.T.);
#274=FACE_BOUND('',#212,.T.);
#275=FACE_BOUND('',#213,.T.);
#276=FACE_BOUND('',#214,.T.);
#277=FACE_BOUND('',#215,.T.);
#278=FACE_BOUND('',#216,.T.);
#279=FACE_BOUND('',#217,.T.);
#280=FACE_BOUND('',#218,.T.);
#281=FACE_BOUND('',#219,.T.);
#282=FACE_BOUND('',#220,.T.);
#283=FACE_BOUND('',#221,.T.);
#284=FACE_BOUND('',#222,.T.);
#285=FACE_BOUND('',#223,.T.);
#286=FACE_BOUND('',#224,.T.);
#287=FACE_BOUND('',#225,.T.);
#288=FACE_BOUND('',#226,.T.);
#289=FACE_BOUND('',#227,.T.);
#290=FACE_BOUND('',#228,.T.);
#291=FACE_BOUND('',#229,.T.);
#292=FACE_BOUND('',#230,.T.);
#293=FACE_BOUND('',#231,.T.);
#294=FACE_BOUND('',#232,.T.);
#295=FACE_BOUND('',#233,.T.);
#296=FACE_BOUND('',#234,.T.);
#297=FACE_BOUND('',#235,.T.);
#298=FACE_BOUND('',#236,.T.);
#299=FACE_BOUND('',#237,.T.);
#300=FACE_BOUND('',#238,.T.);
#301=FACE_BOUND('',#239,.T.);
#302=FACE_BOUND('',#240,.T.);
#303=FACE_BOUND('',#241,.T.);
#304=FACE_BOUND('',#242,.T.);
#305=FACE_BOUND('',#243,.T.);
#306=FACE_BOUND('',#244,.T.);
#307=FACE_BOUND('',#245,.T.);
#308=FACE_BOUND('',#246,.T.);
#309=FACE_BOUND('',#247,.T.);
#310=FACE_BOUND('',#248,.T.);
#311=FACE_BOUND('',#249,.T.);
#312=FACE_BOUND('',#250,.T.);
#313=FACE_BOUND('',#251,.T.);
#314=FACE_BOUND('',#252,.T.);
#315=FACE_BOUND('',#253,.T.);
#316=FACE_BOUND('',#254,.T.);
#317=FACE_BOUND('',#255,.T.);
#318=FACE_BOUND('',#256,.T.);
#319=FACE_BOUND('',#257,.T.);
#320=FACE_BOUND('',#258,.T.);
#321=FACE_BOUND('',#259,.T.);
#322=FACE_BOUND('',#260,.T.);
#323=FACE_BOUND('',#261,.T.);
#324=FACE_BOUND('',#262,.T.);
#325=FACE_BOUND('',#263,.T.);
#326=FACE_BOUND('',#264,.T.);
#327=FACE_BOUND('',#265,.T.);
#328=FACE_BOUND('',#266,.T.);
#329=FACE_BOUND('',#267,.T.);
#330=FACE_BOUND('',#268,.T.);
#331=FACE_BOUND('',#269,.T.);
#332=FACE_BOUND('',#270,.T.);
#333=CYLINDRICAL_SURFACE('',#433,0.001525);
#334=CYLINDRICAL_SURFACE('',#440,0.001245);
#335=CYLINDRICAL_SURFACE('',#443,0.001);
#336=CYLINDRICAL_SURFACE('',#447,0.01015);
#337=CYLINDRICAL_SURFACE('',#456,0.00965);
#338=CYLINDRICAL_SURFACE('',#460,0.0055);
#339=CYLINDRICAL_SURFACE('',#463,0.00075);
#340=CYLINDRICAL_SURFACE('',#466,0.00075);
#341=CYLINDRICAL_SURFACE('',#469,0.00075);
#342=CYLINDRICAL_SURFACE('',#473,0.001525);
#343=CYLINDRICAL_SURFACE('',#480,0.001245);
#344=CYLINDRICAL_SURFACE('',#483,0.001);
#345=CYLINDRICAL_SURFACE('',#487,0.001525);
#346=CYLINDRICAL_SURFACE('',#494,0.001245);
#347=CYLINDRICAL_SURFACE('',#499,0.001);
#348=ADVANCED_FACE('',(#271,#272),#333,.T.);
#349=ADVANCED_FACE('',(#273,#274),#35,.T.);
#350=ADVANCED_FACE('',(#275,#276),#36,.F.);
#351=ADVANCED_FACE('',(#277,#278),#334,.T.);
#352=ADVANCED_FACE('',(#279),#37,.T.);
#353=ADVANCED_FACE('',(#280,#281),#335,.F.);
#354=ADVANCED_FACE('',(#282),#38,.T.);
#355=ADVANCED_FACE('',(#283,#284),#336,.T.);
#356=ADVANCED_FACE('',(#285,#286),#39,.T.);
#357=ADVANCED_FACE('',(#287,#288,#289,#290),#40,.F.);
#358=ADVANCED_FACE('',(#291,#292),#337,.T.);
#359=ADVANCED_FACE('',(#293,#294),#41,.T.);
#360=ADVANCED_FACE('',(#295,#296),#338,.F.);
#361=ADVANCED_FACE('',(#297),#42,.T.);
#362=ADVANCED_FACE('',(#298,#299),#339,.T.);
#363=ADVANCED_FACE('',(#300),#43,.T.);
#364=ADVANCED_FACE('',(#301,#302),#340,.T.);
#365=ADVANCED_FACE('',(#303),#44,.T.);
#366=ADVANCED_FACE('',(#304,#305),#341,.T.);
#367=ADVANCED_FACE('',(#306),#45,.T.);
#368=ADVANCED_FACE('',(#307,#308),#342,.T.);
#369=ADVANCED_FACE('',(#309,#310),#46,.T.);
#370=ADVANCED_FACE('',(#311,#312),#47,.F.);
#371=ADVANCED_FACE('',(#313,#314),#343,.T.);
#372=ADVANCED_FACE('',(#315),#48,.T.);
#373=ADVANCED_FACE('',(#316,#317),#344,.F.);
#374=ADVANCED_FACE('',(#318),#49,.T.);
#375=ADVANCED_FACE('',(#319,#320),#345,.T.);
#376=ADVANCED_FACE('',(#321,#322),#50,.T.);
#377=ADVANCED_FACE('',(#323,#324),#51,.F.);
#378=ADVANCED_FACE('',(#325,#326),#346,.T.);
#379=ADVANCED_FACE('',(#327),#52,.T.);
#380=ADVANCED_FACE('',(#328,#329),#10,.T.);
#381=ADVANCED_FACE('',(#330,#331),#347,.F.);
#382=ADVANCED_FACE('',(#332),#53,.T.);
#383=CLOSED_SHELL('',(#348,#349,#350,#351,#352,#353,#354));
#384=CLOSED_SHELL('',(#355,#356,#357,#358,#359,#360,#361,#362,#363,#364,
#365,#366,#367));
#385=CLOSED_SHELL('',(#368,#369,#370,#371,#372,#373,#374));
#386=CLOSED_SHELL('',(#375,#376,#377,#378,#379,#380,#381,#382));
#387=STYLED_ITEM('',(#391),#418);
#388=STYLED_ITEM('',(#392),#419);
#389=STYLED_ITEM('',(#393),#420);
#390=STYLED_ITEM('',(#394),#421);
#391=PRESENTATION_STYLE_ASSIGNMENT((#395));
#392=PRESENTATION_STYLE_ASSIGNMENT((#396));
#393=PRESENTATION_STYLE_ASSIGNMENT((#397));
#394=PRESENTATION_STYLE_ASSIGNMENT((#398));
#395=SURFACE_STYLE_USAGE(.BOTH.,#399);
#396=SURFACE_STYLE_USAGE(.BOTH.,#400);
#397=SURFACE_STYLE_USAGE(.BOTH.,#401);
#398=SURFACE_STYLE_USAGE(.BOTH.,#402);
#399=SURFACE_SIDE_STYLE('',(#403));
#400=SURFACE_SIDE_STYLE('',(#404));
#401=SURFACE_SIDE_STYLE('',(#405));
#402=SURFACE_SIDE_STYLE('',(#406));
#403=SURFACE_STYLE_FILL_AREA(#407);
#404=SURFACE_STYLE_FILL_AREA(#408);
#405=SURFACE_STYLE_FILL_AREA(#409);
#406=SURFACE_STYLE_FILL_AREA(#410);
#407=FILL_AREA_STYLE('',(#411));
#408=FILL_AREA_STYLE('',(#412));
#409=FILL_AREA_STYLE('',(#413));
#410=FILL_AREA_STYLE('',(#414));
#411=FILL_AREA_STYLE_COLOUR('',#415);
#412=FILL_AREA_STYLE_COLOUR('',#416);
#413=FILL_AREA_STYLE_COLOUR('',#417);
#414=FILL_AREA_STYLE_COLOUR('',#416);
#415=COLOUR_RGB('',0.231372549019608,0.380392156862745,0.705882352941177);
#416=COLOUR_RGB('',0.615686274509804,0.811764705882353,0.929411764705882);
#417=COLOUR_RGB('',0.647058823529412,0.647058823529412,0.647058823529412);
#418=MANIFOLD_SOLID_BREP('Part 3',#383);
#419=MANIFOLD_SOLID_BREP('Part 1',#384);
#420=MANIFOLD_SOLID_BREP('Part 2',#385);
#421=MANIFOLD_SOLID_BREP('Part 1',#386);
#422=SHAPE_DEFINITION_REPRESENTATION(#761,#427);
#423=SHAPE_DEFINITION_REPRESENTATION(#762,#428);
#424=SHAPE_DEFINITION_REPRESENTATION(#764,#429);
#425=SHAPE_DEFINITION_REPRESENTATION(#766,#430);
#426=SHAPE_DEFINITION_REPRESENTATION(#768,#431);
#427=SHAPE_REPRESENTATION('0364-0-15-80-13-80-10-0_o2-g2',(#432,#446,#472,
#486,#502),#748);
#428=SHAPE_REPRESENTATION('Part 3',(#432),#749);
#429=SHAPE_REPRESENTATION('Part 1',(#432),#750);
#430=SHAPE_REPRESENTATION('Part 2',(#432),#751);
#431=SHAPE_REPRESENTATION('Part 1',(#432),#752);
#432=AXIS2_PLACEMENT_3D('',#645,#503,#504);
#433=AXIS2_PLACEMENT_3D('',#646,#505,#506);
#434=AXIS2_PLACEMENT_3D('',#647,#507,#508);
#435=AXIS2_PLACEMENT_3D('',#649,#509,#510);
#436=AXIS2_PLACEMENT_3D('',#651,#511,#512);
#437=AXIS2_PLACEMENT_3D('',#652,#513,#514);
#438=AXIS2_PLACEMENT_3D('',#654,#515,#516);
#439=AXIS2_PLACEMENT_3D('',#655,#517,#518);
#440=AXIS2_PLACEMENT_3D('',#657,#519,#520);
#441=AXIS2_PLACEMENT_3D('',#658,#521,#522);
#442=AXIS2_PLACEMENT_3D('',#660,#523,#524);
#443=AXIS2_PLACEMENT_3D('',#661,#525,#526);
#444=AXIS2_PLACEMENT_3D('',#662,#527,#528);
#445=AXIS2_PLACEMENT_3D('',#664,#529,#530);
#446=AXIS2_PLACEMENT_3D('',#665,#531,#532);
#447=AXIS2_PLACEMENT_3D('',#666,#533,#534);
#448=AXIS2_PLACEMENT_3D('',#667,#535,#536);
#449=AXIS2_PLACEMENT_3D('',#669,#537,#538);
#450=AXIS2_PLACEMENT_3D('',#671,#539,#540);
#451=AXIS2_PLACEMENT_3D('',#672,#541,#542);
#452=AXIS2_PLACEMENT_3D('',#674,#543,#544);
#453=AXIS2_PLACEMENT_3D('',#675,#545,#546);
#454=AXIS2_PLACEMENT_3D('',#677,#547,#548);
#455=AXIS2_PLACEMENT_3D('',#679,#549,#550);
#456=AXIS2_PLACEMENT_3D('',#681,#551,#552);
#457=AXIS2_PLACEMENT_3D('',#682,#553,#554);
#458=AXIS2_PLACEMENT_3D('',#684,#555,#556);
#459=AXIS2_PLACEMENT_3D('',#685,#557,#558);
#460=AXIS2_PLACEMENT_3D('',#687,#559,#560);
#461=AXIS2_PLACEMENT_3D('',#688,#561,#562);
#462=AXIS2_PLACEMENT_3D('',#690,#563,#564);
#463=AXIS2_PLACEMENT_3D('',#691,#565,#566);
#464=AXIS2_PLACEMENT_3D('',#692,#567,#568);
#465=AXIS2_PLACEMENT_3D('',#694,#569,#570);
#466=AXIS2_PLACEMENT_3D('',#695,#571,#572);
#467=AXIS2_PLACEMENT_3D('',#696,#573,#574);
#468=AXIS2_PLACEMENT_3D('',#698,#575,#576);
#469=AXIS2_PLACEMENT_3D('',#699,#577,#578);
#470=AXIS2_PLACEMENT_3D('',#700,#579,#580);
#471=AXIS2_PLACEMENT_3D('',#702,#581,#582);
#472=AXIS2_PLACEMENT_3D('',#703,#583,#584);
#473=AXIS2_PLACEMENT_3D('',#704,#585,#586);
#474=AXIS2_PLACEMENT_3D('',#705,#587,#588);
#475=AXIS2_PLACEMENT_3D('',#707,#589,#590);
#476=AXIS2_PLACEMENT_3D('',#709,#591,#592);
#477=AXIS2_PLACEMENT_3D('',#710,#593,#594);
#478=AXIS2_PLACEMENT_3D('',#712,#595,#596);
#479=AXIS2_PLACEMENT_3D('',#713,#597,#598);
#480=AXIS2_PLACEMENT_3D('',#715,#599,#600);
#481=AXIS2_PLACEMENT_3D('',#716,#601,#602);
#482=AXIS2_PLACEMENT_3D('',#718,#603,#604);
#483=AXIS2_PLACEMENT_3D('',#719,#605,#606);
#484=AXIS2_PLACEMENT_3D('',#720,#607,#608);
#485=AXIS2_PLACEMENT_3D('',#722,#609,#610);
#486=AXIS2_PLACEMENT_3D('',#723,#611,#612);
#487=AXIS2_PLACEMENT_3D('',#724,#613,#614);
#488=AXIS2_PLACEMENT_3D('',#725,#615,#616);
#489=AXIS2_PLACEMENT_3D('',#727,#617,#618);
#490=AXIS2_PLACEMENT_3D('',#729,#619,#620);
#491=AXIS2_PLACEMENT_3D('',#730,#621,#622);
#492=AXIS2_PLACEMENT_3D('',#732,#623,#624);
#493=AXIS2_PLACEMENT_3D('',#733,#625,#626);
#494=AXIS2_PLACEMENT_3D('',#735,#627,#628);
#495=AXIS2_PLACEMENT_3D('',#736,#629,#630);
#496=AXIS2_PLACEMENT_3D('',#738,#631,#632);
#497=AXIS2_PLACEMENT_3D('',#739,#633,#634);
#498=AXIS2_PLACEMENT_3D('',#741,#635,#636);
#499=AXIS2_PLACEMENT_3D('',#742,#637,#638);
#500=AXIS2_PLACEMENT_3D('',#743,#639,#640);
#501=AXIS2_PLACEMENT_3D('',#745,#641,#642);
#502=AXIS2_PLACEMENT_3D('',#746,#643,#644);
#503=DIRECTION('',(0.,0.,1.));
#504=DIRECTION('',(1.,0.,0.));
#505=DIRECTION('',(0.,0.,-1.));
#506=DIRECTION('',(-1.,0.,0.));
#507=DIRECTION('',(0.,0.,1.));
#508=DIRECTION('',(1.,0.,0.));
#509=DIRECTION('',(0.,0.,1.));
#510=DIRECTION('',(1.,0.,0.));
#511=DIRECTION('',(0.,0.,1.));
#512=DIRECTION('',(1.,0.,0.));
#513=DIRECTION('',(0.,0.,1.));
#514=DIRECTION('',(1.,0.,0.));
#515=DIRECTION('',(0.,0.,1.));
#516=DIRECTION('',(1.,0.,0.));
#517=DIRECTION('',(0.,0.,-1.));
#518=DIRECTION('',(-1.,0.,0.));
#519=DIRECTION('',(0.,0.,1.));
#520=DIRECTION('',(1.,0.,0.));
#521=DIRECTION('',(0.,0.,-1.));
#522=DIRECTION('',(-1.,0.,0.));
#523=DIRECTION('',(0.,0.,-1.));
#524=DIRECTION('',(1.,0.,0.));
#525=DIRECTION('',(0.,0.,-1.));
#526=DIRECTION('',(-1.,0.,0.));
#527=DIRECTION('',(0.,0.,1.));
#528=DIRECTION('',(1.,0.,0.));
#529=DIRECTION('',(0.,0.,1.));
#530=DIRECTION('',(1.,0.,0.));
#531=DIRECTION('',(0.,0.,1.));
#532=DIRECTION('',(1.,0.,0.));
#533=DIRECTION('',(0.,0.,-1.));
#534=DIRECTION('',(-1.,0.,0.));
#535=DIRECTION('',(0.,0.,1.));
#536=DIRECTION('',(1.,0.,0.));
#537=DIRECTION('',(0.,0.,1.));
#538=DIRECTION('',(1.,0.,0.));
#539=DIRECTION('',(0.,0.,1.));
#540=DIRECTION('',(1.,0.,0.));
#541=DIRECTION('',(0.,0.,1.));
#542=DIRECTION('',(1.,0.,0.));
#543=DIRECTION('',(0.,0.,1.));
#544=DIRECTION('',(1.,0.,0.));
#545=DIRECTION('',(0.,0.,-1.));
#546=DIRECTION('',(-1.,0.,0.));
#547=DIRECTION('',(0.,0.,-1.));
#548=DIRECTION('',(-1.,0.,0.));
#549=DIRECTION('',(0.,0.,-1.));
#550=DIRECTION('',(-1.,0.,0.));
#551=DIRECTION('',(0.,0.,-1.));
#552=DIRECTION('',(-1.,0.,0.));
#553=DIRECTION('',(0.,0.,1.));
#554=DIRECTION('',(1.,0.,0.));
#555=DIRECTION('',(0.,0.,1.));
#556=DIRECTION('',(1.,0.,0.));
#557=DIRECTION('',(0.,0.,1.));
#558=DIRECTION('',(1.,0.,0.));
#559=DIRECTION('',(0.,0.,1.));
#560=DIRECTION('',(1.,0.,0.));
#561=DIRECTION('',(0.,0.,1.));
#562=DIRECTION('',(1.,0.,0.));
#563=DIRECTION('',(0.,0.,1.));
#564=DIRECTION('',(1.,0.,0.));
#565=DIRECTION('',(0.,0.,1.));
#566=DIRECTION('',(1.,0.,0.));
#567=DIRECTION('',(0.,0.,-1.));
#568=DIRECTION('',(-1.,0.,0.));
#569=DIRECTION('',(0.,0.,-1.));
#570=DIRECTION('',(1.,0.,0.));
#571=DIRECTION('',(0.,0.,1.));
#572=DIRECTION('',(1.,0.,0.));
#573=DIRECTION('',(0.,0.,-1.));
#574=DIRECTION('',(-1.,0.,0.));
#575=DIRECTION('',(0.,0.,-1.));
#576=DIRECTION('',(1.,0.,0.));
#577=DIRECTION('',(0.,0.,1.));
#578=DIRECTION('',(1.,0.,0.));
#579=DIRECTION('',(0.,0.,-1.));
#580=DIRECTION('',(-1.,0.,0.));
#581=DIRECTION('',(0.,0.,-1.));
#582=DIRECTION('',(1.,0.,0.));
#583=DIRECTION('',(0.,0.,1.));
#584=DIRECTION('',(-1.,-2.77555756156289E-16,0.));
#585=DIRECTION('',(0.,0.,-1.));
#586=DIRECTION('',(-1.,0.,0.));
#587=DIRECTION('',(0.,0.,1.));
#588=DIRECTION('',(1.,0.,0.));
#589=DIRECTION('',(0.,0.,1.));
#590=DIRECTION('',(1.,0.,0.));
#591=DIRECTION('',(0.,0.,1.));
#592=DIRECTION('',(1.,0.,0.));
#593=DIRECTION('',(0.,0.,1.));
#594=DIRECTION('',(1.,0.,0.));
#595=DIRECTION('',(0.,0.,1.));
#596=DIRECTION('',(1.,0.,0.));
#597=DIRECTION('',(0.,0.,-1.));
#598=DIRECTION('',(-1.,0.,0.));
#599=DIRECTION('',(0.,0.,1.));
#600=DIRECTION('',(1.,0.,0.));
#601=DIRECTION('',(0.,0.,-1.));
#602=DIRECTION('',(-1.,0.,0.));
#603=DIRECTION('',(0.,0.,-1.));
#604=DIRECTION('',(1.,0.,0.));
#605=DIRECTION('',(0.,0.,-1.));
#606=DIRECTION('',(-1.,0.,0.));
#607=DIRECTION('',(0.,0.,1.));
#608=DIRECTION('',(1.,0.,0.));
#609=DIRECTION('',(0.,0.,1.));
#610=DIRECTION('',(1.,0.,0.));
#611=DIRECTION('',(0.,0.,1.));
#612=DIRECTION('',(1.,0.,0.));
#613=DIRECTION('',(0.,0.,-1.));
#614=DIRECTION('',(-1.,0.,0.));
#615=DIRECTION('',(0.,0.,1.));
#616=DIRECTION('',(1.,0.,0.));
#617=DIRECTION('',(0.,0.,1.));
#618=DIRECTION('',(1.,0.,0.));
#619=DIRECTION('',(0.,0.,1.));
#620=DIRECTION('',(1.,0.,0.));
#621=DIRECTION('',(0.,0.,1.));
#622=DIRECTION('',(1.,0.,0.));
#623=DIRECTION('',(0.,0.,1.));
#624=DIRECTION('',(1.,0.,0.));
#625=DIRECTION('',(0.,0.,-1.));
#626=DIRECTION('',(-1.,0.,0.));
#627=DIRECTION('',(0.,0.,1.));
#628=DIRECTION('',(1.,0.,0.));
#629=DIRECTION('',(0.,0.,-1.));
#630=DIRECTION('',(-1.,0.,0.));
#631=DIRECTION('',(0.,0.,-1.));
#632=DIRECTION('',(1.,0.,0.));
#633=DIRECTION('',(0.,0.,-1.));
#634=DIRECTION('',(-1.,0.,0.));
#635=DIRECTION('',(0.,0.,1.));
#636=DIRECTION('',(1.,0.,0.));
#637=DIRECTION('',(0.,0.,-1.));
#638=DIRECTION('',(-1.,0.,0.));
#639=DIRECTION('',(0.,0.,1.));
#640=DIRECTION('',(1.,0.,0.));
#641=DIRECTION('',(0.,0.,1.));
#642=DIRECTION('',(1.,0.,0.));
#643=DIRECTION('',(0.,0.,1.));
#644=DIRECTION('',(1.,0.,0.));
#645=CARTESIAN_POINT('',(0.,0.,0.));
#646=CARTESIAN_POINT('',(0.00675,-0.00675,0.00046));
#647=CARTESIAN_POINT('',(0.00675,-0.00675,0.00046));
#648=CARTESIAN_POINT('',(0.008275,-0.00675,0.00046));
#649=CARTESIAN_POINT('',(0.00675,-0.00675,0.));
#650=CARTESIAN_POINT('',(0.008275,-0.00675,0.));
#651=CARTESIAN_POINT('',(0.,-0.003375,0.00046));
#652=CARTESIAN_POINT('',(0.00675,-0.00675,0.00046));
#653=CARTESIAN_POINT('',(0.00775,-0.00675,0.00046));
#654=CARTESIAN_POINT('',(0.,-0.003375,0.));
#655=CARTESIAN_POINT('',(0.00675,-0.00675,0.));
#656=CARTESIAN_POINT('',(0.005505,-0.00675,0.));
#657=CARTESIAN_POINT('',(0.00675,-0.00675,-0.00495));
#658=CARTESIAN_POINT('',(0.00675,-0.00675,-0.00495));
#659=CARTESIAN_POINT('',(0.005505,-0.00675,-0.00495));
#660=CARTESIAN_POINT('',(0.,-0.003235,-0.00495));
#661=CARTESIAN_POINT('',(0.00675,-0.00675,0.00146));
#662=CARTESIAN_POINT('',(0.00675,-0.00675,-0.00354));
#663=CARTESIAN_POINT('',(0.00775,-0.00675,-0.00354));
#664=CARTESIAN_POINT('',(0.,-0.0031125,-0.00354));
#665=CARTESIAN_POINT('',(0.,0.,0.));
#666=CARTESIAN_POINT('',(0.,6.21508250567282E-19,0.0095));
#667=CARTESIAN_POINT('',(0.,6.21508250567282E-19,0.0095));
#668=CARTESIAN_POINT('',(0.01015,6.21508250567282E-19,0.0095));
#669=CARTESIAN_POINT('',(0.,6.21508250567282E-19,0.));
#670=CARTESIAN_POINT('',(0.01015,6.21508250567282E-19,0.));
#671=CARTESIAN_POINT('',(0.,0.,0.0095));
#672=CARTESIAN_POINT('',(0.,5.90892080588598E-19,0.0095));
#673=CARTESIAN_POINT('',(0.00965,5.90892080588598E-19,0.0095));
#674=CARTESIAN_POINT('',(0.,0.,0.));
#675=CARTESIAN_POINT('',(0.,-0.00675,0.));
#676=CARTESIAN_POINT('',(-0.00075,-0.00675,0.));
#677=CARTESIAN_POINT('',(0.00675,-4.59242549680257E-20,0.));
#678=CARTESIAN_POINT('',(0.006,-4.59242549680257E-20,0.));
#679=CARTESIAN_POINT('',(-0.00675,-4.59242549680257E-20,0.));
#680=CARTESIAN_POINT('',(-0.0075,-4.59242549680257E-20,0.));
#681=CARTESIAN_POINT('',(0.,5.90892080588598E-19,0.0102));
#682=CARTESIAN_POINT('',(0.,5.90892080588598E-19,0.0102));
#683=CARTESIAN_POINT('',(0.00965,5.90892080588598E-19,0.0102));
#684=CARTESIAN_POINT('',(0.,0.,0.0102));
#685=CARTESIAN_POINT('',(0.,9.2766995035412E-19,0.0102));
#686=CARTESIAN_POINT('',(0.0055,9.2766995035412E-19,0.0102));
#687=CARTESIAN_POINT('',(0.,9.2766995035412E-19,0.00995));
#688=CARTESIAN_POINT('',(0.,9.2766995035412E-19,0.00995));
#689=CARTESIAN_POINT('',(0.0055,9.2766995035412E-19,0.00995));
#690=CARTESIAN_POINT('',(0.,0.,0.00995));
#691=CARTESIAN_POINT('',(-0.00675,-4.59242549680257E-20,-0.0043));
#692=CARTESIAN_POINT('',(-0.00675,-4.59242549680257E-20,-0.0043));
#693=CARTESIAN_POINT('',(-0.0075,-4.59242549680257E-20,-0.0043));
#694=CARTESIAN_POINT('',(0.,0.,-0.0043));
#695=CARTESIAN_POINT('',(0.00675,-4.59242549680257E-20,-0.0043));
#696=CARTESIAN_POINT('',(0.00675,-4.59242549680257E-20,-0.0043));
#697=CARTESIAN_POINT('',(0.006,-4.59242549680257E-20,-0.0043));
#698=CARTESIAN_POINT('',(0.,0.,-0.0043));
#699=CARTESIAN_POINT('',(0.,-0.00675,-0.0043));
#700=CARTESIAN_POINT('',(0.,-0.00675,-0.0043));
#701=CARTESIAN_POINT('',(-0.00075,-0.00675,-0.0043));
#702=CARTESIAN_POINT('',(0.,0.,-0.0043));
#703=CARTESIAN_POINT('',(-2.64145797374753E-7,-0.00675049594887063,0.000460004397166556));
#704=CARTESIAN_POINT('',(-0.00675,-0.00675,0.00046));
#705=CARTESIAN_POINT('',(-0.00675,-0.00675,0.00046));
#706=CARTESIAN_POINT('',(-0.005225,-0.00675,0.00046));
#707=CARTESIAN_POINT('',(-0.00675,-0.00675,0.));
#708=CARTESIAN_POINT('',(-0.005225,-0.00675,0.));
#709=CARTESIAN_POINT('',(0.,-0.003375,0.00046));
#710=CARTESIAN_POINT('',(-0.00675,-0.00675,0.00046));
#711=CARTESIAN_POINT('',(-0.00575,-0.00675,0.00046));
#712=CARTESIAN_POINT('',(0.,-0.003375,0.));
#713=CARTESIAN_POINT('',(-0.00675,-0.00675,0.));
#714=CARTESIAN_POINT('',(-0.007995,-0.00675,0.));
#715=CARTESIAN_POINT('',(-0.00675,-0.00675,-0.00495));
#716=CARTESIAN_POINT('',(-0.00675,-0.00675,-0.00495));
#717=CARTESIAN_POINT('',(-0.007995,-0.00675,-0.00495));
#718=CARTESIAN_POINT('',(0.,-0.003235,-0.00495));
#719=CARTESIAN_POINT('',(-0.00675,-0.00675,0.00146));
#720=CARTESIAN_POINT('',(-0.00675,-0.00675,-0.00354));
#721=CARTESIAN_POINT('',(-0.00575,-0.00675,-0.00354));
#722=CARTESIAN_POINT('',(0.,-0.0031125,-0.00354));
#723=CARTESIAN_POINT('',(0.,0.,0.));
#724=CARTESIAN_POINT('',(0.,9.33793184349857E-20,0.00046));
#725=CARTESIAN_POINT('',(0.,9.33793184349857E-20,0.00046));
#726=CARTESIAN_POINT('',(0.001525,9.33793184349857E-20,0.00046));
#727=CARTESIAN_POINT('',(0.,9.33793184349857E-20,0.));
#728=CARTESIAN_POINT('',(0.001525,9.33793184349857E-20,0.));
#729=CARTESIAN_POINT('',(0.,-0.003375,0.00046));
#730=CARTESIAN_POINT('',(0.,1.54611658392354E-19,0.00046));
#731=CARTESIAN_POINT('',(0.001,1.54611658392354E-19,0.00046));
#732=CARTESIAN_POINT('',(0.,-0.003375,0.));
#733=CARTESIAN_POINT('',(0.,-7.62342632469228E-20,0.));
#734=CARTESIAN_POINT('',(-0.001245,-7.62342632469228E-20,0.));
#735=CARTESIAN_POINT('',(0.,-7.62342632469228E-20,-0.00495));
#736=CARTESIAN_POINT('',(0.,-7.62342632469228E-20,-0.00485));
#737=CARTESIAN_POINT('',(-0.001245,-7.62342632469228E-20,-0.00485));
#738=CARTESIAN_POINT('',(0.,-0.003235,-0.00495));
#739=CARTESIAN_POINT('',(0.,-7.62342632469228E-20,-0.00495));
#740=CARTESIAN_POINT('',(-0.001145,-7.62342632469228E-20,-0.00495));
#741=CARTESIAN_POINT('',(0.,-7.62342632469228E-20,-0.00495));
#742=CARTESIAN_POINT('',(0.,1.54611658392354E-19,0.00146));
#743=CARTESIAN_POINT('',(0.,1.54611658392354E-19,-0.00354));
#744=CARTESIAN_POINT('',(0.001,1.54611658392354E-19,-0.00354));
#745=CARTESIAN_POINT('',(0.,-0.0031125,-0.00354));
#746=CARTESIAN_POINT('',(0.,0.,0.));
#747=MECHANICAL_DESIGN_GEOMETRIC_PRESENTATION_REPRESENTATION('',(#387,#388,
#389,#390),#748);
#748=(
GEOMETRIC_REPRESENTATION_CONTEXT(3)
GLOBAL_UNCERTAINTY_ASSIGNED_CONTEXT((#753))
GLOBAL_UNIT_ASSIGNED_CONTEXT((#760,#759,#758))
REPRESENTATION_CONTEXT('0364-0-15-80-13-80-10-0_o2-g2',
'TOP_LEVEL_ASSEMBLY_PART')
);
#749=(
GEOMETRIC_REPRESENTATION_CONTEXT(3)
GLOBAL_UNCERTAINTY_ASSIGNED_CONTEXT((#754))
GLOBAL_UNIT_ASSIGNED_CONTEXT((#760,#759,#758))
REPRESENTATION_CONTEXT('Part 3','COMPONENT_PART')
);
#750=(
GEOMETRIC_REPRESENTATION_CONTEXT(3)
GLOBAL_UNCERTAINTY_ASSIGNED_CONTEXT((#755))
GLOBAL_UNIT_ASSIGNED_CONTEXT((#760,#759,#758))
REPRESENTATION_CONTEXT('Part 1','COMPONENT_PART')
);
#751=(
GEOMETRIC_REPRESENTATION_CONTEXT(3)
GLOBAL_UNCERTAINTY_ASSIGNED_CONTEXT((#756))
GLOBAL_UNIT_ASSIGNED_CONTEXT((#760,#759,#758))
REPRESENTATION_CONTEXT('Part 2','COMPONENT_PART')
);
#752=(
GEOMETRIC_REPRESENTATION_CONTEXT(3)
GLOBAL_UNCERTAINTY_ASSIGNED_CONTEXT((#757))
GLOBAL_UNIT_ASSIGNED_CONTEXT((#760,#759,#758))
REPRESENTATION_CONTEXT('Part 1','COMPONENT_PART')
);
#753=UNCERTAINTY_MEASURE_WITH_UNIT(LENGTH_MEASURE(1.E-8),#760,
'DISTANCE_ACCURACY_VALUE','Maximum Tolerance applied to model');
#754=UNCERTAINTY_MEASURE_WITH_UNIT(LENGTH_MEASURE(1.E-8),#760,
'DISTANCE_ACCURACY_VALUE','Maximum Tolerance applied to model');
#755=UNCERTAINTY_MEASURE_WITH_UNIT(LENGTH_MEASURE(1.E-8),#760,
'DISTANCE_ACCURACY_VALUE','Maximum Tolerance applied to model');
#756=UNCERTAINTY_MEASURE_WITH_UNIT(LENGTH_MEASURE(1.E-8),#760,
'DISTANCE_ACCURACY_VALUE','Maximum Tolerance applied to model');
#757=UNCERTAINTY_MEASURE_WITH_UNIT(LENGTH_MEASURE(1.E-8),#760,
'DISTANCE_ACCURACY_VALUE','Maximum Tolerance applied to model');
#758=(
NAMED_UNIT(*)
SI_UNIT($,.STERADIAN.)
SOLID_ANGLE_UNIT()
);
#759=(
NAMED_UNIT(*)
PLANE_ANGLE_UNIT()
SI_UNIT($,.RADIAN.)
);
#760=(
LENGTH_UNIT()
NAMED_UNIT(*)
SI_UNIT($,.METRE.)
);
#761=PRODUCT_DEFINITION_SHAPE('','',#770);
#762=PRODUCT_DEFINITION_SHAPE('','',#771);
#763=PRODUCT_DEFINITION_SHAPE(' ','NAUO PRDDFN',#15);
#764=PRODUCT_DEFINITION_SHAPE('','',#772);
#765=PRODUCT_DEFINITION_SHAPE(' ','NAUO PRDDFN',#16);
#766=PRODUCT_DEFINITION_SHAPE('','',#773);
#767=PRODUCT_DEFINITION_SHAPE(' ','NAUO PRDDFN',#17);
#768=PRODUCT_DEFINITION_SHAPE('','',#774);
#769=PRODUCT_DEFINITION_SHAPE(' ','NAUO PRDDFN',#18);
#770=PRODUCT_DEFINITION('','',#780,#775);
#771=PRODUCT_DEFINITION('','',#781,#776);
#772=PRODUCT_DEFINITION('','',#782,#777);
#773=PRODUCT_DEFINITION('','',#783,#778);
#774=PRODUCT_DEFINITION('','',#784,#779);
#775=PRODUCT_DEFINITION_CONTEXT('',#806,'design');
#776=PRODUCT_DEFINITION_CONTEXT('',#806,'design');
#777=PRODUCT_DEFINITION_CONTEXT('',#806,'design');
#778=PRODUCT_DEFINITION_CONTEXT('',#806,'design');
#779=PRODUCT_DEFINITION_CONTEXT('',#806,'design');
#780=PRODUCT_DEFINITION_FORMATION_WITH_SPECIFIED_SOURCE('','',#790,
 .NOT_KNOWN.);
#781=PRODUCT_DEFINITION_FORMATION_WITH_SPECIFIED_SOURCE('','',#791,
 .NOT_KNOWN.);
#782=PRODUCT_DEFINITION_FORMATION_WITH_SPECIFIED_SOURCE('','',#792,
 .NOT_KNOWN.);
#783=PRODUCT_DEFINITION_FORMATION_WITH_SPECIFIED_SOURCE('','',#793,
 .NOT_KNOWN.);
#784=PRODUCT_DEFINITION_FORMATION_WITH_SPECIFIED_SOURCE('','',#794,
 .NOT_KNOWN.);
#785=PRODUCT_RELATED_PRODUCT_CATEGORY('','',(#790));
#786=PRODUCT_RELATED_PRODUCT_CATEGORY('','',(#791));
#787=PRODUCT_RELATED_PRODUCT_CATEGORY('','',(#792));
#788=PRODUCT_RELATED_PRODUCT_CATEGORY('','',(#793));
#789=PRODUCT_RELATED_PRODUCT_CATEGORY('','',(#794));
#790=PRODUCT('0364-0-15-80-13-80-10-0_o2-g2',
'0364-0-15-80-13-80-10-0_o2-g2','0364-0-15-80-13-80-10-0_o2-g2',(#800));
#791=PRODUCT('Part 3','Part 3','Part 3',(#801));
#792=PRODUCT('Part 1','Part 1','Part 1',(#802));
#793=PRODUCT('Part 2','Part 2','Part 2',(#803));
#794=PRODUCT('Part 1','Part 1','Part 1',(#804));
#795=PRODUCT_CATEGORY('','');
#796=PRODUCT_CATEGORY('','');
#797=PRODUCT_CATEGORY('','');
#798=PRODUCT_CATEGORY('','');
#799=PRODUCT_CATEGORY('','');
#800=PRODUCT_CONTEXT('',#806,'mechanical');
#801=PRODUCT_CONTEXT('',#806,'mechanical');
#802=PRODUCT_CONTEXT('',#806,'mechanical');
#803=PRODUCT_CONTEXT('',#806,'mechanical');
#804=PRODUCT_CONTEXT('',#806,'mechanical');
#805=APPLICATION_PROTOCOL_DEFINITION('international standard',
'ap242_managed_model_based_3d_engineering',2020,#806);
#806=APPLICATION_CONTEXT('managed model based 3d engineering');
ENDSEC;
END-ISO-10303-21;
